<svg width="16" height="16" fill="none" xmlns="http://www.w3.org/2000/svg"><g clip-path="url(#clip0)" fill="#4479BC"><path d="M15.304 0H4.87a.522.522 0 0 0-.521.522v10.782c0 .288.233.522.521.522h10.435a.522.522 0 0 0 .522-.522V.522A.522.522 0 0 0 15.304 0zm-.522 4.174h-1.565a.522.522 0 0 0 0 1.043h1.565v5.566H8.174V9.217a.522.522 0 0 0-1.044 0v1.566H5.391v-9.74h1.74v5.74a.522.522 0 0 0 1.043 0V5.217h2.608a.522.522 0 0 0 0-1.043H8.174v-3.13h6.608v3.13zm.892 9.892l-1.044-1.044a.522.522 0 1 0-.738.738l.153.153H4.043l.152-.153a.522.522 0 1 0-.737-.738l-1.044 1.044a.523.523 0 0 0 0 .738l1.044 1.043a.522.522 0 1 0 .737-.738l-.152-.152h10.002l-.153.152a.522.522 0 0 0 .738.738l1.043-1.043a.523.523 0 0 0 0-.738zm-13.26-3.131l-.153.153V1.781l.153.153a.522.522 0 1 0 .737-.738L2.108.153a.522.522 0 0 0-.738 0L.327 1.196a.522.522 0 1 0 .737.738l.153-.153v9.307l-.153-.153a.522.522 0 0 0-.737.738l1.043 1.044a.522.522 0 0 0 .738 0l1.043-1.044a.522.522 0 0 0-.737-.738z"/></g><defs><clipPath id="clip0"><path fill="#fff" d="M0 0h16v16H0z"/></clipPath></defs></svg>