<svg width="65" height="65" fill="none" xmlns="http://www.w3.org/2000/svg"><path d="M25.24 47.813a1.119 1.119 0 0 0 1.618 1.321l3.73-2.285c.35-.198.566-.57.566-.972v-5.77a1.12 1.12 0 0 0-1.725-.941L27.76 40.24a1.12 1.12 0 0 0-.458.593l-2.061 6.98zm2.062-.964l1.354-4.835 1.045-.747v4.105l-2.399 1.477zM35.04 31.04v13.09a1.12 1.12 0 0 0 1.677.97l23.458-13.462c.348-.2.562-.57.562-.971v-13.09a1.12 1.12 0 0 0-1.676-.971L35.603 30.068c-.348.2-.562.57-.562.971zm2.24.647L58.498 19.51v10.508l-21.22 12.178V31.687z" fill="#213A72"/><path d="M0 48.429v4.941c0 .4.213.77.56.97l18.205 10.51a1.118 1.118 0 0 0 1.112.001v.002l6.493-3.687s2.606 1.567 2.747 1.648c.485.28 1.02.413 1.576.413 1.727 0 3.656-1.282 4.897-3.432.737-1.275 1.116-2.673 1.068-3.936a5.092 5.092 0 0 0-.055-.575l12.92-7.459 2.823 1.484v-.002c.464.26.988.39 1.54.39.651 0 1.341-.18 2.02-.537 1.117-.59 2.138-1.618 2.874-2.892.736-1.275 1.115-2.673 1.067-3.937a5.287 5.287 0 0 0-.028-.368l1.232-.711c.346-.2.56-.57.56-.97v-5.515l1.997-1.148c.348-.2.562-.57.562-.97V11.63c0-.4-.213-.77-.56-.969L45.403.15a1.12 1.12 0 0 0-1.117-.001L13.963 17.576c-.347.2-.561.57-.562.97v5.512l-6.16 3.596c-.267.155-.452.41-.523.703h-.001L4.052 39.332A12.211 12.211 0 0 0 0 48.429zm2.291-1.008l1.042.601v1.2l-1.094-.617v-.176c0-.339.019-.675.052-1.008zm4.05-8.029l1.073-4.417 15.958 9.213-1.256 4.312-15.775-9.108zm2.2-9.055l16.15 9.324-.674 2.315-16.052-9.268.576-2.37zm1.494-1.721l4.486-2.62 15.973 9.224-4.486 2.617-15.973-9.222zm5.606-8.13l15.967 9.217v3.575l-15.967-9.22v-3.572zm45.167-8.857l-28.08 16.137-15.964-9.217L44.842 2.411l15.966 9.218zM33.846 48.14V29.705l28.085-16.14v18.436L33.847 48.14zm19.01-2.117c-.032-.835.248-1.831.768-2.732.52-.901 1.243-1.642 1.981-2.032.353-.186.686-.28.969-.28.177 0 .335.036.465.112.338.195.547.678.571 1.325.032.835-.248 1.831-.769 2.732-.52.901-1.242 1.642-1.981 2.032-.573.302-1.095.364-1.434.168-.338-.195-.546-.678-.57-1.325zm-17.887 6.656a3.059 3.059 0 0 0-1.123-.38v-1.577l25.526-14.668v3.582l-.384.222a3.04 3.04 0 0 0-.83-.706c-1.018-.589-2.33-.542-3.598.127-1.117.59-2.138 1.617-2.875 2.892a8.181 8.181 0 0 0-.918 2.35L35.67 53.239a3.018 3.018 0 0 0-.7-.559zm-4.534 4.139c.853-1.478 2.107-2.314 2.946-2.314.177 0 .336.037.469.114.338.195.546.678.57 1.326.032.835-.248 1.83-.768 2.732-1.034 1.79-2.656 2.638-3.415 2.2-.76-.439-.836-2.267.198-4.058zm-9.99 1.446c0-2.598.992-5.06 2.794-6.933l.36-.372c.125-.13.217-.29.267-.464l3.095-10.622 4.647-2.712V52.69c-1.167.542-2.29 1.585-3.112 3.009a8.22 8.22 0 0 0-.883 2.186l-7.169 4.071v-3.692zm-3.348-1.097l.001-1.239 1.218.704c-.053.398-.086.8-.1 1.207l-1.12-.672zM2.239 52.724v-1.55l1.664.938a1.119 1.119 0 0 0 1.668-.975v-3.76c0-.4-.213-.77-.56-.97L2.8 45.129a9.973 9.973 0 0 1 2.41-3.806l15.817 9.132a12.166 12.166 0 0 0-2.18 3.897l-2.306-1.33a1.12 1.12 0 0 0-1.68.968l-.002 3.809c0 .393.205.758.542.96l2.806 1.686v1.497L2.239 52.724z" fill="#213A72"/></svg>