<svg width="56" height="73" fill="none" xmlns="http://www.w3.org/2000/svg"><path d="M27.534 45.636h0c.134.066.28.1.425.1.144 0 .29-.031.426-.102h.001l26.131-13.065h0a.951.951 0 0 0 0-1.698h0L33.942 20.584h0a.955.955 0 0 0-1.274.425h0a.951.951 0 0 0 .425 1.275h0l18.875 9.437L27.96 43.725 3.95 31.721l19.135-9.563h0a.951.951 0 0 0 .425-1.274h0a.95.95 0 0 0-1.274-.425h0L1.4 30.874h0a.951.951 0 0 0 0 1.698h0l26.133 13.064zm-.001 26.389h0c.135.066.28.1.425.1.144 0 .29-.032.423-.099 0 0 0 0 0 0L54.513 58.96h0a.951.951 0 0 0 .426-1.275h0a.952.952 0 0 0-1.274-.425h0L27.956 70.114 2.249 57.26h0a.954.954 0 0 0-1.274.425h0A.951.951 0 0 0 1.4 58.96h0l26.133 13.064z" fill="#213A72" stroke="#213A72" stroke-width=".25"/><path d="M53.14 58.11a.95.95 0 0 0 1.899 0V31.72a.95.95 0 0 0-1.9 0v26.39zM27.009 71.175a.95.95 0 0 0 1.9 0V44.787a.95.95 0 0 0-1.9 0v26.388zM.876 58.11a.95.95 0 0 0 1.899 0V31.72a.95.95 0 0 0-1.9 0v26.39zM29.125 2.36c0-.4-.119-.766-.317-1.036S28.325.875 28 .875c-.325 0-.61.179-.808.448a1.76 1.76 0 0 0-.317 1.037v33.28c0 .4.119.766.317 1.036.199.27.483.449.808.449.325 0 .61-.18.808-.45.198-.269.317-.636.317-1.035V2.36z" fill="#213A72" stroke="#213A72" stroke-width=".25"/><path d="M20.633 27.337h0a.953.953 0 0 0-1.346.001h0a.95.95 0 0 0 0 1.343l7.997 8h0a.95.95 0 0 0 1.344-.002l8.001-8h0a.95.95 0 0 0-1.343-1.342l-7.328 7.327-7.325-7.327z" fill="#213A72" stroke="#213A72" stroke-width=".25"/></svg>