<svg width="68" height="75" fill="none" xmlns="http://www.w3.org/2000/svg"><path d="M16.401 12.753c-.614.426-1.309.668-2.046.668-.737 0-1.433-.242-2.046-.668v.883l2.046 4.005 2.046-4.005v-.883z" fill="#D8B4A4"/><path d="M16.052 16.195l2.197 1 .107-2.478-1.317-.454-.987 1.932z" fill="#898785"/><path d="M14.355 12.568c2 0 3.628-2.32 3.628-5.172v-1.23c-.822-.14-1.384-.694-1.63-1.595-.487.324-1.19.522-1.998.522-.809 0-1.511-.198-2-.522-.244.9-.806 1.455-1.628 1.594v1.23c0 2.853 1.627 5.173 3.628 5.173zm1.535-5.03a.44.44 0 0 1 .602 0 .423.423 0 0 1 0 .601.424.424 0 0 1-.602 0 .425.425 0 0 1 0-.602zm-2.64 2.369c.2 0 .368.138.414.324.083.051.32.14.69.14.372 0 .608-.089.69-.14a.427.427 0 0 1 .841.102c0 .524-.63.89-1.53.89-.902 0-1.532-.366-1.532-.89 0-.236.191-.426.427-.426zm-1.158-2.07a.43.43 0 0 1 .124-.3.44.44 0 0 1 .604 0 .424.424 0 0 1 0 .602.427.427 0 0 1-.728-.301z" fill="#D8B4A4"/><path d="M11.642 3.421a.426.426 0 1 1 .853 0c0 .334.725.82 1.86.82 1.135 0 1.859-.486 1.859-.82a.426.426 0 0 1 .853 0c0 1.056.308 1.68.916 1.868V3.11c0-.041.008-.717-.577-1.315-.612-.625-1.639-.942-3.051-.942-1.413 0-2.44.317-3.052.942-.585.598-.577 1.273-.576 1.302v2.192c.607-.187.915-.812.915-1.868z" fill="#C69C6D"/><path d="M17.328 52.616a.535.535 0 0 0 .407.643.533.533 0 0 0 .642-.407.446.446 0 0 1 .008-.031l2.828-9.34-1.66-.981-2.225 10.116z" fill="#E5CBBD"/><path d="M14.781 18.68v21.369h4.297l.473-1.793c.026-.114.21-.858.766-1.598V23.852c0-.01.021-.133.024-.14l2.464-7.073c-.542-.484-1.292-.925-2.333-1.195l-1.275-.438-.124 2.857a.426.426 0 0 1-.603.37l-2.807-1.28-.882 1.727z" fill="#898785"/><path d="M20.318 49.382l-1.112 3.672a1.38 1.38 0 0 1-.608.854 1.381 1.381 0 0 1-1.049.183 1.382 1.382 0 0 1-.87-.612 1.38 1.38 0 0 1-.183-1.048l2.289-10.4a.426.426 0 0 1-.12-.417l.188-.713H8.393v30.29H12.5l1.429-27.5a.426.426 0 0 1 .85 0h.002l1.429 27.5h4.108v-21.81z" fill="#5576A5"/><path d="M12.658 16.195l-.987-1.932-1.317.454.107 2.478 2.197-1z" fill="#898785"/><path d="M8.393 23.852v16.197h5.536V18.68l-.882-1.726-2.807 1.279a.427.427 0 0 1-.602-.37l-.124-2.857-1.276.438c-1.039.27-1.788.714-2.33 1.202l2.467 7.089c.005.016.018.107.018.117z" fill="#898785"/><path d="M7.557 72.556c-.437.463-.57 1.157-.608 1.592h5.53v-2.103H8.896c-.577 0-1.015.167-1.34.511z" fill="#736357"/><path d="M22.123 41.536l-1.366-4a3.463 3.463 0 0 0-.374.91l-.005.02-.806 3.054 2.149 1.27.402-1.254z" fill="#B0CE5F"/><path d="M1.014 39.59H3.71l.798-1.466H.906l.108 1.467z" fill="#898785"/><path d="M.862 41.421c-.04.306.043.61.231.856.19.246.462.403.77.443.306.04.611-.042.856-.231.246-.19.403-.462.443-.77.001-.011.274-1.276.274-1.276H.991l-.129.978z" fill="#D8B4A4"/><path d="M4.519 19.15L.967 37.271h3.91l2.65-13.389-2.269-6.51c-.65.911-.738 1.763-.74 1.778z" fill="#898785"/><path d="M49.63 17.265l2.782-.668v-2.145c-1.029-.929-1.706-2.5-1.706-4.278V8.999c0-.2.142-.38.346-.419.031-.006 3.1-.619 3.1-2.59V3.418c-.763.045-2.422.27-3.544 1.35-.777.747-1.17 1.79-1.17 3.1a.428.428 0 0 1-.049.197c-.038.072-3.627 7.035-1.007 9.662a5.383 5.383 0 0 1 1.248-.46z" fill="#CC7050"/><path d="M51.559 9.337v.838c0 2.377 1.354 4.31 3.019 4.31 1.664 0 3.018-1.933 3.018-4.31v-.838c-.699-.186-2.262-.718-3.018-1.892-.757 1.174-2.32 1.706-3.02 1.892zm1.237 1.441a.438.438 0 0 1-.302-.124.435.435 0 0 1-.124-.302c0-.113.046-.222.124-.302a.442.442 0 0 1 .604 0 .427.427 0 0 1-.302.728zm3.262-.728a.44.44 0 0 1 .602 0 .427.427 0 0 1-.302.728.422.422 0 0 1-.3-.126.422.422 0 0 1 0-.602zm-.747 2.257a.427.427 0 0 1 .842.095c0 .535-.648.91-1.575.91-.928 0-1.576-.375-1.576-.91a.426.426 0 0 1 .842-.095c.084.054.334.151.734.151.4 0 .65-.097.733-.151z" fill="#FCEBE6"/><path d="M22.523 30.647a6.676 6.676 0 0 1-.08-1.02c0-3.688 1.498-4.916 2.739-5.418 0 0-.989-5.043-.99-5.058-.006-.062-.1-.898-.736-1.788l-2.271 6.52 1.338 6.764z" fill="#898785"/><path d="M43.176 27.176h.002a.426.426 0 0 1 .72 0l.88 1.4h3.633c0-2.655-1.791-3.836-3.541-3.836-2.077 0-3.287 1.32-3.54 3.835h.968l.878-1.4z" fill="#9C6634"/><path d="M58.102 8.58a.426.426 0 0 1 .348.42v1.175c0 1.778-.677 3.349-1.706 4.278v2.146l2.785.668c.462.109.875.268 1.246.46 2.618-2.628-.97-9.59-1.008-9.662a.428.428 0 0 1-.048-.198c0-1.31-.395-2.355-1.174-3.103-1.127-1.081-2.78-1.303-3.54-1.346v2.574c0 1.977 3.067 2.583 3.099 2.59z" fill="#CC7050"/><path d="M54.577 15.338c-.46 0-.903-.109-1.313-.307v1.903a.426.426 0 0 1-.327.415l-1.94.465c.216 1.177 1.598 1.947 3.58 1.947s3.364-.77 3.58-1.947l-1.94-.465a.426.426 0 0 1-.327-.415v-1.903c-.41.198-.852.306-1.313.306z" fill="#FCEBE6"/><path d="M48.46 29.627c0-.067 0-.133-.002-.2H44.54a.426.426 0 0 1-.36-.199l-.644-1.024-.642 1.024a.426.426 0 0 1-.361.2H41.28c-.001.066-.003.131-.003.199 0 2.54 1.611 4.606 3.592 4.606 1.98 0 3.592-2.066 3.592-4.606zm-2.225.482a.442.442 0 0 1 .604 0c.078.078.125.19.125.302a.427.427 0 1 1-.728-.302zm-3.335.609a.422.422 0 0 1 0-.602.44.44 0 0 1 .602 0 .427.427 0 0 1-.302.728.425.425 0 0 1-.3-.126zm.539 1.789c0-.236.19-.427.425-.428h.001c.185 0 .343.119.402.284.087.043.294.103.597.103h.005c.306 0 .514-.062.601-.105a.426.426 0 0 1 .829.14c0 .169-.072.481-.565.673a2.464 2.464 0 0 1-.863.145h-.008c-.851 0-1.423-.326-1.424-.812zm-16.551 2.579c-.45 0-.883-.083-1.292-.236a.425.425 0 0 1-.166.237c.204.314.758.592 1.452.592h.013c.693 0 1.247-.278 1.452-.592a.425.425 0 0 1-.166-.237 3.68 3.68 0 0 1-1.293.236z" fill="#E5CBBD"/><path d="M47 34.435l.741.258c.098-.437.2-.853.305-1.25a4.705 4.705 0 0 1-1.046.975v.017z" fill="#FCEBE6"/><path d="M23.347 28.575h.968l.879-1.4a.426.426 0 0 1 .72.002l.002-.001.878 1.4h3.634c-.253-2.515-1.464-3.836-3.54-3.836-2.077 0-3.288 1.32-3.541 3.835z" fill="#C69C6D"/><path d="M22.629 31.185l.738 3.733 1.392-.483v-.017c-1.017-.685-1.793-1.844-2.13-3.233z" fill="#898785"/><path d="M44.869 35.086c-.45 0-.883-.083-1.292-.236a.425.425 0 0 1-.167.237c.205.315.76.595 1.458.592h.007c.694 0 1.248-.278 1.452-.592a.425.425 0 0 1-.166-.237 3.676 3.676 0 0 1-1.292.236zm-18.67-5.858l-.643-1.024-.643 1.024a.426.426 0 0 1-.361.2h-1.253l-.002.199c0 2.54 1.611 4.606 3.592 4.606 1.98 0 3.591-2.066 3.591-4.606l-.002-.2H26.56a.426.426 0 0 1-.361-.199zm-1.28 1.491a.431.431 0 0 1 0-.604.442.442 0 0 1 .603 0 .431.431 0 0 1 0 .604.435.435 0 0 1-.302.125.435.435 0 0 1-.301-.125zm3.337-.61a.44.44 0 0 1 .602 0 .425.425 0 1 1-.602.602.424.424 0 0 1 0-.602zm-.766 2.252a.426.426 0 0 1 .829.14c0 .169-.073.481-.565.673a2.465 2.465 0 0 1-.864.145h-.007c-.851 0-1.423-.326-1.424-.812a.427.427 0 1 1 .828-.144c.087.043.3.11.602.103.305 0 .514-.062.6-.105z" fill="#E5CBBD"/><path d="M23.153 52.541l-.943 8.87h3.7l.554-6.328a.426.426 0 1 1 .848 0h.001l.558 6.328h3.696l-.943-8.87h-7.47z" fill="#C69C6D"/><path d="M48.606 52.541h-7.471l-.944 8.87h3.701l.553-6.328a.426.426 0 1 1 .848 0h.002l.557 6.328h3.697l-.943-8.87z" fill="#C66D6D"/><path d="M48.089 72.16l.513-9.897H46.23l-.003 9.897h1.862z" fill="#E5CBBD"/><path d="M48.491 73.013h-2.266v1.134h3.403l.01-.007c-.038-.262-.131-.595-.353-.83-.19-.199-.449-.297-.794-.297z" fill="#B3B3B3"/><path d="M51.374 38.445a3.461 3.461 0 0 0-.373-.91l-1.366 4 .402 1.256 2.149-1.271-.812-3.075z" fill="#5F7ECE"/><path d="M41.248 73.013c-.345 0-.605.098-.794.298-.223.236-.316.573-.354.836h3.414v-1.134h-2.266z" fill="#B3B3B3"/><path d="M43.514 72.16l-.004-9.897h-2.37l.513 9.897h1.862z" fill="#E5CBBD"/><path d="M49.57 43.791l-.155 8.305.051.482h2.942l-2.642-8.726a.425.425 0 0 1-.196-.06z" fill="#BADFE8"/><path d="M50.956 74.147h3.194V71.65h-1.861c-.127.549-.466 1.593-1.333 2.498z" fill="#998675"/><path d="M63.506 24.458l-2.541 1.155c-.09.258-.203.488-.332.693l4.45 14.62.009.03a1 1 0 0 0 .445.631 1.007 1.007 0 0 0 1.525-1.076l-3.556-16.053zm-10.345 29.45a1.384 1.384 0 0 1-.459-.477h-2.361c.037 1.682.286 8.214 1.95 17.365h1.86V54.101a1.382 1.382 0 0 1-.99-.193zm1.919-.428c-.024.037-.05.073-.076.108v17.208h1.86c1.666-9.156 1.913-15.684 1.95-17.365h-3.706l-.028.048z" fill="#FCEBE6"/><path d="M55.004 71.65v2.497h3.194c-.867-.905-1.206-1.95-1.333-2.498h-1.861z" fill="#998675"/><path d="M19.814 72.045h-3.582v2.103h5.03a2.81 2.81 0 0 1 .278-.972c-.309-.76-.875-1.131-1.726-1.131z" fill="#736357"/><path d="M52.204 42.5l-1.66.981 2.829 9.34.008.03a.534.534 0 0 0 .642.408.534.534 0 0 0 .407-.642L52.204 42.5zm-17.981 0l-1.66.981 2.828 9.34c.004.01.006.02.008.03a.535.535 0 0 0 .642.408.534.534 0 0 0 .408-.642L34.223 42.5z" fill="#E5CBBD"/><path d="M40.98 41.524l.19 10.164h7.4l.19-10.164c0-.009.02-.124.023-.13l1.588-4.651a2.986 2.986 0 0 0-1.377-.716c-.015-.003-1.86-.642-1.86-.642-.324.666-1.212 1.146-2.258 1.146h-.012c-1.046 0-1.934-.48-2.259-1.146 0 0-1.844.639-1.86.642a2.987 2.987 0 0 0-1.376.716l1.588 4.65c.002.007.023.122.023.13z" fill="#5F7ECE"/><path d="M25.533 72.16l-.003-9.897h-2.372l.513 9.897h1.862zm2.715-9.897l-.004 9.897h1.862l.513-9.897h-2.371z" fill="#E5CBBD"/><path d="M23.268 73.013c-.345 0-.605.098-.794.298-.224.236-.317.573-.355.836h3.415v-1.134h-2.266z" fill="#B3B3B3"/><path d="M31.014 36.027a.386.386 0 0 1-.046-.013l-1.814-.63c-.324.667-1.213 1.147-2.258 1.147h-.013c-1.045 0-1.934-.48-2.258-1.146l-1.815.63a.423.423 0 0 1-.045.012 2.986 2.986 0 0 0-1.376.716l1.587 4.65c.003.007.023.122.023.13l.19 10.165h7.4l.19-10.164a2.32 2.32 0 0 1 .024-.13l1.587-4.651a2.988 2.988 0 0 0-1.376-.716z" fill="#B0CE5F"/><path d="M28.244 73.013v1.134h3.415c-.038-.263-.13-.6-.354-.836-.19-.2-.45-.298-.794-.298h-2.267z" fill="#B3B3B3"/><path d="M36.316 48.045l.63 2.865 2.25-7.429-1.66-.981-1.22 5.545z" fill="#E5CBBD"/><path d="M60.318 22.076c.697.631.917 1.607.853 2.506l2.147-.976-.397-1.791c-.028-.122-.735-3.048-3.592-3.72l-.337-.08c-.308 1.574-2.004 2.598-4.416 2.598-2.41 0-4.108-1.024-4.416-2.598l-.334.08c-2.86.672-3.566 3.599-3.595 3.723l-.396 1.788 2.147.976c-.065-.9.156-1.875.853-2.506a.427.427 0 0 1 .573.631c-.66.599-.71 1.771-.416 2.62.228.662.633 1.093 1.056 1.123a.426.426 0 0 1 .395.4l.146 2.471a.426.426 0 0 1-.074.266c-.762 1.115-1.422 2.927-1.964 5.387l.656.228c2.385.556 2.953 2.846 3 3.054l.886 3.358a.425.425 0 0 1-.12.417s2.308 10.498 2.314 10.547h6.94c-.03-2.773-.344-18.241-3.59-22.991a.426.426 0 0 1-.073-.266l.146-2.471a.426.426 0 0 1 .395-.4c.423-.03.828-.46 1.056-1.123.293-.849.245-2.021-.416-2.62a.426.426 0 0 1 .573-.631z" fill="#BADFE8"/><path d="M33.399 38.466a3.468 3.468 0 0 0-.379-.93l-1.366 4 .403 1.255 2.148-1.271-.806-3.054z" fill="#B0CE5F"/><path d="M38.363 38.447a.312.312 0 0 1-.004.019l-.806 3.054 2.148 1.27.402-1.254-1.365-4a3.485 3.485 0 0 0-.375.91z" fill="#5F7ECE"/><path d="M25.883 32.08a.426.426 0 0 0-.426.427c.001.486.573.812 1.424.812h.008c.32 0 .626-.052.864-.145.492-.192.565-.504.564-.673a.426.426 0 0 0-.426-.426h-.001a.427.427 0 0 0-.402.286c-.087.043-.295.105-.601.105a1.398 1.398 0 0 1-.602-.103.426.426 0 0 0-.402-.283zm-.236-1.662a.431.431 0 0 0-.125-.302.442.442 0 0 0-.604 0 .432.432 0 0 0 0 .604c.08.078.19.124.302.124a.435.435 0 0 0 .302-.124.434.434 0 0 0 .125-.302zm2.91.418a.426.426 0 0 0 .426-.426.425.425 0 0 0-.126-.3.44.44 0 0 0-.602 0 .423.423 0 0 0 0 .601c.079.08.19.125.302.125zm17.178 2.338c.492-.192.566-.504.565-.673a.426.426 0 0 0-.426-.426h-.001a.427.427 0 0 0-.402.286c-.087.043-.296.105-.601.105h-.006c-.303 0-.51-.06-.596-.103a.426.426 0 0 0-.402-.283h-.001a.426.426 0 0 0-.425.427c0 .486.573.812 1.424.812h.007c.32 0 .627-.052.864-.145zm-2.107-2.756a.428.428 0 0 0-.124-.302.44.44 0 0 0-.602 0 .422.422 0 0 0 0 .602.425.425 0 0 0 .726-.3zm2.91.418a.427.427 0 0 0 .426-.425.432.432 0 0 0-.124-.302.442.442 0 0 0-.604 0 .432.432 0 0 0-.125.302.428.428 0 0 0 .426.425zm6.889-18.861a.426.426 0 0 0-.426.426c0 .535.648.91 1.576.91.927 0 1.575-.375 1.575-.91a.426.426 0 0 0-.842-.095c-.084.055-.334.152-.733.152-.4 0-.65-.098-.734-.152a.426.426 0 0 0-.416-.331zm-.207-1.624a.427.427 0 0 0-.124-.301.442.442 0 0 0-.603 0 .435.435 0 0 0-.125.301c0 .113.046.222.125.302.08.079.19.125.301.125a.427.427 0 0 0 .426-.426zm3.137.427a.427.427 0 0 0 .302-.728.44.44 0 0 0-.602 0 .422.422 0 0 0 0 .602.42.42 0 0 0 .3.126z" fill="#1C1B1A"/><path d="M64.225 23.759v-.003l-.472-2.127c-.025-.111-.507-2.137-2.243-3.44 2.678-2.988-.485-9.526-.941-10.427-.022-1.504-.504-2.72-1.435-3.614-1.705-1.636-4.302-1.6-4.557-1.592-.26-.008-2.853-.044-4.557 1.592-.931.894-1.414 2.11-1.435 3.614-.457.901-3.62 7.439-.94 10.426-1.737 1.304-2.22 3.33-2.245 3.442l-.5 2.257h-.03c-1.277 0-4.444.424-4.444 5.74 0 2.063.937 3.862 2.315 4.79v.018l-2.208.766c-2.386.557-2.953 2.846-3 3.055l-.886 3.357a.425.425 0 0 0 .12.417l-.888 4.031-.887-4.03a.426.426 0 0 0 .12-.418l-.887-3.357c-.047-.209-.614-2.498-3-3.055l-2.208-.766v-.018c1.379-.928 2.316-2.727 2.316-4.79 0-5.273-3.167-5.74-4.445-5.74-.245 0-.55.02-.884.082l-.965-4.92c-.037-.336-.481-3.418-4.336-4.426l-3.449-1.189v-1.45c.967-1.106 1.582-2.752 1.582-4.588V3.127c0-.043.03-1.044-.802-1.91C17.257.41 16.02 0 14.355 0c-1.664 0-2.902.41-3.679 1.218-.832.865-.803 1.866-.802 1.892v4.286c0 1.836.615 3.482 1.582 4.588v1.45l-3.449 1.189c-3.855 1.008-4.299 4.09-4.336 4.427 0 0-3.648 18.66-3.647 18.667l-.001.012.166 2.276-.172 1.306a2 2 0 0 0 .401 1.487 1.998 1.998 0 0 0 1.599.785c.44 0 .867-.145 1.223-.418.42-.324.692-.791.765-1.317l.363-1.68 1.233-2.266c.002-.004 1.939-9.699 1.939-9.699v43.305c-.223.12-.424.274-.602.462-.936.992-.857 2.562-.853 2.628.013.226.2.402.425.402h6.395a.427.427 0 0 0 .427-.427V71.63l1.023-19.704 1.024 19.704v2.944c0 .236.19.427.426.427H25.96a.427.427 0 0 0 .426-.427l-.004-12.317a.427.427 0 0 0 .344-.382l.164-1.878.165 1.879c.017.19.158.343.34.38l-.004 12.318a.427.427 0 0 0 .426.427h4.292a.426.426 0 0 0 .425-.4c.003-.048.062-1.16-.606-1.87a1.762 1.762 0 0 0-.97-.528l.515-9.938h.569a.426.426 0 0 0 .423-.472l-1.03-9.696.154-8.304a.417.417 0 0 0 .196.06l2.786 9.203c.084.355.3.657.608.853a1.381 1.381 0 0 0 1.049.183c.362-.08.671-.298.87-.611.16-.252.232-.54.213-.831l2.663-8.796a.422.422 0 0 0 .196-.06l.155 8.303-1.032 9.696a.427.427 0 0 0 .424.471h.569l.515 9.94c-.386.074-.71.251-.97.527-.668.71-.61 1.822-.607 1.87.014.224.2.4.426.4h4.292a.427.427 0 0 0 .426-.427l-.004-12.317a.427.427 0 0 0 .344-.382l.164-1.877.165 1.878a.426.426 0 0 0 .34.38l-.005 12.318a.427.427 0 0 0 .426.427H59.4a.426.426 0 0 0 .223-.79c-1.566-.96-1.918-2.652-1.973-2.98 1.726-9.377 1.979-16.091 2.016-17.8h2.991c.236 0 .427-.19.427-.426 0-.746-.043-18.22-3.66-23.775l.118-2.002a1.74 1.74 0 0 0 .417-.206l4.305 14.138c.112.478.402.886.818 1.148a1.85 1.85 0 0 0 1.405.243 1.85 1.85 0 0 0 1.165-.823c.265-.42.351-.92.242-1.403L64.225 23.76zM55.003 3.417c.76.043 2.414.265 3.54 1.346.78.748 1.174 1.792 1.174 3.104 0 .068.017.136.049.197.037.072 3.626 7.034 1.007 9.662a5.376 5.376 0 0 0-1.246-.46l-2.785-.668v-2.146c1.029-.929 1.706-2.5 1.706-4.278V9c0-.2-.142-.38-.346-.419-.031-.006-3.099-.612-3.099-2.59V3.418zm1.214 13.932l1.94.465c-.216 1.177-1.598 1.947-3.58 1.947s-3.364-.77-3.58-1.947l1.94-.465a.426.426 0 0 0 .327-.415V15.03c.41.198.852.306 1.313.306.46 0 .903-.108 1.313-.306v1.903c0 .197.135.368.327.415zm-1.64-9.904c.756 1.174 2.32 1.705 3.019 1.891v.838c0 2.377-1.355 4.31-3.02 4.31-1.664 0-3.018-1.933-3.018-4.31v-.838c.699-.186 2.262-.717 3.019-1.891zm-5.189.62a.426.426 0 0 0 .049-.198c0-1.31.394-2.352 1.17-3.1 1.122-1.08 2.782-1.305 3.543-1.35v2.574c0 1.97-3.068 2.583-3.099 2.59a.426.426 0 0 0-.346.418v1.175c0 1.778.678 3.35 1.706 4.278v2.146l-2.782.668a5.389 5.389 0 0 0-1.248.46c-2.62-2.627.97-9.59 1.007-9.662zM44.87 24.74c1.75 0 3.541 1.181 3.541 3.835h-3.634l-.879-1.4a.426.426 0 0 0-.72.002l-.002-.001-.878 1.4h-.969c.253-2.515 1.464-3.836 3.54-3.836zm-3.592 4.887c0-.067.002-.133.003-.2h1.252a.426.426 0 0 0 .361-.199l.643-1.024.643 1.024c.078.124.215.2.361.2h3.918c.001.066.003.132.003.2 0 2.54-1.612 4.605-3.592 4.605s-3.592-2.066-3.592-4.606zm6.767 3.815c-.106.398-.207.814-.305 1.25l-.74-.257v-.017a4.7 4.7 0 0 0 1.046-.976zm-1.717 1.645c-.205.314-.758.592-1.452.592h-.007c-.699.003-1.254-.277-1.458-.592a.425.425 0 0 0 .166-.237 3.672 3.672 0 0 0 2.585 0c.026.096.085.18.166.237zm-15.848-5.46c0 2.54-1.611 4.607-3.592 4.607-1.98 0-3.591-2.067-3.591-4.607l.002-.2h1.253a.426.426 0 0 0 .36-.199l.644-1.024.643 1.024c.077.124.214.2.36.2h3.919l.002.2zm-2.133 5.46c-.205.314-.759.592-1.452.592h-.013c-.694 0-1.248-.278-1.452-.592a.424.424 0 0 0 .166-.237 3.671 3.671 0 0 0 2.584 0c.027.096.085.18.167.237zm-3.588-.67v.018l-1.391.483-.739-3.733c.338 1.389 1.113 2.548 2.13 3.233zm2.13-9.677c2.076 0 3.287 1.32 3.54 3.835h-3.633l-.88-1.4v.002a.426.426 0 0 0-.72 0l-.88 1.398h-.968c.253-2.514 1.464-3.835 3.54-3.835zm-2.697-5.59l.99 5.059c-1.24.502-2.738 1.73-2.738 5.418 0 .349.028.69.079 1.02l-1.338-6.765 2.27-6.519c.638.89.731 1.726.737 1.788zm-4.62 22.37l.806-3.055a3.477 3.477 0 0 1 .38-.93l1.365 4-.403 1.255-2.148-1.27zm1.642 1.961l-2.828 9.34a.535.535 0 0 1-.65.438.535.535 0 0 1-.408-.643L19.555 42.5l1.659.981zm1.34-8.28h-.002a3.848 3.848 0 0 0-1.381.62v-7.617l1.384 6.996zm-3.906-16.93a.427.427 0 0 0 .425-.408l.124-2.857 1.276.438c1.04.27 1.79.71 2.332 1.195l-2.463 7.073c-.003.007-.024.13-.024.14v12.806a4.506 4.506 0 0 0-.767 1.599l-.473 1.792h-4.296V18.68l.882-1.726 2.807 1.279a.428.428 0 0 0 .177.038zm-4.293-.63l-2.046-4.005v-.883c.614.426 1.31.668 2.046.668.737 0 1.433-.242 2.047-.668v.883l-2.047 4.005zm4.001-2.925l-.107 2.478-2.197-1 .987-1.932 1.317.454zm-7.052-12.92c.612-.626 1.639-.943 3.051-.943 1.413 0 2.44.317 3.052.942.585.598.577 1.274.576 1.315v2.18c-.607-.187-.915-.812-.915-1.868a.426.426 0 1 0-.853 0c0 .334-.725.82-1.86.82-1.135 0-1.859-.486-1.859-.82a.426.426 0 1 0-.853 0c0 1.056-.308 1.681-.916 1.868V3.097c0-.028-.008-.704.577-1.302zm-.577 5.6v-1.23c.822-.14 1.384-.694 1.629-1.594.488.324 1.19.522 1.999.522.809 0 1.511-.198 2-.522.244.9.806 1.454 1.628 1.593v1.23c0 2.853-1.628 5.173-3.628 5.173s-3.628-2.32-3.628-5.172zm.944 6.866l.987 1.932-2.197 1-.107-2.478 1.317-.454zM3.162 41.72a1.157 1.157 0 0 1-1.299 1 1.151 1.151 0 0 1-.77-.442 1.151 1.151 0 0 1-.23-.856l.129-.978h2.444l-.274 1.276zm.55-2.129H1.013l-.107-1.467H4.51l-.799 1.467zm1.165-2.32H.967s3.55-18.105 3.551-18.12c.001-.016.09-.867.74-1.779l2.268 6.51-2.65 13.39zm1.03-20.625c.542-.489 1.291-.932 2.33-1.202l1.276-.438.124 2.857a.426.426 0 0 0 .603.37l2.806-1.28.883 1.727v21.369H8.393V23.852c0-.01-.014-.1-.019-.117l-2.466-7.09zm6.572 57.501H6.95c.039-.435.17-1.128.608-1.591.325-.344.763-.511 1.34-.511h3.58l.001 2.102zm2.302-30.457h-.003a.425.425 0 0 0-.85 0L12.5 71.192H8.393v-30.29h10.46l-.188.712a.425.425 0 0 0 .12.417l-2.289 10.4c-.08.362-.016.735.183 1.048a1.38 1.38 0 0 0 1.177.646c.26 0 .516-.074.742-.217a1.38 1.38 0 0 0 .608-.854l1.112-3.672v21.81H16.21L14.78 43.69zm6.48 30.457h-5.03v-2.103h3.581c.852 0 1.418.371 1.727 1.132a2.83 2.83 0 0 0-.279.971zm-.09-2.634V46.566l.821-2.713a.423.423 0 0 0 .196-.061l.155 8.304-1.032 9.696a.427.427 0 0 0 .424.471h.569l.515 9.939a1.805 1.805 0 0 0-.672.28 2.479 2.479 0 0 0-.976-.969zm.948 2.634c.038-.263.13-.6.354-.836.19-.2.449-.297.794-.298h2.266v1.134H22.12zm1.039-11.884h2.371l.004 9.897H23.67l-.513-9.897zm8.146 11.048c.223.236.316.573.354.836h-3.415v-1.134h2.267c.345 0 .605.098.794.298zm-3.06-1.15l.003-9.898h2.372l-.513 9.897h-1.862zm3.323-10.75H27.87l-.557-6.328a.426.426 0 0 0-.85 0l-.553 6.328h-3.7l.943-8.87h7.47l.944 8.87zm-.765-20.017a2.577 2.577 0 0 0-.023.13l-.19 10.164h-7.401l-.19-10.165c0-.008-.02-.123-.023-.13l-1.587-4.65c.34-.312.789-.582 1.376-.716a.381.381 0 0 0 .045-.013l1.815-.63c.324.667 1.213 1.147 2.258 1.147h.013c1.045 0 1.933-.48 2.258-1.146l1.814.63c.015.004.03.009.046.012a2.987 2.987 0 0 1 1.376.716l-1.587 4.65zm.852.142l1.366-4.001c.273.472.366.874.374.91l.005.02.806 3.055-2.148 1.27-.403-1.254zm4.724 11.486a.534.534 0 0 1-.979-.17.492.492 0 0 0-.008-.031l-2.828-9.34 1.66-.981 2.226 10.117a.536.536 0 0 1-.071.405zm.568-2.112l-.63-2.865 1.22-5.545 1.66.981-2.25 7.429zm2.756-8.12l-2.149-1.27.806-3.055a3.477 3.477 0 0 1 .38-.93l1.365 4-.402 1.255zm-.333-6.047c.34-.312.79-.582 1.377-.716.015-.003 1.86-.642 1.86-.642.324.666 1.212 1.146 2.257 1.146h.013c1.045 0 1.934-.48 2.258-1.146 0 0 1.845.639 1.86.642a2.987 2.987 0 0 1 1.377.716l-1.588 4.65a2.469 2.469 0 0 0-.023.13l-.19 10.165h-7.4l-.19-10.165a2.71 2.71 0 0 0-.023-.13l-1.588-4.65zm10.267 4.793L51 37.535c.274.472.367.874.374.91l.811 3.075-2.148 1.27-.402-1.254zm2.772 11.042h-2.941l-.052-.482.156-8.304a.415.415 0 0 0 .195.06l2.642 8.726zM40.1 74.148c.038-.264.131-.6.355-.837.189-.2.449-.297.794-.298h2.266v1.134H40.1zm1.04-11.885h2.371l.003 9.897h-1.861l-.514-9.897zm4.154-7.18a.426.426 0 0 0-.849 0l-.553 6.328h-3.7l.943-8.87h7.47l.944 8.87h-3.697l-.557-6.328zm3.307 7.18l-.514 9.897h-1.861l.003-9.897h2.372zm1.027 11.884h-3.403v-1.134h2.266c.345 0 .605.098.794.298.222.234.315.567.354.83-.004.001-.008.004-.011.006zm.281-1.418a1.762 1.762 0 0 0-.97-.527l.515-9.939h.569a.443.443 0 0 0 .13-.022c.298 2.577.729 5.61 1.35 8.99-.043.258-.271 1.368-1.138 2.296a2.115 2.115 0 0 0-.456-.797zm4.241 1.418h-3.194c.867-.905 1.207-1.95 1.333-2.498h1.861v2.498zm0-3.35h-1.86c-1.664-9.152-1.913-15.684-1.95-17.366h2.362c.11.191.266.355.459.477a1.381 1.381 0 0 0 .99.192v16.696zm.21-17.775a.534.534 0 0 1-.979-.17.432.432 0 0 0-.008-.031l-2.828-9.34 1.66-.981 2.226 10.117c.03.14.006.284-.071.405zm3.837 21.125h-3.194V71.65h1.862c.126.549.465 1.593 1.332 2.498zm-1.334-3.35h-1.86v-17.21a1.37 1.37 0 0 0 .076-.108l.028-.048h3.706c-.036 1.681-.284 8.21-1.95 17.365zm2.883-48.09c.66.599.708 1.771.415 2.62-.228.662-.633 1.092-1.056 1.123a.426.426 0 0 0-.395.4l-.145 2.471a.427.427 0 0 0 .073.266c3.245 4.75 3.56 20.218 3.59 22.991h-6.941c-.006-.049-2.313-10.547-2.313-10.547a.425.425 0 0 0 .119-.417l-.886-3.358c-.047-.209-.614-2.498-3-3.055l-.656-.227c.542-2.46 1.202-4.272 1.964-5.387a.426.426 0 0 0 .074-.266l-.146-2.471a.426.426 0 0 0-.395-.4c-.423-.03-.827-.46-1.056-1.123-.293-.849-.244-2.021.416-2.62a.426.426 0 1 0-.573-.632c-.697.632-.918 1.607-.853 2.507l-2.147-.976.396-1.788c.029-.124.736-3.051 3.595-3.723l.335-.08c.308 1.574 2.004 2.598 4.415 2.598 2.412 0 4.108-1.024 4.416-2.598l.337.08c2.857.672 3.564 3.599 3.592 3.72l.397 1.791-2.147.976c.065-.9-.156-1.875-.853-2.507a.426.426 0 1 0-.572.632zm-10.67 4.7l.118-.386c.133.088.272.158.418.206l.117 2.002a8.3 8.3 0 0 0-.424.738c.005-.113-.014-1.754-.228-2.56zm17.855 13.865a1.004 1.004 0 0 1-.632.446 1 1 0 0 1-.761-.131 1.002 1.002 0 0 1-.454-.662l-4.451-14.62c.129-.205.242-.435.332-.693l2.542-1.155 3.556 16.053c.059.264.012.534-.132.762z" fill="#1C1B1A"/><path d="M14.355 11.224c.901 0 1.53-.366 1.53-.89a.426.426 0 0 0-.84-.103c-.082.051-.319.14-.69.14-.371 0-.607-.089-.69-.14a.426.426 0 0 0-.84.102c-.001.525.629.89 1.53.89zM12.82 8.14a.427.427 0 0 0 0-.603.439.439 0 0 0-.604 0 .43.43 0 0 0-.124.3c0 .113.046.224.124.302a.43.43 0 0 0 .604 0zm3.371.124a.424.424 0 0 0 .302-.726.44.44 0 0 0-.602 0 .425.425 0 0 0 .3.726z" fill="#1C1B1A"/></svg>