<svg width="85" height="75" fill="none" xmlns="http://www.w3.org/2000/svg"><path d="M67.19 18.744l-.923-1.755-1.23.413.1 2.252 2.052-.91z" fill="#fff"/><path d="M79.427 41.068h2.65l.12-.793H78.9l.526.793z" fill="#588AA3"/><path d="M68.266 8.364a.46.46 0 0 1 .456.408h.455a.46.46 0 0 1 .455-.408h2.448c-.111-2.038-.976-4.055-3.13-4.055-2.155 0-3.02 2.017-3.13 4.055h2.446zm-.273-3.234h1.913a.461.461 0 1 1 0 .922h-1.913a.461.461 0 1 1 0-.922zm-.751 1.495h3.415a.461.461 0 1 1 0 .922h-3.415a.461.461 0 1 1 0-.922z" fill="#E0B489"/><path d="M73.445 8.364a.46.46 0 0 1 .461.46v.609c.166-.476.213-1.315-.24-2.776-.347-1.122-1.048-1.821-1.9-1.969.724.866 1.163 2.128 1.235 3.676h.444z" fill="#CCC"/><path d="M70.093 10.014a.93.93 0 0 0 .929.929h1.034a.93.93 0 0 0 .928-.929v-.727h-2.891v.727zm1.12-.225a.476.476 0 0 1 .651 0 .464.464 0 0 1 .136.326.464.464 0 0 1-.46.461.462.462 0 0 1-.326-.788z" fill="#D8D5D4"/><path d="M72.76 19.654l.101-2.252-1.23-.413-.923 1.755 2.053.91zm-.905.608l-1.012-.448-.761 1.087.301 1.137c.952-.457 1.331-1.306 1.472-1.776z" fill="#fff"/><path d="M72.93 11.646c-.261.14-.559.22-.875.22h-1.034c-.28 0-.544-.065-.782-.176a1.412 1.412 0 0 1-1.29.843 1.412 1.412 0 0 1-1.291-.844 1.838 1.838 0 0 1-.782.176h-1.034a1.84 1.84 0 0 1-.874-.22c.295 2.032 1.847 3.399 3.98 3.399 2.135 0 3.686-1.367 3.981-3.399zm-5.686 1.622a.461.461 0 0 1 .819-.292c.128.038.434.092.885.092.452 0 .758-.054.886-.092a.46.46 0 0 1 .819.292c0 .179 0 .722-1.704.722-1.705 0-1.705-.543-1.705-.722zm3.451 2.412a5.313 5.313 0 0 1-1.747.286c-.623 0-1.21-.1-1.746-.287v1.106l.903 1.718h1.688l.902-1.718v-1.106z" fill="#E0B489"/><path d="M65.84 10.943h1.035a.93.93 0 0 0 .928-.93v-.726h-2.89v.727a.93.93 0 0 0 .928.929zm.192-1.155a.476.476 0 0 1 .651 0 .46.46 0 1 1-.651.653.463.463 0 0 1 0-.653z" fill="#D8D5D4"/><path d="M68.67 21.273l-.273 1.03c.171.025.355.04.552.043.196-.003.38-.018.552-.044l-.273-1.03h-.558zm1.3-1.848h-2.04l-.017.008.643.918h.787l.643-.918-.017-.008z" fill="#8C6239"/><path d="M68.726 9.694v.32c0 .348-.098.673-.266.951v.157a.489.489 0 0 0 .977 0v-.156a1.836 1.836 0 0 1-.267-.952v-.32h-.444z" fill="#C69C6D"/><path d="M64.23 6.657c-.452 1.46-.405 2.299-.24 2.775v-.607c0-.255.207-.461.462-.461h.443c.073-1.548.511-2.81 1.236-3.676-.852.148-1.553.847-1.9 1.97z" fill="#CCC"/><path d="M82.062 41.99h-2.31l.249 1.119a1.047 1.047 0 0 0 .51.795c.17-.82.784-1.478 1.578-1.714l-.027-.2zm-.626 2.023c.215-.067.403-.195.541-.374.115-.149.181-.322.204-.502a1.35 1.35 0 0 0-.745.876z" fill="#C69C6D"/><path d="M78.594 21.602c-.01-.106-.305-2.657-3.618-3.493l-1.205-.403-.119 2.663a.461.461 0 0 1-.647.401l-.294-.13c-.295.899-1.04 2.021-2.505 2.45a4.385 4.385 0 0 1-1.257.179c-.716 0-1.251-.177-1.257-.178-1.464-.43-2.21-1.552-2.505-2.45l-.294.13a.458.458 0 0 1-.43-.03.46.46 0 0 1-.217-.372l-.119-2.663-1.205.403c-3.34.842-3.615 3.467-3.618 3.493-.001.017-4.35 18.3-4.35 18.3 2.214.923 3.364 1.076 3.413 1.292l1.853-5.48 1.976-9.719a.462.462 0 0 1 .909.155c-.012.091-1.19 8.817-.157 14.918H74.95c1.034-6.104-.145-14.827-.157-14.918a.461.461 0 0 1 .908-.155l2.717 13.358h3.752s-3.576-17.734-3.577-17.751z" fill="#588AA3"/><path d="M74.335 72.176H70.86v1.9h5.34c-.042-.402-.173-.999-.564-1.411-.312-.33-.737-.49-1.301-.49zm-12.076.492c-.387.41-.518 1.006-.56 1.409h5.338v-1.901h-3.474c-.566 0-.992.16-1.304.492z" fill="#4D4D4D"/><path d="M74.788 41.99h-11.68v29.264h4.497l.881-25.763a.46.46 0 0 1 .92 0h.002l.884 25.763h4.496V41.991z" fill="#736357"/><path d="M66.042 20.262c.14.47.52 1.32 1.472 1.776l.301-1.137-.76-1.087-1.013.448z" fill="#fff"/><path d="M70.652 13.267a.461.461 0 0 0-.818-.291c-.129.038-.435.091-.886.091-.452 0-.758-.053-.886-.091a.46.46 0 0 0-.819.291c0 .179 0 .723 1.705.723 1.704 0 1.704-.544 1.704-.723zm-3.411-5.72h3.415a.461.461 0 1 0 0-.922h-3.415a.461.461 0 1 0 0 .922zm.751-1.495h1.913a.461.461 0 1 0 0-.922h-1.913a.461.461 0 1 0 0 .922zm-1.632 4.524a.463.463 0 0 0 .462-.461.462.462 0 0 0-.137-.327.476.476 0 0 0-.651 0 .46.46 0 0 0 .326.788zm5.18 0a.467.467 0 0 0 .46-.461c0-.122-.05-.24-.136-.327a.476.476 0 0 0-.651 0 .463.463 0 0 0 .326.788z" fill="#1C1B1A"/><path d="M58.42 41.655l-3.388-1.199-.263 1.384c-.209.04-.17.237 0 .277-.019.327.03.805.263 1.014.382 1.291 1.766 1.66 2.65.646l.738-2.122z" fill="#C69C6D"/><path fill-rule="evenodd" clip-rule="evenodd" d="M83.01 42.114l-.075-.555.258-1.75c0-.028-3.684-18.319-3.684-18.319-.04-.345-.493-3.304-4.29-4.27l-3.602-1.208v-.768c1.407-.858 2.29-2.416 2.29-4.313v-.102c.205-.114.459-.31.666-.652.505-.831.496-2.107-.025-3.792-.595-1.921-2.153-2.948-3.832-2.563a3.65 3.65 0 0 0-1.768-.435c-.656 0-1.25.152-1.768.435-1.68-.385-3.237.642-3.831 2.563-.522 1.685-.53 2.96-.026 3.792.207.341.46.539.667.652v.102c0 1.898.882 3.455 2.29 4.314v.767l-3.602 1.207c-3.798.967-4.25 3.926-4.29 4.271l-4.134 18.934s-.063.318-.106.77c-.066.699-.084 1.717.252 2.375.34.664.667 1.123 1.383 1.407.69.273 1.314.31 1.9-.046.683-.416.96-1.153.96-1.153l2.859-10.29c-.069 2.659.131 5.615.607 8.133v.004c.025.13.05.26.077.387v29.564a2.38 2.38 0 0 0-.6.46c-.91.967-.832 2.468-.829 2.53a.461.461 0 0 0 .46.435h6.28a.461.461 0 0 0 .461-.461v-2.362h.093a.461.461 0 0 0 .46-.446l.437-12.749.437 12.75a.461.461 0 0 0 .46.445h.093v2.362c0 .254.206.46.461.46h6.28a.46.46 0 0 0 .46-.433c.004-.064.082-1.564-.829-2.53a2.373 2.373 0 0 0-.6-.461V42.01c.027-.127.053-.257.077-.387v-.001l.001-.003c.475-2.518.564-5.474.496-8.133 0 0 1.359 6.562 1.372 6.583l1.091 1.643.35 1.577c.142.983 1.007 1.7 1.997 1.699a2.012 2.012 0 0 0 1.614-.787c.254-.33.391-.723.403-1.129.558.164.967.68.967 1.29v30.175a.461.461 0 1 0 .922 0V44.363a2.27 2.27 0 0 0-1.99-2.249zM72.86 17.401l-1.23-.412-.923 1.755 2.053.91.1-2.253zm-3.518 2.95l.643-.918-.016-.008h-2.04l-.017.008.643.918h.787zm-.394 1.995c.197-.002.38-.018.553-.044l-.273-1.029h-.559l-.273 1.03c.172.025.356.04.552.043zm-.844-3.843h1.689l.902-1.718V15.68a5.313 5.313 0 0 1-1.747.287c-.623 0-1.21-.1-1.746-.286v1.105l.902 1.718zm-.591 3.535l.301-1.137-.761-1.088-1.012.449c.14.47.52 1.319 1.472 1.776zm4.343-1.776l-1.012-.449-.761 1.088.301 1.137c.953-.457 1.331-1.306 1.472-1.776zm1.128-10.248v-.727h-2.891v.727a.93.93 0 0 0 .928.929h1.034a.93.93 0 0 0 .93-.929zm.922-.58c.166-.477.213-1.315-.24-2.776-.347-1.122-1.048-1.821-1.9-1.969.725.866 1.163 2.128 1.236 3.675h.443c.255 0 .461.207.461.461v.609zm-1.828-1.07c-.11-2.038-.975-4.054-3.13-4.054-2.154 0-3.019 2.016-3.13 4.054h2.447a.46.46 0 0 1 .456.408h.454a.46.46 0 0 1 .456-.408h2.447zm-2.641 2.758v-.156a1.836 1.836 0 0 1-.267-.952v-.32h-.444v.32c0 .348-.098.673-.266.952v.156a.489.489 0 0 0 .977 0zM63.99 8.825a.46.46 0 0 1 .461-.46h.444c.072-1.548.511-2.81 1.236-3.676-.853.148-1.554.847-1.9 1.969-.453 1.46-.407 2.298-.24 2.775v-.608zm.922.462v.727a.93.93 0 0 0 .93.929h1.033a.93.93 0 0 0 .929-.929v-.727h-2.892zm.93 2.578a1.84 1.84 0 0 1-.875-.22c.295 2.032 1.847 3.398 3.98 3.398 2.135 0 3.687-1.366 3.982-3.398-.26.14-.558.22-.874.22H71.02a1.83 1.83 0 0 1-.782-.176 1.412 1.412 0 0 1-1.29.844 1.412 1.412 0 0 1-1.292-.844 1.837 1.837 0 0 1-.782.176H65.84zm1.347 6.88l-.922-1.756-1.23.412.1 2.253 2.052-.91zm-5.491 55.332h5.338v-1.9h-3.474c-.566 0-.992.16-1.304.491-.387.411-.518 1.007-.56 1.41zm7.71-28.586l.884 25.763h4.496V41.991h-11.68v29.263h4.497l.881-25.763a.461.461 0 0 1 .92 0h.002zm1.453 28.587h5.34c-.043-.403-.174-1-.565-1.413-.311-.329-.737-.488-1.301-.488H70.86v1.9zm9.148-30.93c.043.324.236.594.503.756.17-.82.784-1.479 1.578-1.715l-.027-.199h-2.31l.249 1.118a.51.51 0 0 1 .007.04zm1.426.865c.216-.067.404-.194.542-.373.115-.15.181-.322.203-.502-.363.164-.64.485-.745.875zm-2.009-2.945h2.65l.12-.792H78.9l.526.792zm-21.706 2.34l.41-1.755-2.992-.945s-.084.328-.138.763c-.066.529-.088 1.215.138 1.66.242.478.33.705.738.922.414.222.807.35 1.199.093.214-.14.505-.267.608-.577.02-.062.024-.109.037-.161zm20.698-4.055L75.7 25.995a.461.461 0 0 0-.909.155c.013.091 1.192 8.815.158 14.918H62.946c-1.032-6.101.145-14.827.158-14.918a.461.461 0 0 0-.909-.155l-3.34 12.797-.212.815-.341 1.306-3.003-1.01c.075-.374.186-.75.3-1.291.043-.205.075-.513.123-.738 1.154-5.419 3.58-16.259 3.581-16.272.003-.026.279-2.65 3.618-3.493l1.205-.403.119 2.664a.461.461 0 0 0 .647.4l.294-.13c.295.899 1.04 2.021 2.505 2.45a4.41 4.41 0 0 0 1.257.179 4.42 4.42 0 0 0 1.257-.178c1.464-.43 2.21-1.552 2.505-2.45l.294.13a.46.46 0 0 0 .647-.401l.119-2.664 1.205.403c3.313.836 3.607 3.387 3.618 3.493.001.017 3.576 17.751 3.576 17.751h-3.751z" fill="#1C1B1A"/><path d="M55.722 37.874c-.048.225-.08.533-.123.738l3.044.995.212-.815-3.133-.918z" fill="#1C1B1A"/><path d="M33.412 8.558h.9c.432 0 .783-.312.783-.695V7.33H32.63v.533c0 .383.351.695.783.695zm.149-.915a.44.44 0 0 1 .602 0 .421.421 0 0 1 0 .602.423.423 0 0 1-.602 0 .424.424 0 0 1 0-.602z" fill="#D8D5D4"/><path d="M32.723 3.283c.497-.498.968-.243 1.346-.04.42.228.995.539 2.156.54 1.163-.001 1.738-.312 2.158-.54.378-.203.847-.458 1.345.04.465.464.498 2.141.432 3.194h.087c.236 0 .427.191.427.427v.804c.285-.604.51-1.79.141-4.098-.227-1.418-.441-2.757-4.59-2.757-4.148 0-4.362 1.34-4.589 2.757-.37 2.307-.144 3.494.142 4.097v-.803c0-.236.19-.427.426-.427h.087c-.065-1.053-.032-2.73.432-3.194z" fill="#754C24"/><path d="M36.226 12.568c1.63 0 2.854-.58 3.476-3.292a1.706 1.706 0 0 1-.664.135h-.9c-.902 0-1.636-.695-1.636-1.548V7.33h-.552v.533c0 .853-.734 1.548-1.636 1.548h-.9c-.236 0-.46-.05-.664-.135.622 2.712 1.846 3.292 3.476 3.292zm-1.105-2.197c.201 0 .369.138.415.325.082.05.319.14.69.14.371 0 .608-.09.69-.14a.427.427 0 0 1 .841.101c0 .525-.63.891-1.53.891-.902 0-1.532-.366-1.532-.89 0-.236.19-.427.426-.427z" fill="#C69C6D"/><path d="M33.29 13.934c-.007-.014-.01-.03-.016-.043l-.817.393-.147 2.882 2.138-.973-1.158-2.26zm5.87-.001l-1.148 2.24 2.119.85-.145-2.744-.809-.39-.016.044z" fill="#A6D9FF"/><path d="M37.353 7.863c0 .383.352.695.784.695h.9c.431 0 .783-.312.783-.695V7.33h-2.467v.533zm.932-.22a.44.44 0 0 1 .604 0 .43.43 0 0 1 .124.3.427.427 0 1 1-.728-.3z" fill="#D8D5D4"/><path d="M39.114 3.874a.252.252 0 0 0-.03-.023c-.058.015-.19.086-.297.144-.443.24-1.184.64-2.561.64h-.002c-1.377 0-2.118-.401-2.562-.64a1.917 1.917 0 0 0-.297-.144.357.357 0 0 0-.04.035c-.143.206-.268 1.397-.18 2.592h6.161c.087-1.195-.04-2.387-.192-2.604z" fill="#C69C6D"/><path d="M30.179 23.851v12.46l.192.868h5.427v-1.37l-1.783-2.245a.426.426 0 0 1-.091-.295l1.02-14.47-.789-1.537-2.13.97a.425.425 0 0 1-.602-.41l.158-3.119s-1.53.733-1.557.74c-1.041.27-1.791.71-2.333 1.196l2.464 7.072c.002.007.024.13.024.14z" fill="#A6D9FF"/><path d="M17.349 12.074c0-.233.186-.423.419-.427a.42.42 0 0 1 .433.411c.005.08.171 2.015 3.976 2.15v-.837l-.002-.013c0-1.64-1.402-2.924-3.192-2.924-1.79 0-3.192 1.284-3.192 2.924l-.002.016v.617c.628-.323 1.56-.962 1.56-1.917z" fill="#CCC"/><path d="M17.833 13.336c-.433.697-1.16 1.164-1.688 1.431h2.185c.231 0 .418.185.425.414h.456a.426.426 0 0 1 .425-.414h.474c-1.212-.336-1.896-.903-2.277-1.431z" fill="#E0B489"/><path d="M20.063 16.119c0 .36.294.655.655.655h.804a.656.656 0 0 0 .655-.655v-.499h-2.114v.499zm.756-.224a.44.44 0 0 1 .601 0 .425.425 0 1 1-.726.302c0-.112.044-.223.125-.302z" fill="#D8D5D4"/><path d="M17.8 26.857l1.183 3.417 1.183-3.417H17.8z" fill="#96564A"/><path d="M36.736 38.032h-1.023v.666h1.023v-.666z" fill="#4D4D4D"/><path d="M28.159 27.193l.263 1.187.89-4.497-2.271-6.52c-.638.89-.731 1.727-.737 1.79a.518.518 0 0 1-.006.042l-.835 4.254c2.106 1.263 2.668 3.624 2.696 3.744zm-3.543 7.502c.548.938.956 1.845 1.26 2.688h.122l-1.34-4.687c-.296.719-.46 1.284-.042 2z" fill="#A6D9FF"/><path d="M34.86 38.697v-.665h-4.3l.147.666h4.153z" fill="#999"/><path d="M19.41 41.844h6.487c-.024-.994-.263-3.72-2.017-6.718-.683-1.167-.286-2.108.099-3.017.445-1.054.905-2.144.07-3.977a.426.426 0 0 1 .082-.472l2.208-2.293c-.55-.718-1.38-1.42-2.604-1.707l-1.441-.346-2.885 8.334v10.196z" fill="#C4806E"/><path d="M18.983 9.581c.64 0 1.24.132 1.771.368a1.86 1.86 0 0 0 .094-.574 1.867 1.867 0 0 0-1.865-1.865 1.867 1.867 0 0 0-1.865 1.865c0 .196.035.39.095.574a4.351 4.351 0 0 1 1.77-.368z" fill="#CCC"/><path d="M43.537 39.435c-1.282 0-2.217.689-2.254.71-.84.667-1.346 1.802-1.5 3.375h1.057l.932-1.485a.427.427 0 0 1 .721 0h.001l.932 1.485h3.865c-.102-1.04-.358-1.888-.762-2.537-.022-.026-1.236-1.548-2.992-1.548z" fill="#B79870"/><path d="M41.848 38.263l-.096.435h.712c.137-.03.27-.053.397-.07l-1.013-.365z" fill="#E5CBBD"/><path d="M37.59 38.032v.666h3.29l.147-.666H37.59z" fill="#999"/><path d="M42.023 50.02v.542c.074.184.708.71 1.511.71h.006c.803 0 1.437-.526 1.51-.71v-.542a3.861 3.861 0 0 1-1.513.312c-.53 0-1.039-.111-1.514-.312zm5.317-5.648h-4.148a.426.426 0 0 1-.361-.2l-.697-1.108-.696 1.109a.426.426 0 0 1-.36.2h-1.343c-.001.076-.003.153-.003.232 0 1.904.858 3.556 2.104 4.357l.002.002c.512.329 1.09.515 1.7.515 1.264 0 2.386-.794 3.078-2.012l.01-.017c.45-.801.718-1.784.718-2.845 0-.079-.002-.156-.003-.233zm-5.56 1.491a.43.43 0 0 1-.426-.426.43.43 0 0 1 .126-.302.44.44 0 0 1 .602 0 .427.427 0 0 1-.302.728zm1.76 2.608h-.007c-.331 0-.649-.052-.895-.147-.507-.195-.583-.514-.584-.686a.426.426 0 1 1 .831-.134c.09.046.32.11.653.114.337 0 .562-.07.652-.118a.426.426 0 0 1 .832.132c0 .577-.744.837-1.482.839zm2.056-2.74a.425.425 0 0 1-.602 0 .422.422 0 0 1 0-.603.44.44 0 0 1 .602 0 .424.424 0 0 1 0 .602z" fill="#D8B4A4"/><path d="M51.672 14.451c-1.029-.929-1.706-2.5-1.706-4.278V8.998c0-.2.142-.38.346-.418.046-.01 3.1-.624 3.1-2.59a.426.426 0 1 1 .852 0c0 1.978 3.067 2.584 3.098 2.59a.426.426 0 0 1 .347.418v1.175c0 1.778-.677 3.35-1.706 4.278v.303c1.435-.075 2.452-.537 3.023-1.38 1.317-1.944-.005-5.317-.018-5.35a.427.427 0 0 1-.03-.158c0-1.312-.396-2.356-1.175-3.104-1.496-1.437-3.925-1.356-3.948-1.355h-.034c-.025 0-2.463-.076-3.954 1.359-.776.748-1.17 1.79-1.17 3.1 0 .054-.01.107-.03.157-.014.034-1.333 3.414-.017 5.353.57.841 1.587 1.303 3.022 1.378v-.303z" fill="#E0BC4B"/><path d="M42.035 37.424l2.128.765 3.618-11.883a3.391 3.391 0 0 1-.334-.7c-.373-1.08-.329-2.644.649-3.53a.426.426 0 1 1 .572.631c-.66.599-.709 1.771-.415 2.62.228.662.633 1.092 1.056 1.122a.426.426 0 0 1 .395.4l.145 2.472a.427.427 0 0 1-.073.265c-.526.77-1.008 1.884-1.432 3.308.06.92 1.708.997 5.067 1.002V20.602c-2.184-.114-3.697-1.109-3.986-2.588l-.339.081a4.438 4.438 0 0 0-2.119 1.17.425.425 0 0 1-.224.236 5.872 5.872 0 0 0-1.25 2.316l-3.458 15.607z" fill="#B7C16F"/><path d="M56.856 9.337c-.7-.186-2.263-.718-3.019-1.892-.756 1.174-2.32 1.706-3.019 1.892v.838c0 2.377 1.355 4.31 3.02 4.31 1.664 0 3.018-1.933 3.018-4.31v-.838zm-4.8 1.441a.428.428 0 0 1-.302-.728.442.442 0 0 1 .604 0c.079.08.125.19.125.302a.435.435 0 0 1-.125.302.437.437 0 0 1-.302.124zm1.781 2.533c-.927 0-1.575-.374-1.575-.91a.426.426 0 0 1 .842-.094c.084.054.334.152.733.152.4 0 .65-.098.734-.152a.427.427 0 0 1 .842.095c0 .535-.648.91-1.576.91zm2.082-2.657a.43.43 0 0 1-.3.124.427.427 0 0 1-.302-.728.44.44 0 0 1 .602 0 .427.427 0 0 1 0 .604z" fill="#E5CBBD"/><path d="M37.158 15.969l1.197-2.333v-.68c-.59.315-1.293.465-2.128.465h-.002c-.836 0-1.54-.15-2.13-.466v.68l1.197 2.334h1.866z" fill="#C69C6D"/><path d="M36.811 18.284l.712-1.387-.187-.076h-2.213l-.191.088.706 1.375h1.173z" fill="#999"/><path d="M43.621 26.322l1.04-4.691c.02-.093.353-1.493 1.447-2.712a4.217 4.217 0 0 0-.698-1.556l-2.271 6.52.482 2.439z" fill="#A6D9FF"/><path d="M36.224 34.976l1.44-1.812-.99-14.027h-.9l-.989 14.027 1.439 1.812z" fill="#999"/><path d="M37.506 18.8l1.02 14.469a.425.425 0 0 1-.091.295l-1.785 2.247v1.369h4.565l1.056-4.766v-8.562c0-.01.02-.132.024-.14l2.463-7.073c-.541-.485-1.29-.925-2.332-1.195-.027-.007-1.565-.744-1.565-.744l.156 2.945a.426.426 0 0 1-.585.419l-2.114-.849-.812 1.584zM48.35 30.408l-.363-1.855-2.38 7.815.201 1.015h.84c.184-1.79.47-3.352.856-4.662.26-.88.543-1.652.847-2.313zm-1.78 7.828h-.383l.337.602c.014-.203.03-.404.045-.602z" fill="#A6D9FF"/><path d="M27.327 27.38a5.523 5.523 0 0 0-.512-1.277l-1.874 1.945c.571 1.397.482 2.455.225 3.326l3.73 13.04 2.041-.738-3.61-16.296z" fill="#C4806E"/><path d="M40.635 72.254h1.64v-3.71h-1.931l.29 3.71z" fill="#D8B4A4"/><path d="M43.128 74.147h.587c-.037-.425-.167-1.096-.587-1.563v1.563z" fill="#333"/><path d="M47.352 62.713h-7.628v4.98h3.054l.336-3.38a.427.427 0 0 1 .848 0l.336 3.38h3.054v-4.98z" fill="#5576A5"/><path d="M46.44 72.254l.291-3.71h-1.93v3.71h1.64zm3.361-14.872l1.89 4.303a.52.52 0 0 1 .014.04c.033.101.28.191.58.094.298-.097.446-.315.414-.416l-1.78-4.833-1.144.45.026.362z" fill="#D8B4A4"/><path d="M46.835 73.107H44.8v1.04h3.308c-.049-.225-.148-.5-.35-.707-.218-.224-.52-.333-.924-.333z" fill="#999"/><path d="M38.92 55.128a.426.426 0 0 1 .803.2v6.532h7.629v-6.532a.426.426 0 0 1 .802-.2l.71 1.335 2.652-1.045s-1.572-2.74-1.58-2.761c-.015-.035-.436-.988-2.307-1.224l-1.898-.365c-.364.544-1.256 1.058-2.191 1.058h-.005c-.936 0-1.828-.514-2.192-1.057l-1.897.364c-1.872.236-2.293 1.19-2.31 1.23-.007.016-1.577 2.755-1.577 2.755l2.652 1.045.71-1.335z" fill="#F4A04D"/><path d="M39.488 68.546h-.191a.426.426 0 0 1-.426-.426V57.04l-.086.16a.426.426 0 0 1-.532.196l-.046-.018-.715 1.629.67 12.186h1.534l-.208-2.647z" fill="#4D4D4D"/><path d="M39.314 73.443c-.2.207-.299.48-.347.704h3.308v-1.04h-2.034c-.406 0-.709.11-.927.336z" fill="#999"/><path d="M54.264 71.65v2.497h3.194c-.867-.905-1.207-1.95-1.333-2.498h-1.861z" fill="#998675"/><path d="M53.836 34.75c-1.922 0-3.44 0-4.479-.193-.271-.05-.867-.163-1.314-.522-.414 1.801-.667 4.007-.755 6.578.54.893.907 2.169.907 3.992a6.65 6.65 0 0 1-.774 3.156c.06.938.135 1.88.222 2.807l.106.021c2.204.283 2.856 1.482 2.966 1.723l.153.267h8.95c.243-2.036 1.312-12.004-.19-18.544-.446.36-1.041.472-1.313.522-1.039.192-2.557.192-4.479.192z" fill="#767743"/><path d="M62.182 21.815c-.028-.121-.735-3.048-3.592-3.72l-.34-.081c-.29 1.48-1.803 2.474-3.986 2.588v13.294c3.358-.005 5.006-.081 5.066-1.002-.424-1.423-.905-2.537-1.432-3.307a.427.427 0 0 1-.073-.266l.145-2.471a.427.427 0 0 1 .395-.4c.423-.03.828-.46 1.057-1.123.293-.85.244-2.021-.416-2.62a.426.426 0 0 1 .572-.632c.978.886 1.022 2.451.65 3.53a3.39 3.39 0 0 1-.335.7l3.618 11.884 2.128-.765-3.457-15.61z" fill="#B7C16F"/><path d="M54.264 70.796h1.86c1.665-9.156 1.913-15.684 1.95-17.365h-3.81v17.365zm11.56-32.533l-2.065.743.592 1.95c.106.275.218.487.446.63a1.012 1.012 0 0 0 1.525-1.076l-.498-2.247z" fill="#E5CBBD"/><path d="M50.217 74.147h3.194V71.65h-1.862c-.126.549-.465 1.593-1.332 2.498z" fill="#998675"/><path d="M52.548 62.63a1.68 1.68 0 0 1-.52.084c-.522 0-.97-.263-1.125-.703l-.873-1.988c.283 2.87.75 6.533 1.52 10.774h1.86v-8.84c-.166.297-.468.545-.862.673z" fill="#E5CBBD"/><path d="M34.371 61.419c-.027.086.121.303.42.4.299.097.546.007.58-.094a.355.355 0 0 1 .014-.04l2.029-4.62-1.256-.495-1.787 4.849z" fill="#D8B4A4"/><path d="M52.503 55.421a.426.426 0 0 1-.214.61l-.576.226 1.698 4.612V53.43H51.36l1.144 1.99z" fill="#E5CBBD"/><path d="M39.761 72.045h-1.577v1.726c.088-.302.243-.639.515-.92.287-.296.65-.483 1.082-.558l-.02-.248z" fill="#333"/><path d="M18.557 31.648l-2.885-8.334-1.44.345c-1.225.288-2.054.99-2.604 1.708l2.207 2.293a.426.426 0 0 1 .081.472c-.835 1.833-.374 2.923.071 3.977.385.91.782 1.85.1 3.017-1.761 3.009-1.997 5.726-2.02 6.718h6.49V31.648z" fill="#C4806E"/><path d="M11.15 26.102a5.53 5.53 0 0 0-.514 1.28L7.03 43.669l2.056.69L12.8 31.38c-.259-.872-.35-1.931.223-3.331l-1.873-1.945z" fill="#C4806E"/><path d="M14.675 74.147h3.881v-1.494h-2.203c-.16.009-1.298.119-1.678 1.494z" fill="#998675"/><path d="M16.697 71.8h1.86V59.01h-3.49c.262 3.241.75 7.93 1.63 12.792zm2.713 0h1.859c.88-4.862 1.368-9.55 1.63-12.791h-3.49V71.8z" fill="#E0B489"/><path d="M19.41 72.653v1.494h3.88c-.38-1.376-1.521-1.485-1.679-1.494H19.41z" fill="#998675"/><path d="M18.983 20.308c1.397 0 2.587-1.156 3.02-2.761-.152.05-.313.08-.481.08h-.805a1.51 1.51 0 0 1-1.508-1.508v-.085h-.453v.085a1.51 1.51 0 0 1-1.507 1.507h-.805c-.168 0-.33-.029-.48-.08.432 1.606 1.622 2.762 3.02 2.762zm-1.15-2.527c.203 0 .373.142.416.331.084.055.335.152.734.152.4 0 .65-.097.734-.152a.427.427 0 0 1 .842.095c0 .536-.648.91-1.576.91s-1.576-.374-1.576-.91c0-.235.191-.426.427-.426z" fill="#E0B489"/><path d="M16.444 16.774h.805a.656.656 0 0 0 .654-.655v-.499H15.79v.499c0 .36.294.655.655.655zm.1-.879a.443.443 0 0 1 .604 0 .427.427 0 1 1-.604 0z" fill="#D8D5D4"/><path d="M20.46 26.005l1-2.89-.839-.201a.426.426 0 0 1-.327-.415v-1.606a3.37 3.37 0 0 1-1.312.268c-.46 0-.901-.095-1.313-.268v1.606a.426.426 0 0 1-.327.415l-.838.2 1 2.89h2.955zM6.774 44.821a2.097 2.097 0 0 1 1.124 1.856.426.426 0 1 1-.853 0 1.24 1.24 0 0 0-.467-.97l-.08.366a1.005 1.005 0 0 0 1.523 1.078 1.003 1.003 0 0 0 .452-.655l.378-1.317-2.007-.674-.07.316z" fill="#E0B489"/><path d="M29.345 72.556c-.437.463-.57 1.157-.608 1.592h5.53v-2.103h-3.582c-.577 0-1.015.167-1.34.511z" fill="#333"/><path d="M29.943 47.151a1.012 1.012 0 0 0 1.525-1.076l-.345-1.56-1.992.721.36 1.26c.003.008.224.511.452.655z" fill="#E0B489"/><path d="M33.565 61.14l1.5-4.07.05-.911-.328-.129a.426.426 0 0 1-.213-.609l.643-1.12.583-10.613a.426.426 0 0 1 .849 0l.428 7.762c.453-.36 1.161-.723 2.248-.862l1.846-.355v-.699c-1.37-.998-2.292-2.834-2.292-4.93 0-2.723.817-4.229 1.81-5.054h-9.793l1.404 6.338a1.865 1.865 0 0 1-2.121 2.245V71.19h4.11l.466-8.506a1.773 1.773 0 0 1-.227-.056c-.734-.237-1.157-.892-.963-1.49z" fill="#4D4D4D"/><path d="M26.194 38.36l.048-.124h-.084l.036.124z" fill="#A6D9FF"/><path d="M12.026 42.697c-.103 1.203-.273 5.614 1.364 15.459h11.186c1.642-9.88 1.47-14.263 1.364-15.459H12.027z" fill="#96564A"/><path d="M53.837 19.76c1.982 0 3.364-.77 3.58-1.946l-1.94-.466a.426.426 0 0 1-.328-.414V15.03c-.41.198-.852.306-1.312.306-.46 0-.903-.108-1.313-.306v1.903a.426.426 0 0 1-.327.415l-1.941.465c.216 1.177 1.598 1.946 3.58 1.946z" fill="#E5CBBD"/><path d="M18.982 19.117c.928 0 1.576-.374 1.576-.91a.426.426 0 0 0-.842-.094c-.084.054-.334.151-.734.151-.4 0-.65-.097-.734-.151a.427.427 0 0 0-.842.095c0 .535.648.909 1.576.909zm-2.136-2.494a.436.436 0 0 0 .302-.124.43.43 0 0 0 0-.604.443.443 0 0 0-.604 0 .436.436 0 0 0-.124.302c0 .111.046.222.124.302.08.078.19.125.302.125zm4.274 0a.428.428 0 0 0 .426-.426.427.427 0 0 0-.126-.302.44.44 0 0 0-.602 0 .428.428 0 0 0 .302.728zm23.476 30.583h-.001a.426.426 0 0 0-.405.294c-.09.048-.315.117-.652.118-.333-.005-.562-.068-.652-.115a.426.426 0 0 0-.831.135c0 .172.076.49.583.686.246.095.564.147.895.147h.007c.738-.002 1.483-.262 1.482-.84a.426.426 0 0 0-.426-.425zm-2.391-1.77a.427.427 0 0 0-.124-.301.44.44 0 0 0-.602 0 .429.429 0 0 0-.127.301.43.43 0 0 0 .427.427.427.427 0 0 0 .426-.426zm2.789-.308a.425.425 0 1 0 .602.602.424.424 0 0 0 0-.602.44.44 0 0 0-.602 0zm9.991-33.153a.427.427 0 0 0-.416.331c-.084.055-.334.152-.733.152-.4 0-.65-.098-.734-.152a.426.426 0 0 0-.842.095c0 .535.648.91 1.576.91.927 0 1.575-.375 1.575-.91a.426.426 0 0 0-.426-.426zm-2.502-1.624a.435.435 0 0 0-.125-.301.443.443 0 0 0-.604 0 .427.427 0 1 0 .729.301zm2.834-.301a.427.427 0 0 0 .302.728.427.427 0 0 0 .3-.728.44.44 0 0 0-.602 0z" fill="#1C1B1A"/><path d="M63.013 21.628c-.032-.145-.845-3.567-4.227-4.362l-2.784-.668v-.989c1.74-.081 2.994-.67 3.73-1.756 1.462-2.158.31-5.5.097-6.067-.017-1.515-.5-2.738-1.436-3.637-1.706-1.639-4.304-1.6-4.557-1.593-.262-.007-2.854-.042-4.556 1.593-.937.899-1.42 2.122-1.436 3.638-.212.566-1.364 3.908.098 6.066.735 1.086 1.99 1.675 3.729 1.756v.989l-2.782.668a5.286 5.286 0 0 0-2.08.993c-.35-1.07-1.343-2.892-4.128-3.63l-3.473-1.67V12.3c.674-.714 1.13-1.787 1.416-3.27.577-.317 1.687-1.467 1.033-5.555-.293-1.83-.93-3.475-5.43-3.475h-.003c-4.501 0-5.137 1.644-5.43 3.475-.654 4.088.456 5.238 1.032 5.556.286 1.482.742 2.555 1.417 3.269v.659l-3.474 1.67c-3.831 1.015-4.274 4.085-4.311 4.421l-.787 4.011a5.49 5.49 0 0 0-.738-.23l-2.785-.669V20.39c1.13-.879 1.881-2.421 1.881-4.176l-.002-2.875c-.005-1.212-.594-2.271-1.522-2.954.128-.32.196-.663.196-1.01a2.72 2.72 0 0 0-2.718-2.719 2.72 2.72 0 0 0-2.522 3.729c-.928.682-1.515 1.74-1.522 2.95l-.003 2.88c0 1.753.752 3.296 1.88 4.175v1.772l-2.781.668c-3.384.795-4.196 4.218-4.23 4.365L5.954 44.588c-.05-.004-.1-.008-.15-.008a2.1 2.1 0 0 0-2.097 2.097v27.897a.426.426 0 1 0 .853 0V46.677c0-.674.538-1.223 1.207-1.242l-.1.452a1.85 1.85 0 0 0 .242 1.405 1.85 1.85 0 0 0 1.578.869c.348 0 .69-.098.991-.289a1.85 1.85 0 0 0 .82-1.152L13.31 32.7c.295.717.458 1.281.04 1.995-2.218 3.79-2.154 7.102-2.134 7.554-.075.518-.571 4.743 1.393 16.404a.426.426 0 0 0 .42.355h1.183c.26 3.247.75 7.965 1.632 12.868-.815.216-1.9.928-2.108 2.646a.427.427 0 0 0 .423.478h9.647a.426.426 0 0 0 .424-.478c-.21-1.717-1.293-2.43-2.109-2.646.884-4.903 1.372-9.62 1.633-12.868h1.183c.208 0 .386-.15.42-.355 1.965-11.666 1.468-15.89 1.392-16.405.01-.236.031-1.238-.258-2.677l.088-.157 2.09 7.306c.096.415.327.776.657 1.037v23.75a2.397 2.397 0 0 0-.601.463c-.937.992-.857 2.562-.854 2.628.013.226.2.402.426.402h6.395a.427.427 0 0 0 .426-.427V71.63l.497-9.033c.261-.118.464-.318.558-.586l.56-1.276.599 10.895v2.944c0 .236.19.427.426.427H58.66a.426.426 0 0 0 .223-.79c-1.568-.961-1.919-2.654-1.973-2.98 1.725-9.378 1.979-16.092 2.015-17.8h1.27a.427.427 0 0 0 .422-.37c.071-.527 1.71-13.015-.449-20.34-.433-1.47-.932-2.643-1.484-3.492l.117-2.002c.146-.047.285-.117.418-.205l4.304 14.138c.112.478.403.886.819 1.148a1.85 1.85 0 0 0 1.405.242 1.865 1.865 0 0 0 1.407-2.225l-4.14-18.695zm-9.176-7.143c-1.665 0-3.019-1.934-3.019-4.311v-.838c.7-.186 2.263-.718 3.019-1.891.756 1.173 2.32 1.705 3.019 1.891v.838c0 2.377-1.354 4.31-3.02 4.31zm-5.188-1.109c-1.316-1.938.004-5.318.017-5.352.02-.05.03-.104.03-.158 0-1.309.395-2.352 1.17-3.1 1.491-1.434 3.93-1.358 3.954-1.358h.034c.024-.001 2.452-.082 3.949 1.355.779.748 1.174 1.792 1.174 3.103 0 .055.01.108.03.159.014.033 1.336 3.406.019 5.35-.571.842-1.588 1.305-3.024 1.38v-.303c1.03-.929 1.707-2.5 1.707-4.278V8.999c0-.2-.143-.38-.347-.419-.031-.006-3.099-.612-3.099-2.59a.426.426 0 1 0-.852 0c0 1.966-3.054 2.582-3.099 2.59a.426.426 0 0 0-.346.42v1.174c0 1.778.677 3.349 1.705 4.278v.303c-1.434-.075-2.45-.537-3.022-1.379zm3.548 3.973a.426.426 0 0 0 .327-.415v-1.903c.41.198.852.306 1.313.306.46 0 .902-.108 1.313-.306v1.903c0 .197.135.368.326.414l1.941.466c-.216 1.176-1.598 1.946-3.58 1.946s-3.365-.77-3.58-1.946l1.94-.465zm-5.23 1.916a4.44 4.44 0 0 1 2.119-1.17l.339-.081c.29 1.48 1.802 2.474 3.986 2.588v13.294c-3.359-.005-5.007-.082-5.067-1.002.424-1.424.906-2.537 1.431-3.307a.427.427 0 0 0 .074-.266l-.145-2.471a.427.427 0 0 0-.396-.4c-.422-.03-.827-.46-1.056-1.123-.293-.849-.244-2.022.416-2.62a.427.427 0 0 0-.572-.631c-.978.886-1.022 2.45-.65 3.53.09.26.205.493.335.7l-3.618 11.883-2.128-.765 3.457-15.607c.005-.02.297-1.25 1.251-2.316a.425.425 0 0 0 .224-.236zm-.342 28.185l-.01.016c-.692 1.219-1.813 2.013-3.077 2.013a3.127 3.127 0 0 1-1.703-.517c-1.246-.802-2.103-2.453-2.103-4.357 0-.079.002-.156.003-.233h1.342a.426.426 0 0 0 .361-.2l.696-1.109.697 1.11a.428.428 0 0 0 .36.199h4.15l.002.233c0 1.061-.267 2.043-.718 2.845zm.148 2.95l-.869-.167v-.698c.265-.193.514-.417.742-.668.038.513.08 1.024.127 1.534zm-1.721-.38v.542c-.074.184-.708.71-1.511.71h-.006c-.803 0-1.437-.526-1.51-.71v-.542c.474.2.983.312 1.513.312.53 0 1.039-.111 1.514-.313zm-1.624-6.5l-.933-1.485a.427.427 0 0 0-.72 0l-.934 1.484h-1.058c.155-1.573.661-2.707 1.501-3.375.037-.02.973-.71 2.254-.71 1.757 0 2.97 1.523 2.992 1.549.404.649.66 1.496.763 2.536h-3.865zm-2.549-4.822h-3.29v-.665h3.438l-.148.665zm.874 0l.096-.435 1.013.364c-.128.018-.26.04-.397.07h-.712zm3.126.067l.22-.725.588 1.046a4.28 4.28 0 0 0-.808-.321zm1.308-.53h.383c-.016.199-.031.399-.045.602l-.338-.601zm-.378-.852l-.2-1.015 2.379-7.815.364 1.855a17.281 17.281 0 0 0-.847 2.313c-.386 1.31-.672 2.871-.857 4.662h-.839zm2.76-10.294c.098.055.198.104.302.138l.118 2.002-.42-2.14zm-5.445 1.476v-.361l.038.19-.038.17zm2.984-9.646c-1.094 1.22-1.427 2.619-1.448 2.712l-1.04 4.69-.482-2.438 2.271-6.52c.453.632.631 1.236.699 1.556zm-5.517-.825a.426.426 0 0 0 .426-.448l-.155-2.946s1.538.737 1.564.744c1.041.27 1.791.71 2.333 1.195l-2.464 7.073a2.08 2.08 0 0 0-.023.14v8.562l-1.056 4.766H36.65v-1.369l1.784-2.247a.426.426 0 0 0 .092-.295l-1.02-14.47.812-1.584 2.114.849c.05.02.105.03.158.03zm-5.467-1.273h2.213l.187.075-.712 1.388h-1.173l-.707-1.375.192-.088zm-1.029-3.186v-.68c.59.315 1.294.466 2.13.466h.001c.836 0 1.54-.15 2.129-.466v.68l-1.197 2.334h-1.866l-1.197-2.334zm1.68 5.502h.9l.99 14.027-1.44 1.812-1.439-1.812.99-14.027zm.962 18.896v.665h-1.023v-.665h1.023zm3.249-23.754l.144 2.745-2.118-.85 1.149-2.24c.007-.014.01-.03.016-.044l.809.39zm-.165-6.416c0 .383-.352.695-.784.695h-.9c-.431 0-.783-.312-.783-.695V7.33h2.467v.533zm-6.677-1.386c-.087-1.195.038-2.385.181-2.591a.389.389 0 0 1 .04-.036c.06.016.19.086.297.144.444.24 1.185.64 2.562.64h.002c1.377 0 2.119-.4 2.562-.64.107-.058.238-.129.297-.144a.236.236 0 0 1 .03.024c.152.217.278 1.408.191 2.604h-6.162zm-.94 0a.426.426 0 0 0-.427.427v.804c-.285-.604-.51-1.79-.141-4.098.227-1.418.441-2.757 4.59-2.757 4.147 0 4.362 1.34 4.589 2.757.37 2.307.144 3.494-.142 4.098v-.804a.426.426 0 0 0-.426-.427h-.087c.065-1.053.032-2.73-.432-3.194-.498-.498-.968-.243-1.346-.039-.42.227-.995.538-2.157.538-1.161 0-1.737-.311-2.157-.538-.377-.204-.848-.459-1.345.04-.465.463-.497 2.14-.432 3.193h-.087zm.426.853h2.466v.533c0 .383-.351.695-.783.695h-.9c-.432 0-.783-.312-.783-.695V7.33zm.12 1.946c.202.086.427.135.663.135h.9c.902 0 1.636-.695 1.636-1.548V7.33h.553v.533c0 .853.733 1.548 1.635 1.548h.9c.237 0 .46-.05.664-.135-.622 2.712-1.846 3.292-3.476 3.292s-2.853-.58-3.476-3.292zm-.293 5.007l.817-.393c.005.014.009.03.016.043l1.159 2.26-2.138.973.146-2.883zm-2.433 1.161c.027-.007 1.558-.74 1.558-.74l-.158 3.119a.426.426 0 0 0 .602.41l2.13-.97.788 1.536-1.02 14.47a.426.426 0 0 0 .092.295l1.782 2.245v1.371h-5.426l-.193-.868v-12.46c0-.01-.021-.133-.024-.14l-2.463-7.073c.541-.484 1.291-.925 2.332-1.195zm4.837 22.589v.665h-4.153l-.147-.665h4.3zm-8.563-18.838a.445.445 0 0 0 .006-.043c.006-.062.1-.899.737-1.789l2.271 6.52-.89 4.497-.263-1.187c-.027-.12-.59-2.48-2.695-3.744l.834-4.254zm3.029 9.009v4.258l-.445-2.009.445-2.25zm-5.592-4.544c1.225.288 2.053.99 2.604 1.708L24.13 27.66a.427.427 0 0 0-.081.473c.834 1.833.374 2.923-.071 3.976-.385.91-.782 1.85-.1 3.017 1.755 2.999 1.994 5.724 2.018 6.719H19.41V31.649l2.885-8.335 1.441.346zm.922 9.036l1.341 4.687h-.122a16.247 16.247 0 0 0-1.26-2.688c-.419-.715-.254-1.28.041-1.999zm-5.674-2.422L17.8 26.857h2.365l-1.182 3.417zm3.194-14.155a.656.656 0 0 1-.655.654h-.805a.656.656 0 0 1-.655-.654v-.499h2.114v.499zm-2.541-1.352a.426.426 0 0 0-.425.414h-.456a.426.426 0 0 0-.425-.414h-2.185c.528-.267 1.255-.733 1.688-1.43.38.528 1.065 1.095 2.278 1.43h-.475zm-.653-7.258c1.028 0 1.865.837 1.865 1.865 0 .197-.034.39-.094.574a4.352 4.352 0 0 0-1.77-.368c-.64 0-1.24.132-1.772.369a1.863 1.863 0 0 1-.094-.575c0-1.028.837-1.865 1.865-1.865zm-3.194 5.865l.002-.017c0-1.64 1.402-2.924 3.192-2.924 1.79 0 3.192 1.285 3.192 2.924l.002.014v.836c-3.804-.135-3.97-2.07-3.976-2.149a.42.42 0 0 0-.433-.411.426.426 0 0 0-.419.426c0 .955-.932 1.595-1.56 1.918v-.617zm0 2.246h2.115v.499a.656.656 0 0 1-.655.654h-.805a.656.656 0 0 1-.655-.654v-.499zm.175 1.926c.151.051.312.08.48.08h.805a1.51 1.51 0 0 0 1.507-1.508v-.084h.453v.085a1.51 1.51 0 0 0 1.508 1.507h.805a1.5 1.5 0 0 0 .48-.08c-.432 1.606-1.622 2.762-3.019 2.762s-2.587-1.156-3.02-2.762zm1.38 5.367a.426.426 0 0 0 .326-.414v-1.607c.412.174.854.27 1.313.27.46 0 .9-.096 1.313-.27V22.5c0 .197.135.368.326.414l.839.201-1 2.89h-2.956l-1-2.89.838-.2zm-8.87 23.583a1.004 1.004 0 0 1-.452.655 1.002 1.002 0 0 1-.762.132 1.004 1.004 0 0 1-.631-.446 1.005 1.005 0 0 1-.131-.764l.081-.366c.284.228.467.578.467.97a.426.426 0 1 0 .853 0c0-.805-.457-1.505-1.124-1.856l.07-.316 2.006.674-.377 1.317zm4.328-15.117l-3.716 12.98-2.055-.691 3.607-16.286c.012-.052.146-.607.513-1.28l1.873 1.945c-.572 1.4-.481 2.46-.222 3.332zm1.284 3.747c.682-1.167.285-2.107-.1-3.017-.445-1.054-.905-2.143-.07-3.976a.426.426 0 0 0-.081-.473l-2.208-2.292c.55-.718 1.38-1.42 2.605-1.708l1.44-.346 2.884 8.335v10.196h-6.489c.023-.992.258-3.71 2.019-6.719zm4.47 39.021h-3.88c.38-1.375 1.518-1.485 1.678-1.494h2.203v1.494zm0-2.346h-1.859c-.88-4.863-1.368-9.55-1.63-12.792h3.49V71.8zm4.735 2.346H19.41v-1.494h2.201c.158.009 1.299.117 1.68 1.494zm-2.022-2.346h-1.86V59.009h3.49c-.262 3.241-.75 7.929-1.63 12.792zm3.307-13.645H13.39c-1.637-9.845-1.467-14.256-1.364-15.459h13.915c.105 1.196.277 5.579-1.365 15.459zm1.618-19.796l-.036-.124h.084l-.048.124zm-1.028-6.987c.257-.87.346-1.928-.224-3.326l1.873-1.945c.366.672.5 1.226.512 1.277l3.61 16.297-2.04.738-3.731-13.04zm3.965 13.863l1.992-.72.346 1.559a1.012 1.012 0 0 1-1.526 1.076c-.228-.144-.449-.647-.451-.655l-.36-1.26zm5.135 28.911h-5.53c.04-.434.172-1.128.609-1.591.324-.344.763-.511 1.34-.511h3.58v2.102zm.023-2.955h-4.11V48.134c.1.016.2.027.3.027a1.865 1.865 0 0 0 1.821-2.272l-1.403-6.338h9.792c-.992.825-1.81 2.331-1.81 5.054 0 2.096.922 3.932 2.293 4.93v.699l-1.846.355c-1.087.14-1.796.502-2.249.863l-.427-7.763a.425.425 0 0 0-.85 0l-.583 10.613-.643 1.12a.426.426 0 0 0 .214.609l.327.129-.05.91-1.5 4.07c-.193.598.23 1.252.963 1.49.076.025.152.043.228.057l-.467 8.505zm1.99-18.738l-.118.203.064-1.164.053.961zm-.894 9.23a.462.462 0 0 0-.015.04c-.033.102-.28.191-.58.095-.298-.097-.446-.315-.419-.4l1.786-4.849 1.256.495-2.028 4.62zm.175-6.266s1.57-2.74 1.577-2.755c.017-.04.438-.994 2.31-1.23l1.897-.365c.364.544 1.256 1.058 2.191 1.058h.006c.934 0 1.827-.514 2.19-1.058l1.898.365c1.872.236 2.293 1.19 2.308 1.223.008.021 1.58 2.762 1.58 2.762l-2.652 1.045-.71-1.335a.426.426 0 0 0-.803.2v6.532h-7.628v-6.532a.426.426 0 0 0-.803-.2l-.71 1.335-2.651-1.045zm17.139 5.985c.032.101-.116.32-.414.416-.299.097-.546.007-.58-.094a.426.426 0 0 0-.014-.04l-1.89-4.303-.026-.362 1.143-.45 1.78 4.833zm-15.206-2.397l.714-1.629.046.018a.426.426 0 0 0 .533-.196l.085-.16v11.08c0 .236.19.426.426.426h.192l.207 2.647h-1.534l-.67-12.186zm.692 14.765v-1.726h1.578l.02.248a1.923 1.923 0 0 0-1.083.558 2.206 2.206 0 0 0-.515.92zm4.09.376h-3.309c.049-.224.147-.497.347-.704.219-.226.522-.335.928-.335h2.034v1.04zm0-1.892h-1.64l-.291-3.71h1.93v3.71zm.852 1.892v-1.562c.421.467.55 1.138.587 1.562h-.587zm.822-1.909a2.399 2.399 0 0 0-.822-.727v-2.966h.037c.16 0 .301-.09.374-.223a.426.426 0 0 0 .374.223h.037v3.693zm.013-7.926a.426.426 0 0 0-.848 0l-.336 3.38h-3.054v-4.98h7.628v4.98h-3.054l-.336-3.38zm2.77 4.234l-.29 3.709h-1.64v-3.71h1.93zm-1.93 5.601v-1.04h2.033c.404 0 .706.11.924.333.202.207.302.482.35.707h-3.308zm4.164-.052c-.062-.362-.215-.856-.59-1.244a1.924 1.924 0 0 0-1.083-.558l.294-3.748h.191c.236 0 .427-.19.427-.426V57.04l.085.16a.427.427 0 0 0 .533.197l.046-.018.093.213c.239 3.162.742 7.885 1.801 13.64-.052.316-.38 1.89-1.797 2.864zm4.445.052h-3.194c.866-.905 1.206-1.95 1.332-2.498h1.862v2.498zm0-3.35h-1.86a133.517 133.517 0 0 1-1.52-10.774l.872 1.987c.155.441.603.704 1.126.704.168 0 .343-.027.52-.084.393-.128.695-.376.862-.673v8.84zm0-9.928l-1.7-4.611.577-.227a.426.426 0 0 0 .214-.61l-1.143-1.99h2.052v7.438zm4.046 13.278h-3.194V71.65h1.861c.127.549.466 1.593 1.333 2.498zm-1.334-3.35h-1.86V53.43h3.81c-.037 1.681-.285 8.21-1.95 17.366zm3.696-18.219h-8.95l-.153-.266c-.11-.241-.762-1.44-2.966-1.723l-.106-.02a93.122 93.122 0 0 1-.222-2.808 6.65 6.65 0 0 0 .774-3.156c0-1.823-.367-3.1-.907-3.992.087-2.572.34-4.777.755-6.578.447.36 1.042.472 1.314.522 1.039.192 2.557.192 4.479.192 1.922 0 3.44 0 4.479-.192.271-.05.867-.163 1.313-.522 1.502 6.54.433 16.508.19 18.543zM63.51 38.19l-3.618-11.883c.13-.207.244-.44.334-.701.373-1.079.329-2.644-.649-3.53a.427.427 0 0 0-.572.632c.66.598.708 1.77.415 2.62-.228.662-.633 1.092-1.056 1.123a.426.426 0 0 0-.395.4l-.146 2.471a.426.426 0 0 0 .074.266c.526.77 1.007 1.883 1.432 3.307-.06.92-1.709.997-5.067 1.002V20.602c2.184-.114 3.696-1.108 3.986-2.588l.34.081c2.858.672 3.564 3.599 3.592 3.72l3.458 15.608-2.128.766zm2.048 3.53a1.004 1.004 0 0 1-.761-.132c-.229-.144-.34-.356-.446-.632l-.593-1.95 2.066-.742.497 2.247a1.012 1.012 0 0 1-.763 1.208z" fill="#1C1B1A"/><path d="M36.224 11.688c.902 0 1.531-.366 1.531-.89a.426.426 0 0 0-.84-.102c-.083.05-.32.14-.69.14-.372 0-.608-.09-.691-.14a.426.426 0 0 0-.84.102c0 .524.629.89 1.53.89zM33.863 8.37a.425.425 0 0 0 .3-.726.44.44 0 0 0-.602 0 .425.425 0 0 0 .302.726zm4.723 0a.427.427 0 0 0 .427-.426.432.432 0 0 0-.125-.3.44.44 0 0 0-.603 0 .427.427 0 0 0 .301.726z" fill="#1C1B1A"/><path d="M11.287 29.354a.426.426 0 0 1-.38-.234l-.472-.934-.473.934a.426.426 0 0 1-.38.234H7.396c-.002.086-.003.173-.003.261 0 1.365.333 2.737 1.046 3.624.028.026.801.983 1.996.983 1.195 0 1.967-.957 1.995-.983.714-.887 1.047-2.259 1.047-3.624 0-.088-.002-.175-.003-.261h-2.187zm-2.822 1.354a.427.427 0 0 1 0-.604.44.44 0 0 1 .602 0 .428.428 0 0 1-.302.728.43.43 0 0 1-.3-.124zm2.835 2.408a2.464 2.464 0 0 1-.863.145h-.008c-.85 0-1.423-.326-1.425-.812 0-.235.19-.427.425-.428h.002c.185 0 .343.119.402.284.086.043.293.103.597.103h.005c.306 0 .514-.062.601-.105a.426.426 0 0 1 .401-.286h.001c.235 0 .426.19.427.425 0 .17-.072.482-.565.674zm1.105-2.408a.434.434 0 0 1-.302.124.435.435 0 0 1-.302-.124.432.432 0 0 1 0-.604.442.442 0 0 1 .604 0 .432.432 0 0 1 0 .604z" fill="#E0B489"/><path d="M11.44 32.018h-.002a.426.426 0 0 0-.4.285c-.088.043-.296.105-.602.106h-.005c-.303 0-.51-.06-.597-.103a.427.427 0 0 0-.402-.284h-.001a.426.426 0 0 0-.425.428c.001.486.574.811 1.425.811h.007c.32 0 .626-.052.864-.144.492-.192.565-.505.564-.674a.427.427 0 0 0-.426-.425zm-2.247-1.612a.425.425 0 0 0-.125-.302.44.44 0 0 0-.602 0 .428.428 0 0 0 .3.728.432.432 0 0 0 .302-.124.43.43 0 0 0 .125-.302zm2.609-.302a.431.431 0 0 0 0 .604c.08.078.19.125.302.125a.435.435 0 0 0 .302-.125.435.435 0 0 0 .124-.302.432.432 0 0 0-.124-.302.443.443 0 0 0-.604 0z" fill="#1C1B1A"/><path d="M10.436 35.075c-.462 0-.893-.088-1.289-.252a.424.424 0 0 1-.25.296c.037.815.27 1.535 1.539 1.535 1.27 0 1.501-.721 1.538-1.535a.424.424 0 0 1-.25-.296 3.344 3.344 0 0 1-1.288.252z" fill="#E0B489"/><path d="M6.54 29.616c0-.246.008-.486.022-.714a.422.422 0 0 1 .425-.399v-.001h2.334l.734-1.453a.426.426 0 0 1 .76 0h.001l.735 1.453h2.333v.001c.225 0 .412.173.426.4.014.227.02.467.02.713 0 1.396-.286 2.595-.796 3.512h2.174c-.06-3.425-.916-5.8-2.366-7.25-1.237-1.236-2.89-1.152-2.901-1.152-.014 0-1.69-.07-2.928 1.168-.698.699-1.281 1.589-1.672 2.74a.42.42 0 0 1-.033.094c-.398 1.213-.614 2.682-.644 4.4h2.174c-.51-.917-.797-2.116-.797-3.512z" fill="#754C24"/><path d="M16.801 39.408l-1.65 1.463-.095.772c.006.013 3.877 11.15 3.877 11.15.005.016.01.032.013.047a.535.535 0 0 0 .979.17.535.535 0 0 0 .07-.404l-3.194-13.198z" fill="#E0B489"/><path d="M14.56 36.016c-.016-.004-1.753-.606-1.753-.606-.09.858-.498 2.096-2.372 2.096-1.875 0-2.283-1.24-2.372-2.096 0 0-1.736.602-1.752.605-.937.214-2.124 1.485-2.315 2.188l2.41 2.136a.427.427 0 0 1 .14.267l.274 2.223h7.23l.275-2.223a.427.427 0 0 1 .14-.267l2.41-2.136c-.179-.535-.764-1.835-2.315-2.188z" fill="#FF7B7B"/><path d="M11.791 73.001v1.134h3.266c-.224-.484-.685-1.132-1.547-1.134h-1.719z" fill="#F4A2A9"/><path d="M11.792 72.148h1.362c.28-1.602 1.413-8.393 1.475-13.376h-2.834l-.003 13.376z" fill="#E0B489"/><path d="M13.946 43.683h-7.02l.094.765h6.831l.095-.765z" fill="#F4A2A9"/><path d="M6.89 45.3c-.618 1.1-3.48 6.507-3.61 12.62h14.31c-.13-6.12-2.99-11.522-3.608-12.62H6.89z" fill="#FF7B7B"/><path d="M7.362 73.001c-.862.002-1.322.65-1.547 1.134h3.267v-1.134h-1.72z" fill="#F4A2A9"/><path d="M4.07 39.408l-1.558 6.437-.001.005-1.638 6.763a.534.534 0 0 0 .41.635.538.538 0 0 0 .642-.408.406.406 0 0 1 .013-.047s3.871-11.136 3.877-11.15l-.095-.772-1.65-1.463zm5.01 32.74l-.003-13.376H6.243c.062 4.984 1.196 11.774 1.475 13.376H9.08z" fill="#E0B489"/><path fill-rule="evenodd" clip-rule="evenodd" d="M17.524 38.768l.117-.103a.426.426 0 0 0 .134-.408c-.021-.102-.555-2.495-3.002-3.067l-2.208-.766v-.107c.124-.102.243-.215.356-.336h3.217a.427.427 0 0 0 .426-.427c0-3.898-.89-6.691-2.646-8.303-1.542-1.417-3.192-1.376-3.483-1.376-.293 0-1.941-.039-3.482 1.376a6.625 6.625 0 0 0-1.404 1.881l-.567 1.384c-.448 1.393-.674 3.075-.674 5.038 0 .236.19.427.426.427H7.95c.113.121.231.234.356.336v.107l-1.061.368-.811.282-.336.116a3.805 3.805 0 0 0-1.869 1.035l-.638.83a4.35 4.35 0 0 0-.496 1.202c-.032.15.02.306.134.408l.118.104-.768 3.172-.907 3.748S.025 52.518.019 52.567c0 0-.043.306 0 .485.043.18.219.433.219.433a1.38 1.38 0 0 0 1.162.629c.628 0 1.196-.43 1.35-1.062l3.3-9.5.152 1.23c-.556.96-3.778 6.806-3.778 13.564 0 .235.19.426.426.426h2.54c.06 4.952 1.162 11.644 1.47 13.429-1.287.271-1.907 1.556-2.062 2.271a.426.426 0 0 0 .417.517h4.292a.427.427 0 0 0 .426-.427l-.004-15.79h1.013l-.005 15.79a.426.426 0 0 0 .427.427h4.291a.426.426 0 0 0 .417-.517c-.154-.715-.774-2-2.063-2.271.31-1.785 1.411-8.476 1.472-13.429h2.54c.235 0 .425-.19.425-.426 0-6.758-3.221-12.605-3.777-13.563l.152-1.232 3.3 9.501c.085.351.299.65.605.845a1.382 1.382 0 0 0 1.048.183 1.38 1.38 0 0 0 .871-.612c.199-.314.264-.686.181-1.056l-3.302-13.644zm-10.13-9.152c0 1.365.333 2.737 1.046 3.624l.014.015c.112.126.861.967 1.982.967 1.12 0 1.869-.84 1.981-.967l.014-.015c.714-.887 1.047-2.259 1.047-3.624 0-.088-.002-.175-.004-.261h-2.186a.426.426 0 0 1-.38-.234l-.472-.935-.473.935a.426.426 0 0 1-.38.234H7.397v.02c-.002.08-.004.16-.004.241zm3.042 7.038c1.27 0 1.501-.721 1.538-1.535a.424.424 0 0 1-.25-.295 3.343 3.343 0 0 1-1.288.251c-.462 0-.893-.088-1.289-.251a.425.425 0 0 1-.25.295c.038.816.27 1.535 1.539 1.535zm-4.595-8.02a.412.412 0 0 1-.033.094c-.398 1.213-.614 2.682-.644 4.4h2.174c-.51-.917-.797-2.116-.797-3.512 0-.246.007-.486.02-.714a.422.422 0 0 1 .426-.399v-.001h2.334l.734-1.453a.426.426 0 0 1 .76 0h.001l.735 1.453h2.333v.002a.424.424 0 0 1 .426.398c.014.228.02.468.02.714 0 1.396-.286 2.595-.796 3.512h2.174c-.06-3.425-.916-5.8-2.366-7.249-1.216-1.216-2.835-1.155-2.9-1.152h-.004c-.067-.002-1.708-.05-2.925 1.167-.699.699-1.282 1.589-1.672 2.74zM1.925 52.84a.418.418 0 0 1 .013-.047s3.871-11.136 3.877-11.15l-.095-.772-1.65-1.463-1.558 6.438-.001.004-1.637 6.763a.535.535 0 0 0 .41.635.538.538 0 0 0 .641-.408zm7.152 5.932H6.243c.062 4.985 1.195 11.775 1.475 13.377h1.363l-.004-13.377zM7.36 73.002c-.861.002-1.322.65-1.546 1.134H9.08v-1.134H7.36zm4.43 1.134h3.266c-.224-.484-.685-1.132-1.547-1.134H11.79v1.134zm0-1.987h1.362c.28-1.603 1.414-8.393 1.476-13.377h-2.834L11.79 72.15zm-8.51-14.23h14.31c-.13-6.118-2.99-11.52-3.608-12.618H6.89c-.618 1.098-3.479 6.507-3.608 12.619zm10.665-14.237h-7.02l.095.766h6.83l.095-.766zm.38-3.075a.427.427 0 0 1 .14-.267l2.41-2.136c-.18-.535-.765-1.835-2.316-2.188-.015-.003-1.752-.605-1.752-.605-.09.858-.498 2.096-2.372 2.096-1.876 0-2.283-1.24-2.372-2.096 0 0-1.737.602-1.752.605-.938.214-2.124 1.485-2.315 2.188l2.41 2.136a.427.427 0 0 1 .14.267l.274 2.223h7.23l.274-2.223zm5.262 12.64a.533.533 0 0 0 .408-.642l-3.194-13.197-1.65 1.463-.096.773c.006.013 3.877 11.15 3.877 11.15.005.015.01.03.014.047a.535.535 0 0 0 .642.407z" fill="#1C1B1A"/></svg>