<svg width="29" height="75" fill="none" xmlns="http://www.w3.org/2000/svg"><path d="M16.356 13.65c-.583.313-1.278.461-2.104.461h-.002c-.827 0-1.523-.148-2.105-.46v.672l1.183 2.308h1.845l1.183-2.308v-.672z" fill="#E5CBBD"/><path d="M12.828 33.633l1.423 1.792 1.423-1.792-.978-13.87h-.89l-.978 13.87z" fill="#fff"/><path d="M17.153 14.618l-1.136 2.216 2.095.84-.143-2.713-.8-.385-.016.042z" fill="#67BAB2"/><path d="M15.35 17.474h-2.188l-.19.086.699 1.36h1.16l.704-1.372-.185-.074z" fill="#fff"/><path d="M14.25 13.268c1.464 0 2.238-.753 2.25-.764.584-.567 1.029-1.52 1.307-3.079v-.003c.032-.282-.116-1.575-.285-2.428a2.657 2.657 0 0 1-.315.211.42.42 0 0 1-.254.756h-1.306a.422.422 0 0 1-.18-.801c-.283-.206-.537-.517-.76-.937-.455-.866-1.017-1.404-1.67-1.599-.664-.199-1.256.018-1.445.1-.226.338-.89 2.07-.896 4.71.278 1.554.723 2.504 1.305 3.07.012.011.786.764 2.25.764zm1.7-4.87a.437.437 0 0 1 .598 0 .43.43 0 0 1 .123.299.43.43 0 0 1-.123.298.43.43 0 0 1-.3.123.43.43 0 0 1-.298-.123.43.43 0 0 1-.123-.298c0-.112.046-.221.124-.299zm-2.382 3.019c.082.05.316.138.683.138.367 0 .6-.088.682-.138a.422.422 0 0 1 .832.1c0 .519-.623.881-1.514.881s-1.514-.362-1.514-.88a.422.422 0 0 1 .83-.101zM11.126 7.54c0-.233.19-.422.422-.422h1.306a.422.422 0 1 1 0 .844h-1.306a.422.422 0 0 1-.422-.422zm.704 1.157c0-.112.045-.221.124-.299a.435.435 0 0 1 .596 0c.079.08.124.187.124.299a.425.425 0 0 1-.423.421.426.426 0 0 1-.421-.421z" fill="#E5CBBD"/><path d="M11.12 4.017a2.995 2.995 0 0 1 2.159-.2c.877.262 1.609.939 2.174 2.013.26.494.542.757.838.78.464.034.97-.494 1.113-.682a.422.422 0 0 1 .725.093l.002-.001c.175.425.378 1.633.47 2.536.303-.564.573-1.738.187-4.145-.3-1.88-.874-3.568-4.538-3.568-3.663 0-4.237 1.688-4.538 3.568-.377 2.358-.126 3.531.169 4.109.135-2.26.723-4.01 1.146-4.433a.418.418 0 0 1 .094-.07z" fill="#998675"/><path d="M11.348 14.618c-.007-.013-.01-.028-.016-.042l-.808.389-.144 2.85 2.113-.963-1.145-2.234z" fill="#67BAB2"/><path d="M27.547 40.832h-2.418s.27 1.25.271 1.262c.04.303.195.573.438.76a1.148 1.148 0 0 0 1.836-1.056l-.127-.966z" fill="#E5CBBD"/><path d="M20.228 39.948H8.27v31.287h4.064l1.495-27.194a.42.42 0 1 1 .84 0l1.495 27.194h4.063V39.948z" fill="#999"/><path d="M20.381 16.112c-.026-.007-1.547-.735-1.547-.735l.153 2.912a.421.421 0 0 1-.578.414l-2.09-.84-.803 1.567 1.009 14.307a.421.421 0 0 1-.09.292l-1.765 2.222v1.353h5.557V24.426c0-.078.021-.13.024-.139l2.436-6.993c-.535-.48-1.277-.915-2.306-1.182z" fill="#67BAB2"/><path d="M14.755 38.447h-1.01v.658h1.01v-.658z" fill="#4D4D4D"/><path d="M12.9 38.447H8.272v.658h4.63v-.658z" fill="#E6E6E6"/><path d="M24.06 19.777c-.006-.061-.099-.887-.728-1.767l-2.246 6.446 2.64 13.349h3.867s-3.532-18.013-3.533-18.028z" fill="#67BAB2"/><path d="M19.729 72.078h-3.541v2.08h5.468c-.038-.43-.168-1.116-.605-1.577-.32-.339-.754-.503-1.322-.503z" fill="#736357"/><path d="M20.229 38.447h-4.63v.658h4.63v-.658z" fill="#E6E6E6"/><path d="M27.645 38.648H24.1l.752 1.34h2.677l.116-1.34z" fill="#67BAB2"/><path d="M7.447 72.584c-.432.458-.563 1.143-.601 1.573h5.467v-2.079H8.772c-.57 0-1.004.165-1.325.505z" fill="#736357"/><path d="M4.44 19.779L.906 37.805h3.867l2.64-13.348-2.245-6.447c-.63.88-.722 1.707-.728 1.769zM.972 39.989h2.676l.753-1.34H.855l.117 1.34z" fill="#67BAB2"/><path d="M.826 41.799a1.148 1.148 0 0 0 2.274.295l.271-1.262H.954l-.128.967z" fill="#E5CBBD"/><path d="M8.272 24.425v13.179h5.556v-1.355l-1.763-2.22a.421.421 0 0 1-.09-.292l1.008-14.308-.78-1.52-2.105.96a.422.422 0 0 1-.596-.405l.157-3.084s-1.514.725-1.54.732c-1.03.267-1.771.702-2.306 1.182l2.435 6.993a.465.465 0 0 1 .024.138z" fill="#67BAB2"/><path d="M12.736 11.517c0 .519.623.88 1.514.88.892 0 1.514-.361 1.514-.88a.421.421 0 0 0-.831-.1c-.082.05-.316.138-.683.138-.367 0-.6-.088-.682-.138a.422.422 0 0 0-.832.1zm-.188-2.522a.424.424 0 0 0 .125-.298.425.425 0 0 0-.125-.299.435.435 0 0 0-.595 0 .421.421 0 1 0 .595.597zm3.702.123a.43.43 0 0 0 .298-.123.43.43 0 0 0 .123-.298.43.43 0 0 0-.123-.299.437.437 0 0 0-.597 0 .427.427 0 0 0 0 .597.43.43 0 0 0 .299.123z" fill="#1C1B1A"/><path fill-rule="evenodd" clip-rule="evenodd" d="M28.34 40.4l.185-2.137-3.628-18.585c-.037-.333-.474-3.368-4.263-4.371L17.2 13.655v-.652c.666-.706 1.118-1.766 1.4-3.232.57-.314 1.668-1.452 1.021-5.493C19.381 2.781 18.936 0 14.251 0h-.001C9.564 0 9.12 2.783 8.88 4.278 8.233 8.32 9.33 9.457 9.9 9.77c.283 1.466.735 2.526 1.402 3.232v.652l-3.435 1.652c-3.789 1.003-4.226 4.038-4.263 4.37l-1.782 9.085-.43 2.19-1.344 6.853-.04.843.117 1.34-.068 2.523.003.007a1.992 1.992 0 0 0 1.908 1.417c.436 0 .858-.142 1.21-.413.416-.32.684-.782.757-1.301l.358-1.66 1.241-2.252 1.895-9.58v42.818c-.22.12-.419.271-.595.457-.925.981-.847 2.533-.843 2.599a.421.421 0 0 0 .42.397h6.324a.422.422 0 0 0 .421-.421v-2.912l1.095-19.91 1.094 19.91v2.912c0 .232.189.421.422.421h6.323a.422.422 0 0 0 .42-.397c.005-.066.083-1.618-.843-2.599a2.35 2.35 0 0 0-.595-.457V28.73s1.936 9.696 1.941 9.704l1.196 2.129.358 1.659c.072.52.34.98.757 1.301a1.973 1.973 0 0 0 1.47.397 1.992 1.992 0 0 0 1.716-2.23l-.17-1.288zM18.111 17.675l-.143-2.714-.8-.384a.228.228 0 0 0-.005.016l-.01.026-1.137 2.215 2.096.841zm-5.139-.114l.698 1.36h1.16l.705-1.372-.186-.074H13.16l-.189.086zm1.278 17.865l1.423-1.792-.978-13.87h-.89l-.978 13.87 1.423 1.792zm-.922-18.794h1.845l1.183-2.307v-.673c-.583.312-1.278.46-2.105.46h-.002c-.826 0-1.522-.148-2.105-.46v.673l1.184 2.307zM9.712 4.41c-.377 2.358-.126 3.532.169 4.11.135-2.261.723-4.01 1.146-4.433a.422.422 0 0 1 .094-.071c.04-.022 1.004-.545 2.158-.2.877.262 1.609.94 2.174 2.013.26.495.543.757.838.78.464.034.97-.493 1.113-.682a.422.422 0 0 1 .725.093h.002c.175.425.378 1.632.47 2.535.303-.564.573-1.738.187-4.145-.3-1.88-.874-3.568-4.538-3.568-3.663 0-4.237 1.688-4.538 3.568zm1.88.314c-.227.338-.89 2.07-.896 4.71.278 1.553.722 2.503 1.304 3.07.013.01.787.763 2.25.763 1.464 0 2.238-.753 2.25-.764.584-.567 1.028-1.52 1.306-3.079v-.003c.032-.282-.115-1.575-.285-2.428a2.63 2.63 0 0 1-.315.211.42.42 0 0 1-.253.757h-1.307a.421.421 0 0 1-.18-.802c-.282-.206-.537-.516-.759-.937-.456-.866-1.018-1.404-1.67-1.599-.665-.199-1.257.018-1.446.101zm-.26 9.85l-.808.39-.144 2.85 2.113-.963-1.145-2.234a.099.099 0 0 1-.01-.027l-.006-.016zm-8.67 28.28c.243-.188.399-.458.438-.761l.272-1.262H.954l-.128.967a1.147 1.147 0 0 0 1.837 1.055zm-1.69-2.866h2.676l.753-1.34H.855l.116 1.34zm-.064-2.184h3.867l2.64-13.349L5.17 18.01c-.63.88-.722 1.707-.728 1.769L.907 37.805zM8.12 16.112c-1.03.267-1.771.703-2.306 1.182l2.436 6.993a.466.466 0 0 1 .023.139v13.178h5.556V36.25l-1.763-2.22a.422.422 0 0 1-.09-.292l1.009-14.307-.78-1.52-2.106.96a.418.418 0 0 1-.411-.036.421.421 0 0 1-.184-.37l.156-3.084s-1.514.725-1.54.732zm6.637 22.993v-.657h-1.011v.657h1.01zm-1.855 0v-.657h-4.63v.657h4.63zM6.846 74.157h5.466v-2.079h-3.54c-.57 0-1.004.165-1.325.505-.433.459-.563 1.144-.601 1.574zM14.67 44.04l1.495 27.195h4.063V39.948H8.272v31.287h4.063L13.83 44.04a.42.42 0 1 1 .84 0zm.929-5.593v.658h4.63v-.657h-4.63zm.589 35.71h5.468c-.037-.43-.168-1.115-.605-1.576-.32-.339-.753-.503-1.322-.503h-3.541v2.08zm4.04-36.553V24.426c0-.074.019-.124.023-.137v-.002l2.437-6.993c-.535-.48-1.277-.915-2.306-1.182-.027-.007-1.547-.735-1.547-.735l.153 2.912a.421.421 0 0 1-.578.413l-2.09-.838-.803 1.566 1.009 14.307a.421.421 0 0 1-.09.292l-1.765 2.222v1.353h5.557zm3.103-19.594l-2.245 6.446 2.64 13.35h3.867l-3.534-18.029c-.006-.061-.098-.887-.728-1.767zm4.315 20.638H24.1l.753 1.34h2.676l.117-1.34zm-1.808 4.206a1.148 1.148 0 0 0 1.836-1.056l-.127-.966h-2.418s.27 1.25.271 1.261c.04.304.195.574.438.761z" fill="#1C1B1A"/><path d="M13.275 7.54a.422.422 0 0 0-.422-.422h-1.306a.421.421 0 1 0 0 .843h1.306a.422.422 0 0 0 .422-.421z" fill="#1C1B1A"/></svg>