<svg width="55" height="75" fill="none" xmlns="http://www.w3.org/2000/svg"><path d="M16.401 12.753c-.614.426-1.309.668-2.046.668-.737 0-1.432-.242-2.046-.668v.882l2.046 4.006 2.046-4.006v-.882z" fill="#D8B4A4"/><path d="M16.052 16.194l2.197 1 .107-2.478-1.317-.454-.987 1.931z" fill="#898785"/><path d="M14.781 18.68v21.369h4.12l.307-1.27-.117-.103a.426.426 0 0 1-.134-.408c.015-.073.295-1.33 1.36-2.244v-2.137a.424.424 0 0 1-.149-.322c0-.915.051-1.767.15-2.56v-7.153c0-.01.02-.132.023-.14l2.463-7.073c-.54-.484-1.29-.925-2.332-1.195l-1.275-.438-.124 2.857a.426.426 0 0 1-.603.37l-2.807-1.28-.882 1.727z" fill="#898785"/><path d="M21.721 26.597a6.36 6.36 0 0 1 1.093-1.335 5.21 5.21 0 0 1 2.329-1.252l-.945-4.815a.437.437 0 0 1-.006-.045c-.006-.061-.1-.897-.736-1.787l-2.271 6.52.536 2.714z" fill="#898785"/><path d="M19.93 39.42l-.275 1.141-2.92 12.063a.53.53 0 0 0 .072.398.535.535 0 0 0 .979-.17.465.465 0 0 1 .014-.047s3.87-11.137 3.876-11.15l-.095-.773-1.65-1.462z" fill="#E5CBBD"/><path d="M4.518 19.15a.499.499 0 0 1-.006.045L.967 37.27h3.91l2.65-13.388-2.269-6.51c-.65.91-.738 1.762-.74 1.777z" fill="#898785"/><path d="M8.393 23.852v16.197h5.536V18.68l-.882-1.726-2.807 1.279a.429.429 0 0 1-.4-.025.426.426 0 0 1-.202-.345l-.124-2.857-1.276.438c-1.039.27-1.788.713-2.33 1.201l2.462 7.066a3.4 3.4 0 0 1 .023.14zm-7.38 15.739h2.698l.798-1.467H.906l.107 1.467z" fill="#898785"/><path d="M14.355 12.568c2 0 3.628-2.32 3.628-5.172v-1.23c-.822-.14-1.384-.694-1.63-1.595-.487.324-1.19.522-1.998.522-.81 0-1.511-.198-2-.522-.245.9-.806 1.455-1.628 1.594v1.23c0 2.853 1.627 5.173 3.628 5.173zm1.533-5.03a.444.444 0 0 1 .604-.002.43.43 0 0 1 0 .603.427.427 0 0 1-.728-.302c0-.11.046-.221.124-.3zM13.25 9.906c.2 0 .369.138.414.324.083.051.32.14.69.14.372 0 .608-.089.691-.14a.427.427 0 0 1 .84.102c0 .524-.629.89-1.53.89-.902 0-1.531-.366-1.531-.89 0-.236.19-.426.426-.426zm-1.158-2.07a.43.43 0 0 1 .124-.3.44.44 0 0 1 .604 0 .43.43 0 0 1 .125.3.427.427 0 0 1-.852 0zM.862 41.421c-.04.307.043.61.231.856.19.246.462.403.77.443.306.04.591-.072.856-.231.324-.195.447-.793.45-.804l.267-1.242H.991l-.129.978z" fill="#D8B4A4"/><path d="M7.56 72.555c-.438.463-.57 1.157-.609 1.592h5.53v-2.103H8.898c-.577 0-1.015.167-1.34.51z" fill="#736357"/><path d="M12.658 16.194l-.987-1.932-1.317.454.107 2.478 2.197-1z" fill="#898785"/><path d="M40.497 28.913h.002a.425.425 0 0 1 .424-.4h2.334l.734-1.454.001.001a.426.426 0 0 1 .76 0l.734 1.453h2.334c.227 0 .41.177.424.4h.002c.014.228.02.468.02.713 0 1.397-.288 2.596-.798 3.512h2.175a17.643 17.643 0 0 0-.287-2.995.428.428 0 0 1-.02-.097c-.213-1.072-.536-1.992-.968-2.756l-.017-.03a5.657 5.657 0 0 0-1.073-1.37 4.348 4.348 0 0 0-2.131-1.09c-.005-.001-.009 0-.013-.002l-.007-.002a3.061 3.061 0 0 0-.72-.058h-.069c-.066-.005-1.523-.099-2.889 1.167-1.499 1.39-2.288 3.822-2.348 7.233h2.175c-.51-.916-.798-2.115-.798-3.512 0-.245.007-.485.02-.713z" fill="#534741"/><path d="M21.946 28.008a.422.422 0 0 1-.028.068c-.556 1.327-.857 3.018-.893 5.064h2.176c-.51-.917-.799-2.116-.799-3.512 0-.246.007-.486.021-.714h.002a.425.425 0 0 1 .424-.4h2.333l.735-1.453a.426.426 0 0 1 .76 0l.735 1.453h2.334c.226 0 .41.177.424.4h.001c.014.228.021.468.021.713 0 1.397-.288 2.596-.799 3.513h2.176c-.06-3.425-.855-5.863-2.366-7.25-1.376-1.263-2.197-1.151-2.94-1.151-.744 0-2.035.376-2.889 1.167-.585.542-1.06 1.246-1.428 2.102z" fill="#CC7050"/><path d="M26.297 35.086c-.462 0-.893-.087-1.289-.251a.426.426 0 0 1-.25.294c.038.817.27 1.537 1.539 1.537 1.27 0 1.502-.723 1.538-1.537a.425.425 0 0 1-.25-.294 3.342 3.342 0 0 1-1.288.251zm.852-5.72a.427.427 0 0 1-.38-.234l-.473-.935-.472.935a.426.426 0 0 1-.38.234h-2.186c-.002.086-.004.173-.004.261 0 1.365.333 2.737 1.047 3.624.028.026.736.982 1.995.982 1.26 0 1.967-.956 1.996-.982.713-.887 1.046-2.26 1.046-3.624 0-.088-.001-.175-.003-.261h-2.186zm-2.823 1.352a.427.427 0 0 1 0-.602.442.442 0 0 1 .604 0 .428.428 0 0 1-.302.728.428.428 0 0 1-.302-.126zm2.835 2.41a2.463 2.463 0 0 1-.863.145h-.008c-.85 0-1.423-.326-1.424-.813 0-.235.19-.426.425-.427h.001c.186 0 .343.118.402.284.087.043.294.103.597.103h.005c.306 0 .515-.063.601-.106a.426.426 0 0 1 .829.14c0 .17-.072.482-.565.674zm1.106-2.41a.429.429 0 0 1-.302.126.429.429 0 0 1-.302-.728.442.442 0 0 1 .604 0 .428.428 0 0 1 0 .602z" fill="#E5CBBD"/><path d="M23.184 33.992l.145.734.838-.29v-.108a3.676 3.676 0 0 1-.355-.336h-.628z" fill="#898785"/><path d="M46.5 34.328v.107l1.204.418c.064-.296.131-.583.2-.861h-1.05c-.112.12-.23.234-.354.336z" fill="#F9E4DC"/><path d="M44.372 35.086c-.462 0-.893-.087-1.288-.251a.425.425 0 0 1-.25.294c.037.817.27 1.537 1.538 1.537 1.271 0 1.502-.723 1.538-1.537a.425.425 0 0 1-.25-.294 3.344 3.344 0 0 1-1.288.251zm0-.853c1.41 0 1.967-.956 1.995-.982.714-.887 1.047-2.26 1.047-3.624 0-.088-.002-.175-.004-.261h-2.185a.427.427 0 0 1-.381-.234l-.472-.935-.472.935a.426.426 0 0 1-.38.234h-2.186c-.002.086-.004.173-.004.261 0 1.365.334 2.737 1.047 3.624.028.026.584.982 1.995.982zm1.367-4.117a.442.442 0 0 1 .603 0 .431.431 0 0 1 0 .603.434.434 0 0 1-.302.125.435.435 0 0 1-.302-.125.432.432 0 0 1 0-.604zm-2.37 1.917c.185 0 .343.118.401.284.087.042.294.103.596.103h.005c.307 0 .515-.063.602-.106a.426.426 0 0 1 .829.14c0 .488-.573.817-1.429.819h-.006a2.46 2.46 0 0 1-.858-.141c-.493-.19-.567-.503-.567-.672 0-.236.19-.427.425-.427h.001zm-.968-1.917a.442.442 0 0 1 .604 0 .432.432 0 0 1 0 .603.431.431 0 0 1-.604 0 .438.438 0 0 1-.124-.301c0-.113.046-.222.124-.302z" fill="#E5C2BD"/><path d="M11.643 3.421a.426.426 0 0 1 .853 0c0 .334.724.82 1.859.82s1.86-.486 1.86-.82a.426.426 0 0 1 .853 0c0 1.056.307 1.68.915 1.868V3.11c0-.041.008-.717-.577-1.315-.612-.625-1.639-.942-3.051-.942-1.413 0-2.44.317-3.052.942-.585.598-.577 1.273-.576 1.302v2.192c.607-.187.916-.812.916-1.868z" fill="#B79870"/><path d="M47.446 73.013h-1.72v1.134h3.267c-.224-.484-.685-1.132-1.547-1.134z" fill="#71D89A"/><path d="M47.927 45.36h-7.091c-.618 1.099-3.479 6.507-3.608 12.62h14.308c-.13-6.113-2.99-11.521-3.609-12.62z" fill="#BEF4C3"/><path d="M47.09 72.16c.279-1.603 1.412-8.394 1.474-13.377H45.73l-.003 13.377h1.362z" fill="#E5C2BD"/><path d="M47.787 44.459l.094-.766h-7.02l.095.766h6.83z" fill="#71D89A"/><path d="M43.017 72.16l-.003-13.377H40.18c.062 4.985 1.196 11.774 1.475 13.377h1.362z" fill="#E5C2BD"/><path d="M41.297 73.013c-.862.002-1.323.65-1.547 1.134h3.266v-1.134h-1.72z" fill="#71D89A"/><path d="M48.605 44.794c.388.668 2.07 3.713 3.054 7.784h.23l-3.132-9.016-.151 1.232z" fill="#BADFE8"/><path d="M20.319 58.783h-1.606a.426.426 0 0 1-.426-.426c0-3.83 1.034-7.365 2.032-9.885v-.32l-1.706 4.911c-.085.351-.3.65-.606.845a1.381 1.381 0 0 1-1.048.183 1.38 1.38 0 0 1-.87-.612 1.38 1.38 0 0 1-.183-1.048l2.79-11.53H8.394v30.29h4.108L13.93 43.69a.426.426 0 0 1 .85 0h.002l1.429 27.502h4.108V58.783z" fill="#5576A5"/><path d="M40.492 40.666l.275 2.224h7.23l.274-2.224a.427.427 0 0 1 .14-.266l2.41-2.136c-.179-.535-.764-1.835-2.315-2.188-.016-.003-1.752-.605-1.752-.605-.09.857-.498 2.096-2.372 2.096-1.876 0-2.283-1.241-2.372-2.096 0 0-1.737.602-1.752.605-1.551.353-2.137 1.652-2.316 2.188l2.41 2.136a.427.427 0 0 1 .14.266z" fill="#BEF4C3"/><path d="M19.814 72.044h-3.582v2.103h4.525c.128-.371.351-.807.686-1.177-.325-.621-.86-.926-1.63-.926z" fill="#736357"/><path d="M27.653 73.013v1.134h3.266c-.225-.484-.686-1.132-1.547-1.134h-1.72zm-4.429 0c-.862.002-1.323.65-1.547 1.134h3.266v-1.134h-1.72z" fill="#9E71D8"/><path d="M22.75 45.312c-.617 1.098-3.478 6.507-3.607 12.618H33.45c-.13-6.111-2.99-11.52-3.608-12.618H22.75z" fill="#DBBEF4"/><path d="M52.883 52.851a.539.539 0 0 0 1.05-.234L50.74 39.42l-1.65 1.462-.096.773c.006.013 3.877 11.15 3.877 11.15.005.015.01.03.013.046z" fill="#E5C2BD"/><path d="M29.807 43.693h-7.02l.095.766h6.83l.095-.766z" fill="#9E71D8"/><path d="M24.942 72.16l-.004-13.377h-2.833c.061 4.984 1.195 11.774 1.474 13.377h1.363zm2.71 0h1.363c.28-1.603 1.413-8.394 1.475-13.377h-2.834l-.004 13.377z" fill="#E5CBBD"/><path d="M30.42 36.027c-.015-.003-1.751-.605-1.751-.605-.09.858-.498 2.096-2.372 2.096-1.876 0-2.283-1.24-2.373-2.096 0 0-1.736.602-1.752.605-.48.11-.867.31-1.179.55l-.014.01c-.685.535-.999 1.26-1.122 1.628l2.41 2.135a.427.427 0 0 1 .14.267l.275 2.224h7.23l.274-2.224a.427.427 0 0 1 .14-.267l2.41-2.135c-.179-.535-.764-1.835-2.315-2.188z" fill="#DBBEF4"/><path d="M38.006 39.42l-2.233 9.225.636 2.623s3.337-9.6 3.343-9.613l-.095-.773-1.65-1.462z" fill="#E5C2BD"/><path d="M32.663 39.42l-1.65 1.462-.096.773c.006.013 3.877 11.15 3.877 11.15.005.015.01.03.013.047a.535.535 0 0 0 .642.407.535.535 0 0 0 .408-.642L32.663 39.42z" fill="#E5CBBD"/><path d="M27.301 32.029H27.3a.426.426 0 0 0-.402.285c-.086.044-.295.105-.6.106h-.006c-.303 0-.51-.06-.597-.103a.427.427 0 0 0-.401-.284h-.002a.426.426 0 0 0-.425.427c.001.487.573.813 1.425.813h.007a2.46 2.46 0 0 0 .864-.145c.492-.192.565-.505.564-.674a.427.427 0 0 0-.426-.425zm-2.246-1.612a.435.435 0 0 0-.125-.302.442.442 0 0 0-.603 0 .429.429 0 0 0 .302.728.426.426 0 0 0 .426-.426zm2.609-.302a.424.424 0 0 0 0 .602c.08.08.189.126.301.126a.429.429 0 0 0 .302-.728.442.442 0 0 0-.603 0zm15.277 2.345c0 .17.075.482.568.672.236.09.54.14.857.14h.007c.855-.001 1.43-.33 1.429-.817a.426.426 0 1 0-.829-.14c-.087.042-.296.104-.602.105h-.005c-.303 0-.51-.06-.596-.103a.426.426 0 0 0-.828.143zm-.238-1.617a.431.431 0 0 0 .302-.124.434.434 0 0 0 .125-.302.432.432 0 0 0-.125-.302.442.442 0 0 0-.603 0 .434.434 0 0 0-.125.302c0 .11.046.222.125.302.08.078.189.124.301.124zm3.337 0a.435.435 0 0 0 .301-.124.438.438 0 0 0 .125-.302.432.432 0 0 0-.125-.302.442.442 0 0 0-.603 0 .432.432 0 0 0 0 .604c.08.078.189.124.301.124z" fill="#1C1B1A"/><path fill-rule="evenodd" clip-rule="evenodd" d="M44.896 23.903a3.567 3.567 0 0 0-.525-.017c-.273-.014-1.941-.04-3.482 1.376-1.756 1.611-2.646 4.405-2.646 8.303 0 .236.191.426.427.426h3.218c.113.121.23.234.355.337v.106l-2.208.767c-2.448.571-2.982 2.965-3.003 3.067-.032.15.02.306.134.407l.117.104-1.949 8.053-1.949-8.053.117-.104a.426.426 0 0 0 .134-.407c-.021-.102-.555-2.496-3.002-3.067l-2.208-.767v-.106a3.74 3.74 0 0 0 .354-.337H32c.235 0 .426-.19.426-.426 0-3.898-.89-6.692-2.645-8.303-1.543-1.417-3.213-1.39-3.484-1.376a3.112 3.112 0 0 0-.308.001l-.95-4.838c-.037-.336-.48-3.418-4.335-4.427l-3.45-1.188v-1.45c.967-1.106 1.582-2.752 1.582-4.589V3.126c.002-.042.03-1.044-.801-1.909C17.257.41 16.019 0 14.355 0c-1.664 0-2.902.41-3.679 1.218-.832.865-.803 1.866-.801 1.892v4.286c0 1.836.615 3.482 1.581 4.588v1.45l-3.449 1.189c-3.855 1.008-4.299 4.09-4.336 4.427L.023 37.73l.167 2.276-.173 1.306c-.07.533.073 1.061.401 1.487a1.998 1.998 0 0 0 1.599.785c.44 0 .868-.144 1.223-.418a2 2 0 0 0 .765-1.316l.364-1.681 1.233-2.266c.004-.008 1.938-9.698 1.938-9.698v43.304a2.37 2.37 0 0 0-.602.462c-.936.992-.857 2.562-.853 2.628.013.226.2.402.425.402h6.395a.427.427 0 0 0 .427-.427v-2.942l1.023-19.705 1.024 19.705v2.942c0 .236.19.427.426.427h9.564a.427.427 0 0 0 .426-.427l-.004-15.79h1.012l-.004 15.79a.426.426 0 0 0 .427.427h4.291a.426.426 0 0 0 .417-.516c-.154-.716-.774-2-2.063-2.272.31-1.785 1.411-8.476 1.472-13.429h2.54c.235 0 .425-.19.425-.426 0-6.758-3.222-12.605-3.777-13.563l.151-1.231 3.3 9.5c.085.352.3.65.606.845a1.38 1.38 0 0 0 1.048.183 1.38 1.38 0 0 0 1.04-.997l.004-.01 3.307-9.521.152 1.231c-.556.959-3.778 6.806-3.778 13.563 0 .236.19.427.426.427h2.54c.06 4.952 1.162 11.644 1.471 13.428-1.288.272-1.908 1.556-2.063 2.272a.426.426 0 0 0 .417.516h4.292a.427.427 0 0 0 .426-.426l-.004-15.79h1.012l-.004 15.79a.427.427 0 0 0 .427.426h4.514s.105-.286.117-.516c.014-.256-.117-.589-.117-.589-.295-.683-.888-1.477-1.869-1.684.31-1.784 1.41-8.476 1.471-13.428h2.54c.235 0 .426-.19.426-.426 0-1.724-.21-3.387-.532-4.926h.354a1.394 1.394 0 0 0 1.506.66c.158-.036.306-.099.44-.183 0 0 .342-.246.47-.532.112-.25.167-.798.167-.798a1.491 1.491 0 0 0-.025-.155L51.46 38.78l.117-.104a.426.426 0 0 0 .135-.407c-.022-.102-.556-2.496-3.003-3.067l-.192-.067-.813-.281-1.203-.418v-.107a3.7 3.7 0 0 0 .354-.337h3.219c.236 0 .426-.19.426-.426 0-1.281-.098-2.44-.29-3.48l-.55-2.034a8.63 8.63 0 0 0-.466-1.028s-.916-1.41-1.78-2.04c-.87-.634-2.518-1.08-2.518-1.08zm-3.447 2.003c-1.5 1.39-2.289 3.822-2.349 7.233h2.176c-.51-.916-.799-2.115-.799-3.512 0-.246.007-.486.02-.713h.002a.425.425 0 0 1 .424-.4h2.334l.734-1.454h.002a.423.423 0 0 1 .76 0l.734 1.453h2.334c.226 0 .41.178.423.4h.002c.014.228.02.468.02.714 0 1.397-.288 2.596-.798 3.512h2.176c-.02-1.102-.116-2.1-.287-2.995a.433.433 0 0 1-.02-.097c-.213-1.073-.537-1.992-.969-2.756v-.002a5.65 5.65 0 0 0-1.09-1.398 4.346 4.346 0 0 0-2.131-1.09c-.004-.002-.008-.001-.012-.002l-.008-.002c-.418-.078-.697-.06-.718-.059h-.028c-.015 0-.029.002-.044 0-.065-.005-1.523-.098-2.888 1.168zm-.115 3.46a11.1 11.1 0 0 0-.004.26c0 1.366.333 2.738 1.046 3.625l.016.022c.105.147.68.96 1.98.96 1.3 0 1.875-.813 1.979-.96a.23.23 0 0 1 .016-.022c.713-.887 1.047-2.26 1.047-3.624 0-.088-.002-.175-.004-.261h-2.186a.426.426 0 0 1-.38-.234l-.472-.935-.472.935a.426.426 0 0 1-.38.234h-2.186zm3.038 7.3c1.27 0 1.502-.723 1.538-1.537a.424.424 0 0 1-.25-.294 3.342 3.342 0 0 1-1.288.251c-.462 0-.894-.088-1.289-.251a.424.424 0 0 1-.25.294c.038.816.27 1.536 1.539 1.536zm-21.117-7.04c0 1.366.333 2.738 1.047 3.625l.002.003.013.015c.112.134.806.964 1.98.964 1.173 0 1.867-.83 1.98-.964l.016-.018c.713-.887 1.046-2.26 1.046-3.624 0-.088-.002-.175-.004-.261H27.15a.426.426 0 0 1-.38-.234l-.473-.935-.472.935a.426.426 0 0 1-.38.234h-2.186a11.19 11.19 0 0 0-.004.26zm3.042 7.04c1.271 0 1.502-.723 1.538-1.537a.425.425 0 0 1-.25-.294 3.343 3.343 0 0 1-1.288.251c-.462 0-.893-.087-1.288-.251a.425.425 0 0 1-.25.294c.037.816.27 1.536 1.538 1.536zm-2.129-2.23v-.108a3.688 3.688 0 0 1-.354-.336h-.63l.146.734.838-.29zm7.4-1.297c-.06-3.425-.855-5.862-2.365-7.249-1.274-1.17-2.072-1.16-2.773-1.153l-.168.001c-.743 0-2.034.376-2.888 1.168-.585.542-1.06 1.245-1.428 2.102a.426.426 0 0 1-.028.067c-.556 1.328-.857 3.018-.893 5.064h2.176c-.51-.917-.799-2.115-.799-3.512 0-.246.007-.486.02-.714h.003a.425.425 0 0 1 .423-.4h2.334l.735-1.453a.426.426 0 0 1 .76 0l.735 1.453h2.334c.226 0 .41.177.424.4h.001c.014.228.021.468.021.714 0 1.397-.288 2.595-.799 3.512h2.176zm-9.608 2.062l.557-.193-.201-1.016H21.17v1.482c.239-.111.5-.205.79-.273zm2.24-16.006a.422.422 0 0 1-.007-.045c-.006-.061-.1-.897-.736-1.787l-2.271 6.52.537 2.714a6.36 6.36 0 0 1 1.092-1.335 5.209 5.209 0 0 1 2.33-1.252l-.945-4.815zm-5.329-.987a.426.426 0 0 1-.4.024l-2.806-1.278-.882 1.726v21.369h4.12l.307-1.27-.117-.103a.426.426 0 0 1-.134-.408c.015-.073.295-1.33 1.36-2.244v-2.137a.423.423 0 0 1-.149-.322c0-.915.051-1.768.149-2.56v-7.153c0-.01.02-.132.024-.14l2.463-7.073c-.541-.485-1.291-.925-2.332-1.195l-1.276-.438-.123 2.857a.426.426 0 0 1-.204.345zM17.786 52.85a.398.398 0 0 1 .014-.047s3.87-11.137 3.877-11.15l-.096-.772-1.65-1.462-.276 1.14v.001l-2.92 12.063a.535.535 0 0 0 .815.564.535.535 0 0 0 .236-.337zm4.278-8.057l-.152-1.231-.741 2.134v.814c.411-.865.746-1.464.893-1.717zm-9.755-31.159l2.046 4.006 2.047-4.006v-.882c-.614.426-1.31.668-2.047.668-.737 0-1.432-.242-2.046-.668v.882zm5.94 3.56l.107-2.48-1.317-.453-.987 1.932 2.197 1zM14.355.852c-1.412 0-2.439.317-3.051.942-.585.598-.577 1.274-.577 1.302V5.29c.608-.187.916-.812.916-1.868a.426.426 0 0 1 .853 0c0 .334.724.82 1.86.82 1.135 0 1.859-.486 1.859-.82a.426.426 0 0 1 .853 0c0 1.056.308 1.68.915 1.868V3.11c.001-.041.009-.717-.576-1.315-.612-.625-1.64-.942-3.052-.942zm-3.628 5.312v1.23c0 2.853 1.628 5.173 3.628 5.173s3.628-2.32 3.628-5.172v-1.23c-.822-.14-1.384-.694-1.628-1.594-.489.324-1.191.522-2 .522-.809 0-1.51-.198-1.999-.522-.245.9-.807 1.454-1.629 1.593zm1.931 10.029l-.986-1.932-1.318.454.108 2.478 2.197-1zM1.864 42.72c.307.04.591-.071.857-.23.318-.192.442-.773.448-.804v-.001l.269-1.241H.992l-.13.977c-.04.307.043.611.232.857.189.245.462.402.769.442zm-.849-3.129h2.698l.798-1.467H.907l.107 1.467zm-.048-2.32h3.911l2.649-13.388-2.268-6.51c-.65.91-.739 1.762-.74 1.777a.433.433 0 0 1-.006.045L.966 37.27zm7.272-21.827c-1.04.27-1.788.713-2.33 1.201l2.461 7.067a2.2 2.2 0 0 1 .024.14v16.197h5.536V18.68l-.882-1.726-2.807 1.278a.426.426 0 0 1-.603-.37l-.124-2.856-1.275.438zM6.95 74.147h5.53l-.001-2.103H8.898c-.577 0-1.015.167-1.34.511-.437.463-.57 1.157-.608 1.592zm7.83-30.457h.002l1.429 27.502h4.108V58.783h-1.606a.426.426 0 0 1-.426-.426c0-3.83 1.034-7.365 2.032-9.885v-.32l-1.706 4.911c-.085.351-.3.65-.605.845a1.382 1.382 0 0 1-1.05.183 1.38 1.38 0 0 1-.87-.612 1.381 1.381 0 0 1-.182-1.048l2.79-11.53H8.393v30.29H12.5l1.428-27.5a.426.426 0 0 1 .85 0zm1.453 30.457h4.524a3.46 3.46 0 0 1 .687-1.177c-.326-.62-.86-.926-1.63-.926h-3.581v2.103zm5.888-1.713c.182-.098.382-.176.603-.223-.309-1.784-1.41-8.476-1.471-13.428h-.081v12.723c.389.208.707.52.949.928zm2.818-13.65h-2.834c.062 4.983 1.196 11.773 1.475 13.376h1.363l-.004-13.377zm-1.715 14.229c-.862.001-1.323.65-1.547 1.134h3.266v-1.134h-1.72zm4.43 1.134h3.265c-.224-.484-.685-1.133-1.547-1.134h-1.719v1.134zm0-1.987h1.362c.28-1.603 1.413-8.393 1.475-13.377h-2.834l-.003 13.377zm-8.51-14.23h14.308c-.13-6.111-2.99-11.52-3.608-12.618H22.75c-.617 1.098-3.478 6.507-3.608 12.618zm10.664-14.237h-7.02l.095.766h6.83l.095-.766zm.38-3.075a.426.426 0 0 1 .14-.267l2.41-2.136c-.18-.535-.765-1.835-2.316-2.188-.015-.003-1.752-.605-1.752-.605-.09.858-.498 2.096-2.372 2.096-1.875 0-2.283-1.24-2.372-2.096 0 0-1.736.602-1.752.606a3.01 3.01 0 0 0-1.18.549l-.004.004h-.002l-.002.003-.002.001-.003.003c-.685.534-1 1.26-1.122 1.627l2.41 2.136a.427.427 0 0 1 .14.267l.274 2.223h7.23l.274-2.223zm5.263 12.64a.535.535 0 0 0 .408-.642L32.663 39.42l-1.65 1.462-.095.773c.006.013 3.876 11.15 3.876 11.15a.41.41 0 0 1 .014.046.535.535 0 0 0 .642.408zm.323-4.614l.635 2.624s3.337-9.6 3.343-9.614l-.095-.772-1.65-1.463-2.233 9.225zm4.475-12.617c-1.55.353-2.137 1.652-2.316 2.188l2.41 2.136a.427.427 0 0 1 .14.267l.275 2.222h7.23l.274-2.223a.426.426 0 0 1 .14-.266l2.41-2.136c-.179-.535-.764-1.835-2.315-2.188-.016-.003-1.752-.605-1.752-.605-.09.857-.498 2.096-2.372 2.096-1.876 0-2.283-1.24-2.372-2.096 0 0-1.737.602-1.752.605zm8.84 4.855l-.096.773c.006.013 3.877 11.15 3.877 11.15.005.015.01.03.013.046a.54.54 0 0 0 1.05-.234L50.738 39.42l-1.65 1.462zm2.57 11.696h.23l-3.131-9.015-.152 1.23c.388.67 2.07 3.714 3.054 7.785zm-3.871-8.119l.095-.766h-7.02l.094.766h6.831zm-4.774 14.324H40.18c.062 4.984 1.196 11.774 1.475 13.377h1.362l-.003-13.377zm-1.715 14.23c-.862.001-1.323.65-1.547 1.134h3.266v-1.134h-1.72zm-.472-27.701c-.618 1.098-3.479 6.507-3.608 12.618h14.308c-.13-6.111-2.99-11.52-3.609-12.618h-7.091zM47.09 72.16c.279-1.603 1.413-8.393 1.474-13.377h-2.833l-.004 13.377h1.363zm-1.363.853v1.134h3.266c-.224-.484-.685-1.133-1.547-1.134h-1.719z" fill="#1C1B1A"/><path fill-rule="evenodd" clip-rule="evenodd" d="M21.912 43.563l.152 1.23c-.147.254-.482.853-.893 1.718v-.814l.74-2.135zm29.976 9.015h-.23c-.983-4.071-2.665-7.116-3.053-7.784l.152-1.231 3.13 9.015z" fill="#1C1B1A"/><path d="M14.355 11.224c.902 0 1.531-.366 1.531-.89a.426.426 0 0 0-.84-.103c-.083.051-.32.14-.69.14-.372 0-.608-.089-.691-.14a.427.427 0 0 0-.84.102c0 .524.629.89 1.53.89zM12.82 8.14a.435.435 0 0 0 .124-.302.431.431 0 0 0-.124-.3.44.44 0 0 0-.604 0 .428.428 0 0 0 0 .602.428.428 0 0 0 .604 0zm3.37.125a.427.427 0 0 0 .303-.729.444.444 0 0 0-.604.002.43.43 0 0 0-.124.3c0 .113.046.224.124.302.08.08.19.125.302.125z" fill="#1C1B1A"/></svg>