<svg width="81" height="75" fill="none" xmlns="http://www.w3.org/2000/svg"><path d="M29.707 8.558h.9c.432 0 .783-.312.783-.695V7.33h-2.466v.533c0 .383.351.695.783.695zm.149-.915a.44.44 0 0 1 .602 0 .421.421 0 0 1 0 .602.423.423 0 0 1-.602 0 .424.424 0 0 1 0-.602z" fill="#D8D5D4"/><path d="M29.016 3.283c.497-.498.968-.243 1.346-.04.42.228.995.539 2.156.54 1.162-.001 1.738-.312 2.158-.54.378-.203.847-.458 1.345.04.465.464.498 2.141.432 3.194h.087c.236 0 .427.191.427.427v.804c.285-.604.51-1.79.141-4.098-.227-1.418-.441-2.757-4.59-2.757-4.148 0-4.362 1.34-4.589 2.757-.37 2.307-.144 3.494.142 4.097v-.803c0-.236.19-.427.426-.427h.087c-.065-1.053-.032-2.73.432-3.194z" fill="#754C24"/><path d="M32.519 12.568c1.63 0 2.854-.58 3.476-3.292a1.706 1.706 0 0 1-.664.135h-.9c-.902 0-1.636-.695-1.636-1.548V7.33h-.552v.533c0 .853-.734 1.548-1.636 1.548h-.9c-.236 0-.46-.05-.664-.135.622 2.712 1.846 3.292 3.476 3.292zm-1.105-2.197c.2 0 .369.138.415.325.082.05.319.14.69.14.371 0 .608-.09.69-.14a.427.427 0 0 1 .841.101c0 .525-.63.891-1.53.891-.902 0-1.532-.366-1.532-.89 0-.236.19-.427.426-.427z" fill="#C69C6D"/><path d="M29.583 13.934c-.007-.014-.01-.03-.016-.043l-.817.393-.146 2.882 2.137-.973-1.158-2.26zm5.871-.001l-1.15 2.24 2.12.85-.145-2.744-.81-.39c-.005.015-.008.03-.015.044z" fill="#A6D9FF"/><path d="M33.648 7.863c0 .383.35.695.782.695h.9c.432 0 .784-.312.784-.695V7.33h-2.466v.533zm.93-.22a.44.44 0 0 1 .604 0 .43.43 0 0 1 .125.3.427.427 0 1 1-.728-.3z" fill="#D8D5D4"/><path d="M35.409 3.874a.261.261 0 0 0-.03-.023c-.058.015-.19.086-.297.144-.443.24-1.184.64-2.561.64h-.002c-1.377 0-2.118-.401-2.562-.64-.107-.058-.237-.129-.297-.144a.357.357 0 0 0-.04.035c-.143.206-.268 1.397-.181 2.592h6.162c.087-1.195-.04-2.387-.192-2.604z" fill="#C69C6D"/><path d="M26.473 23.851v12.46l.192.868h5.427v-1.37l-1.783-2.245a.426.426 0 0 1-.091-.295l1.02-14.47-.789-1.537-2.13.97a.425.425 0 0 1-.602-.41l.158-3.119s-1.53.733-1.557.74c-1.041.27-1.791.71-2.333 1.196l2.464 7.072c.002.007.024.13.024.14z" fill="#A6D9FF"/><path d="M13.644 12.074c0-.233.186-.423.418-.427a.42.42 0 0 1 .434.411c.005.08.171 2.015 3.975 2.15v-.85c0-1.64-1.403-2.924-3.193-2.924s-3.192 1.284-3.192 2.924l-.002.016v.617c.628-.323 1.56-.962 1.56-1.917z" fill="#CCC"/><path d="M14.126 13.336c-.433.697-1.16 1.164-1.688 1.431h2.185c.23 0 .418.185.425.414h.456a.426.426 0 0 1 .425-.414h.474c-1.212-.336-1.896-.903-2.277-1.431z" fill="#E0B489"/><path d="M16.356 16.119c0 .36.294.655.656.655h.804a.656.656 0 0 0 .655-.655v-.499h-2.114v.499zm.756-.224a.44.44 0 0 1 .602 0 .426.426 0 1 1-.602 0z" fill="#D8D5D4"/><path d="M14.095 26.857l1.182 3.417 1.183-3.417h-2.365z" fill="#96564A"/><path d="M33.03 38.032h-1.022v.666h1.023v-.666z" fill="#4D4D4D"/><path d="M24.454 27.193l.262 1.187.89-4.497-2.27-6.52c-.638.89-.731 1.727-.737 1.79a.518.518 0 0 1-.006.042l-.835 4.254c2.106 1.263 2.669 3.624 2.696 3.744zm-3.544 7.502c.548.938.956 1.845 1.26 2.688h.122l-1.34-4.687c-.296.719-.46 1.284-.043 2z" fill="#A6D9FF"/><path d="M31.156 38.697v-.665h-4.3l.147.666h4.153z" fill="#999"/><path d="M15.703 41.844h6.488c-.024-.994-.263-3.72-2.017-6.718-.683-1.167-.286-2.108.099-3.017.445-1.054.905-2.144.07-3.977a.426.426 0 0 1 .082-.472l2.208-2.293c-.55-.718-1.38-1.42-2.604-1.707l-1.442-.346-2.884 8.334v10.196z" fill="#C4806E"/><path d="M15.277 9.581c.64 0 1.24.132 1.771.368a1.86 1.86 0 0 0 .094-.574 1.867 1.867 0 0 0-1.865-1.865 1.867 1.867 0 0 0-1.865 1.865c0 .196.035.39.094.574a4.351 4.351 0 0 1 1.771-.368z" fill="#CCC"/><path d="M39.833 39.435c-1.282 0-2.217.689-2.254.71-.84.667-1.346 1.802-1.5 3.375h1.057l.932-1.485a.427.427 0 0 1 .72 0h.002l.932 1.485h3.865c-.102-1.04-.358-1.888-.762-2.537-.022-.026-1.236-1.548-2.992-1.548z" fill="#B79870"/><path d="M38.143 38.263l-.096.435h.712c.137-.03.27-.053.397-.07l-1.013-.365z" fill="#E5CBBD"/><path d="M33.883 38.032v.666h3.29l.147-.666h-3.437z" fill="#999"/><path d="M38.318 50.02v.542c.074.184.708.71 1.511.71h.006c.803 0 1.437-.526 1.51-.71v-.542a3.861 3.861 0 0 1-1.513.312c-.53 0-1.039-.111-1.514-.312zm5.317-5.648h-4.15a.426.426 0 0 1-.36-.2l-.697-1.108-.696 1.109a.426.426 0 0 1-.36.2h-1.343c-.001.076-.003.153-.003.232 0 1.904.858 3.556 2.103 4.357l.002.002c.513.329 1.09.515 1.701.515 1.264 0 2.386-.794 3.078-2.012l.01-.017c.45-.801.718-1.784.718-2.845 0-.079-.002-.156-.003-.233zm-5.561 1.491a.43.43 0 0 1-.426-.426.43.43 0 0 1 .126-.302.44.44 0 0 1 .602 0 .428.428 0 0 1-.302.728zm1.76 2.608h-.007c-.331 0-.649-.052-.895-.147-.507-.195-.583-.514-.584-.686a.427.427 0 1 1 .831-.134c.09.046.32.11.653.114.337 0 .562-.07.652-.118a.426.426 0 0 1 .832.132c0 .577-.744.837-1.482.839zm2.056-2.74a.425.425 0 0 1-.602 0 .421.421 0 0 1 0-.603.44.44 0 0 1 .602 0 .424.424 0 0 1 0 .602z" fill="#D8B4A4"/><path d="M47.965 14.451c-1.029-.929-1.706-2.5-1.706-4.278V8.998c0-.2.142-.38.346-.418.046-.01 3.1-.624 3.1-2.59a.426.426 0 1 1 .852 0c0 1.978 3.067 2.584 3.098 2.59a.426.426 0 0 1 .347.418v1.175c0 1.778-.678 3.35-1.706 4.278v.303c1.435-.075 2.452-.537 3.023-1.38 1.317-1.944-.005-5.317-.018-5.35a.427.427 0 0 1-.03-.158c0-1.312-.396-2.356-1.175-3.104-1.497-1.437-3.925-1.356-3.948-1.355h-.034c-.025 0-2.463-.076-3.954 1.359-.776.748-1.17 1.79-1.17 3.1 0 .054-.01.107-.03.157-.014.034-1.333 3.414-.017 5.353.57.841 1.587 1.303 3.022 1.378v-.303z" fill="#E0BC4B"/><path d="M38.33 37.424l2.127.765 3.618-11.883a3.386 3.386 0 0 1-.334-.7c-.373-1.08-.329-2.644.649-3.53a.426.426 0 1 1 .572.631c-.66.599-.709 1.771-.416 2.62.23.662.634 1.092 1.056 1.122a.427.427 0 0 1 .396.4l.145 2.472a.426.426 0 0 1-.074.265c-.525.77-1.007 1.884-1.431 3.308.06.92 1.708.997 5.067 1.002V20.602c-2.184-.114-3.697-1.109-3.986-2.588l-.34.081a4.438 4.438 0 0 0-2.118 1.17.425.425 0 0 1-.224.236 5.875 5.875 0 0 0-1.25 2.316l-3.458 15.607z" fill="#B7C16F"/><path d="M53.15 9.337c-.7-.186-2.263-.718-3.019-1.892-.756 1.174-2.32 1.706-3.019 1.892v.838c0 2.377 1.355 4.31 3.02 4.31 1.664 0 3.018-1.933 3.018-4.31v-.838zm-4.8 1.441a.427.427 0 0 1-.302-.728.442.442 0 0 1 .604 0c.078.08.124.19.124.302a.435.435 0 0 1-.124.302.437.437 0 0 1-.302.124zm1.781 2.533c-.928 0-1.575-.374-1.575-.91a.426.426 0 0 1 .842-.094c.084.054.334.152.733.152.4 0 .65-.098.734-.152a.426.426 0 0 1 .842.095c0 .535-.648.91-1.576.91zm2.082-2.657a.43.43 0 0 1-.3.124.427.427 0 0 1-.302-.728.44.44 0 0 1 .602 0 .427.427 0 0 1 0 .604z" fill="#E5CBBD"/><path d="M33.452 15.969l1.197-2.333v-.68c-.59.315-1.293.465-2.129.465h-.001c-.836 0-1.54-.15-2.13-.466v.68l1.197 2.334h1.866z" fill="#C69C6D"/><path d="M33.106 18.284l.712-1.387-.187-.076h-2.213l-.191.088.706 1.375h1.173z" fill="#999"/><path d="M39.914 26.322l1.04-4.691c.02-.093.353-1.493 1.447-2.712a4.215 4.215 0 0 0-.698-1.556l-2.271 6.52.482 2.439z" fill="#A6D9FF"/><path d="M32.52 34.976l1.44-1.812-.99-14.027h-.9l-.989 14.027 1.439 1.812z" fill="#999"/><path d="M33.8 18.8l1.02 14.469a.426.426 0 0 1-.091.295l-1.785 2.247v1.369h4.565l1.056-4.766v-8.562c0-.01.02-.132.024-.14l2.463-7.073c-.541-.485-1.291-.925-2.332-1.195-.027-.007-1.565-.744-1.565-.744l.155 2.945a.426.426 0 0 1-.584.419l-2.114-.849L33.8 18.8zm10.845 11.608l-.363-1.855-2.38 7.815.201 1.015h.84c.184-1.79.47-3.352.856-4.662.26-.88.543-1.652.846-2.313zm-1.781 7.828h-.383l.337.602c.014-.203.03-.404.046-.602z" fill="#A6D9FF"/><path d="M23.622 27.38a5.532 5.532 0 0 0-.512-1.277l-1.874 1.945c.571 1.397.482 2.455.224 3.326l3.731 13.04 2.041-.738-3.61-16.296z" fill="#C4806E"/><path d="M36.93 72.254h1.64v-3.71h-1.931l.29 3.71z" fill="#D8B4A4"/><path d="M39.422 74.147h.587c-.038-.425-.167-1.096-.587-1.563v1.563z" fill="#333"/><path d="M43.646 62.713h-7.628v4.98h3.054l.336-3.38a.427.427 0 0 1 .848 0l.336 3.38h3.054v-4.98z" fill="#5576A5"/><path d="M42.735 72.254l.29-3.71h-1.93v3.71h1.64zm3.36-14.872l1.89 4.303.014.04c.033.101.28.191.58.094.298-.097.446-.315.413-.416l-1.78-4.833-1.143.45.026.362z" fill="#D8B4A4"/><path d="M43.129 73.107h-2.034v1.04h3.308c-.049-.225-.148-.5-.35-.707-.218-.224-.52-.333-.924-.333z" fill="#999"/><path d="M35.215 55.128a.426.426 0 0 1 .803.2v6.532h7.629v-6.532a.426.426 0 0 1 .802-.2l.71 1.335 2.652-1.045s-1.572-2.74-1.58-2.761c-.015-.035-.436-.988-2.308-1.224l-1.897-.365c-.364.544-1.256 1.058-2.191 1.058h-.006c-.935 0-1.827-.514-2.19-1.057l-1.898.364c-1.872.236-2.293 1.19-2.31 1.23-.007.016-1.577 2.755-1.577 2.755l2.651 1.045.71-1.335z" fill="#F4A04D"/><path d="M35.783 68.546h-.191a.426.426 0 0 1-.426-.426V57.04l-.086.16a.426.426 0 0 1-.532.196l-.046-.018-.715 1.629.67 12.186h1.534l-.208-2.647z" fill="#4D4D4D"/><path d="M35.607 73.443c-.2.207-.299.48-.347.704h3.308v-1.04h-2.034c-.406 0-.709.11-.927.336z" fill="#999"/><path d="M50.558 71.65v2.497h3.194c-.867-.905-1.207-1.95-1.333-2.498h-1.861z" fill="#998675"/><path d="M50.13 34.75c-1.922 0-3.44 0-4.48-.193-.27-.05-.866-.163-1.313-.522-.414 1.801-.668 4.007-.755 6.578.54.893.907 2.169.907 3.992a6.65 6.65 0 0 1-.774 3.156c.06.938.135 1.88.222 2.807l.106.021c2.204.283 2.856 1.482 2.966 1.723l.153.267h8.95c.243-2.036 1.312-12.004-.19-18.544-.446.36-1.042.472-1.313.522-1.039.192-2.557.192-4.479.192z" fill="#767743"/><path d="M58.476 21.815c-.028-.121-.735-3.048-3.592-3.72l-.34-.081c-.29 1.48-1.803 2.474-3.986 2.588v13.294c3.358-.005 5.006-.081 5.066-1.002-.424-1.423-.905-2.537-1.432-3.307a.427.427 0 0 1-.073-.266l.145-2.471a.426.426 0 0 1 .395-.4c.423-.03.828-.46 1.057-1.123.293-.85.244-2.021-.416-2.62a.427.427 0 0 1 .572-.632c.978.886 1.022 2.451.65 3.53-.09.261-.205.494-.335.7l3.618 11.884 2.128-.765-3.457-15.61z" fill="#B7C16F"/><path d="M50.558 70.796h1.86c1.665-9.156 1.913-15.684 1.95-17.365h-3.81v17.365zM62.12 38.263l-2.065.743.592 1.95c.106.275.218.487.446.63a1.012 1.012 0 0 0 1.525-1.076l-.498-2.247z" fill="#E5CBBD"/><path d="M46.51 74.147h3.194V71.65h-1.862c-.126.549-.465 1.593-1.332 2.498z" fill="#998675"/><path d="M48.842 62.63a1.68 1.68 0 0 1-.52.084c-.522 0-.97-.263-1.125-.703l-.873-1.988c.283 2.87.75 6.533 1.52 10.774h1.86v-8.84c-.166.297-.468.545-.862.673z" fill="#E5CBBD"/><path d="M30.665 61.419c-.027.086.121.303.42.4.298.097.546.007.58-.094a.377.377 0 0 1 .014-.04l2.029-4.62-1.256-.495-1.787 4.849z" fill="#D8B4A4"/><path d="M48.796 55.421a.427.427 0 0 1-.214.61l-.576.226 1.698 4.612V53.43h-2.052l1.144 1.99z" fill="#E5CBBD"/><path d="M36.057 72.045H34.48v1.726a2.22 2.22 0 0 1 .516-.92c.287-.296.65-.483 1.082-.558l-.02-.248z" fill="#333"/><path d="M14.851 31.648l-2.885-8.334-1.44.345c-1.225.288-2.054.99-2.604 1.708l2.207 2.293a.426.426 0 0 1 .081.472c-.835 1.833-.374 2.923.071 3.977.385.91.782 1.85.1 3.017-1.761 3.009-1.997 5.726-2.02 6.718h6.49V31.648z" fill="#C4806E"/><path d="M7.446 26.102a5.532 5.532 0 0 0-.514 1.28L3.325 43.669l2.056.69L9.096 31.38c-.259-.872-.35-1.931.223-3.331l-1.873-1.945z" fill="#C4806E"/><path d="M10.969 74.147h3.881v-1.494h-2.202c-.16.009-1.299.119-1.68 1.494z" fill="#998675"/><path d="M12.991 71.8h1.86V59.01h-3.49c.262 3.241.75 7.93 1.63 12.792zm2.712 0h1.86c.88-4.862 1.368-9.55 1.63-12.791h-3.49V71.8z" fill="#E0B489"/><path d="M15.703 72.653v1.494h3.881c-.38-1.376-1.521-1.485-1.679-1.494h-2.202z" fill="#998675"/><path d="M15.277 20.308c1.397 0 2.587-1.156 3.019-2.761a1.5 1.5 0 0 1-.48.08h-.805a1.51 1.51 0 0 1-1.508-1.508v-.085h-.453v.085a1.51 1.51 0 0 1-1.507 1.507h-.805c-.168 0-.33-.029-.48-.08.432 1.606 1.622 2.762 3.02 2.762zm-1.15-2.527c.203 0 .373.142.416.331.084.055.335.152.734.152.4 0 .65-.097.734-.152a.427.427 0 0 1 .842.095c0 .536-.648.91-1.576.91s-1.576-.374-1.576-.91c0-.235.191-.426.426-.426z" fill="#E0B489"/><path d="M12.739 16.774h.804a.656.656 0 0 0 .655-.655v-.499h-2.114v.499c0 .36.294.655.655.655zm.1-.879a.443.443 0 0 1 .604 0 .427.427 0 1 1-.604 0z" fill="#D8D5D4"/><path d="M16.755 26.005l1-2.89-.838-.201a.426.426 0 0 1-.327-.415v-1.606a3.37 3.37 0 0 1-1.312.268c-.46 0-.901-.095-1.313-.268v1.606a.426.426 0 0 1-.327.415l-.838.2 1 2.89h2.955zM3.068 44.821a2.097 2.097 0 0 1 1.124 1.856.426.426 0 1 1-.853 0c0-.392-.183-.742-.467-.97l-.081.366c-.06.265-.013.536.131.764a1.005 1.005 0 0 0 1.393.314 1.003 1.003 0 0 0 .452-.655l.378-1.317-2.007-.674-.07.316z" fill="#E0B489"/><path d="M25.64 72.556c-.438.463-.57 1.157-.609 1.592h5.53v-2.103h-3.582c-.577 0-1.015.167-1.34.511z" fill="#333"/><path d="M26.238 47.151a1.012 1.012 0 0 0 1.525-1.076l-.345-1.56-1.992.721.36 1.26c.003.008.224.511.452.655z" fill="#E0B489"/><path d="M29.86 61.14l1.498-4.07.05-.911-.327-.129a.427.427 0 0 1-.213-.609l.643-1.12.583-10.613a.426.426 0 0 1 .849 0l.428 7.762c.453-.36 1.161-.723 2.248-.862l1.846-.355v-.699c-1.37-.998-2.292-2.834-2.292-4.93 0-2.723.817-4.229 1.81-5.054H27.19l1.404 6.338a1.865 1.865 0 0 1-2.121 2.245V71.19h4.11l.466-8.506a1.769 1.769 0 0 1-.227-.056c-.734-.237-1.157-.892-.963-1.49z" fill="#4D4D4D"/><path d="M22.487 38.36l.048-.124h-.084l.036.124z" fill="#A6D9FF"/><path d="M8.32 42.697c-.103 1.203-.273 5.614 1.364 15.459H20.87c1.642-9.88 1.47-14.263 1.364-15.459H8.32z" fill="#96564A"/><path d="M50.13 19.76c1.983 0 3.365-.77 3.581-1.946l-1.94-.466a.426.426 0 0 1-.328-.414V15.03c-.41.198-.852.306-1.312.306-.461 0-.903-.108-1.313-.306v1.903a.426.426 0 0 1-.327.415l-1.941.465c.216 1.177 1.598 1.946 3.58 1.946z" fill="#E5CBBD"/><path d="M15.277 19.117c.928 0 1.576-.374 1.576-.91a.426.426 0 0 0-.842-.094c-.084.054-.334.151-.734.151-.4 0-.65-.097-.734-.151a.427.427 0 0 0-.842.095c0 .535.648.909 1.576.909zm-2.136-2.494a.435.435 0 0 0 .302-.124.43.43 0 0 0 0-.604.443.443 0 0 0-.604 0 .435.435 0 0 0-.124.302c0 .111.046.222.124.302.08.078.19.125.302.125zm4.273 0a.428.428 0 0 0 .427-.426.427.427 0 0 0-.126-.302.44.44 0 0 0-.602 0 .428.428 0 0 0 .302.728zm23.475 30.583h-.001a.426.426 0 0 0-.405.294c-.09.048-.315.117-.652.118-.333-.005-.562-.068-.652-.115a.426.426 0 0 0-.831.135c0 .172.076.49.583.686.246.095.564.147.895.147h.007c.738-.002 1.483-.262 1.482-.84a.426.426 0 0 0-.426-.425zm-2.388-1.77a.427.427 0 0 0-.124-.301.44.44 0 0 0-.602 0 .429.429 0 0 0-.127.301.43.43 0 0 0 .427.427.427.427 0 0 0 .426-.426zm2.787-.308a.425.425 0 1 0 .727.302.425.425 0 0 0-.125-.302.44.44 0 0 0-.602 0zm9.992-33.153a.426.426 0 0 0-.416.331c-.084.055-.334.152-.733.152-.4 0-.65-.098-.734-.152a.427.427 0 0 0-.842.095c0 .535.648.91 1.575.91.928 0 1.576-.375 1.576-.91a.426.426 0 0 0-.426-.426zm-2.504-1.624a.435.435 0 0 0-.124-.301.443.443 0 0 0-.604 0 .428.428 0 0 0 .302.728.436.436 0 0 0 .302-.125.434.434 0 0 0 .124-.302zm2.834-.301a.427.427 0 0 0 .303.728.428.428 0 0 0 .3-.728.44.44 0 0 0-.602 0z" fill="#1C1B1A"/><path d="M59.307 21.628c-.033-.145-.845-3.567-4.227-4.362l-2.784-.668v-.989c1.74-.081 2.994-.67 3.73-1.756 1.462-2.158.31-5.5.097-6.067-.017-1.515-.5-2.738-1.436-3.637-1.706-1.639-4.304-1.6-4.557-1.593-.262-.007-2.854-.042-4.556 1.593-.937.899-1.42 2.122-1.436 3.638-.212.566-1.365 3.908.098 6.066.735 1.086 1.99 1.675 3.729 1.756v.989l-2.783.668a5.285 5.285 0 0 0-2.078.993c-.35-1.07-1.344-2.892-4.129-3.63l-3.473-1.67V12.3c.674-.714 1.13-1.787 1.416-3.27.577-.317 1.687-1.467 1.033-5.555C37.657 1.645 37.02 0 32.52 0h-.002c-4.502 0-5.138 1.644-5.431 3.475-.655 4.088.456 5.238 1.032 5.556.286 1.482.742 2.555 1.417 3.269v.659l-3.474 1.67c-3.831 1.015-4.274 4.085-4.311 4.421l-.787 4.011a5.494 5.494 0 0 0-.738-.23l-2.785-.669V20.39c1.13-.879 1.881-2.421 1.881-4.176l-.002-2.875c-.005-1.212-.594-2.271-1.522-2.954a2.72 2.72 0 0 0-2.522-3.728 2.72 2.72 0 0 0-2.522 3.728c-.928.682-1.515 1.74-1.522 2.95l-.003 2.88c0 1.753.752 3.296 1.88 4.175v1.772l-2.782.668c-3.383.795-4.195 4.218-4.228 4.365L2.247 44.588c-.05-.004-.1-.008-.15-.008C.94 44.58 0 45.52 0 46.677v27.897a.426.426 0 1 0 .853 0V46.677c0-.674.538-1.223 1.207-1.242l-.1.452a1.85 1.85 0 0 0 .242 1.405 1.85 1.85 0 0 0 1.578.869c.348 0 .69-.098.991-.289a1.85 1.85 0 0 0 .82-1.152L9.604 32.7c.295.717.458 1.281.04 1.995-2.218 3.79-2.154 7.102-2.134 7.554-.075.518-.572 4.743 1.393 16.404a.426.426 0 0 0 .42.355h1.183c.26 3.247.75 7.965 1.632 12.868-.815.216-1.9.928-2.108 2.646a.427.427 0 0 0 .423.478H20.1a.426.426 0 0 0 .424-.478c-.21-1.717-1.293-2.43-2.109-2.646.884-4.903 1.372-9.62 1.633-12.868h1.183c.208 0 .385-.15.42-.355 1.964-11.666 1.468-15.89 1.392-16.405.01-.236.031-1.238-.258-2.677l.088-.157 2.09 7.306c.096.415.327.776.657 1.037v23.75a2.42 2.42 0 0 0-.602.463c-.936.992-.856 2.562-.853 2.628.013.226.2.402.426.402h6.395a.427.427 0 0 0 .426-.427V71.63l.497-9.033c.26-.118.464-.318.558-.586l.56-1.276.599 10.895v2.944c0 .236.19.427.426.427h20.902a.426.426 0 0 0 .223-.79c-1.568-.961-1.92-2.654-1.973-2.98 1.725-9.378 1.978-16.092 2.015-17.8h1.27a.427.427 0 0 0 .422-.37c.071-.527 1.71-13.015-.449-20.34-.433-1.47-.932-2.643-1.485-3.492l.118-2.002a1.72 1.72 0 0 0 .418-.205l4.304 14.138c.112.478.402.886.819 1.148a1.85 1.85 0 0 0 1.405.242 1.865 1.865 0 0 0 1.407-2.225l-4.14-18.695zm-9.176-7.143c-1.665 0-3.02-1.934-3.02-4.311v-.838c.7-.186 2.264-.718 3.02-1.891.756 1.173 2.32 1.705 3.019 1.891v.838c0 2.377-1.354 4.31-3.02 4.31zm-5.188-1.109c-1.316-1.938.004-5.318.017-5.352.02-.05.03-.104.03-.158 0-1.309.394-2.352 1.17-3.1 1.491-1.434 3.93-1.358 3.954-1.358h.034c.024-.001 2.452-.082 3.949 1.355.779.748 1.174 1.792 1.174 3.103 0 .055.01.108.03.159.014.033 1.336 3.406.019 5.35-.572.842-1.588 1.305-3.024 1.38v-.303c1.03-.929 1.707-2.5 1.707-4.278V8.999c0-.2-.143-.38-.347-.419-.031-.006-3.099-.612-3.099-2.59a.426.426 0 1 0-.852 0c0 1.966-3.054 2.582-3.099 2.59a.426.426 0 0 0-.346.42v1.174c0 1.778.677 3.349 1.705 4.278v.303c-1.434-.075-2.45-.537-3.022-1.379zm3.548 3.973a.426.426 0 0 0 .327-.415v-1.903c.41.198.852.306 1.313.306.46 0 .902-.108 1.312-.306v1.903c0 .197.136.368.327.414l1.941.466c-.216 1.176-1.598 1.946-3.58 1.946s-3.365-.77-3.581-1.946l1.941-.465zm-5.23 1.916a4.44 4.44 0 0 1 2.119-1.17l.338-.081c.29 1.48 1.803 2.474 3.986 2.588v13.294c-3.358-.005-5.006-.082-5.066-1.002.424-1.424.906-2.537 1.431-3.307a.427.427 0 0 0 .074-.266l-.145-2.471a.426.426 0 0 0-.396-.4c-.422-.03-.827-.46-1.055-1.123-.294-.849-.245-2.022.415-2.62a.426.426 0 0 0-.572-.631c-.978.886-1.022 2.45-.65 3.53.09.26.205.493.335.7l-3.618 11.883-2.128-.765 3.457-15.607c.005-.02.297-1.25 1.251-2.316a.425.425 0 0 0 .224-.236zM42.92 47.45l-.01.016c-.692 1.219-1.813 2.013-3.077 2.013a3.126 3.126 0 0 1-1.703-.517c-1.246-.802-2.103-2.453-2.103-4.357 0-.079.002-.156.003-.233h1.342a.426.426 0 0 0 .361-.2l.696-1.109.697 1.11a.428.428 0 0 0 .36.199h4.15l.002.233c0 1.061-.267 2.043-.718 2.845zm.148 2.95l-.869-.167v-.698c.265-.193.514-.417.742-.668.038.513.08 1.024.127 1.534zm-1.721-.38v.542c-.074.184-.708.71-1.511.71h-.006c-.803 0-1.437-.526-1.51-.71v-.542c.474.2.983.312 1.513.312.53 0 1.039-.111 1.514-.313zm-1.625-6.5l-.932-1.485a.427.427 0 0 0-.72 0l-.934 1.484h-1.058c.154-1.573.662-2.707 1.501-3.375.037-.02.973-.71 2.254-.71 1.757 0 2.97 1.523 2.992 1.549.404.649.66 1.496.763 2.536H39.72zm-2.548-4.822h-3.29v-.665h3.438l-.148.665zm.874 0l.096-.435 1.013.364c-.128.018-.26.04-.397.07h-.712zm3.126.067l.22-.725.588 1.046a4.283 4.283 0 0 0-.808-.321zm1.308-.53h.383c-.016.199-.031.399-.045.602l-.338-.601zm-.378-.852l-.2-1.015 2.379-7.815.364 1.855a17.295 17.295 0 0 0-.847 2.313c-.386 1.31-.672 2.871-.857 4.662h-.839zm2.76-10.294c.098.055.198.104.303.138l.117 2.002-.42-2.14zm-5.445 1.476v-.361l.038.19-.038.17zm2.984-9.646c-1.094 1.22-1.427 2.619-1.448 2.712l-1.04 4.69-.482-2.438 2.271-6.52a4.22 4.22 0 0 1 .699 1.556zm-5.517-.825a.426.426 0 0 0 .426-.448l-.155-2.946s1.538.737 1.564.744c1.041.27 1.791.71 2.333 1.195l-2.464 7.073a2.08 2.08 0 0 0-.024.14v8.562L37.51 37.18h-4.565v-1.369l1.784-2.247a.426.426 0 0 0 .092-.295L33.8 18.8l.812-1.584 2.114.849c.05.02.105.03.158.03zm-5.467-1.273h2.213l.187.075-.712 1.388h-1.174l-.706-1.375.192-.088zm-1.029-3.186v-.68c.59.315 1.294.466 2.129.466h.002c.836 0 1.54-.15 2.129-.466v.68l-1.197 2.334h-1.866l-1.197-2.334zm1.68 5.502h.9l.99 14.027-1.44 1.812-1.439-1.812.99-14.027zm.962 18.896v.665h-1.023v-.665h1.023zm3.249-23.754l.144 2.745-2.118-.85 1.149-2.24c.007-.014.01-.03.016-.044l.809.39zm-.166-6.416c0 .383-.35.695-.783.695h-.9c-.432 0-.783-.312-.783-.695V7.33h2.466v.533zm-6.676-1.386c-.087-1.195.038-2.385.181-2.591a.389.389 0 0 1 .04-.036c.06.016.19.086.297.144.444.24 1.185.64 2.562.64h.002c1.377 0 2.119-.4 2.562-.64.107-.058.238-.129.297-.144a.235.235 0 0 1 .03.024c.152.217.278 1.408.191 2.604h-6.162zm-.94 0a.426.426 0 0 0-.427.427v.804c-.285-.604-.51-1.79-.141-4.098.227-1.418.441-2.757 4.589-2.757 4.148 0 4.363 1.34 4.59 2.757.37 2.307.143 3.494-.142 4.098v-.804a.426.426 0 0 0-.426-.427h-.087c.065-1.053.032-2.73-.432-3.194-.498-.498-.968-.243-1.346-.039-.42.227-.995.538-2.157.538-1.161 0-1.737-.311-2.157-.538-.378-.204-.848-.459-1.345.04-.465.463-.497 2.14-.432 3.193h-.088zm.426.853h2.466v.533c0 .383-.351.695-.783.695h-.9c-.432 0-.783-.312-.783-.695V7.33zm.12 1.946c.202.086.427.135.663.135h.9c.902 0 1.636-.695 1.636-1.548V7.33h.552v.533c0 .853.734 1.548 1.636 1.548h.9c.237 0 .46-.05.664-.135-.622 2.712-1.846 3.292-3.476 3.292s-2.853-.58-3.476-3.292zm-.293 5.007l.817-.393c.005.014.009.03.016.043l1.159 2.26-2.138.973.146-2.883zm-2.433 1.161c.027-.007 1.558-.74 1.558-.74l-.158 3.119a.426.426 0 0 0 .602.41l2.13-.97.788 1.536-1.02 14.47a.426.426 0 0 0 .091.295l1.783 2.245v1.371h-5.426l-.193-.868v-12.46c0-.01-.021-.133-.024-.14l-2.463-7.073c.541-.484 1.291-.925 2.332-1.195zm4.837 22.589v.665h-4.153l-.147-.665h4.3zm-8.563-18.838a.479.479 0 0 0 .006-.043c.006-.062.1-.899.737-1.789l2.271 6.52-.89 4.497-.263-1.187c-.027-.12-.59-2.48-2.695-3.744l.834-4.254zm3.029 9.009v4.258l-.445-2.009.445-2.25zM20.03 23.66c1.224.288 2.052.99 2.603 1.708l-2.208 2.292a.427.427 0 0 0-.081.473c.834 1.833.374 2.923-.071 3.976-.385.91-.782 1.85-.1 3.017 1.755 2.999 1.994 5.724 2.018 6.719h-6.488V31.649l2.884-8.335 1.442.346zm.921 9.036l1.34 4.687h-.12a16.239 16.239 0 0 0-1.262-2.688c-.418-.715-.253-1.28.042-1.999zm-5.674-2.422l-1.183-3.417h2.365l-1.182 3.417zm3.194-14.155a.656.656 0 0 1-.656.654h-.804a.656.656 0 0 1-.655-.654v-.499h2.114v.499zm-2.541-1.352a.426.426 0 0 0-.425.414h-.456a.426.426 0 0 0-.425-.414h-2.185c.528-.267 1.255-.733 1.688-1.43.38.528 1.065 1.095 2.278 1.43h-.475zm-.653-7.258c1.028 0 1.865.837 1.865 1.865 0 .197-.034.39-.094.574a4.353 4.353 0 0 0-1.77-.368c-.64 0-1.24.132-1.772.369a1.866 1.866 0 0 1-.094-.575c0-1.028.837-1.865 1.865-1.865zm-3.194 5.865l.002-.017c0-1.64 1.402-2.924 3.192-2.924 1.79 0 3.192 1.285 3.192 2.924l.002.014v.836c-3.804-.135-3.97-2.07-3.976-2.149a.42.42 0 0 0-.433-.411.426.426 0 0 0-.419.426c0 .955-.932 1.595-1.56 1.918v-.617zm0 2.246h2.114v.499a.656.656 0 0 1-.654.654h-.805a.656.656 0 0 1-.655-.654v-.499zm.175 1.926c.15.051.312.08.48.08h.805a1.51 1.51 0 0 0 1.507-1.508v-.084h.453v.085a1.51 1.51 0 0 0 1.508 1.507h.805a1.5 1.5 0 0 0 .48-.08c-.432 1.606-1.622 2.762-3.019 2.762s-2.587-1.156-3.02-2.762zm1.38 5.367a.426.426 0 0 0 .326-.414v-1.607c.412.174.854.27 1.313.27.46 0 .9-.096 1.313-.27V22.5c0 .197.135.368.326.414l.839.201-1 2.89h-2.956l-1-2.89.838-.2zm-8.87 23.583a1.004 1.004 0 0 1-.452.655 1.002 1.002 0 0 1-.762.132 1.004 1.004 0 0 1-.631-.446 1.005 1.005 0 0 1-.131-.764l.081-.366c.284.228.467.578.467.97a.426.426 0 1 0 .853 0c0-.805-.457-1.505-1.124-1.856l.07-.316 2.006.674-.377 1.317zM9.095 31.38L5.38 44.359l-2.055-.691 3.607-16.286c.012-.052.146-.607.513-1.28l1.873 1.945c-.572 1.4-.481 2.46-.223 3.332zm1.285 3.747c.682-1.167.285-2.107-.1-3.017-.445-1.054-.905-2.143-.07-3.976a.426.426 0 0 0-.081-.473L7.92 25.368c.55-.718 1.38-1.42 2.605-1.708l1.44-.346 2.884 8.335v10.196H8.361c.023-.992.258-3.71 2.019-6.719zm4.47 39.021h-3.88c.38-1.375 1.518-1.485 1.678-1.494h2.203v1.494zm0-2.346h-1.86c-.879-4.863-1.367-9.55-1.629-12.792h3.49V71.8zm4.734 2.346h-3.88v-1.494h2.201c.158.009 1.299.117 1.68 1.494zm-2.021-2.346h-1.86V59.009h3.49c-.262 3.241-.75 7.929-1.63 12.792zm3.307-13.645H9.684C8.047 48.31 8.217 43.9 8.32 42.697h13.915c.105 1.196.277 5.579-1.365 15.459zm1.617-19.796l-.035-.124h.084l-.049.124zm-1.027-6.987c.257-.87.346-1.928-.224-3.326l1.873-1.945c.366.672.5 1.226.512 1.277l3.61 16.297-2.04.738-3.731-13.04zm3.965 13.863l1.992-.72.346 1.559a1.012 1.012 0 0 1-1.526 1.076c-.228-.144-.449-.647-.451-.655l-.36-1.26zm5.135 28.911h-5.53c.04-.434.171-1.128.609-1.591.324-.344.762-.511 1.34-.511h3.58v2.102zm.023-2.955h-4.11V48.134c.1.016.2.027.3.027a1.865 1.865 0 0 0 1.821-2.272l-1.403-6.338h9.792c-.992.825-1.81 2.331-1.81 5.054 0 2.096.922 3.932 2.293 4.93v.699l-1.846.355c-1.087.14-1.796.502-2.249.863l-.427-7.763a.425.425 0 0 0-.85 0l-.583 10.613-.643 1.12a.426.426 0 0 0 .214.609l.327.129-.05.91-1.5 4.07c-.193.598.23 1.252.963 1.49.076.025.152.043.228.057l-.467 8.505zm1.99-18.738l-.118.203.064-1.164.053.961zm-.894 9.23a.432.432 0 0 0-.015.04c-.033.102-.28.191-.58.095-.298-.097-.446-.315-.419-.4l1.786-4.849 1.256.495-2.028 4.62zm.174-6.266l1.578-2.755c.017-.04.438-.994 2.31-1.23l1.897-.365c.364.544 1.256 1.058 2.191 1.058h.005c.935 0 1.828-.514 2.191-1.058l1.898.365c1.872.236 2.293 1.19 2.308 1.223.008.021 1.58 2.762 1.58 2.762l-2.652 1.045-.71-1.335a.427.427 0 0 0-.803.2v6.532h-7.628v-6.532a.426.426 0 0 0-.803-.2l-.71 1.335-2.652-1.045zm17.14 5.985c.032.101-.116.32-.414.416-.3.097-.546.007-.58-.094a.377.377 0 0 0-.015-.04l-1.888-4.303c-.01-.123-.018-.244-.026-.362l1.142-.45 1.78 4.833zm-15.207-2.397l.715-1.629.046.018c.202.08.43-.005.533-.196l.085-.16v11.08c0 .236.19.426.426.426h.191l.208 2.647h-1.534l-.67-12.186zm.693 14.765v-1.726h1.578l.02.248a1.923 1.923 0 0 0-1.083.558 2.205 2.205 0 0 0-.515.92zm4.09.376H35.26c.049-.224.147-.497.347-.704.219-.226.522-.335.928-.335h2.034v1.04zm0-1.892h-1.64l-.291-3.71h1.93v3.71zm.852 1.892v-1.562c.421.467.55 1.138.587 1.562h-.587zm.821-1.909a2.399 2.399 0 0 0-.82-.727v-2.966h.036c.16 0 .302-.09.374-.223a.426.426 0 0 0 .374.223h.036v3.693zm.014-7.926a.426.426 0 0 0-.848 0l-.336 3.38h-3.054v-4.98h7.628v4.98h-3.054l-.336-3.38zm2.77 4.234l-.29 3.709h-1.64v-3.71h1.93zm-1.93 5.601v-1.04h2.033c.404 0 .706.11.924.333.202.207.302.482.35.707h-3.308zm4.164-.052c-.062-.362-.215-.856-.59-1.244a1.924 1.924 0 0 0-1.083-.558l.294-3.748h.191c.236 0 .427-.19.427-.426V57.04l.085.16a.427.427 0 0 0 .533.197l.046-.018.093.213c.239 3.162.742 7.885 1.801 13.64-.052.316-.38 1.89-1.797 2.864zm4.445.052H46.51c.866-.905 1.206-1.95 1.332-2.498h1.861v2.498zm0-3.35h-1.86a133.517 133.517 0 0 1-1.52-10.774l.872 1.987c.155.441.603.704 1.126.704.168 0 .343-.027.52-.084.393-.128.695-.376.862-.673v8.84zm0-9.928l-1.7-4.611.577-.227a.426.426 0 0 0 .214-.61l-1.143-1.99h2.052v7.438zm4.046 13.278h-3.194V71.65h1.861c.127.549.466 1.593 1.333 2.498zm-1.334-3.35h-1.86V53.43h3.81c-.037 1.681-.285 8.21-1.95 17.366zm3.695-18.219h-8.95l-.152-.266c-.11-.241-.762-1.44-2.966-1.723l-.106-.02a92.473 92.473 0 0 1-.222-2.808 6.65 6.65 0 0 0 .774-3.156c0-1.823-.367-3.1-.907-3.992.087-2.572.34-4.777.755-6.578.447.36 1.042.472 1.314.522 1.039.192 2.557.192 4.479.192 1.922 0 3.44 0 4.479-.192.271-.05.867-.163 1.313-.522 1.502 6.54.433 16.508.19 18.543zm3.693-14.389l-3.618-11.883c.13-.207.244-.44.334-.701.373-1.079.328-2.644-.649-3.53a.427.427 0 0 0-.572.632c.66.598.708 1.77.415 2.62-.229.662-.633 1.092-1.056 1.123a.426.426 0 0 0-.395.4l-.146 2.471a.426.426 0 0 0 .074.266c.526.77 1.007 1.883 1.432 3.307-.06.92-1.709.997-5.067 1.002V20.602c2.183-.114 3.696-1.108 3.986-2.588l.34.081c2.857.672 3.564 3.599 3.592 3.72l3.458 15.608-2.128.766zm2.048 3.53a1.007 1.007 0 0 1-.762-.132c-.228-.144-.339-.356-.445-.632l-.593-1.95 2.066-.742.497 2.247a1.012 1.012 0 0 1-.763 1.208z" fill="#1C1B1A"/><path d="M32.518 11.688c.902 0 1.531-.366 1.531-.89a.426.426 0 0 0-.84-.102c-.083.05-.32.14-.69.14-.372 0-.608-.09-.691-.14a.426.426 0 0 0-.84.102c0 .524.629.89 1.53.89zM30.159 8.37a.425.425 0 0 0 .3-.726.44.44 0 0 0-.602 0 .425.425 0 0 0 .302.726zm4.723 0a.427.427 0 0 0 .427-.426.432.432 0 0 0-.125-.3.44.44 0 0 0-.604 0 .427.427 0 0 0 .302.726z" fill="#1C1B1A"/><path d="M64.164 23.154l-.85-1.618-1.134.38.092 2.076 1.892-.838z" fill="#fff"/><path d="M75.442 43.727h2.442l.11-.73h-3.037l.485.73z" fill="#588AA3"/><path d="M65.156 13.587c.218 0 .396.164.42.376h.42a.423.423 0 0 1 .42-.376h2.255c-.102-1.879-.899-3.737-2.885-3.737-1.986 0-2.782 1.858-2.885 3.737h2.255zm-.251-2.981h1.763a.425.425 0 1 1 0 .85h-1.763a.425.425 0 1 1 0-.85zm-.693 1.378h3.148a.425.425 0 1 1 0 .85h-3.148a.425.425 0 1 1 0-.85z" fill="#E0B489"/><path d="M69.93 13.586c.234 0 .425.19.425.425v.56c.153-.438.196-1.21-.221-2.557-.32-1.034-.967-1.679-1.752-1.815.668.798 1.072 1.961 1.139 3.387h.409z" fill="#CCC"/><path d="M66.84 15.107c0 .472.384.857.856.857h.953a.857.857 0 0 0 .856-.857v-.669H66.84v.67zm1.032-.207a.439.439 0 0 1 .6 0c.08.08.126.188.126.3a.428.428 0 0 1-.425.426.426.426 0 0 1-.3-.726z" fill="#D8D5D4"/><path d="M69.299 23.992l.093-2.076-1.135-.38-.85 1.618 1.892.838zm-.835.56l-.933-.413-.7 1.002.277 1.048c.877-.421 1.226-1.204 1.356-1.637z" fill="#fff"/><path d="M69.454 16.61c-.24.13-.514.204-.805.204h-.953c-.257 0-.501-.06-.72-.163a1.301 1.301 0 0 1-1.19.778c-.53 0-.988-.32-1.19-.778a1.689 1.689 0 0 1-.72.163h-.953c-.292 0-.566-.074-.806-.203.272 1.872 1.702 3.131 3.669 3.131s3.397-1.259 3.668-3.131zm-5.24 1.496a.425.425 0 0 1 .755-.269c.119.035.4.085.817.085.416 0 .698-.05.816-.085a.424.424 0 0 1 .755.269c0 .165 0 .666-1.571.666s-1.571-.501-1.571-.666zm3.181 2.223a4.897 4.897 0 0 1-1.61.264 4.895 4.895 0 0 1-1.61-.264v1.019l.832 1.583h1.556l.832-1.583v-1.02z" fill="#E0B489"/><path d="M62.921 15.963h.953a.857.857 0 0 0 .856-.856v-.67h-2.665v.671c0 .471.385.855.856.855zm.177-1.064a.439.439 0 0 1 .6 0 .425.425 0 1 1-.6.602.427.427 0 0 1-.126-.3c0-.113.046-.223.126-.302z" fill="#D8D5D4"/><path d="M65.528 25.484l-.252.948c.159.024.328.038.51.04.18-.002.35-.016.508-.04l-.252-.948h-.514zm1.198-1.703h-1.88l-.015.007.592.846h.726l.592-.846-.015-.007z" fill="#8C6239"/><path d="M65.58 14.813v.294c0 .321-.09.62-.245.877v.145a.45.45 0 0 0 .9 0v-.144a1.694 1.694 0 0 1-.245-.878v-.294h-.41z" fill="#C69C6D"/><path d="M61.437 12.014c-.417 1.346-.374 2.118-.221 2.557v-.56c0-.234.19-.425.425-.425h.409c.067-1.426.47-2.589 1.139-3.387-.786.136-1.432.78-1.752 1.815z" fill="#CCC"/><path d="M77.871 44.578h-2.128l.229 1.03a.966.966 0 0 0 .47.733 2.096 2.096 0 0 1 1.454-1.58l-.025-.183zm-.577 1.864c.198-.062.372-.18.5-.345a.942.942 0 0 0 .187-.462c-.335.151-.59.447-.687.807z" fill="#C69C6D"/><path d="M74.675 25.787c-.01-.097-.281-2.449-3.335-3.22-.01-.002-1.11-.37-1.11-.37l-.11 2.454a.425.425 0 0 1-.596.37l-.271-.12c-.272.828-.96 1.862-2.309 2.258a4.045 4.045 0 0 1-1.158.164c-.66 0-1.153-.162-1.159-.164-1.35-.396-2.037-1.43-2.308-2.258l-.271.12a.423.423 0 0 1-.396-.027.425.425 0 0 1-.2-.343l-.11-2.454s-1.1.368-1.11.37c-3.078.777-3.333 3.196-3.335 3.22-.002.016-4.01 16.867-4.01 16.867 2.04.85 3.1.991 3.146 1.19l1.708-5.051 1.821-8.957a.425.425 0 0 1 .838.143c-.012.084-1.097 8.126-.145 13.749h11.062c.953-5.626-.133-13.665-.145-13.75a.425.425 0 0 1 .838-.142l2.503 12.311h3.458s-3.295-16.344-3.296-16.36z" fill="#588AA3"/><path d="M70.75 72.397h-3.202v1.752h4.921c-.039-.37-.16-.92-.52-1.301-.287-.303-.68-.45-1.2-.45zm-11.13.453c-.357.38-.477.929-.517 1.3h4.92v-1.753h-3.2c-.522 0-.916.149-1.203.454z" fill="#4D4D4D"/><path d="M71.168 44.578H60.403v26.97h4.145l.811-23.744a.425.425 0 0 1 .848 0h.002l.815 23.744h4.144v-26.97z" fill="#736357"/><path d="M63.106 24.552c.13.433.48 1.216 1.357 1.637l.278-1.048-.702-1.002-.933.413z" fill="#fff"/><path d="M67.356 18.106a.425.425 0 0 0-.755-.269c-.118.035-.4.084-.816.084-.416 0-.698-.049-.817-.084a.425.425 0 0 0-.754.269c0 .164 0 .665 1.57.665 1.572 0 1.572-.5 1.572-.665zm-3.144-5.272h3.148a.425.425 0 1 0 0-.85h-3.148a.425.425 0 1 0 0 .85zm.692-1.378h1.763a.425.425 0 0 0 0-.85h-1.763a.425.425 0 1 0 0 .85zM63.4 15.625a.427.427 0 0 0 .425-.425.426.426 0 0 0-.126-.3.439.439 0 0 0-.6 0 .425.425 0 0 0 .301.725zm4.773 0a.43.43 0 0 0 .425-.425.428.428 0 0 0-.126-.3.439.439 0 0 0-.6 0 .426.426 0 0 0 .301.725z" fill="#1C1B1A"/><path d="M56.082 44.269l-3.122-1.105-.243 1.275c-.192.036-.157.218 0 .255-.017.301.028.742.242.935.353 1.19 1.628 1.53 2.443.595l.68-1.955z" fill="#C69C6D"/><path fill-rule="evenodd" clip-rule="evenodd" d="M78.745 44.692l-.07-.512.239-1.612c0-.027-3.396-16.884-3.396-16.884-.037-.318-.454-3.045-3.954-3.936l-3.32-1.113v-.707c1.297-.79 2.11-2.227 2.11-3.975v-.095a1.65 1.65 0 0 0 .615-.6c.465-.766.457-1.942-.023-3.495-.549-1.77-1.984-2.717-3.531-2.362A3.364 3.364 0 0 0 65.785 9c-.605 0-1.151.14-1.63.4-1.547-.354-2.983.592-3.53 2.363-.481 1.553-.489 2.729-.024 3.495.19.314.424.496.614.6v.095c0 1.748.814 3.184 2.11 3.975v.707l-3.318 1.113c-3.5.89-3.918 3.618-3.955 3.936l-3.81 17.45s-.058.293-.097.71c-.06.644-.077 1.582.232 2.188.313.612.615 1.036 1.275 1.297.636.252 1.211.286 1.75-.042.63-.383.885-1.063.885-1.063l2.635-9.483c-.063 2.45.122 5.174.56 7.495v.004l.071.357v27.246c-.205.111-.39.252-.553.425-.84.891-.767 2.274-.764 2.332.014.225.2.4.425.4h5.787c.235 0 .425-.19.425-.425v-2.177h.085c.23 0 .417-.181.425-.41l.402-11.75.403 11.75c.008.229.195.41.424.41h.086v2.177c0 .235.19.425.425.425h5.787c.225 0 .41-.175.424-.4.004-.058.075-1.441-.764-2.332a2.189 2.189 0 0 0-.553-.425V44.597c.025-.118.049-.237.071-.357v-.001l.001-.003c.438-2.32.52-5.045.457-7.495 0 0 1.252 6.047 1.265 6.067l1.005 1.514.323 1.454c.13.905.928 1.565 1.84 1.565a1.854 1.854 0 0 0 1.487-.725 1.78 1.78 0 0 0 .372-1.04c.514.15.89.626.89 1.188v27.81a.425.425 0 1 0 .85 0v-27.81a2.091 2.091 0 0 0-1.833-2.072zm-9.354-22.776l-1.135-.38-.85 1.617 1.892.838.093-2.075zm-3.243 2.718l.593-.846-.016-.007h-1.88l-.015.007.593.846h.725zm-.363 1.84a3.69 3.69 0 0 0 .51-.041l-.252-.949h-.515l-.251.949c.158.024.327.038.508.04zm-.778-3.543h1.556l.832-1.583v-1.02a4.897 4.897 0 0 1-1.61.265 4.896 4.896 0 0 1-1.61-.264v1.019l.832 1.583zm-.545 3.258l.278-1.048-.701-1.002-.933.413c.13.433.479 1.216 1.356 1.637zm4.003-1.637l-.933-.413-.701 1.003.278 1.047c.877-.421 1.226-1.204 1.356-1.637zm1.04-9.444v-.671H66.84v.67c0 .473.384.857.856.857h.953a.857.857 0 0 0 .856-.857zm.85-.536c.153-.439.196-1.211-.221-2.558-.32-1.034-.966-1.678-1.752-1.814.668.798 1.072 1.961 1.14 3.387h.408c.234 0 .425.19.425.425v.56zm-1.685-.985c-.102-1.878-.899-3.737-2.885-3.737-1.985 0-2.782 1.859-2.884 3.737h2.255c.218 0 .395.165.42.376h.419a.424.424 0 0 1 .42-.376h2.255zm-2.434 2.542v-.144a1.691 1.691 0 0 1-.246-.877v-.295h-.41v.294c0 .321-.09.62-.245.877v.145a.45.45 0 0 0 .9 0zm-5.02-2.117c0-.235.19-.425.425-.425h.409c.066-1.426.47-2.59 1.139-3.387-.786.136-1.432.78-1.752 1.814-.417 1.346-.374 2.119-.221 2.558v-.56zm.85.425v.67c0 .472.384.856.856.856h.953a.857.857 0 0 0 .856-.856v-.67h-2.665zm.856 2.377a1.7 1.7 0 0 1-.806-.203c.272 1.872 1.703 3.131 3.669 3.131 1.967 0 3.397-1.259 3.669-3.131-.24.129-.514.203-.806.203h-.952a1.69 1.69 0 0 1-.721-.163 1.301 1.301 0 0 1-1.19.778c-.53 0-.988-.32-1.19-.778a1.689 1.689 0 0 1-.72.163h-.953zm1.242 6.34l-.85-1.619-1.134.38.093 2.077 1.891-.839zM59.103 74.15h4.92v-1.752h-3.202c-.521 0-.914.148-1.202.453-.356.379-.477.928-.516 1.299zm7.106-26.346l.814 23.744h4.144v-26.97H60.403v26.97h4.145l.811-23.744a.425.425 0 0 1 .848 0h.002zm1.339 26.346h4.921c-.039-.37-.16-.921-.52-1.302-.287-.303-.68-.45-1.2-.45h-3.201v1.752zm8.43-28.506c.04.299.219.548.465.697a2.097 2.097 0 0 1 1.454-1.58l-.025-.183h-2.128l.228 1.03a.4.4 0 0 1 .007.036zm1.316.798a1 1 0 0 0 .499-.344.941.941 0 0 0 .187-.463 1.24 1.24 0 0 0-.686.807zm-1.852-2.714h2.443l.11-.73h-3.038l.485.73zm-20.005 2.156l.377-1.618-2.757-.87s-.077.302-.127.703c-.06.487-.08 1.12.127 1.53.223.44.305.65.68.85.382.204.744.321 1.105.085.198-.13.465-.245.56-.532.02-.056.023-.1.035-.148zm19.076-3.737l-2.504-12.31a.425.425 0 0 0-.838.143c.012.083 1.098 8.123.146 13.748H60.254c-.952-5.623.134-13.665.145-13.75a.425.425 0 0 0-.838-.142L56.483 41.63l-.196.75-.314 1.205-2.767-.931c.07-.345.171-.691.276-1.19.04-.19.07-.473.114-.68 1.063-4.994 3.3-14.985 3.3-14.996.002-.025.257-2.444 3.335-3.22l1.11-.371.11 2.454a.425.425 0 0 0 .596.37l.271-.12c.272.828.959 1.863 2.308 2.258.014.005.505.165 1.159.165.65 0 1.138-.158 1.159-.165 1.35-.395 2.037-1.43 2.308-2.258l.27.12a.424.424 0 0 0 .597-.37l.11-2.454 1.11.371c3.054.77 3.325 3.122 3.335 3.22.001.015 3.296 16.36 3.296 16.36h-3.457z" fill="#1C1B1A"/><path d="M53.596 40.784c-.044.207-.074.49-.114.68l2.805.917.196-.75-2.887-.847z" fill="#1C1B1A"/></svg>