<svg width="52" height="75" fill="none" xmlns="http://www.w3.org/2000/svg"><path d="M1.126 39.529h2.603l.734-1.347H1.027l.099 1.347z" fill="#898785"/><path d="M14.392 12.549c1.965 0 3.563-2.29 3.563-5.106v-1.18c-.782-.156-1.336-.7-1.596-1.55-.494.306-1.183.49-1.967.49-.785 0-1.473-.184-1.967-.49-.26.85-.815 1.39-1.597 1.546v1.184c0 2.815 1.599 5.106 3.564 5.106zm1.49-5.007a.5.5 0 0 1 .685 0 .487.487 0 0 1 .143.343.487.487 0 0 1-.485.484.482.482 0 0 1-.484-.484c0-.128.05-.252.142-.343zm-2.13 2.694c.092.049.314.119.64.119s.548-.07.639-.12a.485.485 0 0 1 .948.14c0 .559-.653.949-1.587.949-.935 0-1.588-.39-1.588-.948a.484.484 0 0 1 .949-.14zm-1.677-2.351c0-.128.05-.252.142-.343a.5.5 0 0 1 .684 0 .485.485 0 0 1-.684.685.485.485 0 0 1-.142-.342z" fill="#D8B4A4"/><path d="M4.627 19.187a.576.576 0 0 1-.007.048L1.094 37.214h3.785L7.51 23.909l-2.224-6.386c-.568.84-.654 1.605-.66 1.664z" fill="#898785"/><path d="M.978 41.423c-.038.29.04.579.22.812.178.232.437.381.728.419.292.038.58-.04.813-.219a1.091 1.091 0 0 0 .426-.769l.252-1.168H1.1l-.122.925z" fill="#D8B4A4"/><path d="M12.617 16.2l-.935-1.829-1.225.422.102 2.344 2.058-.937z" fill="#898785"/><path d="M8.477 23.74a.495.495 0 0 1 .017.1c0 .012.003.022.003.034v16.113h5.41V18.724l-.849-1.661-2.751 1.253a.485.485 0 0 1-.685-.42l-.12-2.774-1.168.402a.446.446 0 0 1-.036.011c-1.01.262-1.743.687-2.275 1.155l2.447 7.024.007.026z" fill="#898785"/><path d="M19.841 72.05h-3.517v1.981h5.399c-.044-.426-.18-1.06-.59-1.493-.312-.328-.735-.488-1.292-.488z" fill="#736357"/><path d="M20.484 15.535a.47.47 0 0 1-.037-.01l-1.167-.403-.12 2.774a.485.485 0 0 1-.685.42l-2.752-1.253-.848 1.66v21.263h5.41V23.873l.003-.033a.496.496 0 0 1 .018-.1l.006-.027 2.447-7.023c-.533-.468-1.265-.893-2.275-1.155z" fill="#898785"/><path d="M20.287 40.955H8.498v30.126h3.987l1.424-27.403a.482.482 0 0 1 .964 0h.004L16.3 71.08h3.987V40.955z" fill="#5576A5"/><path d="M7.65 72.538c-.41.432-.545 1.066-.59 1.493h5.399V72.05H8.942c-.557 0-.98.16-1.292.488z" fill="#736357"/><path d="M24.162 19.235a.499.499 0 0 1-.007-.05c-.006-.058-.091-.823-.66-1.662l-2.224 6.386 2.632 13.305h3.785l-3.526-17.979z" fill="#898785"/><path d="M41.798 8.568a.484.484 0 0 1 .393.476v1.173c0 1.78-.675 3.354-1.703 4.295v2.072l2.735.657c.45.105.855.259 1.22.443 2.526-2.615-1.01-9.475-1.047-9.546a.484.484 0 0 1-.055-.225c0-1.292-.388-2.32-1.154-3.056-1.083-1.04-2.66-1.273-3.435-1.324V6.04c0 1.927 3.015 2.522 3.046 2.528z" fill="#CC7050"/><path d="M38.267 15.431a3.04 3.04 0 0 1-1.252-.274v1.81a.484.484 0 0 1-.371.47l-1.882.452c.243 1.115 1.588 1.84 3.505 1.84 1.917 0 3.262-.725 3.506-1.84l-1.882-.451a.484.484 0 0 1-.371-.471v-1.81a3.05 3.05 0 0 1-1.253.274z" fill="#FCEBE6"/><path d="M33.314 17.24l2.733-.655v-2.072c-1.028-.941-1.704-2.516-1.704-4.296V9.044c0-.228.162-.432.394-.476.039-.007 3.046-.612 3.046-2.528V3.534c-.777.052-2.361.29-3.439 1.327-.763.735-1.15 1.762-1.15 3.052a.487.487 0 0 1-.055.225c-.037.07-3.573 6.932-1.046 9.547.365-.185.77-.339 1.221-.445z" fill="#CC7050"/><path d="M14.392 13.518a3.599 3.599 0 0 1-1.985-.615v.757l1.985 3.884 1.984-3.884v-.756c-.6.392-1.273.614-1.984.614z" fill="#D8B4A4"/><path d="M11.625 3.475a.484.484 0 1 1 .97 0c0 .302.716.76 1.797.76 1.08 0 1.798-.458 1.798-.76a.484.484 0 0 1 .97 0c-.001.975.267 1.57.796 1.78V3.163c0-.042.006-.695-.561-1.274-.6-.611-1.61-.921-3.003-.921-1.392 0-2.403.31-3.003.921-.567.579-.561 1.232-.56 1.26v2.104c.528-.21.796-.804.796-1.78z" fill="#C69C6D"/><path d="M35.313 10.217c0 2.341 1.325 4.246 2.955 4.246 1.63 0 2.955-1.905 2.955-4.246v-.791c-.71-.195-2.188-.715-2.955-1.828-.767 1.113-2.246 1.633-2.956 1.828v.791zm4.391-.166a.5.5 0 0 1 .684 0 .485.485 0 0 1-.684.686.486.486 0 0 1 0-.686zm-2.118 2.258c.094.052.33.13.682.13.352 0 .588-.078.681-.13a.484.484 0 0 1 .951.132c0 .57-.671.967-1.632.967-.96 0-1.632-.398-1.632-.967a.484.484 0 0 1 .95-.132zm-1.439-2.258a.503.503 0 0 1 .686 0 .494.494 0 0 1 .141.343.494.494 0 0 1-.141.343.494.494 0 0 1-.343.142.485.485 0 0 1-.343-.827z" fill="#FCEBE6"/><path d="M16.166 16.2l2.058.937.102-2.344-1.226-.422-.934 1.829z" fill="#898785"/><path d="M47.142 24.561l-2.45 1.114a3.451 3.451 0 0 1-.313.657l4.436 14.57a.944.944 0 0 0 .428.628c.215.137.47.18.717.124a.943.943 0 0 0 .593-.419.944.944 0 0 0 .124-.716l-3.535-15.957z" fill="#FCEBE6"/><path d="M27.756 38.182H24.32l.733 1.347h2.604l.099-1.347z" fill="#898785"/><path d="M27.682 40.498h-2.317l.253 1.168a1.091 1.091 0 0 0 .426.769c.233.179.521.257.812.219a1.09 1.09 0 0 0 .729-.42c.179-.232.257-.52.219-.811l-.122-.925z" fill="#D8B4A4"/><path d="M34.79 74.032h2.995v-2.377h-1.753a5.515 5.515 0 0 1-1.243 2.377z" fill="#998675"/><path d="M29.394 24.561l-1.697 7.663.925 4.713 3.533-10.612a3.469 3.469 0 0 1-.31-.65l-2.45-1.114zm6.641 46.125h1.749V53.465h-3.685c.04 1.762.3 8.215 1.936 17.22zm2.717 0h1.75c1.637-9.019 1.895-15.466 1.935-17.221h-3.685v17.22z" fill="#FCEBE6"/><path d="M44.04 22.056c.691.627.93 1.56.883 2.45l2.005-.911-.386-1.743c-.028-.119-.727-3.007-3.543-3.669l-.286-.069c-.343 1.567-2.038 2.584-4.446 2.584-2.407 0-4.108-1.015-4.45-2.582l-.28.067c-2.817.662-3.516 3.55-3.544 3.673l-.386 1.739 2.005.91c-.047-.89.192-1.822.884-2.449a.484.484 0 1 1 .65.718c-.64.58-.685 1.724-.399 2.553.22.639.605 1.053 1.003 1.082a.484.484 0 0 1 .45.454l.144 2.468a.483.483 0 0 1-.083.301c-3.209 4.698-3.54 19.944-3.573 22.864h15.16c-.035-2.92-.366-18.167-3.574-22.864a.484.484 0 0 1-.084-.301l.146-2.468a.484.484 0 0 1 .449-.454c.398-.029.782-.443 1.003-1.082.286-.83.241-1.973-.4-2.553a.484.484 0 1 1 .652-.718z" fill="#BADFE8"/><path d="M38.752 71.655v2.377h2.996a5.518 5.518 0 0 1-1.243-2.377h-1.753z" fill="#998675"/><path d="M36.636 12.44c0 .569.67.966 1.632.966.96 0 1.632-.397 1.632-.966a.484.484 0 0 0-.95-.133c-.094.053-.33.13-.683.13-.352 0-.588-.077-.68-.13a.485.485 0 0 0-.951.133zm-.146-1.561a.494.494 0 0 0 .343-.142.494.494 0 0 0 .142-.343.494.494 0 0 0-.142-.343.503.503 0 0 0-.686 0 .485.485 0 0 0 .343.828zm3.557 0a.485.485 0 0 0 .341-.827.5.5 0 0 0-.684 0 .485.485 0 0 0 .343.827zm-27.242-.503c0 .558.652.948 1.587.948.935 0 1.587-.39 1.587-.948a.484.484 0 0 0-.948-.14c-.09.05-.313.12-.639.12s-.548-.071-.64-.12a.484.484 0 0 0-.947.14zm.095-2.148a.485.485 0 0 0 0-.686.5.5 0 0 0-.684 0 .485.485 0 0 0 .684.686zm3.326.142a.49.49 0 0 0 .484-.485.487.487 0 0 0-.143-.343.5.5 0 0 0-.684 0 .485.485 0 0 0 .343.828z" fill="#1C1B1A"/><path d="M47.487 21.64c-.025-.11-.503-2.12-2.218-3.436 2.611-3.02-.483-9.465-.96-10.41-.024-1.511-.512-2.734-1.45-3.636-1.714-1.645-4.318-1.614-4.59-1.606-.272-.008-2.877-.04-4.591 1.606-.939.902-1.427 2.124-1.45 3.636-.478.945-3.573 7.392-.961 10.411-1.715 1.316-2.193 3.325-2.219 3.438l-1.817 8.205-2.114-10.778c-.04-.358-.499-3.454-4.37-4.468l-3.402-1.172v-1.385c.966-1.115 1.579-2.764 1.579-4.602v-4.26c.001-.043.03-1.068-.817-1.949C17.32.415 16.07 0 14.392 0s-2.929.415-3.716 1.234c-.848.881-.818 1.906-.817 1.93v4.279c0 1.838.613 3.487 1.58 4.602v1.385l-3.403 1.172c-3.871 1.014-4.33 4.11-4.37 4.468L.031 37.605a.477.477 0 0 0-.008.128L.19 40l-.171 1.298a2.05 2.05 0 0 0 .412 1.528 2.053 2.053 0 0 0 1.642.806c.454 0 .892-.148 1.257-.43.432-.332.711-.81.787-1.35l.36-1.668 1.227-2.255a.49.49 0 0 0 .05-.137l1.775-8.974v42.604c-.215.12-.411.27-.585.454-.952 1.009-.871 2.6-.867 2.667A.484.484 0 0 0 6.56 75h6.385a.484.484 0 0 0 .484-.484v-2.939l.964-18.544.963 18.544v2.939c0 .267.217.484.484.484h6.385c.257 0 .469-.2.484-.457.004-.067.084-1.658-.868-2.667a2.424 2.424 0 0 0-.585-.454V28.818l1.775 8.974a.48.48 0 0 0 .05.137l1.227 2.255.36 1.668c.076.54.355 1.018.787 1.35a2.052 2.052 0 0 0 1.528.413 2.054 2.054 0 0 0 1.372-.79c.337-.437.483-.98.412-1.528l-.163-1.236 4.309-12.945c.11.068.224.128.343.17l.114 1.94c-3.611 5.58-3.653 23.009-3.653 23.754 0 .268.217.485.484.485h2.93c.04 1.783.305 8.441 2.01 17.714-.055.337-.398 1.977-1.94 2.924a.485.485 0 0 0 .252.897h9.633a.484.484 0 0 0 .252-.897c-1.53-.939-1.883-2.587-1.94-2.926 1.702-9.26 1.968-15.919 2.01-17.712h2.929a.484.484 0 0 0 .484-.485c0-.745-.041-18.175-3.652-23.754l.114-1.94c.113-.04.22-.096.326-.16l4.275 14.042c.116.492.415.911.843 1.182a1.906 1.906 0 0 0 1.447.249 1.91 1.91 0 0 0 1.2-.847 1.91 1.91 0 0 0 .25-1.445l-4.136-18.666zM38.752 3.534c.775.05 2.353.284 3.435 1.324.766.735 1.154 1.764 1.154 3.056 0 .078.02.155.055.224.037.071 3.573 6.932 1.047 9.547a5.44 5.44 0 0 0-1.22-.444l-2.734-.656v-2.072c1.028-.94 1.703-2.515 1.703-4.295V9.044a.484.484 0 0 0-.394-.476c-.03-.006-3.046-.602-3.046-2.528V3.533zm1.14 13.904l1.882.452c-.244 1.115-1.59 1.84-3.506 1.84-1.917 0-3.262-.725-3.505-1.84l1.882-.452a.485.485 0 0 0 .371-.47v-1.81c.394.177.814.274 1.252.274.438 0 .859-.097 1.252-.274v1.81c0 .223.154.418.372.47zm-1.624-9.84c.767 1.113 2.246 1.634 2.956 1.828v.792c0 2.34-1.326 4.245-2.956 4.245s-2.955-1.904-2.955-4.245v-.792c.71-.194 2.188-.715 2.955-1.828zm-5.128.54a.487.487 0 0 0 .055-.224c0-1.29.387-2.317 1.15-3.052 1.077-1.038 2.661-1.275 3.439-1.327V6.04c0 1.916-3.008 2.52-3.047 2.528a.484.484 0 0 0-.393.476v1.173c0 1.78.675 3.354 1.703 4.296v2.071l-2.733.656c-.45.106-.855.26-1.22.444-2.527-2.615 1.009-9.476 1.046-9.547zm-14.814 6.656l-.102 2.344-2.058-.938.934-1.828 1.226.422zm-3.934 2.75l-1.985-3.884v-.756c.6.393 1.273.614 1.985.614a3.6 3.6 0 0 0 1.984-.614v.756l-1.985 3.884zM10.828 3.15c0-.028-.006-.681.56-1.26.6-.611 1.611-.921 3.004-.921 1.392 0 2.402.31 3.002.921.568.579.562 1.232.561 1.274v2.09c-.529-.21-.796-.804-.796-1.78a.484.484 0 1 0-.97 0c0 .303-.717.76-1.797.76-1.081 0-1.798-.457-1.798-.76a.484.484 0 1 0-.97 0c0 .976-.268 1.57-.796 1.78V3.15zm0 4.293V6.26c.782-.156 1.337-.696 1.597-1.546.494.306 1.182.49 1.967.49.784 0 1.473-.184 1.966-.49.26.851.814 1.394 1.597 1.55v1.18c0 2.816-1.598 5.106-3.563 5.106s-3.564-2.29-3.564-5.106zm.855 6.928l.934 1.828-2.058.938-.102-2.344 1.226-.422zM3.165 41.666a1.091 1.091 0 0 1-.426.769c-.233.18-.521.257-.813.22a1.091 1.091 0 0 1-.729-.42 1.091 1.091 0 0 1-.219-.811l.122-.926h2.317l-.252 1.168zm.564-2.136H1.126l-.099-1.348h3.436l-.734 1.347zm1.15-2.317H1.096L4.62 19.235a.51.51 0 0 0 .007-.048c.006-.06.092-.825.66-1.664l2.224 6.385L4.88 37.213zm1.145-20.522c.532-.469 1.264-.893 2.274-1.155a.472.472 0 0 0 .037-.011l1.167-.403.12 2.774a.484.484 0 0 0 .685.42l2.751-1.253.85 1.66v21.264H8.496V23.872l-.003-.032-.004-.045a.46.46 0 0 0-.014-.056l-.006-.026-2.446-7.023zm6.436 57.34h-5.4c.044-.427.18-1.061.59-1.493.312-.329.734-.489 1.292-.489h3.517v1.982zm2.416-30.353h-.004a.483.483 0 0 0-.964 0L12.484 71.08H8.497V40.955h11.789v30.126h-3.987l-1.423-27.403zm6.846 30.353h-5.399V72.05h3.517c.558 0 .98.16 1.292.49.41.43.546 1.065.59 1.492zm-1.409-50.317l-.006.027a.472.472 0 0 0-.014.056l-.004.044c0 .01-.003.021-.003.033v16.113h-5.41V18.724l.849-1.661 2.751 1.253a.485.485 0 0 0 .685-.42l.12-2.774 1.167.402a.47.47 0 0 0 .037.011c1.01.262 1.742.687 2.274 1.155l-2.446 7.024zm3.59 13.5l-2.632-13.306 2.225-6.385c.567.839.653 1.603.659 1.662a.51.51 0 0 0 .007.05l3.526 17.979h-3.785zm1.15 2.316l-.733-1.348h3.436l-.099 1.347h-2.604zm2.533 2.705a1.09 1.09 0 0 1-.73.42 1.09 1.09 0 0 1-.811-.22 1.091 1.091 0 0 1-.427-.769l-.252-1.168h2.317l.122.925c.038.29-.04.58-.22.812zm1.035-5.298l-.924-4.713 1.697-7.662 2.45 1.113c.085.24.191.455.31.65l-3.533 10.612zm9.163 37.094h-2.996a5.52 5.52 0 0 0 1.243-2.376h1.753v2.376zm0-3.345h-1.75C34.4 61.68 34.14 55.227 34.099 53.465h3.685v17.22zm3.964 3.345h-2.996v-2.376h1.753c.132.545.46 1.513 1.243 2.376zm-1.246-3.345h-1.75V53.465h3.686c-.04 1.755-.299 8.202-1.936 17.22zm2.887-47.912c.64.58.686 1.724.4 2.553-.22.639-.605 1.053-1.004 1.082a.485.485 0 0 0-.449.455l-.145 2.467a.484.484 0 0 0 .084.302c3.207 4.696 3.539 19.943 3.573 22.863h-15.16c.034-2.92.365-18.166 3.573-22.864a.483.483 0 0 0 .084-.301l-.145-2.467a.485.485 0 0 0-.449-.455c-.398-.029-.783-.443-1.003-1.082-.287-.83-.241-1.972.399-2.553a.484.484 0 1 0-.65-.717c-.692.626-.931 1.559-.885 2.448l-2.004-.91.385-1.739c.029-.123.728-3.01 3.546-3.673l.278-.067c.343 1.567 2.044 2.582 4.451 2.582 2.407 0 4.103-1.017 4.446-2.584l.286.07c2.816.661 3.515 3.55 3.542 3.668l.386 1.743-2.004.91c.047-.89-.192-1.822-.883-2.448a.484.484 0 0 0-.652.717zm7.164 18.461a.945.945 0 0 1-.593.42.944.944 0 0 1-.717-.124.944.944 0 0 1-.428-.628L44.38 26.332c.12-.196.227-.415.313-.657l2.45-1.114 3.535 15.958a.944.944 0 0 1-.123.716z" fill="#1C1B1A"/></svg>