<svg width="30" height="75" fill="none" xmlns="http://www.w3.org/2000/svg"><path d="M15.133 38.615h7.12c-.026-1.09-.289-4.082-2.214-7.373-.75-1.28-.313-2.312.109-3.31.488-1.157.994-2.352.078-4.364a.468.468 0 0 1 .089-.519l2.422-2.516c-.604-.787-1.513-1.558-2.856-1.873l-1.583-.38-3.165 9.146v11.19z" fill="#C4806E"/><path d="M13.404 7.33c-.476.765-1.273 1.277-1.853 1.57h2.398c.254 0 .46.203.467.455h.5a.467.467 0 0 1 .466-.454h.512c-1.326-.37-2.073-.992-2.49-1.57z" fill="#E0B489"/><path d="M1.268 41.882A2.301 2.301 0 0 1 2.5 43.918a.468.468 0 1 1-.936 0c0-.43-.2-.814-.512-1.064l-.09.402a1.106 1.106 0 0 0 .837 1.328c.289.064.584.011.836-.145.386-.239.494-.71.496-.719l.415-1.445-2.202-.74-.077.347z" fill="#C69C6D"/><path d="M16.286 21.232l1.098-3.171-.92-.22a.468.468 0 0 1-.36-.456v-1.763c-.451.19-.935.295-1.44.295a3.7 3.7 0 0 1-1.44-.295v1.763a.468.468 0 0 1-.359.455l-.92.22 1.098 3.172h3.243zm-1.62-6.25c1.533 0 2.839-1.27 3.313-3.031a1.647 1.647 0 0 1-.527.087h-.883a1.656 1.656 0 0 1-1.655-1.654v-.093h-.497v.093c0 .912-.742 1.654-1.654 1.654h-.883a1.65 1.65 0 0 1-.528-.087c.475 1.761 1.78 3.03 3.314 3.03zm-1.261-2.774c.222 0 .409.155.456.364.092.06.366.166.805.166.439 0 .713-.107.805-.166a.468.468 0 0 1 .924.104c0 .587-.71.998-1.729.998-1.018 0-1.729-.41-1.729-.998 0-.259.21-.468.468-.468z" fill="#E0B489"/><path d="M13.367 22.168l1.298 3.75 1.298-3.75h-2.596z" fill="#96564A"/><path d="M6.07 21.34a6.068 6.068 0 0 0-.563 1.404L1.55 40.617l2.257.759L7.888 27.15c-.288-.96-.394-2.129.238-3.677L6.07 21.34z" fill="#C4806E"/><path d="M12.872 5.944a.468.468 0 0 1 .935-.017c.006.088.188 2.211 4.363 2.359l-.002-.933c0-1.8-1.538-3.209-3.503-3.209-1.964 0-3.503 1.41-3.503 3.209l-.002.695c.69-.354 1.712-1.057 1.712-2.104z" fill="#CCC"/><path d="M11.879 11.102h.883a.72.72 0 0 0 .718-.719v-.547h-2.32v.547a.72.72 0 0 0 .719.72zm.111-.963a.483.483 0 0 1 .66 0 .465.465 0 0 1 0 .66.466.466 0 1 1-.66-.66z" fill="#D8D5D4"/><path d="M14.665 3.209c.701 0 1.36.144 1.943.403.066-.202.104-.414.104-.63A2.05 2.05 0 0 0 14.665.936a2.05 2.05 0 0 0-2.047 2.046c0 .216.038.428.104.63a4.779 4.779 0 0 1 1.943-.403z" fill="#CCC"/><path d="M15.85 10.383a.72.72 0 0 0 .719.72h.882a.72.72 0 0 0 .72-.72v-.547H15.85v.547zm.829-.244a.485.485 0 0 1 .662 0 .477.477 0 0 1 .137.33.48.48 0 0 1-.137.332.476.476 0 0 1-.331.137.477.477 0 0 1-.332-.137.48.48 0 0 1-.136-.331c0-.124.05-.244.136-.332z" fill="#D8D5D4"/><path d="M14.198 27.426l-3.166-9.146-1.58.379c-1.344.316-2.254 1.087-2.858 1.875l2.422 2.515a.468.468 0 0 1 .09.519c-.917 2.012-.411 3.207.077 4.364.422.998.858 2.03.109 3.31-1.932 3.302-2.19 6.285-2.215 7.373h7.121V27.426zm10.394-1.21v-.002l-.769-3.473a6.06 6.06 0 0 0-.562-1.401l-2.056 2.134c.63 1.542.527 2.706.241 3.665l1.968 6.865a.46.46 0 0 1 .029.102l.136.477a.45.45 0 0 1 .02.066l1.945 6.787 2.24-.81-3.192-14.41z" fill="#C4806E"/><path d="M26.694 44.44a1.11 1.11 0 0 0 1.673-1.181l-.379-1.712-2.186.79.403 1.41a1.1 1.1 0 0 0 .489.692zm-4.154-9.785l.038.136.058-.102-.01-.033h-.087z" fill="#C69C6D"/><path d="M9.938 74.064h4.259v-1.64H11.78c-.175.01-1.425.131-1.842 1.64z" fill="#998675"/><path d="M12.157 71.49h2.04V57.45h-3.829c.287 3.558.823 8.702 1.789 14.038z" fill="#E0B489"/><path d="M7.031 39.552c-.113 1.32-.3 6.16 1.497 16.964h12.275c1.803-10.843 1.613-15.652 1.498-16.964H7.03z" fill="#96564A"/><path d="M15.133 72.426v1.64h4.259c-.418-1.511-1.67-1.63-1.843-1.64h-2.416z" fill="#998675"/><path d="M15.133 71.49h2.04c.966-5.337 1.502-10.481 1.79-14.039h-3.83V71.49z" fill="#E0B489"/><path fill-rule="evenodd" clip-rule="evenodd" d="M20.907 18.003a6.015 6.015 0 0 0-.81-.253l-3.056-.734v-1.945c1.24-.964 2.065-2.657 2.065-4.582l-.002-3.155c-.007-1.33-.652-2.493-1.671-3.242A2.986 2.986 0 0 0 14.665 0a2.986 2.986 0 0 0-2.767 4.092C10.88 4.84 10.235 6 10.227 7.329l-.002 3.16c0 1.925.824 3.618 2.063 4.582v1.945l-3.053.733c-3.713.873-4.604 4.629-4.64 4.79L.366 41.626l-.206.93-.11.496a2.03 2.03 0 0 0 .266 1.541 2.031 2.031 0 0 0 1.732.954 2.03 2.03 0 0 0 1.087-.317 2.03 2.03 0 0 0 .9-1.264l4.41-15.368c.32.778.493 1.394.037 2.172-2.433 4.159-2.363 7.79-2.34 8.289-.084.567-.628 5.203 1.527 18.002.038.225.233.39.462.39h1.297c.286 3.563.822 8.74 1.792 14.122-.895.236-2.084 1.018-2.314 2.903a.469.469 0 0 0 .465.524h10.587a.468.468 0 0 0 .464-.524c-.229-1.885-1.418-2.667-2.314-2.903.97-5.382 1.506-10.559 1.792-14.122h1.3a.468.468 0 0 0 .461-.39c2.157-12.805 1.61-17.44 1.527-18.003.012-.26.035-1.36-.283-2.937l.094-.168 2.297 8.013c.105.455.359.852.721 1.138l.936.413c.109.018.219.03.33.03a2.046 2.046 0 0 0 1.999-2.493l-1.541-6.956-.208-.936-.161-.73-.208-.935-.21-.953-.937-4.225-.488-2.205-.504-2.274-.288-1.303c-.03-.132-.647-2.723-2.959-4.109l-.87-.425zm1.83 2.53c-.603-.787-1.513-1.557-2.856-1.873l-1.582-.38-3.166 9.146v11.19h7.12c-.026-1.092-.289-4.083-2.214-7.374-.75-1.28-.313-2.312.109-3.31.488-1.156.994-2.352.078-4.364a.468.468 0 0 1 .088-.519l2.424-2.515zm-.379 13.186l-1.47-5.13c-.322.782-.498 1.4-.041 2.181a17.82 17.82 0 0 1 1.383 2.95h.128zm-8.99-11.55l1.297 3.748 1.298-3.749h-2.595zm4.083-11.067a.72.72 0 0 0 .72-.718l-.001-.547h-2.32v.547a.72.72 0 0 0 .719.718h.882zm-2.536-1.747a.467.467 0 0 1 .467-.454h.511c-1.325-.37-2.073-.992-2.49-1.57-.475.765-1.273 1.276-1.853 1.57h2.398c.254 0 .46.202.467.454h.5zm1.797-6.373A2.049 2.049 0 0 0 14.666.936a2.049 2.049 0 0 0-2.047 2.046c0 .216.037.428.103.63a4.778 4.778 0 0 1 1.944-.403c.7 0 1.359.144 1.943.404a2.05 2.05 0 0 0 .103-.63zm-2.046 1.162c-1.965 0-3.504 1.41-3.504 3.21 0 .006-.002.694-.001.695.69-.355 1.712-1.057 1.712-2.105a.468.468 0 0 1 .935-.016c.005.087.187 2.21 4.362 2.358l-.001-.933c0-1.799-1.54-3.209-3.504-3.209zM13.48 9.837h-2.32v.547a.72.72 0 0 0 .718.718h.883a.72.72 0 0 0 .719-.718v-.547zm-1.602 2.2c-.184 0-.361-.03-.527-.087.474 1.762 1.78 3.032 3.313 3.031 1.534 0 2.84-1.27 3.314-3.03a1.65 1.65 0 0 1-.528.087h-.883a1.656 1.656 0 0 1-1.654-1.655v-.092h-.497v.092c0 .913-.743 1.655-1.655 1.655h-.883zm1.345 5.348a.468.468 0 0 1-.358.455l-.92.22 1.098 3.172h3.242l1.098-3.171-.92-.22a.468.468 0 0 1-.358-.456v-1.763a3.7 3.7 0 0 1-1.44.295 3.7 3.7 0 0 1-1.442-.295v1.763zM2.637 44.439c.374-.232.487-.684.495-.717v-.002l.415-1.445-2.202-.74-.077.347a2.301 2.301 0 0 1 1.233 2.036.468.468 0 1 1-.935 0c0-.43-.201-.814-.513-1.064l-.09.402c-.065.29-.014.587.144.838a1.112 1.112 0 0 0 1.53.345zm1.169-3.064L7.888 27.15c-.288-.96-.395-2.129.238-3.677L6.07 21.34a6.057 6.057 0 0 0-.563 1.404L1.55 40.617l2.257.759zm5.376-13.443c.422.998.858 2.03.11 3.31-1.933 3.303-2.192 6.285-2.216 7.374h7.121v-11.19l-3.165-9.146-1.58.38c-1.345.315-2.255 1.086-2.859 1.874l2.422 2.515a.468.468 0 0 1 .09.519c-.917 2.012-.411 3.207.077 4.364zm.756 46.132h4.26v-1.64H11.78c-.175.01-1.425.131-1.842 1.64zm2.219-2.575h2.04V57.451h-3.83c.288 3.558.824 8.702 1.79 14.038zm2.976 2.575h4.26c-.418-1.51-1.67-1.63-1.843-1.64h-2.417v1.64zm0-2.575h2.04c.966-5.336 1.502-10.48 1.79-14.038h-3.83V71.49zm-.467-14.973h6.137c1.802-10.843 1.613-15.652 1.497-16.965H7.03c-.112 1.32-.298 6.16 1.498 16.965h6.137zm7.873-21.86l.04.135.057-.102-.01-.034h-.087zm1.04-.073a.452.452 0 0 1 .019.066l1.945 6.787 2.24-.81-3.191-14.41v-.002l-.77-3.473a6.055 6.055 0 0 0-.562-1.401l-2.056 2.134c.63 1.542.528 2.706.242 3.665l1.967 6.865a.448.448 0 0 1 .03.102l.136.477zm4.409 6.964l-2.187.79.403 1.409a1.1 1.1 0 0 0 .49.693 1.11 1.11 0 0 0 1.673-1.181l-.38-1.711z" fill="#1C1B1A"/><path fill-rule="evenodd" clip-rule="evenodd" d="M22.578 34.791l-.039-.136h.087l.01.033-.058.103z" fill="#1C1B1A"/><path d="M14.665 13.674c1.018 0 1.73-.41 1.73-.998a.468.468 0 0 0-.925-.104c-.092.06-.366.166-.805.166-.439 0-.713-.106-.805-.166a.468.468 0 0 0-.925.104c0 .588.712.998 1.73.998zm-2.344-2.736a.466.466 0 0 0 .466-.467.466.466 0 0 0-.136-.332.483.483 0 0 0-.661 0 .466.466 0 0 0 0 .66.467.467 0 0 0 .331.14zm4.689 0c.124 0 .244-.05.332-.136a.48.48 0 0 0 .137-.331.477.477 0 0 0-.137-.332.486.486 0 0 0-.662 0 .477.477 0 0 0-.137.332c0 .121.05.243.137.33a.477.477 0 0 0 .33.137z" fill="#1C1B1A"/></svg>