<svg width="68" height="75" fill="none" xmlns="http://www.w3.org/2000/svg"><path d="M13.19 18.744l-.923-1.755-1.23.413.1 2.252 2.052-.91z" fill="#fff"/><path d="M25.427 41.068h2.65l.12-.793H24.9l.527.793z" fill="#588AA3"/><path d="M14.266 8.364a.46.46 0 0 1 .456.408h.455a.46.46 0 0 1 .456-.408h2.447c-.111-2.038-.976-4.055-3.13-4.055-2.155 0-3.02 2.017-3.13 4.055h2.446zm-.273-3.234h1.913a.461.461 0 1 1 0 .922h-1.913a.461.461 0 1 1 0-.922zm-.751 1.495h3.415a.461.461 0 1 1 0 .922h-3.415a.461.461 0 1 1 0-.922z" fill="#E0B489"/><path d="M19.445 8.364a.46.46 0 0 1 .461.46v.609c.166-.476.213-1.315-.24-2.776-.347-1.122-1.048-1.821-1.9-1.969.724.866 1.163 2.128 1.236 3.676h.443z" fill="#CCC"/><path d="M16.093 10.014a.93.93 0 0 0 .929.929h1.034a.93.93 0 0 0 .928-.929v-.727h-2.891v.727zm1.12-.225a.476.476 0 0 1 .651 0 .464.464 0 0 1 .136.326.464.464 0 0 1-.46.461.462.462 0 0 1-.326-.788z" fill="#D8D5D4"/><path d="M18.76 19.654l.101-2.252-1.23-.413-.923 1.755 2.053.91zm-.905.608l-1.012-.448-.761 1.087.301 1.137c.952-.457 1.331-1.306 1.472-1.776z" fill="#fff"/><path d="M18.93 11.646c-.261.14-.559.22-.875.22h-1.034c-.28 0-.544-.065-.782-.176a1.412 1.412 0 0 1-1.29.843 1.412 1.412 0 0 1-1.291-.844 1.838 1.838 0 0 1-.782.176h-1.034a1.84 1.84 0 0 1-.874-.22c.295 2.032 1.847 3.399 3.98 3.399 2.134 0 3.686-1.367 3.981-3.399zm-5.686 1.622a.461.461 0 0 1 .819-.292c.128.038.434.092.885.092.452 0 .758-.054.886-.092a.46.46 0 0 1 .819.292c0 .179 0 .722-1.704.722-1.705 0-1.705-.543-1.705-.722zm3.451 2.412a5.313 5.313 0 0 1-1.747.286c-.623 0-1.21-.1-1.746-.287v1.106l.902 1.718h1.689l.902-1.718v-1.106z" fill="#E0B489"/><path d="M11.84 10.943h1.035a.93.93 0 0 0 .928-.93v-.726h-2.89v.727a.93.93 0 0 0 .928.929zm.192-1.155a.476.476 0 0 1 .651 0 .46.46 0 1 1-.651.653.463.463 0 0 1 0-.653z" fill="#D8D5D4"/><path d="M14.67 21.273l-.274 1.03c.172.025.356.04.553.043.196-.003.38-.018.552-.044l-.273-1.03h-.559zm1.3-1.848h-2.04l-.017.008.643.918h.787l.643-.918-.017-.008z" fill="#8C6239"/><path d="M14.726 9.694v.32c0 .348-.098.673-.266.951v.157a.489.489 0 0 0 .977 0v-.156a1.836 1.836 0 0 1-.267-.952v-.32h-.444z" fill="#C69C6D"/><path d="M10.23 6.657c-.452 1.46-.405 2.299-.24 2.775v-.607c0-.255.207-.461.462-.461h.443c.073-1.548.511-2.81 1.236-3.676-.852.148-1.553.847-1.9 1.97z" fill="#CCC"/><path d="M28.062 41.99h-2.31l.249 1.119a1.047 1.047 0 0 0 .51.795c.17-.82.784-1.478 1.578-1.714l-.027-.2zm-.626 2.023c.215-.067.403-.195.541-.374.115-.149.181-.322.204-.502a1.35 1.35 0 0 0-.745.876z" fill="#C69C6D"/><path d="M24.594 21.602c-.01-.106-.305-2.657-3.618-3.493l-1.205-.403-.119 2.663a.461.461 0 0 1-.647.401l-.294-.13c-.295.899-1.04 2.021-2.505 2.45a4.385 4.385 0 0 1-1.257.179c-.716 0-1.251-.177-1.257-.178-1.464-.43-2.21-1.552-2.505-2.45l-.294.13a.458.458 0 0 1-.43-.03.46.46 0 0 1-.217-.372l-.119-2.663-1.205.403c-3.34.842-3.615 3.467-3.618 3.493-.001.017-4.35 18.3-4.35 18.3 2.214.923 3.364 1.076 3.413 1.292l1.853-5.48 1.976-9.719a.462.462 0 0 1 .909.155c-.012.091-1.19 8.817-.157 14.918H20.95c1.034-6.104-.145-14.827-.157-14.918a.461.461 0 0 1 .908-.155l2.717 13.358h3.752s-3.575-17.734-3.577-17.751z" fill="#588AA3"/><path d="M20.334 72.176H16.86v1.9h5.34c-.042-.402-.173-.999-.564-1.411-.312-.33-.737-.49-1.302-.49zm-12.075.492c-.387.41-.518 1.006-.56 1.409h5.338v-1.901H9.563c-.566 0-.992.16-1.304.492z" fill="#4D4D4D"/><path d="M20.788 41.99H9.108v29.264h4.497l.881-25.763a.46.46 0 0 1 .92 0h.002l.884 25.763h4.496V41.991z" fill="#736357"/><path d="M12.042 20.262c.14.47.52 1.32 1.472 1.776l.301-1.137-.76-1.087-1.013.448z" fill="#fff"/><path d="M16.652 13.267a.461.461 0 0 0-.818-.291c-.128.038-.435.091-.886.091-.452 0-.758-.053-.886-.091a.46.46 0 0 0-.819.291c0 .179 0 .723 1.705.723 1.704 0 1.704-.544 1.704-.723zm-3.411-5.72h3.416a.461.461 0 1 0 0-.922H13.24a.461.461 0 1 0 0 .922zm.751-1.495h1.913a.461.461 0 1 0 0-.922h-1.913a.461.461 0 1 0 0 .922zm-1.632 4.524a.463.463 0 0 0 .462-.461.462.462 0 0 0-.137-.327.476.476 0 0 0-.651 0 .46.46 0 0 0 .326.788zm5.18 0a.467.467 0 0 0 .46-.461c0-.122-.05-.24-.136-.327a.476.476 0 0 0-.651 0 .463.463 0 0 0 .326.788z" fill="#1C1B1A"/><path d="M4.42 41.655l-3.388-1.199L.77 41.84c-.209.04-.17.237 0 .277-.019.327.03.805.263 1.014.382 1.291 1.766 1.66 2.65.646l.738-2.122z" fill="#C69C6D"/><path fill-rule="evenodd" clip-rule="evenodd" d="M29.01 42.114l-.075-.555.258-1.75c0-.028-3.684-18.319-3.684-18.319-.04-.345-.493-3.304-4.29-4.27l-3.602-1.208v-.768c1.407-.858 2.29-2.416 2.29-4.313v-.102c.205-.114.459-.31.666-.652.505-.831.496-2.107-.026-3.792-.594-1.921-2.152-2.948-3.83-2.563a3.65 3.65 0 0 0-1.77-.435c-.655 0-1.248.152-1.767.435-1.68-.385-3.237.642-3.831 2.563-.522 1.685-.53 2.96-.026 3.792.207.341.46.539.667.652v.102c0 1.898.882 3.455 2.29 4.314v.767l-3.602 1.207c-3.798.967-4.25 3.926-4.29 4.271L1.299 35.634l-.368 1.687-.426 1.952-.251 1.151s-.063.318-.106.77c-.066.699-.084 1.717.252 2.375.34.664.667 1.123 1.383 1.407.69.273 1.314.31 1.9-.046.683-.416.96-1.153.96-1.153l2.859-10.29c-.068 2.659.131 5.615.607 8.133v.004c.025.13.05.26.077.387v29.564a2.38 2.38 0 0 0-.6.46c-.91.967-.832 2.468-.829 2.53a.461.461 0 0 0 .46.435h6.28a.461.461 0 0 0 .461-.461v-2.362h.093a.461.461 0 0 0 .46-.446l.437-12.749.437 12.75a.461.461 0 0 0 .46.445h.093v2.362c0 .254.207.46.461.46h6.28a.46.46 0 0 0 .46-.433c.004-.064.082-1.564-.829-2.53a2.373 2.373 0 0 0-.6-.461V42.01c.027-.127.053-.257.077-.387v-.001l.001-.003c.475-2.518.564-5.474.495-8.133 0 0 1.36 6.562 1.373 6.583l1.091 1.643.35 1.577c.142.983 1.007 1.7 1.997 1.699a2.012 2.012 0 0 0 1.613-.787c.255-.33.392-.723.404-1.129l-.1-.959zM18.86 17.401l-1.23-.412-.923 1.755 2.053.91.1-2.253zm-4.305 2.95h.787l.643-.918-.016-.008h-2.04l-.017.008.643.918zm.393 1.995c.197-.002.38-.018.553-.044l-.273-1.029h-.559l-.273 1.03c.172.025.356.04.552.043zm-.844-3.843h1.689l.902-1.718V15.68a5.313 5.313 0 0 1-1.747.287c-.623 0-1.21-.1-1.746-.286v1.105l.902 1.718zm-.591 3.535l.301-1.137-.761-1.088-1.012.449c.14.47.52 1.319 1.472 1.776zm4.343-1.776l-1.012-.449-.761 1.088.301 1.137c.953-.457 1.331-1.306 1.472-1.776zm1.128-10.248v-.727h-2.891v.727a.93.93 0 0 0 .928.929h1.034a.93.93 0 0 0 .93-.929zm.922-.58c.166-.477.213-1.315-.24-2.776-.347-1.122-1.048-1.821-1.9-1.969.725.866 1.163 2.128 1.236 3.675h.443c.255 0 .461.207.461.461v.609zm-1.828-1.07c-.11-2.038-.975-4.054-3.13-4.054-2.154 0-3.019 2.016-3.13 4.054h2.447a.46.46 0 0 1 .456.408h.454a.46.46 0 0 1 .456-.408h2.447zm-2.641 2.758v-.156a1.836 1.836 0 0 1-.267-.952v-.32h-.444v.32c0 .348-.098.673-.266.952v.156a.489.489 0 0 0 .977 0zM9.99 8.825a.46.46 0 0 1 .461-.46h.444c.072-1.548.511-2.81 1.236-3.676-.853.148-1.554.847-1.9 1.969-.453 1.46-.407 2.298-.24 2.775v-.608zm.922.462v.727a.93.93 0 0 0 .93.929h1.033a.93.93 0 0 0 .929-.929v-.727h-2.892zm.93 2.578a1.84 1.84 0 0 1-.875-.22c.295 2.032 1.847 3.398 3.98 3.398 2.135 0 3.687-1.366 3.982-3.398-.26.14-.558.22-.874.22H17.02a1.83 1.83 0 0 1-.782-.176 1.412 1.412 0 0 1-1.29.844 1.412 1.412 0 0 1-1.292-.844 1.837 1.837 0 0 1-.782.176H11.84zm1.347 6.88l-.922-1.756-1.23.412.1 2.253 2.052-.91zM7.697 74.076h5.34v-1.9H9.561c-.566 0-.992.16-1.304.491-.387.411-.518 1.007-.56 1.41zm7.71-28.586l.885 25.763h4.496V41.991H9.108v29.263h4.497l.881-25.763a.461.461 0 0 1 .92 0h.002zm1.454 28.587h5.34c-.043-.403-.174-1-.565-1.413-.311-.329-.737-.488-1.301-.488H16.86v1.9zm7.557-34.725L21.7 25.995a.461.461 0 0 0-.909.155c.013.091 1.192 8.815.158 14.918H8.946c-1.033-6.101.145-14.827.158-14.918a.461.461 0 0 0-.909-.155L5.06 38.01l-.192.787a49.511 49.511 0 0 0-.553 2.122l-.013-.005-.173.74.01.002-.419 1.753-.012.059a.881.881 0 0 1-.025.102c-.086.258-.301.389-.495.506l-.113.07c-.392.257-.785.13-1.2-.092-.375-.2-.48-.409-.683-.815l-.054-.107C.912 42.685.934 42 1 41.471c.054-.435.138-.763.138-.763l2.991.945.173-.74-3.003-1.01c.037-.181.081-.363.13-.564.053-.213.111-.448.17-.727.021-.1.04-.223.058-.35.02-.134.04-.272.065-.388 1.154-5.419 3.58-16.259 3.581-16.272.003-.026.279-2.65 3.618-3.493l1.205-.403.119 2.664a.461.461 0 0 0 .647.4l.294-.13c.295.899 1.04 2.021 2.505 2.45a4.41 4.41 0 0 0 1.257.179 4.42 4.42 0 0 0 1.257-.178c1.464-.43 2.21-1.552 2.505-2.45l.294.13a.46.46 0 0 0 .647-.401l.119-2.664 1.205.403c3.313.836 3.607 3.387 3.618 3.493.001.017 3.576 17.751 3.576 17.751h-3.751zm1.59 3.794c.044.325.237.595.504.757.17-.82.784-1.479 1.578-1.715l-.027-.199h-2.31l.249 1.118a.456.456 0 0 1 .007.04zm1.427.866c.216-.067.404-.194.542-.373.115-.15.181-.322.203-.502-.363.164-.64.485-.745.875zm-2.009-2.945h2.65l.12-.792H24.9l.526.792z" fill="#1C1B1A"/><path fill-rule="evenodd" clip-rule="evenodd" d="M8.195 25.995L5.06 38.01c1.588-6.488 3.135-12.014 3.135-12.014z" fill="#1C1B1A"/><path d="M1.599 38.612l3.044.995.212-.815-3.133-.918a6.69 6.69 0 0 0-.065.389c-.019.126-.037.25-.058.349z" fill="#1C1B1A"/><path d="M53.446 40.01h6.846c-.026-1.049-.278-3.925-2.13-7.09-.72-1.23-.3-2.223.105-3.183.47-1.112.956-2.261.075-4.196a.45.45 0 0 1 .086-.498l2.33-2.42c-.581-.757-1.455-1.498-2.747-1.801l-1.522-.366-3.044 8.795v10.76z" fill="#C4806E"/><path d="M51.782 9.928c-.458.736-1.224 1.228-1.782 1.51h2.306a.45.45 0 0 1 .449.437h.48a.45.45 0 0 1 .449-.437h.492c-1.275-.355-1.993-.954-2.394-1.51z" fill="#E0B489"/><path d="M40.112 43.152a2.213 2.213 0 0 1 1.186 1.958.45.45 0 1 1-.9 0 1.31 1.31 0 0 0-.492-1.024l-.086.387a1.06 1.06 0 0 0 .138.806 1.067 1.067 0 0 0 1.47.332c.371-.23.475-.683.477-.692l.399-1.389-2.118-.712-.074.334z" fill="#C69C6D"/><path d="M54.554 23.296l1.056-3.05-.885-.212a.45.45 0 0 1-.345-.437v-1.695a3.55 3.55 0 0 1-1.384.283c-.485 0-.951-.1-1.386-.284v1.695a.45.45 0 0 1-.345.438l-.884.212 1.055 3.05h3.118zm-1.558-6.011c1.474 0 2.73-1.22 3.185-2.914-.159.053-.33.084-.507.084h-.848a1.593 1.593 0 0 1-1.592-1.591v-.09h-.478v.09c0 .877-.713 1.59-1.59 1.59h-.85c-.177 0-.347-.03-.506-.083.456 1.693 1.711 2.914 3.186 2.914zm-1.213-2.667a.45.45 0 0 1 .438.35c.09.057.353.16.775.16.421 0 .685-.103.774-.16a.45.45 0 0 1 .889.1c0 .565-.684.96-1.663.96s-1.663-.395-1.663-.96a.45.45 0 0 1 .45-.45z" fill="#E0B489"/><path d="M51.748 24.195l1.248 3.606 1.248-3.606h-2.496z" fill="#96564A"/><path d="M44.73 23.4a5.836 5.836 0 0 0-.542 1.35l-3.806 17.185 2.17.729 3.926-13.677c-.278-.924-.38-2.047.228-3.535l-1.976-2.053z" fill="#C4806E"/><path d="M51.271 8.595a.45.45 0 0 1 .9-.016c.005.084.18 2.126 4.194 2.268l-.001-.897c0-1.73-1.48-3.086-3.369-3.086-1.889 0-3.368 1.356-3.368 3.086l-.002.668c.663-.34 1.646-1.016 1.646-2.023z" fill="#CCC"/><path d="M50.316 13.556h.85c.38 0 .69-.31.69-.692v-.526h-2.231v.526c0 .381.31.691.691.691zm.107-.927a.465.465 0 0 1 .635 0 .448.448 0 0 1 0 .635.449.449 0 1 1-.635-.635z" fill="#D8D5D4"/><path d="M52.996 5.965c.674 0 1.307.139 1.868.388.063-.195.1-.398.1-.606a1.97 1.97 0 0 0-1.968-1.968 1.97 1.97 0 0 0-1.969 1.968c0 .207.037.411.1.606a4.595 4.595 0 0 1 1.869-.388z" fill="#CCC"/><path d="M54.134 12.864c0 .381.31.691.691.691h.849c.381 0 .691-.31.691-.69v-.527h-2.231v.526zm.797-.235a.467.467 0 0 1 .637 0c.083.084.131.2.131.318a.462.462 0 0 1-.131.319.458.458 0 0 1-.319.131.458.458 0 0 1-.318-.131.462.462 0 0 1-.132-.319c0-.118.049-.234.132-.318z" fill="#D8D5D4"/><path d="M52.545 29.251l-3.044-8.795-1.52.365c-1.292.304-2.167 1.045-2.748 1.803l2.33 2.419a.45.45 0 0 1 .085.498c-.88 1.935-.395 3.085.075 4.196.406.96.825 1.953.105 3.184-1.858 3.175-2.107 6.043-2.13 7.09h6.847V29.25zm9.995-1.163v-.002l-.74-3.339a5.824 5.824 0 0 0-.54-1.348l-1.977 2.053c.605 1.482.507 2.602.232 3.524l1.892 6.6a.486.486 0 0 1 .028.099l.131.458a.47.47 0 0 1 .019.064l1.87 6.526 2.155-.78-3.07-13.855z" fill="#C4806E"/><path d="M64.56 45.61a1.067 1.067 0 0 0 1.609-1.136l-.364-1.645-2.103.76.388 1.355c.062.277.23.514.47.666zm-3.994-9.408c.014.044.026.087.038.131l.056-.099-.01-.032h-.084z" fill="#C69C6D"/><path d="M48.45 74.097h4.096V72.52h-2.325c-.168.01-1.37.125-1.77 1.577z" fill="#998675"/><path d="M50.583 71.62h1.962V58.122h-3.682c.276 3.42.792 8.367 1.72 13.498z" fill="#E0B489"/><path d="M45.654 40.91c-.108 1.27-.287 5.924 1.44 16.312h11.803c1.733-10.425 1.55-15.05 1.44-16.312H45.654z" fill="#96564A"/><path d="M53.445 72.52v1.577h4.096c-.402-1.453-1.606-1.568-1.772-1.577h-2.324z" fill="#998675"/><path d="M53.445 71.62h1.962c.929-5.13 1.444-10.077 1.72-13.498h-3.682V71.62z" fill="#E0B489"/><path fill-rule="evenodd" clip-rule="evenodd" d="M58.997 20.19a5.765 5.765 0 0 0-.78-.244l-2.937-.705v-1.87c1.192-.927 1.985-2.555 1.985-4.406l-.002-3.034c-.006-1.28-.627-2.397-1.607-3.118.135-.337.207-.7.207-1.066a2.87 2.87 0 0 0-2.868-2.868 2.871 2.871 0 0 0-2.661 3.934c-.979.72-1.6 1.836-1.607 3.113l-.002 3.039c0 1.85.793 3.478 1.984 4.405v1.87l-2.936.705c-3.57.84-4.427 4.451-4.462 4.607l-4.065 18.353-.198.893-.105.477a1.953 1.953 0 0 0 .255 1.483 1.954 1.954 0 0 0 1.666.916c.367 0 .727-.103 1.045-.304.44-.278.747-.71.865-1.215l4.241-14.778c.307.748.473 1.34.036 2.089-2.34 3.998-2.273 7.491-2.251 7.97-.08.545-.604 5.003 1.469 17.31a.45.45 0 0 0 .444.375h1.247c.275 3.426.79 8.404 1.723 13.578-.86.228-2.004.98-2.225 2.792a.45.45 0 0 0 .447.504h10.18a.45.45 0 0 0 .447-.504c-.22-1.812-1.365-2.564-2.225-2.791.932-5.175 1.448-10.153 1.723-13.579h1.248a.45.45 0 0 0 .443-.375c2.074-12.313 1.548-16.77 1.469-17.31.01-.25.033-1.308-.273-2.825l.09-.161 2.209 7.704c.101.438.345.82.694 1.094l.9.398c.104.017.21.029.316.029a1.968 1.968 0 0 0 1.922-2.397l-1.481-6.689-.2-.9-.155-.702-.2-.9-.203-.916-.9-4.062-.469-2.12-.484-2.187-.278-1.253c-.029-.126-.622-2.618-2.844-3.95l-.837-.41zm1.76 2.433c-.58-.757-1.455-1.498-2.747-1.802l-1.521-.365-3.044 8.795V40.01h6.846c-.025-1.05-.278-3.926-2.129-7.09-.72-1.231-.301-2.224.105-3.183.47-1.112.955-2.262.075-4.196a.45.45 0 0 1 .085-.499l2.33-2.419zm-.365 12.679l-1.414-4.934c-.31.753-.479 1.347-.04 2.098a17.14 17.14 0 0 1 1.33 2.836h.124zm-8.645-11.107l1.248 3.605 1.248-3.605h-2.496zm3.927-10.64c.381 0 .691-.31.691-.692v-.526h-2.231v.526c0 .381.31.691.691.691h.849zm-2.439-1.68a.45.45 0 0 1 .449-.438h.492c-1.275-.354-1.993-.953-2.394-1.51-.458.736-1.224 1.228-1.782 1.51h2.306a.45.45 0 0 1 .448.437h.481zm1.728-6.128a1.97 1.97 0 0 0-1.968-1.968 1.97 1.97 0 0 0-1.968 1.968c0 .207.036.41.1.606a4.594 4.594 0 0 1 1.868-.389c.674 0 1.307.14 1.869.389.063-.195.1-.399.1-.606zm-1.968 1.117c-1.889 0-3.368 1.355-3.368 3.086l-.002.668c.663-.34 1.646-1.016 1.646-2.023a.45.45 0 0 1 .9-.016c.005.084.18 2.125 4.194 2.268l-.001-.897c0-1.73-1.48-3.086-3.369-3.086zm-1.14 5.473h-2.23v.526c0 .381.31.691.69.691h.85c.38 0 .69-.31.69-.69v-.527zm-1.539 2.117c-.177 0-.348-.03-.507-.084.456 1.694 1.712 2.914 3.186 2.914s2.73-1.22 3.186-2.914c-.16.053-.33.084-.507.084h-.849a1.593 1.593 0 0 1-1.591-1.59v-.09h-.478v.09c0 .876-.714 1.59-1.59 1.59h-.85zm1.293 5.141a.45.45 0 0 1-.344.438l-.885.212 1.056 3.05h3.118l1.055-3.05-.884-.212a.45.45 0 0 1-.345-.437V17.9a3.56 3.56 0 0 1-1.385.283c-.485 0-.95-.1-1.386-.284v1.695zM41.43 45.61c.36-.223.468-.657.476-.69v-.001l.4-1.39-2.118-.711-.074.334a2.213 2.213 0 0 1 1.186 1.957.45.45 0 1 1-.9 0 1.31 1.31 0 0 0-.493-1.023l-.086.387a1.06 1.06 0 0 0 .138.805 1.07 1.07 0 0 0 1.47.332zm1.124-2.946l3.926-13.677c-.278-.924-.38-2.047.228-3.535l-1.976-2.053a5.826 5.826 0 0 0-.542 1.35l-3.806 17.186 2.17.729zm5.17-12.926c.406.96.825 1.952.104 3.183-1.858 3.176-2.106 6.043-2.13 7.09h6.848V29.25l-3.044-8.794-1.52.365c-1.292.304-2.167 1.044-2.748 1.802l2.33 2.42a.45.45 0 0 1 .085.498c-.88 1.934-.395 3.084.075 4.196zm.727 44.359h4.095V72.52h-2.324c-.168.01-1.37.125-1.771 1.577zm2.133-2.476h1.962V58.12h-3.682c.276 3.42.791 8.367 1.72 13.499zm2.862 2.476h4.095c-.401-1.453-1.605-1.568-1.771-1.577h-2.324v1.577zm0-2.476h1.962c.929-5.132 1.444-10.078 1.72-13.499h-3.682V71.62zm-.45-14.398h5.902c1.733-10.426 1.55-15.05 1.44-16.312H45.654c-.109 1.269-.288 5.923 1.44 16.312h5.901zm7.571-21.02l.038.13.055-.098-.009-.032h-.084zm1-.07a.43.43 0 0 1 .018.064l1.87 6.526 2.155-.78-3.07-13.855v-.002l-.739-3.339a5.835 5.835 0 0 0-.54-1.348l-1.977 2.053c.605 1.482.507 2.602.232 3.523l1.891 6.602a.39.39 0 0 1 .029.097l.13.459zm4.24 6.696l-2.103.76.387 1.355c.063.278.23.514.47.666a1.067 1.067 0 0 0 1.61-1.136l-.365-1.645z" fill="#1C1B1A"/><path fill-rule="evenodd" clip-rule="evenodd" d="M60.604 36.332l-.038-.13h.084l.01.032-.056.098z" fill="#1C1B1A"/><path d="M52.995 16.028c.979 0 1.663-.395 1.663-.96a.45.45 0 0 0-.889-.1c-.088.057-.352.16-.774.16-.422 0-.686-.103-.774-.16a.45.45 0 0 0-.889.1c0 .565.684.96 1.663.96zm-2.253-2.631a.449.449 0 0 0 .448-.45.448.448 0 0 0-.132-.319.465.465 0 0 0-.635 0 .449.449 0 0 0 0 .635.45.45 0 0 0 .319.134zm4.507 0a.459.459 0 0 0 .318-.132.462.462 0 0 0 .132-.318.459.459 0 0 0-.132-.319.467.467 0 0 0-.637 0 .459.459 0 0 0-.131.319c0 .117.048.234.131.319.085.082.2.13.319.13z" fill="#1C1B1A"/><path d="M36.355 13.65c-.582.313-1.278.461-2.104.461h-.002c-.827 0-1.523-.148-2.105-.46v.672l1.183 2.308h1.845l1.183-2.308v-.672z" fill="#E5CBBD"/><path d="M32.828 33.633l1.423 1.792 1.423-1.792-.978-13.87h-.89l-.978 13.87z" fill="#fff"/><path d="M37.153 14.618l-1.136 2.216 2.095.84-.144-2.713-.8-.385c-.005.014-.008.029-.015.042z" fill="#67BAB2"/><path d="M35.35 17.474h-2.188l-.19.086.699 1.36h1.16l.704-1.372-.185-.074z" fill="#fff"/><path d="M34.25 13.268c1.464 0 2.238-.753 2.25-.764.584-.567 1.029-1.52 1.307-3.079v-.003c.032-.282-.116-1.575-.285-2.428a2.657 2.657 0 0 1-.315.211.42.42 0 0 1-.254.756h-1.306a.422.422 0 0 1-.18-.801c-.283-.206-.537-.517-.76-.937-.455-.866-1.017-1.404-1.67-1.599-.664-.199-1.256.018-1.445.1-.226.338-.89 2.07-.896 4.71.278 1.554.723 2.504 1.305 3.07.012.011.786.764 2.25.764zm1.7-4.87a.437.437 0 0 1 .597 0 .43.43 0 0 1 .123.299.43.43 0 0 1-.123.298.43.43 0 0 1-.298.123.43.43 0 0 1-.299-.123.43.43 0 0 1-.123-.298c0-.112.046-.221.124-.299zm-2.382 3.019c.082.05.316.138.683.138.367 0 .6-.088.682-.138a.422.422 0 0 1 .831.1c0 .519-.622.881-1.513.881-.892 0-1.514-.362-1.514-.88a.422.422 0 0 1 .83-.101zM31.126 7.54c0-.233.19-.422.422-.422h1.306a.422.422 0 1 1 0 .844h-1.306a.422.422 0 0 1-.422-.422zm.704 1.157c0-.112.045-.221.124-.299a.435.435 0 0 1 .596 0c.079.08.124.187.124.299a.425.425 0 0 1-.423.421.426.426 0 0 1-.421-.421z" fill="#E5CBBD"/><path d="M31.12 4.017a2.995 2.995 0 0 1 2.159-.2c.877.262 1.609.939 2.174 2.013.26.494.542.757.838.78.464.034.97-.494 1.113-.682a.422.422 0 0 1 .725.093l.002-.001c.175.425.378 1.633.47 2.536.303-.564.573-1.738.187-4.145-.3-1.88-.874-3.568-4.538-3.568-3.663 0-4.237 1.688-4.538 3.568-.377 2.358-.126 3.531.169 4.109.135-2.26.723-4.01 1.146-4.433a.418.418 0 0 1 .094-.07z" fill="#998675"/><path d="M31.348 14.618c-.007-.013-.01-.028-.016-.042l-.808.389-.144 2.85 2.113-.963-1.145-2.234z" fill="#67BAB2"/><path d="M47.547 40.832h-2.418s.27 1.25.271 1.262c.04.303.195.573.438.76a1.148 1.148 0 0 0 1.836-1.056l-.127-.966z" fill="#E5CBBD"/><path d="M40.228 39.948H28.27v31.287h4.064l1.495-27.194a.42.42 0 1 1 .84 0l1.495 27.194h4.063V39.948z" fill="#999"/><path d="M40.381 16.112c-.026-.007-1.547-.735-1.547-.735l.153 2.912a.421.421 0 0 1-.578.414l-2.09-.84-.803 1.567 1.009 14.307a.421.421 0 0 1-.09.292l-1.765 2.222v1.353h5.557V24.426c0-.078.021-.13.024-.139l2.436-6.993c-.535-.48-1.276-.915-2.306-1.182z" fill="#67BAB2"/><path d="M34.755 38.447h-1.01v.658h1.01v-.658z" fill="#4D4D4D"/><path d="M32.9 38.447h-4.628v.658H32.9v-.658z" fill="#E6E6E6"/><path d="M44.059 19.777c-.006-.061-.099-.887-.728-1.767l-2.246 6.446 2.64 13.349h3.867S44.06 19.792 44.06 19.777z" fill="#67BAB2"/><path d="M39.728 72.078h-3.54v2.08h5.468c-.038-.43-.168-1.116-.605-1.577-.32-.339-.754-.503-1.323-.503z" fill="#736357"/><path d="M40.229 38.447h-4.63v.658h4.63v-.658z" fill="#E6E6E6"/><path d="M47.645 38.648H44.1l.752 1.34h2.677l.116-1.34z" fill="#67BAB2"/><path d="M27.447 72.584c-.432.458-.563 1.143-.601 1.573h5.467v-2.079h-3.541c-.57 0-1.004.165-1.325.505z" fill="#736357"/><path d="M24.44 19.779l-3.534 18.026h3.867l2.64-13.348-2.245-6.447c-.63.88-.722 1.707-.728 1.769zm-3.468 20.21h2.676l.753-1.34h-3.546l.117 1.34z" fill="#67BAB2"/><path d="M20.827 41.799a1.148 1.148 0 0 0 2.274.295l.271-1.262h-2.417l-.128.967z" fill="#E5CBBD"/><path d="M28.272 24.425v13.179h5.556v-1.355l-1.763-2.22a.421.421 0 0 1-.09-.292l1.008-14.308-.78-1.52-2.105.96a.422.422 0 0 1-.596-.405l.157-3.084s-1.514.725-1.54.732c-1.03.267-1.771.702-2.306 1.182l2.435 6.993a.466.466 0 0 1 .024.138z" fill="#67BAB2"/><path d="M32.736 11.517c0 .519.623.88 1.514.88.892 0 1.514-.361 1.514-.88a.421.421 0 0 0-.831-.1c-.082.05-.316.138-.683.138-.367 0-.6-.088-.682-.138a.422.422 0 0 0-.832.1zm-.188-2.522a.424.424 0 0 0 .125-.298.425.425 0 0 0-.125-.299.435.435 0 0 0-.595 0 .421.421 0 1 0 .595.597zm3.702.123a.43.43 0 0 0 .298-.123.43.43 0 0 0 .123-.298.43.43 0 0 0-.123-.299.437.437 0 0 0-.597 0 .427.427 0 0 0 0 .597.43.43 0 0 0 .298.123z" fill="#1C1B1A"/><path fill-rule="evenodd" clip-rule="evenodd" d="M48.34 40.4l.185-2.137-3.628-18.585c-.037-.333-.474-3.368-4.263-4.371L37.2 13.655v-.652c.666-.706 1.118-1.766 1.4-3.232.57-.314 1.668-1.452 1.021-5.493C39.381 2.781 38.936 0 34.251 0h-.001c-4.685 0-5.13 2.783-5.37 4.278-.647 4.042.45 5.179 1.02 5.493.283 1.466.735 2.526 1.402 3.232v.652l-3.435 1.652c-3.789 1.003-4.226 4.038-4.263 4.37l-1.782 9.085-.43 2.19-1.344 6.853-.04.843.117 1.34-.068 2.523.003.007a1.992 1.992 0 0 0 1.908 1.417c.436 0 .858-.142 1.21-.413.416-.32.684-.782.757-1.301l.358-1.66 1.241-2.252 1.895-9.58v42.818c-.22.12-.419.271-.595.457-.925.981-.847 2.533-.843 2.599a.422.422 0 0 0 .42.397h6.324a.422.422 0 0 0 .421-.421v-2.912l1.095-19.91 1.094 19.91v2.912c0 .232.189.421.422.421h6.323a.422.422 0 0 0 .42-.397c.005-.066.083-1.618-.843-2.599a2.35 2.35 0 0 0-.595-.457V28.73s1.936 9.696 1.941 9.704l1.196 2.129.358 1.659c.072.52.34.98.757 1.301a1.973 1.973 0 0 0 1.47.397 1.992 1.992 0 0 0 1.716-2.23l-.17-1.288zM38.111 17.675l-.143-2.714-.8-.384a.228.228 0 0 0-.005.016l-.01.026-1.137 2.215 2.096.841zm-5.139-.114l.698 1.36h1.16l.705-1.372-.186-.074H33.16l-.189.086zm1.278 17.865l1.423-1.792-.978-13.87h-.89l-.978 13.87 1.423 1.792zm-.922-18.794h1.845l1.183-2.307v-.673c-.583.312-1.278.46-2.105.46h-.002c-.826 0-1.522-.148-2.105-.46v.673l1.184 2.307zM29.712 4.41c-.377 2.358-.126 3.532.169 4.11.135-2.261.723-4.01 1.146-4.433a.422.422 0 0 1 .094-.071c.04-.022 1.004-.545 2.158-.2.877.262 1.609.94 2.174 2.013.26.495.542.757.838.78.464.034.97-.493 1.113-.682a.422.422 0 0 1 .725.093h.002c.175.425.378 1.632.47 2.535.303-.564.573-1.738.187-4.145-.3-1.88-.874-3.568-4.538-3.568-3.663 0-4.237 1.688-4.538 3.568zm1.88.314c-.227.338-.89 2.07-.896 4.71.278 1.553.722 2.503 1.304 3.07.013.01.786.763 2.25.763s2.238-.753 2.25-.764c.584-.567 1.028-1.52 1.306-3.079v-.003c.032-.282-.115-1.575-.285-2.428a2.63 2.63 0 0 1-.315.211.42.42 0 0 1-.253.757h-1.307a.421.421 0 0 1-.18-.802c-.282-.206-.537-.516-.759-.937-.456-.866-1.018-1.404-1.67-1.599-.665-.199-1.257.018-1.445.101zm-.26 9.85l-.808.39-.144 2.85 2.113-.963-1.145-2.234a.099.099 0 0 1-.01-.027l-.006-.016zm-8.67 28.28c.244-.188.399-.458.438-.761l.271-1.262h-2.417l-.128.967a1.147 1.147 0 0 0 1.837 1.055zm-1.691-2.866h2.676l.753-1.34h-3.545l.116 1.34zm-.064-2.184h3.867l2.64-13.349-2.245-6.446c-.63.88-.722 1.707-.728 1.769l-3.534 18.026zm7.212-21.693c-1.03.267-1.771.703-2.306 1.182l2.436 6.993a.467.467 0 0 1 .023.139v13.178h5.556V36.25l-1.763-2.22a.422.422 0 0 1-.09-.292l1.009-14.307-.78-1.52-2.106.96a.418.418 0 0 1-.411-.036.421.421 0 0 1-.184-.37l.156-3.084s-1.514.725-1.54.732zm6.637 22.993v-.657h-1.011v.657h1.01zm-1.855 0v-.657h-4.63v.657h4.63zm-6.055 35.052h5.466v-2.079h-3.54c-.57 0-1.004.165-1.325.505-.433.459-.563 1.144-.601 1.574zM34.67 44.04l1.495 27.195h4.063V39.948H28.272v31.287h4.063L33.83 44.04a.42.42 0 1 1 .84 0zm.929-5.593v.658h4.63v-.657h-4.63zm.589 35.71h5.468c-.037-.43-.168-1.115-.605-1.576-.32-.339-.753-.503-1.322-.503h-3.541v2.08zm4.04-36.553V24.426c0-.074.019-.124.023-.137v-.002l2.437-6.993c-.535-.48-1.277-.915-2.306-1.182-.026-.007-1.547-.735-1.547-.735l.153 2.912a.421.421 0 0 1-.578.413l-2.09-.838-.803 1.566 1.009 14.307a.421.421 0 0 1-.09.292l-1.765 2.222v1.353h5.557zm3.103-19.594l-2.245 6.446 2.64 13.35h3.867l-3.534-18.029c-.005-.061-.098-.887-.728-1.767zm4.315 20.638H44.1l.753 1.34h2.676l.117-1.34zm-1.808 4.206a1.148 1.148 0 0 0 1.836-1.056l-.127-.966h-2.418s.27 1.25.271 1.261c.04.304.195.574.438.761z" fill="#1C1B1A"/><path d="M33.275 7.54a.422.422 0 0 0-.422-.422h-1.306a.421.421 0 1 0 0 .843h1.306a.422.422 0 0 0 .422-.421z" fill="#1C1B1A"/></svg>