<svg width="41" height="75" fill="none" xmlns="http://www.w3.org/2000/svg"><path d="M13.835 17.813c2.052 0 3.483-.797 3.707-2.015l-2.01-.483a.442.442 0 0 1-.338-.429v-1.97a3.112 3.112 0 0 1-1.359.317 3.11 3.11 0 0 1-1.359-.318v1.971c0 .204-.14.382-.338.43l-2.01.481c.224 1.219 1.655 2.015 3.707 2.015z" fill="#E0B489"/><path d="M11.593 12.312c-1.064-.962-1.766-2.585-1.766-4.425V6.67a.44.44 0 0 1 .358-.433c.047-.01 3.209-.647 3.209-2.682a.441.441 0 1 1 .882 0c0 2.048 3.176 2.675 3.208 2.681a.441.441 0 0 1 .36.434v1.216c0 1.84-.703 3.463-1.768 4.425v.318c1.486-.078 2.54-.557 3.13-1.43 1.364-2.012-.004-5.503-.018-5.538a.442.442 0 0 1-.032-.164c0-1.357-.409-2.438-1.215-3.212C16.448.852 13.915.878 13.835.88c.004 0 .005 0 0 0-.004 0-.003 0 0 0-.095-.003-2.628-.018-4.11 1.408-.804.774-1.212 1.854-1.212 3.21a.44.44 0 0 1-.031.163c-.014.035-1.38 3.533-.018 5.54.591.872 1.644 1.35 3.129 1.428v-.318z" fill="#754C24"/><path d="M.91 39.293a1.04 1.04 0 0 0 .135.79c.149.236.381.4.654.462.272.061.552.013.788-.136a1.039 1.039 0 0 0 .47-.685l.605-1.987-2.138-.77-.515 2.326z" fill="#E0B489"/><path d="M10.087 74.117h3.306v-2.586h-1.927c-.13.568-.482 1.65-1.38 2.586z" fill="#998675"/><path d="M16.96 7.02c-.724-.193-2.343-.744-3.126-1.958-.782 1.214-2.401 1.765-3.125 1.958v.867c0 1.644.626 3.082 1.555 3.856.034.021.674.607 1.57.607.897 0 1.537-.586 1.571-.607.93-.774 1.555-2.212 1.555-3.856V7.02zm-4.97 1.492a.45.45 0 0 1-.313-.129.45.45 0 0 1-.128-.312.45.45 0 0 1 .129-.313.46.46 0 0 1 .624 0 .442.442 0 0 1-.312.754zm1.844 2.622c-.96 0-1.63-.387-1.63-.941a.441.441 0 0 1 .87-.099c.088.057.347.158.76.158.414 0 .673-.101.76-.158a.441.441 0 0 1 .872.099c0 .554-.671.941-1.632.941zm2.157-2.75a.45.45 0 0 1-.313.128.45.45 0 0 1-.312-.129.45.45 0 0 1-.13-.312.45.45 0 0 1 .13-.313.458.458 0 0 1 .625 0 .442.442 0 0 1 0 .625z" fill="#E0B489"/><path d="M13.394 32.446V18.683c-2.26-.118-3.827-1.148-4.127-2.68l-.35.084c-2.96.696-3.691 3.726-3.721 3.855L1.617 36.097l2.203.793 3.746-12.303a3.508 3.508 0 0 1-.346-.725c-.386-1.117-.34-2.737.672-3.655a.441.441 0 1 1 .592.654c-.683.62-.733 1.834-.43 2.713.237.685.656 1.13 1.093 1.162a.441.441 0 0 1 .41.414l.15 2.559a.441.441 0 0 1-.076.274c-.544.798-1.043 1.95-1.482 3.425.062.952 1.768 1.032 5.245 1.037z" fill="#9681C1"/><path d="M30.543 27.757a.441.441 0 0 1-.394-.243l-.489-.967-.489.967a.442.442 0 0 1-.394.243h-2.263c-.002.089-.003.179-.003.27 0 1.413.345 2.834 1.083 3.752.03.026.83 1.017 2.066 1.017 1.237 0 2.037-.99 2.066-1.017.739-.918 1.084-2.339 1.084-3.752 0-.092-.002-.181-.004-.27h-2.263zm-2.922 1.401a.442.442 0 0 1 0-.625.456.456 0 0 1 .624 0 .443.443 0 0 1-.313.754.446.446 0 0 1-.31-.129zm2.935 2.494a2.553 2.553 0 0 1-.894.15h-.008c-.88 0-1.473-.338-1.474-.841a.442.442 0 1 1 .857-.149c.09.044.304.107.618.107h.005c.317-.001.533-.065.623-.11a.441.441 0 0 1 .415-.296h.001c.243 0 .441.197.442.44 0 .176-.075.5-.585.699zm1.144-2.494a.45.45 0 0 1-.313.129.45.45 0 0 1-.313-.129.448.448 0 0 1 0-.625.458.458 0 0 1 .625 0 .447.447 0 0 1 0 .625zm-2.041 4.52c-.478 0-.925-.09-1.334-.26a.44.44 0 0 1-.259.306c.039.844.28 1.59 1.593 1.59 1.315 0 1.555-.748 1.593-1.59a.44.44 0 0 1-.26-.306c-.409.17-.855.26-1.333.26z" fill="#E0B489"/><path d="M25.628 28.027c0-.254.007-.503.021-.739a.436.436 0 0 1 .44-.413v-.001h2.417l.76-1.505a.441.441 0 0 1 .787 0l.761 1.505h2.416v.001c.233 0 .427.179.44.413.015.236.022.485.022.739 0 1.445-.297 2.687-.825 3.636h2.25c-.062-3.546-.947-6.004-2.448-7.505-1.28-1.28-2.993-1.193-3.004-1.193-.014 0-1.75-.072-3.031 1.21-.723.722-1.327 1.643-1.731 2.835a.434.434 0 0 1-.035.098c-.411 1.256-.635 2.777-.666 4.555h2.25c-.527-.95-.824-2.19-.824-3.636z" fill="#754C24"/><path d="M11.469 70.648h1.925V52.67H9.449c.039 1.741.296 8.504 2.02 17.978z" fill="#E0B489"/><path d="M14.277 32.446c3.477-.005 5.183-.085 5.245-1.037-.44-1.474-.937-2.627-1.482-3.424a.441.441 0 0 1-.076-.275l.15-2.559a.441.441 0 0 1 .409-.414c.438-.031.857-.477 1.094-1.162.303-.88.253-2.093-.43-2.712a.441.441 0 0 1 .592-.655c1.012.918 1.058 2.538.672 3.655-.093.27-.212.51-.346.725l3.13 10.28a3.938 3.938 0 0 1 1.934-1.07l.348-.121-.25-1.132h-1.51a.441.441 0 0 1-.442-.441c0-2.033.234-3.774.698-5.216l-1.54-6.95c-.028-.125-.76-3.155-3.718-3.85l-.352-.085c-.3 1.532-1.866 2.562-4.127 2.68v13.763z" fill="#9681C1"/><path d="M36.25 38.164l-1.708 1.514-.099.8c.007.014 4.014 11.544 4.014 11.544l.014.048a.553.553 0 0 0 1.013.177.552.552 0 0 0 .073-.42l-3.306-13.663z" fill="#E0B489"/><path d="M33.93 34.653c-.016-.003-1.814-.627-1.814-.627-.093.888-.515 2.17-2.455 2.17-1.942 0-2.364-1.284-2.456-2.17 0 0-1.798.623-1.814.627-.97.22-2.199 1.537-2.397 2.265l2.495 2.21c.08.072.132.17.145.277l.284 2.302h7.485l.284-2.302a.442.442 0 0 1 .145-.276l2.495-2.211c-.185-.554-.79-1.9-2.397-2.265z" fill="#FF7B7B"/><path d="M14.276 71.531v2.586h3.307c-.897-.937-1.249-2.018-1.38-2.586h-1.927z" fill="#998675"/><path d="M31.063 72.943v1.175h3.38c-.231-.501-.708-1.173-1.6-1.175h-1.78z" fill="#F4A2A9"/><path d="M31.064 72.06h1.41c.29-1.66 1.463-8.69 1.527-13.849h-2.934l-.003 13.85z" fill="#E0B489"/><path d="M33.293 42.59h-7.268l.098.792h7.072l.098-.792z" fill="#F4A2A9"/><path d="M19.83 32.591c-.462.37-1.077.487-1.357.538-1.076.2-2.648.2-4.637.2-1.99 0-3.562 0-4.637-.2-.281-.051-.898-.168-1.36-.54-1.555 6.77-.448 17.09-.196 19.198h11.233c.005-.051 1.711-7.121 1.711-7.121.14-3.532.102-8.327-.757-12.075z" fill="#514377"/><path d="M25.988 44.265c-.64 1.137-3.602 6.736-3.736 13.064h14.813c-.134-6.335-3.096-11.928-3.735-13.064h-7.342z" fill="#FF7B7B"/><path d="M14.277 70.65h1.925c1.724-9.48 1.981-16.239 2.019-17.98h-3.945v17.98z" fill="#E0B489"/><path d="M26.477 72.943c-.892.002-1.369.673-1.601 1.175h3.381v-1.175h-1.78z" fill="#F4A2A9"/><path d="M23.07 38.165l-1.614 6.664v.005l-1.695 7.002a.548.548 0 0 0 .075.412.557.557 0 0 0 1.014-.177.423.423 0 0 1 .013-.049s4.007-11.53 4.014-11.543l-.1-.8-1.707-1.514zm5.186 33.895l-.004-13.849h-2.934c.064 5.16 1.238 12.19 1.527 13.85h1.41z" fill="#E0B489"/><path d="M30.7 30.514h-.002a.441.441 0 0 0-.415.295c-.09.045-.306.109-.623.11h-.005c-.314 0-.528-.063-.618-.107a.442.442 0 0 0-.416-.294h-.001a.441.441 0 0 0-.44.443c.001.503.594.84 1.475.84h.007c.331 0 .649-.053.894-.15.51-.198.585-.522.585-.697a.442.442 0 0 0-.441-.44zm-2.327-1.669a.44.44 0 0 0-.129-.313.456.456 0 0 0-.623 0 .443.443 0 0 0 .31.754.448.448 0 0 0 .313-.129.444.444 0 0 0 .129-.312zm2.701-.313a.447.447 0 0 0 0 .625.45.45 0 0 0 .313.13.45.45 0 0 0 .312-.13.45.45 0 0 0 .13-.312.448.448 0 0 0-.13-.313.458.458 0 0 0-.625 0z" fill="#1C1B1A"/><path d="M36.998 37.502l.12-.107a.441.441 0 0 0 .14-.422c-.022-.106-.575-2.584-3.108-3.175l-2.286-.794v-.11c.128-.106.251-.223.368-.349h3.33a.441.441 0 0 0 .442-.441c0-4.036-.921-6.928-2.739-8.596-1.597-1.467-3.305-1.425-3.606-1.425-.303 0-2.01-.04-3.605 1.425a6.858 6.858 0 0 0-1.454 1.947l-1.264-5.71c-.034-.15-.876-3.693-4.376-4.516l-2.883-.691v-1.024c1.801-.084 3.1-.694 3.861-1.818 1.514-2.235.32-5.694.1-6.28-.016-1.57-.516-2.836-1.485-3.767C16.789-.045 14.232 0 13.835 0c-.396 0-2.953-.045-4.717 1.649-.97.93-1.47 2.198-1.486 3.766-.22.587-1.413 4.046.1 6.281.762 1.124 2.06 1.734 3.861 1.818v1.024l-2.88.69c-3.503.824-4.344 4.368-4.378 4.52L.048 39.099a1.915 1.915 0 0 0 .25 1.455 1.917 1.917 0 0 0 1.635.9c.36 0 .714-.102 1.026-.3a1.92 1.92 0 0 0 .848-1.189L8.263 25.33c.137.09.281.163.432.212l.122 2.073c-.572.878-1.088 2.094-1.537 3.616-2.235 7.582-.538 20.51-.465 21.058.03.219.217.382.437.382h1.314c.038 1.768.3 8.72 2.087 18.428-.056.339-.42 2.09-2.043 3.084a.442.442 0 0 0 .23.818h9.988a.441.441 0 0 0 .231-.818c-1.623-.995-1.986-2.747-2.043-3.085 1.765-9.588 2.042-16.487 2.086-18.359a1.429 1.429 0 0 0 1.203.65c.65 0 1.239-.444 1.398-1.098l3.416-9.836.157 1.274c-.576.993-3.911 7.046-3.911 14.042a.44.44 0 0 0 .441.441h2.63c.062 5.127 1.203 12.055 1.523 13.902-1.334.282-1.976 1.612-2.136 2.352a.442.442 0 0 0 .431.535h4.444a.442.442 0 0 0 .441-.441l-.004-16.347h1.048l-.004 16.347a.44.44 0 0 0 .441.441h4.443a.441.441 0 0 0 .431-.535c-.16-.74-.801-2.07-2.135-2.352.32-1.847 1.46-8.774 1.523-13.902h2.63a.441.441 0 0 0 .44-.441c0-6.996-3.335-13.05-3.91-14.042l.157-1.274 3.416 9.835c.088.364.31.674.627.875a1.431 1.431 0 0 0 1.086.19 1.43 1.43 0 0 0 .9-.634 1.43 1.43 0 0 0 .188-1.093l-3.418-14.125zm-5.273-5.723c-.029.026-.829 1.017-2.066 1.017-1.236 0-2.036-.99-2.066-1.017-.738-.919-1.083-2.34-1.083-3.752 0-.092.002-.181.003-.27h2.263a.441.441 0 0 0 .394-.243l.49-.967.488.967a.441.441 0 0 0 .394.242h2.263c.002.09.004.18.004.27 0 1.414-.345 2.834-1.084 3.753zm-.473 1.945c-.038.842-.278 1.59-1.593 1.59-1.313 0-1.554-.746-1.592-1.59a.44.44 0 0 0 .258-.306c.41.17.856.26 1.334.26.479 0 .925-.09 1.335-.26a.44.44 0 0 0 .258.306zm-3.797-.83v.11l-1.098.382-.186-.84h.916c.117.125.24.242.368.348zm-2.587-5.787a.425.425 0 0 0 .034-.097c.405-1.192 1.008-2.113 1.731-2.836 1.282-1.282 3.018-1.21 3.031-1.21.011 0 1.724-.087 3.004 1.194 1.501 1.5 2.387 3.959 2.45 7.505h-2.251c.528-.95.825-2.191.825-3.637 0-.254-.008-.503-.022-.738a.439.439 0 0 0-.44-.413v-.002h-2.416l-.76-1.504h-.002a.438.438 0 0 0-.787 0l-.76 1.504h-2.416v.002a.437.437 0 0 0-.44.413c-.015.235-.022.484-.022.738 0 1.446.297 2.688.825 3.637h-2.25c.031-1.779.254-3.3.666-4.556zm-6.465-11.104l.353.085c2.957.695 3.689 3.725 3.718 3.85l1.54 6.95c-.465 1.442-.699 3.183-.699 5.216 0 .244.198.441.441.441h1.51l.251 1.132-.347.12a3.94 3.94 0 0 0-1.935 1.072l-3.13-10.28a3.51 3.51 0 0 0 .346-.726c.386-1.117.34-2.737-.672-3.654a.441.441 0 1 0-.593.654c.684.62.734 1.833.43 2.712-.236.685-.655 1.13-1.093 1.162a.441.441 0 0 0-.409.414l-.15 2.559a.441.441 0 0 0 .076.275c.545.797 1.043 1.95 1.482 3.424-.061.953-1.767 1.032-5.245 1.037V18.683c2.26-.118 3.826-1.148 4.126-2.68zM22.2 37.395l.121.107-.795 3.285c-.039-3.232-.315-6.774-1.136-9.557-.448-1.523-.965-2.738-1.536-3.616l.122-2.073c.15-.049.294-.121.432-.212l3.166 10.4a4.505 4.505 0 0 0-.513 1.244.442.442 0 0 0 .139.422zm-6.794-25.652c-.034.02-.675.607-1.57.607-.896 0-1.537-.586-1.57-.607-.93-.774-1.556-2.212-1.556-3.856V7.02c.724-.193 2.343-.744 3.125-1.959.783 1.215 2.402 1.766 3.126 1.959v.867c0 1.644-.626 3.082-1.555 3.856zm-6.941-.54c-1.362-2.008.003-5.506.018-5.541a.443.443 0 0 0 .031-.164c0-1.355.408-2.435 1.211-3.209C11.207.863 13.74.88 13.835.882c.08-.004 2.613-.03 4.106 1.404.807.774 1.216 1.855 1.216 3.212 0 .056.01.112.031.164.014.035 1.383 3.526.02 5.539-.592.872-1.645 1.35-3.13 1.429v-.318c1.064-.962 1.766-2.585 1.766-4.425V6.671a.441.441 0 0 0-.36-.433c-.031-.007-3.207-.634-3.207-2.682a.441.441 0 1 0-.883 0c0 2.035-3.161 2.672-3.208 2.681a.441.441 0 0 0-.359.434v1.216c0 1.84.703 3.463 1.767 4.425v.317c-1.486-.077-2.538-.555-3.13-1.426zm3.673 4.112a.441.441 0 0 0 .338-.43v-1.97a3.11 3.11 0 0 0 1.36.318c.476 0 .933-.114 1.358-.318v1.97c0 .205.14.382.339.43l2.01.482c-.225 1.218-1.656 2.015-3.708 2.015-2.052 0-3.483-.797-3.707-2.015l2.01-.482zm-9.18 24.408a1.04 1.04 0 0 1-.47.685 1.04 1.04 0 0 1-.789.136 1.04 1.04 0 0 1-.654-.461 1.04 1.04 0 0 1-.135-.79l.515-2.326 2.137.77-.604 1.986zM9.63 27.985a.442.442 0 0 0 .076-.275l-.15-2.559a.441.441 0 0 0-.41-.414c-.438-.031-.857-.477-1.093-1.162-.304-.879-.253-2.093.43-2.712a.441.441 0 1 0-.592-.654c-1.012.917-1.058 2.537-.672 3.654.093.27.21.51.346.725L3.82 36.89l-2.203-.793 3.579-16.156c.03-.129.761-3.159 3.72-3.854l.351-.084c.3 1.532 1.866 2.561 4.127 2.68v13.762c-3.477-.005-5.184-.084-5.245-1.037.439-1.474.938-2.627 1.482-3.424zm3.763 46.132h-3.307c.898-.937 1.25-2.018 1.38-2.586h1.927v2.586zm0-3.469h-1.925c-1.724-9.473-1.981-16.237-2.02-17.978h3.945v17.978zm4.19 3.47h-3.307V71.53h1.926c.131.568.483 1.65 1.38 2.586zm-1.382-3.47h-1.925V52.67h3.944c-.038 1.74-.295 8.5-2.02 17.978zm2.673-18.86H7.643c-.252-2.108-1.36-12.428.195-19.198.463.372 1.08.488 1.36.54 1.076.2 2.647.2 4.637.2 1.99 0 3.562 0 4.637-.2.28-.052.895-.168 1.357-.538.86 3.748.898 8.543.758 12.075 0 0-1.706 7.07-1.712 7.12zm1.987.234a.436.436 0 0 0-.013.048.557.557 0 0 1-1.09-.235l1.696-7.001v-.005l1.614-6.664 1.708 1.514.1.8c-.007.013-4.015 11.543-4.015 11.543zm4.457 6.19h2.934l.003 13.848h-1.41c-.29-1.659-1.463-8.688-1.527-13.849zm-.444 15.905c.232-.501.71-1.172 1.602-1.174h1.78v1.174h-3.382zm9.569 0h-3.382v-1.174h1.78c.892.002 1.37.673 1.602 1.174zm-1.97-2.057h-1.411l.004-13.848H34c-.064 5.159-1.238 12.189-1.527 13.848zm4.592-14.731H22.253c.134-6.328 3.096-11.927 3.736-13.064h7.342c.64 1.136 3.601 6.729 3.735 13.064zm-11.04-14.74h7.267l-.097.793h-7.072l-.098-.793zm7.805-3.46a.442.442 0 0 0-.145.276l-.284 2.301h-7.485l-.284-2.301a.442.442 0 0 0-.145-.276l-2.495-2.211c.198-.728 1.427-2.044 2.397-2.265a848.93 848.93 0 0 0 1.814-.627c.092.886.514 2.17 2.456 2.17 1.94 0 2.362-1.282 2.455-2.17 0 0 1.799.623 1.814.627 1.606.365 2.212 1.711 2.397 2.265l-2.495 2.21zm5.653 13.118a.554.554 0 0 1-1.013-.177.459.459 0 0 0-.014-.048s-4.008-11.53-4.014-11.544l.099-.8 1.708-1.514 3.307 13.663a.553.553 0 0 1-.073.42z" fill="#1C1B1A"/><path d="M15.025 9.751a.442.442 0 0 0-.43.344c-.088.056-.347.157-.76.157-.414 0-.673-.101-.76-.158a.442.442 0 0 0-.872.099c0 .554.671.941 1.631.941s1.632-.387 1.632-.941a.44.44 0 0 0-.441-.442zM12.432 8.07a.442.442 0 0 0-.13-.312.46.46 0 0 0-.624 0 .45.45 0 0 0-.13.313c0 .116.049.23.13.312a.45.45 0 0 0 .312.13.442.442 0 0 0 .441-.441zm2.934-.312a.45.45 0 0 0-.129.312c0 .117.048.23.13.313a.45.45 0 0 0 .312.129.443.443 0 0 0 .313-.754.458.458 0 0 0-.626 0z" fill="#1C1B1A"/></svg>