<svg width="16" height="16" fill="none" xmlns="http://www.w3.org/2000/svg"><g clip-path="url(#clip0)" fill="#4479BC"><path d="M15.996 6.921a1.397 1.397 0 0 0-.487-.96l-1.384-1.186v-3.37a.469.469 0 0 0-.469-.47h-1.875a.463.463 0 0 0-.462.47v.96L8.947.343a1.399 1.399 0 0 0-1.83-.001L.492 5.962A1.406 1.406 0 0 0 .34 7.945a1.42 1.42 0 0 0 1.543.41v7.174c0 .26.203.469.462.469h11.312c.259 0 .469-.21.469-.469V8.355a1.405 1.405 0 0 0 1.87-1.434zM12.25 1.873h.944v2.099l-.944-.804V1.873zM9.913 15.061H6.094v-3.757h3.819v3.756zm3.28 0h-2.35v-4.22a.469.469 0 0 0-.468-.468h-4.75a.463.463 0 0 0-.462.469v4.218h-2.35V7.68L8.03 3.255l5.164 4.421v7.384zm1.757-7.727a.469.469 0 0 1-.661.051L8.335 2.283a.469.469 0 0 0-.608-.001L1.712 7.385a.469.469 0 0 1-.612-.71l6.626-5.62a.467.467 0 0 1 .61 0L14.9 6.673a.47.47 0 0 1 .05.661z"/><path d="M8.5 13.185a.469.469 0 1 0 0-.937.469.469 0 0 0 0 .937z"/></g><defs><clipPath id="clip0"><path fill="#fff" d="M0 0h16v16H0z"/></clipPath></defs></svg>