<svg width="25" height="25" fill="none" xmlns="http://www.w3.org/2000/svg"><g clip-path="url(#clip0)" fill="#4479BC"><path d="M24.993 10.815a2.182 2.182 0 0 0-.76-1.5L22.07 7.462V2.195a.732.732 0 0 0-.732-.733h-2.93a.724.724 0 0 0-.722.733v1.5L13.979.536a2.186 2.186 0 0 0-2.857-.002L.768 9.315a2.196 2.196 0 0 0-.238 3.1 2.22 2.22 0 0 0 2.41.64v11.21c0 .404.318.732.723.732h17.675a.732.732 0 0 0 .732-.733v-11.21a2.196 2.196 0 0 0 2.923-2.24zm-5.852-7.888h1.474v3.279L19.141 4.95V2.927zm-3.653 20.605H9.522v-5.869h5.966v5.87zm5.127 0h-3.672v-6.591a.732.732 0 0 0-.732-.733H8.789a.724.724 0 0 0-.722.733v6.591H4.395V12.001l8.152-6.915 8.068 6.908v11.538zM23.36 11.46a.733.733 0 0 1-1.033.08l-9.3-7.972a.732.732 0 0 0-.95-.003l-9.4 7.974a.733.733 0 0 1-.957-1.11l10.353-8.78a.73.73 0 0 1 .954 0l10.253 8.778a.733.733 0 0 1 .08 1.033z"/><path d="M13.281 20.602a.732.732 0 1 0 0-1.465.732.732 0 0 0 0 1.465z"/></g><defs><clipPath id="clip0"><path fill="#fff" d="M0 0h25v25H0z"/></clipPath></defs></svg>