<svg width="56" height="67" fill="none" xmlns="http://www.w3.org/2000/svg"><path d="M27.534 39.636h0c.134.066.28.1.425.1a.921.921 0 0 0 .427-.103L54.517 26.57h0a.951.951 0 0 0 0-1.698h0L33.942 14.583h0a.955.955 0 0 0-1.274.425h0a.951.951 0 0 0 .425 1.275h0l18.875 9.437L27.96 37.725 3.95 25.721l19.135-9.563h0a.951.951 0 0 0 .425-1.274h0a.95.95 0 0 0-1.274-.425h0L1.4 24.874h0a.95.95 0 0 0 0 1.698h0l26.133 13.064zm-.001 26.388h0a.937.937 0 0 0 .847.001h.001L54.513 52.96h0a.951.951 0 0 0 .426-1.274h0a.952.952 0 0 0-1.274-.426h0L27.956 64.115 2.249 51.26h0a.954.954 0 0 0-1.274.424h0v.001A.951.951 0 0 0 1.4 52.96h0l26.133 13.064z" fill="#213A72" stroke="#213A72" stroke-width=".25"/><path d="M53.14 52.11a.95.95 0 0 0 1.899 0V25.72a.95.95 0 0 0-1.9 0v26.388zM27.009 65.175a.95.95 0 0 0 1.9 0V38.787a.95.95 0 0 0-1.9 0v26.388zM.876 52.11a.95.95 0 0 0 1.899 0V25.72a.95.95 0 0 0-1.9 0v26.388zm26.132-30.101a.95.95 0 0 0 1.9 0V1.825a.95.95 0 0 0-1.9 0v20.184z" fill="#213A72" stroke="#213A72" stroke-width=".25"/><path d="M35.283 10.496h0a.954.954 0 0 0 1.346-.001h0a.95.95 0 0 0 0-1.343l-7.997-8h0a.955.955 0 0 0-1.345.002l-8 8h0a.95.95 0 0 0 1.343 1.342l7.328-7.327 7.325 7.327z" fill="#213A72" stroke="#213A72" stroke-width=".25"/></svg>