<svg width="63" height="65" fill="none" xmlns="http://www.w3.org/2000/svg"><path d="M62.304 42.44a1.02 1.02 0 0 0-.51-.882l-5.23-3.02V25.873a1.02 1.02 0 0 0-.51-.883l-8.098-4.676v-4.272l4.207 2.43a1.02 1.02 0 0 0 1.02 0l2.87-1.658a1.02 1.02 0 0 0 .51-.883V9.303a1.02 1.02 0 0 0-.51-.884L41.706.137a1.02 1.02 0 0 0-1.019 0l-2.87 1.653a1.02 1.02 0 0 0-.51.884v6.63c0 .364.194.701.51.883l8.099 4.677v4.271L27.355 8.42a1.02 1.02 0 0 0-1.02 0l-8.607 4.973a1.02 1.02 0 0 0-.373.372l-8.611 14.91a1.02 1.02 0 0 0-.135.582v2.652l-5.23 3.02a1.02 1.02 0 0 0-.51.882v2.726L.51 39.898a1.02 1.02 0 0 0-.51.883v6.628c0 .364.194.7.51.883l28.697 16.571a1.02 1.02 0 0 0 1.02 0l5.23-3.02 2.36 1.36a1.02 1.02 0 0 0 1.02 0l23.467-13.549c-.194.113 0-.224 0-.588V42.44zm-8.61-26.62l.001-4.27.828-.48v4.271l-.83.479zM41.196 2.197l12.308 7.106-.83.48-12.306-7.108.828-.478zm-1.85 2.244l12.309 7.109-.001 4.27-12.308-7.105V4.441zm0 41.587l8.336-14.44 6.843-3.95V41.85l-15.178 8.763v-4.585zm-12.5-35.547l19.07 11.01v3.598a1.02 1.02 0 1 0 2.04 0v-2.42l5.548 3.203-6.568 3.79-26.658-15.388 6.567-3.793zm-8.234 5.187l26.93 15.546-7.589 13.147-26.933-15.55 7.592-13.143zm-7.963 15.285l26.658 15.39v4.27L10.649 35.225v-4.272zM19.01 45.72l-3.669 2.152-7.564-4.368v-4.27L19.01 45.72zm1.008 4.853l-2.645-1.528 2.645-1.551v3.079zM5.737 39.236v3.091L3.06 40.781l2.677-1.545zm22.96 22.977L2.04 46.82v-4.272L28.698 57.94v4.272zm1.02-6.038l-7.659-4.423v-4.271l11.359 6.558-3.7 2.136zm4.72 3.903l-3.7 2.136V57.94l3.7-2.136v4.273zm2.87.477l-.83-.478v-4.272l.83.48v4.27zm1.02-6.037L5.928 35.81l2.681-1.548v1.55c0 .365.195.702.51.884l28.698 16.566a1.02 1.02 0 0 0 1.02 0l17.218-9.941a1.02 1.02 0 0 0 .51-.884v-1.544l2.68 1.547-20.918 12.077zm21.937-6.041L39.346 60.554v-4.27l20.918-12.076v4.269z" fill="#213A72"/><path d="M43.564 32.49a1.02 1.02 0 0 0-.373-1.393L19.888 17.646a1.02 1.02 0 0 0-1.393.373L13 27.535a1.02 1.02 0 0 0 .373 1.393l23.304 13.455a1.02 1.02 0 0 0 1.394-.374l5.494-9.518zm-3.636 2.22l-7.806-4.506 1.36-2.356 7.806 4.506-1.36 2.356zm-3.115 5.396L15.276 27.67l4.476-7.749 11.963 6.906-1.87 3.24a1.02 1.02 0 0 0 .374 1.393l8.689 5.016-2.095 3.629z" fill="#213A72"/><path d="M27.358 26.422l-5.74-3.316a1.02 1.02 0 1 0-1.02 1.766l5.74 3.316a1.02 1.02 0 0 0 1.02-1.766z" fill="#213A72"/></svg>