<svg width="25" height="25" fill="none" xmlns="http://www.w3.org/2000/svg"><g clip-path="url(#clip0)" fill="#4479BC"><path d="M23.913 0H7.61a.815.815 0 0 0-.815.815v16.848c0 .45.365.815.815.815h16.304c.45 0 .816-.365.816-.815V.815A.815.815 0 0 0 23.913 0zm-.815 6.522h-2.445a.815.815 0 0 0 0 1.63h2.445v8.696H12.772v-2.446a.815.815 0 0 0-1.63 0v2.446H8.424V1.63h2.718v8.968a.815.815 0 0 0 1.63 0V8.152h4.076a.815.815 0 0 0 0-1.63h-4.076V1.63h10.326v4.892zm1.392 15.456l-1.63-1.63a.815.815 0 0 0-1.153 1.152l.239.24H6.316l.24-.24a.815.815 0 1 0-1.153-1.152l-1.63 1.63a.817.817 0 0 0 0 1.153l1.63 1.63a.815.815 0 1 0 1.153-1.153l-.24-.238h15.63l-.239.238a.815.815 0 1 0 1.153 1.153l1.63-1.63a.817.817 0 0 0 0-1.153zM3.771 17.087l-.239.238V2.783l.24.24a.815.815 0 1 0 1.152-1.154L3.294.24a.815.815 0 0 0-1.153 0L.51 1.869a.815.815 0 1 0 1.152 1.153l.239-.239v14.542l-.239-.238A.815.815 0 1 0 .51 18.239l1.63 1.63a.815.815 0 0 0 1.154 0l1.63-1.63a.815.815 0 1 0-1.153-1.152z"/></g><defs><clipPath id="clip0"><path fill="#fff" d="M0 0h25v25H0z"/></clipPath></defs></svg>