<svg xmlns="http://www.w3.org/2000/svg" width="327" height="189"><g opacity=".6"><path fill="#fd7800" fill-opacity=".15" d="M170.366 34.33c36.41-6.31 76.24 1.518 111.657 21.945 14.656 8.453 29.952 21.099 33.764 38.671 4.17 19.213-7.153 35.983-19.809 47.004-29.548 25.736-68.554 35.574-107.21 41.399-29.182 4.398-59.192 6.819-89.392.952-30.2-5.868-60.863-20.7-83.683-46.276-6.36-7.128-12.256-15.455-14.272-24.897-2.305-10.795.924-21.575 6.698-29.32 5.773-7.745 13.847-12.854 22.14-17.08C57.44 52.872 88.05 47.26 118.313 41.76c33.62-6.108 68.408-12.165 103.227-2.196"/><path fill="none" stroke="#fff" stroke-miterlimit="50" d="M170.366 34.33c36.41-6.31 76.24 1.518 111.657 21.945 14.656 8.453 29.952 21.099 33.764 38.671 4.17 19.213-7.153 35.983-19.809 47.004-29.548 25.736-68.554 35.574-107.21 41.399-29.182 4.398-59.192 6.819-89.392.952-30.2-5.868-60.863-20.7-83.683-46.276-6.36-7.128-12.256-15.455-14.272-24.897-2.305-10.795.924-21.575 6.698-29.32 5.773-7.745 13.847-12.854 22.14-17.08C57.44 52.872 88.05 47.26 118.313 41.76c33.62-6.108 68.408-12.165 103.227-2.196"/></g><path fill="#ffebd9" d="M163.749 11.022c33.585-12.155 100.612-13.736 137.78 0 15.381 5.683 47.471 53.404 0 98.978-23.764 29.697-59.224 29.254-95.03 41.317-27.029 9.108-55.182 16.451-84.92 15.853-29.738-.599-61.433-9.746-87.484-30.538-7.26-5.796-14.283-12.822-17.8-21.569-4.023-10-2.775-20.912 1.41-29.327C21.886 77.319 22.822 54.452 30 49c23.525-17.871 29.128-20.653 57-31C117.965 6.505 178.514 3.735 213.341 7.508"/><path fill="none" stroke="#fff" stroke-miterlimit="50" d="M163.749 11.022c33.585-12.155 100.612-13.736 137.78 0 15.381 5.683 47.471 53.404 0 98.978-23.764 29.697-59.224 29.254-95.03 41.317-27.029 9.108-55.182 16.451-84.92 15.853-29.738-.599-61.433-9.746-87.484-30.538-7.26-5.796-14.283-12.822-17.8-21.569-4.023-10-2.775-20.912 1.41-29.327C21.886 77.319 22.822 54.452 30 49c23.525-17.871 29.128-20.653 57-31C117.965 6.505 178.514 3.735 213.341 7.508"/></svg>