<svg xmlns="http://www.w3.org/2000/svg" width="265" height="158"><g opacity=".6"><path fill="#fd7800" fill-opacity=".15" d="M154.349 7.742c31.175-.91 62.722 12.602 88.435 37.878 10.64 10.459 21.081 25.14 21.179 43.002.108 19.528-12.158 34.394-24.528 43.404-28.88 21.04-62.813 25.047-95.76 25.152-24.873.08-50.086-1.907-74.017-12.085-23.932-10.177-46.687-29.25-61.099-57.762-4.016-7.946-7.442-17.006-7.468-26.598-.03-10.967 4.51-21.113 10.625-27.899 6.115-6.787 13.672-10.642 21.257-13.596 24.862-9.684 51.125-10.753 77.082-11.76 28.836-1.118 58.628-2.015 85.662 12.875"/><path fill="none" stroke="#fff" stroke-miterlimit="50" d="M154.349 7.742c31.175-.91 62.722 12.602 88.435 37.878 10.64 10.459 21.081 25.14 21.179 43.002.108 19.528-12.158 34.394-24.528 43.404-28.88 21.04-62.813 25.047-95.76 25.152-24.873.08-50.086-1.907-74.017-12.085-23.932-10.177-46.687-29.25-61.099-57.762-4.016-7.946-7.442-17.006-7.468-26.598-.03-10.967 4.51-21.113 10.625-27.899 6.115-6.787 13.672-10.642 21.257-13.596 24.862-9.684 51.125-10.753 77.082-11.76 28.836-1.118 58.628-2.015 85.662 12.875"/></g><path fill="#ffebd9" d="M151.455 1.84c30.084-4.018 61.538 5.887 88.174 27.768 11.021 9.053 22.147 22.214 23.493 39.494 1.472 18.892-9.349 34.516-20.68 44.483-26.455 23.273-58.99 30.565-90.844 33.982-24.047 2.58-48.569 3.194-72.424-4.25-23.856-7.444-47.198-23.617-63.131-49.765-4.441-7.288-8.388-15.713-9.085-24.995-.797-10.613 2.883-20.891 8.32-28.075 5.439-7.185 12.477-11.677 19.605-15.3 23.365-11.876 48.688-15.553 73.718-19.14 27.808-3.984 56.555-7.85 83.742 3.843"/><path fill="none" stroke="#fff" stroke-miterlimit="50" d="M151.455 1.84c30.084-4.018 61.538 5.887 88.174 27.768 11.021 9.053 22.147 22.214 23.493 39.494 1.472 18.892-9.349 34.516-20.68 44.483-26.455 23.273-58.99 30.565-90.844 33.982-24.047 2.58-48.569 3.194-72.424-4.25-23.856-7.444-47.198-23.617-63.131-49.765-4.441-7.288-8.388-15.713-9.085-24.995-.797-10.613 2.883-20.891 8.32-28.075 5.439-7.185 12.477-11.677 19.605-15.3 23.365-11.876 48.688-15.553 73.718-19.14 27.808-3.984 56.555-7.85 83.742 3.843"/></svg>