<svg xmlns="http://www.w3.org/2000/svg" width="314" height="176"><g opacity=".6"><path fill="#fd7800" fill-opacity=".15" d="M175.348 8.093c36.593-3.78 75.21 8.26 108.254 33.753 13.674 10.548 27.578 25.756 29.658 45.381 2.275 21.456-10.527 38.891-24.095 49.899-31.678 25.703-71.177 33.132-109.945 36.185-29.265 2.306-59.16 2.37-88.446-6.685-29.287-9.054-58.169-27.992-78.267-58.047-5.601-8.377-10.63-18.03-11.715-28.572-1.242-12.053 2.986-23.61 9.437-31.615 6.45-8.006 14.921-12.917 23.524-16.84 28.198-12.863 58.991-16.379 89.431-19.8 33.818-3.8 68.784-7.442 102.241 6.515"/><path fill="none" stroke="#fff" stroke-miterlimit="50" d="M175.348 8.093c36.593-3.78 75.21 8.26 108.254 33.753 13.674 10.548 27.578 25.756 29.658 45.381 2.275 21.456-10.527 38.891-24.095 49.899-31.678 25.703-71.177 33.132-109.945 36.185-29.265 2.306-59.16 2.37-88.446-6.685-29.287-9.054-58.169-27.992-78.267-58.047-5.601-8.377-10.63-18.03-11.715-28.572-1.242-12.053 2.986-23.61 9.437-31.615 6.45-8.006 14.921-12.917 23.524-16.84 28.198-12.863 58.991-16.379 89.431-19.8 33.818-3.8 68.784-7.442 102.241 6.515"/></g><path fill="#ffebd9" d="M170.824 3.029c34.992-7.032 73.138 1.025 106.937 22.585 13.986 8.92 28.548 22.32 32.047 41.077 3.828 20.506-7.188 38.523-19.43 50.406-28.584 27.745-66.1 38.569-103.242 45.1-28.04 4.93-56.855 7.754-85.78 1.719-28.924-6.035-58.21-21.652-79.875-48.814-6.038-7.57-11.621-16.427-13.47-26.505C5.896 77.075 9.092 65.524 14.702 57.2c5.61-8.326 13.403-13.851 21.397-18.435C62.305 23.74 91.726 17.5 120.812 11.383c32.314-6.795 65.748-13.543 99.066-3.158"/><path fill="none" stroke="#fff" stroke-miterlimit="50" d="M170.824 3.029c34.992-7.032 73.138 1.025 106.937 22.585 13.986 8.92 28.548 22.32 32.047 41.077 3.828 20.506-7.188 38.523-19.43 50.406-28.584 27.745-66.1 38.569-103.242 45.1-28.04 4.93-56.855 7.754-85.78 1.719-28.924-6.035-58.21-21.652-79.875-48.814-6.038-7.57-11.621-16.427-13.47-26.505C5.896 77.075 9.092 65.524 14.702 57.2c5.61-8.326 13.403-13.851 21.397-18.435C62.305 23.74 91.726 17.5 120.812 11.383c32.314-6.795 65.748-13.543 99.066-3.158"/></svg>