<svg xmlns="http://www.w3.org/2000/svg" width="267" height="166"><g opacity=".6"><path fill="#fd7800" fill-opacity=".15" d="M143.17 11.33c30.544-6.31 63.958 1.518 93.67 21.945 12.294 8.453 25.126 21.099 28.324 38.671 3.498 19.213-6 35.983-16.618 47.005-24.788 25.735-57.51 35.573-89.939 41.398-24.48 4.398-49.655 6.819-74.99.952-25.335-5.868-51.057-20.7-70.2-46.276C8.08 107.897 3.133 99.57 1.442 90.128c-1.934-10.795.776-21.575 5.62-29.32 4.842-7.745 11.616-12.854 18.572-17.08C48.438 29.872 74.116 24.26 99.503 18.76c28.204-6.108 57.388-12.165 86.597-2.196"/><path fill="none" stroke="#fff" stroke-miterlimit="50" d="M143.17 11.33c30.544-6.31 63.958 1.518 93.67 21.945 12.294 8.453 25.126 21.099 28.324 38.671 3.498 19.213-6 35.983-16.618 47.005-24.788 25.735-57.51 35.573-89.939 41.398-24.48 4.398-49.655 6.819-74.99.952-25.335-5.868-51.057-20.7-70.2-46.276C8.08 107.897 3.133 99.57 1.442 90.128c-1.934-10.795.776-21.575 5.62-29.32 4.842-7.745 11.616-12.854 18.572-17.08C48.438 29.872 74.116 24.26 99.503 18.76c28.204-6.108 57.388-12.165 86.597-2.196"/></g><path fill="#ffebd9" d="M139.296 6.02c28.929-9.181 61.625-4.888 91.656 12.034 12.426 7.002 25.668 18.031 29.994 34.815 4.73 18.349-3.213 35.615-12.641 47.398-22.012 27.513-52.786 40.344-83.563 49.241-23.234 6.717-47.276 11.579-72.062 8.39-24.786-3.187-50.582-15.062-70.814-38.046-5.638-6.406-10.989-14.017-13.287-23.038-2.628-10.313-.788-21.074 3.32-29.093 4.107-8.02 10.259-13.666 16.65-18.472C49.495 33.497 73.794 25.48 97.822 17.6 124.516 8.847 152.156.05 180.959 6.843"/><path fill="none" stroke="#fff" stroke-miterlimit="50" d="M139.296 6.02c28.929-9.181 61.625-4.888 91.656 12.034 12.426 7.002 25.668 18.031 29.994 34.815 4.73 18.349-3.213 35.615-12.641 47.398-22.012 27.513-52.786 40.344-83.563 49.241-23.234 6.717-47.276 11.579-72.062 8.39-24.786-3.187-50.582-15.062-70.814-38.046-5.638-6.406-10.989-14.017-13.287-23.038-2.628-10.313-.788-21.074 3.32-29.093 4.107-8.02 10.259-13.666 16.65-18.472C49.495 33.497 73.794 25.48 97.822 17.6 124.516 8.847 152.156.05 180.959 6.843"/></svg>