<svg xmlns="http://www.w3.org/2000/svg" width="315" height="176"><g opacity=".6"><path fill="#fd7800" fill-opacity=".15" d="M175.371 8.093c36.594-3.78 75.21 8.26 108.255 33.753 13.673 10.548 27.578 25.756 29.657 45.381 2.276 21.456-10.527 38.891-24.095 49.899-31.678 25.703-71.177 33.132-109.944 36.185-29.266 2.306-59.16 2.37-88.447-6.685-29.287-9.054-58.168-27.992-78.266-58.047C6.929 100.202 1.9 90.549.815 80.007c-1.241-12.053 2.986-23.61 9.437-31.615 6.45-8.006 14.922-12.917 23.524-16.84 28.198-12.863 58.992-16.379 89.432-19.8 33.817-3.8 68.784-7.442 102.24 6.515"/><path fill="none" stroke="#fff" stroke-miterlimit="50" d="M175.371 8.093c36.594-3.78 75.21 8.26 108.255 33.753 13.673 10.548 27.578 25.756 29.657 45.381 2.276 21.456-10.527 38.891-24.095 49.899-31.678 25.703-71.177 33.132-109.944 36.185-29.266 2.306-59.16 2.37-88.447-6.685-29.287-9.054-58.168-27.992-78.266-58.047C6.929 100.202 1.9 90.549.815 80.007c-1.241-12.053 2.986-23.61 9.437-31.615 6.45-8.006 14.922-12.917 23.524-16.84 28.198-12.863 58.992-16.379 89.432-19.8 33.817-3.8 68.784-7.442 102.24 6.515"/></g><path fill="#ffebd9" d="M170.848 3.029c34.991-7.032 73.138 1.025 106.936 22.585 13.986 8.92 28.549 22.32 32.048 41.077 3.827 20.506-7.188 38.523-19.431 50.406-28.584 27.745-66.099 38.569-103.242 45.1-28.039 4.93-56.855 7.754-85.78 1.719-28.924-6.035-58.21-21.652-79.875-48.814-6.038-7.57-11.62-16.427-13.47-26.505C5.92 77.075 9.116 65.524 14.726 57.2c5.609-8.326 13.402-13.851 21.397-18.435C62.329 23.74 91.749 17.5 120.836 11.383 153.149 4.588 186.583-2.16 219.9 8.225"/><path fill="none" stroke="#fff" stroke-miterlimit="50" d="M170.848 3.029c34.991-7.032 73.138 1.025 106.936 22.585 13.986 8.92 28.549 22.32 32.048 41.077 3.827 20.506-7.188 38.523-19.431 50.406-28.584 27.745-66.099 38.569-103.242 45.1-28.039 4.93-56.855 7.754-85.78 1.719-28.924-6.035-58.21-21.652-79.875-48.814-6.038-7.57-11.62-16.427-13.47-26.505C5.92 77.075 9.116 65.524 14.726 57.2c5.609-8.326 13.402-13.851 21.397-18.435C62.329 23.74 91.749 17.5 120.836 11.383 153.149 4.588 186.583-2.16 219.9 8.225"/></svg>