<svg width="16" height="16" fill="none" xmlns="http://www.w3.org/2000/svg"><path d="M14.094 8.841h-2.375a.625.625 0 1 0 0 1.25h.867l-3 2.999a.625.625 0 1 0 .884.884l2.998-2.998v.866a.625.625 0 1 0 1.25 0V9.466a.626.626 0 0 0-.625-.625zm1.281-6.997h-3.688a.625.625 0 0 0-.624.625V5.53H8a.625.625 0 0 0-.625.625V9.22H4.313a.625.625 0 0 0-.625.625v3.062H.625a.625.625 0 0 0 0 1.25h3.688a.625.625 0 0 0 .625-.625V10.47H8a.625.625 0 0 0 .625-.625V6.78h3.063a.625.625 0 0 0 .624-.625V3.094h3.063a.625.625 0 1 0 0-1.25z" fill="#4479BC"/></svg>