<svg width="25" height="25" fill="none" xmlns="http://www.w3.org/2000/svg"><path d="M22.022 13.815h-3.71a.977.977 0 1 0 0 1.953h1.353l-4.685 4.684a.977.977 0 1 0 1.381 1.381l4.685-4.684v1.353a.977.977 0 1 0 1.953 0V14.79a.978.978 0 0 0-.977-.976zM24.023 2.88h-5.761a.977.977 0 0 0-.977.977v4.786H12.5a.977.977 0 0 0-.976.976v4.785H6.738a.977.977 0 0 0-.976.977v4.785H.977a.977.977 0 1 0 0 1.953h5.761a.976.976 0 0 0 .977-.976v-4.786H12.5a.977.977 0 0 0 .977-.976v-4.785h4.785a.976.976 0 0 0 .976-.977V4.834h4.785a.977.977 0 1 0 0-1.953z" fill="#4479BC"/></svg>