<svg width="25" height="25" fill="none" xmlns="http://www.w3.org/2000/svg"><g clip-path="url(#clip0)"><path fill-rule="evenodd" clip-rule="evenodd" d="M7.61 0h16.303c.45 0 .816.365.816.815v16.848c0 .45-.365.815-.816.815H7.61a.815.815 0 0 1-.815-.815V.815c0-.45.365-.815.815-.815zm15.488 16.848V1.63H8.424v15.218h14.674z" fill="#4479BC"/><path d="M24.49 21.978l-1.63-1.63a.815.815 0 0 0-1.153 1.152l.239.24H6.316l.24-.24a.815.815 0 1 0-1.153-1.152l-1.63 1.63a.817.817 0 0 0 0 1.153l1.63 1.63a.815.815 0 1 0 1.153-1.153l-.24-.238h15.63l-.239.238a.815.815 0 1 0 1.153 1.153l1.63-1.63a.817.817 0 0 0 0-1.153zM3.771 17.087l-.239.238V2.783l.24.24a.815.815 0 1 0 1.152-1.154L3.294.24a.815.815 0 0 0-1.153 0L.51 1.869a.815.815 0 1 0 1.152 1.153l.239-.239v14.542l-.239-.238A.815.815 0 1 0 .51 18.239l1.63 1.63a.815.815 0 0 0 1.154 0l1.63-1.63a.815.815 0 1 0-1.153-1.152z" fill="#4479BC"/><path d="M12 8.344L14.667 11 20 6" stroke="#4479BC" stroke-width="2" stroke-linecap="round"/></g><defs><clipPath id="clip0"><path fill="#fff" d="M0 0h25v25H0z"/></clipPath></defs></svg>