<svg xmlns="http://www.w3.org/2000/svg" viewBox="0 0 96 96"><defs><style>.cls-1{fill:#4a5059}</style></defs><g id="Слой_2" data-name="Слой 2"><g id="layout"><path class="cls-1" d="M89 71.23V41a2 2 0 00-4 0v20.77A24 24 0 0067 48v-4.61a10.42 10.42 0 005.57-7.17c.49-2.09.52-5.08-1-6.63a4.13 4.13 0 00-4.57-.93v-1.45l4.15-2.5a2 2 0 10-2.06-3.42L67 22.54V19a8 8 0 00-8-8H37a8 8 0 00-8 8v3.54l-2.09-1.25a2 2 0 10-2.06 3.42l4.15 2.5v1.45a4.13 4.13 0 00-4.54.93c-1.55 1.55-1.52 4.54-1 6.63A10.42 10.42 0 0029 43.39V48a23.94 23.94 0 00-16.13 10A4 4 0 0010 55.14V23a2 2 0 012-2 2 2 0 000-4 6 6 0 00-6 6v20H4v-2a2 2 0 00-4 0v9a2 2 0 004 0v-3h2v8a4 4 0 00-4 4v15.36A8.91 8.91 0 000 80v9c0 4.19 3.21 7 8 7h2c4.79 0 8-2.81 8-7v-9a9 9 0 00-5-8v-5.42a2 2 0 00.52-.81A20.55 20.55 0 0116.36 60l8.42 20.33V94a2 2 0 004 0V79.91a2.07 2.07 0 00-.15-.77l-9.28-22.41A20.08 20.08 0 0129 52v20a8 8 0 008 8h22a8 8 0 008-8V52.08a20.19 20.19 0 019.72 4.86l-9.2 22.2a2.07 2.07 0 00-.15.77V94a2 2 0 004 0V80.31l8.28-20a20 20 0 012.81 6.19l1.36 5.07A9 9 0 0078 80v8a8 8 0 008 8h2a8 8 0 008-8v-8a9 9 0 00-7-8.77zM10 92H8c-1.2 0-4-.29-4-3v-9a5 5 0 018.56-3.5H10a2 2 0 000 4h4v1h-4a2 2 0 000 4h4v1h-4a2 2 0 000 4h3.61C12.8 91.82 10.93 92 10 92zM6 71.52V59h3v12a9 9 0 00-3 .52zM67.12 34a2.34 2.34 0 01.79-1.27 1.27 1.27 0 01.71-.39 5.61 5.61 0 01-.22 3.75A6.9 6.9 0 0167 38.5v-3.83a1.85 1.85 0 00.12-.67zm-39.56 2.1a5.94 5.94 0 01-.27-3.69.39.39 0 01.09-.07 1.28 1.28 0 01.71.39 2.34 2.34 0 01.79 1.27 1.85 1.85 0 00.12.67v3.83a6.9 6.9 0 01-1.44-2.4zM63 72a4 4 0 01-4 4H37a4 4 0 01-4-4V19a4 4 0 014-4h22a4 4 0 014 4zm29 16a4 4 0 01-4 4h-2a4 4 0 01-3.1-1.5H86a2 2 0 000-4h-4v-1h4a2 2 0 000-4h-4v-1h4a2 2 0 000-4h-2.56A5 5 0 0192 80z"/><path class="cls-1" d="M26.88 16.4a2 2 0 002-2C28.88 4.75 40 4 43.36 4h9c3.4 0 14.49.75 14.49 10.4a2 2 0 104 0C70.88 5.52 63.79 0 52.39 0h-9C32 0 24.88 5.52 24.88 14.4a2 2 0 002 2zM54 29H42a6 6 0 000 12h12a6 6 0 000-12zm0 8H42a2 2 0 010-4h12a2 2 0 010 4zm3 8a2 2 0 00-2 2v12a2 2 0 004 0V47a2 2 0 00-2-2zm0 18a2 2 0 00-2 2v3a2 2 0 004 0v-3a2 2 0 00-2-2zm1.5 22h-12a2 2 0 000 4h12a2 2 0 000-4zm-18 0h-3a2 2 0 000 4h3a2 2 0 000-4z"/></g></g></svg>