<svg xmlns="http://www.w3.org/2000/svg" viewBox="0 0 96 96"><defs><style>.cls-1{fill:#4a5059}</style></defs><g id="Слой_2" data-name="Слой 2"><g id="layout"><path class="cls-1" d="M94 49a2 2 0 00-2 2v12.07a1.88 1.88 0 00-.77.39 22.29 22.29 0 01-7.78 4.16 12.66 12.66 0 01-8.56-.73 17.57 17.57 0 00-8.5-2 17.87 17.87 0 00-6.83 2.3l-1.33.66a12.44 12.44 0 01-10.42.09l-4.51-2c-5.46-2.46-10.3-.05-13.83 1.7a11.88 11.88 0 01-8.41.79 2.19 2.19 0 000-.36V12H55.5v12a2 2 0 000 .43l.59 2.66a2.16 2.16 0 00.24.61 19.69 19.69 0 012 5.25 17.75 17.75 0 01.67 6.36 2 2 0 000 .74l.53 2.38a2 2 0 002 1.57H62v4a2 2 0 004 0v-4h.5a2 2 0 002-1.57l.5-2.38a2 2 0 000-.74 17.52 17.52 0 01.57-6.31 19.69 19.69 0 012.05-5.25 2.16 2.16 0 00.24-.61l.59-2.66a2 2 0 000-.43V12h7.93a6 6 0 100-12H2a2 2 0 00-2 2v92a2 2 0 002 2h92a2 2 0 002-2V51a2 2 0 00-2-2zM17.09 24H4v-4h13.09zM4 28h13.09v4H4zm64.5-4.22l-.5 2.14A24 24 0 0065.69 32a22.19 22.19 0 00-.69 7.53l-.1.47h-1.8l-.1-.47a22.45 22.45 0 00-.69-7.53A24 24 0 0060 25.92l-.47-2.14V12h9zM80.43 4a2 2 0 110 4H19.09a2 2 0 00-2 2v6H4V4zM21 92V76a2 2 0 00-4 0v16H4V36h13.09v32a2 2 0 00.53 1.35v.08a2 2 0 001.33 2.5 16 16 0 0012.33-.78c3.91-1.94 6.94-3.19 10.41-1.63l4.51 2a16.41 16.41 0 0013.77-.13c.47-.22.94-.46 1.41-.69a14.32 14.32 0 015.3-1.89 13.84 13.84 0 016.53 1.67 16.72 16.72 0 0011.31 1A25.84 25.84 0 0092 67.87V92z"/><path class="cls-1" d="M31 54a2 2 0 000 4h28a2 2 0 000-4zm36 2a2 2 0 002 2h18a2 2 0 000-4H69a2 2 0 00-2 2zm-1.16-2.77a2.21 2.21 0 00-.18-.34 2.42 2.42 0 00-.25-.31 1.76 1.76 0 00-.3-.24 1.7 1.7 0 00-.35-.19 1.58 1.58 0 00-.37-.11 2 2 0 00-.78 0 1.66 1.66 0 00-.38.11 1.63 1.63 0 00-.34.19 2.34 2.34 0 00-.31.24 3.76 3.76 0 00-.25.31 2.21 2.21 0 00-.18.34 1.66 1.66 0 00-.11.38 1.92 1.92 0 000 .78 1.58 1.58 0 00.11.37 2.31 2.31 0 00.18.35 2.48 2.48 0 00.25.3 2.42 2.42 0 00.31.25 2.21 2.21 0 00.34.18 2.4 2.4 0 00.38.12A2.45 2.45 0 0064 56a2 2 0 001.41-.59 1.81 1.81 0 00.25-.3 2.31 2.31 0 00.18-.35 2.29 2.29 0 00.12-.37 1.92 1.92 0 000-.78 2.4 2.4 0 00-.12-.38z"/></g></g></svg>