<svg xmlns="http://www.w3.org/2000/svg" viewBox="0 0 96 96"><path d="M94 92h-.5v-8a6 6 0 00-6-6V31a2 2 0 00-1.29-1.87L75.33 25v-5c0-3.31-2.31-6-5.16-6h-6.34c-2.84 0-5.16 2.69-5.16 6v5l-3 1.14v-7.82a2 2 0 00-1.36-1.9L42 12.24a1.94 1.94 0 000-.24V6a6 6 0 00-6-6h-8a6 6 0 00-6 6v6.3L9.86 16.42a2 2 0 00-1.36 1.9V78a6 6 0 00-6 6v8H2a2 2 0 000 4h13a2 2 0 000-4H6.5v-8a2 2 0 012-2h79a2 2 0 012 2v8H23a2 2 0 000 4h71a2 2 0 000-4zM62.67 20c0-1.13.62-2 1.16-2h6.34c.54 0 1.16.87 1.16 2v3.5l-3.62-1.37a2 2 0 00-1.42 0l-3.62 1.37zM26 6a2 2 0 012-2h8a2 2 0 012 2v4.89l-5.27-1.78a1.91 1.91 0 00-1.29 0L26 11zM12.5 19.75l19.58-6.64 19.59 6.64V22h-27a2 2 0 000 4h27v22.93a2 2 0 004 0v-18.5L67 26.14l16.5 6.24V35H70.67a2 2 0 000 4H83.5v39H63.67V44a2 2 0 00-4 0v34h-4V60a2 2 0 00-4 0v18H24V40a2 2 0 00-4 0v38h-7.5z" fill="#4a5059" data-name="Слой 2"/></svg>