<svg xmlns="http://www.w3.org/2000/svg" viewBox="0 0 96 98"><defs><style>.cls-1{fill:#4a5059}</style></defs><g id="Слой_2" data-name="Слой 2"><g id="layout"><path class="cls-1" d="M67 36a6 6 0 00-6-6H35a6 6 0 00-6 6v26a6 6 0 006 6h26a6 6 0 006-6zm-12.5-2v30h-13V34zM33 62V36a2 2 0 012-2h2.5v30H35a2 2 0 01-2-2zm30 0a2 2 0 01-2 2h-2.5V34H61a2 2 0 012 2z"/><path class="cls-1" d="M90 24.64A12.42 12.42 0 0096 14v-.52A12.48 12.48 0 0083.53 1h-1a12.43 12.43 0 00-10.7 6A28.44 28.44 0 0158.5 18.6V2a2 2 0 00-2-2h-17a2 2 0 00-2 2v17A28.41 28.41 0 0123.12 7 12.46 12.46 0 000 13.47v1a12.43 12.43 0 006 10.7 28.45 28.45 0 0113.86 24.35A28.48 28.48 0 016 73.88 12.46 12.46 0 0012.47 97H13a12.42 12.42 0 0010.65-6A28.42 28.42 0 0137.5 79.18V96a2 2 0 002 2h17a2 2 0 002-2V79.18A28.42 28.42 0 0172.36 91 12.42 12.42 0 0083 97h.52A12.48 12.48 0 0096 84.53V84a12.42 12.42 0 00-6-10.65 28.34 28.34 0 010-48.72zM41.5 4h13v16a27.92 27.92 0 01-7 .9 28.38 28.38 0 01-6-.65zm13 90h-13V77.92a27.47 27.47 0 0113 0zm17.64-45A32.5 32.5 0 0088 76.8a8.39 8.39 0 014 7.2v.52A8.48 8.48 0 0183.53 93H83a8.42 8.42 0 01-7.22-4 32.32 32.32 0 00-55.58 0 8.42 8.42 0 01-7.2 4h-.52A8.46 8.46 0 018 77.32a32.5 32.5 0 0015.82-27.8A32.48 32.48 0 008 21.73a8.42 8.42 0 01-4-7.22v-1A8.46 8.46 0 0119.68 9a32.5 32.5 0 0027.8 15.82 32.07 32.07 0 009.27-1.39 2 2 0 00.65-.19A32.49 32.49 0 0075.27 9a8.41 8.41 0 017.22-4h1A8.48 8.48 0 0192 13.47V14a8.39 8.39 0 01-4 7.21A32.5 32.5 0 0072.14 49z"/><path class="cls-1" d="M82 8a6 6 0 106 6 6 6 0 00-6-6zm0 8a2 2 0 112-2 2 2 0 01-2 2zM13 8a6 6 0 106 6 6 6 0 00-6-6zm0 8a2 2 0 112-2 2 2 0 01-2 2zm70 75a6 6 0 10-6-6 6 6 0 006 6zm0-8a2 2 0 11-2 2 2 2 0 012-2zm-70-4a6 6 0 106 6 6 6 0 00-6-6zm0 8a2 2 0 112-2 2 2 0 01-2 2zm60.41-66.07l-5.65 5.66A2 2 0 0069.17 30a2 2 0 001.42-.59l5.65-5.65a2 2 0 00-2.83-2.83zm-51.82 0a2 2 0 10-2.83 2.83l5.65 5.65a2 2 0 001.42.59 2 2 0 001.41-3.41zm45.67 48a2 2 0 000 2.83l5.65 5.65a2 2 0 001.42.59 2 2 0 001.41-3.41l-5.65-5.66a2 2 0 00-2.83 0zm-43.35 0l-5.65 5.66A2 2 0 0019.67 78a2 2 0 001.42-.59l5.65-5.65a2 2 0 10-2.83-2.83zM48 59a5 5 0 005-5v-9.23a5 5 0 00-10 0V54a5 5 0 005 5zm-1-14.23a1 1 0 012 0V54a1 1 0 01-2 0v-9.23z"/></g></g></svg>