<svg xmlns="http://www.w3.org/2000/svg" viewBox="0 0 35.79 35.79"><defs><style>.cls-1{fill:#dedfe1}</style></defs><g id="Слой_2" data-name="Слой 2"><g id="layout"><path class="cls-1" d="M17.9 9.88a8 8 0 108 8 8 8 0 00-8-8zm0 14.55a6.53 6.53 0 116.53-6.53 6.54 6.54 0 01-6.53 6.53z"/><path class="cls-1" d="M24.56 24.41A9.32 9.32 0 1117.9 8.58a9.22 9.22 0 016.59 2.73.74.74 0 001.05 0 .75.75 0 000-1.06 10.81 10.81 0 10.09 15.2.74.74 0 000-1.05.75.75 0 00-1.07.01zm3.25-4.63a.76.76 0 00-.91.53 9.25 9.25 0 01-.66 1.75.74.74 0 00.33 1 .8.8 0 00.33.08.74.74 0 00.67-.41 10 10 0 00.77-2 .75.75 0 00-.53-.95z"/><path class="cls-1" d="M17.9 14.82A3.08 3.08 0 1021 17.9a3.08 3.08 0 00-3.1-3.08zm0 4.66a1.59 1.59 0 111.58-1.58 1.59 1.59 0 01-1.58 1.58z"/><path class="cls-1" d="M35.12 13.84l-3.35-.31a15.13 15.13 0 00-1-2.35l2.15-2.59a.73.73 0 000-1L28.21 2.9a.76.76 0 00-1 0L24.61 5a14.17 14.17 0 00-2.35-1L22 .68a.73.73 0 00-.79-.68h-6.63a.75.75 0 00-.74.68L13.53 4a14.17 14.17 0 00-2.35 1L8.59 2.85a.76.76 0 00-1 0L2.9 7.59a.75.75 0 000 1L5 11.18a14.39 14.39 0 00-1 2.34l-3.35.31a.75.75 0 00-.68.74v6.63a.73.73 0 00.71.8l3.32.26a14.17 14.17 0 001 2.35L2.85 27.2a.76.76 0 000 1l4.68 4.68a.74.74 0 001 0l2.59-2.15a15.13 15.13 0 002.35 1l.31 3.35a.75.75 0 00.74.67h6.63a.73.73 0 00.74-.67l.31-3.35a15.13 15.13 0 002.35-1l2.59 2.15a.74.74 0 001 0l4.68-4.68a.74.74 0 000-1l-2.15-2.59a15.13 15.13 0 001-2.35l3.45-.26a.73.73 0 00.67-.74v-6.68a.75.75 0 00-.67-.74zm-.82 6.69l-3.18.29a.77.77 0 00-.65.55 12.74 12.74 0 01-1.22 3 .74.74 0 00.07.85l2 2.45-3.73 3.73-2.45-2a.74.74 0 00-.85-.07 12.74 12.74 0 01-3 1.22.77.77 0 00-.55.65l-.29 3.18h-5.19L15 31.12a.77.77 0 00-.55-.65 12.74 12.74 0 01-3-1.22.74.74 0 00-.85.07l-2.45 2-3.72-3.69 2-2.45a.76.76 0 00.08-.85 12.77 12.77 0 01-1.23-3 .75.75 0 00-.65-.55l-3.18-.29v-5.23L4.67 15a.75.75 0 00.65-.55 13.15 13.15 0 011-2.54c.07-.14.15-.28.23-.42a.76.76 0 00-.08-.85l-2-2.45 3.69-3.76 2.45 2a.76.76 0 00.85.08 12.77 12.77 0 013-1.23.75.75 0 00.54-.61l.29-3.18h5.27l.29 3.18a.75.75 0 00.55.65 12.77 12.77 0 013 1.23.76.76 0 00.85-.08l2.45-2 3.73 3.73-2 2.45a.74.74 0 00-.07.85 12.74 12.74 0 011.22 3 .77.77 0 00.65.55l3.18.29z"/></g></g></svg>