<svg xmlns="http://www.w3.org/2000/svg" viewBox="0 0 35.79 35.79"><path d="M30.58 26.76a3 3 0 01-1.94-.65 3.8 3.8 0 00-4.56 0 3 3 0 01-1.94.65 3 3 0 01-1.93-.65 3.82 3.82 0 00-4.57 0 3 3 0 01-1.93.65 3 3 0 01-1.94-.65 3.62 3.62 0 00-2.28-.76 3.59 3.59 0 00-2.28.76 3 3 0 01-1.94.65 3 3 0 01-1.93-.65 3.65 3.65 0 00-2.29-.76H.83a.75.75 0 01-.06-1.49h.28a5 5 0 013.11 1 1.62 1.62 0 001.11.4 1.62 1.62 0 001.11-.4 5 5 0 013.11-1 5 5 0 013.1 1 1.64 1.64 0 001.12.4 1.62 1.62 0 001.11-.4 5.28 5.28 0 016.21 0 1.62 1.62 0 001.11.4 1.6 1.6 0 001.11-.4 5.29 5.29 0 016.22 0 1.6 1.6 0 001.11.4 1.62 1.62 0 001.11-.4 5 5 0 013.11-1h.28a.75.75 0 01-.08 1.5h-.2a3.59 3.59 0 00-2.28.76 3 3 0 01-1.94.64zm0 4.52a3.08 3.08 0 01-1.94-.65 3.54 3.54 0 00-2.28-.76 3.62 3.62 0 00-2.28.75 3 3 0 01-1.94.66 3 3 0 01-1.93-.66 3.65 3.65 0 00-2.29-.75 3.58 3.58 0 00-2.28.76 3.05 3.05 0 01-1.93.65 3.08 3.08 0 01-1.94-.65 3.56 3.56 0 00-2.28-.76 3.54 3.54 0 00-2.28.76 3.11 3.11 0 01-1.94.65 3.05 3.05 0 01-1.93-.65 3.59 3.59 0 00-2.29-.76H.83a.75.75 0 01-.77-.71.74.74 0 01.71-.78h.28a5.1 5.1 0 013.11 1 1.58 1.58 0 001.11.41 1.58 1.58 0 001.11-.41 5.1 5.1 0 013.11-1 5 5 0 013.1 1 1.61 1.61 0 001.12.41 1.58 1.58 0 001.11-.41 5.32 5.32 0 016.21 0 1.58 1.58 0 001.11.41 1.57 1.57 0 001.11-.41 5.34 5.34 0 016.22 0 1.57 1.57 0 001.11.41 1.58 1.58 0 001.11-.41 5.1 5.1 0 013.11-1h.28a.75.75 0 11-.08 1.49h-.2a3.54 3.54 0 00-2.28.76 3.11 3.11 0 01-1.94.65zm0 4.51a3 3 0 01-1.94-.65 3.8 3.8 0 00-4.56 0 3 3 0 01-1.94.65 3 3 0 01-1.93-.65 3.82 3.82 0 00-4.57 0 3 3 0 01-1.93.65 3 3 0 01-1.94-.65 3.62 3.62 0 00-2.28-.76 3.59 3.59 0 00-2.28.76 3 3 0 01-1.94.65 3 3 0 01-1.93-.65 3.65 3.65 0 00-2.29-.76H.83a.75.75 0 01-.77-.71.73.73 0 01.7-.78h.29a5 5 0 013.11 1 1.62 1.62 0 001.11.4 1.62 1.62 0 001.11-.4 5 5 0 013.11-1 5 5 0 013.1 1 1.64 1.64 0 001.12.4 1.62 1.62 0 001.11-.4 5.28 5.28 0 016.21 0 1.62 1.62 0 001.11.4 1.6 1.6 0 001.11-.4 5.29 5.29 0 016.22 0 1.6 1.6 0 001.11.4 1.62 1.62 0 001.11-.4 5 5 0 013.11-1h.28a.74.74 0 01.71.78.75.75 0 01-.78.71h-.21a3.59 3.59 0 00-2.28.76 3 3 0 01-1.94.65zM15.61 2.63V.75a.75.75 0 00-.75-.75H7.8a.74.74 0 00-.74.75V2H.74a.74.74 0 00-.74.72v13.2a.74.74 0 00.74.74h6.32v1.24a.74.74 0 00.74.74h7.06a.75.75 0 00.75-.74v-3a6.36 6.36 0 013.6 1.79 6.78 6.78 0 012 5.81.76.76 0 00.18.56.74.74 0 00.53.27h.21a3 3 0 001.87-.64 3.78 3.78 0 014.52 0 3 3 0 001.92.64h.4a3.15 3.15 0 001.53-.62 3.55 3.55 0 012.25-.75H35c.47 0 .71-.34.72-1v-1.2C35.67 11.31 25.85 3 15.61 2.63zm-1.49 14.52H8.55v-3.73a.75.75 0 00-.75-.74.74.74 0 00-.74.74v1.75H1.49V3.47h5.57v5.85a.75.75 0 00.74.75.76.76 0 00.75-.75V1.49h5.57v15.66zm20.06 3.31a5.09 5.09 0 00-2.6 1l-.29.2a16.29 16.29 0 00-1.21-3.47.74.74 0 00-1-.35.75.75 0 00-.35 1 14.43 14.43 0 011 2.88l-.39-.24a5.2 5.2 0 00-6.16 0 4.1 4.1 0 01-.49.29 8.23 8.23 0 00-2.49-6.12 7.72 7.72 0 00-4.63-2.22V9.09a17 17 0 0110.44 5.68.71.71 0 00.55.25.73.73 0 00.5-.19.75.75 0 00.06-1.05 18.43 18.43 0 00-11.51-6.19V4.12c9.49.38 18.58 7.94 18.58 15.64 0 .29 0 .52-.01.7z" fill="#dedfe1" data-name="Слой 2"/></svg>