<svg xmlns="http://www.w3.org/2000/svg" viewBox="0 0 35.79 35.79"><path d="M24 21.55c1.82.91 3.83.82 6.14-.27a5.23 5.23 0 012.16-.23 4.06 4.06 0 002.7-.57.69.69 0 00.11-.13.68.68 0 00.12-.12.75.75 0 00-.1-1.05L21.48 8a.76.76 0 00-.48-.17h-.68v-1A7 7 0 0023.64.75a.75.75 0 00-.75-.75.74.74 0 00-.74.75A5.88 5.88 0 0120.31 5a2.42 2.42 0 00-4.83 0A5.75 5.75 0 0113.65.75a.75.75 0 00-1.5 0 7.09 7.09 0 003.32 6.1v1h-1A.78.78 0 0014 8L.46 18.9l-.08.1v.06a.18.18 0 000 .07 1.4 1.4 0 000 1.33 4.17 4.17 0 003.18 1.69 2.75 2.75 0 00.4 0A10.16 10.16 0 008 20.93a5.31 5.31 0 012.49-.63 5.46 5.46 0 012 .72l.53.26a8.55 8.55 0 002.44.77h.12a4.9 4.9 0 002.68-.36l1.74-.76c1.31-.6 2.47-.12 4 .62zm-2.64-6.94a.75.75 0 00-1.05.1.75.75 0 00.11 1l.44.37-2.96 2.44-2.9-2.39 2.93-2.4.52.43a.72.72 0 00.47.17.74.74 0 00.44-1.33l-.29-.24 2.93-2.4 2.93 2.4-2.93 2.4zm-8.38-.15a.75.75 0 00-.98 1.16l.63.51-3 2.48L6.5 16l3-2.39.5.39a.7.7 0 00.47.17.76.76 0 00.58-.27.75.75 0 00-.05-1.04l-.32-.26 2.95-2.37 3.11 2.54-2.93 2.39zm13.17-.74l3 2.42-2.95 2.47-3-2.48zm6.18 5.83a6.55 6.55 0 00-2.83.38 6.16 6.16 0 01-3.35.72l4.14-3.55 3 2.45zM20.84 9.4l-2.94 2.41-3-2.49h5.88zM17 7.39a4.27 4.27 0 00.71.07.76.76 0 00.75-.75.75.75 0 00-.79-.71 3 3 0 01-.71-.1v-.64a.94.94 0 111.87 0v2.57H17zm-9.66 12.2a8.54 8.54 0 01-3.69 1.1 3.05 3.05 0 01-2-.85l3.67-2.94 2.75 2.37c-.26.1-.51.21-.73.32zm5.82.1a9 9 0 00-1.67-.69l2.3-1.89 2.93 2.39-1.28 1.05a7.5 7.5 0 01-1.77-.59zm6.21-.12l-.9.41L22 17.09l3.05 2.5-.62.53c-1.32-.65-3.08-1.44-5.06-.55zm-.52 5.98c-.28-.6-1-.6-1.33-.6a4.35 4.35 0 00-3.46 1.64 12.15 12.15 0 00-6.66-2.73 6.54 6.54 0 00-4.27 1.58A4.09 4.09 0 001.49 28c0 .71 1.1 2.93 4.48 3.37a14.28 14.28 0 001.83.11 17.81 17.81 0 006.07-1 4.27 4.27 0 003.65 1.93c.32 0 1.05 0 1.33-.61s-.17-1.12-.6-1.62-.89-1-.89-1.52a2.92 2.92 0 01.89-1.51c.43-.48.87-.99.6-1.6zM3 28a4.73 4.73 0 013-2.46 2.79 2.79 0 01.88 2.28c0 1.33-.51 2-.66 2.06h-.1c-2.19-.29-3-1.53-3.12-1.88zm5 2a5.43 5.43 0 00.42-2.16 4.53 4.53 0 00-.6-2.44 11.35 11.35 0 015.59 2.6 3.84 3.84 0 00-.07.69v.41A15.7 15.7 0 018 30zm8.87.9a2.38 2.38 0 01-2-2.19 2.37 2.37 0 012-2.18 3.48 3.48 0 00-1 2.18 3.54 3.54 0 00.99 2.17zm16 1.98a5 5 0 01-1.39-.71 7.11 7.11 0 011.07-.53.75.75 0 00-.55-1.39 9.42 9.42 0 00-1.37.67 8.35 8.35 0 00-4.53-1.84 3.85 3.85 0 00-2.85 1 3.05 3.05 0 00-.92 2c0 .7 1 1.86 3.2 2.14a9.25 9.25 0 001.08.06 9.76 9.76 0 003.93-.75.61.61 0 00.16-.12 6.76 6.76 0 001.7.85.85.85 0 00.23 0 .74.74 0 00.23-1.45zm-7.14-.1a3.09 3.09 0 01-1.88-.78 1.64 1.64 0 01.36-.74 2.29 2.29 0 011.88-.69 6.86 6.86 0 013.5 1.43v.1a.61.61 0 00.06.25 9.42 9.42 0 01-3.92.43zM31 24.23a.75.75 0 00-.75-.74h-9.37a.75.75 0 100 1.49h9.32a.75.75 0 00.8-.75zm4.05-.74h-1.49a.75.75 0 100 1.49h1.49a.75.75 0 000-1.49zM14.91 34.3H5.59a.75.75 0 000 1.49h9.32a.75.75 0 100-1.49zm-12.67 0H.75a.75.75 0 100 1.49h1.49a.75.75 0 000-1.49z" fill="#dedfe1" data-name="Слой 2"/></svg>