<svg xmlns="http://www.w3.org/2000/svg" viewBox="0 0 35.79 35.79"><defs><style>.cls-1{fill:#dedfe1}</style></defs><g id="Слой_2" data-name="Слой 2"><g id="layout"><path class="cls-1" d="M35.62 31.92a.75.75 0 00-1-.1 8.5 8.5 0 01-3 1.61 4.89 4.89 0 01-2.63 0l3.81-12.57a.76.76 0 00-.33-.86l-3-1.85v-5.53a.75.75 0 00-.74-.75h-1.14V9.61a.75.75 0 00-.75-.76h-2.61V6.59a.75.75 0 00-.74-.75h-3.36V.75a.75.75 0 00-.74-.75h-3a.75.75 0 00-.74.75v5.09H12.3a.75.75 0 00-.74.75v2.26H9a.76.76 0 00-.75.76v2.26H7.08a.75.75 0 00-.74.75v5.49l-3 1.89a.75.75 0 00-.32.86l3.8 12.57-.61-.27c-2.44-1.16-4.45.06-5.94 1.3a.76.76 0 00-.1 1.06.74.74 0 00.58.27.72.72 0 00.47-.17c1.75-1.45 3-1.78 4.35-1.14a6.69 6.69 0 006.14.28c1.49-.75 2.65-1.24 4-.63l1.72.78a6.17 6.17 0 005.23 0l.54-.27a5.67 5.67 0 012-.73 5.24 5.24 0 012.49.65 6.3 6.3 0 004.3.37A10.08 10.08 0 0035.52 33a.76.76 0 00.1-1.08zM28 17.19l-6.19-3.82H28zM17.15 1.51h1.49v4.33h-1.49zm-4.1 5.84h9.69v1.5h-9.69zm-3.36 3H26.1v1.51h-6.76l-1.06-.65h-.65l-1.05.65H9.69zm-1.86 3H14l-6.17 3.84zm3.21 20a4.34 4.34 0 01-2.52.42L4.61 20.94l12.54-7.73v19.93l-.85-.39c-2.08-.94-3.92-.02-5.3.66zm14.06-1a6.63 6.63 0 00-2.6.89l-.5.25a4.71 4.71 0 01-3.36.26V13.21l12.54 7.73-3.6 11.88a5.66 5.66 0 00-2.48-.46z"/><path class="cls-1" d="M20.82 16.1a.54.54 0 00-.07-.13.31.31 0 00-.09-.11.73.73 0 00-.67-.21h-.14l-.13.07a1.56 1.56 0 00-.21.21s-.05.08-.07.13a.74.74 0 000 .14 1.13 1.13 0 000 .3.74.74 0 000 .14l.07.13a.52.52 0 00.1.11.31.31 0 00.11.09.57.57 0 00.13.08h.28a.75.75 0 00.53-.22.31.31 0 00.09-.11.83.83 0 00.07-.13.74.74 0 000-.14.57.57 0 000-.3.74.74 0 000-.05zm8.26 7.07a.75.75 0 00.41-1.38l-6.71-4.52a.73.73 0 00-1 .21.75.75 0 00.21 1L28.67 23a.69.69 0 00.41.17zm-12.69-6.93a.74.74 0 000-.14c0-.05-.05-.09-.07-.13a1.56 1.56 0 00-.21-.21l-.11-.07h-.15a.73.73 0 00-.67.21L15 16a.54.54 0 00-.07.13.74.74 0 000 .14.77.77 0 000 .15.75.75 0 00.75.75h.29l.12-.08a.31.31 0 00.11-.09.71.71 0 00.22-.53.76.76 0 00-.03-.23zM13 17.27l-6.7 4.52a.75.75 0 00.41 1.38.69.69 0 00.41-.17l6.72-4.52a.75.75 0 00.2-1 .73.73 0 00-1.04-.21z"/></g></g></svg>