<svg xmlns="http://www.w3.org/2000/svg" viewBox="0 0 35.79 35.79"><defs><style>.cls-1{fill:#dedfe1}</style></defs><g id="Слой_2" data-name="Слой 2"><g id="layout"><path class="cls-1" d="M34.47 18.65l-3.78-7a.76.76 0 00-1-.31.74.74 0 00-.3 1l3.77 7A10.29 10.29 0 0115.21 29.4a10.18 10.18 0 01-.38-10L24 2.33 26.47 7a.77.77 0 001 .31.76.76 0 00.31-1L24.65.39A.76.76 0 0024 0a.75.75 0 00-.66.39L13.5 18.66a11.63 11.63 0 00.22 11.14 9 9 0 01-10.89-3.7 8.83 8.83 0 01-.33-8.74l8-14.85 4.67 8.66a.75.75 0 001.32-.7L11.15.58a.75.75 0 00-.66-.39.76.76 0 00-.66.39L1.17 16.67a10.33 10.33 0 00.38 10.21 10.55 10.55 0 0013 4.2 11.78 11.78 0 0019.92-12.43z"/><path class="cls-1" d="M22.68 31.25a.76.76 0 00.75.75 8.88 8.88 0 008.89-8.1.74.74 0 00-.68-.81.75.75 0 00-.81.67 7.39 7.39 0 01-7.4 6.75.75.75 0 00-.75.74zM5.36 21.56a.74.74 0 00-.75-.74.75.75 0 00-.75.74 6.09 6.09 0 005.59 6.08h.07a.74.74 0 00.06-1.48 4.61 4.61 0 01-4.22-4.6z"/></g></g></svg>