<svg xmlns="http://www.w3.org/2000/svg" viewBox="0 0 35.79 35.79"><defs><style>.cls-1{fill:#dedfe1}</style></defs><g id="Слой_2" data-name="Слой 2"><g id="layout"><path class="cls-1" d="M3 15.45h18.32a6.54 6.54 0 10-6.53-6.53 6 6 0 00.1 1.08.74.74 0 101.47-.24 5.27 5.27 0 01-.08-.84 5 5 0 115 5H3a.74.74 0 00-.74.74.75.75 0 00.74.79zm26.87 8.4H14.08a.77.77 0 000 1.54h15.79a4.43 4.43 0 11-4.32 4.43 5 5 0 01.06-.74.75.75 0 10-1.48-.25 5.82 5.82 0 105.74-5zm-4.14-4.3a.75.75 0 00-.75-.74H7.46a.75.75 0 100 1.49H25a.75.75 0 00.73-.75zm7.45.75h1.87a.75.75 0 000-1.49h-1.87a.75.75 0 000 1.49zm-6.71-.75a.75.75 0 00.75.75H31a.75.75 0 000-1.49h-3.78a.75.75 0 00-.75.74zm-22-.74H.75a.75.75 0 100 1.49h3.72a.75.75 0 100-1.49zm13.8-17.32h1.49a.75.75 0 100-1.49h-1.49a.75.75 0 100 1.49z"/><path class="cls-1" d="M22.48 1.49a6.24 6.24 0 016.23 6.23.75.75 0 101.49 0A7.73 7.73 0 0022.48 0a.74.74 0 00-.74.75.74.74 0 00.74.74z"/></g></g></svg>