<svg xmlns="http://www.w3.org/2000/svg" viewBox="0 0 36 36"><defs><style>.cls-1{fill:#dedfe1}</style></defs><g id="Слой_2" data-name="Слой 2"><g id="layout"><path class="cls-1" d="M19.06 18L35.78 1.28A.75.75 0 0034.72.22L18 16.94 1.28.22A.75.75 0 00.22 1.28L16.94 18 .22 34.72a.75.75 0 000 1.06.75.75 0 001.06 0L18 19.06l16.72 16.72a.75.75 0 001.06 0 .75.75 0 000-1.06z"/><path class="cls-1" d="M33 10.1a.75.75 0 00-1.06 0l-7.37 7.37a.75.75 0 000 1.06l2.64 2.63a.71.71 0 00.53.22.74.74 0 00.53-.22.75.75 0 000-1.06L26.19 18 33 11.16a.74.74 0 000-1.06zm-3.76 12.02a.75.75 0 000 1.06l1.6 1.6a.79.79 0 00.53.22.77.77 0 00.53-.22.74.74 0 000-1.06l-1.6-1.6a.74.74 0 00-1.06 0zM3 25.9a.71.71 0 00.53.22.74.74 0 00.47-.22l7.37-7.37a.75.75 0 000-1.06l-2.6-2.63a.75.75 0 00-1.06 1.06l2.1 2.1L3 24.84a.74.74 0 000 1.06zm3.23-11.8a.74.74 0 00.53-.22.75.75 0 000-1.06l-1.6-1.6a.75.75 0 00-1.06 0 .74.74 0 000 1.06l1.6 1.6a.73.73 0 00.53.22z"/><path class="cls-1" d="M35.25 36a.74.74 0 01-.53-.22L17.47 18.53a.75.75 0 010-1.06L34.72.22a.75.75 0 011.06 1.06L19.06 18l16.72 16.72a.75.75 0 010 1.06.74.74 0 01-.53.22z"/><path class="cls-1" d="M27.76 21.38a.71.71 0 01-.53-.22l-2.64-2.63a.75.75 0 010-1.06L32 10.1a.75.75 0 011.06 0 .74.74 0 010 1.06L26.19 18l2.1 2.1a.75.75 0 010 1.06.74.74 0 01-.53.22zM31.37 25a.79.79 0 01-.53-.22l-1.6-1.6a.75.75 0 010-1.06.74.74 0 011.06 0l1.6 1.6a.74.74 0 010 1.06.77.77 0 01-.53.22z"/></g></g></svg>