<svg version="1.0" xmlns="http://www.w3.org/2000/svg" width="937.333" height="652" viewBox="0 0 703 489"><path d="M108 196.9c-1.2 2.3.2 2.9 2.8 1.2 1-.6 1-1-.2-2s-1.7-.8-2.6.8zm2.3 12.4c-10 4.1-10.1 4.2-12.7 9.5-1.4 2.9-2.6 5.4-2.6 5.6 0 .2 7.6-2.6 17-6.3 9.3-3.6 17-6.9 17-7.2 0-.7-7.3-6-8.1-5.8-.2 0-5 2-10.6 4.2zm2.1 19.9l-25.1 10-2.6 5.4c-1.5 3-2.3 5.4-1.9 5.4 2 0 62.7-24.6 62.8-25.5.1-1.2-5.5-5.5-7-5.5-.6.1-12.4 4.6-26.2 10.2zm2.6 19.3l-40.5 16.3-2.3 5.2c-1.3 2.8-2.2 5.3-2 5.4.1.2 21.4-8.1 47.2-18.3l46.9-18.5-3.9-3.3c-2.2-1.8-4.1-3.2-4.4-3.2-.3 0-18.7 7.4-41 16.4zm2.4 19.6l-55.1 22.1-2.6 5.4c-1.5 3-2.4 5.4-2 5.4.7 0 11.9-4.4 79.8-31.2 23.7-9.4 43.2-17.2 43.5-17.5.6-.6-6.2-6.2-7.5-6.2-.5 0-25.8 9.9-56.1 22zm2.7 19.4l-70.4 28.2-3 5.8c-1.7 3.4-2.3 5.6-1.5 5.2.7-.3 8.7-3.4 17.8-7 9.1-3.5 42.4-16.7 74-29.2s58.6-23.2 60-23.7l2.4-.9-2.9-2.5c-1.7-1.3-3.7-2.8-4.5-3.3-1-.5-24.4 8.4-71.9 27.4zm2.3 19.6l-85.1 34.1-2.6 5.4c-1.5 3-2.4 5.4-2 5.4.8 0 13.8-5.1 108.8-42.7 39.6-15.7 72.6-28.9 73.3-29.3 1-.5.4-1.5-2.4-3.8-2.1-1.8-4.1-3.2-4.4-3.2-.3.1-38.8 15.4-85.6 34.1zm1.7 19.8l-99.4 39.8-2.9 5.8c-1.8 3.4-2.4 5.6-1.6 5.3 4.1-1.6 76.8-30.4 139.8-55.3 39.9-15.8 72.7-28.9 73-29.2.8-.7-6.3-6.3-8-6.2-.8 0-46.2 18-100.9 39.8zm110.4-23.4c-4.4 1.8-56.3 22.5-115.3 46.1L11.8 392.4l-2.5 4.9c-1.3 2.7-2.2 5.1-1.9 5.4.5.6 2.5-.2 137.6-53.7 55.3-21.9 101.8-40.4 103.5-41l2.9-1.1-2.9-2.5c-5.2-4.3-5.5-4.3-14-.9zm20 12.5c-2.2.9-59.2 23.7-126.6 50.6L5.2 415.5l-.6 4.4c-.3 2.4-.4 4.6-.2 4.8.2.2 50.4-19.5 111.7-43.8 61.3-24.2 120.6-47.7 131.9-52.1l20.4-8.1-3.9-3.4c-4.4-3.8-4.5-3.8-10-1.3zm-29 32.1c-27.5 11-89 35.5-136.7 54.6L2.2 437.3l-.7 4.4c-.3 2.5-.5 4.6-.3 4.8.3.4 11.6-4 107.8-42.2 35.5-14 89.5-35.4 120-47.5 30.5-12.1 55.7-22.2 56-22.4.7-.8-6.3-6.4-8-6.3-.8 0-24 9-51.5 20z"/></svg>