<svg xmlns="http://www.w3.org/2000/svg" xmlns:xlink="http://www.w3.org/1999/xlink" viewBox="0 0 50 96" transform="rotate(180)"><defs><linearGradient id="a" y1="48" x2="50" y2="48" gradientUnits="userSpaceOnUse"><stop offset="0" stop-color="#25a6de"/><stop offset=".5" stop-color="#2a2a68"/><stop offset="1" stop-color="#aa2e8e"/></linearGradient><linearGradient id="b" x1="7.35" y1="41.68" x2="31" y2="41.68" xmlns:xlink="http://www.w3.org/1999/xlink" xlink:href="#a"/><linearGradient id="c" x1="10.34" y1="62.53" x2="18.61" y2="62.53" xmlns:xlink="http://www.w3.org/1999/xlink" xlink:href="#a"/></defs><path d="M2 96a2 2 0 001.41-.59l46-46a2 2 0 000-2.83l-46-46A2 2 0 10.59 3.41L45.17 48 .59 92.59A2 2 0 002 96z" fill="url(#a)"/><path d="M22 57a2 2 0 001.41-.59l7-7a2 2 0 000-2.83L10.76 26.93a2 2 0 00-2.83 2.83L26.17 48l-5.6 5.6A2 2 0 0022 57z" fill="url(#b)"/><path d="M12.34 66.66a2 2 0 001.41-.59L18 61.81A2 2 0 1015.19 59l-4.27 4.27a2 2 0 001.41 3.41z" fill="url(#c)"/></svg>