<svg xmlns="http://www.w3.org/2000/svg" viewBox="0 0 220 164.79"><defs><style>.cls-1{fill:#fff}</style></defs><g id="Слой_2" data-name="Слой 2"><g id="layout"><path class="cls-1" d="M6.56 152.77h3.11v11.69H6.56V160H3.12v4.49H0v-11.72h3.12v4.33h3.44zm14.44 0v11.69h-3.1v-8.8h-3.17v8.8H11.6v-11.69zM33.43 163a6.39 6.39 0 01-4.55 1.76 6.35 6.35 0 01-4.54-1.76 6 6 0 010-8.67 6.35 6.35 0 014.54-1.76 6.39 6.39 0 014.55 1.76 6 6 0 010 8.67zm-6.9-2.06a3.25 3.25 0 002.35.9 3.29 3.29 0 002.36-.9 3.22 3.22 0 000-4.55 3.29 3.29 0 00-2.36-.9 3.25 3.25 0 00-2.35.9 3.2 3.2 0 000 4.55zm18.89-8.42a6.33 6.33 0 014.58 1.75 6.17 6.17 0 010 8.73 6.33 6.33 0 01-4.58 1.75 6.47 6.47 0 01-3.08-.75 5.59 5.59 0 01-2.2-2l2.68-1.51a2.51 2.51 0 001.06 1 3.32 3.32 0 001.58.38 3.45 3.45 0 001.88-.5 2.93 2.93 0 001.14-1.37h-4.42v-2.73h4.42a3 3 0 00-1.14-1.36 3.45 3.45 0 00-1.88-.5 3.26 3.26 0 00-1.57.38 2.68 2.68 0 00-1.07 1l-2.68-1.49a5.74 5.74 0 012.2-2 6.52 6.52 0 013.08-.78zm14.38.25h3.11v11.69H59.8V160h-3.43v4.49h-3.13v-11.72h3.13v4.33h3.43zm13.42 0v2.89h-3v8.8h-3.14v-8.8h-3v-2.89zm.27 7.98v-2.64h6.8v2.64zm16.22-7.98v2.89h-3v8.8h-3.14v-8.8h-3v-2.89zm4.29 8.88h4.7v2.81h-7.85v-11.69h7.76v2.79H94v1.62h4.21v2.75H94zm16.15 2.81h-3.49l-1.92-3.11-1.92 3.11h-3.51l3.68-6-3.54-5.73H103l1.78 2.89 1.78-2.89H110l-3.54 5.74zm7.62-11.69h3.11v11.69h-3.11V160h-3.43v4.49h-3.13v-11.72h3.13v4.33h3.43zM133.3 163a6.76 6.76 0 01-9.1 0 6 6 0 010-8.67 6.76 6.76 0 019.1 0 6 6 0 010 8.67zm-6.91-2.06a3.54 3.54 0 004.72 0 3.22 3.22 0 000-4.55 3.54 3.54 0 00-4.72 0 3.22 3.22 0 000 4.55z"/><path class="cls-1" d="M135.12 164.46v-2.79a1.73 1.73 0 001.42-.28 2.15 2.15 0 00.45-1.62v-7h8.69v11.69h-3.12v-8.8h-2.45v4.24a6 6 0 01-.43 2.43 3.05 3.05 0 01-1.17 1.46 4.41 4.41 0 01-1.57.62 6.83 6.83 0 01-1.82.05zm22.96-1.46a6.75 6.75 0 01-9.09 0 6 6 0 010-8.67 6.75 6.75 0 019.09 0 6 6 0 010 8.67zm-6.91-2.06a3.54 3.54 0 004.72 0 3.22 3.22 0 000-4.55 3.54 3.54 0 00-4.72 0 3.22 3.22 0 000 4.55zm17.44-8.17v2.89h-4.1v8.8h-3.13v-11.69zm7.8 11.69v-5.88l-4.31 5.88h-2.43v-11.69h3.13v5.88l4.31-5.88h2.4v11.69zm14.1-11.69v11.69h-3.11v-3.77h-.66l-2.46 3.77h-3.47l2.79-4.19a4.11 4.11 0 01-1.72-1.4 3.52 3.52 0 01-.64-2.06 3.72 3.72 0 011.26-2.89 4.49 4.49 0 013.12-1.15zm-4.85 5.38h1.74v-2.62h-1.74a1.27 1.27 0 00-.94.37 1.29 1.29 0 00-.37.95 1.27 1.27 0 00.37 1 1.25 1.25 0 00.94.3zm17.46-5.38h3.2l-3.54 8.09a6.12 6.12 0 01-2.18 2.79 5.58 5.58 0 01-3.34.81v-2.79a2.64 2.64 0 002.44-.85l-4-8h3.21l2.26 4.78zm15.45 2.62a4.35 4.35 0 010 6.45 7.2 7.2 0 01-4 1.57v1.38h-3v-1.38a7.27 7.27 0 01-4-1.57 4.33 4.33 0 010-6.45 7.19 7.19 0 014-1.56v-1.39h3v1.39a7.12 7.12 0 014 1.56zm-9.28 3.22c0 1.16.76 1.85 2.3 2.06v-4.16a3.19 3.19 0 00-1.75.69 1.83 1.83 0 00-.55 1.41zm5.3 2.06a3.19 3.19 0 001.74-.68 1.75 1.75 0 00.56-1.38 1.8 1.8 0 00-.56-1.41 3.12 3.12 0 00-1.74-.69zm-104.37-43.26a6.36 6.36 0 10-6.35-6.35 6.36 6.36 0 006.35 6.35zm0-9.08a2.73 2.73 0 11-2.72 2.73 2.72 2.72 0 012.72-2.73zM74.26 84.14a1.82 1.82 0 10-1.82-1.82 1.82 1.82 0 001.82 1.82z"/><path class="cls-1" d="M155.77 72.6l-9.12-3.2a38.06 38.06 0 00-3.07-7.13l4-8.35a7.1 7.1 0 00-1.46-8.06L144 43.77a7.07 7.07 0 00-8-1.47l-8.91 4.29q-1.08-.53-2.19-1l11-19a5 5 0 00-1.9-6.8l-1.17-.68 4.75-8.24a6.14 6.14 0 00.81-3.95 4.57 4.57 0 00-2.18-3.33L131 .57c-2.3-1.34-5.44-.24-7 2.43l-4.76 8.23-.59-.34a5 5 0 00-3.79-.5 5 5 0 00-3 2.33L84.8 59.6a5 5 0 001.12 6.33l-1.35 2.34c-1.78 3.09-1 6.85 1.62 8.39l6.54 3.78a5 5 0 002.52.67 5.83 5.83 0 002-.38 7.05 7.05 0 003.52-3.08l1.32-2.28a5 5 0 002.35.6 4.87 4.87 0 001.31-.18 4.93 4.93 0 003-2.33l8.09-14a22.39 22.39 0 012.16 41.93 11.34 11.34 0 00-20 5.24L98 113c-1-.4-2-.84-3-1.33a18.38 18.38 0 00-1.42-24c-3.1-3.17-6.94-4.45-10.63-5.36l-2.44-.56a1.82 1.82 0 10-.81 3.54l2.43.55c3.65.9 6.56 2 8.88 4.37a14.72 14.72 0 01.83 19.65 35.22 35.22 0 01-3.84-2.74l1.73-6.91a1.81 1.81 0 00-3.52-.88l-1.21 4.9a37.06 37.06 0 01-3.14-3.91l1.79-6.81a1.81 1.81 0 00-3.51-.92l-.86 3.3a33.58 33.58 0 01-2.4-6.46 1.81 1.81 0 00-3.51.9 38 38 0 003 7.87l-4.22-.72a1.82 1.82 0 00-.61 3.58l7.27 1.23a38.26 38.26 0 002.94 3.78l-7.92.2a1.81 1.81 0 000 3.62l11.41-.28a39.29 39.29 0 003.76 2.84 14.72 14.72 0 01-19.2-1.64c-2.32-2.38-3.33-5.31-4.14-9l-4.13-20.63 6 1.37a1.82 1.82 0 00.81-3.55l-8.74-2a1.86 1.86 0 00-1.68.47 1.83 1.83 0 00-.51 1.66l4.74 23.41c.82 3.72 2 7.59 5.09 10.76a18.26 18.26 0 0012.92 5.55h.24a18.23 18.23 0 0012-4.44 37.84 37.84 0 005 2.22l-.79 4.77H91a10.88 10.88 0 00-9 4.74l-9.1 13.35h-5a1.82 1.82 0 000 3.63h84.69a1.82 1.82 0 100-3.63h-5l-9.09-13.31a10.88 10.88 0 00-9-4.74h-5.59l-.79-4.73c1.15-.41 2.28-.87 3.38-1.39l9.16 4.41a6.84 6.84 0 003 .67 7.2 7.2 0 005.1-2.14l2.09-2.09a7.07 7.07 0 001.47-8l-4-8.23a37.21 37.21 0 003.38-7.68l9.07-3.26a7.08 7.08 0 004.66-6.73v-3a7.07 7.07 0 00-4.66-6.67zM127.15 4.83c.57-1 1.55-1.41 2-1.12l5.23 3a1 1 0 01.41.73 2.59 2.59 0 01-.36 1.6l-4.74 8.21-7.32-4.22zm8.3 123.4l7.63 11.16H77.36L85 128.23a7.24 7.24 0 016-3.16h38.48a7.24 7.24 0 015.97 3.16zm2.11-82.66a3.47 3.47 0 013.92.77l2.09 2.09a3.45 3.45 0 01.76 3.91l-3 6.32a38.29 38.29 0 00-10.37-9.89zm-39.9 30.26A3.43 3.43 0 0196 77.34a1.73 1.73 0 01-1.44 0L88 73.52c-.92-.53-1-2.1-.29-3.43L89 67.84l10 5.74zm8-4.18a1.4 1.4 0 01-.83.64 1.35 1.35 0 01-1-.14l-15.39-8.87a1.36 1.36 0 01-.5-1.87l27-46.85a1.38 1.38 0 011.87-.51l15.37 8.88a1.36 1.36 0 01.49 1.87l-12 20.79-6.2 10.73zm-3 35.56a7.71 7.71 0 0114.16-2.78l.09.14a7.78 7.78 0 01.95 2.64l2.36 14.13h-19.96zm18.78-.6a11 11 0 00-.55-2.06 26 26 0 00-2.09-48.32l4.3-7.46a35.59 35.59 0 014.52 2.2 34.46 34.46 0 0117.18 29.84 34.39 34.39 0 01-1.28 9.36 1.34 1.34 0 00-.07.27 34.23 34.23 0 01-5.5 11 34.87 34.87 0 01-15.43 11.63zm22.56 3.08a3.46 3.46 0 01-.76 3.92l-2.09 2.09a3.46 3.46 0 01-3.92.76l-6.82-3.28a38.56 38.56 0 0010.44-9.57l.13-.18zm12.83-27.4a3.47 3.47 0 01-2.23 3.31l-6.88 2.4a38.83 38.83 0 00.67-7.18 37.52 37.52 0 00-.69-7.19l6.87 2.4a3.47 3.47 0 012.23 3.31z"/></g></g></svg>