<svg width="31" height="24" fill="none" xmlns="http://www.w3.org/2000/svg"><g clip-path="url(#clip0)"><path d="M24.45 0h-22a1 1 0 00-1 1v22a1 1 0 001 1h22a1 1 0 001-1V1a1 1 0 00-1-1z" fill="#fff"/><path d="M24.45.75a.25.25 0 01.25.25v22a.25.25 0 01-.25.25h-22A.25.25 0 012.2 23V1a.25.25 0 01.25-.25h22zm0-.75h-22a1 1 0 00-1 1v22a1 1 0 001 1h22a1 1 0 001-1V1a1 1 0 00-1-1z" fill="url(#paint0_linear)"/><path d="M29.9.59a1.78 1.78 0 00-2.66 0L12.9 16.1l-5.26-5.69a1.895 1.895 0 00-.23-.21 2.004 2.004 0 00-.2-.2l-4-4.33a1.78 1.78 0 00-2.66 0 2.15 2.15 0 000 2.87l4 4.33c.071.073.148.14.23.2.057.088.12.172.19.25l6.59 7.12a1.779 1.779 0 002.66 0L29.9 3.46a2.15 2.15 0 000-2.87z" fill="#2A2A68"/></g><defs><linearGradient id="paint0_linear" x1="1.45" y1="12" x2="25.45" y2="12" gradientUnits="userSpaceOnUse"><stop stop-color="#A92C8E"/><stop offset=".5" stop-color="#2B2968"/><stop offset="1" stop-color="#25A7DE"/></linearGradient><clipPath id="clip0"><path fill="#fff" d="M0 0h30.45v24H0z"/></clipPath></defs></svg>