<svg xmlns="http://www.w3.org/2000/svg" viewBox="0 0 22.5 22.5"><path d="M22.24 18.16l-4.69-4.93a.94.94 0 00-1.28-.08l-3.05 2.45A9.89 9.89 0 0111 14.08a.47.47 0 00-.62.71 9.47 9.47 0 002.8 1.81.47.47 0 00.41-.09l1.17-.94 4.7 5.08a7.67 7.67 0 01-5.45.72 16.63 16.63 0 01-8.16-4.73 16.65 16.65 0 01-4.73-8.2A7.69 7.69 0 011.86 3l4.89 4.65-.56.67a.47.47 0 00-.07.49A18.4 18.4 0 009 13.39a.47.47 0 10.71-.61A17.35 17.35 0 017.09 8.7l2.09-2.49a.94.94 0 00-.07-1.28L4.27.26A.93.93 0 003 .27l-.87.86A8.06 8.06 0 00.21 8.61a17.51 17.51 0 004.89 8.58 17.63 17.63 0 008.73 5.07 10.7 10.7 0 002.07.21 7.47 7.47 0 005.44-2.13l.87-.89a.94.94 0 00.03-1.29zM3.62.94l4.85 4.67-1.12 1.32-4.94-4.74c.11-.13.23-.26.35-.39zM20.7 19.71c-.14.14-.29.27-.44.4L15.51 15l1.36-1.09 4.69 4.94z" fill="#fff" data-name="Слой 2"/></svg>