<svg xmlns="http://www.w3.org/2000/svg" viewBox="0 0 49.87 50.93"><defs><style>.cls-1{fill:#b7b9bd}</style></defs><g id="Слой_2" data-name="Слой 2"><g id="layout"><path class="cls-1" d="M36.49 13.54a1.06 1.06 0 00-1.5.08L2.93 49.16a1.06 1.06 0 001.57 1.42L36.57 15a1.06 1.06 0 00-.08-1.46zm2.64-1.87a1.06 1.06 0 00.79-.35l8.62-9.55A1.06 1.06 0 0047 .35L38.34 9.9a1.06 1.06 0 00.79 1.77zm-7.86 4.21a1.06 1.06 0 00-.49-1.42A14.45 14.45 0 0024.4 13a14.59 14.59 0 00-12.16 22.65A1.06 1.06 0 0014 34.48a12.47 12.47 0 0115.85-18.11 1.06 1.06 0 001.42-.49zM16.51 38.63a1.06 1.06 0 00.36 1.46A14.59 14.59 0 0036 18.72 1.06 1.06 0 0034.3 20a12.35 12.35 0 012.57 7.58A12.47 12.47 0 0118 38.27a1.06 1.06 0 00-1.49.36z"/><path class="cls-1" d="M24.4 19.1a8.45 8.45 0 013.11.59 1.06 1.06 0 00.78-2A10.61 10.61 0 0015 32.59a1.06 1.06 0 001.87-1A8.49 8.49 0 0124.4 19.1zm0 16.98a8.51 8.51 0 01-4-1 1.06 1.06 0 00-1 1.87 10.61 10.61 0 0013.68-15.48 1.06 1.06 0 10-1.73 1.22 8.49 8.49 0 01-6.95 13.39z"/><path class="cls-1" d="M4.24 45.51a1.06 1.06 0 00-1.06-1.06H2.12V10.73h32.76a1.06 1.06 0 000-2.12H20.46V6.09a2.91 2.91 0 00-2.91-2.91h-8.3a2.91 2.91 0 00-2.91 2.91V8.6H1.06A1.06 1.06 0 000 9.67v35.84a1.06 1.06 0 001.06 1.06h2.12a1.06 1.06 0 001.06-1.06zM8.47 6.09a.79.79 0 01.78-.78h8.3a.79.79 0 01.78.78V8.6H8.47zM48.81 8.6h-4a1.06 1.06 0 000 2.12h3v33.73H12.2a1.06 1.06 0 100 2.12h36.61a1.06 1.06 0 001.06-1.06V9.67a1.06 1.06 0 00-1.06-1.07z"/><path class="cls-1" d="M42.74 17.76a2.91 2.91 0 10-2.91-2.91 2.91 2.91 0 002.91 2.91zm0-3.69a.78.78 0 11-.78.78.79.79 0 01.78-.78z"/></g></g></svg>