<svg version="1.1" id="Слой_1" xmlns="http://www.w3.org/2000/svg" x="0" y="0" viewBox="0 0 49.9 94" xml:space="preserve"><style>.st0{fill:#b7b9bd}</style><g id="Слой_2_1_"><g id="layout"><path class="st0" d="M36.5 35.1c-.4-.4-1.1-.4-1.5.1L2.9 70.7c-.4.5-.3 1.1.2 1.5.4.3 1 .3 1.4-.1l32.1-35.6c.3-.4.3-1-.1-1.4zm2.6-1.9c.3 0 .6-.1.8-.4l8.6-9.5c.3-.5.2-1.1-.3-1.5-.4-.3-.9-.2-1.2.1l-8.7 9.5c-.4.4-.4 1.1.1 1.5.2.2.5.3.7.3zm-7.8 4.2c.3-.5 0-1.2-.5-1.4-2-1-4.2-1.5-6.4-1.5-8.1 0-14.6 6.5-14.6 14.6 0 2.9.8 5.7 2.4 8.1.4.5 1 .5 1.5.2.4-.3.5-.9.3-1.3-3.8-5.7-2.3-13.5 3.5-17.3 3.7-2.4 8.4-2.8 12.4-.8.5.2 1.1-.1 1.4-.6zM16.5 60.2c-.3.5-.1 1.2.4 1.5 6.9 4.2 15.9 2 20-4.9C40 51.6 39.7 45 36 40.3c-.4-.5-1-.6-1.5-.2-.5.4-.6 1-.2 1.5 1.7 2.2 2.6 4.8 2.6 7.6 0 6.9-5.6 12.5-12.5 12.5-2.2 0-4.5-.6-6.4-1.8-.5-.4-1.1-.3-1.5.3 0-.1 0 0 0 0z"/><path class="st0" d="M24.4 40.6c1.1 0 2.1.2 3.1.6.6.2 1.2-.1 1.4-.6.2-.6-.1-1.2-.6-1.4-5.4-2.2-11.6.4-13.8 5.9-1.2 2.9-1 6.2.5 9 .3.5.9.7 1.4.4.5-.3.7-.9.4-1.4-2.2-4.1-.6-9.3 3.5-11.5 1.3-.6 2.7-1 4.1-1zm0 17c-1.4 0-2.8-.3-4-1-.5-.3-1.2-.1-1.4.4-.3.5-.1 1.2.4 1.4 5.2 2.8 11.6.8 14.4-4.3 1.9-3.5 1.6-7.9-.7-11.2-.3-.5-1-.6-1.5-.3s-.6 1-.3 1.5c0 0 0 .1.1.1 2.7 3.8 1.8 9.1-2 11.8-1.5 1.1-3.2 1.6-5 1.6z"/><path class="st0" d="M4.2 67c0-.6-.5-1.1-1.1-1.1h-1V32.3h32.8c.6 0 1.1-.5 1.1-1.1 0-.6-.5-1.1-1.1-1.1H20.5v-2.5c0-1.6-1.3-2.9-2.9-2.9H9.3c-1.6 0-2.9 1.3-2.9 2.9v2.5H1.1c-.6 0-1.1.5-1.1 1.1V67c0 .6.5 1.1 1.1 1.1h2.1c.6 0 1-.5 1-1.1zm4.3-39.4c0-.4.4-.8.8-.8h8.3c.4 0 .8.4.8.8v2.5H8.5v-2.5zm40.3 2.5h-4c-.6 0-1.1.5-1.1 1.1 0 .6.5 1.1 1.1 1.1h3V66H12.2c-.6 0-1.1.5-1.1 1.1 0 .6.5 1.1 1.1 1.1h36.6c.6 0 1.1-.5 1.1-1.1V31.2c0-.6-.5-1.1-1.1-1.1z"/><path class="st0" d="M42.7 39.3c1.6 0 2.9-1.3 2.9-2.9 0-1.6-1.3-2.9-2.9-2.9-1.6 0-2.9 1.3-2.9 2.9 0 1.6 1.3 2.9 2.9 2.9zm0-3.7c.4 0 .8.3.8.8 0 .4-.3.8-.8.8s-.7-.4-.7-.8.3-.8.7-.8z"/></g></g></svg>