<svg width="25" height="25" fill="none" xmlns="http://www.w3.org/2000/svg"><path d="M9.617 10.938c-1.4 0-2.539-1.14-2.539-2.54 0-1.4 1.14-2.539 2.54-2.539 1.4 0 2.538 1.14 2.538 2.54 0 1.4-1.139 2.539-2.539 2.539zm0-4.297A1.76 1.76 0 0 0 7.86 8.398c0 .97.789 1.758 1.758 1.758a1.76 1.76 0 0 0 1.758-1.758 1.76 1.76 0 0 0-1.758-1.757zm1.761 11.711a1.17 1.17 0 0 1-.714-.242l-4.12-3.17a.39.39 0 0 0-.482.005l-3.427 2.743-.488-.61 3.427-2.742a1.17 1.17 0 0 1 1.447-.014l4.12 3.169a.392.392 0 0 0 .474.001l4.76-3.612a1.178 1.178 0 0 1 1.326-.063l3.645 2.257-.41.664-3.647-2.256a.393.393 0 0 0-.441.02l-4.761 3.613c-.21.158-.46.237-.709.237z" fill="#2387AA"/><path d="M19.578 15.234a4.687 4.687 0 1 0 0 9.375 4.687 4.687 0 0 0 0-9.375zm2.125 3.318l-.022.035-1.607 2.234a.588.588 0 0 1-.991 0l-1.63-2.269a.588.588 0 0 1 .509-.876h.835v-1.27c0-.323.263-.586.586-.586h.39c.323 0 .586.263.586.586v1.27h.835a.588.588 0 0 1 .51.876zm-6.031 5.657l-.01.01h.01v-.01zm5.859-9.561v-.01l-.01.01h.01z" fill="#2387AA"/><path d="M20.96 8.25L13.28.573A1.94 1.94 0 0 0 11.9 0H3.953A1.955 1.955 0 0 0 2 1.953v20.313c0 1.077.876 1.953 1.953 1.953h11.71l-.782-.782H3.953a1.173 1.173 0 0 1-1.172-1.171V1.953c0-.646.526-1.172 1.172-1.172H11.9c.313 0 .607.122.828.343l7.679 7.679c.218.218.343.52.343.828v4.226l.781.782V9.63a1.94 1.94 0 0 0-.572-1.38z" fill="#2387AA"/><path d="M21.521 14.648l.01-.01-.781-.78" fill="#fff"/></svg>