<svg version="1.1" id="Слой_1" xmlns="http://www.w3.org/2000/svg" x="0" y="0" viewBox="0 0 20 20" xml:space="preserve"><style>.st0{fill-rule:evenodd;clip-rule:evenodd;fill:#2387aa}</style><path class="st0" d="M3 2.88c-1.1 0-2 .9-2 2v10.25c0 1.1.9 2 2 2h14c1.1 0 2-.9 2-2V4.88c0-1.1-.9-2-2-2H3zm14 1.5H3c-.28 0-.5.22-.5.5v10.25c0 .28.22.5.5.5h14c.28 0 .5-.22.5-.5V4.88c0-.28-.22-.5-.5-.5z"/><path class="st0" d="M7.67 12.39L1.21 5.64 2.29 4.6l6.46 6.75c.15.15.66.52 1.25.52s1.1-.36 1.25-.52l6.46-6.75 1.08 1.04-6.46 6.75c-.33.35-1.21.98-2.34.98s-1.99-.63-2.32-.98z"/><path class="st0" d="M17.75 15.43l-5.02-4.5 1-1.12 5.02 4.5-1 1.12zm-10.48-4.5l-5.02 4.5-1-1.12 5.02-4.5 1 1.12z"/></svg>