<svg xmlns="http://www.w3.org/2000/svg" viewBox="0 0 43.03 48"><defs><style>.cls-1{fill:#b7b9bd}</style></defs><g id="Слой_2" data-name="Слой 2"><g id="layout"><path class="cls-1" d="M42.76 8.17L35.47.32a1 1 0 00-.73-.32H9.49a2.12 2.12 0 00-2.12 2.12v14H3a3 3 0 00-3 3v11a3 3 0 003 3h4.37v12.76A2.12 2.12 0 009.49 48h31.42A2.12 2.12 0 0043 45.88v-37a1 1 0 00-.24-.71zm-2.24.52h-4.38a1.25 1.25 0 01-1.24-1.24V2.64zM2 30.1v-11a1 1 0 011-1h24.5a1 1 0 011 1v11a1 1 0 01-1 1H3a1 1 0 01-1-1zM40.91 46H9.49a.12.12 0 01-.12-.12V33.1H27.5a3 3 0 003-3v-11a3 3 0 00-3-3H9.37v-14a.12.12 0 01.12-.1H33a1 1 0 00-.09.4v5a3.25 3.25 0 003.24 3.24H41v35.24a.12.12 0 01-.09.12z"/><path class="cls-1" d="M9.67 21.72a3.69 3.69 0 00-1.53-.29H5.26v6.64H6.8v-1.84h1.34a3.74 3.74 0 001.53-.29 2.23 2.23 0 001-.83 2.5 2.5 0 000-2.56 2.27 2.27 0 00-1-.83zm-.56 3a1.61 1.61 0 01-1.05.3H6.8v-2.3h1.25A1.61 1.61 0 019.1 23a1.05 1.05 0 01.36.86 1 1 0 01-.36.82zM17 21.83a4.24 4.24 0 00-1.91-.41h-3v6.64h3a4.24 4.24 0 001.91-.41 3.09 3.09 0 001.29-1.16 3.54 3.54 0 000-3.49A3.09 3.09 0 0017 21.83zm-.4 4.41a2.23 2.23 0 01-1.6.56h-1.4v-4.12H15a2.23 2.23 0 011.59.55 2.2 2.2 0 010 3zm3.34 1.82h1.54v-2.42h3.07v-1.23h-3.07v-1.75h3.48v-1.24h-5.02v6.64z"/></g></g></svg>