<svg xmlns="http://www.w3.org/2000/svg" viewBox="0 0 43.03 48"><defs><style>.cls-1{fill:#b7b9bd}</style></defs><g id="Слой_2" data-name="Слой 2"><g id="layout"><path class="cls-1" d="M42.76 8.17L35.47.32a1 1 0 00-.73-.32H9.49a2.12 2.12 0 00-2.12 2.12v14H3a3 3 0 00-3 3v11a3 3 0 003 3h4.37v12.76A2.12 2.12 0 009.49 48h31.42A2.12 2.12 0 0043 45.88v-37a1 1 0 00-.24-.71zm-2.24.52h-3.88a1.25 1.25 0 01-1.24-1.24V3.18zM2 30.1v-11a1 1 0 011-1h24.5a1 1 0 011 1v11a1 1 0 01-1 1H3a1 1 0 01-1-1zM40.91 46H9.49a.12.12 0 01-.12-.12V33.1H27.5a3 3 0 003-3v-11a3 3 0 00-3-3H9.37v-14a.12.12 0 01.12-.1h24a1 1 0 00-.09.4v5a3.25 3.25 0 003.24 3.24H41v35.24a.12.12 0 01-.09.12z"/><path class="cls-1" d="M10.1 24.49a11.23 11.23 0 00-1.27-.36 5.76 5.76 0 01-1.11-.33.54.54 0 01-.36-.51.63.63 0 01.31-.55 1.79 1.79 0 011-.21 3.83 3.83 0 011.88.52L11 21.9a3.78 3.78 0 00-1.08-.44 5.3 5.3 0 00-1.27-.15 4 4 0 00-1.57.27 2.14 2.14 0 00-1 .74 1.82 1.82 0 00-.32 1 1.54 1.54 0 00.35 1.06A2.06 2.06 0 007 25a11.14 11.14 0 001.27.36q.5.11.8.21a1.44 1.44 0 01.48.25.49.49 0 01.19.39.59.59 0 01-.32.52 2 2 0 01-1 .19 4 4 0 01-1.2-.19 3.64 3.64 0 01-1-.5l-.55 1.17a3.67 3.67 0 001.2.55 5.65 5.65 0 001.55.21A4 4 0 0010 27.9a2.17 2.17 0 001-.74 1.79 1.79 0 00.32-1 1.51 1.51 0 00-.35-1.05 2.1 2.1 0 00-.87-.62zm1.7-1.82h2.16v5.39h1.57v-5.39h2.17v-1.25h-5.9v1.25zm11.52-.95a3.83 3.83 0 00-1.56-.29h-2.93v6.64h1.57v-1.84h1.36a3.88 3.88 0 001.56-.29 2.35 2.35 0 001-3.39 2.31 2.31 0 00-1-.83zm-.58 3a1.67 1.67 0 01-1.07.3H20.4v-2.3h1.28a1.67 1.67 0 011.07.3 1 1 0 01.37.86 1 1 0 01-.37.8z"/></g></g></svg>