<svg width="25" height="25" fill="none" xmlns="http://www.w3.org/2000/svg"><path d="M13.894 18.36h-1.62l-1.557-2.532-1.557 2.531H7.64l2.22-3.451-2.077-3.241h1.565l1.442 2.408 1.415-2.408h1.529l-2.102 3.319 2.262 3.373z" fill="#007732"/><path d="M18.578 15.234a4.687 4.687 0 1 0 0 9.375 4.687 4.687 0 0 0 0-9.375zm2.125 3.318l-.022.035-1.607 2.234a.588.588 0 0 1-.991 0l-1.63-2.269a.588.588 0 0 1 .509-.876h.835v-1.27c0-.323.263-.586.586-.586h.39c.323 0 .586.263.586.586v1.27h.835a.588.588 0 0 1 .51.876z" fill="#007732"/><path d="M14.672 24.209l-.01.01h.01v-.01zm5.86-9.56v-.01l-.01.01h.01z" fill="#FF9A30"/><path d="M19.96 8.25L12.28.573A1.94 1.94 0 0 0 10.9 0H2.953A1.955 1.955 0 0 0 1 1.953v20.313c0 1.077.876 1.953 1.953 1.953h11.71l-.782-.782H2.953a1.173 1.173 0 0 1-1.172-1.171V1.953c0-.646.526-1.172 1.172-1.172H10.9c.313 0 .607.122.828.343l7.679 7.679c.218.218.343.52.343.828v4.226l.781.782V9.63a1.94 1.94 0 0 0-.572-1.38z" fill="#007732"/><path d="M20.521 14.648l.01-.01-.781-.78" fill="#fff"/></svg>