<svg xmlns="http://www.w3.org/2000/svg" viewBox="0 0 16.4 24"><defs><style>.cls-1{fill:#6e737a}</style></defs><g id="Слой_2" data-name="Слой 2"><g id="layout"><path class="cls-1" d="M15.9 11.71a.5.5 0 00-.5.5v4.9a5.89 5.89 0 11-11.78 0v-8.9a4.45 4.45 0 018.89 0v8.44a3.06 3.06 0 01-6.12 0v-7a.5.5 0 00-1 0v7a4.06 4.06 0 008.12 0V8.21a5.45 5.45 0 00-10.89 0v8.9a6.89 6.89 0 1013.78 0v-4.9a.5.5 0 00-.5-.5z"/><path class="cls-1" d="M3.1 2.72a6.52 6.52 0 011.63-1.1.5.5 0 10-.43-.9A7.53 7.53 0 000 7.52v5.73a.5.5 0 001 0V7.52a6.54 6.54 0 012.1-4.8zM8 1a6.54 6.54 0 011.63.2A6.46 6.46 0 0112 2.33a.5.5 0 10.61-.8A7.45 7.45 0 009.89.24 7.54 7.54 0 008 0a.5.5 0 000 1zM.5 15.25a.5.5 0 00-.5.5v2a.5.5 0 001 0v-2a.5.5 0 00-.5-.5z"/></g></g></svg>