<svg width="61" height="75" fill="none" xmlns="http://www.w3.org/2000/svg"><path d="M23.332 27.222l5.98 13.388c.419-.755.654-2.62 1.028-3.93l-4.605-13.938a6.054 6.054 0 0 0-.562-1.402l-2.056 2.134c.648 1.587.52 2.774.215 3.748z" fill="#C4806E"/><path d="M17.047 38.616h6.684c-.024-.08.312-1.458.312-1.458-.202-1.431-.73-3.59-2.09-5.915-.75-1.28-.313-2.313.108-3.31a12.421 12.421 0 0 0 .337-.859c.313-.925.436-1.98-.258-3.506a.468.468 0 0 1 .088-.518l2.423-2.516c-.604-.788-1.513-1.558-2.857-1.874l-1.582-.38-3.165 9.147v11.189z" fill="#C4806E"/><path d="M42.38 17.927l-.936-1.78-1.249.418.102 2.285 2.083-.923z" fill="#fff"/><path d="M15.28 22.168l1.297 3.75 1.298-3.75h-2.596z" fill="#96564A"/><path d="M14.784 5.944a.468.468 0 0 1 .936-.017c.005.089.187 2.212 4.362 2.36v-.92l-.002-.014c0-1.799-1.538-3.208-3.503-3.208-1.964 0-3.503 1.41-3.503 3.208l-.002.019v.676c.69-.354 1.712-1.056 1.712-2.104zm1.794-2.735c.701 0 1.36.144 1.943.403.066-.202.104-.414.104-.63A2.049 2.049 0 0 0 16.578.936a2.05 2.05 0 0 0-2.047 2.046c0 .216.038.427.104.63a4.782 4.782 0 0 1 1.943-.403z" fill="#CCC"/><path d="M13.791 11.102h.883a.72.72 0 0 0 .719-.718v-.548h-2.32v.548a.72.72 0 0 0 .718.718zm.11-.964a.485.485 0 0 1 .663 0 .476.476 0 0 1 .137.332c0 .123-.05.243-.137.331a.48.48 0 0 1-.331.136.465.465 0 0 1-.468-.468c0-.123.048-.245.137-.33zm3.862.246a.72.72 0 0 0 .719.718h.882a.72.72 0 0 0 .72-.718v-.548h-2.321v.548zm.83-.246a.483.483 0 0 1 .66 0 .47.47 0 0 1 .139.332.473.473 0 0 1-.47.467.47.47 0 0 1-.33-.8z" fill="#D8D5D4"/><path d="M54.794 40.575h2.69l.12-.803h-3.343l.533.803z" fill="#588AA3"/><path d="M15.316 7.33c-.476.765-1.273 1.277-1.853 1.57h2.398c.253 0 .459.203.466.455h.5a.467.467 0 0 1 .467-.454h.511c-1.325-.37-2.072-.992-2.489-1.57zm28.156.066c.24 0 .435.181.462.414h.461a.466.466 0 0 1 .463-.414h2.483c-.113-2.068-.99-4.114-3.176-4.114s-3.063 2.046-3.176 4.114h2.483zm-.278-3.281h1.941a.468.468 0 1 1 0 .935h-1.94a.468.468 0 1 1 0-.935zm-.762 1.517h3.465a.468.468 0 1 1 0 .935h-3.465a.468.468 0 1 1 0-.935z" fill="#E0B489"/><path d="M48.727 7.396c.259 0 .468.209.468.467v.617c.168-.483.216-1.333-.243-2.816-.352-1.138-1.064-1.847-1.929-1.997.736.878 1.18 2.159 1.254 3.729h.45z" fill="#CCC"/><path d="M45.325 9.07c0 .52.423.942.943.942h1.049c.52 0 .942-.422.942-.942v-.738h-2.934v.738zm1.136-.229a.483.483 0 0 1 .661 0 .471.471 0 0 1 .139.332.47.47 0 0 1-.468.468.469.469 0 0 1-.331-.8z" fill="#D8D5D4"/><path d="M48.032 18.85l.102-2.285-1.25-.419-.935 1.781 2.083.923zm-.919.617l-1.027-.455-.771 1.104.305 1.152c.966-.463 1.35-1.325 1.493-1.801z" fill="#fff"/><path d="M48.204 10.725a1.868 1.868 0 0 1-.886.223h-1.05c-.283 0-.551-.065-.793-.179a1.433 1.433 0 0 1-1.31.856 1.433 1.433 0 0 1-1.309-.856c-.241.113-.51.179-.794.179h-1.049c-.32 0-.622-.082-.886-.223.3 2.061 1.874 3.447 4.039 3.447 2.165 0 3.739-1.386 4.038-3.447zm-5.768 1.646a.468.468 0 0 1 .83-.296c.13.038.441.093.9.093.457 0 .768-.055.898-.093a.467.467 0 0 1 .83.296c0 .18 0 .732-1.728.732-1.73 0-1.73-.551-1.73-.732zm3.5 2.446a5.39 5.39 0 0 1-1.772.29 5.388 5.388 0 0 1-1.771-.29v1.122l.915 1.743h1.713l.915-1.743v-1.122z" fill="#E0B489"/><path d="M41.012 10.012h1.048c.52 0 .943-.423.943-.942v-.738h-2.934v.739c0 .518.423.941.943.941zm.194-1.17a.483.483 0 0 1 .66 0 .468.468 0 1 1-.66 0z" fill="#D8D5D4"/><path d="M14.903 14.435c.016.01.033.02.048.032.486.328 1.04.514 1.626.514a2.89 2.89 0 0 0 1.675-.547c.761-.533 1.352-1.418 1.638-2.484a1.64 1.64 0 0 1-.527.088h-.883a1.657 1.657 0 0 1-1.654-1.654v-.093h-.498v.093c0 .912-.742 1.654-1.654 1.654h-.883c-.184 0-.361-.032-.527-.088.286 1.066.877 1.951 1.639 2.485zm.413-2.227c.222 0 .409.155.456.363.092.06.367.167.805.167.439 0 .713-.107.805-.167a.468.468 0 0 1 .925.105c0 .587-.712.998-1.73.998s-1.729-.41-1.729-.998c0-.258.21-.468.468-.468z" fill="#E0B489"/><path d="M43.88 20.492l-.277 1.044c.175.027.361.042.56.045.2-.003.387-.019.56-.045l-.276-1.044h-.567zm1.32-1.874h-2.07l-.017.008.652.931h.8l.651-.931-.017-.008z" fill="#8C6239"/><path d="M43.938 8.746v.324c0 .354-.1.683-.27.966v.159a.496.496 0 0 0 .99 0v-.159a1.864 1.864 0 0 1-.27-.966v-.324h-.45z" fill="#C69C6D"/><path d="M39.377 5.664c-.458 1.482-.411 2.332-.243 2.816v-.617c0-.258.21-.467.468-.467h.45c.074-1.57.518-2.85 1.254-3.729-.865.15-1.576.859-1.928 1.997z" fill="#CCC"/><path d="M17.047 72.425v1.64h4.259c-.418-1.511-1.67-1.63-1.843-1.64h-2.416z" fill="#998675"/><path d="M57.47 41.512h-2.343l.252 1.134a1.063 1.063 0 0 0 .518.807c.171-.832.794-1.5 1.6-1.74l-.027-.201zm-.637 2.051c.218-.068.41-.198.55-.379.116-.151.183-.326.206-.51a1.37 1.37 0 0 0-.756.89z" fill="#C69C6D"/><path d="M53.95 20.827c-.01-.108-.31-2.697-3.67-3.544l-1.223-.409-.12 2.702a.468.468 0 0 1-.657.407l-.298-.132c-.3.911-1.056 2.05-2.542 2.486-.005.002-.548.18-1.275.18-.727 0-1.27-.178-1.275-.18-1.486-.436-2.242-1.575-2.541-2.486l-.298.132a.465.465 0 0 1-.436-.03.467.467 0 0 1-.221-.377l-.12-2.702-1.223.409c-3.388.854-3.668 3.517-3.67 3.544-.002.016-4.414 18.566-4.414 18.566 2.245.936 3.413 1.091 3.462 1.31l1.88-5.56 2.005-9.86a.468.468 0 0 1 .922.157c-.012.093-1.208 8.945-.16 15.136h12.178c1.049-6.193-.147-15.043-.16-15.136a.468.468 0 0 1 .923-.157l2.755 13.553h3.807s-3.627-17.992-3.629-18.01z" fill="#588AA3"/><path d="M49.63 72.136h-3.526v1.928h5.418c-.043-.408-.176-1.013-.573-1.432-.316-.334-.748-.496-1.32-.496zm-12.253.499c-.393.416-.525 1.021-.568 1.43h5.416v-1.93H38.7c-.574 0-1.006.164-1.323.5z" fill="#4D4D4D"/><path d="M50.09 41.512H38.24V71.2h4.562l.894-26.137a.468.468 0 0 1 .933 0h.002l.897 26.138h4.562V41.51z" fill="#736357"/><path d="M11.85 74.064h4.26v-1.64h-2.417c-.175.01-1.425.131-1.842 1.64z" fill="#998675"/><path d="M14.068 71.49h2.041V57.45h-3.83c.288 3.557.824 8.702 1.79 14.038z" fill="#E0B489"/><path d="M41.215 19.467c.143.476.527 1.338 1.493 1.802l.306-1.153-.772-1.104-1.027.455z" fill="#fff"/><path d="M16.11 27.426l-3.166-9.146-1.58.379c-1.344.316-2.254 1.087-2.858 1.875l2.422 2.515a.468.468 0 0 1 .09.518c-.917 2.013-.411 3.208.077 4.365.422.998.858 2.03.109 3.31-1.925 3.29-2.188 6.282-2.214 7.373h7.12V27.426z" fill="#C4806E"/><path d="M17.047 71.49h2.04c.966-5.337 1.502-10.481 1.79-14.039h-3.83V71.49zM3.2 41.8a2.304 2.304 0 0 1 1.402 2.118.468.468 0 1 1-.936 0c0-.5-.272-.938-.675-1.175l-.114.513c-.065.291-.014.588.144.838a1.105 1.105 0 0 0 1.529.345 1.1 1.1 0 0 0 .496-.718l.414-1.446-2.201-.74-.06.266z" fill="#E0B489"/><path d="M7.982 21.34a6.068 6.068 0 0 0-.562 1.405L3.46 40.616l2.256.758L9.794 27.13c-.284-.956-.383-2.119.244-3.655L7.982 21.34z" fill="#C4806E"/><path d="M18.2 21.232l1.098-3.171-.92-.221a.468.468 0 0 1-.359-.455v-1.763a3.7 3.7 0 0 1-1.44.295c-.505 0-.989-.105-1.441-.295v1.763a.468.468 0 0 1-.359.455l-.92.22 1.098 3.172H18.2z" fill="#E0B489"/><path d="M23.791 49.219l.561-3.743s.753-5.527.843-5.924H8.945c-.114 1.32-.3 6.16 1.496 16.964h12.275c.262-1.577.691-4.54.691-4.54l.197-1.447.187-1.31z" fill="#96564A"/><path d="M16.577 13.674c1.018 0 1.73-.41 1.73-.998a.468.468 0 0 0-.925-.105c-.092.06-.367.167-.805.167-.438 0-.713-.107-.805-.167a.468.468 0 0 0-.924.105c0 .588.711.998 1.73.998zm-2.343-2.737a.48.48 0 0 0 .332-.137.477.477 0 0 0 .136-.331.477.477 0 0 0-.136-.332.485.485 0 0 0-.663 0 .467.467 0 0 0 .331.8zm4.686 0a.471.471 0 0 0 .47-.468.471.471 0 0 0-.138-.332.483.483 0 0 0-.66 0 .468.468 0 0 0 .329.8zm26.974 1.433a.468.468 0 0 0-.83-.295c-.13.038-.441.092-.9.092-.457 0-.768-.054-.898-.092a.467.467 0 0 0-.83.295c0 .182 0 .733 1.729.733 1.73 0 1.73-.551 1.73-.733zm-3.461-5.802h3.464a.468.468 0 1 0 0-.936h-3.464a.468.468 0 1 0 0 .936zm.761-1.518h1.94a.468.468 0 1 0 0-.935h-1.94a.468.468 0 1 0 0 .935zm-1.656 4.59a.47.47 0 0 0 .468-.467.469.469 0 0 0-.139-.332.483.483 0 0 0-.66 0 .468.468 0 0 0 .331.8zm5.254 0a.473.473 0 0 0 .468-.467.471.471 0 0 0-.139-.332.483.483 0 0 0-.66 0 .47.47 0 0 0 .331.8z" fill="#1C1B1A"/><path d="M33.483 41.171l-3.437-1.216-.268 1.404c-.211.04-.173.24 0 .28-.018.332.032.817.267 1.03.388 1.31 1.792 1.684 2.69.654l.748-2.152z" fill="#C69C6D"/><path fill-rule="evenodd" clip-rule="evenodd" d="M26.648 22.537l3.669 12.526-.373 1.71-4.209-14.032a6.063 6.063 0 0 0-.562-1.401l-2.056 2.134c.648 1.586.52 2.773.215 3.748l6.364 13.505-.547 1.46-6.373-13.54c-.306.756-.462 1.362-.017 2.123a17.604 17.604 0 0 1 1.82 4.352l1.55 4.43-1.515 10.387a154.143 154.143 0 0 1-1.041 7.122.468.468 0 0 1-.461.39h-1.298c-.286 3.563-.823 8.74-1.792 14.121.895.236 2.084 1.019 2.314 2.903a.467.467 0 0 1-.465.525H11.284a.467.467 0 0 1-.464-.525c.23-1.884 1.419-2.666 2.314-2.903-.97-5.38-1.506-10.558-1.792-14.121h-1.298a.467.467 0 0 1-.461-.39C7.63 45.474 7.95 43.05 7.938 39.342c.007-.132.012-.225.012-.283 0-.491.012-4.129 2.446-8.29.459-.783.28-1.403-.044-2.189L5.948 43.966a2.031 2.031 0 0 1-.899 1.264 2.032 2.032 0 0 1-1.542.266 2.03 2.03 0 0 1-1.278-.903 2.029 2.029 0 0 1-.266-1.541l.106-.478c-.642.11-1.133.67-1.133 1.344v30.614a.468.468 0 1 1-.936 0V43.918a2.303 2.303 0 0 1 2.28-2.3L6.508 22.54c.037-.162.928-3.917 4.64-4.79l3.054-.733v-1.945c-1.24-.964-2.064-2.657-2.064-4.582V7.353l.001-.014.002-.01c.008-1.328.652-2.49 1.67-3.237A2.986 2.986 0 0 1 16.578 0a2.984 2.984 0 0 1 2.766 4.092c1.02.749 1.665 1.912 1.671 3.242l.001.008a.08.08 0 0 1 .001.011v3.136c0 1.925-.824 3.618-2.064 4.582v1.945l3.056.733c3.71.873 4.602 4.628 4.639 4.788zm-4.855-3.877c1.344.316 2.253 1.086 2.857 1.873l-2.423 2.516a.468.468 0 0 0-.089.519c.694 1.525.572 2.58.26 3.506l-.001.001c-.1.295-.218.577-.337.857-.421.998-.857 2.03-.108 3.31a16.34 16.34 0 0 1 2.09 5.915s-.336 1.378-.312 1.459h-6.684v-11.19l3.165-9.146 1.582.38zm-5.215 7.257l-1.298-3.749h2.595l-1.297 3.75zm3.504-15.534a.72.72 0 0 1-.718.72h-.883a.72.72 0 0 1-.72-.72v-.547h2.321v.547zm-2.788-1.482a.467.467 0 0 0-.466.454h-.5a.467.467 0 0 0-.467-.454h-2.398c.58-.294 1.377-.805 1.853-1.57.417.578 1.164 1.2 2.49 1.57h-.512zM16.578.936a2.05 2.05 0 0 1 2.047 2.046c0 .216-.038.428-.104.63a4.775 4.775 0 0 0-1.943-.403c-.701 0-1.36.144-1.944.403a2.048 2.048 0 0 1-.103-.63A2.05 2.05 0 0 1 16.578.936zm-3.503 6.417c0-1.799 1.539-3.209 3.503-3.209 1.964 0 3.503 1.41 3.503 3.21a.038.038 0 0 0 0 .007l.002.007v.918c-4.176-.148-4.357-2.27-4.363-2.359a.468.468 0 0 0-.935.017c0 1.048-1.023 1.75-1.712 2.104v-.685l.002-.01zm-.002 2.484h2.32v.547a.72.72 0 0 1-.719.718h-.882a.72.72 0 0 1-.72-.718v-.547zm.191 2.113c.166.056.343.088.528.088h.883c.912 0 1.654-.742 1.654-1.655v-.092h.497v.092c0 .913.743 1.655 1.655 1.655h.883c.184 0 .361-.032.527-.088-.287 1.065-.877 1.95-1.638 2.484a2.89 2.89 0 0 1-1.675.547 2.892 2.892 0 0 1-1.675-.547c-.761-.533-1.352-1.418-1.639-2.484zm1.514 5.89a.468.468 0 0 0 .36-.455v-1.763c.451.19.936.295 1.44.295a3.7 3.7 0 0 0 1.44-.295v1.763a.47.47 0 0 0 .36.455l.919.22-1.098 3.172h-3.243l-1.097-3.171.92-.221zM5.045 43.72a1.1 1.1 0 0 1-.496.719c-.25.158-.547.21-.836.144a1.102 1.102 0 0 1-.693-.489 1.103 1.103 0 0 1-.143-.838l.113-.514c.403.238.675.675.675 1.176a.468.468 0 1 0 .936 0c0-.95-.579-1.767-1.402-2.117l.059-.266 2.2.74-.413 1.445zm4.749-16.59L5.717 41.373l-2.256-.758 3.959-17.87c.013-.058.16-.667.563-1.405l2.055 2.134c-.627 1.536-.528 2.698-.244 3.655zm1.41 4.113c.749-1.281.313-2.313-.109-3.311v-.001c-.489-1.156-.994-2.352-.078-4.363a.468.468 0 0 0-.089-.519l-2.422-2.515c.604-.788 1.514-1.559 2.858-1.875l1.58-.38 3.166 9.147v11.19H8.99c.026-1.092.288-4.083 2.214-7.373zm4.906 42.821h-4.26c.418-1.509 1.667-1.63 1.843-1.64h2.417v1.64zm0-2.575h-2.04c-.966-5.337-1.502-10.48-1.79-14.038h3.83v14.038zm5.195 2.575h-4.26v-1.64h2.417c.173.01 1.425.13 1.843 1.64zm-2.219-2.575h-2.04V57.451h3.829c-.287 3.557-.823 8.702-1.789 14.038zM10.44 56.515h12.275c.262-1.576.493-3.093.692-4.539l1.765-12.425H8.944c-.114 1.32-.3 6.16 1.496 16.964z" fill="#1C1B1A"/><path fill-rule="evenodd" clip-rule="evenodd" d="M58.43 41.636l-.076-.563.262-1.775c0-.029-3.738-18.585-3.738-18.585-.04-.35-.5-3.353-4.353-4.333l-3.653-1.225v-.779c1.427-.87 2.322-2.451 2.322-4.375v-.104c.21-.116.466-.316.677-.662.511-.843.503-2.137-.026-3.847-.604-1.95-2.184-2.99-3.887-2.6a3.703 3.703 0 0 0-1.794-.441 3.7 3.7 0 0 0-1.794.441c-1.703-.39-3.283.651-3.887 2.6-.529 1.71-.537 3.004-.026 3.847.21.346.467.546.677.662V10c0 1.924.895 3.505 2.322 4.376v.778l-3.653 1.225c-3.853.98-4.312 3.983-4.353 4.333l-4.194 19.21s-.064.322-.107.78c-.067.709-.085 1.742.256 2.41.344.673.676 1.139 1.403 1.427.7.276 1.333.315 1.927-.047.693-.421.974-1.17.974-1.17l2.9-10.439c-.069 2.697.134 5.696.616 8.251v.005l.079.392v29.994a2.408 2.408 0 0 0-.609.468c-.924.98-.845 2.503-.84 2.567.014.247.219.44.466.44h6.371c.259 0 .468-.21.468-.468v-2.396h.094c.252 0 .458-.2.467-.452l.442-12.935.444 12.935a.468.468 0 0 0 .468.452h.093v2.396c0 .259.21.468.468.468h6.371a.468.468 0 0 0 .467-.44c.004-.064.083-1.587-.841-2.567a2.408 2.408 0 0 0-.608-.468V41.532c.027-.13.053-.26.078-.392v-.005c.483-2.554.572-5.553.503-8.25 0 0 1.38 6.656 1.393 6.677l1.106 1.668.356 1.6c.144.996 1.02 1.723 2.026 1.723a2.04 2.04 0 0 0 1.637-.798c.258-.336.397-.733.41-1.146.565.167.98.69.98 1.309v30.614a.468.468 0 1 0 .935 0V43.918a2.302 2.302 0 0 0-2.018-2.282zM48.133 16.564l-1.248-.418-.936 1.78 2.083.923.102-2.285zm-3.57 2.993l.653-.932-.017-.007h-2.07l-.016.007.652.932h.799zm-.399 2.024c.2-.002.386-.018.56-.044l-.276-1.044h-.567l-.277 1.044c.175.026.36.042.56.044zm-.856-3.899h1.713l.915-1.743v-1.121a5.39 5.39 0 0 1-1.772.29 5.386 5.386 0 0 1-1.772-.29v1.121l.916 1.743zm-.6 3.586l.306-1.153-.773-1.104-1.026.455c.143.477.527 1.339 1.493 1.802zm4.406-1.801l-1.027-.455-.772 1.103.306 1.153c.966-.463 1.35-1.325 1.493-1.801zM48.26 9.07v-.738h-2.934v.738c0 .52.423.942.942.942h1.05a.944.944 0 0 0 .942-.942zm.935-.589c.169-.483.216-1.334-.243-2.816-.352-1.138-1.063-1.848-1.928-1.997.735.878 1.18 2.158 1.254 3.728h.45c.258 0 .467.21.467.468v.617zM47.34 7.396c-.113-2.067-.99-4.114-3.176-4.114S41.101 5.33 40.99 7.396h2.482c.24 0 .435.181.462.414h.462a.466.466 0 0 1 .462-.414h2.483zm-2.68 2.798v-.158a1.863 1.863 0 0 1-.27-.966v-.324h-.45v.324c0 .353-.1.683-.271.965v.16a.496.496 0 0 0 .99 0zm-5.526-2.33c0-.258.21-.468.468-.468h.45c.074-1.57.519-2.85 1.254-3.728-.865.15-1.576.859-1.928 1.997-.46 1.482-.412 2.332-.244 2.815v-.616zm.936.468v.738c0 .52.423.942.942.942h1.05a.943.943 0 0 0 .941-.942v-.738H40.07zm.942 2.616c-.32 0-.622-.081-.886-.223.299 2.061 1.873 3.447 4.038 3.447s3.74-1.386 4.038-3.447a1.87 1.87 0 0 1-.886.223h-1.049c-.284 0-.552-.065-.793-.178a1.433 1.433 0 0 1-1.31.855 1.433 1.433 0 0 1-1.31-.856c-.24.114-.51.179-.793.179h-1.049zm1.368 6.979l-.936-1.781-1.249.419.102 2.285 2.083-.923zm-5.572 56.137h5.416v-1.928H38.7c-.574 0-1.007.163-1.323.499-.393.416-.526 1.021-.569 1.43zm7.822-29.001l.897 26.137h4.562V41.511h-11.85V71.2h4.563l.893-26.137a.468.468 0 0 1 .933 0h.002zm1.474 29.001h5.418c-.043-.408-.176-1.013-.572-1.432-.317-.334-.749-.496-1.32-.496h-3.526v1.928zm9.281-31.38c.044.33.24.604.511.768.172-.832.795-1.5 1.6-1.74l-.027-.201h-2.342l.251 1.134a.48.48 0 0 1 .007.04zm1.448.88a1.11 1.11 0 0 0 .55-.38c.116-.151.183-.326.206-.51-.369.168-.65.493-.756.89zm-2.038-2.989h2.688l.122-.804H54.26l.534.804zM32.773 42.95l.415-1.78-3.035-.96s-.085.334-.14.775c-.067.536-.089 1.232.14 1.684.246.485.336.715.749.936.42.224.819.354 1.216.093.217-.142.512-.27.617-.585.02-.062.025-.11.038-.163zm20.998-4.113l-2.756-13.553a.468.468 0 0 0-.922.157c.013.093 1.209 8.943.16 15.135H38.075c-1.048-6.19.147-15.042.16-15.135a.468.468 0 0 0-.922-.157l-3.389 12.984-.215.825-.346 1.326-3.046-1.025c.076-.379.188-.76.304-1.31.044-.208.076-.52.125-.748 1.17-5.498 3.632-16.495 3.633-16.508.003-.027.283-2.69 3.67-3.545l1.223-.408.12 2.702a.467.467 0 0 0 .657.407l.298-.132c.3.911 1.056 2.05 2.542 2.486.015.005.555.18 1.275.18a4.48 4.48 0 0 0 1.274-.18h.001c1.486-.436 2.242-1.575 2.541-2.486l.299.132a.465.465 0 0 0 .435-.03.468.468 0 0 0 .221-.377l.12-2.702 1.224.409c3.36.847 3.66 3.436 3.67 3.544.002.016 3.628 18.009 3.628 18.009h-3.806z" fill="#1C1B1A"/><path d="M30.746 37.335c-.049.228-.081.54-.125.748l3.088 1.01.215-.826-3.178-.932z" fill="#1C1B1A"/></svg>