<svg width="63" height="75" fill="none" xmlns="http://www.w3.org/2000/svg"><path d="M25.67 38.032h-1.023v.666h1.023v-.666z" fill="#4D4D4D"/><path d="M23.793 38.032h-4.682v.666h4.682v-.666z" fill="#999"/><path d="M19.112 23.851V37.18h5.62v-1.37l-1.783-2.245a.426.426 0 0 1-.092-.295l1.02-14.47-.788-1.537-2.13.97a.425.425 0 0 1-.602-.41l.158-3.119s-1.53.733-1.558.74c-1.04.27-1.79.711-2.332 1.196l2.463 7.072c.003.008.03.085.024.14z" fill="#fff"/><path d="M25.159 12.568c1.63 0 2.853-.58 3.475-3.292a1.706 1.706 0 0 1-.664.134h-.9c-.901 0-1.635-.694-1.635-1.547V7.33h-.553v.533c0 .853-.734 1.547-1.636 1.547h-.9c-.236 0-.46-.048-.663-.134.622 2.712 1.846 3.292 3.476 3.292zm-1.105-2.197c.2 0 .369.138.414.324.083.051.32.14.69.14.372 0 .608-.089.691-.14a.427.427 0 0 1 .84.102c0 .524-.63.89-1.53.89-.902 0-1.531-.365-1.531-.89 0-.235.19-.426.426-.426z" fill="#E5CBBD"/><path d="M22.222 13.934c-.007-.014-.01-.03-.016-.043l-.817.393-.146 2.882 2.138-.973-1.159-2.26z" fill="#fff"/><path d="M10.426 35.086c-.45 0-.883-.083-1.292-.236a.425.425 0 0 1-.166.237c.205.314.758.592 1.452.592h.013c.693 0 1.247-.278 1.452-.592a.425.425 0 0 1-.166-.237 3.68 3.68 0 0 1-1.293.236zm3.593-5.459c0-.067-.002-.133-.003-.2h-3.918a.426.426 0 0 1-.36-.199l-.644-1.024-.643 1.024a.426.426 0 0 1-.36.2H6.837a6.504 6.504 0 0 0-.003.199c0 2.54 1.611 4.606 3.592 4.606 1.98 0 3.592-2.066 3.592-4.606zm-2.226.482a.442.442 0 0 1 .604 0 .424.424 0 0 1 0 .602.427.427 0 0 1-.604-.602zm-3.336.609a.424.424 0 0 1 0-.602.44.44 0 0 1 .602 0 .43.43 0 0 1 .127.302c0 .11-.046.221-.127.3a.425.425 0 0 1-.602 0zm.54 1.789a.427.427 0 1 1 .828-.144c.087.043.293.104.597.104h.005c.306-.001.514-.063.601-.106a.426.426 0 0 1 .829.14c0 .169-.073.481-.565.674a2.464 2.464 0 0 1-.863.144h-.008c-.851 0-1.423-.326-1.424-.812zM.866 52.616a.535.535 0 0 0 .407.643.533.533 0 0 0 .65-.438l2.828-9.34-1.659-.981L.866 52.616z" fill="#E5CBBD"/><path d="M8.734 27.176c.002-.003.132-.23.372-.23.2 0 .348.227.35.23l.879 1.4h3.634c0-1.323-1.252-3.836-3.541-3.836-2.077 0-3.288 1.32-3.541 3.835h.968l.879-1.4z" fill="#E0BC4B"/><path d="M12.555 34.418v.017l2.208.766c.443.104.824.267 1.15.466l2.331-11.785-2.27-6.519c-.638.89-.731 1.727-.737 1.79l-1.288 6.578c.476.746.921 2.022.921 3.896 0 2.063-.937 3.863-2.315 4.79z" fill="#fff"/><path d="M27.289 12.955c-.59.316-1.294.466-2.129.466h-.002c-.835 0-1.54-.15-2.129-.466v.68l1.197 2.334h1.866l1.197-2.333v-.68z" fill="#E5CBBD"/><path d="M28.093 13.933l-1.149 2.24 2.119.85-.145-2.744-.808-.39c-.006.015-.01.03-.017.044z" fill="#fff"/><path d="M22.346 8.559h.9c.432 0 .783-.312.783-.695V7.33h-2.466v.533c0 .383.351.695.783.695zm.149-.915a.44.44 0 0 1 .602 0 .424.424 0 1 1-.602.602.422.422 0 0 1 0-.602z" fill="#D8D5D4"/><path d="M3.92 38.447l-.81 3.073 2.148 1.27.402-1.254-1.366-4a3.466 3.466 0 0 0-.374.91z" fill="#A6D9FF"/><path d="M41.302 18.91a5.322 5.322 0 0 1 1.987-1.396l3.568-.916v-2.146c-1.028-.929-1.706-2.5-1.706-4.278V8.999c0-.176.108-.334.272-.398.004-.001.683-.287 1.373-1.258-.21-.4-.317-.85-.317-1.347a.426.426 0 1 1 .852 0c0 .602.204 1.085.624 1.479 1.371 1.285 4.454 1.1 4.485 1.098v.002l.028-.002c.235 0 .426.19.426.426v1.175c0 1.779-.678 3.35-1.708 4.28v2.144s3.316.816 3.558.913c.002 0 1.502.85 1.997 1.399.528-.404.829-.892.89-1.456.094-.861-.38-1.743-.892-2.236-.746-.718-.355-1.716-.044-2.144.35-.513.482-1.001.376-1.402-.124-.472-.558-.77-.9-.938-1.856-.91-2.004-2.76-2.01-2.838v-.03c0-1.309-.394-2.352-1.17-3.1-1.49-1.434-3.93-1.359-3.953-1.358h-.032c-.04-.001-2.468-.071-3.953 1.359-.776.747-1.17 1.79-1.17 3.1l-.001.029c-.005.078-.153 1.927-2.01 2.838-.341.167-.775.466-.9.938-.105.401.027.89.384 1.412.304.418.695 1.416-.051 2.134-.512.493-.987 1.375-.893 2.236.062.564.362 1.052.89 1.456z" fill="#534741"/><path d="M50.957 22.196c1.148-1.27 1.144-3.673 1.104-4.511l-1.401-.337a.426.426 0 0 1-.327-.414v-1.902c-.41.197-.85.305-1.31.305-.461 0-.903-.108-1.313-.306v1.903a.426.426 0 0 1-.327.414l-1.402.337c-.04.838-.043 3.24 1.105 4.51.401.445.898.702 1.51.781v-.482a.426.426 0 1 1 .852 0v.479a2.367 2.367 0 0 0 1.509-.777z" fill="#E5CBBD"/><path d="M26.27 16.821h-2.213l-.192.088.706 1.375h1.174l.712-1.387-.188-.076z" fill="#999"/><path d="M28.048 3.874a.232.232 0 0 0-.03-.023c-.059.015-.19.086-.297.144-.443.24-1.184.64-2.561.64h-.002c-1.377 0-2.119-.4-2.562-.64-.107-.058-.237-.129-.297-.144a.347.347 0 0 0-.04.035c-.143.206-.269 1.397-.181 2.592h6.162c.087-1.195-.04-2.386-.192-2.604z" fill="#E5CBBD"/><path d="M21.655 3.283c.498-.498.968-.243 1.346-.04.42.228.995.539 2.157.54 1.162-.001 1.737-.312 2.158-.54.378-.203.848-.457 1.345.04.464.464.497 2.141.431 3.195h.088c.236 0 .426.19.426.426v.804c.286-.604.511-1.79.142-4.098-.227-1.418-.442-2.757-4.59-2.757s-4.362 1.34-4.59 2.757c-.369 2.307-.143 3.494.142 4.097v-.803c0-.236.19-.426.426-.426h.088c-.066-1.054-.032-2.73.431-3.195z" fill="#E0BC4B"/><path d="M23.719 33.164l1.439 1.812 1.439-1.812-.99-14.027h-.9l-.988 14.027z" fill="#999"/><path d="M26.287 7.864c0 .383.352.695.783.695h.9c.432 0 .784-.312.784-.695V7.33h-2.467v.533zm.932-.22a.44.44 0 0 1 .602 0 .422.422 0 0 1 0 .602.424.424 0 1 1-.602-.602z" fill="#D8D5D4"/><path d="M52.042 10.174v-.736h-.046c-1.021 0-3.343-.141-4.623-1.341l-.042-.043c-.52.667-1.027 1.03-1.326 1.205v.915c0 2.377 1.354 4.31 3.019 4.31 1.664 0 3.018-1.933 3.018-4.31zm-1.538-.125a.44.44 0 0 1 .602 0 .428.428 0 0 1-.302.729.43.43 0 0 1-.426-.427c0-.112.046-.223.126-.302zm-3.262.729a.43.43 0 0 1-.427-.427.43.43 0 0 1 .127-.302.44.44 0 0 1 .602 0c.08.08.126.19.126.302a.429.429 0 0 1-.428.427zm.206 1.623a.426.426 0 0 1 .842-.095c.084.055.334.152.734.152.4 0 .65-.097.733-.152a.427.427 0 0 1 .843.095c0 .536-.648.91-1.576.91s-1.576-.374-1.576-.91z" fill="#E5CBBD"/><path d="M38.706 38.235h-3.585l.761 1.356h2.707l.117-1.356z" fill="#fff"/><path d="M46.737 70.796h1.858v-23.41h-4.57c.136 2.114.937 13.623 2.712 23.41z" fill="#E5CBBD"/><path d="M45.402 74.147h3.192V71.65h-1.859c-.127.549-.466 1.593-1.333 2.498z" fill="#998675"/><path d="M38.606 40.443h-2.445l.268 1.242a1.152 1.152 0 0 0 .448.804c.246.189.55.27.858.23.307-.039.58-.196.769-.442.189-.245.27-.55.23-.857l-.128-.977z" fill="#E5CBBD"/><path d="M37.59 31.97v-.003l-2.505-12.772c-.003-.015-.106-.942-.743-1.832l-2.27 6.52 2.67 13.5h3.91l-1.061-5.413z" fill="#fff"/><path d="M31.36 15.444c-.027-.007-1.565-.744-1.565-.744l.155 2.945a.426.426 0 0 1-.584.419l-2.114-.849-.813 1.584 1.02 14.47a.425.425 0 0 1-.09.295l-1.785 2.247v1.369h5.62V23.852c0-.088.021-.133.024-.14l2.464-7.073c-.542-.485-1.291-.925-2.332-1.195z" fill="#fff"/><path d="M30.698 72.045h-3.58v2.103h5.53c-.039-.435-.17-1.128-.613-1.595-.324-.342-.761-.508-1.337-.508z" fill="#333"/><path d="M6.806 73.013c-.345 0-.605.098-.794.298-.224.236-.317.573-.355.836h3.415v-1.134H6.806z" fill="#C69C6D"/><path d="M57.365 21.815a5.772 5.772 0 0 0-.994-2.018.429.429 0 0 1-.075-.09l-.007-.015a4.787 4.787 0 0 0-.9-.858c.115 1.255-.69 2.583-1.175 3.257 1.052.578 1.57 1.602 1.403 2.831a3.298 3.298 0 0 1-.535 1.403l4.445 14.6c.004.01.415 1 1.216.793.54-.139.886-.664.763-1.208l-4.14-18.695zM49.45 70.796h1.857c1.775-9.787 2.576-21.296 2.713-23.41h-4.57v23.41z" fill="#E5CBBD"/><path d="M53.402 22.66a.426.426 0 0 1-.179-.68c.02-.024 1.975-2.32 1.103-3.716-.175-.065-1.402-.371-1.402-.371.03 1.101-.068 3.473-1.332 4.874-.652.722-1.516 1.088-2.567 1.089h-.004c-1.053 0-1.916-.367-2.568-1.09-1.265-1.4-1.363-3.772-1.333-4.873 0 0-1.227.306-1.402.372-.857 1.38 1.083 3.691 1.103 3.715a.426.426 0 0 1-.179.68c-1.432.511-1.435 1.672-1.37 2.147.114.837.686 1.605 1.223 1.644.178.012.33.135.38.307l1.113 3.872a.426.426 0 0 1-.152.457c-2.551 1.944-3.762 4.098-3.303 10.474a8.97 8.97 0 0 1-1.07 4.97H56.58a8.968 8.968 0 0 1-1.069-4.97c.46-6.376-.752-8.53-3.303-10.474a.426.426 0 0 1-.151-.457l1.113-3.872a.426.426 0 0 1 .38-.307c.536-.039 1.108-.807 1.222-1.644.065-.475.062-1.636-1.37-2.147z" fill="#ED8EBC"/><path d="M49.45 71.65v2.497h3.191c-.867-.905-1.206-1.95-1.332-2.498h-1.86z" fill="#998675"/><path d="M43.83 22.091c-.483-.673-1.286-1.997-1.176-3.25-1.537 1.13-1.97 2.953-1.975 2.976l-2.233 10.08 1.105 5.632 3.411-11.204a3.3 3.3 0 0 1-.534-1.403c-.168-1.229.35-2.253 1.403-2.83z" fill="#E5CBBD"/><path d="M6.691 52.541l-.943 8.87h3.7l.554-6.328a.427.427 0 0 1 .849 0l.558 6.328h3.697l-.944-8.87h-7.47z" fill="#B7C16F"/><path d="M18.938 52.852a.535.535 0 0 0 .642.407.534.534 0 0 0 .407-.642l-1.718-7.809v-.002L17.76 42.5l-1.66.981 2.829 9.34.008.03z" fill="#E5CBBD"/><path d="M11.782 73.013v1.134h3.414c-.038-.263-.13-.6-.354-.836-.19-.2-.45-.298-.794-.298h-2.266z" fill="#C69C6D"/><path d="M15.89 36.71a2.985 2.985 0 0 0-1.34-.683c-.014-.003-1.859-.642-1.859-.642-.324.666-1.213 1.146-2.258 1.146h-.013c-1.045 0-1.934-.48-2.258-1.146 0 0-1.845.639-1.86.642a2.987 2.987 0 0 0-1.376.716l1.587 4.65c.003.007.023.122.023.13l.19 10.165h7.4l.19-10.165c0-.008.021-.123.024-.13l1.587-4.65a.283.283 0 0 1-.037-.033z" fill="#A6D9FF"/><path d="M11.784 62.263l-.003 9.897h1.862l.513-9.897h-2.372z" fill="#E5CBBD"/><path d="M16.931 38.445a3.467 3.467 0 0 0-.374-.91l-1.366 4 .403 1.256 2.148-1.271s-.81-3.068-.81-3.075z" fill="#A6D9FF"/><path d="M31.203 39.55H19.111v5.124l1.707 7.758c.081.36.016.733-.183 1.046a1.38 1.38 0 0 1-1.524.6V71.19h4.11l1.512-27.503a.425.425 0 1 1 .85 0l1.511 27.503h4.11V39.55z" fill="#4D4D4D"/><path d="M31.205 38.032h-4.682v.666h4.682v-.666z" fill="#999"/><path d="M9.07 72.16l-.003-9.897H6.695l.513 9.897H9.07z" fill="#E5CBBD"/><path d="M18.278 72.556c-.437.463-.57 1.157-.608 1.592h5.529v-2.103h-3.581c-.577 0-1.015.167-1.34.51z" fill="#333"/><path d="M11.293 33.174c.492-.192.565-.504.564-.673a.426.426 0 0 0-.426-.426h-.001a.426.426 0 0 0-.401.286c-.087.043-.296.105-.602.105h-.005c-.303 0-.51-.06-.597-.103a.426.426 0 0 0-.828.144c.001.486.573.812 1.425.812h.007c.32 0 .626-.052.864-.145zm-2.108-2.757a.43.43 0 0 0-.127-.302.44.44 0 0 0-.601 0 .424.424 0 0 0 0 .602.425.425 0 0 0 .602 0 .425.425 0 0 0 .126-.3zm2.91.418a.424.424 0 0 0 .302-.726.442.442 0 0 0-.604 0 .43.43 0 0 0-.124.3.428.428 0 0 0 .426.426zm13.064-19.147c.901 0 1.53-.366 1.53-.89a.426.426 0 0 0-.84-.102c-.083.05-.32.14-.69.14-.371 0-.608-.09-.69-.14a.426.426 0 0 0-.841.102c0 .524.63.89 1.53.89zM22.796 8.37a.424.424 0 0 0 .301-.727.44.44 0 0 0-.602 0 .422.422 0 0 0 0 .602.42.42 0 0 0 .3.125zm4.724 0a.426.426 0 0 0 .426-.426.422.422 0 0 0-.126-.3.44.44 0 0 0-.602 0 .428.428 0 0 0 0 .601c.079.08.19.125.302.125zm23.078 4.03a.426.426 0 0 0-.842-.094c-.084.055-.334.152-.734.152-.4 0-.65-.098-.734-.152a.427.427 0 0 0-.842.095c0 .535.648.91 1.576.91s1.576-.375 1.576-.91zm-2.929-2.049a.429.429 0 0 0-.126-.301.44.44 0 0 0-.602 0 .43.43 0 0 0-.127.301.43.43 0 0 0 .427.427.432.432 0 0 0 .428-.427zm3.134.427a.427.427 0 0 0 .302-.728.44.44 0 0 0-.602 0 .426.426 0 0 0 .3.728z" fill="#1C1B1A"/><path d="M58.198 21.629a6.625 6.625 0 0 0-.93-2.046c.88-.678 1.149-1.465 1.211-2.037.134-1.227-.535-2.352-1.149-2.942-.397-.382.037-1.004.062-1.04.632-.925.623-1.658.504-2.11-.164-.62-.63-1.133-1.35-1.486a2.754 2.754 0 0 1-1.532-2.12c-.004-1.543-.487-2.788-1.437-3.7-1.7-1.632-4.288-1.6-4.554-1.592-.261-.008-2.854-.043-4.557 1.593-.949.91-1.432 2.156-1.436 3.7a2.768 2.768 0 0 1-1.533 2.12c-.719.352-1.185.866-1.349 1.486-.119.451-.128 1.184.51 2.119.018.026.453.648.056 1.03-.614.59-1.283 1.716-1.15 2.943.063.571.332 1.359 1.213 2.036a6.623 6.623 0 0 0-.931 2.048l-1.811 8.175-2.11-10.756c-.036-.336-.48-3.405-4.31-4.42l-3.474-1.671V12.3c.674-.714 1.13-1.787 1.416-3.269.577-.317 1.687-1.468 1.033-5.555C30.297 1.644 29.66 0 25.16 0h-.002c-4.502 0-5.138 1.644-5.431 3.475-.654 4.088.456 5.238 1.032 5.556.286 1.482.743 2.554 1.417 3.269v.659l-3.474 1.67c-3.831 1.015-4.274 4.085-4.311 4.421l-1.147 5.848c-.964-.86-2.127-1.011-2.817-1.011-1.277 0-4.445.206-4.445 5.74 0 2.063.937 3.862 2.316 4.79v.018L6.09 35.2c-2.386.557-2.953 2.846-3 3.055l-.886 3.357a.426.426 0 0 0 .119.417L.034 52.43a1.38 1.38 0 0 0 .183 1.049 1.38 1.38 0 0 0 1.177.645c.26 0 .516-.073.742-.217a1.38 1.38 0 0 0 .608-.853l2.786-9.202a.856.856 0 0 0 .196-.06l.155 8.304L4.85 61.79a.427.427 0 0 0 .423.472h.569l.515 9.938a1.77 1.77 0 0 0-.97.528c-.667.71-.61 1.822-.606 1.87.013.224.2.4.425.4h4.292a.427.427 0 0 0 .427-.426l-.001-1.987-.004-10.331a.427.427 0 0 0 .344-.382l.164-1.877.165 1.878a.426.426 0 0 0 .34.38l-.004 10.332v1.987a.427.427 0 0 0 .426.426h4.291a.426.426 0 0 0 .426-.4c.003-.048.061-1.16-.606-1.87a1.762 1.762 0 0 0-.97-.528l.515-9.938h.568a.426.426 0 0 0 .424-.472l-1.031-9.695.155-8.305a.855.855 0 0 0 .196.061l2.786 9.202c.032.135.083.262.15.378v18.075c-.222.12-.424.274-.601.463-.937.992-.857 2.561-.853 2.627.013.226.2.402.425.402h6.395c.236 0 .427-.19.427-.426v-2.944l1.106-20.137 1.107 20.137v2.944c0 .236.191.426.427.426h6.395a.426.426 0 0 0 .425-.401c.004-.067.083-1.636-.853-2.628a2.375 2.375 0 0 0-.602-.463V28.204s1.959 9.806 1.963 9.814l1.21 2.152.362 1.678c.073.526.345.993.765 1.317a1.997 1.997 0 0 0 1.487.4 1.998 1.998 0 0 0 1.335-.767 2 2 0 0 0 .401-1.488l-.102-.776a.425.425 0 0 0 .1-.171l4.065-13.349c.154.103.317.182.484.23l.962 3.344c-3.002 2.387-3.832 5.125-3.406 11.033.219 3.04-1.317 5.056-1.332 5.076-.1.128-.12.542-.047.689.071.146.22 0 .383 0h2.483c.13 2.005.946 13.871 2.78 23.844-.055.328-.406 2.02-1.973 2.98a.427.427 0 0 0 .223.79h9.645a.427.427 0 0 0 .223-.79c-1.567-.96-1.92-2.652-1.974-2.98 1.834-9.972 2.651-21.839 2.78-23.844h2.484c.163 0 .311.146.383 0 .071-.147.053-.56-.048-.69-.015-.019-1.552-2.019-1.331-5.075.425-5.908-.405-8.646-3.406-11.033l.961-3.343c.167-.05.33-.128.484-.23l4.307 14.144a1.866 1.866 0 0 0 2.224 1.39 1.865 1.865 0 0 0 1.407-2.225L58.198 21.63zm-17.786-4.175c-.094-.86.381-1.743.893-2.236.746-.718.355-1.716.051-2.134-.357-.522-.49-1.01-.383-1.412.124-.472.558-.77.9-.938 1.856-.91 2.004-2.76 2.009-2.838l.001-.03c0-1.309.394-2.352 1.17-3.1 1.485-1.43 3.913-1.359 3.953-1.358h.032c.024 0 2.463-.076 3.953 1.359.776.747 1.17 1.79 1.17 3.1v.029c.006.078.154 1.928 2.01 2.838.342.168.776.466.9.938.106.401-.027.89-.376 1.402-.311.428-.702 1.426.044 2.144.512.493.986 1.375.892 2.236-.061.564-.362 1.052-.89 1.456-.495-.55-1.995-1.398-1.997-1.4-.242-.096-3.558-.912-3.558-.912v-2.144c1.03-.929 1.708-2.5 1.708-4.28V8.999a.426.426 0 0 0-.426-.426l-.028.002v-.001c-.03.001-3.114.186-4.485-1.1-.42-.392-.623-.876-.623-1.478a.426.426 0 1 0-.853 0c0 .497.108.946.317 1.347-.69.97-1.369 1.257-1.373 1.259a.426.426 0 0 0-.272.397v1.175c0 1.778.678 3.35 1.706 4.278v2.146l-3.568.917a5.323 5.323 0 0 0-1.987 1.395c-.527-.404-.828-.892-.89-1.456zm8.611 4.613a.426.426 0 0 0-.426.427v.482a2.365 2.365 0 0 1-1.51-.78c-1.148-1.27-1.145-3.673-1.105-4.511l1.402-.337a.426.426 0 0 0 .327-.414V15.03c.41.198.852.306 1.312.306.46 0 .901-.108 1.31-.305v1.902c0 .197.136.368.328.414l1.401.337c.04.838.044 3.24-1.104 4.511-.4.443-.898.697-1.508.777v-.48a.427.427 0 0 0-.427-.426zm-3.019-11.893v-.915c.3-.175.807-.538 1.326-1.205.015.014.027.03.042.043 1.28 1.2 3.602 1.34 4.623 1.34h.047v.737c0 2.377-1.354 4.31-3.02 4.31-1.664 0-3.018-1.933-3.018-4.31zM28.92 14.279l.144 2.745-2.118-.85 1.149-2.24c.007-.015.01-.03.016-.044l.809.389zm-4.347 4.005l-.706-1.375.191-.088h2.213l.187.075-.712 1.388h-1.173zm2.026 14.88l-1.44 1.812-1.439-1.812.99-14.027h.9l.988 14.027zm-.506-17.196h-1.867l-1.197-2.333v-.68c.59.315 1.294.465 2.13.466h.001c.836 0 1.54-.15 2.129-.466v.68l-1.197 2.334zm2.662-8.105c0 .383-.352.695-.784.695h-.9c-.431 0-.783-.312-.783-.695V7.33h2.467v.533zm-6.677-1.386c-.087-1.195.039-2.385.181-2.591a.363.363 0 0 1 .04-.036c.06.016.19.086.298.144.443.24 1.184.64 2.561.64h.002c1.377 0 2.119-.4 2.562-.64.107-.058.238-.129.297-.144a.247.247 0 0 1 .03.024c.152.217.279 1.408.191 2.603h-6.162zm-.94 0a.426.426 0 0 0-.427.427v.803c-.285-.604-.51-1.79-.141-4.097.227-1.418.441-2.757 4.59-2.758 4.147 0 4.362 1.34 4.59 2.758.368 2.307.143 3.494-.142 4.097v-.803a.426.426 0 0 0-.427-.427h-.087c.065-1.053.033-2.73-.432-3.194-.497-.498-.967-.243-1.345-.04-.42.228-.996.539-2.157.539-1.162 0-1.737-.311-2.158-.538-.378-.204-.848-.459-1.345.04-.464.463-.497 2.14-.432 3.193h-.087zm.426.853h2.466v.533c0 .383-.351.695-.783.695h-.9c-.432 0-.783-.312-.783-.695V7.33zm.12 1.946c.203.086.427.135.663.135h.9c.902 0 1.636-.695 1.636-1.548V7.33h.552v.533c0 .853.734 1.548 1.636 1.548h.9c.237 0 .46-.05.664-.135-.622 2.712-1.846 3.292-3.476 3.292s-2.853-.58-3.476-3.292zm-.293 5.007l.817-.393c.005.014.009.03.016.043l1.159 2.26-2.138.973.146-2.883zm-2.433 1.161c.027-.007 1.558-.74 1.558-.74l-.158 3.119a.426.426 0 0 0 .602.41l2.13-.97.789 1.536-1.02 14.47a.425.425 0 0 0 .09.295l1.783 2.245v1.371h-5.619V23.852a.378.378 0 0 0-.023-.14l-2.464-7.073c.542-.484 1.291-.925 2.332-1.195zm6.713 22.588v.666h-1.023v-.666h1.023zm-1.876 0v.666h-4.682v-.666h4.682zm-8.556-18.88c.006-.062.1-.899.737-1.789l2.27 6.52-2.331 11.784a3.896 3.896 0 0 0-1.15-.466l-2.208-.766v-.017c1.378-.928 2.315-2.728 2.315-4.791 0-1.874-.445-3.15-.922-3.896l1.289-6.579zm3.022 9.052v11.932l-.497-1.88a4.49 4.49 0 0 0-1.099-1.987l1.596-8.065zm-7.833-3.464c2.29 0 3.54 2.512 3.54 3.835h-3.633l-.879-1.4c-.001-.002-.15-.23-.35-.23-.24 0-.37.228-.372.23l-.879 1.4h-.968c.253-2.514 1.464-3.835 3.54-3.835zm-3.592 4.887c0-.067.001-.133.003-.2H8.09a.426.426 0 0 0 .361-.199l.643-1.024.643 1.024c.078.124.214.2.361.2h3.918c.001.066.003.131.003.199 0 2.54-1.611 4.606-3.592 4.606-1.98 0-3.592-2.066-3.592-4.606zm5.05 5.46c-.205.314-.758.592-1.452.592h-.014c-.693 0-1.247-.278-1.452-.592a.425.425 0 0 0 .166-.237c.41.153.843.236 1.292.236.45 0 .884-.083 1.293-.236.026.096.085.18.166.237zM1.924 52.82a.535.535 0 0 1-.65.438.535.535 0 0 1-.407-.644L3.093 42.5l1.659.981-2.828 9.34zm3.335-10.03L3.11 41.52s.81-3.068.81-3.074c.009-.036.102-.439.375-.911l1.366 4-.402 1.255zm.398 31.356c.038-.263.13-.6.354-.836.19-.2.45-.298.794-.298h2.267v1.134H5.657zm1.039-11.884h2.372l.003 9.897H7.21l-.513-9.897zm8.146 11.048c.223.236.316.573.354.836h-3.414v-1.134h2.266c.345 0 .605.098.794.298zm-3.06-1.151l.004-9.897h2.371l-.513 9.897h-1.862zm3.323-10.75H11.41l-.558-6.327a.426.426 0 0 0-.849 0L9.45 61.41H5.748l.943-8.87h7.471l.943 8.87zm-.765-20.016a2.577 2.577 0 0 0-.023.13l-.19 10.164h-7.4l-.19-10.165a2.71 2.71 0 0 0-.023-.13l-1.588-4.65c.34-.312.79-.582 1.376-.716.016-.003 1.86-.642 1.86-.642.324.666 1.213 1.146 2.258 1.146h.013c1.045 0 1.934-.48 2.258-1.146 0 0 1.845.639 1.86.642a2.986 2.986 0 0 1 1.34.683c.01.012.024.023.036.033l-1.587 4.65zm.852.142l1.366-4.001c.273.472.366.874.374.91l.81 3.075-2.148 1.27-.402-1.255zm.91 1.945l1.659-.981.507 2.306v.002l1.719 7.809a.534.534 0 0 1-.407.642.536.536 0 0 1-.642-.408.429.429 0 0 0-.008-.03l-2.83-9.34zm7.097 30.666h-5.53c.04-.435.172-1.128.609-1.592.325-.344.763-.51 1.34-.51h3.58v2.102zm2.384-30.458a.425.425 0 0 0-.85 0l-1.511 27.503h-4.11V54.078a1.374 1.374 0 0 0 .654.013 1.38 1.38 0 0 0 .87-.612 1.38 1.38 0 0 0 .183-1.047l-1.707-7.757V39.55h12.092v31.64h-4.11l-1.51-27.502zm.94-4.991v-.666h4.681v.666h-4.682zm6.125 35.449h-5.53v-2.103H30.7c.576 0 1.013.167 1.337.508.443.467.574 1.16.612 1.595zm-1.42-50.436c-.003.008-.023.053-.023.14v13.33h-5.621v-1.37l1.785-2.247a.426.426 0 0 0 .09-.295l-1.02-14.47.813-1.584 2.114.849a.427.427 0 0 0 .584-.419l-.155-2.945s1.538.737 1.565.744c1.04.27 1.79.71 2.332 1.195l-2.464 7.073zm.843.172l2.272-6.52c.637.89.74 1.817.742 1.832l2.505 12.772.001.003 1.062 5.413h-3.91l-2.672-13.5zm3.05 14.353h3.585l-.118 1.355h-2.706l-.762-1.355zm3.382 4.042a1.153 1.153 0 0 1-.769.442 1.152 1.152 0 0 1-.857-.23 1.152 1.152 0 0 1-.448-.805l-.268-1.241h2.445l.128.977c.04.307-.042.611-.23.857zm3.924-17.356c.072.524.265 1.008.534 1.402L39.55 37.53l-1.105-5.632 2.233-10.08c.005-.023.438-1.846 1.975-2.976-.11 1.253.693 2.577 1.177 3.25-1.053.577-1.57 1.602-1.403 2.831zm6.168 49.225h-3.192c.867-.905 1.206-1.95 1.333-2.498h1.859v2.498zm0-3.35h-1.858c-1.775-9.788-2.576-21.297-2.713-23.411h4.57v23.41zm4.046 3.35H49.45v-2.498h1.86c.126.548.465 1.593 1.332 2.498zm-1.334-3.35h-1.858V47.385h4.57c-.136 2.114-.937 13.623-2.712 23.41zm3.465-45.99c-.114.836-.685 1.604-1.223 1.643a.427.427 0 0 0-.379.307l-1.113 3.872a.426.426 0 0 0 .151.457c2.551 1.944 3.763 4.098 3.303 10.474a8.97 8.97 0 0 0 1.07 4.97H41.463a8.97 8.97 0 0 0 1.07-4.97c-.46-6.376.751-8.53 3.302-10.474.14-.107.2-.288.152-.457l-1.114-3.872a.427.427 0 0 0-.38-.307c-.536-.039-1.108-.807-1.222-1.643-.065-.476-.061-1.636 1.37-2.148a.426.426 0 0 0 .18-.68c-.021-.024-1.96-2.334-1.104-3.715.175-.066 1.402-.372 1.402-.372-.03 1.102.068 3.473 1.333 4.874.651.722 1.515 1.088 2.567 1.09h.005c1.051-.002 1.915-.368 2.567-1.09 1.264-1.401 1.363-3.772 1.332-4.874 0 0 1.227.306 1.402.37.872 1.396-1.083 3.693-1.103 3.716a.426.426 0 0 0 .18.68c1.43.512 1.434 1.673 1.37 2.149zm5.972 16.911c-.802.207-1.213-.783-1.216-.793l-4.445-14.6a3.3 3.3 0 0 0 .534-1.403c.168-1.23-.35-2.253-1.402-2.831.485-.674 1.29-2.002 1.175-3.258.357.26.654.556.9.859l.007.014a.426.426 0 0 0 .075.09c.738.96.977 1.95.994 2.019l4.14 18.695c.123.544-.223 1.069-.762 1.208z" fill="#1C1B1A"/></svg>