<svg width="70" height="75" fill="none" xmlns="http://www.w3.org/2000/svg"><path d="M17.887 12.753c-.614.426-1.31.668-2.047.668-.737 0-1.432-.242-2.046-.668v.883l2.046 4.005 2.047-4.005v-.883z" fill="#D8B4A4"/><path d="M17.537 16.195l2.197 1 .107-2.478-1.317-.454-.987 1.932z" fill="#898785"/><path d="M15.84 12.568c2 0 3.628-2.32 3.628-5.172v-1.23c-.822-.14-1.384-.694-1.629-1.595-.488.324-1.19.522-1.999.522-.809 0-1.511-.198-2-.522-.244.9-.806 1.455-1.628 1.594v1.23c0 2.853 1.627 5.173 3.628 5.173zm1.535-5.03a.44.44 0 0 1 .602 0 .424.424 0 0 1 0 .601.424.424 0 0 1-.602 0 .425.425 0 0 1 0-.602zm-2.64 2.369c.2 0 .369.138.414.324.083.051.32.14.69.14.372 0 .608-.089.691-.14a.426.426 0 0 1 .84.102c0 .524-.629.89-1.53.89-.902 0-1.531-.366-1.531-.89 0-.236.19-.426.426-.426zm-1.158-2.07a.43.43 0 0 1 .125-.3.44.44 0 0 1 .604 0 .423.423 0 0 1 0 .602.427.427 0 0 1-.729-.301z" fill="#D8B4A4"/><path d="M13.128 3.421a.426.426 0 0 1 .853 0c0 .334.724.82 1.859.82s1.86-.486 1.86-.82a.426.426 0 0 1 .853 0c0 1.056.307 1.68.915 1.868V3.11c0-.041.009-.717-.577-1.315-.612-.625-1.638-.942-3.05-.942-1.413 0-2.44.317-3.052.942-.585.598-.578 1.273-.577 1.302v2.192c.608-.187.916-.812.916-1.868z" fill="#C69C6D"/><path d="M18.812 52.616a.535.535 0 0 0 .407.643.533.533 0 0 0 .65-.438l2.828-9.34-1.659-.981-2.226 10.116z" fill="#E5CBBD"/><path d="M16.267 18.68v21.369h4.296l.473-1.793c.026-.114.21-.858.767-1.598V23.852c0-.01.02-.133.023-.14l2.464-7.073c-.541-.484-1.291-.925-2.332-1.195a634.76 634.76 0 0 1-1.276-.438l-.124 2.857a.426.426 0 0 1-.603.37l-2.806-1.28-.882 1.727z" fill="#898785"/><path d="M21.802 49.382l-1.112 3.672a1.38 1.38 0 0 1-.608.854 1.38 1.38 0 0 1-1.048.183 1.382 1.382 0 0 1-.87-.612 1.381 1.381 0 0 1-.184-1.048l2.29-10.4a.425.425 0 0 1-.12-.417l.188-.713H9.877v30.29h4.108l1.428-27.5a.425.425 0 1 1 .85 0h.003l1.428 27.5h4.108v-21.81z" fill="#5576A5"/><path d="M14.142 16.195l-.987-1.932-1.317.454.107 2.478 2.197-1z" fill="#898785"/><path d="M9.878 23.852v16.197h5.536V18.68l-.883-1.726-2.806 1.279a.427.427 0 0 1-.603-.37l-.124-2.857-1.275.438c-1.04.27-1.789.714-2.33 1.202l2.466 7.089c.005.016.019.107.019.117z" fill="#898785"/><path d="M9.043 72.556c-.437.463-.569 1.157-.607 1.592h5.528v-2.103h-3.58c-.578 0-1.016.167-1.34.511z" fill="#736357"/><path d="M23.607 41.536l-1.365-4a3.471 3.471 0 0 0-.38.93l-.805 3.054 2.148 1.27.402-1.254z" fill="#B0CE5F"/><path d="M2.499 39.59h2.697l.799-1.466H2.392l.107 1.467z" fill="#898785"/><path d="M2.348 41.421a1.155 1.155 0 0 0 1 1.299 1.155 1.155 0 0 0 1.299-1.001l.274-1.276H2.477l-.13.978z" fill="#D8B4A4"/><path d="M6.003 19.15c-.001.015-3.552 18.121-3.552 18.121h3.91l2.65-13.389-2.268-6.51c-.65.911-.739 1.763-.74 1.778z" fill="#898785"/><path d="M51.114 17.265l2.783-.668v-2.145c-1.03-.929-1.707-2.5-1.707-4.278V8.999c0-.2.142-.38.346-.419.031-.006 3.1-.619 3.1-2.59V3.418c-.762.045-2.422.27-3.544 1.35-.776.747-1.17 1.79-1.17 3.1a.428.428 0 0 1-.048.197c-.038.072-3.627 7.035-1.008 9.662a5.383 5.383 0 0 1 1.248-.46z" fill="#CC7050"/><path d="M53.043 9.337v.838c0 2.377 1.354 4.31 3.019 4.31s3.019-1.933 3.019-4.31v-.838c-.7-.186-2.263-.718-3.02-1.892-.756 1.174-2.319 1.706-3.018 1.892zm1.237 1.441a.438.438 0 0 1-.302-.124.435.435 0 0 1-.124-.302c0-.113.046-.222.124-.302a.442.442 0 0 1 .604 0 .427.427 0 0 1-.302.728zm3.262-.728a.44.44 0 0 1 .602 0 .427.427 0 0 1-.301.728.422.422 0 0 1-.3-.126.423.423 0 0 1 0-.602zm-.746 2.257a.427.427 0 0 1 .842.095c0 .535-.648.91-1.576.91s-1.576-.375-1.576-.91a.426.426 0 0 1 .842-.095c.084.054.334.151.734.151.4 0 .65-.097.734-.151z" fill="#FCEBE6"/><path d="M24.008 30.647a6.663 6.663 0 0 1-.079-1.02c0-3.688 1.497-4.916 2.738-5.418l-.99-5.058c-.006-.062-.099-.898-.736-1.788l-2.271 6.52 1.338 6.764z" fill="#898785"/><path d="M44.662 27.176h.001a.426.426 0 0 1 .72 0l.88 1.4h3.633c0-2.655-1.79-3.836-3.54-3.836-2.077 0-3.288 1.32-3.541 3.835h.968l.879-1.4z" fill="#754C24"/><path d="M59.587 8.58a.426.426 0 0 1 .346.419v1.175c0 1.778-.677 3.349-1.706 4.278v2.146l2.785.668c.462.109.875.268 1.246.46 2.619-2.628-.97-9.59-1.007-9.662a.428.428 0 0 1-.049-.198c0-1.31-.395-2.355-1.174-3.103-1.126-1.081-2.78-1.303-3.54-1.346v2.574c0 1.977 3.068 2.583 3.099 2.59z" fill="#CC7050"/><path d="M56.061 15.338a3.01 3.01 0 0 1-1.313-.307v1.903a.426.426 0 0 1-.326.415l-1.941.465c.216 1.177 1.598 1.947 3.58 1.947s3.364-.77 3.581-1.947l-1.941-.465a.426.426 0 0 1-.327-.415v-1.903c-.41.198-.852.306-1.313.306z" fill="#FCEBE6"/><path d="M49.946 29.627l-.002-.2h-3.918a.426.426 0 0 1-.361-.199l-.643-1.024-.643 1.024a.426.426 0 0 1-.361.2h-1.253l-.002.199c0 2.54 1.61 4.606 3.591 4.606 1.98 0 3.592-2.066 3.592-4.606zm-2.225.482a.442.442 0 0 1 .603 0 .43.43 0 0 1 .125.302.427.427 0 1 1-.728-.302zm-3.336.609a.422.422 0 0 1 0-.602.44.44 0 0 1 .602 0 .427.427 0 0 1-.302.728.425.425 0 0 1-.3-.126zm.539 1.789c0-.236.19-.427.425-.428h.001c.186 0 .344.119.402.284.087.043.294.103.597.103h.005c.306 0 .515-.062.602-.105a.427.427 0 0 1 .401-.286h.001c.235 0 .426.19.427.425 0 .17-.073.482-.565.674a2.465 2.465 0 0 1-.864.145h-.008c-.85 0-1.423-.326-1.424-.812zm-16.552 2.579c-.449 0-.883-.083-1.292-.236a.425.425 0 0 1-.166.237c.205.314.759.592 1.452.592h.014c.694 0 1.247-.278 1.452-.592a.425.425 0 0 1-.166-.237 3.68 3.68 0 0 1-1.293.236z" fill="#E5CBBD"/><path d="M48.484 34.435l.742.258c.097-.437.199-.853.304-1.25a4.705 4.705 0 0 1-1.046.975v.017z" fill="#FCEBE6"/><path d="M24.833 28.575h.969l.878-1.4a.426.426 0 0 1 .721.002l.001-.001.879 1.4h3.634c-.254-2.515-1.464-3.836-3.541-3.836s-3.288 1.32-3.541 3.835z" fill="#C69C6D"/><path d="M24.113 31.185l.739 3.733 1.391-.483v-.017c-1.017-.685-1.792-1.844-2.13-3.233z" fill="#898785"/><path d="M46.354 35.086c-.45 0-.883-.083-1.292-.236a.424.424 0 0 1-.166.237c.204.315.759.595 1.457.592h.008c.693 0 1.247-.278 1.452-.592a.425.425 0 0 1-.166-.237c-.41.153-.843.236-1.293.236zm-18.671-5.858l-.643-1.024-.643 1.024a.426.426 0 0 1-.36.2h-1.253c-.001.066-.003.131-.003.199 0 2.54 1.611 4.606 3.592 4.606 1.98 0 3.592-2.066 3.592-4.606 0-.067-.002-.133-.003-.2h-3.918a.426.426 0 0 1-.36-.199zm-1.28 1.491a.432.432 0 0 1 0-.604.442.442 0 0 1 .604 0 .431.431 0 0 1 0 .604.435.435 0 0 1-.302.125.435.435 0 0 1-.302-.125zm3.337-.61a.44.44 0 0 1 .602 0 .425.425 0 1 1-.602.602.424.424 0 0 1 0-.602zm-.766 2.252a.426.426 0 0 1 .829.14c0 .169-.072.481-.565.673a2.464 2.464 0 0 1-.863.145h-.008c-.85 0-1.423-.326-1.424-.812 0-.236.19-.427.425-.428h.001c.186 0 .343.119.402.284.087.043.3.11.602.103.306 0 .514-.062.601-.105z" fill="#E5CBBD"/><path d="M24.639 52.541l-.944 8.87h3.701l.553-6.328a.426.426 0 1 1 .848 0h.002l.557 6.328h3.697l-.944-8.87h-7.47z" fill="#C69C6D"/><path d="M50.09 52.541h-7.47l-.944 8.87h3.7l.554-6.328a.426.426 0 1 1 .848 0h.001l.558 6.328h3.696l-.943-8.87z" fill="#C66D6D"/><path d="M49.573 72.16l.513-9.897h-2.372l-.003 9.897h1.862z" fill="#E5CBBD"/><path d="M49.975 73.013H47.71v1.134h3.403l.01-.007c-.038-.262-.13-.595-.352-.83-.19-.199-.45-.297-.795-.297z" fill="#B3B3B3"/><path d="M52.86 38.445a3.468 3.468 0 0 0-.373-.91l-1.366 4 .403 1.256 2.148-1.271-.811-3.075z" fill="#5F7ECE"/><path d="M42.733 73.013c-.345 0-.604.098-.794.298-.223.236-.316.573-.354.836H45v-1.134h-2.267z" fill="#B3B3B3"/><path d="M44.998 72.16l-.003-9.897h-2.372l.513 9.897h1.862z" fill="#E5CBBD"/><path d="M51.056 43.791l-.156 8.305.052.482h2.941l-2.642-8.726a.425.425 0 0 1-.195-.06z" fill="#BADFE8"/><path d="M52.441 74.147h3.194V71.65h-1.86c-.127.549-.467 1.593-1.334 2.498z" fill="#998675"/><path d="M64.99 24.458l-2.541 1.155a3.39 3.39 0 0 1-.332.693l4.451 14.62.008.03c.06.263.218.487.446.631a1.005 1.005 0 0 0 1.393-.314c.144-.228.191-.499.132-.762L64.99 24.458zm-10.343 29.45a1.384 1.384 0 0 1-.46-.477h-2.36c.036 1.682.285 8.214 1.95 17.365h1.86V54.101a1.382 1.382 0 0 1-.99-.193zm1.918-.428c-.024.037-.05.073-.077.108v17.208h1.86c1.666-9.156 1.914-15.684 1.95-17.365h-3.706l-.027.048z" fill="#FCEBE6"/><path d="M56.488 71.65v2.497h3.194c-.867-.905-1.206-1.95-1.332-2.498h-1.862z" fill="#998675"/><path d="M21.298 72.045h-3.581v2.103h5.029a2.83 2.83 0 0 1 .278-.972c-.308-.76-.874-1.131-1.726-1.131z" fill="#736357"/><path d="M53.689 42.5l-1.66.981 2.828 9.34.008.03a.535.535 0 0 0 .642.408.534.534 0 0 0 .408-.642L53.689 42.5zm-17.981 0l-1.66.981 2.829 9.34.008.03a.534.534 0 0 0 .642.408.534.534 0 0 0 .407-.642L35.708 42.5z" fill="#E5CBBD"/><path d="M42.464 41.524l.19 10.164h7.4l.19-10.164c0-.009.021-.124.023-.13l1.588-4.651a2.986 2.986 0 0 0-1.377-.716c-.015-.003-1.86-.642-1.86-.642-.324.666-1.212 1.146-2.257 1.146h-.013c-1.045 0-1.934-.48-2.258-1.146 0 0-1.845.639-1.86.642a2.986 2.986 0 0 0-1.377.716l1.588 4.65c.002.007.023.122.023.13z" fill="#5F7ECE"/><path d="M27.018 72.16l-.004-9.897h-2.371l.513 9.897h1.862zm2.714-9.897l-.003 9.897h1.861l.513-9.897h-2.371z" fill="#E5CBBD"/><path d="M24.752 73.013c-.345 0-.605.098-.794.298-.223.236-.316.573-.354.836h3.414v-1.134h-2.266z" fill="#B3B3B3"/><path d="M32.498 36.027a.38.38 0 0 1-.045-.013l-1.815-.63c-.324.667-1.213 1.147-2.258 1.147h-.013c-1.045 0-1.933-.48-2.258-1.146l-1.814.63a.43.43 0 0 1-.045.012 2.987 2.987 0 0 0-1.377.716l1.588 4.65.023.13.19 10.165h7.4l.19-10.164c0-.009.02-.124.023-.13l1.588-4.651a2.988 2.988 0 0 0-1.377-.716z" fill="#B0CE5F"/><path d="M29.729 73.013v1.134h3.414c-.038-.263-.13-.6-.354-.836-.19-.2-.449-.298-.794-.298h-2.266z" fill="#B3B3B3"/><path d="M37.8 48.045l.631 2.865 2.25-7.429-1.66-.981-1.22 5.545z" fill="#E5CBBD"/><path d="M61.803 22.076c.697.631.918 1.607.853 2.506l2.147-.976-.397-1.791c-.028-.122-.735-3.048-3.591-3.72l-.337-.08c-.308 1.574-2.005 2.598-4.416 2.598-2.412 0-4.108-1.024-4.416-2.598l-.335.08c-2.859.672-3.566 3.599-3.594 3.723l-.397 1.788 2.147.976c-.064-.9.157-1.875.853-2.506a.427.427 0 0 1 .573.631c-.66.599-.71 1.771-.416 2.62.229.662.634 1.093 1.056 1.123a.426.426 0 0 1 .396.4l.145 2.471a.426.426 0 0 1-.074.266c-.761 1.115-1.421 2.927-1.964 5.387l.656.228c2.386.556 2.953 2.846 3 3.054l.886 3.358a.425.425 0 0 1-.12.417s2.308 10.498 2.314 10.547h6.941c-.03-2.773-.345-18.241-3.59-22.991a.426.426 0 0 1-.073-.266l.145-2.471a.426.426 0 0 1 .395-.4c.423-.03.828-.46 1.057-1.123.293-.849.244-2.021-.416-2.62a.426.426 0 0 1 .572-.631z" fill="#BADFE8"/><path d="M34.883 38.466l-.005-.02a3.461 3.461 0 0 0-.373-.91l-1.366 4 .402 1.255 2.149-1.271-.807-3.054z" fill="#B0CE5F"/><path d="M39.848 38.447l-.005.019-.806 3.054 2.148 1.27.403-1.254-1.366-4a3.481 3.481 0 0 0-.374.91z" fill="#5F7ECE"/><path d="M27.37 32.08h-.001a.426.426 0 0 0-.426.427c.002.486.573.812 1.425.812h.007c.32 0 .627-.052.864-.145.492-.192.565-.504.565-.673a.427.427 0 1 0-.829-.14c-.087.043-.296.105-.602.105a1.398 1.398 0 0 1-.602-.103.426.426 0 0 0-.401-.283zm-.238-1.662a.432.432 0 0 0-.125-.302.442.442 0 0 0-.603 0 .431.431 0 0 0 0 .604c.08.078.19.124.302.124a.435.435 0 0 0 .302-.124.435.435 0 0 0 .124-.302zm2.91.418a.426.426 0 0 0 .426-.426.425.425 0 0 0-.126-.3.44.44 0 0 0-.602 0 .423.423 0 0 0 0 .601c.078.08.189.125.302.125zm17.178 2.338c.493-.192.566-.504.565-.673a.426.426 0 0 0-.426-.426h-.001a.427.427 0 0 0-.402.286c-.087.043-.295.105-.601.105h-.005c-.303 0-.51-.06-.597-.103a.426.426 0 0 0-.828.144c.001.486.573.812 1.424.812h.008c.32 0 .626-.052.864-.145zm-2.108-2.756a.427.427 0 0 0-.124-.302.44.44 0 0 0-.602 0 .422.422 0 0 0 0 .602.425.425 0 0 0 .726-.3zm2.911.418a.427.427 0 0 0 .426-.425.431.431 0 0 0-.124-.302.442.442 0 0 0-.604 0 .431.431 0 0 0-.124.302.427.427 0 0 0 .426.425zm6.89-18.861a.426.426 0 0 0-.427.426c0 .535.648.91 1.576.91s1.576-.375 1.576-.91a.426.426 0 0 0-.842-.095c-.084.055-.334.152-.734.152-.4 0-.65-.098-.734-.152a.426.426 0 0 0-.415-.331zm-.207-1.624a.428.428 0 0 0-.124-.301.443.443 0 0 0-.604 0 .435.435 0 0 0-.125.301c0 .113.047.222.125.302.08.079.191.125.302.125a.428.428 0 0 0 .426-.426zm3.136.427a.428.428 0 0 0 .302-.728.44.44 0 0 0-.602 0 .422.422 0 0 0 0 .602c.079.08.188.126.3.126z" fill="#1C1B1A"/><path d="M65.71 23.759l-.001-.003-.472-2.127c-.024-.111-.507-2.137-2.243-3.44 2.678-2.988-.484-9.526-.94-10.427-.022-1.504-.505-2.72-1.436-3.614-1.704-1.636-4.301-1.6-4.557-1.592-.259-.008-2.853-.044-4.556 1.592-.932.894-1.415 2.11-1.436 3.614-.456.901-3.619 7.439-.94 10.426-1.737 1.304-2.22 3.33-2.245 3.442l-.5 2.257h-.03c-1.276 0-4.444.424-4.444 5.74 0 2.063.937 3.862 2.315 4.79v.018l-2.208.766c-2.385.557-2.953 2.846-3 3.055l-.886 3.357a.425.425 0 0 0 .12.417l-.887 4.031-.888-4.03a.426.426 0 0 0 .12-.418l-.886-3.357c-.047-.209-.614-2.498-3-3.055l-2.208-.766v-.018c1.378-.928 2.315-2.727 2.315-4.79 0-5.273-3.167-5.74-4.444-5.74-.245 0-.55.02-.885.082l-.965-4.92c-.037-.336-.481-3.418-4.336-4.426l-3.449-1.189v-1.45c.967-1.106 1.582-2.752 1.582-4.588V3.127c.001-.043.03-1.044-.802-1.91C18.741.41 17.504 0 15.84 0c-1.665 0-2.902.41-3.68 1.218-.832.865-.803 1.866-.801 1.892v4.286c0 1.836.615 3.482 1.581 4.588v1.45l-3.449 1.189c-3.854 1.008-4.298 4.09-4.336 4.427 0 0-3.647 18.66-3.647 18.667v.012l.166 2.276L1.5 41.31a2 2 0 0 0 .401 1.487 1.998 1.998 0 0 0 1.599.785 2 2 0 0 0 1.223-.418c.421-.324.692-.791.766-1.317l.363-1.68 1.233-2.266c.002-.004 1.938-9.699 1.938-9.699v43.305c-.223.12-.424.274-.602.462-.936.992-.857 2.562-.853 2.628.013.226.2.402.426.402h6.395a.427.427 0 0 0 .426-.427V71.63l1.024-19.704 1.023 19.704v2.944c0 .236.19.427.426.427h10.155a.427.427 0 0 0 .427-.427l-.004-12.317a.427.427 0 0 0 .343-.382l.165-1.878.165 1.879c.017.19.158.343.34.38l-.005 12.318a.427.427 0 0 0 .426.427h4.292a.426.426 0 0 0 .426-.4c.003-.048.06-1.16-.607-1.87a1.762 1.762 0 0 0-.97-.528l.516-9.938h.568a.426.426 0 0 0 .424-.472l-1.032-9.696.156-8.304a.422.422 0 0 0 .195.06l2.787 9.203c.084.355.299.657.608.853a1.381 1.381 0 0 0 1.048.183 1.382 1.382 0 0 0 1.083-1.443l2.663-8.795a.422.422 0 0 0 .196-.06l.155 8.303-1.031 9.696a.427.427 0 0 0 .424.471h.568l.515 9.94c-.385.074-.71.251-.97.527-.667.71-.61 1.822-.606 1.87.013.224.2.4.425.4h4.292a.427.427 0 0 0 .427-.427l-.005-12.317a.427.427 0 0 0 .344-.382l.164-1.877.166 1.878a.426.426 0 0 0 .339.38l-.005 12.318a.427.427 0 0 0 .427.427h13.602a.426.426 0 0 0 .223-.79c-1.567-.96-1.919-2.652-1.973-2.98 1.725-9.377 1.978-16.091 2.015-17.8h2.991c.236 0 .427-.19.427-.426 0-.746-.042-18.22-3.66-23.775l.118-2.002c.146-.048.285-.118.418-.206l4.304 14.138c.112.478.403.886.819 1.148a1.85 1.85 0 0 0 1.404.243c.486-.11.9-.402 1.165-.823.266-.42.352-.92.242-1.403L65.71 23.759zM56.486 3.417c.76.043 2.414.265 3.54 1.346.78.748 1.174 1.792 1.174 3.104 0 .068.017.136.049.197.037.072 3.626 7.034 1.007 9.662a5.376 5.376 0 0 0-1.246-.46l-2.784-.668v-2.146c1.028-.929 1.706-2.5 1.706-4.278V9c0-.2-.143-.38-.347-.419-.031-.006-3.099-.612-3.099-2.59V3.418zM57.7 17.349l1.941.465c-.217 1.177-1.599 1.947-3.58 1.947-1.983 0-3.365-.77-3.582-1.947l1.942-.465a.426.426 0 0 0 .327-.415V15.03c.41.198.851.306 1.312.306.46 0 .903-.108 1.313-.306v1.903c0 .197.135.368.327.415zm-1.64-9.904c.757 1.174 2.32 1.705 3.019 1.891v.838c0 2.377-1.354 4.31-3.019 4.31s-3.019-1.933-3.019-4.31v-.838c.7-.186 2.262-.717 3.02-1.891zm-5.188.62a.426.426 0 0 0 .048-.198c0-1.31.394-2.352 1.17-3.1 1.122-1.08 2.782-1.305 3.544-1.35v2.574c0 1.97-3.068 2.583-3.1 2.59a.426.426 0 0 0-.345.418v1.175c0 1.778.677 3.35 1.706 4.278v2.146l-2.783.668a5.387 5.387 0 0 0-1.248.46c-2.619-2.627.97-9.59 1.008-9.662zM46.354 24.74c1.75 0 3.541 1.181 3.541 3.835h-3.634l-.878-1.4a.426.426 0 0 0-.721.002l-.001-.001-.879 1.4h-.968c.253-2.515 1.464-3.836 3.54-3.836zm-3.591 4.887l.002-.2h1.253a.426.426 0 0 0 .36-.199l.644-1.024.643 1.024c.078.124.214.2.36.2h3.919l.002.2c0 2.54-1.611 4.605-3.592 4.605-1.98 0-3.591-2.066-3.591-4.606zm6.766 3.815c-.105.398-.207.814-.305 1.25l-.74-.257v-.017a4.72 4.72 0 0 0 1.045-.976zm-1.716 1.645c-.205.314-.759.592-1.452.592h-.007c-.7.003-1.254-.277-1.459-.592a.426.426 0 0 0 .167-.237 3.672 3.672 0 0 0 2.584 0c.027.096.085.18.167.237zm-15.849-5.46c0 2.54-1.61 4.607-3.591 4.607-1.98 0-3.592-2.067-3.592-4.607l.002-.2h1.253a.426.426 0 0 0 .361-.199l.643-1.024.643 1.024c.078.124.214.2.361.2h3.918c.001.066.003.132.003.2zm-2.133 5.46c-.205.314-.758.592-1.452.592h-.013c-.693 0-1.247-.278-1.452-.592a.424.424 0 0 0 .166-.237 3.671 3.671 0 0 0 2.585 0c.026.096.085.18.166.237zm-3.587-.67v.018l-1.392.483-.738-3.733c.337 1.389 1.113 2.548 2.13 3.233zm2.129-9.677c2.077 0 3.287 1.32 3.54 3.835H28.28l-.879-1.4v.002a.426.426 0 0 0-.72 0l-.88 1.398h-.969c.253-2.514 1.464-3.835 3.54-3.835zm-2.696-5.59c.001.015.99 5.059.99 5.059-1.241.502-2.739 1.73-2.739 5.418 0 .349.028.69.08 1.02l-1.339-6.765 2.271-6.519c.637.89.73 1.726.737 1.788zm-4.62 22.37l.805-3.055.005-.019c.008-.036.101-.438.374-.911l1.366 4-.402 1.255-2.149-1.27zm1.641 1.961l-2.828 9.34a.535.535 0 0 1-.65.438.535.535 0 0 1-.407-.643L21.039 42.5l1.659.981zm1.34-8.28h-.002a3.848 3.848 0 0 0-1.381.62v-7.617l1.384 6.996zm-3.906-16.93a.426.426 0 0 0 .426-.408l.124-2.857 1.275.438c1.041.27 1.791.71 2.333 1.195l-2.464 7.073c-.003.007-.024.13-.024.14v12.806a4.51 4.51 0 0 0-.766 1.599l-.473 1.792h-4.297V18.68l.882-1.726 2.807 1.279a.428.428 0 0 0 .177.038zm-4.292-.63l-2.047-4.005v-.883c.614.426 1.31.668 2.047.668.737 0 1.432-.242 2.046-.668v.883L15.84 17.64zm4-2.925l-.107 2.478-2.197-1 .988-1.932 1.317.454zm-7.052-12.92C13.4 1.17 14.427.852 15.84.852c1.412 0 2.439.317 3.051.942.585.598.578 1.274.577 1.315V5.29c-.608-.187-.916-.812-.916-1.868a.426.426 0 1 0-.853 0c0 .334-.724.82-1.86.82-1.134 0-1.859-.486-1.859-.82a.426.426 0 1 0-.853 0c0 1.056-.308 1.681-.915 1.868V3.097c-.001-.028-.009-.704.576-1.302zm-.577 5.6v-1.23c.822-.14 1.384-.694 1.63-1.594.487.324 1.19.522 1.998.522.81 0 1.511-.198 2-.522.244.9.806 1.454 1.628 1.593v1.23c0 2.853-1.627 5.173-3.628 5.173-2 0-3.628-2.32-3.628-5.172zm.945 6.866l.987 1.932-2.197 1-.108-2.478 1.318-.454zM4.646 41.72a1.157 1.157 0 0 1-1.299 1 1.151 1.151 0 0 1-.769-.442 1.151 1.151 0 0 1-.231-.856l.129-.978H4.92s-.273 1.264-.274 1.276zm.55-2.129H2.498l-.107-1.467h3.603l-.798 1.467zm1.165-2.32h-3.91l3.551-18.119c.002-.016.09-.867.74-1.779l2.268 6.51-2.649 13.39zm1.031-20.625c.542-.489 1.29-.932 2.33-1.202l1.276-.438.123 2.857a.427.427 0 0 0 .603.37l2.807-1.28.882 1.727v21.369H9.877V23.852c0-.01-.014-.1-.018-.117l-2.467-7.09zm6.571 57.501H8.434c.039-.435.171-1.128.608-1.591.325-.344.763-.511 1.34-.511h3.581v2.102zm2.303-30.457h-.003a.425.425 0 0 0-.85 0l-1.428 27.502H9.877v-30.29h10.46l-.187.712a.425.425 0 0 0 .12.417l-2.29 10.4c-.08.362-.016.735.183 1.048a1.38 1.38 0 0 0 1.177.646c.26 0 .517-.074.742-.217a1.38 1.38 0 0 0 .608-.854l1.112-3.672v21.81h-4.108L16.266 43.69zm6.479 30.457h-5.03v-2.103h3.582c.852 0 1.418.371 1.726 1.132a2.834 2.834 0 0 0-.278.971zm-.09-2.634V46.566l.822-2.713a.421.421 0 0 0 .195-.061l.155 8.304-1.031 9.696a.427.427 0 0 0 .424.471h.568l.516 9.939a1.81 1.81 0 0 0-.673.28 2.479 2.479 0 0 0-.976-.969zm.948 2.634c.038-.263.131-.6.354-.836.19-.2.45-.297.794-.298h2.267v1.134h-3.415zm1.04-11.884h2.37l.004 9.897h-1.862l-.513-9.897zm8.145 11.048c.224.236.317.573.355.836h-3.415v-1.134h2.266c.345 0 .605.098.794.298zm-3.06-1.15l.004-9.898h2.371l-.513 9.897h-1.862zm3.323-10.75h-3.696l-.558-6.328a.426.426 0 0 0-.849 0l-.553 6.328h-3.7l.942-8.87h7.471l.944 8.87zm-.765-20.017a2.469 2.469 0 0 0-.023.13l-.19 10.164h-7.4l-.19-10.165a2.71 2.71 0 0 0-.023-.13l-1.588-4.65c.34-.312.789-.582 1.377-.716a.387.387 0 0 0 .045-.013l1.814-.63c.325.667 1.213 1.147 2.258 1.147h.014c1.045 0 1.934-.48 2.258-1.146l1.815.63a.43.43 0 0 0 .045.012 2.986 2.986 0 0 1 1.376.716l-1.587 4.65zm.852.142l1.366-4.001a3.464 3.464 0 0 1 .38.93l.805 3.055-2.148 1.27-.403-1.254zm4.724 11.486a.534.534 0 0 1-.979-.17.432.432 0 0 0-.007-.031l-2.828-9.34 1.659-.981 2.226 10.117a.535.535 0 0 1-.07.405zm.568-2.112l-.63-2.865 1.22-5.545 1.66.981-2.25 7.429zm2.756-8.12l-2.148-1.27.806-3.055.005-.019c.007-.036.1-.438.374-.911l1.366 4-.403 1.255zm-.333-6.047c.341-.312.79-.582 1.377-.716.015-.003 1.86-.642 1.86-.642.324.666 1.212 1.146 2.258 1.146h.012c1.045 0 1.933-.48 2.258-1.146 0 0 1.844.639 1.86.642a2.986 2.986 0 0 1 1.376.716l-1.588 4.65a2.577 2.577 0 0 0-.023.13l-.19 10.165h-7.4l-.19-10.165c0-.008-.02-.123-.023-.13l-1.588-4.65zm10.267 4.793l1.366-4.001c.273.472.366.874.374.91l.81 3.075-2.148 1.27-.402-1.254zm2.773 11.042H50.95l-.051-.482.155-8.304a.418.418 0 0 0 .196.06l2.642 8.726zm-12.309 21.57c.038-.264.131-.6.355-.837.19-.2.449-.297.794-.298h2.266v1.134h-3.415zm1.04-11.885h2.371L45 72.16h-1.862l-.513-9.897zm4.155-7.18h-.001a.426.426 0 0 0-.848 0l-.554 6.328h-3.7l.943-8.87h7.47l.944 8.87h-3.697l-.557-6.328zm3.306 7.18l-.513 9.897H47.71l.003-9.897h2.372zm1.027 11.884H47.71v-1.134h2.266c.346 0 .605.098.795.298.221.234.314.567.353.83a.941.941 0 0 0-.01.006zm.282-1.418a1.762 1.762 0 0 0-.97-.527l.515-9.939h.568a.438.438 0 0 0 .13-.022c.298 2.577.729 5.61 1.35 8.99a4.656 4.656 0 0 1-1.138 2.296 2.118 2.118 0 0 0-.455-.797zm4.24 1.418h-3.193c.867-.905 1.206-1.95 1.333-2.498h1.86v2.498zm0-3.35h-1.859c-1.665-9.152-1.913-15.684-1.95-17.366h2.361c.11.191.267.355.459.477a1.381 1.381 0 0 0 .99.192v16.696zm.21-17.775a.534.534 0 0 1-.979-.17.431.431 0 0 0-.008-.031l-2.828-9.34 1.66-.981 2.226 10.117a.534.534 0 0 1-.071.405zm3.838 21.125h-3.195V71.65h1.862c.126.549.466 1.593 1.333 2.498zm-1.335-3.35h-1.86v-17.21c.027-.034.053-.07.077-.108l.027-.048h3.707c-.037 1.681-.285 8.21-1.95 17.365zm2.883-48.09c.66.599.709 1.771.416 2.62-.229.662-.633 1.092-1.056 1.123a.426.426 0 0 0-.395.4l-.146 2.471a.426.426 0 0 0 .074.266c3.244 4.75 3.559 20.218 3.59 22.991H56.77c-.005-.049-2.313-10.547-2.313-10.547a.425.425 0 0 0 .12-.417l-.887-3.358c-.047-.209-.614-2.498-3-3.055l-.656-.227c.543-2.46 1.203-4.272 1.965-5.387a.425.425 0 0 0 .073-.266l-.145-2.471a.427.427 0 0 0-.395-.4c-.423-.03-.828-.46-1.057-1.123-.293-.849-.244-2.021.416-2.62a.426.426 0 1 0-.573-.632c-.696.632-.917 1.607-.853 2.507l-2.147-.976.397-1.788c.028-.124.735-3.051 3.594-3.723l.335-.08c.308 1.574 2.004 2.598 4.416 2.598 2.411 0 4.108-1.024 4.416-2.598l.337.08c2.857.672 3.563 3.599 3.591 3.72l.397 1.791-2.147.976c.065-.9-.156-1.875-.852-2.507a.426.426 0 1 0-.573.632zm-10.669 4.7l.118-.386c.133.088.272.158.417.206l.118 2.002c-.146.223-.287.47-.425.738.006-.113-.013-1.754-.228-2.56zm17.855 13.865a1.004 1.004 0 0 1-.632.446c-.263.06-.534.013-.762-.131a1.003 1.003 0 0 1-.454-.662l-4.45-14.62c.128-.205.241-.435.331-.693l2.542-1.155 3.556 16.053a1 1 0 0 1-.131.762z" fill="#1C1B1A"/><path d="M15.84 11.224c.902 0 1.531-.366 1.531-.89a.426.426 0 0 0-.84-.103c-.083.051-.32.14-.69.14-.372 0-.608-.089-.691-.14a.426.426 0 0 0-.84.102c0 .525.629.89 1.53.89zM14.305 8.14a.427.427 0 0 0 0-.603.439.439 0 0 0-.603 0 .43.43 0 0 0-.125.3c0 .113.046.224.125.302a.43.43 0 0 0 .603 0zm3.371.124a.424.424 0 0 0 .302-.726.44.44 0 0 0-.602 0 .425.425 0 0 0 .3.726z" fill="#1C1B1A"/><path d="M11.287 29.354a.426.426 0 0 1-.38-.234l-.472-.934-.473.934a.426.426 0 0 1-.38.234H7.396c-.002.086-.003.173-.003.261 0 1.365.333 2.737 1.046 3.624.028.026.801.983 1.996.983 1.195 0 1.967-.957 1.995-.983.714-.887 1.047-2.259 1.047-3.624 0-.088-.002-.175-.003-.261h-2.187zm-2.822 1.354a.427.427 0 0 1 0-.604.44.44 0 0 1 .602 0 .428.428 0 0 1-.302.728.43.43 0 0 1-.3-.124zm2.835 2.408a2.464 2.464 0 0 1-.863.145h-.008c-.85 0-1.423-.326-1.425-.812 0-.235.19-.427.425-.428h.002c.185 0 .343.119.402.284.086.043.293.103.597.103h.005c.305 0 .514-.062.601-.105a.427.427 0 0 1 .401-.286h.001c.235 0 .426.19.427.425 0 .17-.072.482-.565.674zm1.105-2.408a.434.434 0 0 1-.302.124.435.435 0 0 1-.302-.124.432.432 0 0 1 0-.604.442.442 0 0 1 .604 0 .432.432 0 0 1 0 .604z" fill="#E0B489"/><path d="M11.44 32.018h-.002a.426.426 0 0 0-.4.285c-.088.043-.296.105-.602.106h-.005c-.303 0-.51-.06-.597-.103a.427.427 0 0 0-.402-.284h-.001a.426.426 0 0 0-.425.428c.001.486.574.811 1.425.811h.007c.32 0 .626-.052.864-.144.492-.192.565-.505.564-.674a.427.427 0 0 0-.426-.425zm-2.247-1.612a.425.425 0 0 0-.125-.302.44.44 0 0 0-.602 0 .428.428 0 0 0 .3.728.432.432 0 0 0 .302-.124.43.43 0 0 0 .125-.302zm2.609-.302a.431.431 0 0 0 0 .604c.08.078.19.125.302.125a.435.435 0 0 0 .302-.125.435.435 0 0 0 .124-.302.432.432 0 0 0-.124-.302.443.443 0 0 0-.604 0z" fill="#1C1B1A"/><path d="M10.436 35.075c-.462 0-.893-.088-1.289-.252a.424.424 0 0 1-.25.296c.037.815.27 1.535 1.539 1.535 1.27 0 1.501-.722 1.538-1.535a.424.424 0 0 1-.25-.296 3.344 3.344 0 0 1-1.288.252z" fill="#E0B489"/><path d="M6.54 29.616c0-.246.008-.486.022-.714a.422.422 0 0 1 .425-.399v-.001h2.334l.734-1.453a.426.426 0 0 1 .76 0h.001l.735 1.453h2.333v.001c.225 0 .412.173.426.4.014.227.02.467.02.713 0 1.396-.286 2.595-.796 3.512h2.174c-.06-3.425-.916-5.8-2.366-7.25-1.237-1.236-2.89-1.152-2.901-1.152-.014 0-1.69-.07-2.928 1.168-.698.699-1.281 1.589-1.672 2.74a.42.42 0 0 1-.033.094c-.398 1.213-.614 2.682-.644 4.4h2.174c-.51-.917-.797-2.116-.797-3.512z" fill="#754C24"/><path d="M16.801 39.408l-1.65 1.463-.095.772c.006.013 3.877 11.15 3.877 11.15a.45.45 0 0 1 .013.047.535.535 0 0 0 .979.17.534.534 0 0 0 .07-.404l-3.194-13.198z" fill="#E0B489"/><path d="M14.56 36.016c-.016-.004-1.753-.606-1.753-.606-.09.858-.498 2.096-2.372 2.096-1.875 0-2.283-1.24-2.372-2.096 0 0-1.736.602-1.752.605-.937.214-2.124 1.485-2.315 2.188l2.41 2.136a.426.426 0 0 1 .14.267l.274 2.223h7.23l.275-2.223a.426.426 0 0 1 .14-.267l2.41-2.136c-.179-.535-.764-1.835-2.315-2.188z" fill="#FF7B7B"/><path d="M11.791 73.001v1.134h3.266c-.224-.484-.685-1.132-1.547-1.134h-1.719z" fill="#F4A2A9"/><path d="M11.791 72.148h1.362c.28-1.602 1.413-8.393 1.475-13.376h-2.834l-.003 13.376z" fill="#E0B489"/><path d="M13.946 43.682h-7.02l.094.765h6.831l.095-.765z" fill="#F4A2A9"/><path d="M6.89 45.3c-.618 1.1-3.48 6.507-3.61 12.62h14.31c-.13-6.12-2.99-11.522-3.608-12.62H6.89z" fill="#FF7B7B"/><path d="M7.361 73.001c-.862.002-1.322.65-1.547 1.134h3.267v-1.134H7.36z" fill="#F4A2A9"/><path d="M4.07 39.408l-1.558 6.437-.001.005-1.638 6.763a.534.534 0 0 0 .41.635.538.538 0 0 0 .642-.408.404.404 0 0 1 .013-.047s3.871-11.136 3.877-11.15l-.095-.772-1.65-1.463zm5.01 32.74l-.003-13.376H6.243c.062 4.984 1.196 11.774 1.475 13.376H9.08z" fill="#E0B489"/><path fill-rule="evenodd" clip-rule="evenodd" d="M17.524 38.768l.117-.103a.426.426 0 0 0 .134-.408c-.021-.102-.555-2.495-3.002-3.067l-2.208-.766v-.107a3.68 3.68 0 0 0 .356-.336h3.217a.427.427 0 0 0 .426-.427c0-3.898-.89-6.691-2.646-8.303-1.542-1.417-3.192-1.376-3.483-1.376-.293 0-1.941-.039-3.482 1.376a6.625 6.625 0 0 0-1.404 1.881l-.567 1.384c-.448 1.393-.674 3.075-.674 5.038 0 .236.19.427.426.427H7.95c.113.121.231.234.356.336v.107l-1.061.368-.811.282-.336.116a3.805 3.805 0 0 0-1.869 1.035l-.638.83a4.35 4.35 0 0 0-.496 1.202c-.032.15.02.306.134.408l.118.104-.768 3.172-.907 3.748S.025 52.518.019 52.567c0 0-.043.306 0 .485.043.18.219.433.219.433a1.38 1.38 0 0 0 1.162.628c.628 0 1.196-.428 1.35-1.06l3.3-9.501.152 1.23c-.557.96-3.778 6.806-3.778 13.564 0 .235.19.426.426.426h2.54c.06 4.952 1.162 11.644 1.47 13.429-1.287.271-1.907 1.556-2.062 2.271a.426.426 0 0 0 .417.517h4.292a.427.427 0 0 0 .426-.427l-.004-15.79h1.013l-.005 15.79a.426.426 0 0 0 .427.427h4.291a.426.426 0 0 0 .417-.517c-.154-.715-.774-2-2.063-2.271.31-1.785 1.411-8.476 1.472-13.429h2.54c.235 0 .425-.19.425-.426 0-6.758-3.221-12.605-3.777-13.563l.152-1.232 3.3 9.501c.085.351.299.65.605.845a1.382 1.382 0 0 0 1.048.183c.363-.081.672-.298.87-.612.2-.314.265-.686.182-1.056l-3.302-13.644zm-10.13-9.152c0 1.365.333 2.737 1.046 3.624l.014.015c.112.126.861.967 1.982.967 1.12 0 1.869-.84 1.981-.967l.014-.015c.713-.887 1.047-2.259 1.047-3.624 0-.088-.002-.175-.004-.261h-2.186a.426.426 0 0 1-.38-.234l-.473-.935-.472.935a.426.426 0 0 1-.38.234H7.397v.02c-.002.08-.004.16-.004.241zm3.042 7.038c1.27 0 1.501-.721 1.538-1.535a.424.424 0 0 1-.25-.295 3.344 3.344 0 0 1-1.288.25c-.462 0-.894-.087-1.289-.25a.424.424 0 0 1-.25.295c.038.816.27 1.535 1.539 1.535zm-4.595-8.02a.412.412 0 0 1-.034.094c-.397 1.213-.613 2.682-.643 4.4h2.174c-.51-.917-.797-2.116-.797-3.512 0-.246.007-.486.02-.714a.422.422 0 0 1 .426-.399v-.001h2.334l.734-1.453a.426.426 0 0 1 .76 0h.001l.735 1.453h2.333v.002a.424.424 0 0 1 .426.398c.014.228.02.468.02.714 0 1.396-.286 2.595-.796 3.512h2.173c-.06-3.425-.915-5.8-2.365-7.249-1.216-1.216-2.835-1.155-2.9-1.152h-.004c-.067-.002-1.708-.05-2.925 1.167-.699.699-1.282 1.589-1.672 2.74zM1.925 52.84a.412.412 0 0 1 .013-.047s3.871-11.136 3.877-11.15l-.095-.772-1.65-1.463-1.558 6.438-.001.004-1.637 6.763a.536.536 0 0 0 .41.634.538.538 0 0 0 .641-.407zm7.152 5.932H6.243c.062 4.985 1.195 11.774 1.475 13.377h1.363l-.004-13.377zM7.36 73.002c-.861.002-1.322.65-1.546 1.134H9.08v-1.134H7.36zm4.43 1.134h3.266c-.224-.484-.685-1.132-1.547-1.134H11.79v1.134zm0-1.987h1.362c.28-1.603 1.414-8.393 1.476-13.377h-2.834L11.79 72.15zm-8.51-14.23h14.31c-.13-6.118-2.99-11.52-3.608-12.618H6.89c-.618 1.098-3.479 6.507-3.608 12.618zm10.665-14.237h-7.02l.094.766h6.831l.095-.766zm.38-3.075a.427.427 0 0 1 .14-.267l2.41-2.136c-.18-.535-.765-1.835-2.316-2.188a654.51 654.51 0 0 1-1.752-.605c-.09.858-.498 2.096-2.372 2.096-1.876 0-2.283-1.24-2.372-2.096 0 0-1.737.602-1.752.605-.938.214-2.124 1.485-2.315 2.188l2.41 2.136a.427.427 0 0 1 .14.267l.274 2.223h7.23l.274-2.223zm5.262 12.64a.533.533 0 0 0 .408-.641l-3.194-13.198-1.65 1.463-.096.773c.006.012 3.877 11.15 3.877 11.15a.45.45 0 0 1 .014.047.535.535 0 0 0 .642.407z" fill="#1C1B1A"/></svg>