<svg xmlns="http://www.w3.org/2000/svg" viewBox="0 0 36 36.38"><path d="M10.23 7.58H6.16V.76a.76.76 0 10-1.52 0v6.82H.76a.76.76 0 00-.76.76.75.75 0 00.76.75h3.88v26.53a.76.76 0 101.52 0V9.09h4.07a.75.75 0 00.77-.75.76.76 0 00-.77-.76zm25.01 8.34h-4.07V.76a.76.76 0 10-1.52 0v15.16h-3.88a.76.76 0 100 1.51h3.88v18.19a.76.76 0 001.52 0V17.43h4.07a.76.76 0 100-1.51zM22.8 27.28h-4V.76a.76.76 0 00-.74-.76.75.75 0 00-.75.76v26.52h-4a.76.76 0 100 1.52h4v6.82a.75.75 0 00.75.76.76.76 0 00.76-.76V28.8h4a.76.76 0 000-1.52z" fill="#b7b9bd" data-name="Слой 2"/></svg>