<svg xmlns="http://www.w3.org/2000/svg" viewBox="0 0 12.5 24"><defs><style>.cls-1{fill:#b7b9bd}</style></defs><g id="Слой_2" data-name="Слой 2"><g id="layout"><path class="cls-1" d="M12 24a.5.5 0 01-.35-.15L.15 12.35a.5.5 0 010-.71L11.65.15a.5.5 0 11.71.71L1.21 12l11.14 11.15A.5.5 0 0112 24z"/><path class="cls-1" d="M7 14.25a.5.5 0 01-.35-.15L4.9 12.35a.5.5 0 010-.71l4.91-4.91a.5.5 0 01.71.71L6 12l1.4 1.4a.5.5 0 01-.35.85zm2.42 2.42a.5.5 0 01-.35-.15L8 15.45a.5.5 0 11.71-.71l1.07 1.07a.5.5 0 01-.35.85z"/></g></g></svg>