<svg xmlns="http://www.w3.org/2000/svg" viewBox="0 0 220 38.19"><defs><style>.cls-1{fill:#fff}</style></defs><g id="Слой_2" data-name="Слой 2"><g id="layout"><path class="cls-1" d="M14.08 31.28a1.76 1.76 0 10-1.76-1.76 1.76 1.76 0 001.76 1.76zm0-2.41a.64.64 0 11-.64.64.64.64 0 01.64-.64z"/><circle class="cls-1" cx="4.42" cy="21.9" r=".68"/><path class="cls-1" d="M26.18 19.25l-2.39-.84a10.24 10.24 0 00-.79-1.82l1.05-2.19a2 2 0 00-.4-2.22l-.55-.55a2 2 0 00-2.22-.4l-2.33 1.12-.47-.21 2.86-5a1.4 1.4 0 00-.51-1.92l-.24-.14L21.41 3a1.71 1.71 0 00.22-1.1A1.29 1.29 0 0021 1L19.63.16A1.29 1.29 0 0018.51.1a1.71 1.71 0 00-.84.74L16.45 3l-.09-.05a1.4 1.4 0 00-1.92.51L7.28 15.84a1.4 1.4 0 00.27 1.73l-.33.57a1.69 1.69 0 00.46 2.33l1.73 1a1.41 1.41 0 00.71.19 1.59 1.59 0 00.56-.11 1.93 1.93 0 001-.85l.31-.54a1.39 1.39 0 00.59.14 1.42 1.42 0 00.37 0 1.4 1.4 0 00.85-.65l2.11-3.66a5.85 5.85 0 01.56 10.92A3.09 3.09 0 0011 28.32l-.27 1.6c-.21-.08-.42-.18-.62-.27a4.94 4.94 0 00-.44-6.38 5.65 5.65 0 00-2.86-1.44l-.65-.15A.56.56 0 006 22.77l.64.15a4.53 4.53 0 012.32 1.14 3.82 3.82 0 01.26 5 9.14 9.14 0 01-.89-.66l.45-1.78a.56.56 0 00-1.08-.27l-.29 1.15a9.16 9.16 0 01-.71-.89l.46-1.76A.56.56 0 006 24.6l-.17.66a8.89 8.89 0 01-.54-1.5.56.56 0 00-1.05.24A10 10 0 005 26l-1-.16a.56.56 0 00-.19 1.1l1.91.32a10.29 10.29 0 00.66.85H4.43a.56.56 0 000 1.12l3-.08a10.26 10.26 0 00.87.67 3.71 3.71 0 01-2.21.67 3.8 3.8 0 01-2.69-1.16 4.53 4.53 0 01-1.08-2.34L1.28 21.7l1.47.3A.56.56 0 003 20.94l-2.32-.53a.56.56 0 00-.67.66l1.26 6.21a5.64 5.64 0 001.37 2.89 4.91 4.91 0 003.48 1.49h.06a4.9 4.9 0 003.18-1.16 10 10 0 001.23.55l-.19 1.14H9a3 3 0 00-2.45 1.29L4.15 37H2.86a.56.56 0 000 1.12h22.45a.56.56 0 000-1.12H24l-2.39-3.49a3 3 0 00-2.45-1.29h-1.39l-.19-1.13q.41-.15.8-.33l2.4 1.16a1.88 1.88 0 00.82.19 2 2 0 001.4-.63l.55-.55A2 2 0 0024 28.7l-1-2.14a10.11 10.11 0 00.87-2l2.38-.83a2 2 0 001.29-1.86v-.78a2 2 0 00-1.36-1.84zM18.64 1.4a.6.6 0 01.28-.26.2.2 0 01.15 0l1.39.8a.2.2 0 01.07.14.6.6 0 01-.08.37l-1.22 2.1-1.8-1zm2.07 32.71l1.94 2.84H5.52l1.94-2.83A1.85 1.85 0 019 33.31h10.2a1.84 1.84 0 011.51.8zm.66-21.88a.84.84 0 01.95.19l.55.55a.84.84 0 01.19.95l-.75 1.56A10.18 10.18 0 0019.73 13zm-10.68 7.91a.83.83 0 01-.4.36.38.38 0 01-.31 0l-1.73-1c-.18-.1-.25-.46 0-.8l.31-.53L11 19.61zM12.81 19a.28.28 0 01-.17.13.28.28 0 01-.22 0l-4.07-2.35a.29.29 0 01-.1-.39L15.41 4a.28.28 0 01.39-.11l4.07 2.35a.28.28 0 01.1.39l-3.17 5.49zm-.66 9.48a2 2 0 013.88 0l.61 3.65h-5.1zm5-.18a3.12 3.12 0 00-.13-.49 7 7 0 00-.54-12.89l1.06-1.83a9.07 9.07 0 014.34 13.08.55.55 0 00-.07.12 9 9 0 01-4.39 3.63zm5.83.86a.84.84 0 01-.19.95l-.55.55a.84.84 0 01-.95.19l-1.68-.81a10.1 10.1 0 002.63-2.42zm3.39-7.3a.84.84 0 01-.54.8l-1.69.59a10.33 10.33 0 00.16-1.79 10.08 10.08 0 00-.16-1.79l1.7.59a.84.84 0 01.54.8zM37 27.89h2.66v10H37v-3.83h-3v3.85h-2.66v-10H34v3.71h3zm12.37 0v10h-2.68v-7.53H44v7.54h-2.71v-10zM60 36.61a5.79 5.79 0 01-7.8 0 5.12 5.12 0 010-7.43 5.79 5.79 0 017.8 0 5.12 5.12 0 010 7.43zm-5.92-1.76a3 3 0 004 0 2.76 2.76 0 000-3.91 3 3 0 00-4 0 2.76 2.76 0 000 3.91zm16.21-7.18a5.4 5.4 0 013.92 1.5 5.28 5.28 0 010 7.46 5.4 5.4 0 01-3.92 1.5 5.55 5.55 0 01-2.65-.64 4.82 4.82 0 01-1.89-1.73l2.3-1.29a2.13 2.13 0 00.91.88 2.84 2.84 0 001.35.32 3 3 0 001.61-.42 2.5 2.5 0 001-1.17h-3.79v-2.36h3.79a2.5 2.5 0 00-1-1.17 3 3 0 00-1.61-.42 2.8 2.8 0 00-1.35.32 2.26 2.26 0 00-.91.87L65.76 30a4.82 4.82 0 011.89-1.73 5.58 5.58 0 012.64-.6zm12.33.22h2.66v10h-2.66v-3.83h-2.94v3.85H77v-10h2.68v3.71h2.95zm11.51 0v2.48h-2.59v7.54h-2.68v-7.55h-2.58v-2.47zm.23 6.84v-2.26h5.84v2.26zm13.91-6.84v2.48h-2.59v7.54H103v-7.55h-2.59v-2.47zm3.66 7.61H116v2.4h-6.73v-10h6.66v2.39h-4v1.39h3.61V34h-3.61zm13.87 2.41h-3l-1.65-2.67-1.65 2.67h-3l3.15-5.11-3-4.91h3l1.52 2.48 1.53-2.48h3l-3 4.92zm6.54-10.02H135v10h-2.66v-3.83h-2.95v3.85h-2.68v-10h2.68v3.71h2.95zm13.31 8.72a5.79 5.79 0 01-7.8 0 5.12 5.12 0 010-7.43 5.79 5.79 0 017.8 0 5.12 5.12 0 010 7.43zm-5.92-1.76a3 3 0 004 0 2.76 2.76 0 000-3.91 3 3 0 00-4 0 2.76 2.76 0 000 3.91z"/><path class="cls-1" d="M147.21 37.91v-2.39a1.53 1.53 0 001.22-.24 1.87 1.87 0 00.38-1.4v-6h7.45v10h-2.68v-7.52h-2.1V34a5.24 5.24 0 01-.37 2.08 2.66 2.66 0 01-1 1.25 3.78 3.78 0 01-1.35.53 5.57 5.57 0 01-1.55.05zm19.69-1.3a5.79 5.79 0 01-7.8 0 5.12 5.12 0 010-7.43 5.79 5.79 0 017.8 0 5.12 5.12 0 010 7.43zm-5.9-1.76a3 3 0 004 0 2.76 2.76 0 000-3.91 3 3 0 00-4 0 2.76 2.76 0 000 3.91zm14.93-6.96v2.48h-3.52v7.54h-2.68v-10zm6.69 10.02v-5l-3.7 5h-2.08v-10h2.68v5l3.7-5h2.07v10zm12.09-10.02v10H192v-3.22h-.57l-2.11 3.23h-3l2.39-3.59a3.48 3.48 0 01-1.47-1.2 3 3 0 01-.55-1.76 3.21 3.21 0 011.08-2.48 3.83 3.83 0 012.68-1zm-4.16 4.61H192v-2.25h-1.5a1.08 1.08 0 00-.8.32 1.19 1.19 0 000 1.62 1 1 0 00.85.31zm14.98-4.61h2.74l-3 6.93a5.31 5.31 0 01-1.87 2.4 4.73 4.73 0 01-2.86.69v-2.39a2.27 2.27 0 002.09-.73l-3.43-6.9h2.75l1.94 4.1zm13.24 2.24a3.74 3.74 0 010 5.54 6.12 6.12 0 01-3.41 1.33v1.19h-2.57V37a6.16 6.16 0 01-3.42-1.34 3.72 3.72 0 010-5.54 6.16 6.16 0 013.42-1.34V27.6h2.57v1.19a6.12 6.12 0 013.41 1.34zm-8 2.77q0 1.49 2 1.76v-3.57a2.72 2.72 0 00-1.5.59 1.58 1.58 0 00-.46 1.22zm4.55 1.76a2.77 2.77 0 001.5-.58 1.52 1.52 0 00.48-1.18 1.57 1.57 0 00-.48-1.22 2.73 2.73 0 00-1.5-.59z"/></g></g></svg>