<svg xmlns="http://www.w3.org/2000/svg" viewBox="0 0 278.67 48.38"><defs><style>.cls-1{fill:#2a2a68}</style></defs><g id="Слой_2" data-name="Слой 2"><g id="layout"><path class="cls-1" d="M17.84 39.62a2.24 2.24 0 10-2.23-2.23 2.23 2.23 0 002.23 2.23zm0-3a.82.82 0 11-.82.82.82.82 0 01.82-.87z"/><circle class="cls-1" cx="5.59" cy="27.74" r=".87"/><path class="cls-1" d="M33.16 24.38l-3-1.06a12.7 12.7 0 00-1-2.3l1.34-2.77a2.48 2.48 0 00-.5-2.82l-.7-.7a2.49 2.49 0 00-2.82-.52l-2.98 1.43c-.2-.1-.39-.19-.59-.27l3.62-6.29a1.77 1.77 0 00-.65-2.42l-.3-.18 1.54-2.68a2.16 2.16 0 00.28-1.39 1.61 1.61 0 00-.78-1.19L24.87.2a1.61 1.61 0 00-1.42-.07 2.15 2.15 0 00-1.07.93l-1.54 2.68-.12-.06a1.77 1.77 0 00-2.42.65L9.22 20.06a1.78 1.78 0 00.34 2.2l-.41.74a2.14 2.14 0 00.58 3l2.2 1.27a1.76 1.76 0 00.9.24 2 2 0 00.71-.13 2.5 2.5 0 001.24-1.08l.39-.69a1.79 1.79 0 00.75.17 1.76 1.76 0 00.46-.06 1.74 1.74 0 001.08-.83l2.68-4.63a7.41 7.41 0 01.7 13.74A3.91 3.91 0 0014 35.88l-.34 2a9.22 9.22 0 01-.78-.35 6.25 6.25 0 00-.56-8.08 7.11 7.11 0 00-3.63-1.83l-.82-.19A.71.71 0 007 28a.72.72 0 00.54.85l.81.19a5.67 5.67 0 012.94 1.44 4.85 4.85 0 01.32 6.39A13.08 13.08 0 0110.5 36l.56-2.25a.71.71 0 10-1.37-.34l-.37 1.45a9.83 9.83 0 01-.89-1.13L9 31.52a.71.71 0 00-1.37-.36l-.2.84a10.51 10.51 0 01-.69-1.9.71.71 0 00-1.37.35 12.61 12.61 0 00.93 2.49l-1.23-.21a.71.71 0 00-.23 1.4l2.41.41c.26.37.54.73.83 1.08l-2.46.06a.71.71 0 000 1.41L9.46 37c.35.3.72.58 1.1.85a4.72 4.72 0 01-2.8.85 4.85 4.85 0 01-3.41-1.47 5.77 5.77 0 01-1.36-3l-1.37-6.75 1.87.43a.69.69 0 00.84-.53.71.71 0 00-.53-.85l-2.93-.67a.76.76 0 00-.66.14.74.74 0 00-.2.65l1.6 7.87a7 7 0 001.73 3.66 6.21 6.21 0 004.41 1.89h.08a6.23 6.23 0 004-1.47 14.33 14.33 0 001.55.69l-.24 1.44h-1.76a3.74 3.74 0 00-3.1 1.64l-3 4.42H3.62a.71.71 0 100 1.42h28.44a.71.71 0 000-1.42h-1.64l-3-4.42a3.74 3.74 0 00-3.1-1.64h-1.81l-.24-1.43c.35-.13.68-.26 1-.42l3 1.47a2.31 2.31 0 001 .23 2.53 2.53 0 001.78-.74l.71-.71a2.47 2.47 0 00.51-2.81l-1.31-2.72a13.27 13.27 0 001.1-2.5l3-1.06a2.48 2.48 0 001.64-2.35v-1a2.48 2.48 0 00-1.54-2.31zM23.61 1.77a.81.81 0 01.39-.33.3.3 0 01.19 0l1.76 1c.06 0 .08.13.08.17a.69.69 0 01-.1.47l-1.58 2.68-2.28-1.32zm2.62 41.44l2.45 3.59H7l2.45-3.59a2.34 2.34 0 011.93-1H24.3a2.34 2.34 0 011.93 1zm.83-27.72a1.05 1.05 0 011.2.24l.71.7a1.05 1.05 0 01.23 1.2l-.95 2A12.91 12.91 0 0025 16.49zm-13.52 10A1 1 0 0113 26a.46.46 0 01-.4 0l-2.2-1.27c-.23-.13-.31-.58-.06-1l.39-.67 3.17 1.83zm2.69-1.4a.36.36 0 01-.22.16.36.36 0 01-.28 0l-5.15-3a.36.36 0 01-.14-.49L19.52 5a.38.38 0 01.48-.1l5.16 3a.37.37 0 01.13.5l-4 7zm-.85 12a2.49 2.49 0 014.91 0l.78 4.63h-6.46zm6.31-.23a3.23 3.23 0 00-.16-.63 8.83 8.83 0 00-.68-16.32l1.34-2.32a11.06 11.06 0 011.43.69 11.49 11.49 0 014.07 15.87.51.51 0 00-.09.16 11.38 11.38 0 01-5.6 4.61zM29.08 37a1.05 1.05 0 01-.24 1.2l-.7.7a1.05 1.05 0 01-1.2.24l-2.12-1A12.79 12.79 0 0028.14 35zm4.3-9.24a1 1 0 01-.68 1l-2.15.75a12.92 12.92 0 00.2-2.26 12.29 12.29 0 00-.21-2.25l2.16.76a1 1 0 01.68 1zm13.45 7.57h3.37V48h-3.37v-4.86h-3.74V48H39.7V35.33h3.39V40h3.74zm15.71 0V48h-3.39v-9.54H55.7V48h-3.4V35.33zM76 46.38a7.34 7.34 0 01-9.88 0 6.49 6.49 0 010-9.41A7.32 7.32 0 0176 37a6.49 6.49 0 010 9.41zm-7.5-2.23a3.86 3.86 0 005.12 0 3.29 3.29 0 001-2.48 3.25 3.25 0 00-1-2.47 3.86 3.86 0 00-5.12 0 3.25 3.25 0 00-1 2.47 3.29 3.29 0 001.01 2.48zm20.5-9.1A6.86 6.86 0 0194 37a6.69 6.69 0 010 9.44 6.82 6.82 0 01-5 1.9 7 7 0 01-3.35-.82 6 6 0 01-2.39-2.19l2.92-1.63a2.66 2.66 0 001.14 1.11 3.67 3.67 0 001.72.41 3.8 3.8 0 002-.53 3.21 3.21 0 001.24-1.48h-4.8v-3h4.8a3.19 3.19 0 00-1.24-1.47 3.72 3.72 0 00-2-.54 3.6 3.6 0 00-1.71.41 2.84 2.84 0 00-1.15 1.1l-2.88-1.65a6.14 6.14 0 012.4-2.19 7.06 7.06 0 013.3-.82zm15.66.28H108V48h-3.37v-4.86h-3.73V48h-3.4V35.33h3.4V40h3.73zm14.58 0v3.13H116V48h-3.4v-9.54h-3.27v-3.13zm.28 8.67v-2.87h7.4V44zm17.63-8.67v3.13h-3.28V48h-3.39v-9.54h-3.28v-3.13zm4.63 9.67h5.13v3h-8.53V35.33h8.44v3h-5v1.76h4.56v3h-4.56zm17.57 3h-3.79l-2.09-3.38-2.08 3.38h-3.81l4-6.47-3.84-6.22h3.81l1.93 3.13 1.94-3.13h3.81l-3.85 6.22zm8.28-12.67H171V48h-3.37v-4.86h-3.73V48h-3.4V35.33h3.4V40h3.73zm16.86 11.05a7.33 7.33 0 01-9.87 0 6.49 6.49 0 010-9.41 7.3 7.3 0 019.87 0 6.49 6.49 0 010 9.41zM177 44.15a3.86 3.86 0 005.12 0 3.26 3.26 0 001-2.48 3.22 3.22 0 00-1-2.47 3.86 3.86 0 00-5.12 0 3.25 3.25 0 00-1 2.47 3.29 3.29 0 001 2.48z"/><path class="cls-1" d="M186.47 48v-3a2 2 0 001.55-.3 2.37 2.37 0 00.48-1.77v-7.6h9.44V48h-3.39v-9.54h-2.65v4.61a6.58 6.58 0 01-.47 2.63 3.38 3.38 0 01-1.27 1.59 4.81 4.81 0 01-1.71.67 7.17 7.17 0 01-1.98.04zm24.94-1.62a7.34 7.34 0 01-9.88 0 6.49 6.49 0 010-9.41 7.32 7.32 0 019.88 0 6.49 6.49 0 010 9.41zm-7.5-2.23a3.86 3.86 0 005.12 0 3.3 3.3 0 001-2.48 3.26 3.26 0 00-1-2.47 3.86 3.86 0 00-5.12 0 3.25 3.25 0 00-1 2.47 3.29 3.29 0 001 2.48zm18.94-8.82v3.13h-4.45V48H215V35.33zM231.32 48v-6.37L226.64 48H224V35.33h3.39v6.38l4.68-6.38h2.62V48zm15.32-12.67V48h-3.38v-4.1h-.72l-2.67 4.1h-3.77l3-4.56a4.36 4.36 0 01-1.86-1.52 3.76 3.76 0 01-.7-2.23 4.06 4.06 0 011.37-3.14 4.84 4.84 0 013.39-1.24zm-5.27 5.83h1.89v-2.84h-1.89a1.33 1.33 0 00-1 .41 1.49 1.49 0 000 2.05 1.27 1.27 0 001 .38zm18.97-5.83h3.47L260 44.11a6.64 6.64 0 01-2.37 3A5.94 5.94 0 01254 48v-3a2.85 2.85 0 002.65-.93l-4.34-8.73h3.49l2.45 5.19zm16.78 2.83a4.75 4.75 0 010 7 7.73 7.73 0 01-4.32 1.69v1.51h-3.26v-1.49a7.74 7.74 0 01-4.33-1.69 4.71 4.71 0 010-7 7.81 7.81 0 014.33-1.69V35h3.26v1.51a7.81 7.81 0 014.32 1.65zM267 41.67c0 1.26.83 2 2.5 2.23v-4.51a3.52 3.52 0 00-1.9.74 2 2 0 00-.6 1.54zm5.76 2.23a3.53 3.53 0 001.89-.73 1.92 1.92 0 00.61-1.5 2 2 0 00-.61-1.54 3.45 3.45 0 00-1.89-.74z"/></g></g></svg>