<svg xmlns="http://www.w3.org/2000/svg" viewBox="0 0 50 50"><defs><style>.cls-1{fill:#dedfe1}</style></defs><g id="Слой_2" data-name="Слой 2"><g id="layout"><path class="cls-1" d="M36.59 13.29a1.08 1.08 0 00-1.5.08L2.93 48.26A1 1 0 003 49.73a1.08 1.08 0 001.5-.08l32.15-34.9a1 1 0 00-.06-1.46zm2.64-1.83a1.07 1.07 0 00.79-.34l8.64-9.37a1 1 0 00-.07-1.48 1.08 1.08 0 00-1.5.08l-8.65 9.37a1 1 0 00.08 1.47 1.07 1.07 0 00.71.27zm-7.88 4.13a1 1 0 00-.49-1.39 14.74 14.74 0 00-6.39-1.43A14.49 14.49 0 009.84 27.08 14 14 0 0012.27 35a1.08 1.08 0 001.47.29 1 1 0 00.3-1.44A12 12 0 0112 27.08a12.39 12.39 0 0112.5-12.24 12.59 12.59 0 015.46 1.22 1.07 1.07 0 001.39-.47zM16.56 37.92a1 1 0 00.36 1.43 14.84 14.84 0 007.55 2.05A14.49 14.49 0 0039.1 27.08a14 14 0 00-3-8.71 1.08 1.08 0 00-1.49-.19 1 1 0 00-.2 1.46A12 12 0 0137 27.08a12.39 12.39 0 01-12.5 12.24 12.68 12.68 0 01-6.5-1.75 1.08 1.08 0 00-1.44.35z"/><path class="cls-1" d="M24.47 18.75a8.63 8.63 0 013.12.58 1.07 1.07 0 001.41-.59 1 1 0 00-.6-1.35 10.79 10.79 0 00-3.9-.72 10.54 10.54 0 00-10.67 10.41A10.26 10.26 0 0015.08 32a1.08 1.08 0 001.44.43A1 1 0 0017 31a8.21 8.21 0 01-1-3.93 8.43 8.43 0 018.47-8.32zm0 16.67a8.67 8.67 0 01-4-1 1.08 1.08 0 00-1.44.43 1 1 0 00.44 1.41 10.84 10.84 0 005 1.23 10.54 10.54 0 0010.64-10.41 10.21 10.21 0 00-1.94-6 1.08 1.08 0 00-1.48-.25 1 1 0 00-.26 1.45 8.16 8.16 0 011.57 4.8 8.43 8.43 0 01-8.53 8.34z"/><path class="cls-1" d="M4.26 44.68a1.05 1.05 0 00-1.06-1H2.13V10.53H35a1 1 0 100-2.08H20.51V6a2.89 2.89 0 00-2.91-2.87H9.27A2.89 2.89 0 006.36 6v2.45h-5.3A1.05 1.05 0 000 9.49v35.19a1.05 1.05 0 001.06 1h2.13a1.05 1.05 0 001.07-1zM8.49 6a.78.78 0 01.79-.77h8.32a.78.78 0 01.79.77v2.45h-9.9zm40.45 2.45h-4.06a1 1 0 100 2.08h3v33.11H12.23a1 1 0 100 2.08h36.7a1.05 1.05 0 001.06-1V9.49a1.05 1.05 0 00-1.05-1.04z"/><path class="cls-1" d="M42.85 17.44a2.85 2.85 0 10-2.91-2.85 2.89 2.89 0 002.91 2.85zm0-3.62a.77.77 0 11-.79.77.78.78 0 01.79-.78z"/></g></g></svg>