<svg xmlns="http://www.w3.org/2000/svg" viewBox="0 0 48 48"><defs><style>.cls-1{fill:#6e737a}</style></defs><g id="Слой_2" data-name="Слой 2"><g id="layout"><path class="cls-1" d="M44.5 35.62V20.5a1 1 0 00-2 0v10.38a12 12 0 00-9-6.87V21.7a5.22 5.22 0 002.79-3.59c.25-1 .26-2.54-.52-3.31a2.06 2.06 0 00-2.27-.46v-.74l2.08-1.25a1 1 0 00-1-1.71l-1 .63V9.5a4 4 0 00-4-4h-11a4 4 0 00-4 4v1.77l-1-.63a1 1 0 00-1 1.71l1.92 1.25v.73a2.06 2.06 0 00-2.27.46c-.78.78-.76 2.27-.52 3.31a5.22 5.22 0 002.79 3.6V24a12 12 0 00-8.07 5A2 2 0 005 27.57V11.5a1 1 0 011-1 1 1 0 000-2 3 3 0 00-3 3v10H2v-1a1 1 0 00-2 0V25a1 1 0 002 0v-1.5h1v4a2 2 0 00-2 2v7.68A4.48 4.48 0 000 40v4.5C0 46.59 1.61 48 4 48h1c2.39 0 4-1.41 4-3.5V40a4.5 4.5 0 00-2.5-4v-2.71a1 1 0 00.26-.4A10.27 10.27 0 018.18 30l4.21 10.16V47a1 1 0 002 0v-7a1 1 0 00-.08-.38L9.67 28.37A10 10 0 0114.5 26v10a4 4 0 004 4h11a4 4 0 004-4V26a10.08 10.08 0 014.86 2.43l-4.6 11.1a1 1 0 00-.08.38v7a1 1 0 002 0v-6.76l4.14-10a10 10 0 011.41 3.1l.68 2.54A4.5 4.5 0 0039 40v4a4 4 0 004 4h1a4 4 0 004-4v-4a4.5 4.5 0 00-3.5-4.38zM5 46H4c-.6 0-2-.15-2-1.5V40a2.5 2.5 0 014.28-1.75H5a1 1 0 000 2h2v.5H5a1 1 0 000 2h2v.5H5a1 1 0 000 2h1.8A2.12 2.12 0 015 46zM3 35.76V29.5h1.5v6a4.47 4.47 0 00-1.5.26zM33.56 17a1.17 1.17 0 01.39-.63.66.66 0 01.35-.2 2.79 2.79 0 01-.11 1.88 3.44 3.44 0 01-.72 1.2v-1.91a1 1 0 00.09-.34zm-19.78 1.05a3 3 0 01-.13-1.85.64.64 0 01.36.2 1.17 1.17 0 01.39.63 1 1 0 00.06.34v1.92a3.44 3.44 0 01-.68-1.24zM31.5 36a2 2 0 01-2 2h-11a2 2 0 01-2-2V9.5a2 2 0 012-2h11a2 2 0 012 2zM46 44a2 2 0 01-2 2h-1a2 2 0 01-1.55-.75H43a1 1 0 000-2h-2v-.5h2a1 1 0 000-2h-2v-.5h2a1 1 0 000-2h-1.28A2.5 2.5 0 0146 40z"/><path class="cls-1" d="M13.44 8.2a1 1 0 001-1C14.44 2.38 20 2 21.68 2h4.52c1.7 0 7.24.38 7.24 5.2a1 1 0 102 0c0-4.44-3.54-7.2-9.24-7.2h-4.52C16 0 12.44 2.76 12.44 7.2a1 1 0 001 1zM27 14.5h-6a3 3 0 000 6h6a3 3 0 000-6zm0 4h-6a1 1 0 010-2h6a1 1 0 010 2zm1.5 4a1 1 0 00-1 1v6a1 1 0 002 0v-6a1 1 0 00-1-1zm0 9a1 1 0 00-1 1V34a1 1 0 002 0v-1.5a1 1 0 00-1-1zm.75 11h-6a1 1 0 000 2h6a1 1 0 000-2zm-9 0h-1.5a1 1 0 000 2h1.5a1 1 0 000-2z"/></g></g></svg>