<svg xmlns="http://www.w3.org/2000/svg" viewBox="0 0 16 16"><defs><style>.cls-1{fill:#6e737a}</style></defs><g id="Слой_2" data-name="Слой 2"><g id="layout"><path class="cls-1" d="M8.47 8L15.9.57a.33.33 0 00-.47-.47L8 7.53.57.1A.33.33 0 00.1.57L7.53 8 .1 15.43a.33.33 0 000 .47.3.3 0 00.23.1.33.33 0 00.24-.1L8 8.47l7.43 7.43a.33.33 0 00.24.1.3.3 0 00.23-.1.33.33 0 000-.47z"/><path class="cls-1" d="M14.68 4.49a.33.33 0 00-.47 0l-3.28 3.27a.34.34 0 000 .48l1.17 1.17a.36.36 0 00.24.09.33.33 0 00.23-.09.34.34 0 000-.48L11.64 8l3-3a.33.33 0 00.04-.51zM13 9.83a.33.33 0 000 .47l.71.71a.3.3 0 00.23.1.33.33 0 00.24-.1.33.33 0 000-.47l-.71-.71a.33.33 0 00-.47 0zM1.32 11.51a.33.33 0 00.24.1.3.3 0 00.23-.1l3.28-3.27a.34.34 0 000-.48L3.9 6.59a.33.33 0 00-.47 0 .34.34 0 000 .48l.93.93-3 3a.33.33 0 00-.04.51zm1.45-5.24a.3.3 0 00.23-.1.33.33 0 000-.47L2.29 5a.33.33 0 10-.47.47l.71.71a.33.33 0 00.24.09z"/><path class="cls-1" d="M15.67 16a.33.33 0 01-.24-.1L7.76 8.24a.34.34 0 010-.48L15.43.1a.33.33 0 01.47.47L8.47 8l7.43 7.43a.33.33 0 010 .47.3.3 0 01-.23.1z"/><path class="cls-1" d="M12.34 9.5a.36.36 0 01-.24-.09l-1.17-1.17a.34.34 0 010-.48l3.28-3.27a.33.33 0 11.47.47l-3 3 .93.93a.34.34 0 010 .48.33.33 0 01-.27.13zm1.6 1.61a.3.3 0 01-.23-.1L13 10.3a.33.33 0 01.47-.47l.71.71a.33.33 0 010 .47.33.33 0 01-.24.1z"/></g></g></svg>