<svg xmlns="http://www.w3.org/2000/svg" viewBox="0 0 48 48"><path d="M47 46h-.25v-4a3 3 0 00-3-3V15.5a1 1 0 00-.65-.94l-5.44-2.06V10a2.82 2.82 0 00-2.58-3h-3.16a2.82 2.82 0 00-2.58 3v2.51l-1.5.57V9.16a1 1 0 00-.68-.95L21 6.12A1 1 0 0021 6V3a3 3 0 00-3-3h-4a3 3 0 00-3 3v3a1 1 0 000 .15L4.93 8.21a1 1 0 00-.68.95V39a3 3 0 00-3 3v4H1a1 1 0 000 2h6.5a1 1 0 000-2H3.25v-4a1 1 0 011-1h39.5a1 1 0 011 1v4H11.5a1 1 0 000 2H47a1 1 0 000-2zM31.33 10c0-.56.31-1 .58-1h3.17c.27 0 .58.44.58 1v1.75l-1.81-.69a1 1 0 00-.71 0l-1.81.69zM13 3a1 1 0 011-1h4a1 1 0 011 1v2.45l-2.64-.89a1 1 0 00-.64 0L13 5.48zM6.25 9.88L16 6.56l9.79 3.32V11H12.33a1 1 0 000 2h13.5v11.47a1 1 0 002 0v-9.26l5.67-2.14 8.25 3.12v1.31h-6.42a1 1 0 000 2h6.42V39h-9.92V22a1 1 0 00-2 0v17h-2v-9a1 1 0 00-2 0v9H12V20a1 1 0 10-2 0v19H6.25z" fill="#6e737a" data-name="Слой 2"/></svg>