<svg xmlns="http://www.w3.org/2000/svg" viewBox="0 0 48 48"><defs><style>.cls-1{fill:#6e737a}</style></defs><g id="Слой_2" data-name="Слой 2"><g id="layout"><path class="cls-1" d="M47 24.5a1 1 0 00-1 1v6a1 1 0 00-.39.19 11.05 11.05 0 01-3.89 2.08 6.31 6.31 0 01-4.28-.36 8.75 8.75 0 00-4.25-1 9 9 0 00-3.42 1.15l-.67.33a6.21 6.21 0 01-5.21 0l-2.26-1c-2.73-1.23-5.15 0-6.91.85a6 6 0 01-4.21.39 1 1 0 000-.18V6h17.2v6a1 1 0 000 .22l.3 1.33a1 1 0 00.12.3 9.8 9.8 0 011 2.63 8.87 8.87 0 01.28 3.18 1 1 0 000 .37l.27 1.19a1 1 0 001 .78H31v2a1 1 0 002 0v-2h.25a1 1 0 001-.78l.24-1.22a1 1 0 000-.37 8.88 8.88 0 01.28-3.18 9.8 9.8 0 011-2.63 1 1 0 00.12-.3l.3-1.33a1 1 0 000-.22V6h4a3 3 0 100-6H1a1 1 0 00-1 1v46a1 1 0 001 1h46a1 1 0 001-1V25.5a1 1 0 00-1-1zM8.55 12H2v-2h6.55zM2 14h6.55v2H2zm32.25-2.11L34 13a12.1 12.1 0 00-1.17 3 11.16 11.16 0 00-.34 3.77l-.05.24h-.9l-.05-.24a11.14 11.14 0 00-.34-3.77A12.1 12.1 0 0030 13l-.24-1.07V6h4.5zm6-9.89a1 1 0 110 2H9.55a1 1 0 00-1 1v3H2V2zM10.5 46v-8a1 1 0 00-2 0v8H2V18h6.55v16a1 1 0 00.27.67A1 1 0 009.46 36a8 8 0 006.17-.39c2-1 3.47-1.6 5.2-.82l2.26 1a8.2 8.2 0 006.91-.08l.71-.35a7.25 7.25 0 012.65-.94 6.93 6.93 0 013.26.83 8.34 8.34 0 005.66.49A12.76 12.76 0 0046 33.93V46z"/><path class="cls-1" d="M15.5 27a1 1 0 000 2h14a1 1 0 000-2zm18 1a1 1 0 001 1h9a1 1 0 000-2h-9a1 1 0 00-1 1zm-.58-1.38a1.07 1.07 0 00-.09-.17 1.24 1.24 0 00-.12-.16l-.15-.12a.85.85 0 00-.18-.09L32.2 26a1 1 0 00-.39 0l-.19.06-.17.09-.15.12-.13.16a1.07 1.07 0 00-.09.17 1 1 0 00-.06.58.8.8 0 00.06.18 1.14 1.14 0 00.09.18l.13.15.15.13.17.09.19.06.19.03a1 1 0 00.71-.29.91.91 0 00.13-.15 1.14 1.14 0 00.09-.18 1.16 1.16 0 00.07-.18 1 1 0 000-.39 1.23 1.23 0 00-.08-.19z"/></g></g></svg>