<svg xmlns="http://www.w3.org/2000/svg" viewBox="0 0 47.02 48"><defs><style>.cls-1{fill:#6e737a}</style></defs><g id="Слой_2" data-name="Слой 2"><g id="layout"><path class="cls-1" d="M32.82 17.63a2.94 2.94 0 00-2.94-2.94H17.14a2.94 2.94 0 00-2.94 2.94v12.74a2.94 2.94 0 002.94 2.94h12.74a2.94 2.94 0 002.94-2.94zm-6.12-1v14.72h-6.37v-14.7zM16.16 30.37V17.63a1 1 0 011-1h1.22v14.72h-1.24a1 1 0 01-.98-.98zm14.69 0a1 1 0 01-1 1h-1.2V16.65h1.22a1 1 0 011 1z"/><path class="cls-1" d="M44.08 12.07A6.08 6.08 0 0047 6.85V6.6A6.11 6.11 0 0040.91.49h-.51a6.08 6.08 0 00-5.22 2.94 13.93 13.93 0 01-6.53 5.68V1a1 1 0 00-1-1h-8.3a1 1 0 00-1 1v8.31a13.94 13.94 0 01-7-5.89A6.1 6.1 0 000 6.6v.51a6.08 6.08 0 002.94 5.22 14 14 0 016.79 11.93 14 14 0 01-6.79 11.93 6.11 6.11 0 003.17 11.32h.26a6.08 6.08 0 005.22-2.94 13.94 13.94 0 016.79-5.79V47a1 1 0 001 1h8.33a1 1 0 001-1v-8.22a13.94 13.94 0 016.79 5.79 6.08 6.08 0 005.22 2.94h.26A6.11 6.11 0 0047 41.4v-.26a6.08 6.08 0 00-2.94-5.22 13.87 13.87 0 010-23.86zM20.33 2h6.37v7.78a13.74 13.74 0 01-3.44.44 13.72 13.72 0 01-2.93-.32zm6.36 44h-6.36v-7.84a13.45 13.45 0 016.37 0zm8.64-22a15.91 15.91 0 007.75 13.61 4.11 4.11 0 012 3.53v.26a4.15 4.15 0 01-4.15 4.15h-.26a4.12 4.12 0 01-3.53-2 15.83 15.83 0 00-27.23 0 4.12 4.12 0 01-3.53 2h-.27a4.15 4.15 0 01-2.17-7.68 15.91 15.91 0 007.75-13.61 15.91 15.91 0 00-7.75-13.62A4.12 4.12 0 012 7.11V6.6a4.15 4.15 0 017.64-2.17 15.92 15.92 0 0013.61 7.75 15.69 15.69 0 004.54-.68 1 1 0 00.32-.1 15.91 15.91 0 008.76-7 4.11 4.11 0 013.53-2h.51a4.15 4.15 0 014.15 4.2v.26a4.11 4.11 0 01-2 3.53A15.91 15.91 0 0035.33 24z"/><path class="cls-1" d="M40.16 3.92a2.94 2.94 0 102.94 2.94 2.94 2.94 0 00-2.94-2.94zm0 3.92a1 1 0 111-1 1 1 0 01-1 1zM6.37 3.92a2.94 2.94 0 102.94 2.94 2.94 2.94 0 00-2.94-2.94zm0 3.92a1 1 0 111-1 1 1 0 01-1 1zm34.28 36.73a2.94 2.94 0 10-2.94-2.94 2.94 2.94 0 002.94 2.94zm0-3.92a1 1 0 11-1 1 1 1 0 011-1zM6.37 38.69a2.94 2.94 0 102.94 2.94 2.94 2.94 0 00-2.94-2.94zm0 3.92a1 1 0 111-1 1 1 0 01-1 1zM36 10.25L33.19 13a1 1 0 101.39 1.39l2.77-2.77A1 1 0 1036 10.25zm-25.43 0a1 1 0 10-1.39 1.39L12 14.41A1 1 0 0013.34 13zm22.37 23.51a1 1 0 000 1.39l2.77 2.77a1 1 0 101.39-1.39l-2.77-2.77a1 1 0 00-1.39 0zm-21.23 0l-2.77 2.77a1 1 0 101.39 1.39l2.77-2.77a1 1 0 10-1.39-1.39zm11.8-4.86A2.45 2.45 0 0026 26.45v-4.52a2.45 2.45 0 10-4.9 0v4.52a2.45 2.45 0 002.41 2.45zm-.49-7a.49.49 0 011 0v4.52a.49.49 0 11-1 0v-4.49z"/></g></g></svg>