<svg xmlns="http://www.w3.org/2000/svg" viewBox="0 0 20 20"><path d="M18.82.59h-2.35c-.31 0-.61.12-.83.34-.22.22-.34.52-.34.83s.12.61.34.83c.22.22.52.34.83.34h1.18v14.12h-1.18c-.31 0-.61.12-.83.34-.22.22-.34.52-.34.83s.12.61.34.83c.22.22.52.34.83.34h2.35c.31 0 .61-.12.83-.34.22-.22.34-.52.34-.83V1.76c0-.31-.12-.61-.34-.83-.22-.22-.51-.34-.83-.34zm-8.48 4c-.19-.25-.47-.41-.77-.46a1.174 1.174 0 0 0-1.33 1c-.04.31.03.62.22.87l2.12 2.82h-9.4c-.31 0-.61.12-.83.34a1.173 1.173 0 0 0-.01 1.66c.22.22.52.34.83.34h9.51l-2.02 2.86c-.09.13-.15.27-.19.42-.03.15-.04.31-.01.46s.08.3.17.43a1.187 1.187 0 0 0 1 .54c.19 0 .37-.05.54-.13.17-.09.31-.21.42-.36l3.31-4.7a1.145 1.145 0 0 0 0-1.38l-3.56-4.71z" fill="#697882"/></svg>