<svg xmlns="http://www.w3.org/2000/svg" viewBox="0 0 350 54.17"><path d="M139.67 9.35h-3.98v4.41h-2.51V2.81h2.51v4.2h3.98v-4.2h2.5v10.95h-2.5zm7.03 4.41V2.81h2.5v6.81l4.85-6.81h2.19v10.95h-2.51v-6.8l-4.84 6.8zm13.13-10.95h2.88l3.32 4.79V2.81h2.5V7.6l3.31-4.79h2.88l-3.8 5.23 3.97 5.72h-2.87l-3.49-5.24v5.24h-2.5V8.52l-3.49 5.24h-2.88l3.97-5.71zm18.5 0h6.49v2.35h-3.99v1.92h3.52v2.35h-3.52v1.99h4.15v2.34h-6.65zm10.79 0h6.26v2.35h-3.76v8.6h-2.5zm14.89 8.79c2.08 0 3.16-1.47 3.16-3.32 0-2-1.39-3.31-3.16-3.31-1.81 0-3.16 1.31-3.16 3.31 0 1.89 1.41 3.32 3.16 3.32m0-8.97c3.33 0 5.82 2.17 5.82 5.66 0 3.32-2.49 5.66-5.82 5.66s-5.82-2.17-5.82-5.66c0-3.18 2.33-5.66 5.82-5.66m12.14 2.53v2.5c.36.05.78.08 1.14.08.66 0 1.47-.28 1.47-1.35 0-.97-.63-1.27-1.52-1.27-.33.01-.58.02-1.09.04m-2.5 8.6V2.81c.61 0 2.5-.03 3.35-.03 3.33 0 4.42 1.74 4.42 3.63 0 1.96-1.52 3.68-4.05 3.68-.24 0-.83 0-1.22-.05v3.72h-2.5zm16.87-2.16c2.08 0 3.16-1.47 3.16-3.32 0-2-1.39-3.31-3.16-3.31-1.81 0-3.16 1.31-3.16 3.31 0 1.89 1.41 3.32 3.16 3.32m0-8.97c3.33 0 5.82 2.17 5.82 5.66 0 3.32-2.49 5.66-5.82 5.66s-5.82-2.17-5.82-5.66c0-3.18 2.33-5.66 5.82-5.66m12.51 8.79h3.57V5.16h-2.22l-.17 1.85c-.18 1.89-.81 3.92-1.18 4.41m-3.93 0h1.17c.44-.56 1.42-2.83 1.58-6.41l.09-2.19h7.15v8.6h1.49v4.22h-2.35v-1.88h-6.79v1.88h-2.35v-4.22zm23.66 1.26c-.66.73-2.08 1.27-3.57 1.27-3.39 0-5.74-2.25-5.74-5.66 0-3.14 1.95-5.66 5.72-5.66 1.45 0 2.69.5 3.35 1.14l-1.11 1.88c-.59-.36-1.2-.67-2.24-.67-1.69 0-3.07 1.16-3.07 3.31 0 1.94 1.35 3.32 3.31 3.32.78 0 1.64-.25 2.38-.8l.97 1.87zm3.59-9.87h2.5v4.78l3.58-4.78h3.01l-4.12 5.06 4.44 5.89h-3.17l-3.74-5.21v5.21h-2.5zm12.84 10.95V2.81h2.5v6.81l4.85-6.81h2.19v10.95h-2.51v-6.8l-4.84 6.8zM297.32 0c0 .59.28.78.97.78.59 0 .91-.11.91-.78h2.35c.03 1.52-1.3 2.5-3.25 2.5-2.11 0-3.31-1-3.31-2.5h2.33zm-4.07 13.76V2.81h2.5v6.8l4.85-6.8h2.19v10.95h-2.5v-6.8l-4.85 6.8h-2.19zm19.29-10.95h2.5v8.61h3.76V2.81h2.5v8.61h1.48v4.22h-2.34v-1.88h-7.9zm22.42 9.87c-.66.73-2.08 1.27-3.57 1.27-3.39 0-5.74-2.25-5.74-5.66 0-3.14 1.95-5.66 5.72-5.66 1.45 0 2.69.5 3.35 1.14l-1.11 1.88c-.59-.36-1.2-.67-2.24-.67-1.69 0-3.07 1.16-3.07 3.31 0 1.94 1.35 3.32 3.31 3.32.78 0 1.64-.25 2.38-.8l.97 1.87zm3.59-9.87h2.52l3.38 4.62 3.19-4.62H350v10.95h-2.5V6.79l-3.05 4.27h-.36l-3.04-4.23v6.93h-2.5zM0 2.44h7.06V51.9H0zm21.19 35.33h7.07v14.14h-7.07zm21.2 0h7.06v14.14h-7.06zm21.19 0h7.06v14.14h-7.06zm21.2 0h7.06v14.14h-7.06zm0-35.33h-7.07v7.07h7.07V30.7h7.06V9.51h7.07V2.44h-7.07zm21.19 0h7.06V51.9h-7.06zM31.81 16.53h-3.55V9.5h3.55c1.94 0 3.52 1.58 3.52 3.52a3.53 3.53 0 0 1-3.52 3.51m0-14.1h-7.08v.01H21.2V30.7h7.07v-7.11h3.55c5.83 0 10.58-4.75 10.58-10.58-.01-5.83-4.76-10.58-10.59-10.58m34.88 9.02l4.99-4.99C66.13.91 57.1.91 51.55 6.46a14.136 14.136 0 0 0-4.17 10.07c0 3.8 1.48 7.38 4.17 10.07a14.22 14.22 0 0 0 10.07 4.16c3.65 0 7.29-1.39 10.07-4.16l-4.99-5c-2.8 2.8-7.35 2.8-10.14 0a7.142 7.142 0 0 1-2.1-5.07c0-1.92.75-3.72 2.1-5.07 2.78-2.81 7.33-2.81 10.13-.01m69.86 13.99v4.11h.02c1.56 0 2.54-.7 2.54-2.06 0-1.28-.93-2.05-2.55-2.05h-.01zm-.9 4.11h.01v-4.11c-1.58 0-2.53.77-2.53 2.05 0 1.36.99 2.06 2.52 2.06m.01.82h-.01c-2.05 0-3.46-1.03-3.46-2.88 0-1.83 1.38-2.86 3.47-2.87v-.75h.89v.75c2.11.01 3.5 1.06 3.5 2.87 0 1.83-1.43 2.88-3.47 2.88h-.03v.96h-.89v-.96zm6.87-2.66v2.7c.32.02.64.04 1 .04 1.2 0 1.78-.54 1.78-1.43 0-.81-.55-1.38-1.72-1.38-.28.01-.68.03-1.06.07m-.89-3.76h4.12v.83h-3.24v2.09c.36-.04.83-.06 1.11-.06 1.64 0 2.55.83 2.55 2.15 0 1.51-1.05 2.32-2.8 2.32-.74 0-1.32-.04-1.75-.04v-7.29zm9.71 5.62c-.5 1.11-1.01 1.67-1.81 1.67-.32 0-.69-.1-.88-.26l.31-.75c.2.14.35.19.56.19.42 0 .7-.32.9-.74l.13-.27-3.3-5.46h1l2.73 4.57 2-4.57h.9l-2.54 5.62zm7.47-.91v-.04l1.96-2.25.54.48-1.54 1.79 1.53 1.8-.56.49-1.93-2.27zm-1.98 0v-.04l1.96-2.25.54.48-1.54 1.79 1.53 1.8-.56.49-1.93-2.27zm6.15-4.71h4.06v.83h-3.18v6.46h-.88zm6.26 6.61c.94 0 1.61-.67 1.61-1.67 0-.98-.68-1.67-1.61-1.67-.92 0-1.62.68-1.62 1.67.01.99.68 1.67 1.62 1.67m0-4.11c1.5 0 2.5 1.04 2.5 2.45 0 1.41-1 2.45-2.5 2.45s-2.5-1.04-2.5-2.45c0-1.41 1-2.45 2.5-2.45m8.05 4.11c-.4.51-1.08.78-1.8.78-1.49 0-2.51-.97-2.51-2.45 0-1.36 1-2.45 2.38-2.45.75 0 1.41.18 1.84.62l-.39.65c-.4-.36-.85-.49-1.34-.49-.84 0-1.6.68-1.6 1.67 0 1.03.76 1.67 1.69 1.67.56 0 1.03-.25 1.34-.6l.39.6zm3.91.68c-.69 1.68-1.13 2.08-1.79 2.08-.35 0-.63-.13-.89-.29l.27-.63c.16.07.33.16.52.16.4 0 .69-.31 1-1.06l.11-.25-2.25-4.69h1l1.37 2.98c.11.24.19.47.28.71.06-.23.14-.47.22-.72l1.08-2.97h.95l-1.87 4.68zm3.61-.78h2.27v-3.12h-1.58l-.05.78c-.11 1.19-.42 2.05-.64 2.34m-1.47 0h.58c.31-.4.64-1.38.72-2.67l.07-1.24h3.2v3.91h.78v1.93h-.78v-1.15h-3.79v1.15h-.78v-1.93zm9.34-.5v-.59c-.29-.21-.64-.31-1.05-.31-.5 0-1 .23-1 .77 0 .45.3.74.84.74.62-.01.97-.33 1.21-.61m-2.57-3.08c.42-.26.98-.43 1.56-.43 1.33 0 1.8.7 1.8 1.92v2.88h-.79v-.6c-.28.35-.73.68-1.5.68-.85 0-1.44-.54-1.44-1.45 0-.96.76-1.49 1.77-1.49.36 0 .85.07 1.17.3 0-.87-.14-1.48-1.06-1.48-.57 0-.92.15-1.29.34l-.22-.67zm5.93 1v2.32c.42.28.8.36 1.25.36 1 0 1.63-.72 1.63-1.71 0-.95-.55-1.63-1.52-1.63-.56.01-1.07.29-1.36.66m-.84-1.33h.83v.55c.32-.37.95-.66 1.59-.66 1.33 0 2.17.99 2.17 2.38 0 1.43-.97 2.52-2.44 2.52-.5 0-.99-.1-1.32-.32v2.3h-.83v-6.77zm10.15 4.01c-.4.51-1.08.78-1.8.78-1.49 0-2.51-.97-2.51-2.45 0-1.36 1-2.45 2.38-2.45.75 0 1.41.18 1.84.62l-.39.65c-.4-.36-.85-.49-1.34-.49-.84 0-1.6.68-1.6 1.67 0 1.03.76 1.67 1.69 1.67.56 0 1.03-.25 1.34-.6l.39.6zm.98-4.01h4.27v.84h-1.72v3.85h-.83v-3.85h-1.72zm6.35 2.59v1.44c.25.01.58.03.96.03.77 0 1.2-.26 1.2-.75s-.41-.72-1.16-.72h-1zm0-1.92v1.4h1.05c.55 0 .95-.27.95-.73 0-.51-.47-.7-1.07-.7-.38 0-.72.02-.93.03m-.83-.67c.41 0 1.02-.04 1.7-.04 1.31 0 2.02.36 2.02 1.21 0 .55-.37.99-.94 1.07v.02c.75.14 1.09.52 1.09 1.1 0 .88-.7 1.37-2.16 1.37-.58 0-1.29-.04-1.72-.04v-4.69zm6.01 1.93h2.84c-.04-.77-.54-1.25-1.35-1.25-.86 0-1.4.53-1.49 1.25m3.38 2.25c-.46.42-1.14.61-1.76.61-1.52 0-2.51-.97-2.51-2.45 0-1.36.88-2.45 2.42-2.45 1.21 0 2.18.86 2.18 2.15 0 .23-.02.42-.05.56h-3.6c.07.89.72 1.41 1.64 1.41.6 0 1.13-.21 1.44-.49l.24.66zm5.25-1.47h-2.61v1.98h-.83v-4.69h.83v1.93h2.61v-1.93h.83v4.69h-.83zm6.08 0h-2.61v1.98h-.83v-4.69h.83v1.93h2.61v-1.93h.83v4.69h-.83zm6.99-2.71h.83v4.69h-.83v-4.69zm-3.52 2.19v1.72h.61c.83 0 1.13-.3 1.13-.85 0-.56-.32-.86-1.12-.86h-.62zm-.83-2.19h.83v1.41h.77c1.44 0 1.85.78 1.85 1.62 0 .82-.48 1.67-1.95 1.67h-1.51v-4.7zm8.45-2.39c.04.56.3.82.8.82.46 0 .72-.26.76-.82h.78c0 .82-.6 1.46-1.54 1.46-1.03 0-1.58-.64-1.58-1.46h.78zm-1.45 7.08v-4.69h.83v3.49l2.71-3.49h.83v4.69h-.83v-3.49l-2.71 3.49h-.83zm9.06-3.36v2.32c.42.28.8.36 1.25.36 1 0 1.63-.72 1.63-1.71 0-.95-.55-1.63-1.52-1.63-.55.01-1.06.29-1.36.66m-.83-1.33h.83v.55c.32-.37.95-.66 1.59-.66 1.33 0 2.17.99 2.17 2.38 0 1.43-.97 2.52-2.44 2.52-.5 0-.99-.1-1.32-.32v2.3h-.83v-6.77zm6.72 1.93h2.84c-.04-.77-.54-1.25-1.35-1.25-.86 0-1.4.53-1.49 1.25m3.39 2.25c-.46.42-1.14.61-1.76.61-1.52 0-2.51-.97-2.51-2.45 0-1.36.88-2.45 2.42-2.45 1.21 0 2.18.86 2.18 2.15 0 .23-.02.42-.05.56h-3.6c.07.89.72 1.41 1.64 1.41.6 0 1.14-.21 1.44-.49l.24.66zm1.81-4.18h2.97v.78h-2.14v3.91h-.83zm4.15 4.69v-4.69h.84v3.49l2.71-3.49h.83v4.69h-.83v-3.49l-2.71 3.49zm8.4-.68c.94 0 1.61-.67 1.61-1.67 0-.98-.68-1.67-1.61-1.67-.92 0-1.62.68-1.62 1.67 0 .99.68 1.67 1.62 1.67m0-4.11c1.5 0 2.5 1.04 2.5 2.45 0 1.41-1 2.45-2.5 2.45s-2.5-1.04-2.5-2.45c0-1.41 1-2.45 2.5-2.45m7.45 2.81h-2.6v1.98h-.84v-4.69h.84v1.93h2.6v-1.93h.84v4.69h-.84zm5.27.7v-.59c-.29-.21-.64-.31-1.05-.31-.5 0-1 .23-1 .77 0 .45.3.74.84.74.62-.01.97-.33 1.21-.61m-2.57-3.08c.42-.26.98-.43 1.56-.43 1.33 0 1.8.7 1.8 1.92v2.88h-.79v-.6c-.28.35-.73.68-1.5.68-.85 0-1.44-.54-1.44-1.45 0-.96.76-1.49 1.77-1.49.36 0 .85.07 1.17.3 0-.87-.14-1.48-1.06-1.48-.57 0-.92.15-1.29.34l-.22-.67zm8.29.51h-1.65l-.05.79c-.21 2.67-.92 3.12-1.89 3.12l-.06-.81c.35.03 1.02-.31 1.14-2.48l.08-1.46h3.26v4.69h-.83v-3.85zm3.47 1.35v1.72h.69c.82 0 1.13-.3 1.13-.85 0-.56-.32-.86-1.12-.86h-.7zm-.84-2.19h.83v1.41h.85c1.44 0 1.85.78 1.85 1.62 0 .82-.48 1.67-1.96 1.67h-1.58v-4.7zm8.38 2.71h-2.6v1.98h-.83v-4.69h.83v1.93h2.6v-1.93h.84v4.69h-.84zm7-2.71h.83v4.69h-.83v-4.69zm-3.52 2.19v1.72h.61c.83 0 1.14-.3 1.14-.85 0-.56-.32-.86-1.12-.86h-.63zm-.83-2.19h.83v1.41h.77c1.44 0 1.85.78 1.85 1.62 0 .82-.48 1.67-1.95 1.67h-1.51v-4.7zm8.44-2.39c.04.56.3.82.8.82.46 0 .72-.26.76-.82h.78c0 .82-.6 1.46-1.54 1.46-1.03 0-1.58-.64-1.58-1.46h.78zm-1.45 7.08v-4.69h.83v3.49l2.71-3.49h.83v4.69h-.83v-3.49l-2.71 3.49h-.83zm8.24-4.69h.83v3.91h2.5v-3.91h.83v3.91h.79v1.93h-.79v-1.15h-4.16zm6.74 1.93h2.84c-.04-.77-.54-1.25-1.35-1.25-.86 0-1.4.53-1.49 1.25m3.38 2.25c-.46.42-1.14.61-1.76.61-1.52 0-2.51-.97-2.51-2.45 0-1.36.88-2.45 2.42-2.45 1.21 0 2.18.86 2.18 2.15 0 .23-.02.42-.05.56h-3.6c.07.89.72 1.41 1.64 1.41.6 0 1.14-.21 1.44-.49l.24.66zm5.25-1.47h-2.61v1.98h-.83v-4.69h.83v1.93h2.61v-1.93h.83v4.69h-.83zm2.1-2.71h4.27v.84h-1.72v3.85h-.84v-3.85h-1.71zm6.35 1.33v2.32c.42.28.8.36 1.25.36 1 0 1.63-.72 1.63-1.71 0-.95-.55-1.63-1.52-1.63-.55.01-1.07.29-1.36.66m-.83-1.33h.83v.55c.32-.37.95-.66 1.59-.66 1.33 0 2.17.99 2.17 2.38 0 1.43-.97 2.52-2.44 2.52-.5 0-.99-.1-1.32-.32v2.3h-.83v-6.77zM136.52 40.99c-.4.51-1.08.78-1.8.78-1.49 0-2.51-.97-2.51-2.45 0-1.36 1-2.45 2.38-2.45.75 0 1.41.18 1.84.62l-.38.65c-.4-.36-.85-.49-1.34-.49-.84 0-1.6.68-1.6 1.67 0 1.03.76 1.67 1.69 1.67.56 0 1.03-.25 1.34-.6l.38.6zm.98-4.01h4.28v.83h-1.72v3.85h-.84v-3.85h-1.72zm8.11 3.4v-.59c-.29-.21-.64-.31-1.05-.31-.5 0-1 .23-1 .77 0 .45.3.74.84.74.62 0 .98-.33 1.21-.61m-2.57-3.08c.42-.26.98-.43 1.56-.43 1.33 0 1.8.7 1.8 1.92v2.88h-.79v-.6c-.28.35-.73.68-1.5.68-.85 0-1.44-.54-1.44-1.45 0-.96.76-1.49 1.77-1.49.36 0 .85.07 1.17.3 0-.87-.14-1.48-1.06-1.48-.57 0-.92.15-1.29.34l-.22-.67zm8.53 2.38h-2.6v1.98h-.84v-4.68h.84v1.92h2.6v-1.92h.83v4.68h-.83zm3.53 1.2h2.27v-3.12h-1.58l-.05.78c-.11 1.2-.42 2.05-.64 2.34m-1.47 0h.58c.31-.4.64-1.38.72-2.67l.07-1.24h3.2v3.91h.78v1.93h-.78v-1.15h-3.79v1.15h-.78v-1.93zm9.34-.5v-.59c-.29-.21-.64-.31-1.05-.31-.5 0-1 .23-1 .77 0 .45.3.74.84.74.61 0 .97-.33 1.21-.61m-2.57-3.08c.42-.26.98-.43 1.56-.43 1.33 0 1.8.7 1.8 1.92v2.88h-.79v-.6c-.28.35-.73.68-1.5.68-.85 0-1.44-.54-1.44-1.45 0-.96.76-1.49 1.77-1.49.36 0 .85.07 1.17.3 0-.87-.14-1.48-1.06-1.48-.57 0-.92.15-1.29.34l-.22-.67zm5.92 1v2.32c.42.28.8.36 1.25.36 1 0 1.63-.72 1.63-1.71 0-.95-.55-1.63-1.52-1.63-.56.01-1.07.29-1.36.66m-.83-1.32h.83v.55c.32-.37.95-.66 1.59-.66 1.33 0 2.17.99 2.17 2.38 0 1.43-.97 2.52-2.44 2.52-.5 0-.99-.1-1.32-.32v2.3h-.83v-6.77zm5.54 0h4.27v.83h-1.71v3.85h-.84v-3.85h-1.72zm5.53 4.68v-4.68h.83v3.49l2.71-3.49h.83v4.68h-.83v-3.49l-2.71 3.49zm5.74-.53l.43-.63c.39.32.98.51 1.38.51.71 0 1.23-.3 1.23-.77 0-.39-.34-.6-.92-.6h-.79v-.68h.74c.47 0 .81-.29.81-.67 0-.43-.4-.68-1-.68-.64 0-1.09.27-1.41.52l-.32-.64c.39-.4 1.12-.63 1.85-.63 1.15 0 1.76.49 1.76 1.26 0 .46-.23.9-.82 1.1v.02c.66.07.98.56.98 1.1 0 .88-.83 1.41-1.99 1.41-.68.02-1.62-.24-1.93-.62m8.13-.75v-.59c-.29-.21-.64-.31-1.05-.31-.5 0-1 .23-1 .77 0 .45.3.74.84.74.61 0 .97-.33 1.21-.61m-2.57-3.08c.42-.26.98-.43 1.56-.43 1.33 0 1.8.7 1.8 1.92v2.88h-.79v-.6c-.28.35-.73.68-1.5.68-.85 0-1.44-.54-1.44-1.45 0-.96.76-1.49 1.77-1.49.36 0 .85.07 1.17.3 0-.87-.14-1.48-1.06-1.48-.57 0-.92.15-1.29.34l-.22-.67zm5.09-.32h.84v3.9h2.5v-3.9h.83v3.9h.78v1.93h-.78v-1.15h-4.17zm6.24 4.68v-4.68h.84v3.49l2.71-3.49h.83v4.68h-.83v-3.49l-2.71 3.49zm6.19 0v-4.68h.83v3.49l2.71-3.49h.83v4.68h-.83v-3.49l-2.71 3.49zm6.54-1.03c.44 0 .75.4.75 1.01 0 .78-.47 1.34-1.15 1.54l-.23-.4c.28-.09.57-.31.67-.7.06-.27.04-.43-.01-.52-.05.08-.15.09-.23.09-.21 0-.4-.21-.4-.48 0-.31.21-.54.6-.54m4.26-3.65h.76l1.8 2.32 1.71-2.32h.74v4.68h-.83v-3.41l-1.63 2.17h-.03l-1.69-2.17v3.41h-.83zm7.41 1.92h2.84c-.04-.77-.54-1.25-1.35-1.25-.85 0-1.39.53-1.49 1.25m3.39 2.25c-.46.42-1.14.61-1.76.61-1.52 0-2.51-.97-2.51-2.45 0-1.36.88-2.45 2.42-2.45 1.21 0 2.18.85 2.18 2.15 0 .23-.02.42-.05.56h-3.6c.07.89.72 1.41 1.64 1.41.6 0 1.13-.21 1.44-.49l.24.66zm1.25-4.17h4.27v.83h-1.72v3.85h-.83v-3.85h-1.72zm6.35 1.32v2.32c.42.28.8.36 1.25.36 1 0 1.63-.72 1.63-1.71 0-.95-.55-1.63-1.52-1.63-.55.01-1.06.29-1.36.66m-.83-1.32h.83v.55c.32-.37.95-.66 1.59-.66 1.33 0 2.17.99 2.17 2.38 0 1.43-.97 2.52-2.44 2.52-.5 0-.99-.1-1.32-.32v2.3h-.83v-6.77zm8.33 4.01c.94 0 1.61-.67 1.61-1.67 0-.98-.68-1.67-1.61-1.67-.92 0-1.62.68-1.62 1.67.01.98.69 1.67 1.62 1.67m0-4.12c1.5 0 2.5 1.04 2.5 2.45 0 1.41-1 2.45-2.5 2.45s-2.5-1.04-2.5-2.45c0-1.41 1-2.45 2.5-2.45m7.14.94h-1.65l-.05.79c-.21 2.67-.92 3.12-1.89 3.12l-.06-.81c.35.03 1.02-.31 1.14-2.48l.08-1.46h3.26v4.69h-.83v-3.85zm4.84 3.18c.94 0 1.61-.67 1.61-1.67 0-.98-.68-1.67-1.61-1.67-.92 0-1.62.68-1.62 1.67.01.98.69 1.67 1.62 1.67m0-4.12c1.5 0 2.5 1.04 2.5 2.45 0 1.41-1 2.45-2.5 2.45s-2.5-1.04-2.5-2.45c0-1.41 1-2.45 2.5-2.45m4.03.11h2.97v.78h-2.14v3.9h-.83zm4.15 4.68v-4.68h.84v3.49l2.71-3.49h.83v4.68h-.83v-3.49l-2.71 3.49zm6.19 0v-4.68h.83v3.49l2.71-3.49h.83v4.68h-.83v-3.49l-2.71 3.49zm8.23 0v-4.68h.84v3.49l2.7-3.49h.84v4.68h-.84v-3.49l-2.7 3.49zm8.24 0v-4.68h.83v3.49l2.71-3.49h.83v4.68h-.83v-3.49l-2.71 3.49zm10.2-.67c-.4.51-1.08.78-1.8.78-1.49 0-2.51-.97-2.51-2.45 0-1.36 1-2.45 2.38-2.45.75 0 1.41.18 1.84.62l-.38.65c-.4-.36-.86-.49-1.34-.49-.84 0-1.6.68-1.6 1.67 0 1.03.76 1.67 1.69 1.67.56 0 1.03-.25 1.34-.6l.38.6zm4.74-3.23h-2.56v3.9h-.83v-4.68h4.22v4.68h-.83zm6.99-.78h.83v4.69h-.83v-4.69zm-3.52 2.18v1.72h.61c.83 0 1.14-.3 1.14-.85 0-.56-.32-.87-1.13-.87h-.62zm-.83-2.18h.83v1.41h.77c1.44 0 1.85.78 1.85 1.62 0 .82-.48 1.67-1.95 1.67h-1.51v-4.7zm6.44 0h4.27v.83h-1.72v3.85h-.83v-3.85h-1.72zm8.11 3.4v-.59c-.29-.21-.64-.31-1.05-.31-.5 0-1 .23-1 .77 0 .45.3.74.84.74.62 0 .97-.33 1.21-.61m-2.57-3.08c.42-.26.98-.43 1.56-.43 1.33 0 1.8.7 1.8 1.92v2.88h-.79v-.6c-.28.35-.73.68-1.5.68-.85 0-1.44-.54-1.44-1.45 0-.96.76-1.49 1.77-1.49.36 0 .85.07 1.17.3 0-.87-.14-1.48-1.06-1.48-.57 0-.92.15-1.29.34l-.22-.67zm8.53 2.38h-2.61v1.98h-.83v-4.68h.83v1.92h2.61v-1.92h.83v4.68h-.83zm2.64 1.98v-4.68h.83v3.49l2.71-3.49h.83v4.68h-.83v-3.49l-2.71 3.49zm7.63-7.08c.04.56.3.82.8.82.46 0 .72-.26.76-.82h.78c0 .82-.6 1.46-1.54 1.46-1.03 0-1.58-.64-1.58-1.46h.78zm-1.44 7.08v-4.69h.83v3.49l2.71-3.49h.83v4.69h-.83v-3.49l-2.71 3.49h-.83zm9.06-2.1V41c.25.01.58.03.96.03.77 0 1.2-.26 1.2-.75s-.41-.72-1.16-.72h-1zm0-1.92v1.4h1.05c.55 0 .95-.27.95-.73 0-.51-.47-.7-1.07-.7-.37 0-.72.02-.93.03m-.83-.66c.41 0 1.02-.04 1.7-.04 1.31 0 2.02.36 2.02 1.21 0 .55-.37.99-.94 1.07v.02c.75.14 1.09.52 1.09 1.1 0 .88-.7 1.37-2.16 1.37-.58 0-1.29-.04-1.72-.04v-4.69zm-202.28 11.8h-4.02v3.31h-.88V44.8h.88v3.15h4.02V44.8h.88v7.29h-.88zm2.88 3.31V47.4h.83v3.49l2.71-3.49h.83v4.69h-.83V48.6l-2.71 3.49zm10.57-2.43l1.82 2.43h-1.03l-1.74-2.43 1.62-2.26h1.03l-1.7 2.26zm-1.99-2.26h.83v4.69h-.83V47.4zm-2.86 0h1.04l1.6 2.26-1.72 2.43h-1.02l1.79-2.43-1.69-2.26zm8.33 1.93h2.84c-.04-.77-.54-1.25-1.35-1.25-.86 0-1.4.53-1.49 1.25m3.38 2.25c-.46.42-1.14.61-1.76.61-1.52 0-2.51-.97-2.51-2.45 0-1.36.88-2.45 2.42-2.45 1.21 0 2.18.85 2.18 2.15 0 .23-.02.42-.05.56h-3.6c.07.89.72 1.41 1.64 1.41.6 0 1.14-.21 1.44-.49l.24.66zm1.81-4.18h2.97v.78h-2.14v3.91h-.83zm6.3 4.01c.94 0 1.61-.67 1.61-1.67 0-.98-.68-1.67-1.61-1.67-.92 0-1.62.68-1.62 1.67.01.98.69 1.67 1.62 1.67m0-4.12c1.5 0 2.5 1.04 2.5 2.45 0 1.41-1 2.45-2.5 2.45s-2.5-1.04-2.5-2.45c0-1.4 1-2.45 2.5-2.45m4.84 1.43v2.32c.42.28.8.36 1.25.36 1 0 1.63-.72 1.63-1.71 0-.95-.55-1.63-1.52-1.63-.56.02-1.07.3-1.36.66m-.83-1.32h.83v.55c.32-.37.95-.66 1.59-.66 1.33 0 2.17.99 2.17 2.38 0 1.43-.97 2.52-2.44 2.52-.5 0-.99-.1-1.32-.32v2.3h-.83V47.4zm8.33 4.01c.94 0 1.61-.67 1.61-1.67 0-.98-.68-1.67-1.61-1.67-.92 0-1.62.68-1.62 1.67 0 .98.68 1.67 1.62 1.67m0-4.12c1.5 0 2.5 1.04 2.5 2.45 0 1.41-1 2.45-2.5 2.45s-2.5-1.04-2.5-2.45c0-1.4 1-2.45 2.5-2.45m4.84 4.01h2.27v-3.12h-1.58l-.05.78c-.11 1.2-.42 2.05-.64 2.34m-1.47 0h.58c.31-.4.64-1.38.72-2.67l.07-1.24h3.2v3.91h.78v1.93h-.78v-1.15h-3.79v1.15h-.78V51.3zm10.57.11c-.39.51-1.08.78-1.8.78-1.49 0-2.51-.97-2.51-2.45 0-1.36 1-2.45 2.38-2.45.75 0 1.41.18 1.84.62l-.39.65c-.4-.36-.85-.49-1.34-.49-.84 0-1.61.68-1.61 1.67 0 1.03.76 1.67 1.69 1.67.56 0 1.03-.25 1.34-.6l.4.6zm3.4-1.77l2.25 2.45h-1.16l-2.12-2.4 1.98-2.29h1.09l-2.04 2.24zm-2.05-2.24h.83v4.69h-.83V47.4zm7.45 4.01c.94 0 1.61-.67 1.61-1.67 0-.98-.68-1.67-1.61-1.67-.92 0-1.62.68-1.62 1.67.01.98.68 1.67 1.62 1.67m0-4.12c1.5 0 2.5 1.04 2.5 2.45 0 1.41-1 2.45-2.5 2.45s-2.5-1.04-2.5-2.45c0-1.4 1-2.45 2.5-2.45m5.45-2.29c.04.56.3.82.8.82.46 0 .72-.26.76-.82h.78c0 .82-.6 1.46-1.54 1.46-1.03 0-1.58-.64-1.58-1.46h.78zm-1.45 7.09V47.4h.83v3.49l2.71-3.49h.83v4.69h-.83V48.6l-2.71 3.49h-.83zm10.43-.68c.94 0 1.61-.67 1.61-1.67 0-.98-.68-1.67-1.61-1.67-.92 0-1.62.68-1.62 1.67 0 .98.68 1.67 1.62 1.67m0-4.12c1.5 0 2.5 1.04 2.5 2.45 0 1.41-1 2.45-2.5 2.45s-2.5-1.04-2.5-2.45c0-1.4.99-2.45 2.5-2.45m6.18 4.12c.92 0 1.54-.71 1.54-1.58 0-.92-.53-1.59-1.5-1.59-.89 0-1.47.59-1.61 1.2 0 1.2.64 1.97 1.57 1.97m1.95-6.06c-.57.77-1.35.47-2.39.94-.88.4-1.12 1.38-1.19 2.26h.02c.3-.66 1.06-1.09 1.85-1.09 1.34 0 2.18.93 2.18 2.33 0 1.31-.98 2.41-2.41 2.41-1.52 0-2.48-1.11-2.48-2.92 0-1.39.25-3.16 1.74-3.78 1.09-.47 1.74-.18 2.22-.8l.46.65zm5.11 2.88h-1.65l-.05.79c-.21 2.67-.92 3.12-1.89 3.12l-.06-.81c.35.03 1.02-.31 1.14-2.48l.08-1.46h3.26v4.69h-.83v-3.85zm5.26 2.58v-.59c-.29-.21-.64-.31-1.05-.31-.5 0-1 .23-1 .77 0 .45.3.74.84.74.62-.01.97-.33 1.21-.61m-2.57-3.09c.42-.26.98-.43 1.56-.43 1.33 0 1.8.7 1.8 1.92v2.88h-.79v-.6c-.28.35-.73.68-1.5.68-.85 0-1.44-.54-1.44-1.45 0-.96.76-1.49 1.77-1.49.36 0 .85.07 1.16.3 0-.87-.14-1.48-1.06-1.48-.57 0-.92.15-1.29.34l-.21-.67zm9.09 3.69c-.4.51-1.08.78-1.8.78-1.49 0-2.51-.97-2.51-2.45 0-1.36 1-2.45 2.38-2.45.75 0 1.41.18 1.84.62l-.38.65c-.4-.36-.85-.49-1.34-.49-.84 0-1.6.68-1.6 1.67 0 1.03.76 1.67 1.69 1.67.56 0 1.03-.25 1.34-.6l.38.6zm.98-4.01h4.27v.83h-1.72v3.86h-.83v-3.86h-1.72zm5.52 4.69V47.4h.84v3.49l2.7-3.49h.84v4.69h-.84V48.6l-2.7 3.49zm8.41-.32l-.56-.49 1.53-1.8-1.54-1.79.54-.48 1.96 2.25v.04l-1.93 2.27zm-1.98 0l-.56-.49 1.53-1.8-1.54-1.79.54-.48 1.96 2.25v.04l-1.93 2.27z" fill="#00536f"/></svg>