<svg width="45" height="65" fill="none" xmlns="http://www.w3.org/2000/svg"><path fill-rule="evenodd" clip-rule="evenodd" d="M19.098 8.39c1.846 9.312.89 22.835-5.105 30.314-1.052 1.312-4.42 5.01-6.208 5.414l-.026.032c-1.642.058-3.222-.079-4.655-.62C1.618 42.969.88 42.155 0 41.226c.635 2.77 4.25 4.751 7.8 5.142 5.261 1.008 12.246-.637 16.902-2.215 3.062-1.038 7.105-3.131 9.644-4.913 1.06-.744 1.857-1.4 2.942-2.086-2.676 5.467-8.382 9.307-12.877 12.392 12.936-3.263 18.25-12.45 20.356-24.701-1.963 2.145-10.4 8.584-12.738 10.286-5.259 3.828-15.42 8.178-22.003 8.705 1.666-.157 6.315-4.386 7.152-5.397 1.843-2.227 3.396-4.453 4.697-7.848 3.275-8.547 2.615-13.73 2.26-22.104.945.65 1.576 1.628 2.275 2.666 4.736 7.03 4.669 15.232-.259 22.084-.687.955-1.62 1.759-2.165 2.553 1.909-.57 4.892-3.971 5.942-5.685 4.56-7.44 3.645-14.22-.207-21.781-1.27-1.915-2.157-3.125-3.515-4.612C25.105 2.506 23.22.975 21.596 0c-1.078.467-2.53 2.111-3.704 2.618l1.206 5.772z" fill="#6699C2"/><path d="M5.344 52.914c.103.061.103.121 0 .182-.283.042-.426.184-.426.427v3.962c0 .245.143.387.426.427.103.061.103.122 0 .184H3.913c-.102-.062-.102-.123 0-.184.285-.04.426-.182.426-.426v-3.963c0-.284-.141-.427-.426-.427H1.779c-.284 0-.427.143-.427.427v3.962c0 .245.143.387.427.427.101.061.101.122 0 .184H.347c-.102-.062-.102-.123 0-.184.283-.04.426-.182.426-.426v-3.963c0-.243-.143-.385-.426-.427-.102-.06-.102-.12 0-.182h4.997zm2.806 4.998a1.01 1.01 0 0 0 .7-.64l1.341-3.627c.021-.142-.06-.224-.243-.243-.122-.02-.143-.072-.06-.152a3.05 3.05 0 0 0 .7-.428c.04-.02.07-.03.091-.03.061 0 .112.03.152.091l1.769 4.573c.101.223.304.375.609.456.101.082.101.143 0 .184H11.44c-.122-.062-.122-.123 0-.184.325-.101.488-.213.488-.334a.688.688 0 0 0-.03-.213l-.244-.672c-.061-.141-.153-.213-.275-.213H9.643c-.142 0-.244.072-.305.214-.082.202-.173.457-.274.762-.02.183.05.304.213.365.08.04.173.072.275.091.101.082.101.143 0 .184H8.15c-.123-.062-.123-.123 0-.184zm1.37-1.736c-.02.08.021.12.123.12h1.707c.102 0 .142-.04.121-.12l-.853-2.318c-.08-.141-.162-.141-.243 0l-.855 2.318zm8.109-.215c-.102 0-.152.052-.152.154v1.37c0 .245.142.387.426.427.102.061.102.122 0 .184H16.47c-.101-.062-.101-.123 0-.184.285-.04.427-.182.427-.426v-3.963c0-.243-.142-.385-.427-.427-.101-.06-.101-.12 0-.182h2.257c.629 0 1.106.163 1.431.488.264.264.397.6.397 1.005 0 .448-.112.783-.335 1.007-.366.365-.864.547-1.493.547h-1.098zm.823-.182c.488 0 .883-.152 1.189-.458.182-.182.274-.477.274-.883 0-.407-.112-.721-.335-.945-.264-.264-.631-.397-1.098-.397h-.518c-.325 0-.487.163-.487.488v1.86c0 .223.112.335.334.335h.641zm7.772 1.341c-.325.732-.782 1.098-1.372 1.098a.95.95 0 0 1-.701-.275c-.223-.224-.334-.477-.334-.762 0-.183.05-.325.152-.426.101-.102.203-.153.304-.153.224 0 .336.121.336.366 0 .08-.03.162-.091.243-.123.184-.184.316-.184.397 0 .06.05.142.152.244a.499.499 0 0 0 .366.152c.508 0 .895-.314 1.159-.945l-1.586-3.536a.847.847 0 0 0-.487-.427c-.121-.06-.121-.12 0-.182h1.494c.101.061.101.121 0 .182-.245.082-.366.173-.366.275 0 .162.02.285.06.366l1.159 2.53c.061.101.122.09.183-.031l1.037-2.316a1.48 1.48 0 0 0 .09-.397c0-.203-.142-.345-.426-.427-.122-.06-.122-.12 0-.182h1.402c.102.061.102.121 0 .182-.386.123-.64.316-.762.58l-1.585 3.444zm9.815.488c-.387.407-.965.61-1.738.61-.792 0-1.453-.264-1.98-.794a2.61 2.61 0 0 1-.794-1.92c0-.75.264-1.39.794-1.92.527-.528 1.188-.792 1.98-.792.671 0 1.23.091 1.676.274v.885c-.019.12-.071.131-.152.03-.325-.671-.842-1.006-1.554-1.006-.508 0-.975.214-1.402.64-.468.467-.702 1.098-.702 1.89 0 .772.234 1.391.702 1.86.427.426.904.64 1.432.64.752 0 1.28-.438 1.585-1.312.062-.122.112-.122.153 0v.915zm3.322.304c.345-.101.58-.315.701-.64l1.341-3.627c.02-.142-.061-.224-.243-.243-.122-.02-.143-.072-.061-.152.304-.143.538-.285.7-.428a.237.237 0 0 1 .092-.03c.061 0 .112.03.152.091l1.769 4.573c.101.223.304.375.608.456.102.082.102.143 0 .184h-1.767c-.122-.062-.122-.123 0-.184.325-.101.488-.213.488-.334a.688.688 0 0 0-.03-.213l-.245-.672c-.06-.141-.152-.213-.274-.213h-1.738c-.141 0-.243.072-.304.214-.082.202-.173.457-.274.762-.021.183.05.304.213.365.08.04.173.072.274.091.102.082.102.143 0 .184h-1.402c-.122-.062-.122-.123 0-.184zm1.371-1.736c-.02.08.02.12.122.12h1.708c.101 0 .142-.04.12-.12l-.852-2.318c-.08-.141-.163-.141-.243 0l-.855 2.318z" fill="#2B2A29"/><path d="M0 60.141h44.767v.395H0v-.395z" fill="#2D2D2D"/><path d="M.339 64.294c.133-.02.2-.085.2-.2v-1.783c0-.161-.09-.252-.271-.271-.057-.029-.057-.057 0-.085h1.655l.17.513c0 .076-.023.09-.07.043-.172-.314-.424-.471-.757-.471h-.157c-.2 0-.3.1-.3.3v1.754c0 .115.067.18.2.2.048.028.048.057 0 .086H.34c-.048-.03-.048-.058 0-.086zm3.716-1.483a.676.676 0 0 1 .856.086c.133.132.2.341.2.627 0 .304-.091.546-.272.727a.588.588 0 0 1-.428.186.608.608 0 0 1-.356-.1c-.057-.019-.086 0-.086.057v.271c0 .105.062.157.186.157.038.029.038.057 0 .085h-.6c-.038-.028-.038-.056 0-.085.124 0 .186-.052.186-.157v-1.598c0-.047-.057-.09-.171-.128-.057-.029-.057-.057 0-.086.161-.038.271-.114.328-.228.038-.029.062-.019.071.029v.128c.01.047.038.057.086.029zm-.086 1.355a.605.605 0 0 0 .414.185c.095 0 .18-.038.257-.114.142-.143.214-.38.214-.713 0-.257-.057-.443-.172-.556a.49.49 0 0 0-.357-.158c-.113 0-.232.072-.356.215v1.14zm3.602.256c-.133.324-.342.485-.628.485-.218 0-.328-.066-.328-.2a.14.14 0 0 1 .043-.1.155.155 0 0 1 .114-.042c.057 0 .11.029.157.085a.28.28 0 0 0 .185.072c.162 0 .286-.12.372-.356l-.6-1.341c-.047-.124-.123-.19-.228-.2-.038-.029-.038-.057 0-.086h.585c.038.029.038.058 0 .086-.105.019-.143.08-.114.185l.413.984c.029.039.057.039.086 0l.37-.941c.039-.133-.004-.209-.128-.228-.037-.029-.037-.057 0-.086h.457c.038.029.038.058 0 .086-.095.01-.171.095-.229.256l-.527 1.341zm2.718-.328c0 .133.066.2.2.2.046.028.046.057 0 .086H9.86c-.048-.03-.048-.058 0-.086.132 0 .2-.067.2-.2v-1.07c0-.133-.068-.2-.2-.2-.048-.027-.048-.056 0-.085h1.654c.048.029.048.058 0 .086-.133 0-.2.066-.2.2v1.07c0 .132.067.199.2.199.048.028.048.057 0 .086h-.628c-.047-.03-.047-.058 0-.086.134 0 .2-.067.2-.2v-1.07c0-.133-.066-.2-.2-.2h-.399c-.133 0-.2.068-.2.2v1.07zm3.188 0c0 .133.066.2.2.2.047.028.047.057 0 .086h-.628c-.048-.03-.048-.058 0-.086.132 0 .2-.067.2-.2v-1.07c0-.133-.068-.2-.2-.2-.048-.027-.048-.056 0-.085h1.654c.048.029.048.058 0 .086-.133 0-.2.066-.2.2v1.07c0 .132.067.199.2.199.048.028.048.057 0 .086h-.628c-.047-.03-.047-.058 0-.086.134 0 .2-.067.2-.2v-1.07c0-.133-.066-.2-.2-.2h-.399c-.133 0-.2.068-.2.2v1.07zm3.815-.685c-.266.105-.452.21-.556.315a.41.41 0 0 0-.129.299c0 .105.02.176.058.214a.233.233 0 0 0 .17.071c.095 0 .248-.076.457-.228v-.67zm0 .757c-.218.18-.4.27-.542.27a.425.425 0 0 1-.314-.114.346.346 0 0 1-.1-.257c0-.123.062-.247.186-.37.114-.114.37-.238.77-.37v-.258a.309.309 0 0 0-.086-.228c-.037-.038-.1-.057-.185-.057-.105 0-.2.043-.285.128-.039.039-.058.105-.058.2 0 .105-.052.157-.157.157-.076 0-.113-.052-.113-.157 0-.076.047-.161.142-.257.105-.105.262-.157.471-.157.18 0 .314.043.4.129.066.066.1.142.1.228v1.041c0 .133.066.2.199.2.047.028.047.057 0 .086h-.428v-.214zm4.7-1.184a.248.248 0 0 1-.071-.014c-.048-.02-.086-.02-.114 0a.3.3 0 0 0-.114.128 2.598 2.598 0 0 1-.1.185c-.038.057-.076.11-.114.157-.048.019-.052.038-.015.057l.443.628c.095.114.18.17.257.17.047.03.047.058 0 .087h-.629c-.047-.03-.047-.058 0-.086.096-.01.143-.043.143-.1 0-.028-.014-.062-.043-.1l-.342-.485c-.019-.038-.052-.057-.1-.057h-.27v.542c0 .133.066.2.2.2.047.028.047.057 0 .086h-.629c-.047-.03-.047-.058 0-.086.134 0 .2-.067.2-.2v-1.07c0-.133-.066-.2-.2-.2-.047-.027-.047-.056 0-.085h.628c.048.029.048.058 0 .086-.133 0-.2.066-.2.2v.442h.2a.436.436 0 0 0 .37-.172c.03-.038.077-.147.143-.328a.557.557 0 0 1 .129-.2.26.26 0 0 1 .185-.085c.058 0 .1.014.129.043a.154.154 0 0 1 .042.114.136.136 0 0 1-.042.1c-.029.029-.058.042-.086.042zm2.56-.286c.219 0 .405.076.557.228.152.153.228.367.228.642 0 .276-.076.49-.228.642a.757.757 0 0 1-.557.229.75.75 0 0 1-.556-.215c-.152-.152-.228-.37-.228-.656 0-.275.076-.49.228-.642a.757.757 0 0 1 .556-.228zm0 .086a.491.491 0 0 0-.356.157c-.114.114-.171.323-.171.627 0 .305.057.514.171.628a.491.491 0 0 0 .356.157.492.492 0 0 0 .357-.157c.114-.114.171-.323.171-.628 0-.304-.057-.513-.17-.627a.491.491 0 0 0-.358-.157zm4.173-.043c.047.029.047.058 0 .086-.133.01-.2.075-.2.2v1.07c0 .132.067.199.2.199.047.028.047.057 0 .086h-.628c-.047-.03-.047-.058 0-.086.134 0 .2-.067.2-.2v-1.013c0-.123-.034-.128-.1-.014l-.514 1.284c-.018.019-.037.019-.056 0l-.5-1.255c-.028-.047-.057-.047-.085 0v.998c0 .133.066.2.2.2.047.028.047.057 0 .086h-.486c-.047-.03-.047-.058 0-.086.134 0 .2-.067.2-.2v-1.07c0-.133-.066-.2-.2-.2-.047-.027-.047-.056 0-.085h.471l.456 1.142c.029.057.058.057.086 0l.457-1.142h.499zm1.805 1.355c0 .133.066.2.2.2.047.028.047.057 0 .086h-.628c-.048-.03-.048-.058 0-.086.133 0 .2-.067.2-.2v-1.07c0-.133-.067-.2-.2-.2-.048-.027-.048-.056 0-.085h1.654c.048.029.048.058 0 .086-.133 0-.2.066-.2.2v1.07c0 .132.067.199.2.199.048.028.048.057 0 .086h-.628c-.047-.03-.047-.058 0-.086.134 0 .2-.067.2-.2v-1.07c0-.133-.066-.2-.2-.2h-.399c-.133 0-.2.068-.2.2v1.07zm3.815-.685c-.266.105-.451.21-.556.315a.41.41 0 0 0-.129.299c0 .105.02.176.058.214a.233.233 0 0 0 .17.071c.096 0 .248-.076.457-.228v-.67zm0 .757c-.218.18-.4.27-.542.27a.424.424 0 0 1-.314-.114.346.346 0 0 1-.1-.257c0-.123.062-.247.186-.37.114-.114.37-.238.77-.37v-.258a.309.309 0 0 0-.086-.228c-.037-.038-.1-.057-.185-.057-.104 0-.2.043-.285.128-.038.039-.057.105-.057.2 0 .105-.053.157-.157.157-.077 0-.114-.052-.114-.157 0-.076.047-.161.142-.257.105-.105.262-.157.471-.157.181 0 .314.043.4.129.066.066.1.142.1.228v1.041c0 .133.066.2.199.2.047.028.047.057 0 .086h-.428v-.214zm3.587-.072c0 .133.067.2.2.2.048.028.048.057 0 .086h-.627c-.048-.03-.048-.058 0-.086.133 0 .2-.067.2-.2v-.485c0-.047-.025-.071-.072-.071h-.656c-.047 0-.071.028-.071.086v.47c0 .133.066.2.2.2.047.028.047.057 0 .086h-.628c-.048-.03-.048-.058 0-.086.133 0 .2-.067.2-.2v-1.07c0-.133-.067-.2-.2-.2-.048-.027-.048-.056 0-.085h.627c.048.029.048.058 0 .086-.133 0-.2.066-.2.2v.342c0 .057.03.086.086.086h.642c.047 0 .071-.024.071-.072v-.356c0-.133-.066-.2-.2-.2-.047-.029-.047-.057 0-.086h.628c.048.029.048.058 0 .086-.133 0-.2.066-.2.2v1.07zm2.162-.057v.057c0 .133.066.2.2.2.047.028.047.057 0 .086h-.628c-.047-.03-.047-.058 0-.086.133 0 .2-.067.2-.2v-1.07c0-.133-.067-.2-.2-.2-.047-.027-.047-.056 0-.085h.628c.047.029.047.058 0 .086-.134 0-.2.066-.2.2v.741c0 .096.033.11.1.043l.698-.699v-.085c0-.133-.066-.2-.2-.2-.047-.029-.047-.057 0-.086h.628c.048.029.048.058 0 .086-.132 0-.2.066-.2.2v1.07c0 .132.068.199.2.199.048.028.048.057 0 .086h-.627c-.048-.03-.048-.058 0-.086.133 0 .2-.067.2-.2v-.713c0-.095-.034-.11-.1-.043l-.7.7zm3.986-.656c0-.095-.032-.11-.1-.043l-.698.7v.056c0 .133.066.2.2.2.047.028.047.057 0 .086h-.628c-.047-.03-.047-.058 0-.086.133 0 .2-.067.2-.2v-1.07c0-.133-.067-.2-.2-.2-.047-.027-.047-.056 0-.085h.628c.047.029.047.058 0 .086-.134 0-.2.066-.2.2v.741c0 .096.033.11.1.043l.698-.699v-.085c0-.133-.066-.2-.2-.2-.047-.029-.047-.057 0-.086h.628c.048.029.048.058 0 .086-.132 0-.2.066-.2.2v1.07c0 .132.068.199.2.199.048.028.048.057 0 .086h-.627c-.048-.03-.048-.058 0-.086.133 0 .2-.067.2-.2v-.713zm-.67-1.041c0 .019.005.033.014.043.058.057.143.085.257.085.114 0 .2-.028.257-.085.01-.01.014-.024.014-.043 0-.02-.019-.048-.057-.086a.154.154 0 0 1-.043-.114c0-.038.01-.066.029-.085a.138.138 0 0 1 .2 0c.028.028.043.08.043.157a.316.316 0 0 1-.1.228c-.067.066-.18.1-.343.1-.162 0-.275-.034-.342-.1a.315.315 0 0 1-.1-.228c0-.077.014-.129.043-.157a.136.136 0 0 1 .2 0c.019.019.028.047.028.085a.154.154 0 0 1-.043.114c-.038.038-.057.067-.057.086z" fill="#1E1920"/></svg>