<svg xmlns="http://www.w3.org/2000/svg" viewBox="0 0 24 22.5"><defs><style>.cls-1{fill:#2a2a68}</style></defs><g id="Слой_2" data-name="Слой 2"><g id="layout"><path class="cls-1" d="M12.18 1h2.08a.5.5 0 100-1h-2.08a.5.5 0 100 1zm9.41 14.9a3.34 3.34 0 00-1.2-1.85 3.5 3.5 0 00-.53-.34 3.44 3.44 0 00-3.72 5.75 3.47 3.47 0 002 .73.47.47 0 000-.95 2.49 2.49 0 01-.69-4.86 2.49 2.49 0 013.2 1.62 2 2 0 01.05.73 2.85 2.85 0 01-.19.71.65.65 0 01-.59.45.15.15 0 01-.09 0 .3.3 0 01-.08-.21v-2.6a.47.47 0 00-.94-.1 1.5 1.5 0 00-.69-.16 1.81 1.81 0 00-1.71 1.93 1.86 1.86 0 001.68 2 1.46 1.46 0 00.93-.33l.13.16a1.08 1.08 0 00.76.33 1.59 1.59 0 001.47-1 3.11 3.11 0 00.21-2.01zm-2.79.88c0 .55-.33 1-.7 1s-.74-.42-.74-1a.88.88 0 01.77-1c.38 0 .65.38.67.92z"/><path class="cls-1" d="M21.25 11.85V.5a.5.5 0 00-.5-.5h-4.41a.5.5 0 100 1h3.43l-9.15 8.68L1.48 1h8.11a.5.5 0 000-1H.5a.5.5 0 00-.5.5v15.84a.48.48 0 000 .05v.09h.12a.5.5 0 00.2 0h12a5.75 5.75 0 108.75-5zm-3-.85a5.71 5.71 0 00-2.12.4v-.05l-2.93-2.7 7.09-6.73v9.44a5.72 5.72 0 00-2.04-.36zm-7.62-.13a.5.5 0 00.34-.14l1.46-1.39 2.76 2.55a5.76 5.76 0 00-2.62 4H1.78l7-6.5 1.46 1.39a.5.5 0 00.38.08zM1 1.92l7.09 6.73L1 15.19zM18.25 21.5a4.76 4.76 0 01-4.75-4.75v-.41a4.75 4.75 0 114.73 5.16z"/></g></g></svg>