<svg width="20" height="20" fill="none" xmlns="http://www.w3.org/2000/svg"><path d="M18.944 8.555H1.056C.473 8.555 0 9.028 0 9.611v.111c0 .583.473 1.056 1.056 1.056h17.888c.583 0 1.056-.473 1.056-1.056v-.111c0-.583-.473-1.056-1.056-1.056zm0 5.556H1.056c-.583 0-1.056.473-1.056 1.056v.11c0 .584.473 1.056 1.056 1.056h17.888c.583 0 1.056-.472 1.056-1.055v-.111c0-.583-.473-1.056-1.056-1.056zm0-11.111H1.056C.473 3 0 3.473 0 4.056v.11c0 .584.473 1.056 1.056 1.056h17.888c.583 0 1.056-.472 1.056-1.055v-.111C20 3.473 19.527 3 18.944 3z" fill="#2387aa"/></svg>