<svg width="11" height="14" fill="none" xmlns="http://www.w3.org/2000/svg"><path d="M5.324 6.847c1.557 0 2.819-1.533 2.819-3.424C8.143 1.533 7.728 0 5.324 0S2.506 1.533 2.506 3.423c0 1.891 1.262 3.424 2.818 3.424zM0 12.074c0-.115 0-.032 0 0zm10.648.09c.001-.031 0-.219 0 0zm-.006-.228c-.053-3.294-.483-4.232-3.775-4.826 0 0-.463.59-1.543.59-1.08 0-1.543-.59-1.543-.59C.525 7.697.069 8.622.009 11.829c-.005.262-.008.275-.009.245v.346S.786 14 5.325 14c4.54 0 5.323-1.58 5.323-1.58v-.256a2.13 2.13 0 0 1-.005-.228z" fill="#85949D"/></svg>