<svg width="35" height="35" fill="none" xmlns="http://www.w3.org/2000/svg"><path d="M31.764 17.55a2.42 2.42 0 0 0-1.052-1.107 3.2 3.2 0 0 0-1.556-.385h-3.017v-2.515c0-.964-.346-1.791-1.038-2.483-.691-.691-1.52-1.037-2.483-1.037H14.07V9.52c0-.964-.346-1.791-1.037-2.483C12.341 6.346 11.512 6 10.55 6H5.52c-.964 0-1.791.346-2.483 1.037C2.346 7.73 2 8.557 2 9.52v15.087c0 .964.346 1.791 1.037 2.483.692.691 1.52 1.037 2.483 1.037h17.1c.701 0 1.434-.18 2.2-.542.765-.362 1.372-.82 1.822-1.375l4.637-5.705c.481-.607.722-1.236.722-1.886a2.48 2.48 0 0 0-.236-1.069zM4.012 9.52c0-.418.146-.775.44-1.068.293-.293.65-.44 1.068-.44h5.03c.418 0 .774.146 1.068.44.293.293.44.65.44 1.068v1.006c0 .42.147.776.44 1.069.293.293.65.44 1.068.44h9.052c.42 0 .776.147 1.07.44.292.293.439.65.439 1.069v2.514h-12.07c-.712 0-1.445.18-2.2.542-.754.362-1.361.82-1.823 1.375l-4.022 4.95V9.52zm25.694 9.712l-4.62 5.705c-.262.325-.634.602-1.116.832-.482.231-.933.346-1.352.346H5.52c-.555 0-.833-.183-.833-.55 0-.167.095-.377.283-.629l4.62-5.704c.273-.325.647-.6 1.124-.825.477-.225.925-.338 1.344-.338h17.098c.555 0 .833.184.833.55 0 .179-.094.383-.283.613z" fill="#EBF0F5"/></svg>