<svg width="20" height="20" fill="none" xmlns="http://www.w3.org/2000/svg"><path d="M1.93 13.333V1.905H0V0h2.896c.256 0 .501.1.682.279.181.179.283.42.283.673v11.429h12.006l1.93-7.62H5.792V2.858h13.243a.976.976 0 0 1 .76.367.947.947 0 0 1 .176.817l-2.413 9.524a.951.951 0 0 1-.343.52.973.973 0 0 1-.593.2H2.896a.972.972 0 0 1-.683-.278.946.946 0 0 1-.282-.674zM3.862 20a1.94 1.94 0 0 1-1.365-.558 1.892 1.892 0 0 1-.565-1.347c0-.505.203-.99.565-1.347a1.944 1.944 0 0 1 1.365-.558c.512 0 1.003.201 1.365.558.362.358.566.842.566 1.347s-.204.99-.566 1.347A1.944 1.944 0 0 1 3.861 20zm11.583 0a1.94 1.94 0 0 1-1.365-.558 1.892 1.892 0 0 1-.566-1.347c0-.505.204-.99.566-1.347a1.944 1.944 0 0 1 1.365-.558c.512 0 1.003.201 1.365.558.362.358.566.842.566 1.347s-.204.99-.566 1.347a1.944 1.944 0 0 1-1.365.558z" fill="#fff" fill-opacity=".95"/></svg>