<svg width="25" height="25" fill="none" xmlns="http://www.w3.org/2000/svg"><path d="M16.864 15.297a.616.616 0 0 0-.18-.309c-.245-.242-.787-.369-1.61-.38-.56-.006-1.232.042-1.939.142-.316-.181-.643-.38-.898-.621-.69-.643-1.264-1.535-1.624-2.518.024-.091.043-.171.063-.254 0 0 .386-2.203.285-2.949a.856.856 0 0 0-.05-.21l-.034-.087c-.106-.244-.313-.502-.637-.488l-.191-.006h-.004c-.364 0-.657.186-.735.461-.234.867.008 2.166.448 3.846l-.114.273c-.314.77-.709 1.543-1.057 2.225l-.044.088c-.368.717-.7 1.326-1.003 1.842l-.31.164a29.97 29.97 0 0 0-.682.369c-1.06.635-1.764 1.353-1.881 1.924-.037.183-.01.416.18.523l.3.153c.131.064.27.097.41.097.757 0 1.634-.941 2.843-3.05a28.291 28.291 0 0 1 4.378-1.04c1.06.596 2.365 1.012 3.19 1.012.146 0 .273-.014.375-.04a.652.652 0 0 0 .373-.255c.16-.24.191-.572.148-.912zM5.394 19.01c.136-.377.683-1.123 1.49-1.783.05-.041.176-.159.29-.268-.845 1.346-1.41 1.881-1.78 2.051zm4.778-11.002c.242 0 .38.611.392 1.185.012.575-.123.977-.289 1.276-.138-.442-.205-1.137-.205-1.592 0 0-.01-.87.102-.87zm-1.426 7.84c.17-.303.345-.623.525-.961.44-.83.717-1.479.922-2.012.41.746.922 1.381 1.522 1.889.076.062.156.127.238.191-1.22.24-2.277.535-3.207.893zm7.702-.069c-.074.045-.287.073-.424.073-.441 0-.99-.201-1.758-.532.295-.021.567-.033.809-.033.444 0 .574-.002 1.01.11.434.111.44.336.363.383z" fill="#FF402F"/><path d="M18.582 15.235a4.688 4.688 0 1 0-.001 9.376 4.688 4.688 0 0 0 0-9.376zm2.125 3.318l-.022.034-1.608 2.234a.588.588 0 0 1-.99 0l-1.631-2.268a.588.588 0 0 1 .509-.877h.835v-1.27c0-.322.263-.585.586-.585h.391c.323 0 .586.263.586.586v1.27h.835a.588.588 0 0 1 .51.876z" fill="#FF402F"/><path d="M14.674 24.21l-.01.01h.01v-.01zm5.861-9.561v-.01l-.01.01h.01z" fill="#FF9A30"/><path d="M19.963 8.25L12.283.573A1.941 1.941 0 0 0 10.902 0H2.954A1.956 1.956 0 0 0 1 1.953v20.313c0 1.077.876 1.953 1.954 1.953h11.71l-.78-.781H2.953a1.173 1.173 0 0 1-1.173-1.172V1.953c0-.646.526-1.172 1.173-1.172h7.948c.313 0 .607.122.828.343l7.68 7.68c.218.217.344.52.344.828v4.226l.781.781V9.632a1.94 1.94 0 0 0-.572-1.381z" fill="#FF402F"/><path d="M20.525 14.649l.01-.01-.781-.781" fill="#fff"/></svg>