<svg version="1.1" id="Слой_1" xmlns="http://www.w3.org/2000/svg" x="0" y="0" viewBox="0 0 20 20" xml:space="preserve"><style>.st0{fill:#2387aa}</style><path class="st0" d="M11.28 6.5c.72 0 1.4.28 1.91.79s.79 1.19.79 1.91c0 .24.09.47.26.64s.4.26.64.26.47-.09.64-.26.26-.4.26-.64c0-1.19-.47-2.34-1.32-3.18a4.513 4.513 0 0 0-3.18-1.32c-.24 0-.47.1-.64.26-.17.17-.26.4-.26.64s.09.47.26.64c.17.16.4.26.64.26z"/><path class="st0" d="M11.28 2.9a6.299 6.299 0 0 1 6.3 6.29c0 .24.09.47.26.64s.4.26.64.26.47-.1.64-.26a.9.9 0 0 0 .26-.64c0-2.15-.85-4.21-2.37-5.73s-3.58-2.37-5.73-2.37c-.24 0-.47.1-.64.26-.17.17-.26.4-.26.64s.09.47.26.64c.17.17.4.27.64.27z"/><path d="M1.89 2.27c.81-.71 1.99-1.13 3.59-.9l.49.07L7.6 7.41c.08.31-.04.64-.31.82l-.95.64c.35.65.88 1.48 1.55 2.26.77.89 1.68 1.66 2.68 2.08l.98-1.47 6.5 1.77.07.49c.1.7.04 1.77-.47 2.74-.53 1.02-1.53 1.87-3.17 2.11-1.02.15-2.38-.01-3.83-.45-1.46-.45-3.06-1.2-4.54-2.32C3.13 13.83.62 10.12.62 4.61v-.07l.01-.06a3.9 3.9 0 0 1 1.26-2.21zm.24 2.4c.02 4.95 2.26 8.22 4.89 10.21 1.33 1.01 2.77 1.69 4.07 2.08 1.32.4 2.45.5 3.18.4 1.16-.17 1.74-.72 2.05-1.32.23-.45.32-.94.33-1.36l-4.46-1.22-1 1.51-.53-.15c-1.6-.46-2.92-1.58-3.91-2.72-.99-1.15-1.71-2.39-2.07-3.2l-.25-.57 1.58-1.05L4.79 2.8c-.92-.03-1.52.26-1.91.6-.45.39-.68.92-.75 1.27z" fill-rule="evenodd" clip-rule="evenodd" fill="#2387aa"/></svg>