<svg xmlns="http://www.w3.org/2000/svg" viewBox="0 0 24 24"><path d="M23.72 19.38l-5-5.26a1 1 0 00-1.37-.12l-3.25 2.66A10.54 10.54 0 0111.74 15a.5.5 0 00-.66.75 10.1 10.1 0 003 1.93.5.5 0 00.44-.1l1.25-1 5 5.42a8.19 8.19 0 01-5.82.77 17.74 17.74 0 01-8.7-5A17.76 17.76 0 011.2 9 8.21 8.21 0 012 3.16l5.21 5-.6.72a.5.5 0 00-.07.53 19.62 19.62 0 003.06 4.88.5.5 0 10.76-.65 18.51 18.51 0 01-2.8-4.36L9.8 6.62a1 1 0 00-.07-1.37L4.56.28a1 1 0 00-1.39 0l-.93.92C.31 3.15-.41 6 .22 9.18a18.68 18.68 0 005.22 9.15 18.81 18.81 0 009.31 5.41A11.41 11.41 0 0017 24a8 8 0 005.8-2.28l.92-.95a1 1 0 000-1.39zM3.86 1L9 6 7.84 7.39 2.57 2.33c.12-.14.24-.28.37-.41zm18.22 20c-.15.15-.31.29-.47.42L16.54 16 18 14.81l5 5.27z" fill="#2a2a68" data-name="Слой 2"/></svg>