<svg width="18" height="18" fill="none" xmlns="http://www.w3.org/2000/svg"><path d="M6.981 13.47c1.733 0 3.368-.67 4.594-1.896a6.457 6.457 0 0 0 1.896-4.595c0-1.734-.67-3.37-1.896-4.596A6.454 6.454 0 0 0 6.981.487c-1.733 0-3.368.67-4.594 1.896a6.505 6.505 0 0 0 0 9.19 6.454 6.454 0 0 0 4.594 1.897zm0-11.087c1.226 0 2.387.475 3.253 1.341a4.6 4.6 0 0 1 0 6.509 4.575 4.575 0 0 1-3.253 1.34A4.575 4.575 0 0 1 2.387 6.98a4.577 4.577 0 0 1 4.594-4.596zM17.109 17.11a1.26 1.26 0 0 0 0-1.782l-3.086-3.087c-.468-.469-1.244-.4-1.712.07-.469.468-.538 1.244-.07 1.712l3.086 3.087a1.26 1.26 0 0 0 1.782 0z" fill="#697882"/></svg>