<svg width="14" height="8" fill="none" xmlns="http://www.w3.org/2000/svg"><path d="M12.877 1.116a.445.445 0 00-.6 0l-5.27 4.937-5.283-4.937a.446.446 0 00-.6 0 .378.378 0 000 .56l5.572 5.208a.448.448 0 00.6 0l5.57-5.208a.371.371 0 00.011-.56z" fill="#000" fill-opacity=".75"/><path d="M12.107.933h0L7.006 5.711 1.894.933a.695.695 0 00-.94 0 .628.628 0 000 .926l5.571 5.208a.698.698 0 00.941 0l5.57-5.206a.62.62 0 00.012-.928.695.695 0 00-.941 0z" stroke="#000" stroke-opacity=".75" stroke-width=".5"/></svg>