<svg xmlns="http://www.w3.org/2000/svg" viewBox="0 0 210.66 232.28"><defs><linearGradient id="a" y1="116.14" x2="210.66" y2="116.14" gradientUnits="userSpaceOnUse"><stop offset="0" stop-color="#a92c8e"/><stop offset=".5" stop-color="#2b2968"/><stop offset="1" stop-color="#25a7de"/></linearGradient></defs><g data-name="Слой 2"><path d="M104.82 232.28H104a28.12 28.12 0 01-13.72-3.88q-36.79-21.26-73.6-42.48c-3.06-1.76-6.22-3.58-8.7-6.32a30.06 30.06 0 01-7.77-16.46 28.71 28.71 0 01-.21-3.77V71.46a26.29 26.29 0 019.61-20.65 25.55 25.55 0 013.86-2.59l.53-.32c12.84-7.46 26.12-15.16 39.21-22.7Q67.45 17 81.71 8.89L91 3.59A27.74 27.74 0 01105 0h.2c5.32 0 9.49.89 13.13 2.8 2.28 1.19 4.53 2.51 6.72 3.78L146.57 19q24.13 13.93 48.28 27.83a34.26 34.26 0 018.44 6.12 26.44 26.44 0 017.22 16.33c.08 1.1.13 2.28.13 3.5v86.88c0 9-3.71 16.36-11 22a74 74 0 01-9.23 5.79c-1 .55-2 1.1-2.93 1.66q-15.62 9-31.26 18.07-18.22 10.5-36.42 21.04a29.13 29.13 0 01-14.98 4.06zM.91 115.12v44.27A28.06 28.06 0 001.1 163a29.18 29.18 0 007.58 16c2.39 2.64 5.49 4.42 8.49 6.15q36.83 21.2 73.6 42.46a27.26 27.26 0 0013.29 3.76 28.24 28.24 0 0015.28-3.93q18.2-10.55 36.43-21.06 15.63-9 31.26-18.06c1-.56 2-1.12 2.94-1.67a73.4 73.4 0 009.12-5.72c7-5.45 10.62-12.61 10.63-21.28q.05-34.15 0-68.3V72.77c0-1.2 0-2.36-.13-3.44a25.55 25.55 0 00-7-15.79 33.52 33.52 0 00-8.23-6q-24.16-13.88-48.28-27.83L124.63 7.36c-2.17-1.27-4.42-2.57-6.68-3.76-3.51-1.84-7.55-2.7-12.72-2.7H105a26.87 26.87 0 00-13.6 3.47l-9.25 5.3Q67.91 17.81 53.68 26c-13.09 7.53-26.36 15.24-39.2 22.7l-.55.32a24.86 24.86 0 00-3.73 2.5 25.42 25.42 0 00-9.27 20Q.87 87 .91 102.6z" fill="url(#a)"/><path d="M105.06 9.26a25.34 25.34 0 00-12.77 3.26q-17.45 10-34.88 20Q39 43.08 20.68 53.75a23.3 23.3 0 00-3.51 2.35 23.86 23.86 0 00-8.71 18.76v81.21a26.35 26.35 0 00.17 3.42 27.25 27.25 0 007.11 15 31.36 31.36 0 007.94 5.76q34 19.61 68 39.25a25.7 25.7 0 0012.47 3.5 26.66 26.66 0 0014.34-3.69q31.25-18.11 62.54-36.15c3.78-2.19 7.7-4.16 11.19-6.86 6.55-5.07 10-11.71 10-20q.06-40.13 0-80.27c0-1.07 0-2.14-.12-3.21A23.91 23.91 0 00195.53 58a31.39 31.39 0 00-7.7-5.58q-31.4-18-62.73-36.17c-2.63-1.52-5.24-3.08-7.93-4.49a25.11 25.11 0 00-11.94-2.54h-.18" fill="#fff"/><path d="M104.86 223.18h-.72a25.72 25.72 0 01-12.55-3.55c-22.08-12.76-45-26-68-39.25a31.6 31.6 0 01-8-5.79 27.52 27.52 0 01-7.14-15.06 26.4 26.4 0 01-.17-3.44V74.86A24 24 0 0117.07 56a23.35 23.35 0 013.53-2.37l.41-.24c11.89-6.91 24.19-14 36.32-21 8.75-5 17.67-10.13 26.29-15.06l8.59-4.91a25.37 25.37 0 0112.84-3.28h.18a25.07 25.07 0 0112 2.56c2.09 1.1 4.17 2.31 6.18 3.48l1.75 1 18.1 10.45C157.9 35 173 43.77 187.9 52.32a31.44 31.44 0 017.73 5.61 24.16 24.16 0 016.6 14.93c.08 1 .12 2.1.12 3.22v80.26a24.43 24.43 0 01-10 20.1 68.17 68.17 0 01-8.5 5.33c-.9.51-1.81 1-2.71 1.53q-14.46 8.37-28.93 16.72c-11 6.36-22.41 12.94-33.61 19.43a26.65 26.65 0 01-13.74 3.73zM8.6 115.47v40.62a26.14 26.14 0 00.16 3.4 27.21 27.21 0 007.07 14.89 31.35 31.35 0 007.91 5.73c23 13.28 45.91 26.49 68 39.25a25.42 25.42 0 0012.41 3.51 26.33 26.33 0 0014.26-3.67c11.19-6.49 22.59-13.07 33.61-19.43q14.47-8.35 28.93-16.72c.9-.52 1.8-1 2.71-1.54a68.06 68.06 0 008.46-5.31 24.14 24.14 0 009.88-19.86V76.07c0-1.11 0-2.18-.12-3.19a23.87 23.87 0 00-6.53-14.75 31.19 31.19 0 00-7.66-5.55c-14.89-8.55-30-17.28-44.62-25.72L125 16.42l-1.75-1c-2-1.17-4.08-2.38-6.17-3.47a24.77 24.77 0 00-11.87-2.52h-.18a25.08 25.08 0 00-12.69 3.24l-8.59 4.91c-8.62 4.93-17.54 10-26.29 15.06-12.12 7-24.42 14.12-36.32 21l-.41.24a23.11 23.11 0 00-3.49 2.34 23.74 23.74 0 00-8.63 18.64v40.61z" fill="#dadbdc"/></g></svg>