<svg xmlns="http://www.w3.org/2000/svg" viewBox="0 0 36 18.75"><defs><style>.cls-1{fill:#b7b9bd}</style></defs><g id="Слой_2" data-name="Слой 2"><g id="layout"><path class="cls-1" d="M0 18a.75.75 0 01.22-.53L17.47.22a.75.75 0 011.06 0l17.25 17.25a.75.75 0 11-1.06 1.06L18 1.81 1.28 18.53A.75.75 0 010 18z"/><path class="cls-1" d="M14.62 10.51a.75.75 0 01.22-.53l2.63-2.63a.75.75 0 011.06 0l7.37 7.37a.75.75 0 01-1.06 1.06L18 8.94 15.9 11a.75.75 0 01-1.28-.53zM11 14.12a.75.75 0 01.22-.53l1.6-1.6a.75.75 0 111.06 1.06l-1.6 1.6a.75.75 0 01-1.28-.53z"/></g></g></svg>