<svg xmlns="http://www.w3.org/2000/svg" viewBox="0 0 18.75 36"><defs><style>.cls-1{fill:#25a6de}</style></defs><g id="Слой_2" data-name="Слой 2"><g id="layout"><path class="cls-1" d="M18 36a.75.75 0 01-.53-.22L.22 18.53a.75.75 0 010-1.06L17.47.22a.75.75 0 011.06 1.06L1.81 18l16.72 16.72A.75.75 0 0118 36z"/><path class="cls-1" d="M10.51 21.38a.75.75 0 01-.53-.22l-2.64-2.63a.75.75 0 010-1.06l7.37-7.37a.75.75 0 011.06 1.06L8.94 18 11 20.1a.75.75 0 01-.53 1.28zM14.12 25a.75.75 0 01-.53-.22L12 23.18a.75.75 0 111.06-1.06l1.6 1.6a.75.75 0 01-.54 1.28z"/></g></g></svg>