<svg width="299" height="299" fill="none" xmlns="http://www.w3.org/2000/svg"><path fill-rule="evenodd" clip-rule="evenodd" d="M149.5 299c82.567 0 149.5-66.933 149.5-149.5S232.067 0 149.5 0 0 66.933 0 149.5 66.933 299 149.5 299zm0-49c55.505 0 100.5-44.995 100.5-100.5S205.005 49 149.5 49 49 93.995 49 149.5 93.995 250 149.5 250zM238 149.5c0 48.877-39.623 88.5-88.5 88.5S61 198.377 61 149.5 100.623 61 149.5 61s88.5 39.623 88.5 88.5zM149.5 207c31.756 0 57.5-25.744 57.5-57.5S181.256 92 149.5 92 92 117.744 92 149.5s25.744 57.5 57.5 57.5z" fill="#5D77E6" fill-opacity=".1"/></svg>