<svg xmlns="http://www.w3.org/2000/svg" viewBox="0 0 60 60"><defs><style>.cls-1{fill:#25a6de}</style></defs><g id="Слой_2" data-name="Слой 2"><g id="layout"><path class="cls-1" d="M57.78 31.27l-6.34-11.78a1.26 1.26 0 00-1.7-.51 1.25 1.25 0 00-.52 1.69l6.32 11.76a17.24 17.24 0 01-30.05 16.85 17 17 0 01-.63-16.83L40.21 3.9l4.17 7.75a1.26 1.26 0 001.7.51 1.25 1.25 0 00.52-1.69L41.32.66a1.26 1.26 0 00-2.22 0L22.64 31.28A19.48 19.48 0 0023 50a15.16 15.16 0 01-18.25-6.2 14.82 14.82 0 01-.56-14.7l13.4-24.89 7.82 14.52a1.25 1.25 0 002.21-1.18L18.7 1a1.26 1.26 0 00-2.22 0L2 27.94a17.3 17.3 0 00.63 17.12 17.69 17.69 0 0021.79 7 19.75 19.75 0 0033.36-20.79z"/><path class="cls-1" d="M38 52.39a1.25 1.25 0 001.26 1.25 14.88 14.88 0 0014.9-13.58 1.26 1.26 0 00-2.5-.23 12.38 12.38 0 01-12.4 11.3A1.25 1.25 0 0038 52.39zM9 36.14a1.25 1.25 0 00-1.27-1.24 1.25 1.25 0 00-1.26 1.25 10.21 10.21 0 009.36 10.19H16a1.25 1.25 0 00.11-2.49A7.71 7.71 0 019 36.14z"/></g></g></svg>