<svg xmlns="http://www.w3.org/2000/svg" viewBox="0 0 60 60"><path d="M51.26 44.86A5.1 5.1 0 0148 43.77a6.39 6.39 0 00-7.65 0 5.36 5.36 0 01-6.49 0 6.39 6.39 0 00-7.65 0 5.36 5.36 0 01-6.49 0 6 6 0 00-3.83-1.27 6 6 0 00-3.82 1.27 5.11 5.11 0 01-3.25 1.09 5.09 5.09 0 01-3.24-1.09 6 6 0 00-3.82-1.27H1.4a1.25 1.25 0 01-.12-2.5h.48A8.44 8.44 0 017 41.69a2.69 2.69 0 001.86.67 2.7 2.7 0 001.87-.67A8.45 8.45 0 0115.91 40a8.45 8.45 0 015.21 1.69 2.91 2.91 0 003.73 0 8.87 8.87 0 0110.41 0 2.91 2.91 0 003.73 0 8.87 8.87 0 0110.42 0 2.91 2.91 0 003.73 0A8.45 8.45 0 0158.33 40h.48a1.25 1.25 0 01-.11 2.5h-.37a6 6 0 00-3.82 1.27 5.11 5.11 0 01-3.25 1.09zm0 7.57A5.09 5.09 0 0148 51.34a6.39 6.39 0 00-7.65 0 5.36 5.36 0 01-6.49 0 6.39 6.39 0 00-7.65 0 5.36 5.36 0 01-6.49 0 6 6 0 00-3.83-1.27 6 6 0 00-3.82 1.27 5.11 5.11 0 01-3.25 1.09 5.09 5.09 0 01-3.24-1.09 6 6 0 00-3.83-1.27H1.4a1.25 1.25 0 01-.11-2.5h.48A8.44 8.44 0 017 49.26a2.69 2.69 0 001.86.67 2.7 2.7 0 001.87-.67 8.45 8.45 0 015.21-1.69 8.45 8.45 0 015.21 1.69 2.91 2.91 0 003.73 0 8.87 8.87 0 0110.41 0 2.91 2.91 0 003.73 0 8.87 8.87 0 0110.42 0 2.91 2.91 0 003.73 0 8.45 8.45 0 015.21-1.69h.48a1.25 1.25 0 01-.11 2.5h-.37a6 6 0 00-3.82 1.27 5.1 5.1 0 01-3.3 1.09zm0 7.57A5.09 5.09 0 0148 58.91a6.39 6.39 0 00-7.65 0 5.36 5.36 0 01-6.49 0 6.39 6.39 0 00-7.65 0 5.36 5.36 0 01-6.49 0 6 6 0 00-3.83-1.27 6 6 0 00-3.82 1.27A5.11 5.11 0 018.83 60a5.09 5.09 0 01-3.24-1.09 6 6 0 00-3.83-1.27H1.4a1.27 1.27 0 01-1.3-1.19 1.25 1.25 0 011.19-1.31h.48A8.44 8.44 0 017 56.83a2.7 2.7 0 001.86.67 2.7 2.7 0 001.87-.67 8.45 8.45 0 015.21-1.69 8.45 8.45 0 015.21 1.69 2.91 2.91 0 003.73 0 8.87 8.87 0 0110.41 0 2.91 2.91 0 003.73 0 8.87 8.87 0 0110.42 0 2.91 2.91 0 003.73 0 8.45 8.45 0 015.21-1.69h.48A1.25 1.25 0 0160 56.45a1.26 1.26 0 01-1.3 1.19h-.37a6 6 0 00-3.82 1.27A5.1 5.1 0 0151.26 60zM26.16 4.41V1.25A1.25 1.25 0 0024.92 0H13.08a1.25 1.25 0 00-1.25 1.25v2.07H1.25A1.25 1.25 0 000 4.57v22.11a1.25 1.25 0 001.25 1.25h10.59V30a1.25 1.25 0 001.25 1.25h11.83A1.25 1.25 0 0026.16 30v-5a10.52 10.52 0 016 3 11.34 11.34 0 013.34 9.75 1.27 1.27 0 001.2 1.38h.35A5.06 5.06 0 0040.31 38a6.33 6.33 0 017.57 0 5.06 5.06 0 003.22 1.09h.66a5.2 5.2 0 002.56-1 6 6 0 013.78-1.26h.49c.77 0 1.18-.58 1.19-1.6v-2.06C59.8 19 43.33 5.06 26.16 4.41zm-2.49 24.34h-9.34V22.5a1.25 1.25 0 10-2.49 0v2.93H2.49V5.82h9.34v9.81a1.25 1.25 0 102.49 0V2.5h9.34v26.25zm33.64 5.55a8.4 8.4 0 00-4.37 1.65l-.49.32a26.84 26.84 0 00-2-5.81 1.25 1.25 0 10-2.25 1.08 24.55 24.55 0 011.73 4.82c-.19-.1-.39-.24-.65-.41a8.8 8.8 0 00-10.34 0 5.61 5.61 0 01-.81.49 13.8 13.8 0 00-4.18-10.26 12.93 12.93 0 00-7.76-3.72v-7.23a28.41 28.41 0 0117.5 9.53 1.25 1.25 0 101.86-1.66 30.85 30.85 0 00-19.39-10.38V6.9c15.91.64 31.15 13.31 31.15 26.22v1.18z" fill="#25a6de" data-name="Слой 2"/></svg>