<svg xmlns="http://www.w3.org/2000/svg" viewBox="0 0 60 60"><path d="M40.17 36.13c3.05 1.52 6.42 1.37 10.29-.46a8.84 8.84 0 013.63-.4c1.77 0 3.45.06 4.61-1a1.24 1.24 0 00.19-.21 1.27 1.27 0 00.2-.2 1.25 1.25 0 00-.18-1.76L36 13.41a1.25 1.25 0 00-.79-.28h-1.15v-1.65a11.78 11.78 0 005.57-10.23 1.25 1.25 0 00-2.5 0A9.8 9.8 0 0134 8.44a4.05 4.05 0 00-8.09 0 9.6 9.6 0 01-3.08-7.18 1.25 1.25 0 00-2.5 0 11.86 11.86 0 005.56 10.24v1.64h-1.62a1.25 1.25 0 00-.78.28L.76 31.68l-.11.11-.07.07-.07.14-.07.12a2.36 2.36 0 00.09 2.24c.79 1.44 2.93 2.58 5.33 2.83a6.39 6.39 0 00.67 0c2.18 0 4.57-1 6.84-2.11A8.85 8.85 0 0117.55 34a9.28 9.28 0 013.4 1.21l.9.44A14.25 14.25 0 0025.94 37h.18a8.28 8.28 0 004.49-.6l2.88-1.3c2.24-1.02 4.18-.21 6.68 1.03zm-4.43-11.64a1.25 1.25 0 10-1.58 1.93l.75.61L30 31l-4.9-4 4.9-4 .88.72a1.25 1.25 0 101.58-1.93l-.49-.4 4.93-4 4.9 4-4.93 4zm-14.05-.25a1.25 1.25 0 10-1.58 1.93l1 .86-5.08 4.15-5.18-4.45 5-4 .94.77a1.25 1.25 0 101.58-1.93l-.53-.44 4.94-4L28 21.41l-4.9 4zM43.78 23l5 4.06-4.81 4.13L38.85 27zm10.35 9.78a10.7 10.7 0 00-4.74.64 10.5 10.5 0 01-5.62 1.2l6.93-6 5 4.1c-.48.08-1.04.07-1.57.06zm-19.2-17l-4.93 4-5.09-4.17h9.85zm-6.49-3.37a7 7 0 001.19.11 1.25 1.25 0 000-2.5 4.49 4.49 0 01-1.19-.17v-1a1.57 1.57 0 113.13 0v4.32h-3.13zM12.3 32.83c-1.62.77-4.32 2-6.18 1.85a5.2 5.2 0 01-3.33-1.43l6.12-4.92 4.62 4c-.44.14-.85.33-1.23.5zm9.77.17a16.43 16.43 0 00-2.81-1.19l3.87-3.16 4.9 4-2.15 1.76a12.35 12.35 0 01-3-1zm10.41-.19l-1.48.68 5.91-4.84L42 32.84l-1 .89c-2.26-1.09-5.21-2.42-8.53-.92zm-.89 10.02c-.47-1-1.69-1-2.22-1a7.27 7.27 0 00-5.8 2.76C20.79 42.28 16 40 12.4 40a11 11 0 00-7.17 2.65C3.6 44 2.5 45.75 2.5 46.92s1.85 4.91 7.5 5.65a24.22 24.22 0 003.06.17 29.66 29.66 0 0010.17-1.61 7.18 7.18 0 006.13 3.24c.52 0 1.75 0 2.22-1s-.28-1.88-1-2.72-1.48-1.71-1.48-2.54.85-1.82 1.48-2.54 1.48-1.72 1.01-2.74zM5 46.89a8 8 0 015.11-4.07 4.66 4.66 0 011.48 3.82c0 2.24-.84 3.4-1.1 3.46h-.16c-3.74-.49-5.11-2.57-5.33-3.21zm8.38 3.36a8.91 8.91 0 00.7-3.62 7.59 7.59 0 00-1-4.09 19.07 19.07 0 019.38 4.39 5.43 5.43 0 00-.08 1.84 26.37 26.37 0 01-8.99 1.48zm14.87 1.51a4 4 0 01-3.4-3.66 4 4 0 013.4-3.66 5.91 5.91 0 00-1.65 3.66 5.91 5.91 0 001.66 3.66zm26.85 3.36a8.31 8.31 0 01-2.33-1.19 12.7 12.7 0 011.8-.89 1.25 1.25 0 00-.9-2.33 16.39 16.39 0 00-2.3 1.12 14 14 0 00-7.6-3.08 6.47 6.47 0 00-4.77 1.7 5.16 5.16 0 00-1.55 3.4c0 1.17 1.71 3.12 5.38 3.58a14.64 14.64 0 001.8.1 16.41 16.41 0 006.59-1.25 1.24 1.24 0 00.27-.2 10.82 10.82 0 002.84 1.42 1.25 1.25 0 00.77-2.38zm-12-.17a5.1 5.1 0 01-3.1-1.32 2.89 2.89 0 01.61-1.22 3.84 3.84 0 013.16-1.16 11.45 11.45 0 015.87 2.38.92.92 0 000 .17 1.07 1.07 0 00.1.42 15.82 15.82 0 01-6.61.72zm8.78-14.32a1.25 1.25 0 00-1.25-1.25H35a1.25 1.25 0 000 2.5h15.63a1.25 1.25 0 001.25-1.25zm6.87-1.25h-2.5a1.25 1.25 0 000 2.5h2.5a1.25 1.25 0 000-2.5zM25 57.5H9.38a1.25 1.25 0 000 2.5H25a1.25 1.25 0 000-2.5zm-21.25 0h-2.5a1.25 1.25 0 000 2.5h2.5a1.25 1.25 0 000-2.5z" fill="#25a6de" data-name="Слой 2"/></svg>