<svg xmlns="http://www.w3.org/2000/svg" viewBox="0 0 60 60"><path d="M59.72 53.51a1.24 1.24 0 00-1.72-.17A14.1 14.1 0 0153 56a8.07 8.07 0 01-4.44 0l6.38-21.1a1.27 1.27 0 00-.54-1.45l-5-3.1v-9.2a1.26 1.26 0 00-1.25-1.26h-1.9v-3.78A1.26 1.26 0 0045 14.84h-4.38v-3.79a1.26 1.26 0 00-1.25-1.26h-5.62V1.26A1.26 1.26 0 0032.5 0h-5a1.26 1.26 0 00-1.25 1.26v8.53h-5.63a1.26 1.26 0 00-1.25 1.26v3.79H15a1.26 1.26 0 00-1.25 1.26v3.79h-1.88a1.26 1.26 0 00-1.25 1.26v9.2l-5 3.1a1.27 1.27 0 00-.54 1.45L11.43 56c-.34-.13-.68-.28-1-.45-4.08-1.95-7.46.18-9.95 2.24a1.27 1.27 0 00-.17 1.78 1.24 1.24 0 001.69.14c2.93-2.43 5-3 7.29-1.91 3.87 1.85 7.24 2 10.29.46 2.5-1.26 4.44-2.07 6.67-1.06l2.88 1.31a10.35 10.35 0 008.77-.08l.9-.45a9.22 9.22 0 013.4-1.22 8.76 8.76 0 014.18 1.08 10.52 10.52 0 007.21.63 16.7 16.7 0 005.92-3.18 1.27 1.27 0 00.21-1.78zM46.87 28.82l-10.37-6.4h10.37zM28.75 2.53h2.5v7.26h-2.5zm-6.87 9.79h16.24v2.53H21.87zm-5.62 5.05h27.5v2.53H32.41l-1.76-1.09h-1.31l-1.75 1.09H16.25zm-3.12 5.05H23.5l-10.38 6.4zM18.51 56a7.26 7.26 0 01-4.23.71L7.73 35.1l21-13v33.45l-1.43-.65c-3.46-1.58-6.54-.03-8.79 1.1zm23.57-1.76a11.37 11.37 0 00-4.36 1.49l-.85.42a7.86 7.86 0 01-5.63.44V22.14l21 13-6 19.86a9.64 9.64 0 00-4.16-.75z" fill="#25a6de" data-name="Слой 2"/></svg>