<svg xmlns="http://www.w3.org/2000/svg" viewBox="0 0 60 60"><defs><style>.cls-1{fill:#25a6de}</style></defs><g id="Слой_2" data-name="Слой 2"><g id="layout"><path class="cls-1" d="M5 25.9h30.74A11 11 0 1025 16.77a1.25 1.25 0 102.47-.41 8.43 8.43 0 118.31 7H5a1.25 1.25 0 000 2.5zM50.07 40H23.6a1.29 1.29 0 000 2.58h26.47A7.43 7.43 0 1142.83 50a7.59 7.59 0 01.11-1.24 1.29 1.29 0 00-1-1.49 1.26 1.26 0 00-1.45 1.06 10.29 10.29 0 00-.18 1.67 9.77 9.77 0 109.77-10zm-6.94-7.22a1.25 1.25 0 00-1.25-1.25H12.5a1.25 1.25 0 000 2.5h29.38a1.25 1.25 0 001.25-1.25zM55.63 34h3.13a1.25 1.25 0 000-2.5h-3.13a1.25 1.25 0 000 2.5zm-11.25-1.22A1.25 1.25 0 0045.63 34h6.25a1.25 1.25 0 000-2.5h-6.25a1.25 1.25 0 00-1.25 1.28zM7.5 31.53H1.25a1.25 1.25 0 000 2.5H7.5a1.25 1.25 0 000-2.5zM30.63 2.5h2.5a1.25 1.25 0 000-2.5h-2.5a1.25 1.25 0 000 2.5z"/><path class="cls-1" d="M37.69 2.5a10.45 10.45 0 0110.44 10.45 1.25 1.25 0 102.5 0A13 13 0 0037.69 0a1.25 1.25 0 000 2.5z"/></g></g></svg>