<svg xmlns="http://www.w3.org/2000/svg" viewBox="0 0 60 60"><defs><style>.cls-1{fill:#25a6de}</style></defs><g id="Слой_2" data-name="Слой 2"><g id="layout"><path class="cls-1" d="M30 16.55A13.45 13.45 0 1043.45 30 13.46 13.46 0 0030 16.55zm0 24.39A10.95 10.95 0 1140.95 30 11 11 0 0130 40.95z"/><path class="cls-1" d="M41.17 40.92A15.62 15.62 0 1141 19a1.25 1.25 0 101.77-1.77A18.12 18.12 0 1043 42.67a1.25 1.25 0 00-1.79-1.75zm5.46-7.75a1.25 1.25 0 00-1.53.88A15.45 15.45 0 0144 37a1.25 1.25 0 102.24 1.12 18 18 0 001.29-3.4 1.25 1.25 0 00-.9-1.55z"/><path class="cls-1" d="M30 24.85A5.15 5.15 0 1035.15 30 5.16 5.16 0 0030 24.85zm0 7.8A2.65 2.65 0 1132.65 30 2.65 2.65 0 0130 32.65z"/><path class="cls-1" d="M58.87 23.2l-5.62-.52a24.27 24.27 0 00-1.63-3.94l3.6-4.34a1.25 1.25 0 00-.08-1.68l-7.85-7.86a1.25 1.25 0 00-1.68-.08l-4.34 3.6a24.26 24.26 0 00-3.94-1.63l-.53-5.62A1.25 1.25 0 0035.56 0H24.44a1.25 1.25 0 00-1.24 1.13l-.52 5.62a24.26 24.26 0 00-3.94 1.63l-4.34-3.6a1.25 1.25 0 00-1.68.08l-7.86 7.86a1.25 1.25 0 00-.08 1.68l3.6 4.34a24.27 24.27 0 00-1.62 3.91l-5.62.52A1.25 1.25 0 000 24.44v11.12a1.25 1.25 0 001.13 1.24l5.62.52a24.27 24.27 0 001.63 3.94l-3.6 4.34a1.25 1.25 0 00.08 1.68l7.86 7.86a1.25 1.25 0 001.68.08l4.34-3.6a24.26 24.26 0 003.94 1.63l.52 5.62A1.25 1.25 0 0024.44 60h11.12a1.25 1.25 0 001.24-1.13l.52-5.62a24.26 24.26 0 003.94-1.63l4.34 3.6a1.25 1.25 0 001.68-.08l7.86-7.86a1.25 1.25 0 00.08-1.68l-3.6-4.34a24.27 24.27 0 001.63-3.94l5.62-.52A1.25 1.25 0 0060 35.56V24.44a1.25 1.25 0 00-1.13-1.24zM57.5 34.42l-5.32.49a1.25 1.25 0 00-1.09.91 21.78 21.78 0 01-2.06 5 1.25 1.25 0 00.13 1.42l3.42 4.12-6.25 6.24-4.12-3.42a1.25 1.25 0 00-1.42-.18 21.74 21.74 0 01-5 2.06 1.25 1.25 0 00-.91 1.09l-.49 5.32h-8.81l-.49-5.32a1.25 1.25 0 00-.91-1.09 21.74 21.74 0 01-5-2.06 1.25 1.25 0 00-1.42.12l-4.12 3.42-6.21-6.22 3.42-4.12a1.25 1.25 0 00.15-1.41 21.78 21.78 0 01-2.06-5 1.25 1.25 0 00-1.09-.91l-5.35-.46v-8.84l5.32-.49a1.25 1.25 0 001.09-.91 21.79 21.79 0 011.67-4.26q.19-.36.39-.71a1.25 1.25 0 00-.13-1.42l-3.41-4.11 6.25-6.24 4.12 3.42a1.25 1.25 0 001.42.12 21.74 21.74 0 015-2.06 1.25 1.25 0 00.91-1.09l.49-5.32h8.83l.49 5.32a1.25 1.25 0 00.91 1.09 21.74 21.74 0 015 2.06 1.25 1.25 0 001.42-.12l4.12-3.42 6.25 6.24-3.42 4.12a1.25 1.25 0 00-.22 1.41 21.78 21.78 0 012.06 5 1.25 1.25 0 001.09.91l5.32.49z"/></g></g></svg>