<svg width="14" height="14" fill="none" xmlns="http://www.w3.org/2000/svg"><path d="M13.686 11.073l-2.162-2.167c-.43-.43-1.144-.417-1.59.03l-1.089 1.092-.215-.12c-.687-.382-1.629-.906-2.62-1.9-.993-.995-1.516-1.94-1.898-2.63l-.118-.21.732-.732.359-.36c.446-.448.459-1.163.029-1.594L2.952.314c-.43-.43-1.143-.417-1.59.03L.753.96.77.975a3.534 3.534 0 0 0-.502.888c-.118.31-.19.604-.224.9-.285 2.372.796 4.54 3.731 7.482 4.058 4.066 7.327 3.76 7.468 3.744a3.645 3.645 0 0 0 1.784-.728l.013.012.617-.606c.446-.447.459-1.162.03-1.594z" fill="#85949D"/></svg>