<svg width="20" height="20" fill="none" xmlns="http://www.w3.org/2000/svg"><path d="M10.017 5.309c-1.732 0-3.464-.2-5.145-.594a.316.316 0 1 1 .145-.617c3.669.86 7.568.752 11.196-.315a.316.316 0 1 1 .18.607c-2.072.61-4.217.919-6.376.919zm6.285 10.893a.318.318 0 0 1-.09-.013 22.043 22.043 0 0 0-12.391 0 .317.317 0 0 1-.18-.607 22.672 22.672 0 0 1 12.751 0 .316.316 0 0 1-.09.62z" fill="#50BCD6"/><path d="M9.63 18.91a.315.315 0 0 1-.179-.054c-2.956-2.017-4.72-5.334-4.72-8.873 0-2.867 1.128-5.565 3.177-7.598a.317.317 0 0 1 .446.449 10.008 10.008 0 0 0-2.99 7.15c0 3.328 1.661 6.45 4.445 8.349a.317.317 0 0 1-.18.578zm.8 0a.316.316 0 0 1-.178-.578c2.784-1.898 4.445-5.02 4.445-8.349 0-3.329-1.661-6.45-4.445-8.349a.317.317 0 0 1 .357-.523c2.956 2.017 4.72 5.334 4.72 8.872 0 3.539-1.764 6.855-4.72 8.873a.318.318 0 0 1-.178.055z" fill="#50BCD6"/><path d="M10.017 18.817A.317.317 0 0 1 9.7 18.5V1.467a.317.317 0 0 1 .633 0V18.5a.316.316 0 0 1-.316.317z" fill="#50BCD6"/><path d="M18.85 10.3H2.45a.317.317 0 0 1 0-.633h16.4a.317.317 0 1 1 0 .633z" fill="#50BCD6"/><path d="M10.017 19.167c-5.064 0-9.184-4.12-9.184-9.184 0-2.23.81-4.382 2.28-6.057a.317.317 0 1 1 .477.418 8.549 8.549 0 0 0-2.123 5.64c0 4.714 3.835 8.55 8.55 8.55 4.714 0 8.55-3.836 8.55-8.55 0-4.715-3.836-8.55-8.55-8.55-1.95 0-3.785.638-5.307 1.846a.316.316 0 1 1-.393-.496A9.077 9.077 0 0 1 10.017.8C15.08.8 19.2 4.92 19.2 9.983c0 5.064-4.12 9.184-9.183 9.184z" fill="#50BCD6"/></svg>