<svg xmlns="http://www.w3.org/2000/svg" viewBox="0 0 24 24"><defs><style>.cls-1{fill:#fff}</style></defs><g id="Слой_2" data-name="Слой 2"><g id="layout"><path class="cls-1" d="M9.08 1.62a7.45 7.45 0 107.45 7.45 7.46 7.46 0 00-7.45-7.45zm0 13.91a6.46 6.46 0 116.46-6.46 6.47 6.47 0 01-6.46 6.47z"/><path class="cls-1" d="M9.08 3.48a.5.5 0 100 1 4.61 4.61 0 014.6 4.6.5.5 0 101 0 5.61 5.61 0 00-5.6-5.6z"/><path class="cls-1" d="M23.45 20.78L16.69 14A9.09 9.09 0 1014 16.69l6.76 6.76a1.89 1.89 0 002.67-2.67zM1 9.08a8.08 8.08 0 118.08 8.08A8.09 8.09 0 011 9.08zm15.1 5.76l1.43 1.43-1.26 1.26-1.43-1.43a9.16 9.16 0 001.25-1.27zm6.65 7.91a.89.89 0 01-1.26 0L17 18.23 18.23 17l4.51 4.51a.89.89 0 010 1.26z"/></g></g></svg>