<svg xmlns="http://www.w3.org/2000/svg" xmlns:xlink="http://www.w3.org/1999/xlink" viewBox="0 0 369 415" enable-background="new 0 0 369 415"><g id="layout"><g><defs><path id="SVGID_121_" transform="matrix(0.9221 -0.3869 0.3869 0.9221 -79.1371 116.5911)" d="M41.6 66.2h416.8v377.4H41.6z"/></defs><clipPath id="SVGID_1_"><use xlink:href="#SVGID_121_" overflow="visible"/></clipPath><g clip-path="url(#SVGID_1_)"><defs><path id="SVGID_123_" transform="matrix(0.9221 -0.3869 0.3869 0.9221 -79.1371 116.5911)" d="M41.6 66.2h416.8v377.4H41.6z"/></defs><clipPath id="SVGID_2_"><use xlink:href="#SVGID_123_" overflow="visible"/></clipPath><g opacity=".1" clip-path="url(#SVGID_2_)"><g><defs><path id="SVGID_125_" transform="matrix(0.9221 -0.3869 0.3869 0.9221 -39.5067 116.2126)" d="M-11.1-132.9h560v578.2h-560z"/></defs><clipPath id="SVGID_3_"><use xlink:href="#SVGID_125_" overflow="visible"/></clipPath><g clip-path="url(#SVGID_3_)"><defs><path id="SVGID_127_" d="M369.1.3-2.5 191.8 349 417.7 349.3 417.3 369.2.4z"/></defs><clipPath id="SVGID_4_"><use xlink:href="#SVGID_127_" overflow="visible"/></clipPath><g clip-path="url(#SVGID_4_)"><defs><path id="SVGID_129_" transform="matrix(0.5408 -0.8412 0.8412 0.5408 -214.0883 257.8793)" d="M122.9 1.5h12.5v647.1H122.9z"/></defs><clipPath id="SVGID_6_"><use xlink:href="#SVGID_129_" overflow="visible"/></clipPath><linearGradient id="SVGID_8_" gradientUnits="userSpaceOnUse" x1="4443.2798" y1="644.7056" x2="4444.7524" y2="644.7056" gradientTransform="matrix(68.5131 415.5348 415.5348 -68.5131 -572226.5625 -1802056.125)"><stop offset="0" style="stop-color:#00adee"/><stop offset=".4959" style="stop-color:#2b2a68"/><stop offset=".9947" style="stop-color:#ab2e8e"/><stop offset="1" style="stop-color:#ab2e8e"/></linearGradient><path clip-path="url(#SVGID_6_)" fill="url(#SVGID_8_)" d="M321.9-17.4 421.6 587.4-63.6 667.4-163.3 62.6z"/></g></g><g clip-path="url(#SVGID_3_)"><defs><path id="SVGID_132_" d="M369.1.3-2.5 191.8 349 417.7 349.3 417.3 369.2.4z"/></defs><clipPath id="SVGID_10_"><use xlink:href="#SVGID_132_" overflow="visible"/></clipPath><g clip-path="url(#SVGID_10_)"><defs><path id="SVGID_134_" transform="matrix(0.5408 -0.8412 0.8412 0.5408 -189.5476 259.641)" d="M136.8-20.1h12.5V627H136.8z"/></defs><clipPath id="SVGID_12_"><use xlink:href="#SVGID_134_" overflow="visible"/></clipPath><linearGradient id="SVGID_14_" gradientUnits="userSpaceOnUse" x1="4443.2798" y1="644.7464" x2="4444.7524" y2="644.7464" gradientTransform="matrix(68.5131 415.5348 415.5348 -68.5131 -572226.5625 -1802056.125)"><stop offset="0" style="stop-color:#00adee"/><stop offset=".4959" style="stop-color:#2b2a68"/><stop offset=".9947" style="stop-color:#ab2e8e"/><stop offset="1" style="stop-color:#ab2e8e"/></linearGradient><path clip-path="url(#SVGID_12_)" fill="url(#SVGID_14_)" d="M335.8-39 435.5 565.8l-485.2 80L-149.5 41z"/></g></g><g clip-path="url(#SVGID_3_)"><defs><path id="SVGID_137_" d="M14.6 182.9 1.8 189.5 349.5 413 350.2 398.7z"/></defs><clipPath id="SVGID_15_"><use xlink:href="#SVGID_137_" overflow="visible"/></clipPath><linearGradient id="SVGID_17_" gradientUnits="userSpaceOnUse" x1="4443.2798" y1="644.8305" x2="4444.7524" y2="644.8305" gradientTransform="matrix(68.5131 415.5348 415.5348 -68.5131 -572226.5625 -1802056.125)"><stop offset="0" style="stop-color:#00adee"/><stop offset=".4959" style="stop-color:#2b2a68"/><stop offset=".9947" style="stop-color:#ab2e8e"/><stop offset="1" style="stop-color:#ab2e8e"/></linearGradient><path clip-path="url(#SVGID_15_)" fill="url(#SVGID_17_)" d="M301.1 82.6 364.2 465.6 55.5 516.5-7.7 133.6z"/></g><g clip-path="url(#SVGID_3_)"><defs><path id="SVGID_140_" d="M41 169.4 28.2 176 350.9 383.4 351.6 369z"/></defs><clipPath id="SVGID_19_"><use xlink:href="#SVGID_140_" overflow="visible"/></clipPath><linearGradient id="SVGID_20_" gradientUnits="userSpaceOnUse" x1="4443.2798" y1="644.8714" x2="4444.7524" y2="644.8714" gradientTransform="matrix(68.5131 415.5348 415.5348 -68.5131 -572226.5625 -1802056.125)"><stop offset="0" style="stop-color:#00adee"/><stop offset=".4959" style="stop-color:#2b2a68"/><stop offset=".9947" style="stop-color:#ab2e8e"/><stop offset="1" style="stop-color:#ab2e8e"/></linearGradient><path clip-path="url(#SVGID_19_)" fill="url(#SVGID_20_)" d="M306.4 76.5 365 432.1 78 479.5 19.3 123.8z"/></g><g clip-path="url(#SVGID_3_)"><defs><path id="SVGID_143_" d="M67.3 155.8 54.5 162.4 352.3 353.8 353 339.4z"/></defs><clipPath id="SVGID_22_"><use xlink:href="#SVGID_143_" overflow="visible"/></clipPath><linearGradient id="SVGID_23_" gradientUnits="userSpaceOnUse" x1="4443.2798" y1="644.9123" x2="4444.7524" y2="644.9123" gradientTransform="matrix(68.5131 415.5348 415.5348 -68.5131 -572226.5625 -1802056.125)"><stop offset="0" style="stop-color:#00adee"/><stop offset=".4959" style="stop-color:#2b2a68"/><stop offset=".9947" style="stop-color:#ab2e8e"/><stop offset="1" style="stop-color:#ab2e8e"/></linearGradient><path clip-path="url(#SVGID_22_)" fill="url(#SVGID_23_)" d="M311.7 70.3 365.8 398.7 100.5 442.4 46.3 114.1z"/></g><g clip-path="url(#SVGID_3_)"><defs><path id="SVGID_146_" d="M93.7 142.2 80.9 148.8 353.7 324.2 354.4 309.8z"/></defs><clipPath id="SVGID_25_"><use xlink:href="#SVGID_146_" overflow="visible"/></clipPath><linearGradient id="SVGID_26_" gradientUnits="userSpaceOnUse" x1="4443.2798" y1="644.9531" x2="4444.7524" y2="644.9531" gradientTransform="matrix(68.5131 415.5348 415.5348 -68.5131 -572226.5625 -1802056.125)"><stop offset="0" style="stop-color:#00adee"/><stop offset=".4959" style="stop-color:#2b2a68"/><stop offset=".9947" style="stop-color:#ab2e8e"/><stop offset="1" style="stop-color:#ab2e8e"/></linearGradient><path clip-path="url(#SVGID_25_)" fill="url(#SVGID_26_)" d="M316.9 64.2 366.6 365.2 122.9 405.4 73.3 104.3z"/></g><g clip-path="url(#SVGID_3_)"><defs><path id="SVGID_149_" d="M120 128.6 107.2 135.2 355.1 294.6 355.8 280.2z"/></defs><clipPath id="SVGID_28_"><use xlink:href="#SVGID_149_" overflow="visible"/></clipPath><linearGradient id="SVGID_29_" gradientUnits="userSpaceOnUse" x1="4443.2798" y1="644.994" x2="4444.7524" y2="644.994" gradientTransform="matrix(68.5131 415.5348 415.5348 -68.5131 -572226.5625 -1802056.125)"><stop offset="0" style="stop-color:#00adee"/><stop offset=".4959" style="stop-color:#2b2a68"/><stop offset=".9947" style="stop-color:#ab2e8e"/><stop offset="1" style="stop-color:#ab2e8e"/></linearGradient><path clip-path="url(#SVGID_28_)" fill="url(#SVGID_29_)" d="M322.2 58 367.4 331.8 145.4 368.4 100.3 94.6z"/></g><g clip-path="url(#SVGID_3_)"><defs><path id="SVGID_152_" d="M146.4 115.1 133.6 121.6 356.5 265 357.2 250.6z"/></defs><clipPath id="SVGID_31_"><use xlink:href="#SVGID_152_" overflow="visible"/></clipPath><linearGradient id="SVGID_32_" gradientUnits="userSpaceOnUse" x1="4443.2798" y1="645.0349" x2="4444.7524" y2="645.0349" gradientTransform="matrix(68.5131 415.5348 415.5348 -68.5131 -572226.5625 -1802056.125)"><stop offset="0" style="stop-color:#00adee"/><stop offset=".4959" style="stop-color:#2b2a68"/><stop offset=".9947" style="stop-color:#ab2e8e"/><stop offset="1" style="stop-color:#ab2e8e"/></linearGradient><path clip-path="url(#SVGID_31_)" fill="url(#SVGID_32_)" d="M327.5 51.8 368.2 298.3 167.9 331.3 127.3 84.9z"/></g><g clip-path="url(#SVGID_3_)"><defs><path id="SVGID_155_" d="M172.7 101.5 160 108.1 358 235.4 358.6 221z"/></defs><clipPath id="SVGID_34_"><use xlink:href="#SVGID_155_" overflow="visible"/></clipPath><linearGradient id="SVGID_35_" gradientUnits="userSpaceOnUse" x1="4443.2798" y1="645.0757" x2="4444.7524" y2="645.0757" gradientTransform="matrix(68.5131 415.5348 415.5348 -68.5131 -572226.5625 -1802056.125)"><stop offset="0" style="stop-color:#00adee"/><stop offset=".4959" style="stop-color:#2b2a68"/><stop offset=".9947" style="stop-color:#ab2e8e"/><stop offset="1" style="stop-color:#ab2e8e"/></linearGradient><path clip-path="url(#SVGID_34_)" fill="url(#SVGID_35_)" d="M332.8 45.7 368.9 264.9 190.4 294.3 154.3 75.1z"/></g><g clip-path="url(#SVGID_3_)"><defs><path id="SVGID_158_" d="M199.1 87.9 186.3 94.5 359.4 205.8 360.1 191.4z"/></defs><clipPath id="SVGID_37_"><use xlink:href="#SVGID_158_" overflow="visible"/></clipPath><linearGradient id="SVGID_38_" gradientUnits="userSpaceOnUse" x1="4443.2798" y1="645.1166" x2="4444.7524" y2="645.1166" gradientTransform="matrix(68.5131 415.5348 415.5348 -68.5131 -572226.5625 -1802056.125)"><stop offset="0" style="stop-color:#00adee"/><stop offset=".4959" style="stop-color:#2b2a68"/><stop offset=".9947" style="stop-color:#ab2e8e"/><stop offset="1" style="stop-color:#ab2e8e"/></linearGradient><path clip-path="url(#SVGID_37_)" fill="url(#SVGID_38_)" d="M338.1 39.5 369.7 231.4 212.9 257.3 181.2 65.4z"/></g><g clip-path="url(#SVGID_3_)"><defs><path id="SVGID_161_" d="M225.4 74.3 212.7 80.9 360.8 176.1 361.5 161.8z"/></defs><clipPath id="SVGID_40_"><use xlink:href="#SVGID_161_" overflow="visible"/></clipPath><linearGradient id="SVGID_41_" gradientUnits="userSpaceOnUse" x1="4443.2798" y1="645.1575" x2="4444.7524" y2="645.1575" gradientTransform="matrix(68.5131 415.5348 415.5348 -68.5131 -572226.5625 -1802056.125)"><stop offset="0" style="stop-color:#00adee"/><stop offset=".4959" style="stop-color:#2b2a68"/><stop offset=".9947" style="stop-color:#ab2e8e"/><stop offset="1" style="stop-color:#ab2e8e"/></linearGradient><path clip-path="url(#SVGID_40_)" fill="url(#SVGID_41_)" d="M343.4 33.4 370.5 198 235.4 220.3 208.2 55.6z"/></g><g clip-path="url(#SVGID_3_)"><defs><path id="SVGID_164_" d="M251.8 60.7 239 67.3 362.2 146.5 362.9 132.2z"/></defs><clipPath id="SVGID_43_"><use xlink:href="#SVGID_164_" overflow="visible"/></clipPath><linearGradient id="SVGID_44_" gradientUnits="userSpaceOnUse" x1="4443.2798" y1="645.1984" x2="4444.7524" y2="645.1984" gradientTransform="matrix(68.5131 415.5348 415.5348 -68.5131 -572226.5625 -1802056.125)"><stop offset="0" style="stop-color:#00adee"/><stop offset=".4959" style="stop-color:#2b2a68"/><stop offset=".9947" style="stop-color:#ab2e8e"/><stop offset="1" style="stop-color:#ab2e8e"/></linearGradient><path clip-path="url(#SVGID_43_)" fill="url(#SVGID_44_)" d="M348.6 27.2 371.3 164.5 257.9 183.2 235.2 45.9z"/></g><g clip-path="url(#SVGID_3_)"><defs><path id="SVGID_167_" d="M278.2 47.2 265.4 53.7 363.6 116.9 364.3 102.5z"/></defs><clipPath id="SVGID_46_"><use xlink:href="#SVGID_167_" overflow="visible"/></clipPath><linearGradient id="SVGID_47_" gradientUnits="userSpaceOnUse" x1="4443.2798" y1="645.2393" x2="4444.7524" y2="645.2393" gradientTransform="matrix(68.5131 415.5348 415.5348 -68.5131 -572226.5625 -1802056.125)"><stop offset="0" style="stop-color:#00adee"/><stop offset=".4959" style="stop-color:#2b2a68"/><stop offset=".9947" style="stop-color:#ab2e8e"/><stop offset="1" style="stop-color:#ab2e8e"/></linearGradient><path clip-path="url(#SVGID_46_)" fill="url(#SVGID_47_)" d="M353.9 21 372.1 131.1 280.3 146.2 262.2 36.2z"/></g><g clip-path="url(#SVGID_3_)"><defs><path id="SVGID_170_" d="M304.5 33.6 291.7 40.2 365 87.3 365.7 72.9z"/></defs><clipPath id="SVGID_49_"><use xlink:href="#SVGID_170_" overflow="visible"/></clipPath><linearGradient id="SVGID_50_" gradientUnits="userSpaceOnUse" x1="4443.2798" y1="645.2801" x2="4444.7524" y2="645.2801" gradientTransform="matrix(68.5131 415.5348 415.5348 -68.5131 -572226.5625 -1802056.125)"><stop offset="0" style="stop-color:#00adee"/><stop offset=".4959" style="stop-color:#2b2a68"/><stop offset=".9947" style="stop-color:#ab2e8e"/><stop offset="1" style="stop-color:#ab2e8e"/></linearGradient><path clip-path="url(#SVGID_49_)" fill="url(#SVGID_50_)" d="M359.2 14.9 372.8 97.6 302.8 109.2 289.2 26.4z"/></g><g clip-path="url(#SVGID_3_)"><defs><path id="SVGID_173_" d="M330.9 20 318.1 26.6 366.5 57.7 367.1 43.3z"/></defs><clipPath id="SVGID_52_"><use xlink:href="#SVGID_173_" overflow="visible"/></clipPath><linearGradient id="SVGID_53_" gradientUnits="userSpaceOnUse" x1="4443.2798" y1="645.321" x2="4444.7524" y2="645.321" gradientTransform="matrix(68.5131 415.5348 415.5348 -68.5131 -572226.5625 -1802056.125)"><stop offset="0" style="stop-color:#00adee"/><stop offset=".4959" style="stop-color:#2b2a68"/><stop offset=".9947" style="stop-color:#ab2e8e"/><stop offset="1" style="stop-color:#ab2e8e"/></linearGradient><path clip-path="url(#SVGID_52_)" fill="url(#SVGID_53_)" d="M364.5 8.7 373.6 64.2 325.3 72.1 316.2 16.7z"/></g><g clip-path="url(#SVGID_3_)"><defs><path id="SVGID_176_" d="M357.2 6.4 344.4 13 367.9 28.1 368.6 13.7z"/></defs><clipPath id="SVGID_55_"><use xlink:href="#SVGID_176_" overflow="visible"/></clipPath><linearGradient id="SVGID_56_" gradientUnits="userSpaceOnUse" x1="4443.2798" y1="645.3618" x2="4444.7524" y2="645.3618" gradientTransform="matrix(68.5131 415.5348 415.5348 -68.5131 -572226.5625 -1802056.125)"><stop offset="0" style="stop-color:#00adee"/><stop offset=".4959" style="stop-color:#2b2a68"/><stop offset=".9947" style="stop-color:#ab2e8e"/><stop offset="1" style="stop-color:#ab2e8e"/></linearGradient><path clip-path="url(#SVGID_55_)" fill="url(#SVGID_56_)" d="M369.8 2.5 374.4 30.7 347.8 35.1 343.2 6.9z"/></g></g></g></g></g></g><g id="modules" display="none"/><g id="grid" display="none"/></svg>