<svg xmlns="http://www.w3.org/2000/svg" xmlns:xlink="http://www.w3.org/1999/xlink" viewBox="0 0 481 429" enable-background="new 0 0 481 429"><g id="layout"><g><defs><path id="SVGID_63_" transform="matrix(0.914 -0.4058 0.4058 0.914 -103.7323 99.5296)" d="M-40.1 48.2h445.8v492.4H-40.1z"/></defs><clipPath id="SVGID_1_"><use xlink:href="#SVGID_63_" overflow="visible"/></clipPath><g clip-path="url(#SVGID_1_)"><defs><path id="SVGID_65_" transform="matrix(0.914 -0.4058 0.4058 0.914 -103.7323 99.5296)" d="M-40.1 48.2h445.8v492.4H-40.1z"/></defs><clipPath id="SVGID_2_"><use xlink:href="#SVGID_65_" overflow="visible"/></clipPath><g opacity=".1" clip-path="url(#SVGID_2_)"><g><defs><path id="SVGID_67_" transform="matrix(0.914 -0.4058 0.4058 0.914 -101.7445 148.7003)" d="M-41.7-16.5h683.1V645H-41.7z"/></defs><clipPath id="SVGID_3_"><use xlink:href="#SVGID_67_" overflow="visible"/></clipPath><g clip-path="url(#SVGID_3_)"><defs><path id="SVGID_69_" d="M486.4 428.8 251.3-5.4-7.1 415.3-6.6 415.5 486.3 429z"/></defs><clipPath id="SVGID_4_"><use xlink:href="#SVGID_69_" overflow="visible"/></clipPath><g clip-path="url(#SVGID_4_)"><defs><path id="SVGID_71_" transform="matrix(0.5234 -0.8521 0.8521 0.5234 -84.3756 155.77)" d="M-285.2 145.9h764.5v14.7H-285.2z"/></defs><clipPath id="SVGID_6_"><use xlink:href="#SVGID_71_" overflow="visible"/></clipPath><linearGradient id="SVGID_8_" gradientUnits="userSpaceOnUse" x1="3701.3193" y1="110.3473" x2="3703.0591" y2="110.3473" gradientTransform="matrix(-414.0378 77.0449 77.0449 414.0378 1524333.875 -330749.4688)"><stop offset="0" style="stop-color:#00adee"/><stop offset=".4959" style="stop-color:#2b2a68"/><stop offset=".9947" style="stop-color:#ab2e8e"/><stop offset="1" style="stop-color:#ab2e8e"/></linearGradient><path clip-path="url(#SVGID_6_)" fill="url(#SVGID_8_)" d="M506.2 372.7-205.8 505.1-312.1-66l712-132.5z"/></g></g><g clip-path="url(#SVGID_3_)"><defs><path id="SVGID_74_" d="M486.4 428.8 251.3-5.4-7.1 415.3-6.6 415.5 486.3 429z"/></defs><clipPath id="SVGID_10_"><use xlink:href="#SVGID_74_" overflow="visible"/></clipPath><g clip-path="url(#SVGID_10_)"><defs><path id="SVGID_76_" transform="matrix(0.5234 -0.8521 0.8521 0.5234 -85.5839 185.3582)" d="M-259.4 161.8h764.5v14.7H-259.4z"/></defs><clipPath id="SVGID_12_"><use xlink:href="#SVGID_76_" overflow="visible"/></clipPath><linearGradient id="SVGID_14_" gradientUnits="userSpaceOnUse" x1="3701.3193" y1="110.3955" x2="3703.0591" y2="110.3955" gradientTransform="matrix(-414.0378 77.0449 77.0449 414.0378 1524333.875 -330749.4688)"><stop offset="0" style="stop-color:#00adee"/><stop offset=".4959" style="stop-color:#2b2a68"/><stop offset=".9947" style="stop-color:#ab2e8e"/><stop offset="1" style="stop-color:#ab2e8e"/></linearGradient><path clip-path="url(#SVGID_12_)" fill="url(#SVGID_14_)" d="M532 388.5-179.9 521-286.2-50.2 425.7-182.6z"/></g></g><g clip-path="url(#SVGID_3_)"><defs><path id="SVGID_79_" d="M262.1 14.6 254-.3-1.6 415.7 15.4 416.1z"/></defs><clipPath id="SVGID_15_"><use xlink:href="#SVGID_79_" overflow="visible"/></clipPath><linearGradient id="SVGID_17_" gradientUnits="userSpaceOnUse" x1="3701.3193" y1="110.4949" x2="3703.0591" y2="110.4949" gradientTransform="matrix(-414.0378 77.0449 77.0449 414.0378 1524333.875 -330749.4688)"><stop offset="0" style="stop-color:#00adee"/><stop offset=".4959" style="stop-color:#2b2a68"/><stop offset=".9947" style="stop-color:#ab2e8e"/><stop offset="1" style="stop-color:#ab2e8e"/></linearGradient><path clip-path="url(#SVGID_15_)" fill="url(#SVGID_17_)" d="M387.5 350.5-63.3 434.4-130.9 71 319.9-12.9z"/></g><g clip-path="url(#SVGID_3_)"><defs><path id="SVGID_82_" d="M278.8 45.4 270.7 30.5 33.5 416.6l16.9.5z"/></defs><clipPath id="SVGID_19_"><use xlink:href="#SVGID_82_" overflow="visible"/></clipPath><linearGradient id="SVGID_20_" gradientUnits="userSpaceOnUse" x1="3701.3193" y1="110.5432" x2="3703.0591" y2="110.5432" gradientTransform="matrix(-414.0378 77.0449 77.0449 414.0378 1524333.875 -330749.4688)"><stop offset="0" style="stop-color:#00adee"/><stop offset=".4959" style="stop-color:#2b2a68"/><stop offset=".9947" style="stop-color:#ab2e8e"/><stop offset="1" style="stop-color:#ab2e8e"/></linearGradient><path clip-path="url(#SVGID_19_)" fill="url(#SVGID_20_)" d="M394.9 356.6-23.7 434.5-86.6 96.6 332 18.7z"/></g><g clip-path="url(#SVGID_3_)"><defs><path id="SVGID_85_" d="M295.4 76.2 287.3 61.2 68.5 417.6l17 .5z"/></defs><clipPath id="SVGID_22_"><use xlink:href="#SVGID_85_" overflow="visible"/></clipPath><linearGradient id="SVGID_23_" gradientUnits="userSpaceOnUse" x1="3701.3193" y1="110.5915" x2="3703.0591" y2="110.5915" gradientTransform="matrix(-414.0378 77.0449 77.0449 414.0378 1524333.875 -330749.4688)"><stop offset="0" style="stop-color:#00adee"/><stop offset=".4959" style="stop-color:#2b2a68"/><stop offset=".9947" style="stop-color:#ab2e8e"/><stop offset="1" style="stop-color:#ab2e8e"/></linearGradient><path clip-path="url(#SVGID_22_)" fill="url(#SVGID_23_)" d="M402.3 362.7 15.8 434.6-42.3 122.3 344.2 50.4z"/></g><g clip-path="url(#SVGID_3_)"><defs><path id="SVGID_88_" d="M312.1 107 304 92 103.5 418.5l17 .5z"/></defs><clipPath id="SVGID_25_"><use xlink:href="#SVGID_88_" overflow="visible"/></clipPath><linearGradient id="SVGID_26_" gradientUnits="userSpaceOnUse" x1="3701.3193" y1="110.6398" x2="3703.0591" y2="110.6398" gradientTransform="matrix(-414.0378 77.0449 77.0449 414.0378 1524333.875 -330749.4688)"><stop offset="0" style="stop-color:#00adee"/><stop offset=".4959" style="stop-color:#2b2a68"/><stop offset=".9947" style="stop-color:#ab2e8e"/><stop offset="1" style="stop-color:#ab2e8e"/></linearGradient><path clip-path="url(#SVGID_25_)" fill="url(#SVGID_26_)" d="M409.7 368.8 55.3 434.7 2 147.9 356.4 82z"/></g><g clip-path="url(#SVGID_3_)"><defs><path id="SVGID_91_" d="M328.8 137.8 320.7 122.8 138.5 419.5l17 .5z"/></defs><clipPath id="SVGID_28_"><use xlink:href="#SVGID_91_" overflow="visible"/></clipPath><linearGradient id="SVGID_29_" gradientUnits="userSpaceOnUse" x1="3701.3193" y1="110.6881" x2="3703.0591" y2="110.6881" gradientTransform="matrix(-414.0378 77.0449 77.0449 414.0378 1524333.875 -330749.4688)"><stop offset="0" style="stop-color:#00adee"/><stop offset=".4959" style="stop-color:#2b2a68"/><stop offset=".9947" style="stop-color:#ab2e8e"/><stop offset="1" style="stop-color:#ab2e8e"/></linearGradient><path clip-path="url(#SVGID_28_)" fill="url(#SVGID_29_)" d="M417.1 374.9 94.9 434.9 46.2 173.6l322.3-60z"/></g><g clip-path="url(#SVGID_3_)"><defs><path id="SVGID_94_" d="M345.5 168.6 337.4 153.6 173.5 420.4l17 .5z"/></defs><clipPath id="SVGID_31_"><use xlink:href="#SVGID_94_" overflow="visible"/></clipPath><linearGradient id="SVGID_32_" gradientUnits="userSpaceOnUse" x1="3701.3193" y1="110.7363" x2="3703.0591" y2="110.7363" gradientTransform="matrix(-414.0378 77.0449 77.0449 414.0378 1524333.875 -330749.4688)"><stop offset="0" style="stop-color:#00adee"/><stop offset=".4959" style="stop-color:#2b2a68"/><stop offset=".9947" style="stop-color:#ab2e8e"/><stop offset="1" style="stop-color:#ab2e8e"/></linearGradient><path clip-path="url(#SVGID_31_)" fill="url(#SVGID_32_)" d="M424.5 381 134.4 435 90.5 199.3l290.2-54z"/></g><g clip-path="url(#SVGID_3_)"><defs><path id="SVGID_97_" d="M362.2 199.4 354.1 184.4 208.5 421.4l17 .5z"/></defs><clipPath id="SVGID_34_"><use xlink:href="#SVGID_97_" overflow="visible"/></clipPath><linearGradient id="SVGID_35_" gradientUnits="userSpaceOnUse" x1="3701.3193" y1="110.7846" x2="3703.0591" y2="110.7846" gradientTransform="matrix(-414.0378 77.0449 77.0449 414.0378 1524333.875 -330749.4688)"><stop offset="0" style="stop-color:#00adee"/><stop offset=".4959" style="stop-color:#2b2a68"/><stop offset=".9947" style="stop-color:#ab2e8e"/><stop offset="1" style="stop-color:#ab2e8e"/></linearGradient><path clip-path="url(#SVGID_34_)" fill="url(#SVGID_35_)" d="M431.9 387.1l-258 48L134.8 224.9l258-48z"/></g><g clip-path="url(#SVGID_3_)"><defs><path id="SVGID_100_" d="M378.8 230.2 370.7 215.2 243.5 422.4 260.5 422.8z"/></defs><clipPath id="SVGID_37_"><use xlink:href="#SVGID_100_" overflow="visible"/></clipPath><linearGradient id="SVGID_38_" gradientUnits="userSpaceOnUse" x1="3701.3193" y1="110.8329" x2="3703.0591" y2="110.8329" gradientTransform="matrix(-414.0378 77.0449 77.0449 414.0378 1524333.875 -330749.4688)"><stop offset="0" style="stop-color:#00adee"/><stop offset=".4959" style="stop-color:#2b2a68"/><stop offset=".9947" style="stop-color:#ab2e8e"/><stop offset="1" style="stop-color:#ab2e8e"/></linearGradient><path clip-path="url(#SVGID_37_)" fill="url(#SVGID_38_)" d="M439.3 393.2l-225.9 42L179.1 250.6 405 208.5z"/></g><g clip-path="url(#SVGID_3_)"><defs><path id="SVGID_103_" d="M395.5 261 387.4 246 278.5 423.3l17 .5z"/></defs><clipPath id="SVGID_40_"><use xlink:href="#SVGID_103_" overflow="visible"/></clipPath><linearGradient id="SVGID_41_" gradientUnits="userSpaceOnUse" x1="3701.3193" y1="110.8812" x2="3703.0591" y2="110.8812" gradientTransform="matrix(-414.0378 77.0449 77.0449 414.0378 1524333.875 -330749.4688)"><stop offset="0" style="stop-color:#00adee"/><stop offset=".4959" style="stop-color:#2b2a68"/><stop offset=".9947" style="stop-color:#ab2e8e"/><stop offset="1" style="stop-color:#ab2e8e"/></linearGradient><path clip-path="url(#SVGID_40_)" fill="url(#SVGID_41_)" d="M446.8 399.2 253 435.3 223.4 276.2 417.2 240.2z"/></g><g clip-path="url(#SVGID_3_)"><defs><path id="SVGID_106_" d="M412.2 291.8 404.1 276.8 313.5 424.3 330.5 424.7z"/></defs><clipPath id="SVGID_43_"><use xlink:href="#SVGID_106_" overflow="visible"/></clipPath><linearGradient id="SVGID_44_" gradientUnits="userSpaceOnUse" x1="3701.3193" y1="110.9295" x2="3703.0591" y2="110.9295" gradientTransform="matrix(-414.0378 77.0449 77.0449 414.0378 1524333.875 -330749.4688)"><stop offset="0" style="stop-color:#00adee"/><stop offset=".4959" style="stop-color:#2b2a68"/><stop offset=".9947" style="stop-color:#ab2e8e"/><stop offset="1" style="stop-color:#ab2e8e"/></linearGradient><path clip-path="url(#SVGID_43_)" fill="url(#SVGID_44_)" d="M454.2 405.3 292.5 435.4 267.7 301.9 429.3 271.8z"/></g><g clip-path="url(#SVGID_3_)"><defs><path id="SVGID_109_" d="M428.9 322.6 420.8 307.6 348.5 425.2l17 .5z"/></defs><clipPath id="SVGID_46_"><use xlink:href="#SVGID_109_" overflow="visible"/></clipPath><linearGradient id="SVGID_47_" gradientUnits="userSpaceOnUse" x1="3701.3193" y1="110.9778" x2="3703.0591" y2="110.9778" gradientTransform="matrix(-414.0378 77.0449 77.0449 414.0378 1524333.875 -330749.4688)"><stop offset="0" style="stop-color:#00adee"/><stop offset=".4959" style="stop-color:#2b2a68"/><stop offset=".9947" style="stop-color:#ab2e8e"/><stop offset="1" style="stop-color:#ab2e8e"/></linearGradient><path clip-path="url(#SVGID_46_)" fill="url(#SVGID_47_)" d="M461.6 411.4 332 435.5 311.9 327.5 441.5 303.4z"/></g><g clip-path="url(#SVGID_3_)"><defs><path id="SVGID_112_" d="M445.6 353.4 437.5 338.4 383.6 426.2 400.5 426.6z"/></defs><clipPath id="SVGID_49_"><use xlink:href="#SVGID_112_" overflow="visible"/></clipPath><linearGradient id="SVGID_50_" gradientUnits="userSpaceOnUse" x1="3701.3193" y1="111.026" x2="3703.0591" y2="111.026" gradientTransform="matrix(-414.0378 77.0449 77.0449 414.0378 1524333.875 -330749.4688)"><stop offset="0" style="stop-color:#00adee"/><stop offset=".4959" style="stop-color:#2b2a68"/><stop offset=".9947" style="stop-color:#ab2e8e"/><stop offset="1" style="stop-color:#ab2e8e"/></linearGradient><path clip-path="url(#SVGID_49_)" fill="url(#SVGID_50_)" d="M469 417.5 371.6 435.6 356.2 353.2 453.6 335.1z"/></g><g clip-path="url(#SVGID_3_)"><defs><path id="SVGID_115_" d="M462.2 384.2 454.1 369.2 418.6 427.1l17 .5z"/></defs><clipPath id="SVGID_52_"><use xlink:href="#SVGID_115_" overflow="visible"/></clipPath><linearGradient id="SVGID_53_" gradientUnits="userSpaceOnUse" x1="3701.3193" y1="111.0743" x2="3703.0591" y2="111.0743" gradientTransform="matrix(-414.0378 77.0449 77.0449 414.0378 1524333.875 -330749.4688)"><stop offset="0" style="stop-color:#00adee"/><stop offset=".4959" style="stop-color:#2b2a68"/><stop offset=".9947" style="stop-color:#ab2e8e"/><stop offset="1" style="stop-color:#ab2e8e"/></linearGradient><path clip-path="url(#SVGID_52_)" fill="url(#SVGID_53_)" d="M476.4 423.6 411.1 435.8 400.5 378.9 465.8 366.7z"/></g><g clip-path="url(#SVGID_3_)"><defs><path id="SVGID_118_" d="M478.9 414.9 470.8 4e2 453.6 428.1 470.6 428.5z"/></defs><clipPath id="SVGID_55_"><use xlink:href="#SVGID_118_" overflow="visible"/></clipPath><linearGradient id="SVGID_56_" gradientUnits="userSpaceOnUse" x1="3701.3193" y1="111.1226" x2="3703.0591" y2="111.1226" gradientTransform="matrix(-414.0378 77.0449 77.0449 414.0378 1524333.875 -330749.4688)"><stop offset="0" style="stop-color:#00adee"/><stop offset=".4959" style="stop-color:#2b2a68"/><stop offset=".9947" style="stop-color:#ab2e8e"/><stop offset="1" style="stop-color:#ab2e8e"/></linearGradient><path clip-path="url(#SVGID_55_)" fill="url(#SVGID_56_)" d="M483.8 429.7 450.6 435.9 444.8 404.5 478 398.4z"/></g></g></g></g></g></g><g id="modules" display="none"/><g id="grid" display="none"/></svg>