<svg xmlns="http://www.w3.org/2000/svg" xmlns:xlink="http://www.w3.org/1999/xlink" viewBox="0 0 313 323" enable-background="new 0 0 313 323" class="mdl-js"><g id="layout"><g><defs><path id="SVGID_876_" transform="matrix(0.7945 -0.6073 0.6073 0.7945 -41.5351 85.8202)" d="M-61.4-46.6h334.8v301.7H-61.4z"/></defs><clipPath id="SVGID_1_"><use xlink:href="#SVGID_876_" overflow="visible"/></clipPath><g clip-path="url(#SVGID_1_)"><defs><path id="SVGID_878_" transform="matrix(0.7945 -0.6073 0.6073 0.7945 -41.5351 85.8202)" d="M-61.4-46.6h334.8v301.7H-61.4z"/></defs><clipPath id="SVGID_2_"><use xlink:href="#SVGID_878_" overflow="visible"/></clipPath><g clip-path="url(#SVGID_2_)"><g><defs><path id="SVGID_880_" transform="matrix(0.7945 -0.6073 0.6073 0.7945 -46.4833 81.942)" d="M-95.6-55h386.9v329.2H-95.6z"/></defs><clipPath id="SVGID_3_"><use xlink:href="#SVGID_880_" overflow="visible"/></clipPath><g clip-path="url(#SVGID_3_)"><defs><path id="SVGID_882_" d="M-1.7-3.1 64.6 325.8 316.2 104 316 103.7-1.6-3.2z"/></defs><clipPath id="SVGID_4_"><use xlink:href="#SVGID_882_" overflow="visible"/></clipPath><g clip-path="url(#SVGID_4_)"><defs><path id="SVGID_884_" transform="matrix(0.7502 -0.6613 0.6613 0.7502 -111.6774 180.3144)" d="M-77 232.9h519.5v10H-77z"/></defs><clipPath id="SVGID_6_"><use xlink:href="#SVGID_884_" overflow="visible"/></clipPath><linearGradient id="SVGID_8_" gradientUnits="userSpaceOnUse" x1="4147.8984" y1="258.7577" x2="4149.6157" y2="258.7577" gradientTransform="matrix(288.086 32.8408 32.8408 -288.086 -1203424.75 -61455.7969)"><stop offset="0" style="stop-color:#00adee"/><stop offset=".4959" style="stop-color:#2b2a68"/><stop offset=".9947" style="stop-color:#ab2e8e"/><stop offset="1" style="stop-color:#ab2e8e"/></linearGradient><path clip-path="url(#SVGID_6_)" fill="url(#SVGID_8_)" d="M3.4 19.7 406.7 65.6 362.2 456.2l-403.4-46z"/></g></g><g clip-path="url(#SVGID_3_)"><defs><path id="SVGID_887_" d="M61.6 310.6 63.9 322 312.7 102.6 301.8 98.9z"/></defs><clipPath id="SVGID_10_"><use xlink:href="#SVGID_887_" overflow="visible"/></clipPath><linearGradient id="SVGID_12_" gradientUnits="userSpaceOnUse" x1="4147.8984" y1="258.8596" x2="4149.6157" y2="258.8596" gradientTransform="matrix(288.086 32.8408 32.8408 -288.086 -1203424.75 -61455.7969)"><stop offset="0" style="stop-color:#00adee"/><stop offset=".4959" style="stop-color:#2b2a68"/><stop offset=".9947" style="stop-color:#ab2e8e"/><stop offset="1" style="stop-color:#ab2e8e"/></linearGradient><path clip-path="url(#SVGID_10_)" fill="url(#SVGID_12_)" d="M70 68 329.4 97.6 300.8 349 41.3 319.4z"/></g><g clip-path="url(#SVGID_3_)"><defs><path id="SVGID_890_" d="M56.9 287.3 59.2 298.6 290.2 95 279.2 91.3z"/></defs><clipPath id="SVGID_14_"><use xlink:href="#SVGID_890_" overflow="visible"/></clipPath><linearGradient id="SVGID_15_" gradientUnits="userSpaceOnUse" x1="4147.8984" y1="258.9073" x2="4149.6157" y2="258.9073" gradientTransform="matrix(288.086 32.8408 32.8408 -288.086 -1203424.75 -61455.7969)"><stop offset="0" style="stop-color:#00adee"/><stop offset=".4959" style="stop-color:#2b2a68"/><stop offset=".9947" style="stop-color:#ab2e8e"/><stop offset="1" style="stop-color:#ab2e8e"/></linearGradient><path clip-path="url(#SVGID_14_)" fill="url(#SVGID_15_)" d="M64.4 62.3 305.8 89.8 279.1 323.7 37.8 296.2z"/></g><g clip-path="url(#SVGID_3_)"><defs><path id="SVGID_893_" d="M52.2 264 54.5 275.3 267.6 87.4 256.7 83.7z"/></defs><clipPath id="SVGID_17_"><use xlink:href="#SVGID_893_" overflow="visible"/></clipPath><linearGradient id="SVGID_19_" gradientUnits="userSpaceOnUse" x1="4147.8984" y1="258.955" x2="4149.6157" y2="258.955" gradientTransform="matrix(288.086 32.8408 32.8408 -288.086 -1203424.75 -61455.7969)"><stop offset="0" style="stop-color:#00adee"/><stop offset=".4959" style="stop-color:#2b2a68"/><stop offset=".9947" style="stop-color:#ab2e8e"/><stop offset="1" style="stop-color:#ab2e8e"/></linearGradient><path clip-path="url(#SVGID_17_)" fill="url(#SVGID_19_)" d="M58.9 56.7 282.1 82.1 257.4 298.4 34.2 273z"/></g><g clip-path="url(#SVGID_3_)"><defs><path id="SVGID_896_" d="M47.5 240.7 49.7 252 245.1 79.8 234.1 76.1z"/></defs><clipPath id="SVGID_20_"><use xlink:href="#SVGID_896_" overflow="visible"/></clipPath><linearGradient id="SVGID_22_" gradientUnits="userSpaceOnUse" x1="4147.8984" y1="259.0026" x2="4149.6157" y2="259.0026" gradientTransform="matrix(288.086 32.8408 32.8408 -288.086 -1203424.75 -61455.7969)"><stop offset="0" style="stop-color:#00adee"/><stop offset=".4959" style="stop-color:#2b2a68"/><stop offset=".9947" style="stop-color:#ab2e8e"/><stop offset="1" style="stop-color:#ab2e8e"/></linearGradient><path clip-path="url(#SVGID_20_)" fill="url(#SVGID_22_)" d="M53.3 51 258.4 74.4 235.7 273.2 30.6 249.8z"/></g><g clip-path="url(#SVGID_3_)"><defs><path id="SVGID_899_" d="M42.8 217.3 45 228.7 222.5 72.2 211.6 68.5z"/></defs><clipPath id="SVGID_23_"><use xlink:href="#SVGID_899_" overflow="visible"/></clipPath><linearGradient id="SVGID_25_" gradientUnits="userSpaceOnUse" x1="4147.8984" y1="259.0503" x2="4149.6157" y2="259.0503" gradientTransform="matrix(288.086 32.8408 32.8408 -288.086 -1203424.75 -61455.7969)"><stop offset="0" style="stop-color:#00adee"/><stop offset=".4959" style="stop-color:#2b2a68"/><stop offset=".9947" style="stop-color:#ab2e8e"/><stop offset="1" style="stop-color:#ab2e8e"/></linearGradient><path clip-path="url(#SVGID_23_)" fill="url(#SVGID_25_)" d="M47.7 45.4 234.7 66.7 214 247.9 27.1 226.6z"/></g><g clip-path="url(#SVGID_3_)"><defs><path id="SVGID_902_" d="M38.1 194 40.3 205.3 2e2 64.6 189 60.9z"/></defs><clipPath id="SVGID_26_"><use xlink:href="#SVGID_902_" overflow="visible"/></clipPath><linearGradient id="SVGID_28_" gradientUnits="userSpaceOnUse" x1="4147.8984" y1="259.0979" x2="4149.6157" y2="259.0979" gradientTransform="matrix(288.086 32.8408 32.8408 -288.086 -1203424.75 -61455.7969)"><stop offset="0" style="stop-color:#00adee"/><stop offset=".4959" style="stop-color:#2b2a68"/><stop offset=".9947" style="stop-color:#ab2e8e"/><stop offset="1" style="stop-color:#ab2e8e"/></linearGradient><path clip-path="url(#SVGID_26_)" fill="url(#SVGID_28_)" d="M42.2 39.7 211 58.9 192.3 222.6 23.5 203.4z"/></g><g clip-path="url(#SVGID_3_)"><defs><path id="SVGID_905_" d="M33.4 170.7 35.6 182 177.4 57 166.5 53.4z"/></defs><clipPath id="SVGID_29_"><use xlink:href="#SVGID_905_" overflow="visible"/></clipPath><linearGradient id="SVGID_31_" gradientUnits="userSpaceOnUse" x1="4147.8984" y1="259.1456" x2="4149.6157" y2="259.1456" gradientTransform="matrix(288.086 32.8408 32.8408 -288.086 -1203424.75 -61455.7969)"><stop offset="0" style="stop-color:#00adee"/><stop offset=".4959" style="stop-color:#2b2a68"/><stop offset=".9947" style="stop-color:#ab2e8e"/><stop offset="1" style="stop-color:#ab2e8e"/></linearGradient><path clip-path="url(#SVGID_29_)" fill="url(#SVGID_31_)" d="M36.6 34 187.3 51.2 170.6 197.4 20 180.2z"/></g><g clip-path="url(#SVGID_3_)"><defs><path id="SVGID_908_" d="M28.7 147.3 30.9 158.7 154.8 49.4 143.9 45.8z"/></defs><clipPath id="SVGID_32_"><use xlink:href="#SVGID_908_" overflow="visible"/></clipPath><linearGradient id="SVGID_34_" gradientUnits="userSpaceOnUse" x1="4147.8984" y1="259.1932" x2="4149.6157" y2="259.1932" gradientTransform="matrix(288.086 32.8408 32.8408 -288.086 -1203424.75 -61455.7969)"><stop offset="0" style="stop-color:#00adee"/><stop offset=".4959" style="stop-color:#2b2a68"/><stop offset=".9947" style="stop-color:#ab2e8e"/><stop offset="1" style="stop-color:#ab2e8e"/></linearGradient><path clip-path="url(#SVGID_32_)" fill="url(#SVGID_34_)" d="M31.1 28.4 163.6 43.5 148.9 172.1 16.4 157z"/></g><g clip-path="url(#SVGID_3_)"><defs><path id="SVGID_911_" d="M24 124 26.2 135.3 132.3 41.9 121.3 38.2z"/></defs><clipPath id="SVGID_35_"><use xlink:href="#SVGID_911_" overflow="visible"/></clipPath><linearGradient id="SVGID_37_" gradientUnits="userSpaceOnUse" x1="4147.8984" y1="259.2409" x2="4149.6157" y2="259.2409" gradientTransform="matrix(288.086 32.8408 32.8408 -288.086 -1203424.75 -61455.7969)"><stop offset="0" style="stop-color:#00adee"/><stop offset=".4959" style="stop-color:#2b2a68"/><stop offset=".9947" style="stop-color:#ab2e8e"/><stop offset="1" style="stop-color:#ab2e8e"/></linearGradient><path clip-path="url(#SVGID_35_)" fill="url(#SVGID_37_)" d="M25.5 22.7 139.9 35.8 127.2 146.9 12.8 133.8z"/></g><g clip-path="url(#SVGID_3_)"><defs><path id="SVGID_914_" d="M19.3 100.7 21.5 112l88.2-77.7L98.8 30.6z"/></defs><clipPath id="SVGID_38_"><use xlink:href="#SVGID_914_" overflow="visible"/></clipPath><linearGradient id="SVGID_40_" gradientUnits="userSpaceOnUse" x1="4147.8984" y1="259.2885" x2="4149.6157" y2="259.2885" gradientTransform="matrix(288.086 32.8408 32.8408 -288.086 -1203424.75 -61455.7969)"><stop offset="0" style="stop-color:#00adee"/><stop offset=".4959" style="stop-color:#2b2a68"/><stop offset=".9947" style="stop-color:#ab2e8e"/><stop offset="1" style="stop-color:#ab2e8e"/></linearGradient><path clip-path="url(#SVGID_38_)" fill="url(#SVGID_40_)" d="M19.9 17.1 116.2 28.1 105.5 121.6l-96.2-11z"/></g><g clip-path="url(#SVGID_3_)"><defs><path id="SVGID_917_" d="M14.5 77.4 16.8 88.7l70.4-62L76.2 23z"/></defs><clipPath id="SVGID_41_"><use xlink:href="#SVGID_917_" overflow="visible"/></clipPath><linearGradient id="SVGID_43_" gradientUnits="userSpaceOnUse" x1="4147.8984" y1="259.3362" x2="4149.6157" y2="259.3362" gradientTransform="matrix(288.086 32.8408 32.8408 -288.086 -1203424.75 -61455.7969)"><stop offset="0" style="stop-color:#00adee"/><stop offset=".4959" style="stop-color:#2b2a68"/><stop offset=".9947" style="stop-color:#ab2e8e"/><stop offset="1" style="stop-color:#ab2e8e"/></linearGradient><path clip-path="url(#SVGID_41_)" fill="url(#SVGID_43_)" d="M14.4 11.4l78.1 8.9L83.8 96.3 5.7 87.4z"/></g><g clip-path="url(#SVGID_3_)"><defs><path id="SVGID_920_" d="M9.8 54 12.1 65.4 64.6 19.1 53.7 15.4z"/></defs><clipPath id="SVGID_44_"><use xlink:href="#SVGID_920_" overflow="visible"/></clipPath><linearGradient id="SVGID_46_" gradientUnits="userSpaceOnUse" x1="4147.8984" y1="259.3838" x2="4149.6157" y2="259.3838" gradientTransform="matrix(288.086 32.8408 32.8408 -288.086 -1203424.75 -61455.7969)"><stop offset="0" style="stop-color:#00adee"/><stop offset=".4959" style="stop-color:#2b2a68"/><stop offset=".9947" style="stop-color:#ab2e8e"/><stop offset="1" style="stop-color:#ab2e8e"/></linearGradient><path clip-path="url(#SVGID_44_)" fill="url(#SVGID_46_)" d="M8.8 5.8l60 6.8L62.1 71.1 2.2 64.2z"/></g><g clip-path="url(#SVGID_3_)"><defs><path id="SVGID_923_" d="M5.1 30.7 7.4 42 42.1 11.5l-11-3.7z"/></defs><clipPath id="SVGID_47_"><use xlink:href="#SVGID_923_" overflow="visible"/></clipPath><linearGradient id="SVGID_49_" gradientUnits="userSpaceOnUse" x1="4147.8984" y1="259.4315" x2="4149.6157" y2="259.4315" gradientTransform="matrix(288.086 32.8408 32.8408 -288.086 -1203424.75 -61455.7969)"><stop offset="0" style="stop-color:#00adee"/><stop offset=".4959" style="stop-color:#2b2a68"/><stop offset=".9947" style="stop-color:#ab2e8e"/><stop offset="1" style="stop-color:#ab2e8e"/></linearGradient><path clip-path="url(#SVGID_47_)" fill="url(#SVGID_49_)" d="M3.3.1 45.1 4.9 40.4 45.8-1.4 41z"/></g><g clip-path="url(#SVGID_3_)"><defs><path id="SVGID_926_" d="M.4 7.4 2.7 18.7 19.5 3.9 8.6.2z"/></defs><clipPath id="SVGID_50_"><use xlink:href="#SVGID_926_" overflow="visible"/></clipPath><linearGradient id="SVGID_52_" gradientUnits="userSpaceOnUse" x1="4147.8984" y1="259.4791" x2="4149.6157" y2="259.4791" gradientTransform="matrix(288.086 32.8408 32.8408 -288.086 -1203424.75 -61455.7969)"><stop offset="0" style="stop-color:#00adee"/><stop offset=".4959" style="stop-color:#2b2a68"/><stop offset=".9947" style="stop-color:#ab2e8e"/><stop offset="1" style="stop-color:#ab2e8e"/></linearGradient><path clip-path="url(#SVGID_50_)" fill="url(#SVGID_52_)" d="M-2.3-5.5 21.4-2.8 18.7 20.5-4.9 17.8z"/></g></g></g></g></g></g><g id="modules" display="none"/><g id="grid" display="none"/></svg>