<svg xmlns="http://www.w3.org/2000/svg" xmlns:xlink="http://www.w3.org/1999/xlink" viewBox="0 0 288 305" enable-background="new 0 0 288 305"><g id="layout"><g><defs><path id="SVGID_5_" transform="matrix(0.9359 -0.3524 0.3524 0.9359 154.706 53.0772)" d="M-27.4-625.3h501.1v453.6H-27.4z"/></defs><clipPath id="SVGID_1_"><use xlink:href="#SVGID_5_" overflow="visible"/></clipPath><g clip-path="url(#SVGID_1_)"><defs><path id="SVGID_7_" transform="matrix(0.9359 -0.3524 0.3524 0.9359 154.706 53.0772)" d="M-27.4-625.3h501.1v453.6H-27.4z"/></defs><clipPath id="SVGID_2_"><use xlink:href="#SVGID_7_" overflow="visible"/></clipPath><g opacity=".1" clip-path="url(#SVGID_2_)"><g><defs><path id="SVGID_9_" transform="matrix(0.9359 -0.3524 0.3524 0.9359 197.8914 55.0758)" d="M-86.3-863.6h673.1v695H-86.3z"/></defs><clipPath id="SVGID_3_"><use xlink:href="#SVGID_9_" overflow="visible"/></clipPath><g clip-path="url(#SVGID_3_)"><defs><path id="SVGID_11_" d="M377.6-698.9-77.3-485.5 334.8-198.4 335.1-198.8 377.7-698.8z"/></defs><clipPath id="SVGID_4_"><use xlink:href="#SVGID_11_" overflow="visible"/></clipPath><g clip-path="url(#SVGID_4_)"><defs><path id="SVGID_13_" transform="matrix(0.5717 -0.8205 0.8205 0.5717 294.2414 -75.5061)" d="M67.3-708.5h15v777.9h-15z"/></defs><clipPath id="SVGID_6_"><use xlink:href="#SVGID_13_" overflow="visible"/></clipPath><linearGradient id="SVGID_8_" gradientUnits="userSpaceOnUse" x1="3380.8628" y1="1177.2318" x2="3382.6328" y2="1177.2318" gradientTransform="matrix(53.0118 417.7953 417.7953 -53.0118 -671025.75 -1350680.25)"><stop offset="0" style="stop-color:#00adee"/><stop offset=".4959" style="stop-color:#2b2a68"/><stop offset=".9947" style="stop-color:#ab2e8e"/><stop offset="1" style="stop-color:#ab2e8e"/></linearGradient><path clip-path="url(#SVGID_6_)" fill="url(#SVGID_8_)" d="M321.7-722.3 414.4 8.7-172.1 83.1-264.8-647.9z"/></g></g><g clip-path="url(#SVGID_3_)"><defs><path id="SVGID_16_" d="M377.6-698.9-77.3-485.5 334.8-198.4 335.1-198.8 377.7-698.8z"/></defs><clipPath id="SVGID_10_"><use xlink:href="#SVGID_16_" overflow="visible"/></clipPath><g clip-path="url(#SVGID_10_)"><defs><path id="SVGID_18_" transform="matrix(0.5717 -0.8205 0.8205 0.5717 322.5731 -71.8751)" d="M85-733.9h15V44H85z"/></defs><clipPath id="SVGID_12_"><use xlink:href="#SVGID_18_" overflow="visible"/></clipPath><linearGradient id="SVGID_14_" gradientUnits="userSpaceOnUse" x1="3380.8628" y1="1177.281" x2="3382.6328" y2="1177.281" gradientTransform="matrix(53.0118 417.7953 417.7953 -53.0118 -671025.75 -1350680.25)"><stop offset="0" style="stop-color:#00adee"/><stop offset=".4959" style="stop-color:#2b2a68"/><stop offset=".9947" style="stop-color:#ab2e8e"/><stop offset="1" style="stop-color:#ab2e8e"/></linearGradient><path clip-path="url(#SVGID_12_)" fill="url(#SVGID_14_)" d="M339.3-747.6 432.1-16.6-154.4 57.8-247.2-673.2z"/></g></g></g></g></g></g><g><defs><path id="SVGID_183_" transform="matrix(0.9528 -0.3037 0.3037 0.9528 -33.0111 37.824)" d="M-49.9-14.6h310v279.3h-310z"/></defs><clipPath id="SVGID_15_"><use xlink:href="#SVGID_183_" overflow="visible"/></clipPath><g clip-path="url(#SVGID_15_)"><defs><path id="SVGID_185_" transform="matrix(0.9528 -0.3037 0.3037 0.9528 -33.0111 37.824)" d="M-49.9-14.6h310v279.3h-310z"/></defs><clipPath id="SVGID_17_"><use xlink:href="#SVGID_185_" overflow="visible"/></clipPath><g clip-path="url(#SVGID_17_)"><g><defs><path id="SVGID_187_" transform="matrix(0.9528 -0.3037 0.3037 0.9528 -34.0711 35.2435)" d="M-82.8-25.2h358.2v304.8H-82.8z"/></defs><clipPath id="SVGID_19_"><use xlink:href="#SVGID_187_" overflow="visible"/></clipPath><g clip-path="url(#SVGID_19_)"><defs><path id="SVGID_189_" d="M44.8-2.2-.2 305.2 288.4 190.5 288.3 190.2 44.9-2.2z"/></defs><clipPath id="SVGID_20_"><use xlink:href="#SVGID_189_" overflow="visible"/></clipPath><g clip-path="url(#SVGID_20_)"><defs><path id="SVGID_191_" transform="matrix(0.9293 -0.3694 0.3694 0.9293 -88.8714 66.8927)" d="M-110.2 260.9h481v9.3h-481z"/></defs><clipPath id="SVGID_22_"><use xlink:href="#SVGID_191_" overflow="visible"/></clipPath><linearGradient id="SVGID_23_" gradientUnits="userSpaceOnUse" x1="3347.0034" y1="1168.4617" x2="3348.593" y2="1168.4617" gradientTransform="matrix(260.1103 128.1198 128.1198 -260.1103 -1020295.1875 -124688.0469)"><stop offset="0" style="stop-color:#00adee"/><stop offset=".4959" style="stop-color:#2b2a68"/><stop offset=".9947" style="stop-color:#ab2e8e"/><stop offset="1" style="stop-color:#ab2e8e"/></linearGradient><path clip-path="url(#SVGID_22_)" fill="url(#SVGID_23_)" d="M42.1 19.3l337.2 166L218.4 511.8l-337.1-166z"/></g></g><g clip-path="url(#SVGID_19_)"><defs><path id="SVGID_194_" d="M1.9 291 .4 301.6 285.8 188.2 277.4 181.5z"/></defs><clipPath id="SVGID_25_"><use xlink:href="#SVGID_194_" overflow="visible"/></clipPath><linearGradient id="SVGID_26_" gradientUnits="userSpaceOnUse" x1="3347.0034" y1="1168.556" x2="3348.593" y2="1168.556" gradientTransform="matrix(260.1103 128.1198 128.1198 -260.1103 -1020295.1875 -124688.0469)"><stop offset="0" style="stop-color:#00adee"/><stop offset=".4959" style="stop-color:#2b2a68"/><stop offset=".9947" style="stop-color:#ab2e8e"/><stop offset="1" style="stop-color:#ab2e8e"/></linearGradient><path clip-path="url(#SVGID_25_)" fill="url(#SVGID_26_)" d="M85 82.2 301.9 189 198.4 399.2-18.5 292.3z"/></g><g clip-path="url(#SVGID_19_)"><defs><path id="SVGID_197_" d="M5.1 269.2 3.6 279.8 268.5 174.5 260.1 167.9z"/></defs><clipPath id="SVGID_28_"><use xlink:href="#SVGID_197_" overflow="visible"/></clipPath><linearGradient id="SVGID_29_" gradientUnits="userSpaceOnUse" x1="3347.0034" y1="1168.6002" x2="3348.593" y2="1168.6002" gradientTransform="matrix(260.1103 128.1198 128.1198 -260.1103 -1020295.1875 -124688.0469)"><stop offset="0" style="stop-color:#00adee"/><stop offset=".4959" style="stop-color:#2b2a68"/><stop offset=".9947" style="stop-color:#ab2e8e"/><stop offset="1" style="stop-color:#ab2e8e"/></linearGradient><path clip-path="url(#SVGID_28_)" fill="url(#SVGID_29_)" d="M82 75.5l201.7 99.4L187.4 370.4-14.3 271z"/></g><g clip-path="url(#SVGID_19_)"><defs><path id="SVGID_200_" d="M8.3 247.4 6.7 258 251.2 160.8 242.8 154.2z"/></defs><clipPath id="SVGID_31_"><use xlink:href="#SVGID_200_" overflow="visible"/></clipPath><linearGradient id="SVGID_32_" gradientUnits="userSpaceOnUse" x1="3347.0034" y1="1168.6443" x2="3348.593" y2="1168.6443" gradientTransform="matrix(260.1103 128.1198 128.1198 -260.1103 -1020295.1875 -124688.0469)"><stop offset="0" style="stop-color:#00adee"/><stop offset=".4959" style="stop-color:#2b2a68"/><stop offset=".9947" style="stop-color:#ab2e8e"/><stop offset="1" style="stop-color:#ab2e8e"/></linearGradient><path clip-path="url(#SVGID_31_)" fill="url(#SVGID_32_)" d="M78.9 68.8 265.5 160.7 176.4 341.6-10.2 249.7z"/></g><g clip-path="url(#SVGID_19_)"><defs><path id="SVGID_203_" d="M11.5 225.6 9.9 236.2l224-89L225.6 140.5z"/></defs><clipPath id="SVGID_34_"><use xlink:href="#SVGID_203_" overflow="visible"/></clipPath><linearGradient id="SVGID_35_" gradientUnits="userSpaceOnUse" x1="3347.0034" y1="1168.6885" x2="3348.593" y2="1168.6885" gradientTransform="matrix(260.1103 128.1198 128.1198 -260.1103 -1020295.1875 -124688.0469)"><stop offset="0" style="stop-color:#00adee"/><stop offset=".4959" style="stop-color:#2b2a68"/><stop offset=".9947" style="stop-color:#ab2e8e"/><stop offset="1" style="stop-color:#ab2e8e"/></linearGradient><path clip-path="url(#SVGID_34_)" fill="url(#SVGID_35_)" d="M75.8 62.2 247.2 146.6 165.4 312.8-6 228.4z"/></g><g clip-path="url(#SVGID_19_)"><defs><path id="SVGID_206_" d="M14.7 203.8 13.1 214.4l203.6-80.9L208.3 126.9z"/></defs><clipPath id="SVGID_37_"><use xlink:href="#SVGID_206_" overflow="visible"/></clipPath><linearGradient id="SVGID_38_" gradientUnits="userSpaceOnUse" x1="3347.0034" y1="1168.7325" x2="3348.593" y2="1168.7325" gradientTransform="matrix(260.1103 128.1198 128.1198 -260.1103 -1020295.1875 -124688.0469)"><stop offset="0" style="stop-color:#00adee"/><stop offset=".4959" style="stop-color:#2b2a68"/><stop offset=".9947" style="stop-color:#ab2e8e"/><stop offset="1" style="stop-color:#ab2e8e"/></linearGradient><path clip-path="url(#SVGID_37_)" fill="url(#SVGID_38_)" d="M72.7 55.5l156.3 77L154.4 284-1.9 207z"/></g><g clip-path="url(#SVGID_19_)"><defs><path id="SVGID_209_" d="M17.9 182 16.3 192.6 199.4 119.9 191 113.2z"/></defs><clipPath id="SVGID_40_"><use xlink:href="#SVGID_209_" overflow="visible"/></clipPath><linearGradient id="SVGID_41_" gradientUnits="userSpaceOnUse" x1="3347.0034" y1="1168.7767" x2="3348.593" y2="1168.7767" gradientTransform="matrix(260.1103 128.1198 128.1198 -260.1103 -1020295.1875 -124688.0469)"><stop offset="0" style="stop-color:#00adee"/><stop offset=".4959" style="stop-color:#2b2a68"/><stop offset=".9947" style="stop-color:#ab2e8e"/><stop offset="1" style="stop-color:#ab2e8e"/></linearGradient><path clip-path="url(#SVGID_40_)" fill="url(#SVGID_41_)" d="M69.7 48.8l141 69.5L143.3 255.2 2.3 185.7z"/></g><g clip-path="url(#SVGID_19_)"><defs><path id="SVGID_212_" d="M21 160.2 19.5 170.8 182.1 106.2 173.7 99.6z"/></defs><clipPath id="SVGID_43_"><use xlink:href="#SVGID_212_" overflow="visible"/></clipPath><linearGradient id="SVGID_44_" gradientUnits="userSpaceOnUse" x1="3347.0034" y1="1168.8208" x2="3348.593" y2="1168.8208" gradientTransform="matrix(260.1103 128.1198 128.1198 -260.1103 -1020295.1875 -124688.0469)"><stop offset="0" style="stop-color:#00adee"/><stop offset=".4959" style="stop-color:#2b2a68"/><stop offset=".9947" style="stop-color:#ab2e8e"/><stop offset="1" style="stop-color:#ab2e8e"/></linearGradient><path clip-path="url(#SVGID_43_)" fill="url(#SVGID_44_)" d="M66.6 42.2l125.9 62L132.3 226.4 6.4 164.4z"/></g><g clip-path="url(#SVGID_19_)"><defs><path id="SVGID_215_" d="M24.2 138.4 22.7 149 164.8 92.5 156.4 85.9z"/></defs><clipPath id="SVGID_46_"><use xlink:href="#SVGID_215_" overflow="visible"/></clipPath><linearGradient id="SVGID_47_" gradientUnits="userSpaceOnUse" x1="3347.0034" y1="1168.8649" x2="3348.593" y2="1168.8649" gradientTransform="matrix(260.1103 128.1198 128.1198 -260.1103 -1020295.1875 -124688.0469)"><stop offset="0" style="stop-color:#00adee"/><stop offset=".4959" style="stop-color:#2b2a68"/><stop offset=".9947" style="stop-color:#ab2e8e"/><stop offset="1" style="stop-color:#ab2e8e"/></linearGradient><path clip-path="url(#SVGID_46_)" fill="url(#SVGID_47_)" d="M63.5 35.5 174.3 90.1 121.3 197.6 10.5 143z"/></g><g clip-path="url(#SVGID_19_)"><defs><path id="SVGID_218_" d="M27.4 116.6 25.9 127.2 147.5 78.9 139.1 72.2z"/></defs><clipPath id="SVGID_49_"><use xlink:href="#SVGID_218_" overflow="visible"/></clipPath><linearGradient id="SVGID_50_" gradientUnits="userSpaceOnUse" x1="3347.0034" y1="1168.9091" x2="3348.593" y2="1168.9091" gradientTransform="matrix(260.1103 128.1198 128.1198 -260.1103 -1020295.1875 -124688.0469)"><stop offset="0" style="stop-color:#00adee"/><stop offset=".4959" style="stop-color:#2b2a68"/><stop offset=".9947" style="stop-color:#ab2e8e"/><stop offset="1" style="stop-color:#ab2e8e"/></linearGradient><path clip-path="url(#SVGID_49_)" fill="url(#SVGID_50_)" d="M60.4 28.8 156 75.9l-45.7 92.9L14.7 121.7z"/></g><g clip-path="url(#SVGID_19_)"><defs><path id="SVGID_221_" d="M30.6 94.8 29.1 105.4 130.2 65.2 121.8 58.6z"/></defs><clipPath id="SVGID_52_"><use xlink:href="#SVGID_221_" overflow="visible"/></clipPath><linearGradient id="SVGID_53_" gradientUnits="userSpaceOnUse" x1="3347.0034" y1="1168.9531" x2="3348.593" y2="1168.9531" gradientTransform="matrix(260.1103 128.1198 128.1198 -260.1103 -1020295.1875 -124688.0469)"><stop offset="0" style="stop-color:#00adee"/><stop offset=".4959" style="stop-color:#2b2a68"/><stop offset=".9947" style="stop-color:#ab2e8e"/><stop offset="1" style="stop-color:#ab2e8e"/></linearGradient><path clip-path="url(#SVGID_52_)" fill="url(#SVGID_53_)" d="M57.3 22.2 137.8 61.8 99.3 140 18.8 100.4z"/></g><g clip-path="url(#SVGID_19_)"><defs><path id="SVGID_224_" d="M33.8 73 32.3 83.6 112.9 51.5 104.6 44.9z"/></defs><clipPath id="SVGID_55_"><use xlink:href="#SVGID_224_" overflow="visible"/></clipPath><linearGradient id="SVGID_56_" gradientUnits="userSpaceOnUse" x1="3347.0034" y1="1168.9973" x2="3348.593" y2="1168.9973" gradientTransform="matrix(260.1103 128.1198 128.1198 -260.1103 -1020295.1875 -124688.0469)"><stop offset="0" style="stop-color:#00adee"/><stop offset=".4959" style="stop-color:#2b2a68"/><stop offset=".9947" style="stop-color:#ab2e8e"/><stop offset="1" style="stop-color:#ab2e8e"/></linearGradient><path clip-path="url(#SVGID_55_)" fill="url(#SVGID_56_)" d="M54.3 15.5l65.2 32.2L88.2 111.2 23 79z"/></g><g clip-path="url(#SVGID_19_)"><defs><path id="SVGID_227_" d="M37 51.2 35.4 61.8 95.7 37.9 87.3 31.2z"/></defs><clipPath id="SVGID_58_"><use xlink:href="#SVGID_227_" overflow="visible"/></clipPath><linearGradient id="SVGID_59_" gradientUnits="userSpaceOnUse" x1="3347.0034" y1="1169.0414" x2="3348.593" y2="1169.0414" gradientTransform="matrix(260.1103 128.1198 128.1198 -260.1103 -1020295.1875 -124688.0469)"><stop offset="0" style="stop-color:#00adee"/><stop offset=".4959" style="stop-color:#2b2a68"/><stop offset=".9947" style="stop-color:#ab2e8e"/><stop offset="1" style="stop-color:#ab2e8e"/></linearGradient><path clip-path="url(#SVGID_58_)" fill="url(#SVGID_59_)" d="M51.2 8.9 101.3 33.5 77.2 82.4 27.1 57.7z"/></g><g clip-path="url(#SVGID_19_)"><defs><path id="SVGID_230_" d="M40.2 29.4 38.6 40 78.4 24.2 70 17.6z"/></defs><clipPath id="SVGID_61_"><use xlink:href="#SVGID_230_" overflow="visible"/></clipPath><linearGradient id="SVGID_62_" gradientUnits="userSpaceOnUse" x1="3347.0034" y1="1169.0856" x2="3348.593" y2="1169.0856" gradientTransform="matrix(260.1103 128.1198 128.1198 -260.1103 -1020295.1875 -124688.0469)"><stop offset="0" style="stop-color:#00adee"/><stop offset=".4959" style="stop-color:#2b2a68"/><stop offset=".9947" style="stop-color:#ab2e8e"/><stop offset="1" style="stop-color:#ab2e8e"/></linearGradient><path clip-path="url(#SVGID_61_)" fill="url(#SVGID_62_)" d="M48.1 2.2 83.1 19.4 66.2 53.6 31.3 36.4z"/></g><g clip-path="url(#SVGID_19_)"><defs><path id="SVGID_233_" d="M43.4 7.6 41.8 18.2 61.1 10.6 52.7 3.9z"/></defs><clipPath id="SVGID_64_"><use xlink:href="#SVGID_233_" overflow="visible"/></clipPath><linearGradient id="SVGID_66_" gradientUnits="userSpaceOnUse" x1="3347.0034" y1="1169.1296" x2="3348.593" y2="1169.1296" gradientTransform="matrix(260.1103 128.1198 128.1198 -260.1103 -1020295.1875 -124688.0469)"><stop offset="0" style="stop-color:#00adee"/><stop offset=".4959" style="stop-color:#2b2a68"/><stop offset=".9947" style="stop-color:#ab2e8e"/><stop offset="1" style="stop-color:#ab2e8e"/></linearGradient><path clip-path="url(#SVGID_64_)" fill="url(#SVGID_66_)" d="M45-4.5 64.8 5.3 55.2 24.8 35.4 15.1z"/></g></g></g></g></g></g><g id="modules" display="none"/><g id="grid" display="none"/></svg>