<svg xmlns="http://www.w3.org/2000/svg" xmlns:xlink="http://www.w3.org/1999/xlink" viewBox="0 0 455 502" enable-background="new 0 0 455 502"><g id="layout"><g><defs><path id="SVGID_5_" transform="matrix(0.9359 -0.3524 0.3524 0.9359 -87.1311 124.3967)" d="M47.6 74.7h501.1v453.6H47.6z"/></defs><clipPath id="SVGID_1_"><use xlink:href="#SVGID_5_" overflow="visible"/></clipPath><g clip-path="url(#SVGID_1_)"><defs><path id="SVGID_7_" transform="matrix(0.9359 -0.3524 0.3524 0.9359 -87.1311 124.3967)" d="M47.6 74.7h501.1v453.6H47.6z"/></defs><clipPath id="SVGID_2_"><use xlink:href="#SVGID_7_" overflow="visible"/></clipPath><g opacity=".1" clip-path="url(#SVGID_2_)"><g><defs><path id="SVGID_9_" transform="matrix(0.9359 -0.3524 0.3524 0.9359 -43.9458 126.3953)" d="M-11.3-163.6h673.1v695H-11.3z"/></defs><clipPath id="SVGID_3_"><use xlink:href="#SVGID_9_" overflow="visible"/></clipPath><g clip-path="url(#SVGID_3_)"><defs><path id="SVGID_11_" d="M452.6 1.1-2.3 214.5 409.8 501.6 410.1 501.2 452.7 1.2z"/></defs><clipPath id="SVGID_4_"><use xlink:href="#SVGID_11_" overflow="visible"/></clipPath><g clip-path="url(#SVGID_4_)"><defs><path id="SVGID_13_" transform="matrix(0.5717 -0.8205 0.8205 0.5717 -247.961 285.8405)" d="M142.3-8.5h15v777.9h-15z"/></defs><clipPath id="SVGID_6_"><use xlink:href="#SVGID_13_" overflow="visible"/></clipPath><linearGradient id="SVGID_8_" gradientUnits="userSpaceOnUse" x1="3455.8628" y1="1877.2318" x2="3457.6328" y2="1877.2318" gradientTransform="matrix(53.0118 417.7953 417.7953 -53.0118 -967383.375 -1344206.625)"><stop offset="0" style="stop-color:#00adee"/><stop offset=".4959" style="stop-color:#2b2a68"/><stop offset=".9947" style="stop-color:#ab2e8e"/><stop offset="1" style="stop-color:#ab2e8e"/></linearGradient><path clip-path="url(#SVGID_6_)" fill="url(#SVGID_8_)" d="M396.7-22.3 489.4 708.7-97.1 783.1-189.8 52.1z"/></g></g><g clip-path="url(#SVGID_3_)"><defs><path id="SVGID_16_" d="M452.6 1.1-2.3 214.5 409.8 501.6 410.1 501.2 452.7 1.2z"/></defs><clipPath id="SVGID_10_"><use xlink:href="#SVGID_16_" overflow="visible"/></clipPath><g clip-path="url(#SVGID_10_)"><defs><path id="SVGID_18_" transform="matrix(0.5717 -0.8205 0.8205 0.5717 -219.6293 289.4715)" d="M160-33.9h15V744H160z"/></defs><clipPath id="SVGID_12_"><use xlink:href="#SVGID_18_" overflow="visible"/></clipPath><linearGradient id="SVGID_14_" gradientUnits="userSpaceOnUse" x1="3455.8628" y1="1877.281" x2="3457.6328" y2="1877.281" gradientTransform="matrix(53.0118 417.7953 417.7953 -53.0118 -967383.375 -1344206.625)"><stop offset="0" style="stop-color:#00adee"/><stop offset=".4959" style="stop-color:#2b2a68"/><stop offset=".9947" style="stop-color:#ab2e8e"/><stop offset="1" style="stop-color:#ab2e8e"/></linearGradient><path clip-path="url(#SVGID_12_)" fill="url(#SVGID_14_)" d="M414.3-47.6 507.1 683.4-79.4 757.8-172.2 26.8z"/></g></g><g clip-path="url(#SVGID_3_)"><defs><path id="SVGID_21_" d="M18.6 204.6 2.9 212 410.5 496 412 478.8z"/></defs><clipPath id="SVGID_15_"><use xlink:href="#SVGID_21_" overflow="visible"/></clipPath><linearGradient id="SVGID_17_" gradientUnits="userSpaceOnUse" x1="3455.8628" y1="1877.3821" x2="3457.6328" y2="1877.3821" gradientTransform="matrix(53.0118 417.7953 417.7953 -53.0118 -967383.375 -1344206.625)"><stop offset="0" style="stop-color:#00adee"/><stop offset=".4959" style="stop-color:#2b2a68"/><stop offset=".9947" style="stop-color:#ab2e8e"/><stop offset="1" style="stop-color:#ab2e8e"/></linearGradient><path clip-path="url(#SVGID_15_)" fill="url(#SVGID_17_)" d="M367.2 97 425.9 559.8 52.8 607.1-6 144.3z"/></g><g clip-path="url(#SVGID_3_)"><defs><path id="SVGID_24_" d="M50.9 189.5 35.2 196.8 413.6 460.5 415 443.3z"/></defs><clipPath id="SVGID_19_"><use xlink:href="#SVGID_24_" overflow="visible"/></clipPath><linearGradient id="SVGID_20_" gradientUnits="userSpaceOnUse" x1="3455.8628" y1="1877.4312" x2="3457.6328" y2="1877.4312" gradientTransform="matrix(53.0118 417.7953 417.7953 -53.0118 -967383.375 -1344206.625)"><stop offset="0" style="stop-color:#00adee"/><stop offset=".4959" style="stop-color:#2b2a68"/><stop offset=".9947" style="stop-color:#ab2e8e"/><stop offset="1" style="stop-color:#ab2e8e"/></linearGradient><path clip-path="url(#SVGID_19_)" fill="url(#SVGID_20_)" d="M373.8 89.8 428.4 519.6 81.4 563.7 26.9 133.8z"/></g><g clip-path="url(#SVGID_3_)"><defs><path id="SVGID_27_" d="M83.1 174.4 67.5 181.7 416.6 425 418.1 407.7z"/></defs><clipPath id="SVGID_22_"><use xlink:href="#SVGID_27_" overflow="visible"/></clipPath><linearGradient id="SVGID_23_" gradientUnits="userSpaceOnUse" x1="3455.8628" y1="1877.4803" x2="3457.6328" y2="1877.4803" gradientTransform="matrix(53.0118 417.7953 417.7953 -53.0118 -967383.375 -1344206.625)"><stop offset="0" style="stop-color:#00adee"/><stop offset=".4959" style="stop-color:#2b2a68"/><stop offset=".9947" style="stop-color:#ab2e8e"/><stop offset="1" style="stop-color:#ab2e8e"/></linearGradient><path clip-path="url(#SVGID_22_)" fill="url(#SVGID_23_)" d="M380.4 82.6 430.8 479.5 110.1 520.2 59.7 123.3z"/></g><g clip-path="url(#SVGID_3_)"><defs><path id="SVGID_30_" d="M115.4 159.2 99.7 166.6 419.6 389.5 421.1 372.2z"/></defs><clipPath id="SVGID_25_"><use xlink:href="#SVGID_30_" overflow="visible"/></clipPath><linearGradient id="SVGID_26_" gradientUnits="userSpaceOnUse" x1="3455.8628" y1="1877.5294" x2="3457.6328" y2="1877.5294" gradientTransform="matrix(53.0118 417.7953 417.7953 -53.0118 -967383.375 -1344206.625)"><stop offset="0" style="stop-color:#00adee"/><stop offset=".4959" style="stop-color:#2b2a68"/><stop offset=".9947" style="stop-color:#ab2e8e"/><stop offset="1" style="stop-color:#ab2e8e"/></linearGradient><path clip-path="url(#SVGID_25_)" fill="url(#SVGID_26_)" d="M387.1 75.5 433.2 439.3 138.8 476.7 92.6 112.8z"/></g><g clip-path="url(#SVGID_3_)"><defs><path id="SVGID_33_" d="M147.6 144.1 132 151.4 422.6 354 424.1 336.7z"/></defs><clipPath id="SVGID_28_"><use xlink:href="#SVGID_33_" overflow="visible"/></clipPath><linearGradient id="SVGID_29_" gradientUnits="userSpaceOnUse" x1="3455.8628" y1="1877.5786" x2="3457.6328" y2="1877.5786" gradientTransform="matrix(53.0118 417.7953 417.7953 -53.0118 -967383.375 -1344206.625)"><stop offset="0" style="stop-color:#00adee"/><stop offset=".4959" style="stop-color:#2b2a68"/><stop offset=".9947" style="stop-color:#ab2e8e"/><stop offset="1" style="stop-color:#ab2e8e"/></linearGradient><path clip-path="url(#SVGID_28_)" fill="url(#SVGID_29_)" d="M393.7 68.3l42 330.9L167.4 433.2l-42-330.9z"/></g><g clip-path="url(#SVGID_3_)"><defs><path id="SVGID_36_" d="M179.9 129 164.2 136.3 425.7 318.5 427.1 301.2z"/></defs><clipPath id="SVGID_31_"><use xlink:href="#SVGID_36_" overflow="visible"/></clipPath><linearGradient id="SVGID_32_" gradientUnits="userSpaceOnUse" x1="3455.8628" y1="1877.6277" x2="3457.6328" y2="1877.6277" gradientTransform="matrix(53.0118 417.7953 417.7953 -53.0118 -967383.375 -1344206.625)"><stop offset="0" style="stop-color:#00adee"/><stop offset=".4959" style="stop-color:#2b2a68"/><stop offset=".9947" style="stop-color:#ab2e8e"/><stop offset="1" style="stop-color:#ab2e8e"/></linearGradient><path clip-path="url(#SVGID_31_)" fill="url(#SVGID_32_)" d="M400.3 61.1 438.1 359 196.1 389.7 158.3 91.8z"/></g><g clip-path="url(#SVGID_3_)"><defs><path id="SVGID_39_" d="M212.2 113.8 196.5 121.2 428.7 283 430.2 265.7z"/></defs><clipPath id="SVGID_34_"><use xlink:href="#SVGID_39_" overflow="visible"/></clipPath><linearGradient id="SVGID_35_" gradientUnits="userSpaceOnUse" x1="3455.8628" y1="1877.6769" x2="3457.6328" y2="1877.6769" gradientTransform="matrix(53.0118 417.7953 417.7953 -53.0118 -967383.375 -1344206.625)"><stop offset="0" style="stop-color:#00adee"/><stop offset=".4959" style="stop-color:#2b2a68"/><stop offset=".9947" style="stop-color:#ab2e8e"/><stop offset="1" style="stop-color:#ab2e8e"/></linearGradient><path clip-path="url(#SVGID_34_)" fill="url(#SVGID_35_)" d="M406.9 54 440.5 318.9 224.8 346.3 191.1 81.3z"/></g><g clip-path="url(#SVGID_3_)"><defs><path id="SVGID_42_" d="M244.4 98.7 228.8 106 431.7 247.4 433.2 230.2z"/></defs><clipPath id="SVGID_37_"><use xlink:href="#SVGID_42_" overflow="visible"/></clipPath><linearGradient id="SVGID_38_" gradientUnits="userSpaceOnUse" x1="3455.8628" y1="1877.726" x2="3457.6328" y2="1877.726" gradientTransform="matrix(53.0118 417.7953 417.7953 -53.0118 -967383.375 -1344206.625)"><stop offset="0" style="stop-color:#00adee"/><stop offset=".4959" style="stop-color:#2b2a68"/><stop offset=".9947" style="stop-color:#ab2e8e"/><stop offset="1" style="stop-color:#ab2e8e"/></linearGradient><path clip-path="url(#SVGID_37_)" fill="url(#SVGID_38_)" d="M413.6 46.8 443 278.7 253.4 302.8 224 70.9z"/></g><g clip-path="url(#SVGID_3_)"><defs><path id="SVGID_45_" d="M276.7 83.6 261 90.9l173.7 121L436.2 194.7z"/></defs><clipPath id="SVGID_40_"><use xlink:href="#SVGID_45_" overflow="visible"/></clipPath><linearGradient id="SVGID_41_" gradientUnits="userSpaceOnUse" x1="3455.8628" y1="1877.7751" x2="3457.6328" y2="1877.7751" gradientTransform="matrix(53.0118 417.7953 417.7953 -53.0118 -967383.375 -1344206.625)"><stop offset="0" style="stop-color:#00adee"/><stop offset=".4959" style="stop-color:#2b2a68"/><stop offset=".9947" style="stop-color:#ab2e8e"/><stop offset="1" style="stop-color:#ab2e8e"/></linearGradient><path clip-path="url(#SVGID_40_)" fill="url(#SVGID_41_)" d="M420.2 39.6 445.4 238.6 282.1 259.3 256.8 60.4z"/></g><g clip-path="url(#SVGID_3_)"><defs><path id="SVGID_48_" d="M309 68.4 293.3 75.8 437.8 176.4 439.2 159.2z"/></defs><clipPath id="SVGID_43_"><use xlink:href="#SVGID_48_" overflow="visible"/></clipPath><linearGradient id="SVGID_44_" gradientUnits="userSpaceOnUse" x1="3455.8628" y1="1877.8242" x2="3457.6328" y2="1877.8242" gradientTransform="matrix(53.0118 417.7953 417.7953 -53.0118 -967383.375 -1344206.625)"><stop offset="0" style="stop-color:#00adee"/><stop offset=".4959" style="stop-color:#2b2a68"/><stop offset=".9947" style="stop-color:#ab2e8e"/><stop offset="1" style="stop-color:#ab2e8e"/></linearGradient><path clip-path="url(#SVGID_43_)" fill="url(#SVGID_44_)" d="M426.8 32.5 447.9 198.4 310.8 215.8 289.7 49.9z"/></g><g clip-path="url(#SVGID_3_)"><defs><path id="SVGID_51_" d="M341.2 53.3 325.6 60.6 440.8 140.9 442.3 123.7z"/></defs><clipPath id="SVGID_46_"><use xlink:href="#SVGID_51_" overflow="visible"/></clipPath><linearGradient id="SVGID_47_" gradientUnits="userSpaceOnUse" x1="3455.8628" y1="1877.8734" x2="3457.6328" y2="1877.8734" gradientTransform="matrix(53.0118 417.7953 417.7953 -53.0118 -967383.375 -1344206.625)"><stop offset="0" style="stop-color:#00adee"/><stop offset=".4959" style="stop-color:#2b2a68"/><stop offset=".9947" style="stop-color:#ab2e8e"/><stop offset="1" style="stop-color:#ab2e8e"/></linearGradient><path clip-path="url(#SVGID_46_)" fill="url(#SVGID_47_)" d="M433.4 25.3 450.3 158.3 339.4 172.4 322.5 39.4z"/></g><g clip-path="url(#SVGID_3_)"><defs><path id="SVGID_54_" d="M373.5 38.2 357.8 45.5 443.8 105.4 445.3 88.2z"/></defs><clipPath id="SVGID_49_"><use xlink:href="#SVGID_54_" overflow="visible"/></clipPath><linearGradient id="SVGID_50_" gradientUnits="userSpaceOnUse" x1="3455.8628" y1="1877.9225" x2="3457.6328" y2="1877.9225" gradientTransform="matrix(53.0118 417.7953 417.7953 -53.0118 -967383.375 -1344206.625)"><stop offset="0" style="stop-color:#00adee"/><stop offset=".4959" style="stop-color:#2b2a68"/><stop offset=".9947" style="stop-color:#ab2e8e"/><stop offset="1" style="stop-color:#ab2e8e"/></linearGradient><path clip-path="url(#SVGID_49_)" fill="url(#SVGID_50_)" d="M440 18.1 452.7 118.2 368.1 128.9 355.4 28.9z"/></g><g clip-path="url(#SVGID_3_)"><defs><path id="SVGID_57_" d="M405.7 23 390.1 30.4 446.8 69.9 448.3 52.7z"/></defs><clipPath id="SVGID_52_"><use xlink:href="#SVGID_57_" overflow="visible"/></clipPath><linearGradient id="SVGID_53_" gradientUnits="userSpaceOnUse" x1="3455.8628" y1="1877.9717" x2="3457.6328" y2="1877.9717" gradientTransform="matrix(53.0118 417.7953 417.7953 -53.0118 -967383.375 -1344206.625)"><stop offset="0" style="stop-color:#00adee"/><stop offset=".4959" style="stop-color:#2b2a68"/><stop offset=".9947" style="stop-color:#ab2e8e"/><stop offset="1" style="stop-color:#ab2e8e"/></linearGradient><path clip-path="url(#SVGID_52_)" fill="url(#SVGID_53_)" d="M446.7 11l8.5 67L396.8 85.4l-8.5-67z"/></g><g clip-path="url(#SVGID_3_)"><defs><path id="SVGID_60_" d="M438 7.9 422.4 15.2l27.5 19.2L451.3 17.2z"/></defs><clipPath id="SVGID_55_"><use xlink:href="#SVGID_60_" overflow="visible"/></clipPath><linearGradient id="SVGID_56_" gradientUnits="userSpaceOnUse" x1="3455.8628" y1="1878.0208" x2="3457.6328" y2="1878.0208" gradientTransform="matrix(53.0118 417.7953 417.7953 -53.0118 -967383.375 -1344206.625)"><stop offset="0" style="stop-color:#00adee"/><stop offset=".4959" style="stop-color:#2b2a68"/><stop offset=".9947" style="stop-color:#ab2e8e"/><stop offset="1" style="stop-color:#ab2e8e"/></linearGradient><path clip-path="url(#SVGID_55_)" fill="url(#SVGID_56_)" d="M453.3 3.8 457.6 37.9 425.4 41.9 421.1 7.9z"/></g></g></g></g></g></g><g id="modules" display="none"/><g id="grid" display="none"/></svg>