<svg xmlns="http://www.w3.org/2000/svg" xmlns:xlink="http://www.w3.org/1999/xlink" viewBox="0 0 368 407" enable-background="new 0 0 368 407"><g id="layout"><g><defs><path id="SVGID_121_" transform="matrix(0.9221 -0.3869 0.3869 0.9221 -76.1976 115.1942)" d="M39.6 58.2h416.8v377.4H39.6z"/></defs><clipPath id="SVGID_1_"><use xlink:href="#SVGID_121_" overflow="visible"/></clipPath><g clip-path="url(#SVGID_1_)"><defs><path id="SVGID_123_" transform="matrix(0.9221 -0.3869 0.3869 0.9221 -76.1976 115.1942)" d="M39.6 58.2h416.8v377.4H39.6z"/></defs><clipPath id="SVGID_2_"><use xlink:href="#SVGID_123_" overflow="visible"/></clipPath><g opacity=".1" clip-path="url(#SVGID_2_)"><g><defs><path id="SVGID_125_" transform="matrix(0.9221 -0.3869 0.3869 0.9221 -36.5671 114.8157)" d="M-13.1-140.9h560v578.2h-560z"/></defs><clipPath id="SVGID_3_"><use xlink:href="#SVGID_125_" overflow="visible"/></clipPath><g clip-path="url(#SVGID_3_)"><defs><path id="SVGID_127_" d="M367.1-7.7-4.5 183.8 347 409.7 347.3 409.3 367.2-7.6z"/></defs><clipPath id="SVGID_4_"><use xlink:href="#SVGID_127_" overflow="visible"/></clipPath><g clip-path="url(#SVGID_4_)"><defs><path id="SVGID_129_" transform="matrix(0.5408 -0.8412 0.8412 0.5408 -208.2774 252.5233)" d="M120.9-6.5h12.5v647.1H120.9z"/></defs><clipPath id="SVGID_6_"><use xlink:href="#SVGID_129_" overflow="visible"/></clipPath><linearGradient id="SVGID_8_" gradientUnits="userSpaceOnUse" x1="5287.8101" y1="695.7447" x2="5289.2822" y2="695.7447" gradientTransform="matrix(68.5131 415.5348 415.5348 -68.5131 -651298.4375 -2149498.75)"><stop offset="0" style="stop-color:#00adee"/><stop offset=".4959" style="stop-color:#2b2a68"/><stop offset=".9947" style="stop-color:#ab2e8e"/><stop offset="1" style="stop-color:#ab2e8e"/></linearGradient><path clip-path="url(#SVGID_6_)" fill="url(#SVGID_8_)" d="M319.9-25.4 419.6 579.4-65.6 659.4-165.3 54.6z"/></g></g><g clip-path="url(#SVGID_3_)"><defs><path id="SVGID_132_" d="M367.1-7.7-4.5 183.8 347 409.7 347.3 409.3 367.2-7.6z"/></defs><clipPath id="SVGID_10_"><use xlink:href="#SVGID_132_" overflow="visible"/></clipPath><g clip-path="url(#SVGID_10_)"><defs><path id="SVGID_134_" transform="matrix(0.5408 -0.8412 0.8412 0.5408 -183.7367 254.285)" d="M134.8-28.1h12.5V619H134.8z"/></defs><clipPath id="SVGID_12_"><use xlink:href="#SVGID_134_" overflow="visible"/></clipPath><linearGradient id="SVGID_14_" gradientUnits="userSpaceOnUse" x1="5287.8101" y1="695.7856" x2="5289.2822" y2="695.7856" gradientTransform="matrix(68.5131 415.5348 415.5348 -68.5131 -651298.4375 -2149498.75)"><stop offset="0" style="stop-color:#00adee"/><stop offset=".4959" style="stop-color:#2b2a68"/><stop offset=".9947" style="stop-color:#ab2e8e"/><stop offset="1" style="stop-color:#ab2e8e"/></linearGradient><path clip-path="url(#SVGID_12_)" fill="url(#SVGID_14_)" d="M333.8-47 433.5 557.8l-485.2 80L-151.5 33z"/></g></g><g clip-path="url(#SVGID_3_)"><defs><path id="SVGID_137_" d="M12.6 174.9-.2 181.5 347.5 405 348.2 390.7z"/></defs><clipPath id="SVGID_15_"><use xlink:href="#SVGID_137_" overflow="visible"/></clipPath><linearGradient id="SVGID_17_" gradientUnits="userSpaceOnUse" x1="5287.8101" y1="695.8697" x2="5289.2822" y2="695.8697" gradientTransform="matrix(68.5131 415.5348 415.5348 -68.5131 -651298.4375 -2149498.75)"><stop offset="0" style="stop-color:#00adee"/><stop offset=".4959" style="stop-color:#2b2a68"/><stop offset=".9947" style="stop-color:#ab2e8e"/><stop offset="1" style="stop-color:#ab2e8e"/></linearGradient><path clip-path="url(#SVGID_15_)" fill="url(#SVGID_17_)" d="M299.1 74.6 362.2 457.6 53.5 508.5-9.7 125.6z"/></g><g clip-path="url(#SVGID_3_)"><defs><path id="SVGID_140_" d="M39 161.4 26.2 168 348.9 375.4 349.6 361z"/></defs><clipPath id="SVGID_19_"><use xlink:href="#SVGID_140_" overflow="visible"/></clipPath><linearGradient id="SVGID_20_" gradientUnits="userSpaceOnUse" x1="5287.8101" y1="695.9106" x2="5289.2822" y2="695.9106" gradientTransform="matrix(68.5131 415.5348 415.5348 -68.5131 -651298.4375 -2149498.75)"><stop offset="0" style="stop-color:#00adee"/><stop offset=".4959" style="stop-color:#2b2a68"/><stop offset=".9947" style="stop-color:#ab2e8e"/><stop offset="1" style="stop-color:#ab2e8e"/></linearGradient><path clip-path="url(#SVGID_19_)" fill="url(#SVGID_20_)" d="M304.4 68.5 363 424.1 76 471.5 17.3 115.8z"/></g><g clip-path="url(#SVGID_3_)"><defs><path id="SVGID_143_" d="M65.3 147.8 52.5 154.4 350.3 345.8 351 331.4z"/></defs><clipPath id="SVGID_22_"><use xlink:href="#SVGID_143_" overflow="visible"/></clipPath><linearGradient id="SVGID_23_" gradientUnits="userSpaceOnUse" x1="5287.8101" y1="695.9514" x2="5289.2822" y2="695.9514" gradientTransform="matrix(68.5131 415.5348 415.5348 -68.5131 -651298.4375 -2149498.75)"><stop offset="0" style="stop-color:#00adee"/><stop offset=".4959" style="stop-color:#2b2a68"/><stop offset=".9947" style="stop-color:#ab2e8e"/><stop offset="1" style="stop-color:#ab2e8e"/></linearGradient><path clip-path="url(#SVGID_22_)" fill="url(#SVGID_23_)" d="M309.7 62.3 363.8 390.7 98.5 434.4 44.3 106.1z"/></g><g clip-path="url(#SVGID_3_)"><defs><path id="SVGID_146_" d="M91.7 134.2 78.9 140.8 351.7 316.2 352.4 301.8z"/></defs><clipPath id="SVGID_25_"><use xlink:href="#SVGID_146_" overflow="visible"/></clipPath><linearGradient id="SVGID_26_" gradientUnits="userSpaceOnUse" x1="5287.8101" y1="695.9923" x2="5289.2822" y2="695.9923" gradientTransform="matrix(68.5131 415.5348 415.5348 -68.5131 -651298.4375 -2149498.75)"><stop offset="0" style="stop-color:#00adee"/><stop offset=".4959" style="stop-color:#2b2a68"/><stop offset=".9947" style="stop-color:#ab2e8e"/><stop offset="1" style="stop-color:#ab2e8e"/></linearGradient><path clip-path="url(#SVGID_25_)" fill="url(#SVGID_26_)" d="M314.9 56.2 364.6 357.2 120.9 397.4 71.3 96.3z"/></g><g clip-path="url(#SVGID_3_)"><defs><path id="SVGID_149_" d="M118 120.6 105.2 127.2 353.1 286.6 353.8 272.2z"/></defs><clipPath id="SVGID_28_"><use xlink:href="#SVGID_149_" overflow="visible"/></clipPath><linearGradient id="SVGID_29_" gradientUnits="userSpaceOnUse" x1="5287.8101" y1="696.0332" x2="5289.2822" y2="696.0332" gradientTransform="matrix(68.5131 415.5348 415.5348 -68.5131 -651298.4375 -2149498.75)"><stop offset="0" style="stop-color:#00adee"/><stop offset=".4959" style="stop-color:#2b2a68"/><stop offset=".9947" style="stop-color:#ab2e8e"/><stop offset="1" style="stop-color:#ab2e8e"/></linearGradient><path clip-path="url(#SVGID_28_)" fill="url(#SVGID_29_)" d="M320.2 50 365.4 323.8 143.4 360.4 98.3 86.6z"/></g><g clip-path="url(#SVGID_3_)"><defs><path id="SVGID_152_" d="M144.4 107.1 131.6 113.6 354.5 257 355.2 242.6z"/></defs><clipPath id="SVGID_31_"><use xlink:href="#SVGID_152_" overflow="visible"/></clipPath><linearGradient id="SVGID_32_" gradientUnits="userSpaceOnUse" x1="5287.8101" y1="696.074" x2="5289.2822" y2="696.074" gradientTransform="matrix(68.5131 415.5348 415.5348 -68.5131 -651298.4375 -2149498.75)"><stop offset="0" style="stop-color:#00adee"/><stop offset=".4959" style="stop-color:#2b2a68"/><stop offset=".9947" style="stop-color:#ab2e8e"/><stop offset="1" style="stop-color:#ab2e8e"/></linearGradient><path clip-path="url(#SVGID_31_)" fill="url(#SVGID_32_)" d="M325.5 43.8 366.2 290.3 165.9 323.3 125.3 76.9z"/></g><g clip-path="url(#SVGID_3_)"><defs><path id="SVGID_155_" d="M170.7 93.5 158 100.1 356 227.4 356.6 213z"/></defs><clipPath id="SVGID_34_"><use xlink:href="#SVGID_155_" overflow="visible"/></clipPath><linearGradient id="SVGID_35_" gradientUnits="userSpaceOnUse" x1="5287.8101" y1="696.1149" x2="5289.2822" y2="696.1149" gradientTransform="matrix(68.5131 415.5348 415.5348 -68.5131 -651298.4375 -2149498.75)"><stop offset="0" style="stop-color:#00adee"/><stop offset=".4959" style="stop-color:#2b2a68"/><stop offset=".9947" style="stop-color:#ab2e8e"/><stop offset="1" style="stop-color:#ab2e8e"/></linearGradient><path clip-path="url(#SVGID_34_)" fill="url(#SVGID_35_)" d="M330.8 37.7 366.9 256.9 188.4 286.3 152.3 67.1z"/></g><g clip-path="url(#SVGID_3_)"><defs><path id="SVGID_158_" d="M197.1 79.9 184.3 86.5 357.4 197.8 358.1 183.4z"/></defs><clipPath id="SVGID_37_"><use xlink:href="#SVGID_158_" overflow="visible"/></clipPath><linearGradient id="SVGID_38_" gradientUnits="userSpaceOnUse" x1="5287.8101" y1="696.1558" x2="5289.2822" y2="696.1558" gradientTransform="matrix(68.5131 415.5348 415.5348 -68.5131 -651298.4375 -2149498.75)"><stop offset="0" style="stop-color:#00adee"/><stop offset=".4959" style="stop-color:#2b2a68"/><stop offset=".9947" style="stop-color:#ab2e8e"/><stop offset="1" style="stop-color:#ab2e8e"/></linearGradient><path clip-path="url(#SVGID_37_)" fill="url(#SVGID_38_)" d="M336.1 31.5 367.7 223.4 210.9 249.3 179.2 57.4z"/></g><g clip-path="url(#SVGID_3_)"><defs><path id="SVGID_161_" d="M223.4 66.3 210.7 72.9 358.8 168.1 359.5 153.8z"/></defs><clipPath id="SVGID_40_"><use xlink:href="#SVGID_161_" overflow="visible"/></clipPath><linearGradient id="SVGID_41_" gradientUnits="userSpaceOnUse" x1="5287.8101" y1="696.1967" x2="5289.2822" y2="696.1967" gradientTransform="matrix(68.5131 415.5348 415.5348 -68.5131 -651298.4375 -2149498.75)"><stop offset="0" style="stop-color:#00adee"/><stop offset=".4959" style="stop-color:#2b2a68"/><stop offset=".9947" style="stop-color:#ab2e8e"/><stop offset="1" style="stop-color:#ab2e8e"/></linearGradient><path clip-path="url(#SVGID_40_)" fill="url(#SVGID_41_)" d="M341.4 25.4 368.5 190 233.4 212.3 206.2 47.6z"/></g><g clip-path="url(#SVGID_3_)"><defs><path id="SVGID_164_" d="M249.8 52.7 237 59.3 360.2 138.5 360.9 124.2z"/></defs><clipPath id="SVGID_43_"><use xlink:href="#SVGID_164_" overflow="visible"/></clipPath><linearGradient id="SVGID_44_" gradientUnits="userSpaceOnUse" x1="5287.8101" y1="696.2375" x2="5289.2822" y2="696.2375" gradientTransform="matrix(68.5131 415.5348 415.5348 -68.5131 -651298.4375 -2149498.75)"><stop offset="0" style="stop-color:#00adee"/><stop offset=".4959" style="stop-color:#2b2a68"/><stop offset=".9947" style="stop-color:#ab2e8e"/><stop offset="1" style="stop-color:#ab2e8e"/></linearGradient><path clip-path="url(#SVGID_43_)" fill="url(#SVGID_44_)" d="M346.6 19.2 369.3 156.5 255.9 175.2 233.2 37.9z"/></g><g clip-path="url(#SVGID_3_)"><defs><path id="SVGID_167_" d="M276.2 39.2 263.4 45.7 361.6 108.9 362.3 94.5z"/></defs><clipPath id="SVGID_46_"><use xlink:href="#SVGID_167_" overflow="visible"/></clipPath><linearGradient id="SVGID_47_" gradientUnits="userSpaceOnUse" x1="5287.8101" y1="696.2784" x2="5289.2822" y2="696.2784" gradientTransform="matrix(68.5131 415.5348 415.5348 -68.5131 -651298.4375 -2149498.75)"><stop offset="0" style="stop-color:#00adee"/><stop offset=".4959" style="stop-color:#2b2a68"/><stop offset=".9947" style="stop-color:#ab2e8e"/><stop offset="1" style="stop-color:#ab2e8e"/></linearGradient><path clip-path="url(#SVGID_46_)" fill="url(#SVGID_47_)" d="M351.9 13 370.1 123.1 278.3 138.2 260.2 28.2z"/></g><g clip-path="url(#SVGID_3_)"><defs><path id="SVGID_170_" d="M302.5 25.6 289.7 32.2 363 79.3 363.7 64.9z"/></defs><clipPath id="SVGID_49_"><use xlink:href="#SVGID_170_" overflow="visible"/></clipPath><linearGradient id="SVGID_50_" gradientUnits="userSpaceOnUse" x1="5287.8101" y1="696.3193" x2="5289.2822" y2="696.3193" gradientTransform="matrix(68.5131 415.5348 415.5348 -68.5131 -651298.4375 -2149498.75)"><stop offset="0" style="stop-color:#00adee"/><stop offset=".4959" style="stop-color:#2b2a68"/><stop offset=".9947" style="stop-color:#ab2e8e"/><stop offset="1" style="stop-color:#ab2e8e"/></linearGradient><path clip-path="url(#SVGID_49_)" fill="url(#SVGID_50_)" d="M357.2 6.9 370.8 89.6 300.8 101.2 287.2 18.4z"/></g><g clip-path="url(#SVGID_3_)"><defs><path id="SVGID_173_" d="M328.9 12 316.1 18.6 364.5 49.7 365.1 35.3z"/></defs><clipPath id="SVGID_52_"><use xlink:href="#SVGID_173_" overflow="visible"/></clipPath><linearGradient id="SVGID_53_" gradientUnits="userSpaceOnUse" x1="5287.8101" y1="696.3602" x2="5289.2822" y2="696.3602" gradientTransform="matrix(68.5131 415.5348 415.5348 -68.5131 -651298.4375 -2149498.75)"><stop offset="0" style="stop-color:#00adee"/><stop offset=".4959" style="stop-color:#2b2a68"/><stop offset=".9947" style="stop-color:#ab2e8e"/><stop offset="1" style="stop-color:#ab2e8e"/></linearGradient><path clip-path="url(#SVGID_52_)" fill="url(#SVGID_53_)" d="M362.5.7 371.6 56.2 323.3 64.1 314.2 8.7z"/></g><g clip-path="url(#SVGID_3_)"><defs><path id="SVGID_176_" d="M355.2-1.6 342.4 5 365.9 20.1 366.6 5.7z"/></defs><clipPath id="SVGID_55_"><use xlink:href="#SVGID_176_" overflow="visible"/></clipPath><linearGradient id="SVGID_56_" gradientUnits="userSpaceOnUse" x1="5287.8101" y1="696.401" x2="5289.2822" y2="696.401" gradientTransform="matrix(68.5131 415.5348 415.5348 -68.5131 -651298.4375 -2149498.75)"><stop offset="0" style="stop-color:#00adee"/><stop offset=".4959" style="stop-color:#2b2a68"/><stop offset=".9947" style="stop-color:#ab2e8e"/><stop offset="1" style="stop-color:#ab2e8e"/></linearGradient><path clip-path="url(#SVGID_55_)" fill="url(#SVGID_56_)" d="M367.8-5.5 372.4 22.7 345.8 27.1 341.2-1.1z"/></g></g></g></g></g></g><g id="modules" display="none"/><g id="grid" display="none"/></svg>