<svg xmlns="http://www.w3.org/2000/svg" xmlns:xlink="http://www.w3.org/1999/xlink" viewBox="0 0 258 231" enable-background="new 0 0 258 231" class="mdl-js"><g id="layout"><g><defs><path id="SVGID_287_" transform="matrix(0.5323 -0.8465 0.8465 0.5323 -74.6987 209.6794)" d="M20.4 53.5h264.1v237.9H20.4z"/></defs><clipPath id="SVGID_1_"><use xlink:href="#SVGID_287_" overflow="visible"/></clipPath><g clip-path="url(#SVGID_1_)"><defs><path id="SVGID_289_" transform="matrix(0.5323 -0.8465 0.8465 0.5323 -74.6987 209.6794)" d="M20.4 53.5h264.1v237.9H20.4z"/></defs><clipPath id="SVGID_2_"><use xlink:href="#SVGID_289_" overflow="visible"/></clipPath><g clip-path="url(#SVGID_2_)"><g><defs><path id="SVGID_291_" transform="matrix(0.5323 -0.8465 0.8465 0.5323 -67.2821 210.6465)" d="M4.4 36.4h305.2v259.7H4.4z"/></defs><clipPath id="SVGID_4_"><use xlink:href="#SVGID_291_" overflow="visible"/></clipPath><g clip-path="url(#SVGID_4_)"><defs><path id="SVGID_293_" d="M261.6 222.2 122-2.7-2.9 230.6-2.6 230.7 261.6 222.2z"/></defs><clipPath id="SVGID_6_"><use xlink:href="#SVGID_293_" overflow="visible"/></clipPath><g clip-path="url(#SVGID_6_)"><defs><path id="SVGID_295_" transform="matrix(0.472 -0.8816 0.8816 0.472 -52.4848 101.9586)" d="M-146 90.9h409.7v7.9H-146z"/></defs><clipPath id="SVGID_8_"><use xlink:href="#SVGID_295_" overflow="visible"/></clipPath><linearGradient id="SVGID_10_" gradientUnits="userSpaceOnUse" x1="3039.866" y1="232.8188" x2="3041.22" y2="232.8188" gradientTransform="matrix(-281.4176 69.8298 69.8298 281.4176 839394.8125 -277728.0938)"><stop offset="0" style="stop-color:#00aced"/><stop offset=".4959" style="stop-color:#2b2a68"/><stop offset=".9947" style="stop-color:#aa2e8d"/><stop offset="1" style="stop-color:#aa2e8d"/></linearGradient><path clip-path="url(#SVGID_8_)" fill="url(#SVGID_10_)" d="M251.6 206.7-59.2 283.8-133.8-17.1 176.9-94.2z"/></g></g><g clip-path="url(#SVGID_4_)"><defs><path id="SVGID_298_" d="M128.4 7.7 123.6-.1.1 230.6 9.2 230.3z"/></defs><clipPath id="SVGID_12_"><use xlink:href="#SVGID_298_" overflow="visible"/></clipPath><linearGradient id="SVGID_13_" gradientUnits="userSpaceOnUse" x1="3039.866" y1="232.8992" x2="3041.22" y2="232.8992" gradientTransform="matrix(-281.4176 69.8298 69.8298 281.4176 839394.8125 -277728.0938)"><stop offset="0" style="stop-color:#00aced"/><stop offset=".4959" style="stop-color:#2b2a68"/><stop offset=".9947" style="stop-color:#aa2e8d"/><stop offset="1" style="stop-color:#aa2e8d"/></linearGradient><path clip-path="url(#SVGID_12_)" fill="url(#SVGID_13_)" d="M189.1 189.3-10.9 239-58.9 45.2 141-4.4z"/></g><g clip-path="url(#SVGID_4_)"><defs><path id="SVGID_301_" d="M138.3 23.6 133.5 15.9 18.9 230 28 229.7z"/></defs><clipPath id="SVGID_15_"><use xlink:href="#SVGID_301_" overflow="visible"/></clipPath><linearGradient id="SVGID_17_" gradientUnits="userSpaceOnUse" x1="3039.866" y1="232.9368" x2="3041.22" y2="232.9368" gradientTransform="matrix(-281.4176 69.8298 69.8298 281.4176 839394.8125 -277728.0938)"><stop offset="0" style="stop-color:#00aced"/><stop offset=".4959" style="stop-color:#2b2a68"/><stop offset=".9947" style="stop-color:#aa2e8d"/><stop offset="1" style="stop-color:#aa2e8d"/></linearGradient><path clip-path="url(#SVGID_15_)" fill="url(#SVGID_17_)" d="M194.7 192 8.8 238.1-35.9 57.9 150 11.8z"/></g><g clip-path="url(#SVGID_4_)"><defs><path id="SVGID_304_" d="M148.2 39.6 143.4 31.8 37.6 229.4 46.7 229.1z"/></defs><clipPath id="SVGID_18_"><use xlink:href="#SVGID_304_" overflow="visible"/></clipPath><linearGradient id="SVGID_20_" gradientUnits="userSpaceOnUse" x1="3039.866" y1="232.9744" x2="3041.22" y2="232.9744" gradientTransform="matrix(-281.4176 69.8298 69.8298 281.4176 839394.8125 -277728.0938)"><stop offset="0" style="stop-color:#00aced"/><stop offset=".4959" style="stop-color:#2b2a68"/><stop offset=".9947" style="stop-color:#aa2e8d"/><stop offset="1" style="stop-color:#aa2e8d"/></linearGradient><path clip-path="url(#SVGID_18_)" fill="url(#SVGID_20_)" d="M200.4 194.6 28.4 237.3-12.9 70.6 159 28z"/></g><g clip-path="url(#SVGID_4_)"><defs><path id="SVGID_307_" d="M158.1 55.5 153.3 47.8l-96.9 181L65.5 228.5z"/></defs><clipPath id="SVGID_21_"><use xlink:href="#SVGID_307_" overflow="visible"/></clipPath><linearGradient id="SVGID_23_" gradientUnits="userSpaceOnUse" x1="3039.866" y1="233.012" x2="3041.22" y2="233.012" gradientTransform="matrix(-281.4176 69.8298 69.8298 281.4176 839394.8125 -277728.0938)"><stop offset="0" style="stop-color:#00aced"/><stop offset=".4959" style="stop-color:#2b2a68"/><stop offset=".9947" style="stop-color:#aa2e8d"/><stop offset="1" style="stop-color:#aa2e8d"/></linearGradient><path clip-path="url(#SVGID_21_)" fill="url(#SVGID_23_)" d="M206.1 197.3 48.1 236.5 10.1 83.3 168.1 44.1z"/></g><g clip-path="url(#SVGID_4_)"><defs><path id="SVGID_310_" d="M168 71.5 163.2 63.7 75.2 228.2 84.3 227.9z"/></defs><clipPath id="SVGID_24_"><use xlink:href="#SVGID_310_" overflow="visible"/></clipPath><linearGradient id="SVGID_26_" gradientUnits="userSpaceOnUse" x1="3039.866" y1="233.0495" x2="3041.22" y2="233.0495" gradientTransform="matrix(-281.4176 69.8298 69.8298 281.4176 839394.8125 -277728.0938)"><stop offset="0" style="stop-color:#00aced"/><stop offset=".4959" style="stop-color:#2b2a68"/><stop offset=".9947" style="stop-color:#aa2e8d"/><stop offset="1" style="stop-color:#aa2e8d"/></linearGradient><path clip-path="url(#SVGID_24_)" fill="url(#SVGID_26_)" d="M211.7 199.9 67.7 235.7 33.1 96l144-35.7z"/></g><g clip-path="url(#SVGID_4_)"><defs><path id="SVGID_313_" d="M177.9 87.4 173.1 79.7 93.9 227.6 103 227.3z"/></defs><clipPath id="SVGID_27_"><use xlink:href="#SVGID_313_" overflow="visible"/></clipPath><linearGradient id="SVGID_29_" gradientUnits="userSpaceOnUse" x1="3039.866" y1="233.0871" x2="3041.22" y2="233.0871" gradientTransform="matrix(-281.4176 69.8298 69.8298 281.4176 839394.8125 -277728.0938)"><stop offset="0" style="stop-color:#00aced"/><stop offset=".4959" style="stop-color:#2b2a68"/><stop offset=".9947" style="stop-color:#aa2e8d"/><stop offset="1" style="stop-color:#aa2e8d"/></linearGradient><path clip-path="url(#SVGID_27_)" fill="url(#SVGID_29_)" d="M217.4 202.6 87.4 234.9 56.1 108.7l130-32.2z"/></g><g clip-path="url(#SVGID_4_)"><defs><path id="SVGID_316_" d="M187.8 103.4 183 95.6 112.7 227 121.8 226.7z"/></defs><clipPath id="SVGID_30_"><use xlink:href="#SVGID_316_" overflow="visible"/></clipPath><linearGradient id="SVGID_32_" gradientUnits="userSpaceOnUse" x1="3039.866" y1="233.1247" x2="3041.22" y2="233.1247" gradientTransform="matrix(-281.4176 69.8298 69.8298 281.4176 839394.8125 -277728.0938)"><stop offset="0" style="stop-color:#00aced"/><stop offset=".4959" style="stop-color:#2b2a68"/><stop offset=".9947" style="stop-color:#aa2e8d"/><stop offset="1" style="stop-color:#aa2e8d"/></linearGradient><path clip-path="url(#SVGID_30_)" fill="url(#SVGID_32_)" d="M223.1 205.2 107 234 79.1 121.4 195.1 92.6z"/></g><g clip-path="url(#SVGID_4_)"><defs><path id="SVGID_319_" d="M197.7 119.3 192.9 111.6 131.4 226.4 140.5 226.1z"/></defs><clipPath id="SVGID_33_"><use xlink:href="#SVGID_319_" overflow="visible"/></clipPath><linearGradient id="SVGID_35_" gradientUnits="userSpaceOnUse" x1="3039.866" y1="233.1623" x2="3041.22" y2="233.1623" gradientTransform="matrix(-281.4176 69.8298 69.8298 281.4176 839394.8125 -277728.0938)"><stop offset="0" style="stop-color:#00aced"/><stop offset=".4959" style="stop-color:#2b2a68"/><stop offset=".9947" style="stop-color:#aa2e8d"/><stop offset="1" style="stop-color:#aa2e8d"/></linearGradient><path clip-path="url(#SVGID_33_)" fill="url(#SVGID_35_)" d="M228.7 207.9 126.6 233.2 102 134.1 204.1 108.8z"/></g><g clip-path="url(#SVGID_4_)"><defs><path id="SVGID_322_" d="M207.6 135.3 202.8 127.5 150.2 225.8 159.3 225.5z"/></defs><clipPath id="SVGID_36_"><use xlink:href="#SVGID_322_" overflow="visible"/></clipPath><linearGradient id="SVGID_38_" gradientUnits="userSpaceOnUse" x1="3039.866" y1="233.1999" x2="3041.22" y2="233.1999" gradientTransform="matrix(-281.4176 69.8298 69.8298 281.4176 839394.8125 -277728.0938)"><stop offset="0" style="stop-color:#00aced"/><stop offset=".4959" style="stop-color:#2b2a68"/><stop offset=".9947" style="stop-color:#aa2e8d"/><stop offset="1" style="stop-color:#aa2e8d"/></linearGradient><path clip-path="url(#SVGID_36_)" fill="url(#SVGID_38_)" d="M234.4 210.5 146.3 232.4 125 146.8 213.2 125z"/></g><g clip-path="url(#SVGID_4_)"><defs><path id="SVGID_325_" d="M217.5 151.2 212.7 143.5 169 225.2 178.1 224.9z"/></defs><clipPath id="SVGID_39_"><use xlink:href="#SVGID_325_" overflow="visible"/></clipPath><linearGradient id="SVGID_41_" gradientUnits="userSpaceOnUse" x1="3039.866" y1="233.2375" x2="3041.22" y2="233.2375" gradientTransform="matrix(-281.4176 69.8298 69.8298 281.4176 839394.8125 -277728.0938)"><stop offset="0" style="stop-color:#00aced"/><stop offset=".4959" style="stop-color:#2b2a68"/><stop offset=".9947" style="stop-color:#aa2e8d"/><stop offset="1" style="stop-color:#aa2e8d"/></linearGradient><path clip-path="url(#SVGID_39_)" fill="url(#SVGID_41_)" d="M240.1 213.2 165.9 231.6 148 159.5 222.2 141.1z"/></g><g clip-path="url(#SVGID_4_)"><defs><path id="SVGID_328_" d="M227.4 167.1 222.6 159.4 187.7 224.6 196.8 224.3z"/></defs><clipPath id="SVGID_42_"><use xlink:href="#SVGID_328_" overflow="visible"/></clipPath><linearGradient id="SVGID_44_" gradientUnits="userSpaceOnUse" x1="3039.866" y1="233.2751" x2="3041.22" y2="233.2751" gradientTransform="matrix(-281.4176 69.8298 69.8298 281.4176 839394.8125 -277728.0938)"><stop offset="0" style="stop-color:#00aced"/><stop offset=".4959" style="stop-color:#2b2a68"/><stop offset=".9947" style="stop-color:#aa2e8d"/><stop offset="1" style="stop-color:#aa2e8d"/></linearGradient><path clip-path="url(#SVGID_42_)" fill="url(#SVGID_44_)" d="M245.7 215.8 185.6 230.8 171 172.2 231.2 157.3z"/></g><g clip-path="url(#SVGID_4_)"><defs><path id="SVGID_331_" d="M237.3 183.1 232.5 175.3 206.5 224 215.6 223.7z"/></defs><clipPath id="SVGID_45_"><use xlink:href="#SVGID_331_" overflow="visible"/></clipPath><linearGradient id="SVGID_47_" gradientUnits="userSpaceOnUse" x1="3039.866" y1="233.3126" x2="3041.22" y2="233.3126" gradientTransform="matrix(-281.4176 69.8298 69.8298 281.4176 839394.8125 -277728.0938)"><stop offset="0" style="stop-color:#00aced"/><stop offset=".4959" style="stop-color:#2b2a68"/><stop offset=".9947" style="stop-color:#aa2e8d"/><stop offset="1" style="stop-color:#aa2e8d"/></linearGradient><path clip-path="url(#SVGID_45_)" fill="url(#SVGID_47_)" d="M251.4 218.5 205.2 229.9 194 184.9 240.2 173.4z"/></g><g clip-path="url(#SVGID_4_)"><defs><path id="SVGID_334_" d="M247.2 199 242.4 191.3 225.2 223.4 234.3 223.1z"/></defs><clipPath id="SVGID_48_"><use xlink:href="#SVGID_334_" overflow="visible"/></clipPath><linearGradient id="SVGID_50_" gradientUnits="userSpaceOnUse" x1="3039.866" y1="233.3502" x2="3041.22" y2="233.3502" gradientTransform="matrix(-281.4176 69.8298 69.8298 281.4176 839394.8125 -277728.0938)"><stop offset="0" style="stop-color:#00aced"/><stop offset=".4959" style="stop-color:#2b2a68"/><stop offset=".9947" style="stop-color:#aa2e8d"/><stop offset="1" style="stop-color:#aa2e8d"/></linearGradient><path clip-path="url(#SVGID_48_)" fill="url(#SVGID_50_)" d="M257 221.1 224.8 229.1 217 197.6 249.2 189.6z"/></g><g clip-path="url(#SVGID_4_)"><defs><path id="SVGID_337_" d="M257.1 215 252.3 207.2 244 222.8 253.1 222.5z"/></defs><clipPath id="SVGID_51_"><use xlink:href="#SVGID_337_" overflow="visible"/></clipPath><linearGradient id="SVGID_53_" gradientUnits="userSpaceOnUse" x1="3039.866" y1="233.3878" x2="3041.22" y2="233.3878" gradientTransform="matrix(-281.4176 69.8298 69.8298 281.4176 839394.8125 -277728.0938)"><stop offset="0" style="stop-color:#00aced"/><stop offset=".4959" style="stop-color:#2b2a68"/><stop offset=".9947" style="stop-color:#aa2e8d"/><stop offset="1" style="stop-color:#aa2e8d"/></linearGradient><path clip-path="url(#SVGID_51_)" fill="url(#SVGID_53_)" d="M262.7 223.8 244.5 228.3l-4.5-18L258.2 205.8z"/></g></g></g></g></g></g><g id="modules" display="none"/><g id="comments" display="none"/><g id="grid" display="none"/></svg>