<svg style="opacity: 0.8;" xmlns="http://www.w3.org/2000/svg" xmlns:xlink="http://www.w3.org/1999/xlink" viewBox="0 0 223 204" enable-background="new 0 0 223 204" class="mdl-js"><g id="layout"><g><defs><path id="SVGID_470_" transform="matrix(0.9972 -7.437787e-02 7.437787e-02 0.9972 -7.7402 9.0879)" d="M4.8 6.4h226.6v204.2H4.8z"/></defs><clipPath id="SVGID_2_"><use xlink:href="#SVGID_470_" overflow="visible"/></clipPath><g clip-path="url(#SVGID_2_)"><defs><path id="SVGID_472_" transform="matrix(0.9972 -7.437787e-02 7.437787e-02 0.9972 -7.7402 9.0879)" d="M4.8 6.4h226.6v204.2H4.8z"/></defs><clipPath id="SVGID_4_"><use xlink:href="#SVGID_472_" overflow="visible"/></clipPath><g clip-path="url(#SVGID_4_)"><g><defs><path id="SVGID_474_" transform="matrix(0.9972 -7.437787e-02 7.437787e-02 0.9972 -7.7211 9.5815)" d="M-6.2-3h261.9v222.9H-6.2z"/></defs><clipPath id="SVGID_5_"><use xlink:href="#SVGID_474_" overflow="visible"/></clipPath><g clip-path="url(#SVGID_5_)"><defs><path id="SVGID_476_" d="M139.5 209.2l84.1-211L-1.1 30.9V31.1L139.4 209.2z"/></defs><clipPath id="SVGID_6_"><use xlink:href="#SVGID_476_" overflow="visible"/></clipPath><g clip-path="url(#SVGID_6_)"><defs><path id="SVGID_478_" transform="matrix(0.9896 -0.1438 0.1438 0.9896 0.6711 17.8834)" d="M-51.7.9h351.6v6.8H-51.7z"/></defs><clipPath id="SVGID_8_"><use xlink:href="#SVGID_478_" overflow="visible"/></clipPath><linearGradient id="SVGID_10_" gradientUnits="userSpaceOnUse" x1="3868.9243" y1="-847.9261" x2="3870.0864" y2="-847.9261" gradientTransform="matrix(-223.3004 -184.9569 -184.9569 223.3004 707309.8125 904999.5)"><stop offset="0" style="stop-color:#00aced"/><stop offset=".4959" style="stop-color:#2b2a68"/><stop offset=".9947" style="stop-color:#aa2e8d"/><stop offset="1" style="stop-color:#aa2e8d"/></linearGradient><path clip-path="url(#SVGID_8_)" fill="url(#SVGID_10_)" d="M145 194.4-66.6 19.1 103.1-185.8 314.8-10.5z"/></g></g><g clip-path="url(#SVGID_5_)"><defs><path id="SVGID_481_" d="M219.7 7.9 222.6.7.4 32.9 5.2 39.1z"/></defs><clipPath id="SVGID_12_"><use xlink:href="#SVGID_481_" overflow="visible"/></clipPath><linearGradient id="SVGID_14_" gradientUnits="userSpaceOnUse" x1="3868.9243" y1="-847.8571" x2="3870.0864" y2="-847.8571" gradientTransform="matrix(-223.3004 -184.9569 -184.9569 223.3004 707309.8125 904999.5)"><stop offset="0" style="stop-color:#00aced"/><stop offset=".4959" style="stop-color:#2b2a68"/><stop offset=".9947" style="stop-color:#aa2e8d"/><stop offset="1" style="stop-color:#aa2e8d"/></linearGradient><path clip-path="url(#SVGID_12_)" fill="url(#SVGID_14_)" d="M125.1 142.4-11 29.6 98.3-102.3 234.4 10.5z"/></g><g clip-path="url(#SVGID_5_)"><defs><path id="SVGID_484_" d="M213.7 22.9 216.6 15.6 10.3 45.6 15.2 51.7z"/></defs><clipPath id="SVGID_16_"><use xlink:href="#SVGID_484_" overflow="visible"/></clipPath><linearGradient id="SVGID_17_" gradientUnits="userSpaceOnUse" x1="3868.9243" y1="-847.8248" x2="3870.0864" y2="-847.8248" gradientTransform="matrix(-223.3004 -184.9569 -184.9569 223.3004 707309.8125 904999.5)"><stop offset="0" style="stop-color:#00aced"/><stop offset=".4959" style="stop-color:#2b2a68"/><stop offset=".9947" style="stop-color:#aa2e8d"/><stop offset="1" style="stop-color:#aa2e8d"/></linearGradient><path clip-path="url(#SVGID_16_)" fill="url(#SVGID_17_)" d="M126.2 147.6-.4 42.8 101.2-80 227.8 24.9z"/></g><g clip-path="url(#SVGID_5_)"><defs><path id="SVGID_487_" d="M207.8 37.9 210.7 30.6 20.3 58.2 25.1 64.4z"/></defs><clipPath id="SVGID_19_"><use xlink:href="#SVGID_487_" overflow="visible"/></clipPath><linearGradient id="SVGID_21_" gradientUnits="userSpaceOnUse" x1="3868.9243" y1="-847.7926" x2="3870.0864" y2="-847.7926" gradientTransform="matrix(-223.3004 -184.9569 -184.9569 223.3004 707309.8125 904999.5)"><stop offset="0" style="stop-color:#00aced"/><stop offset=".4959" style="stop-color:#2b2a68"/><stop offset=".9947" style="stop-color:#aa2e8d"/><stop offset="1" style="stop-color:#aa2e8d"/></linearGradient><path clip-path="url(#SVGID_19_)" fill="url(#SVGID_21_)" d="M127.3 152.9 10.2 55.9l94-113.5L221.3 39.4z"/></g><g clip-path="url(#SVGID_5_)"><defs><path id="SVGID_490_" d="M201.8 52.8 204.7 45.6 30.3 70.9 35.1 77z"/></defs><clipPath id="SVGID_22_"><use xlink:href="#SVGID_490_" overflow="visible"/></clipPath><linearGradient id="SVGID_24_" gradientUnits="userSpaceOnUse" x1="3868.9243" y1="-847.7603" x2="3870.0864" y2="-847.7603" gradientTransform="matrix(-223.3004 -184.9569 -184.9569 223.3004 707309.8125 904999.5)"><stop offset="0" style="stop-color:#00aced"/><stop offset=".4959" style="stop-color:#2b2a68"/><stop offset=".9947" style="stop-color:#aa2e8d"/><stop offset="1" style="stop-color:#aa2e8d"/></linearGradient><path clip-path="url(#SVGID_22_)" fill="url(#SVGID_24_)" d="M128.3 158.2 20.7 69 107.1-35.3 214.7 53.9z"/></g><g clip-path="url(#SVGID_5_)"><defs><path id="SVGID_493_" d="M195.8 67.8 198.7 60.5 40.3 83.5 45.1 89.7z"/></defs><clipPath id="SVGID_25_"><use xlink:href="#SVGID_493_" overflow="visible"/></clipPath><linearGradient id="SVGID_27_" gradientUnits="userSpaceOnUse" x1="3868.9243" y1="-847.7281" x2="3870.0864" y2="-847.7281" gradientTransform="matrix(-223.3004 -184.9569 -184.9569 223.3004 707309.8125 904999.5)"><stop offset="0" style="stop-color:#00aced"/><stop offset=".4959" style="stop-color:#2b2a68"/><stop offset=".9947" style="stop-color:#aa2e8d"/><stop offset="1" style="stop-color:#aa2e8d"/></linearGradient><path clip-path="url(#SVGID_25_)" fill="url(#SVGID_27_)" d="M129.4 163.4 31.3 82.2 110.1-12.9l98 81.2z"/></g><g clip-path="url(#SVGID_5_)"><defs><path id="SVGID_496_" d="M189.9 82.7 192.8 75.5 50.2 96.2 55.1 102.3z"/></defs><clipPath id="SVGID_28_"><use xlink:href="#SVGID_496_" overflow="visible"/></clipPath><linearGradient id="SVGID_30_" gradientUnits="userSpaceOnUse" x1="3868.9243" y1="-847.6958" x2="3870.0864" y2="-847.6958" gradientTransform="matrix(-223.3004 -184.9569 -184.9569 223.3004 707309.8125 904999.5)"><stop offset="0" style="stop-color:#00aced"/><stop offset=".4959" style="stop-color:#2b2a68"/><stop offset=".9947" style="stop-color:#aa2e8d"/><stop offset="1" style="stop-color:#aa2e8d"/></linearGradient><path clip-path="url(#SVGID_28_)" fill="url(#SVGID_30_)" d="M130.4 168.7 41.9 95.3 113 9.4 201.6 82.8z"/></g><g clip-path="url(#SVGID_5_)"><defs><path id="SVGID_499_" d="M183.9 97.7 186.8 90.4 60.2 108.8 65.1 115z"/></defs><clipPath id="SVGID_31_"><use xlink:href="#SVGID_499_" overflow="visible"/></clipPath><linearGradient id="SVGID_33_" gradientUnits="userSpaceOnUse" x1="3868.9243" y1="-847.6636" x2="3870.0864" y2="-847.6636" gradientTransform="matrix(-223.3004 -184.9569 -184.9569 223.3004 707309.8125 904999.5)"><stop offset="0" style="stop-color:#00aced"/><stop offset=".4959" style="stop-color:#2b2a68"/><stop offset=".9947" style="stop-color:#aa2e8d"/><stop offset="1" style="stop-color:#aa2e8d"/></linearGradient><path clip-path="url(#SVGID_31_)" fill="url(#SVGID_33_)" d="M131.5 173.9l-79-65.4L116 31.8l79 65.5z"/></g><g clip-path="url(#SVGID_5_)"><defs><path id="SVGID_502_" d="M177.9 112.7 180.8 105.4 70.2 121.5 75 127.6z"/></defs><clipPath id="SVGID_34_"><use xlink:href="#SVGID_502_" overflow="visible"/></clipPath><linearGradient id="SVGID_36_" gradientUnits="userSpaceOnUse" x1="3868.9243" y1="-847.6313" x2="3870.0864" y2="-847.6313" gradientTransform="matrix(-223.3004 -184.9569 -184.9569 223.3004 707309.8125 904999.5)"><stop offset="0" style="stop-color:#00aced"/><stop offset=".4959" style="stop-color:#2b2a68"/><stop offset=".9947" style="stop-color:#aa2e8d"/><stop offset="1" style="stop-color:#aa2e8d"/></linearGradient><path clip-path="url(#SVGID_34_)" fill="url(#SVGID_36_)" d="M132.6 179.2 63 121.6 118.9 54.1l69.6 57.6z"/></g><g clip-path="url(#SVGID_5_)"><defs><path id="SVGID_505_" d="M172 127.6 174.9 120.4 80.2 134.1 85 140.3z"/></defs><clipPath id="SVGID_37_"><use xlink:href="#SVGID_505_" overflow="visible"/></clipPath><linearGradient id="SVGID_39_" gradientUnits="userSpaceOnUse" x1="3868.9243" y1="-847.5991" x2="3870.0864" y2="-847.5991" gradientTransform="matrix(-223.3004 -184.9569 -184.9569 223.3004 707309.8125 904999.5)"><stop offset="0" style="stop-color:#00aced"/><stop offset=".4959" style="stop-color:#2b2a68"/><stop offset=".9947" style="stop-color:#aa2e8d"/><stop offset="1" style="stop-color:#aa2e8d"/></linearGradient><path clip-path="url(#SVGID_37_)" fill="url(#SVGID_39_)" d="M133.6 184.5 73.6 134.8 121.9 76.5l60 49.7z"/></g><g clip-path="url(#SVGID_5_)"><defs><path id="SVGID_508_" d="M166 142.6 168.9 135.3 90.1 146.8 95 152.9z"/></defs><clipPath id="SVGID_40_"><use xlink:href="#SVGID_508_" overflow="visible"/></clipPath><linearGradient id="SVGID_42_" gradientUnits="userSpaceOnUse" x1="3868.9243" y1="-847.5668" x2="3870.0864" y2="-847.5668" gradientTransform="matrix(-223.3004 -184.9569 -184.9569 223.3004 707309.8125 904999.5)"><stop offset="0" style="stop-color:#00aced"/><stop offset=".4959" style="stop-color:#2b2a68"/><stop offset=".9947" style="stop-color:#aa2e8d"/><stop offset="1" style="stop-color:#aa2e8d"/></linearGradient><path clip-path="url(#SVGID_40_)" fill="url(#SVGID_42_)" d="M134.7 189.7 84.2 147.9 124.8 98.8 175.3 140.7z"/></g><g clip-path="url(#SVGID_5_)"><defs><path id="SVGID_511_" d="M160 157.6 162.9 150.3 100.1 159.4 105 165.6z"/></defs><clipPath id="SVGID_43_"><use xlink:href="#SVGID_511_" overflow="visible"/></clipPath><linearGradient id="SVGID_45_" gradientUnits="userSpaceOnUse" x1="3868.9243" y1="-847.5345" x2="3870.0864" y2="-847.5345" gradientTransform="matrix(-223.3004 -184.9569 -184.9569 223.3004 707309.8125 904999.5)"><stop offset="0" style="stop-color:#00aced"/><stop offset=".4959" style="stop-color:#2b2a68"/><stop offset=".9947" style="stop-color:#aa2e8d"/><stop offset="1" style="stop-color:#aa2e8d"/></linearGradient><path clip-path="url(#SVGID_43_)" fill="url(#SVGID_45_)" d="M135.7 195 94.8 161.1 127.8 121.2 168.8 155.1z"/></g><g clip-path="url(#SVGID_5_)"><defs><path id="SVGID_514_" d="M154.1 172.5 157 165.3 110.1 172.1 114.9 178.2z"/></defs><clipPath id="SVGID_46_"><use xlink:href="#SVGID_514_" overflow="visible"/></clipPath><linearGradient id="SVGID_48_" gradientUnits="userSpaceOnUse" x1="3868.9243" y1="-847.5023" x2="3870.0864" y2="-847.5023" gradientTransform="matrix(-223.3004 -184.9569 -184.9569 223.3004 707309.8125 904999.5)"><stop offset="0" style="stop-color:#00aced"/><stop offset=".4959" style="stop-color:#2b2a68"/><stop offset=".9947" style="stop-color:#aa2e8d"/><stop offset="1" style="stop-color:#aa2e8d"/></linearGradient><path clip-path="url(#SVGID_46_)" fill="url(#SVGID_48_)" d="M136.8 200.3 105.3 174.2 130.7 143.5 162.2 169.6z"/></g><g clip-path="url(#SVGID_5_)"><defs><path id="SVGID_517_" d="M148.1 187.5 151 180.2 120.1 184.7 124.9 190.9z"/></defs><clipPath id="SVGID_49_"><use xlink:href="#SVGID_517_" overflow="visible"/></clipPath><linearGradient id="SVGID_51_" gradientUnits="userSpaceOnUse" x1="3868.9243" y1="-847.47" x2="3870.0864" y2="-847.47" gradientTransform="matrix(-223.3004 -184.9569 -184.9569 223.3004 707309.8125 904999.5)"><stop offset="0" style="stop-color:#00aced"/><stop offset=".4959" style="stop-color:#2b2a68"/><stop offset=".9947" style="stop-color:#aa2e8d"/><stop offset="1" style="stop-color:#aa2e8d"/></linearGradient><path clip-path="url(#SVGID_49_)" fill="url(#SVGID_51_)" d="M137.9 205.5 115.9 187.3 133.7 165.9 155.6 184.1z"/></g><g clip-path="url(#SVGID_5_)"><defs><path id="SVGID_520_" d="M142.1 202.4 145 195.2 130 197.4 134.9 203.5z"/></defs><clipPath id="SVGID_52_"><use xlink:href="#SVGID_520_" overflow="visible"/></clipPath><linearGradient id="SVGID_54_" gradientUnits="userSpaceOnUse" x1="3868.9243" y1="-847.4378" x2="3870.0864" y2="-847.4378" gradientTransform="matrix(-223.3004 -184.9569 -184.9569 223.3004 707309.8125 904999.5)"><stop offset="0" style="stop-color:#00aced"/><stop offset=".4959" style="stop-color:#2b2a68"/><stop offset=".9947" style="stop-color:#aa2e8d"/><stop offset="1" style="stop-color:#aa2e8d"/></linearGradient><path clip-path="url(#SVGID_52_)" fill="url(#SVGID_54_)" d="M138.9 210.8 126.5 200.5 136.6 188.2 149.1 198.5z"/></g></g></g></g></g></g><g id="modules" display="none"/><g id="comments" display="none"/><g id="grid" display="none"/></svg>