<svg xmlns="http://www.w3.org/2000/svg" xmlns:xlink="http://www.w3.org/1999/xlink" viewBox="0 0 512 594" enable-background="new 0 0 512 594" class="mdl-js"><g id="layout"><g><defs><path id="SVGID_534_" d="M0-14h840v648H0z"/></defs><clipPath id="SVGID_2_"><use xlink:href="#SVGID_534_" overflow="visible"/></clipPath><g clip-path="url(#SVGID_2_)"><defs><path id="SVGID_536_" transform="matrix(0.9817 -0.1906 0.1906 0.9817 -40.2511 49.6851)" d="M-57.7-92.7h591.8v653.6H-57.7z"/></defs><clipPath id="SVGID_4_"><use xlink:href="#SVGID_536_" overflow="visible"/></clipPath><g clip-path="url(#SVGID_4_)"><defs><path id="SVGID_538_" transform="matrix(0.9817 -0.1906 0.1906 0.9817 -40.2511 49.6851)" d="M-57.7-92.7h591.8v653.6H-57.7z"/></defs><clipPath id="SVGID_5_"><use xlink:href="#SVGID_538_" overflow="visible"/></clipPath><g opacity=".1" clip-path="url(#SVGID_5_)"><g><defs><path id="SVGID_540_" transform="matrix(0.9817 -0.1906 0.1906 0.9817 -31.3783 20.8763)" d="M-360.5-265.4h906.6v878H-360.5z"/></defs><clipPath id="SVGID_6_"><use xlink:href="#SVGID_540_" overflow="visible"/></clipPath><g clip-path="url(#SVGID_6_)"><defs><path id="SVGID_542_" d="M-114.5-30.1l175 631.6L519.9 134.3l-.5-.5L-114.3-30.2z"/></defs><clipPath id="SVGID_8_"><use xlink:href="#SVGID_542_" overflow="visible"/></clipPath><g clip-path="url(#SVGID_8_)"><defs><path id="SVGID_544_" transform="matrix(0.7011 -0.7131 0.7131 0.7011 -223.4602 351.2287)" d="M-200.2 432.4H814.5v19.5H-200.2z"/></defs><clipPath id="SVGID_10_"><use xlink:href="#SVGID_544_" overflow="visible"/></clipPath><linearGradient id="SVGID_12_" gradientUnits="userSpaceOnUse" x1="4325.9063" y1="-2273.8477" x2="4328.2153" y2="-2273.8477" gradientTransform="matrix(420.7713 17.7411 17.7411 -420.7713 -1779909.75 -1033088.375)"><stop offset="0" style="stop-color:#00aced"/><stop offset=".4959" style="stop-color:#2b2a68"/><stop offset=".9947" style="stop-color:#aa2e8d"/><stop offset="1" style="stop-color:#aa2e8d"/></linearGradient><path clip-path="url(#SVGID_10_)" fill="url(#SVGID_12_)" d="M-156.7 36.7 803.6 77.2 771.1 847.6-189.2 807.1z"/></g></g><g clip-path="url(#SVGID_6_)"><defs><path id="SVGID_547_" d="M-114.5-30.1l175 631.6L519.9 134.3l-.5-.5L-114.3-30.2z"/></defs><clipPath id="SVGID_14_"><use xlink:href="#SVGID_547_" overflow="visible"/></clipPath><g clip-path="url(#SVGID_14_)"><defs><path id="SVGID_549_" transform="matrix(0.7011 -0.7131 0.7131 0.7011 -211.9152 322.3228)" d="M-228.9 404.2h1014.7v19.5H-228.9z"/></defs><clipPath id="SVGID_16_"><use xlink:href="#SVGID_549_" overflow="visible"/></clipPath><linearGradient id="SVGID_17_" gradientUnits="userSpaceOnUse" x1="4325.9063" y1="-2273.7837" x2="4328.2153" y2="-2273.7837" gradientTransform="matrix(420.7713 17.7411 17.7411 -420.7713 -1779909.75 -1033088.375)"><stop offset="0" style="stop-color:#00aced"/><stop offset=".4959" style="stop-color:#2b2a68"/><stop offset=".9947" style="stop-color:#aa2e8d"/><stop offset="1" style="stop-color:#aa2e8d"/></linearGradient><path clip-path="url(#SVGID_16_)" fill="url(#SVGID_17_)" d="M-185.4 8.5 774.9 49 742.4 819.4-217.9 778.9z"/></g></g><g clip-path="url(#SVGID_6_)"><defs><path id="SVGID_552_" d="M52.5 572.5 58.5 594.2 512.8 132.1 491 126.5z"/></defs><clipPath id="SVGID_19_"><use xlink:href="#SVGID_552_" overflow="visible"/></clipPath><linearGradient id="SVGID_21_" gradientUnits="userSpaceOnUse" x1="4325.9063" y1="-2273.6516" x2="4328.2153" y2="-2273.6516" gradientTransform="matrix(420.7713 17.7411 17.7411 -420.7713 -1779909.75 -1033088.375)"><stop offset="0" style="stop-color:#00aced"/><stop offset=".4959" style="stop-color:#2b2a68"/><stop offset=".9947" style="stop-color:#aa2e8d"/><stop offset="1" style="stop-color:#aa2e8d"/></linearGradient><path clip-path="url(#SVGID_19_)" fill="url(#SVGID_21_)" d="M-9.8 100.6 598.2 126.3 577.5 616.5-30.5 590.9z"/></g><g clip-path="url(#SVGID_6_)"><defs><path id="SVGID_555_" d="M40.1 527.7 46.1 549.4 467.8 120.5 446 114.8z"/></defs><clipPath id="SVGID_22_"><use xlink:href="#SVGID_555_" overflow="visible"/></clipPath><linearGradient id="SVGID_24_" gradientUnits="userSpaceOnUse" x1="4325.9063" y1="-2273.5876" x2="4328.2153" y2="-2273.5876" gradientTransform="matrix(420.7713 17.7411 17.7411 -420.7713 -1779909.75 -1033088.375)"><stop offset="0" style="stop-color:#00aced"/><stop offset=".4959" style="stop-color:#2b2a68"/><stop offset=".9947" style="stop-color:#aa2e8d"/><stop offset="1" style="stop-color:#aa2e8d"/></linearGradient><path clip-path="url(#SVGID_22_)" fill="url(#SVGID_24_)" d="M-17.6 90.5 547.1 114.3 527.9 570.1-36.8 546.3z"/></g><g clip-path="url(#SVGID_6_)"><defs><path id="SVGID_558_" d="M27.7 482.9 33.7 504.6 422.8 108.8 401 103.2z"/></defs><clipPath id="SVGID_25_"><use xlink:href="#SVGID_558_" overflow="visible"/></clipPath><linearGradient id="SVGID_27_" gradientUnits="userSpaceOnUse" x1="4325.9063" y1="-2273.5234" x2="4328.2153" y2="-2273.5234" gradientTransform="matrix(420.7713 17.7411 17.7411 -420.7713 -1779909.75 -1033088.375)"><stop offset="0" style="stop-color:#00aced"/><stop offset=".4959" style="stop-color:#2b2a68"/><stop offset=".9947" style="stop-color:#aa2e8d"/><stop offset="1" style="stop-color:#aa2e8d"/></linearGradient><path clip-path="url(#SVGID_25_)" fill="url(#SVGID_27_)" d="M-25.3 80.5 496 102.4 478.3 523.8-43.1 501.8z"/></g><g clip-path="url(#SVGID_6_)"><defs><path id="SVGID_561_" d="M15.2 438.1 21.3 459.8 377.8 97.2 356 91.5z"/></defs><clipPath id="SVGID_28_"><use xlink:href="#SVGID_561_" overflow="visible"/></clipPath><linearGradient id="SVGID_30_" gradientUnits="userSpaceOnUse" x1="4325.9063" y1="-2273.4595" x2="4328.2153" y2="-2273.4595" gradientTransform="matrix(420.7713 17.7411 17.7411 -420.7713 -1779909.75 -1033088.375)"><stop offset="0" style="stop-color:#00aced"/><stop offset=".4959" style="stop-color:#2b2a68"/><stop offset=".9947" style="stop-color:#aa2e8d"/><stop offset="1" style="stop-color:#aa2e8d"/></linearGradient><path clip-path="url(#SVGID_28_)" fill="url(#SVGID_30_)" d="M-33.1 70.4 444.9 90.5 428.6 477.4-49.4 457.2z"/></g><g clip-path="url(#SVGID_6_)"><defs><path id="SVGID_564_" d="M2.8 393.3 8.9 415 332.8 85.5 311 79.9z"/></defs><clipPath id="SVGID_31_"><use xlink:href="#SVGID_564_" overflow="visible"/></clipPath><linearGradient id="SVGID_33_" gradientUnits="userSpaceOnUse" x1="4325.9063" y1="-2273.3953" x2="4328.2153" y2="-2273.3953" gradientTransform="matrix(420.7713 17.7411 17.7411 -420.7713 -1779909.75 -1033088.375)"><stop offset="0" style="stop-color:#00aced"/><stop offset=".4959" style="stop-color:#2b2a68"/><stop offset=".9947" style="stop-color:#aa2e8d"/><stop offset="1" style="stop-color:#aa2e8d"/></linearGradient><path clip-path="url(#SVGID_31_)" fill="url(#SVGID_33_)" d="M-40.9 60.3 393.8 78.6 379 431-55.7 412.7z"/></g><g clip-path="url(#SVGID_6_)"><defs><path id="SVGID_567_" d="M-9.6 348.5-3.5 370.2 287.8 73.9 266 68.2z"/></defs><clipPath id="SVGID_34_"><use xlink:href="#SVGID_567_" overflow="visible"/></clipPath><linearGradient id="SVGID_36_" gradientUnits="userSpaceOnUse" x1="4325.9063" y1="-2273.3313" x2="4328.2153" y2="-2273.3313" gradientTransform="matrix(420.7713 17.7411 17.7411 -420.7713 -1779909.75 -1033088.375)"><stop offset="0" style="stop-color:#00aced"/><stop offset=".4959" style="stop-color:#2b2a68"/><stop offset=".9947" style="stop-color:#aa2e8d"/><stop offset="1" style="stop-color:#aa2e8d"/></linearGradient><path clip-path="url(#SVGID_34_)" fill="url(#SVGID_36_)" d="M-48.6 50.2 342.7 66.7 329.3 384.7-62 368.2z"/></g><g clip-path="url(#SVGID_6_)"><defs><path id="SVGID_570_" d="M-22 303.7-16 325.4 242.8 62.2 221 56.6z"/></defs><clipPath id="SVGID_37_"><use xlink:href="#SVGID_570_" overflow="visible"/></clipPath><linearGradient id="SVGID_39_" gradientUnits="userSpaceOnUse" x1="4325.9063" y1="-2273.2671" x2="4328.2153" y2="-2273.2671" gradientTransform="matrix(420.7713 17.7411 17.7411 -420.7713 -1779909.75 -1033088.375)"><stop offset="0" style="stop-color:#00aced"/><stop offset=".4959" style="stop-color:#2b2a68"/><stop offset=".9947" style="stop-color:#aa2e8d"/><stop offset="1" style="stop-color:#aa2e8d"/></linearGradient><path clip-path="url(#SVGID_37_)" fill="url(#SVGID_39_)" d="M-56.4 40.1 291.6 54.8 279.7 338.3-68.4 323.6z"/></g><g clip-path="url(#SVGID_6_)"><defs><path id="SVGID_573_" d="M-34.4 258.9-28.4 280.6 197.8 50.6 176 44.9z"/></defs><clipPath id="SVGID_40_"><use xlink:href="#SVGID_573_" overflow="visible"/></clipPath><linearGradient id="SVGID_42_" gradientUnits="userSpaceOnUse" x1="4325.9063" y1="-2273.2031" x2="4328.2153" y2="-2273.2031" gradientTransform="matrix(420.7713 17.7411 17.7411 -420.7713 -1779909.75 -1033088.375)"><stop offset="0" style="stop-color:#00aced"/><stop offset=".4959" style="stop-color:#2b2a68"/><stop offset=".9947" style="stop-color:#aa2e8d"/><stop offset="1" style="stop-color:#aa2e8d"/></linearGradient><path clip-path="url(#SVGID_40_)" fill="url(#SVGID_42_)" d="M-64.2 30.1 240.5 42.9 230 291.9-74.7 279.1z"/></g><g clip-path="url(#SVGID_6_)"><defs><path id="SVGID_576_" d="M-46.8 214.1-40.8 235.8 152.8 38.9 131 33.3z"/></defs><clipPath id="SVGID_43_"><use xlink:href="#SVGID_576_" overflow="visible"/></clipPath><linearGradient id="SVGID_45_" gradientUnits="userSpaceOnUse" x1="4325.9063" y1="-2273.1389" x2="4328.2153" y2="-2273.1389" gradientTransform="matrix(420.7713 17.7411 17.7411 -420.7713 -1779909.75 -1033088.375)"><stop offset="0" style="stop-color:#00aced"/><stop offset=".4959" style="stop-color:#2b2a68"/><stop offset=".9947" style="stop-color:#aa2e8d"/><stop offset="1" style="stop-color:#aa2e8d"/></linearGradient><path clip-path="url(#SVGID_43_)" fill="url(#SVGID_45_)" d="M-71.9 20 189.4 31l-9 214.6L-81 234.5z"/></g><g clip-path="url(#SVGID_6_)"><defs><path id="SVGID_579_" d="M-59.2 169.3-53.2 191l161-163.7L86 21.6z"/></defs><clipPath id="SVGID_46_"><use xlink:href="#SVGID_579_" overflow="visible"/></clipPath><linearGradient id="SVGID_48_" gradientUnits="userSpaceOnUse" x1="4325.9063" y1="-2273.075" x2="4328.2153" y2="-2273.075" gradientTransform="matrix(420.7713 17.7411 17.7411 -420.7713 -1779909.75 -1033088.375)"><stop offset="0" style="stop-color:#00aced"/><stop offset=".4959" style="stop-color:#2b2a68"/><stop offset=".9947" style="stop-color:#aa2e8d"/><stop offset="1" style="stop-color:#aa2e8d"/></linearGradient><path clip-path="url(#SVGID_46_)" fill="url(#SVGID_48_)" d="M-79.7 9.9 138.3 19.1 130.7 199.2-87.3 190z"/></g><g clip-path="url(#SVGID_6_)"><defs><path id="SVGID_582_" d="M-71.6 124.5-65.6 146.2 62.8 15.6 41 10z"/></defs><clipPath id="SVGID_49_"><use xlink:href="#SVGID_582_" overflow="visible"/></clipPath><linearGradient id="SVGID_51_" gradientUnits="userSpaceOnUse" x1="4325.9063" y1="-2273.0107" x2="4328.2153" y2="-2273.0107" gradientTransform="matrix(420.7713 17.7411 17.7411 -420.7713 -1779909.75 -1033088.375)"><stop offset="0" style="stop-color:#00aced"/><stop offset=".4959" style="stop-color:#2b2a68"/><stop offset=".9947" style="stop-color:#aa2e8d"/><stop offset="1" style="stop-color:#aa2e8d"/></linearGradient><path clip-path="url(#SVGID_49_)" fill="url(#SVGID_51_)" d="M-87.5-.2 87.2 7.2 81.1 152.8-93.6 145.5z"/></g><g clip-path="url(#SVGID_6_)"><defs><path id="SVGID_585_" d="M-84 79.7-78 101.4 17.8 4-4-1.7z"/></defs><clipPath id="SVGID_52_"><use xlink:href="#SVGID_585_" overflow="visible"/></clipPath><linearGradient id="SVGID_54_" gradientUnits="userSpaceOnUse" x1="4325.9063" y1="-2272.9468" x2="4328.2153" y2="-2272.9468" gradientTransform="matrix(420.7713 17.7411 17.7411 -420.7713 -1779909.75 -1033088.375)"><stop offset="0" style="stop-color:#00aced"/><stop offset=".4959" style="stop-color:#2b2a68"/><stop offset=".9947" style="stop-color:#aa2e8d"/><stop offset="1" style="stop-color:#aa2e8d"/></linearGradient><path clip-path="url(#SVGID_52_)" fill="url(#SVGID_54_)" d="M-95.2-10.3 36.1-4.7 31.5 106.5-99.9 100.9z"/></g></g></g></g></g></g></g><g id="modules" display="none"/><g id="comments" display="none"/><g id="grid" display="none"/></svg>