<svg xmlns="http://www.w3.org/2000/svg" xmlns:xlink="http://www.w3.org/1999/xlink" viewBox="0 0 337 357" enable-background="new 0 0 337 357" class="mdl-js"><g id="layout"><g><defs><path id="SVGID_205_" transform="matrix(0.6612 -0.7502 0.7502 0.6612 -17.7468 228.5395)" d="M78.3-50.2h331.8v368.3H78.3z"/></defs><clipPath id="SVGID_2_"><use xlink:href="#SVGID_205_" overflow="visible"/></clipPath><g clip-path="url(#SVGID_2_)"><defs><path id="SVGID_207_" transform="matrix(0.6612 -0.7502 0.7502 0.6612 -17.7468 228.5395)" d="M78.3-50.2h331.8v368.3H78.3z"/></defs><clipPath id="SVGID_4_"><use xlink:href="#SVGID_207_" overflow="visible"/></clipPath><g clip-path="url(#SVGID_4_)"><g><defs><path id="SVGID_209_" transform="matrix(0.6612 -0.7502 0.7502 0.6612 -14.5265 220.2668)" d="M55.5-86.5h362.1V339H55.5z"/></defs><clipPath id="SVGID_5_"><use xlink:href="#SVGID_209_" overflow="visible"/></clipPath><g clip-path="url(#SVGID_5_)"><defs><path id="SVGID_211_" d="M337-5.2-3.7 136.6 289.4 360.7 289.7 360.3 337.1-5.2z"/></defs><clipPath id="SVGID_6_"><use xlink:href="#SVGID_211_" overflow="visible"/></clipPath><g clip-path="url(#SVGID_6_)"><defs><path id="SVGID_213_" transform="matrix(0.6073 -0.7945 0.7945 0.6073 -149.2091 188.7941)" d="M110.9-40.4h11V531h-11z"/></defs><clipPath id="SVGID_8_"><use xlink:href="#SVGID_213_" overflow="visible"/></clipPath><linearGradient id="SVGID_10_" gradientUnits="userSpaceOnUse" x1="3854.1062" y1="-1519.526" x2="3855.9946" y2="-1519.526" gradientTransform="matrix(23.8034 288.9731 288.9731 -23.8034 347463.4688 -1149832.125)"><stop offset="0" style="stop-color:#00aced"/><stop offset=".4959" style="stop-color:#2b2a68"/><stop offset=".9947" style="stop-color:#aa2e8d"/><stop offset="1" style="stop-color:#aa2e8d"/></linearGradient><path clip-path="url(#SVGID_8_)" fill="url(#SVGID_10_)" d="M313.5 5.1 350.1 450.1-80.8 485.6-117.4 40.6z"/></g></g><g clip-path="url(#SVGID_5_)"><defs><path id="SVGID_216_" d="M12 130.1.3 135 290.2 356.6 291.8 344z"/></defs><clipPath id="SVGID_12_"><use xlink:href="#SVGID_216_" overflow="visible"/></clipPath><linearGradient id="SVGID_14_" gradientUnits="userSpaceOnUse" x1="3854.1062" y1="-1519.4139" x2="3855.9946" y2="-1519.4139" gradientTransform="matrix(23.8034 288.9731 288.9731 -23.8034 347463.4688 -1149832.125)"><stop offset="0" style="stop-color:#00aced"/><stop offset=".4959" style="stop-color:#2b2a68"/><stop offset=".9947" style="stop-color:#aa2e8d"/><stop offset="1" style="stop-color:#aa2e8d"/></linearGradient><path clip-path="url(#SVGID_12_)" fill="url(#SVGID_14_)" d="M275.6 87.3 299.2 373.5 21.8 396.4-1.8 110.1z"/></g><g clip-path="url(#SVGID_5_)"><defs><path id="SVGID_219_" d="M36.2 120 24.4 124.9 293.5 330.6 295.2 318z"/></defs><clipPath id="SVGID_16_"><use xlink:href="#SVGID_219_" overflow="visible"/></clipPath><linearGradient id="SVGID_17_" gradientUnits="userSpaceOnUse" x1="3854.1062" y1="-1519.3615" x2="3855.9946" y2="-1519.3615" gradientTransform="matrix(23.8034 288.9731 288.9731 -23.8034 347463.4688 -1149832.125)"><stop offset="0" style="stop-color:#00aced"/><stop offset=".4959" style="stop-color:#2b2a68"/><stop offset=".9947" style="stop-color:#aa2e8d"/><stop offset="1" style="stop-color:#aa2e8d"/></linearGradient><path clip-path="url(#SVGID_16_)" fill="url(#SVGID_17_)" d="M280.5 80.1 302.5 346.3 44.4 367.6 22.5 101.3z"/></g><g clip-path="url(#SVGID_5_)"><defs><path id="SVGID_222_" d="M60.3 110 48.6 114.9 296.9 304.7 298.5 292.1z"/></defs><clipPath id="SVGID_19_"><use xlink:href="#SVGID_222_" overflow="visible"/></clipPath><linearGradient id="SVGID_21_" gradientUnits="userSpaceOnUse" x1="3854.1062" y1="-1519.3091" x2="3855.9946" y2="-1519.3091" gradientTransform="matrix(23.8034 288.9731 288.9731 -23.8034 347463.4688 -1149832.125)"><stop offset="0" style="stop-color:#00aced"/><stop offset=".4959" style="stop-color:#2b2a68"/><stop offset=".9947" style="stop-color:#aa2e8d"/><stop offset="1" style="stop-color:#aa2e8d"/></linearGradient><path clip-path="url(#SVGID_19_)" fill="url(#SVGID_21_)" d="M285.4 72.9 305.7 319.1 67 338.8 46.8 92.5z"/></g><g clip-path="url(#SVGID_5_)"><defs><path id="SVGID_225_" d="M84.5 99.9 72.8 104.8 300.3 278.7 301.9 266.1z"/></defs><clipPath id="SVGID_22_"><use xlink:href="#SVGID_225_" overflow="visible"/></clipPath><linearGradient id="SVGID_24_" gradientUnits="userSpaceOnUse" x1="3854.1062" y1="-1519.2566" x2="3855.9946" y2="-1519.2566" gradientTransform="matrix(23.8034 288.9731 288.9731 -23.8034 347463.4688 -1149832.125)"><stop offset="0" style="stop-color:#00aced"/><stop offset=".4959" style="stop-color:#2b2a68"/><stop offset=".9947" style="stop-color:#aa2e8d"/><stop offset="1" style="stop-color:#aa2e8d"/></linearGradient><path clip-path="url(#SVGID_22_)" fill="url(#SVGID_24_)" d="M290.3 65.7 309 291.9l-219.3 18L71 83.7z"/></g><g clip-path="url(#SVGID_5_)"><defs><path id="SVGID_228_" d="M108.7 89.9 96.9 94.7 303.6 252.7 305.3 240.1z"/></defs><clipPath id="SVGID_25_"><use xlink:href="#SVGID_228_" overflow="visible"/></clipPath><linearGradient id="SVGID_27_" gradientUnits="userSpaceOnUse" x1="3854.1062" y1="-1519.2042" x2="3855.9946" y2="-1519.2042" gradientTransform="matrix(23.8034 288.9731 288.9731 -23.8034 347463.4688 -1149832.125)"><stop offset="0" style="stop-color:#00aced"/><stop offset=".4959" style="stop-color:#2b2a68"/><stop offset=".9947" style="stop-color:#aa2e8d"/><stop offset="1" style="stop-color:#aa2e8d"/></linearGradient><path clip-path="url(#SVGID_25_)" fill="url(#SVGID_27_)" d="M295.3 58.4 312.2 264.7 112.3 281.1 95.3 74.9z"/></g><g clip-path="url(#SVGID_5_)"><defs><path id="SVGID_231_" d="M132.8 79.8 121.1 84.7 307 226.8 308.6 214.2z"/></defs><clipPath id="SVGID_28_"><use xlink:href="#SVGID_231_" overflow="visible"/></clipPath><linearGradient id="SVGID_30_" gradientUnits="userSpaceOnUse" x1="3854.1062" y1="-1519.1519" x2="3855.9946" y2="-1519.1519" gradientTransform="matrix(23.8034 288.9731 288.9731 -23.8034 347463.4688 -1149832.125)"><stop offset="0" style="stop-color:#00aced"/><stop offset=".4959" style="stop-color:#2b2a68"/><stop offset=".9947" style="stop-color:#aa2e8d"/><stop offset="1" style="stop-color:#aa2e8d"/></linearGradient><path clip-path="url(#SVGID_28_)" fill="url(#SVGID_30_)" d="M300.2 51.2 315.5 237.4 134.9 252.3 119.6 66.1z"/></g><g clip-path="url(#SVGID_5_)"><defs><path id="SVGID_234_" d="M157 69.7 145.2 74.6 310.4 200.8 312 188.2z"/></defs><clipPath id="SVGID_31_"><use xlink:href="#SVGID_234_" overflow="visible"/></clipPath><linearGradient id="SVGID_33_" gradientUnits="userSpaceOnUse" x1="3854.1062" y1="-1519.0994" x2="3855.9946" y2="-1519.0994" gradientTransform="matrix(23.8034 288.9731 288.9731 -23.8034 347463.4688 -1149832.125)"><stop offset="0" style="stop-color:#00aced"/><stop offset=".4959" style="stop-color:#2b2a68"/><stop offset=".9947" style="stop-color:#aa2e8d"/><stop offset="1" style="stop-color:#aa2e8d"/></linearGradient><path clip-path="url(#SVGID_31_)" fill="url(#SVGID_33_)" d="M305.1 44 318.8 210.2 157.5 223.5 143.8 57.3z"/></g><g clip-path="url(#SVGID_5_)"><defs><path id="SVGID_237_" d="M181.1 59.7 169.4 64.6 313.7 174.9 315.4 162.3z"/></defs><clipPath id="SVGID_34_"><use xlink:href="#SVGID_237_" overflow="visible"/></clipPath><linearGradient id="SVGID_36_" gradientUnits="userSpaceOnUse" x1="3854.1062" y1="-1519.047" x2="3855.9946" y2="-1519.047" gradientTransform="matrix(23.8034 288.9731 288.9731 -23.8034 347463.4688 -1149832.125)"><stop offset="0" style="stop-color:#00aced"/><stop offset=".4959" style="stop-color:#2b2a68"/><stop offset=".9947" style="stop-color:#aa2e8d"/><stop offset="1" style="stop-color:#aa2e8d"/></linearGradient><path clip-path="url(#SVGID_34_)" fill="url(#SVGID_36_)" d="M310 36.8 322 183 180.1 194.7l-12-146.2z"/></g><g clip-path="url(#SVGID_5_)"><defs><path id="SVGID_240_" d="M205.3 49.6 193.6 54.5 317.1 148.9 318.7 136.3z"/></defs><clipPath id="SVGID_37_"><use xlink:href="#SVGID_240_" overflow="visible"/></clipPath><linearGradient id="SVGID_39_" gradientUnits="userSpaceOnUse" x1="3854.1062" y1="-1518.9946" x2="3855.9946" y2="-1518.9946" gradientTransform="matrix(23.8034 288.9731 288.9731 -23.8034 347463.4688 -1149832.125)"><stop offset="0" style="stop-color:#00aced"/><stop offset=".4959" style="stop-color:#2b2a68"/><stop offset=".9947" style="stop-color:#aa2e8d"/><stop offset="1" style="stop-color:#aa2e8d"/></linearGradient><path clip-path="url(#SVGID_37_)" fill="url(#SVGID_39_)" d="M314.9 29.6 325.3 155.8 202.7 165.9 192.4 39.7z"/></g><g clip-path="url(#SVGID_5_)"><defs><path id="SVGID_243_" d="M229.5 39.5 217.7 44.4 320.5 123 322.1 110.4z"/></defs><clipPath id="SVGID_40_"><use xlink:href="#SVGID_243_" overflow="visible"/></clipPath><linearGradient id="SVGID_42_" gradientUnits="userSpaceOnUse" x1="3854.1062" y1="-1518.9421" x2="3855.9946" y2="-1518.9421" gradientTransform="matrix(23.8034 288.9731 288.9731 -23.8034 347463.4688 -1149832.125)"><stop offset="0" style="stop-color:#00aced"/><stop offset=".4959" style="stop-color:#2b2a68"/><stop offset=".9947" style="stop-color:#aa2e8d"/><stop offset="1" style="stop-color:#aa2e8d"/></linearGradient><path clip-path="url(#SVGID_40_)" fill="url(#SVGID_42_)" d="M319.8 22.4 328.6 128.6 225.4 137.1 216.6 30.9z"/></g><g clip-path="url(#SVGID_5_)"><defs><path id="SVGID_246_" d="M253.6 29.5 241.9 34.4 323.8 97 325.5 84.4z"/></defs><clipPath id="SVGID_43_"><use xlink:href="#SVGID_246_" overflow="visible"/></clipPath><linearGradient id="SVGID_45_" gradientUnits="userSpaceOnUse" x1="3854.1062" y1="-1518.8898" x2="3855.9946" y2="-1518.8898" gradientTransform="matrix(23.8034 288.9731 288.9731 -23.8034 347463.4688 -1149832.125)"><stop offset="0" style="stop-color:#00aced"/><stop offset=".4959" style="stop-color:#2b2a68"/><stop offset=".9947" style="stop-color:#aa2e8d"/><stop offset="1" style="stop-color:#aa2e8d"/></linearGradient><path clip-path="url(#SVGID_43_)" fill="url(#SVGID_45_)" d="M324.7 15.2 331.8 101.4 248 108.3 240.9 22.1z"/></g><g clip-path="url(#SVGID_5_)"><defs><path id="SVGID_249_" d="M277.8 19.4 266.1 24.3 327.2 71 328.8 58.4z"/></defs><clipPath id="SVGID_46_"><use xlink:href="#SVGID_249_" overflow="visible"/></clipPath><linearGradient id="SVGID_48_" gradientUnits="userSpaceOnUse" x1="3854.1062" y1="-1518.8374" x2="3855.9946" y2="-1518.8374" gradientTransform="matrix(23.8034 288.9731 288.9731 -23.8034 347463.4688 -1149832.125)"><stop offset="0" style="stop-color:#00aced"/><stop offset=".4959" style="stop-color:#2b2a68"/><stop offset=".9947" style="stop-color:#aa2e8d"/><stop offset="1" style="stop-color:#aa2e8d"/></linearGradient><path clip-path="url(#SVGID_46_)" fill="url(#SVGID_48_)" d="M329.6 8l5.5 66.1L270.6 79.4 265.2 13.3z"/></g><g clip-path="url(#SVGID_5_)"><defs><path id="SVGID_252_" d="M301.9 9.4 290.2 14.2 330.6 45.1 332.2 32.5z"/></defs><clipPath id="SVGID_49_"><use xlink:href="#SVGID_252_" overflow="visible"/></clipPath><linearGradient id="SVGID_51_" gradientUnits="userSpaceOnUse" x1="3854.1062" y1="-1518.7849" x2="3855.9946" y2="-1518.7849" gradientTransform="matrix(23.8034 288.9731 288.9731 -23.8034 347463.4688 -1149832.125)"><stop offset="0" style="stop-color:#00aced"/><stop offset=".4959" style="stop-color:#2b2a68"/><stop offset=".9947" style="stop-color:#aa2e8d"/><stop offset="1" style="stop-color:#aa2e8d"/></linearGradient><path clip-path="url(#SVGID_49_)" fill="url(#SVGID_51_)" d="M334.5.8 338.3 46.9 293.2 50.6 289.4 4.5z"/></g><g clip-path="url(#SVGID_5_)"><defs><path id="SVGID_255_" d="M326.1-.7 314.4 4.2 333.9 19.1 335.6 6.5z"/></defs><clipPath id="SVGID_52_"><use xlink:href="#SVGID_255_" overflow="visible"/></clipPath><linearGradient id="SVGID_54_" gradientUnits="userSpaceOnUse" x1="3854.1062" y1="-1518.7325" x2="3855.9946" y2="-1518.7325" gradientTransform="matrix(23.8034 288.9731 288.9731 -23.8034 347463.4688 -1149832.125)"><stop offset="0" style="stop-color:#00aced"/><stop offset=".4959" style="stop-color:#2b2a68"/><stop offset=".9947" style="stop-color:#aa2e8d"/><stop offset="1" style="stop-color:#aa2e8d"/></linearGradient><path clip-path="url(#SVGID_52_)" fill="url(#SVGID_54_)" d="M339.5-6.4 341.6 19.7 315.8 21.8 313.7-4.3z"/></g></g></g></g></g></g><g id="modules" display="none"/><g id="comments" display="none"/><g id="grid" display="none"/></svg>