<svg xmlns="http://www.w3.org/2000/svg" xmlns:xlink="http://www.w3.org/1999/xlink" viewBox="0 0 370 364" enable-background="new 0 0 370 364" class="mdl-js"><g id="layout"><g><defs><path id="SVGID_152_" transform="matrix(0.9676 -0.2525 0.2525 0.9676 -50.5392 46.3512)" d="M-18.8 26.9h348.2v386.4H-18.8z"/></defs><clipPath id="SVGID_2_"><use xlink:href="#SVGID_152_" overflow="visible"/></clipPath><g clip-path="url(#SVGID_2_)"><defs><path id="SVGID_154_" transform="matrix(0.9676 -0.2525 0.2525 0.9676 -50.5392 46.3512)" d="M-18.8 26.9h348.2v386.4H-18.8z"/></defs><clipPath id="SVGID_4_"><use xlink:href="#SVGID_154_" overflow="visible"/></clipPath><g clip-path="url(#SVGID_4_)"><g><defs><path id="SVGID_156_" transform="matrix(0.9676 -0.2525 0.2525 0.9676 -53.2829 47.2298)" d="M-32.6 7.9h380v446.5h-380z"/></defs><clipPath id="SVGID_5_"><use xlink:href="#SVGID_156_" overflow="visible"/></clipPath><g clip-path="url(#SVGID_5_)"><defs><path id="SVGID_158_" d="M-7.1 286.7 372.6 363.1 248.9-3.8 248.5-3.6-7.1 286.6z"/></defs><clipPath id="SVGID_6_"><use xlink:href="#SVGID_158_" overflow="visible"/></clipPath><g clip-path="url(#SVGID_6_)"><defs><path id="SVGID_160_" transform="matrix(0.9476 -0.3194 0.3194 0.9476 -45.8912 116.3685)" d="M326.1-101.7h11.5v599.6H326.1z"/></defs><clipPath id="SVGID_8_"><use xlink:href="#SVGID_160_" overflow="visible"/></clipPath><linearGradient id="SVGID_10_" gradientUnits="userSpaceOnUse" x1="3096.0173" y1="-1838.6785" x2="3097.999" y2="-1838.6785" gradientTransform="matrix(141.7833 -252.922 -252.922 -141.7833 -903763.8125 522715.5938)"><stop offset="0" style="stop-color:#00aced"/><stop offset=".4959" style="stop-color:#2b2a68"/><stop offset=".9947" style="stop-color:#aa2e8d"/><stop offset="1" style="stop-color:#aa2e8d"/></linearGradient><path clip-path="url(#SVGID_8_)" fill="url(#SVGID_10_)" d="M19.4 291.5 248.5-117.2 644.3 104.7 415.2 513.4z"/></g></g><g clip-path="url(#SVGID_5_)"><defs><path id="SVGID_163_" d="M355.1 359.6 368.2 362.2 245.9-.6 237.1 9.4z"/></defs><clipPath id="SVGID_12_"><use xlink:href="#SVGID_163_" overflow="visible"/></clipPath><linearGradient id="SVGID_14_" gradientUnits="userSpaceOnUse" x1="3096.0173" y1="-1838.5607" x2="3097.999" y2="-1838.5607" gradientTransform="matrix(141.7833 -252.922 -252.922 -141.7833 -903763.8125 522715.5938)"><stop offset="0" style="stop-color:#00aced"/><stop offset=".4959" style="stop-color:#2b2a68"/><stop offset=".9947" style="stop-color:#aa2e8d"/><stop offset="1" style="stop-color:#aa2e8d"/></linearGradient><path clip-path="url(#SVGID_12_)" fill="url(#SVGID_14_)" d="M100.6 242.2 248-20.7 502.7 122.1 355.4 385z"/></g><g clip-path="url(#SVGID_5_)"><defs><path id="SVGID_166_" d="M328.2 354.2 341.2 356.8 227.7 20 218.9 30z"/></defs><clipPath id="SVGID_16_"><use xlink:href="#SVGID_166_" overflow="visible"/></clipPath><linearGradient id="SVGID_17_" gradientUnits="userSpaceOnUse" x1="3096.0173" y1="-1838.5057" x2="3097.999" y2="-1838.5057" gradientTransform="matrix(141.7833 -252.922 -252.922 -141.7833 -903763.8125 522715.5938)"><stop offset="0" style="stop-color:#00aced"/><stop offset=".4959" style="stop-color:#2b2a68"/><stop offset=".9947" style="stop-color:#aa2e8d"/><stop offset="1" style="stop-color:#aa2e8d"/></linearGradient><path clip-path="url(#SVGID_16_)" fill="url(#SVGID_17_)" d="M92.1 245.6 229.2 1.1l237 132.8L329.1 378.5z"/></g><g clip-path="url(#SVGID_5_)"><defs><path id="SVGID_169_" d="M301.2 348.7 314.3 351.4 209.6 40.6 200.7 50.6z"/></defs><clipPath id="SVGID_19_"><use xlink:href="#SVGID_169_" overflow="visible"/></clipPath><linearGradient id="SVGID_21_" gradientUnits="userSpaceOnUse" x1="3096.0173" y1="-1838.4507" x2="3097.999" y2="-1838.4507" gradientTransform="matrix(141.7833 -252.922 -252.922 -141.7833 -903763.8125 522715.5938)"><stop offset="0" style="stop-color:#00aced"/><stop offset=".4959" style="stop-color:#2b2a68"/><stop offset=".9947" style="stop-color:#aa2e8d"/><stop offset="1" style="stop-color:#aa2e8d"/></linearGradient><path clip-path="url(#SVGID_19_)" fill="url(#SVGID_21_)" d="M83.6 249 210.4 22.8 429.6 145.7 302.8 371.9z"/></g><g clip-path="url(#SVGID_5_)"><defs><path id="SVGID_172_" d="M274.3 343.3 287.4 345.9 191.4 61.2 182.6 71.2z"/></defs><clipPath id="SVGID_22_"><use xlink:href="#SVGID_172_" overflow="visible"/></clipPath><linearGradient id="SVGID_24_" gradientUnits="userSpaceOnUse" x1="3096.0173" y1="-1838.3958" x2="3097.999" y2="-1838.3958" gradientTransform="matrix(141.7833 -252.922 -252.922 -141.7833 -903763.8125 522715.5938)"><stop offset="0" style="stop-color:#00aced"/><stop offset=".4959" style="stop-color:#2b2a68"/><stop offset=".9947" style="stop-color:#aa2e8d"/><stop offset="1" style="stop-color:#aa2e8d"/></linearGradient><path clip-path="url(#SVGID_22_)" fill="url(#SVGID_24_)" d="M75.1 252.4 191.6 44.6 393 157.5 276.5 365.3z"/></g><g clip-path="url(#SVGID_5_)"><defs><path id="SVGID_175_" d="M247.4 337.9 260.5 340.5 173.3 81.8 164.4 91.8z"/></defs><clipPath id="SVGID_25_"><use xlink:href="#SVGID_175_" overflow="visible"/></clipPath><linearGradient id="SVGID_27_" gradientUnits="userSpaceOnUse" x1="3096.0173" y1="-1838.3407" x2="3097.999" y2="-1838.3407" gradientTransform="matrix(141.7833 -252.922 -252.922 -141.7833 -903763.8125 522715.5938)"><stop offset="0" style="stop-color:#00aced"/><stop offset=".4959" style="stop-color:#2b2a68"/><stop offset=".9947" style="stop-color:#aa2e8d"/><stop offset="1" style="stop-color:#aa2e8d"/></linearGradient><path clip-path="url(#SVGID_25_)" fill="url(#SVGID_27_)" d="M66.6 255.8 172.8 66.4 356.4 169.3 250.2 358.7z"/></g><g clip-path="url(#SVGID_5_)"><defs><path id="SVGID_178_" d="M220.5 332.5 233.5 335.1 155.1 102.4 146.3 112.4z"/></defs><clipPath id="SVGID_28_"><use xlink:href="#SVGID_178_" overflow="visible"/></clipPath><linearGradient id="SVGID_30_" gradientUnits="userSpaceOnUse" x1="3096.0173" y1="-1838.2856" x2="3097.999" y2="-1838.2856" gradientTransform="matrix(141.7833 -252.922 -252.922 -141.7833 -903763.8125 522715.5938)"><stop offset="0" style="stop-color:#00aced"/><stop offset=".4959" style="stop-color:#2b2a68"/><stop offset=".9947" style="stop-color:#aa2e8d"/><stop offset="1" style="stop-color:#aa2e8d"/></linearGradient><path clip-path="url(#SVGID_28_)" fill="url(#SVGID_30_)" d="M58.1 259.2 154 88.2 319.8 181.1 224 352.2z"/></g><g clip-path="url(#SVGID_5_)"><defs><path id="SVGID_181_" d="M193.5 327.1 206.6 329.7 136.9 123 128.1 133z"/></defs><clipPath id="SVGID_31_"><use xlink:href="#SVGID_181_" overflow="visible"/></clipPath><linearGradient id="SVGID_33_" gradientUnits="userSpaceOnUse" x1="3096.0173" y1="-1838.2307" x2="3097.999" y2="-1838.2307" gradientTransform="matrix(141.7833 -252.922 -252.922 -141.7833 -903763.8125 522715.5938)"><stop offset="0" style="stop-color:#00aced"/><stop offset=".4959" style="stop-color:#2b2a68"/><stop offset=".9947" style="stop-color:#aa2e8d"/><stop offset="1" style="stop-color:#aa2e8d"/></linearGradient><path clip-path="url(#SVGID_31_)" fill="url(#SVGID_33_)" d="M49.6 262.6 135.2 109.9 283.3 192.9 197.7 345.6z"/></g><g clip-path="url(#SVGID_5_)"><defs><path id="SVGID_184_" d="M166.6 321.7 179.7 324.3 118.8 143.6 110 153.6z"/></defs><clipPath id="SVGID_34_"><use xlink:href="#SVGID_184_" overflow="visible"/></clipPath><linearGradient id="SVGID_36_" gradientUnits="userSpaceOnUse" x1="3096.0173" y1="-1838.1757" x2="3097.999" y2="-1838.1757" gradientTransform="matrix(141.7833 -252.922 -252.922 -141.7833 -903763.8125 522715.5938)"><stop offset="0" style="stop-color:#00aced"/><stop offset=".4959" style="stop-color:#2b2a68"/><stop offset=".9947" style="stop-color:#aa2e8d"/><stop offset="1" style="stop-color:#aa2e8d"/></linearGradient><path clip-path="url(#SVGID_34_)" fill="url(#SVGID_36_)" d="M41.1 266 116.4 131.7 246.7 204.8 171.4 339z"/></g><g clip-path="url(#SVGID_5_)"><defs><path id="SVGID_187_" d="M139.7 316.2 152.7 318.9 100.6 164.2 91.8 174.2z"/></defs><clipPath id="SVGID_37_"><use xlink:href="#SVGID_187_" overflow="visible"/></clipPath><linearGradient id="SVGID_39_" gradientUnits="userSpaceOnUse" x1="3096.0173" y1="-1838.1207" x2="3097.999" y2="-1838.1207" gradientTransform="matrix(141.7833 -252.922 -252.922 -141.7833 -903763.8125 522715.5938)"><stop offset="0" style="stop-color:#00aced"/><stop offset=".4959" style="stop-color:#2b2a68"/><stop offset=".9947" style="stop-color:#aa2e8d"/><stop offset="1" style="stop-color:#aa2e8d"/></linearGradient><path clip-path="url(#SVGID_37_)" fill="url(#SVGID_39_)" d="M32.6 269.3 97.5 153.5 210.1 216.6 145.1 332.4z"/></g><g clip-path="url(#SVGID_5_)"><defs><path id="SVGID_190_" d="M112.8 310.8 125.8 313.4 82.5 184.9 73.7 194.9z"/></defs><clipPath id="SVGID_40_"><use xlink:href="#SVGID_190_" overflow="visible"/></clipPath><linearGradient id="SVGID_42_" gradientUnits="userSpaceOnUse" x1="3096.0173" y1="-1838.0657" x2="3097.999" y2="-1838.0657" gradientTransform="matrix(141.7833 -252.922 -252.922 -141.7833 -903763.8125 522715.5938)"><stop offset="0" style="stop-color:#00aced"/><stop offset=".4959" style="stop-color:#2b2a68"/><stop offset=".9947" style="stop-color:#aa2e8d"/><stop offset="1" style="stop-color:#aa2e8d"/></linearGradient><path clip-path="url(#SVGID_40_)" fill="url(#SVGID_42_)" d="M24.1 272.7l54.6-97.5L173.5 228.4 118.9 325.9z"/></g><g clip-path="url(#SVGID_5_)"><defs><path id="SVGID_193_" d="M85.8 305.4 98.9 308 64.3 205.5 55.5 215.5z"/></defs><clipPath id="SVGID_43_"><use xlink:href="#SVGID_193_" overflow="visible"/></clipPath><linearGradient id="SVGID_45_" gradientUnits="userSpaceOnUse" x1="3096.0173" y1="-1838.0107" x2="3097.999" y2="-1838.0107" gradientTransform="matrix(141.7833 -252.922 -252.922 -141.7833 -903763.8125 522715.5938)"><stop offset="0" style="stop-color:#00aced"/><stop offset=".4959" style="stop-color:#2b2a68"/><stop offset=".9947" style="stop-color:#aa2e8d"/><stop offset="1" style="stop-color:#aa2e8d"/></linearGradient><path clip-path="url(#SVGID_43_)" fill="url(#SVGID_45_)" d="M15.6 276.1 59.9 197 136.9 240.2 92.6 319.3z"/></g><g clip-path="url(#SVGID_5_)"><defs><path id="SVGID_196_" d="M58.9 3e2 72 302.6 46.2 226.1 37.4 236.1z"/></defs><clipPath id="SVGID_46_"><use xlink:href="#SVGID_196_" overflow="visible"/></clipPath><linearGradient id="SVGID_48_" gradientUnits="userSpaceOnUse" x1="3096.0173" y1="-1837.9557" x2="3097.999" y2="-1837.9557" gradientTransform="matrix(141.7833 -252.922 -252.922 -141.7833 -903763.8125 522715.5938)"><stop offset="0" style="stop-color:#00aced"/><stop offset=".4959" style="stop-color:#2b2a68"/><stop offset=".9947" style="stop-color:#aa2e8d"/><stop offset="1" style="stop-color:#aa2e8d"/></linearGradient><path clip-path="url(#SVGID_46_)" fill="url(#SVGID_48_)" d="M7.1 279.5 41.1 218.8 100.4 252 66.3 312.7z"/></g><g clip-path="url(#SVGID_5_)"><defs><path id="SVGID_199_" d="M32 294.6 45 297.2 28 246.7l-8.8 10z"/></defs><clipPath id="SVGID_49_"><use xlink:href="#SVGID_199_" overflow="visible"/></clipPath><linearGradient id="SVGID_51_" gradientUnits="userSpaceOnUse" x1="3096.0173" y1="-1837.9008" x2="3097.999" y2="-1837.9008" gradientTransform="matrix(141.7833 -252.922 -252.922 -141.7833 -903763.8125 522715.5938)"><stop offset="0" style="stop-color:#00aced"/><stop offset=".4959" style="stop-color:#2b2a68"/><stop offset=".9947" style="stop-color:#aa2e8d"/><stop offset="1" style="stop-color:#aa2e8d"/></linearGradient><path clip-path="url(#SVGID_49_)" fill="url(#SVGID_51_)" d="M-1.4 282.9 22.3 240.5 63.8 263.8 40 306.1z"/></g><g clip-path="url(#SVGID_5_)"><defs><path id="SVGID_202_" d="M5 289.2 18.1 291.8 9.9 267.3l-8.8 10z"/></defs><clipPath id="SVGID_52_"><use xlink:href="#SVGID_202_" overflow="visible"/></clipPath><linearGradient id="SVGID_54_" gradientUnits="userSpaceOnUse" x1="3096.0173" y1="-1837.8457" x2="3097.999" y2="-1837.8457" gradientTransform="matrix(141.7833 -252.922 -252.922 -141.7833 -903763.8125 522715.5938)"><stop offset="0" style="stop-color:#00aced"/><stop offset=".4959" style="stop-color:#2b2a68"/><stop offset=".9947" style="stop-color:#aa2e8d"/><stop offset="1" style="stop-color:#aa2e8d"/></linearGradient><path clip-path="url(#SVGID_52_)" fill="url(#SVGID_54_)" d="M-9.9 286.3l13.4-24L27.2 275.6 13.8 299.6z"/></g></g></g></g></g></g><g id="modules" display="none"/><g id="comments" display="none"/><g id="grid" display="none"/></svg>