<svg xmlns="http://www.w3.org/2000/svg" xmlns:xlink="http://www.w3.org/1999/xlink" id="Layer_1" viewBox="0 0 315.9 293.5" style="enable-background:new 0 0 315.9 293.5" class="mdl-js"><style>.st0{clip-path:url(#SVGID_2_)}.st1{opacity:.1;clip-path:url(#SVGID_4_)}.st2{clip-path:url(#SVGID_6_)}.st3{clip-path:url(#SVGID_8_)}.st4{clip-path:url(#SVGID_10_);fill:url(#SVGID_11_)}.st5{clip-path:url(#SVGID_13_)}.st6{clip-path:url(#SVGID_15_);fill:url(#SVGID_16_)}.st7{clip-path:url(#SVGID_18_);fill:url(#SVGID_19_)}.st8{clip-path:url(#SVGID_21_);fill:url(#SVGID_22_)}.st9{clip-path:url(#SVGID_24_);fill:url(#SVGID_25_)}.st10{clip-path:url(#SVGID_27_);fill:url(#SVGID_28_)}.st11{clip-path:url(#SVGID_30_);fill:url(#SVGID_31_)}.st12{clip-path:url(#SVGID_33_);fill:url(#SVGID_34_)}.st13{clip-path:url(#SVGID_36_);fill:url(#SVGID_37_)}.st14{clip-path:url(#SVGID_39_);fill:url(#SVGID_40_)}.st15{clip-path:url(#SVGID_42_);fill:url(#SVGID_43_)}.st16{clip-path:url(#SVGID_45_);fill:url(#SVGID_46_)}.st17{clip-path:url(#SVGID_48_);fill:url(#SVGID_49_)}.st18{clip-path:url(#SVGID_51_);fill:url(#SVGID_52_)}.st19{clip-path:url(#SVGID_54_);fill:url(#SVGID_55_)}.st20{clip-path:url(#SVGID_57_);fill:url(#SVGID_58_)}.st21{clip-path:url(#SVGID_60_)}.st22{opacity:.1;clip-path:url(#SVGID_62_)}.st23{clip-path:url(#SVGID_64_)}.st24{clip-path:url(#SVGID_66_)}.st25{clip-path:url(#SVGID_68_);fill:url(#SVGID_69_)}.st26{clip-path:url(#SVGID_71_)}.st27{clip-path:url(#SVGID_73_);fill:url(#SVGID_74_)}.st28{clip-path:url(#SVGID_76_);fill:url(#SVGID_77_)}.st29{clip-path:url(#SVGID_79_);fill:url(#SVGID_80_)}.st30{clip-path:url(#SVGID_82_);fill:url(#SVGID_83_)}.st31{clip-path:url(#SVGID_85_);fill:url(#SVGID_86_)}.st32{clip-path:url(#SVGID_88_);fill:url(#SVGID_89_)}.st33{clip-path:url(#SVGID_91_);fill:url(#SVGID_92_)}.st34{clip-path:url(#SVGID_94_);fill:url(#SVGID_95_)}.st35{clip-path:url(#SVGID_97_);fill:url(#SVGID_98_)}.st36{clip-path:url(#SVGID_100_);fill:url(#SVGID_101_)}.st37{clip-path:url(#SVGID_103_);fill:url(#SVGID_104_)}.st38{clip-path:url(#SVGID_106_);fill:url(#SVGID_107_)}.st39{clip-path:url(#SVGID_109_);fill:url(#SVGID_110_)}.st40{clip-path:url(#SVGID_112_);fill:url(#SVGID_113_)}.st41{clip-path:url(#SVGID_115_);fill:url(#SVGID_116_)}.st42{clip-path:url(#SVGID_118_)}.st43{clip-path:url(#SVGID_120_)}.st44{opacity:.1;clip-path:url(#SVGID_122_)}.st45{clip-path:url(#SVGID_124_)}.st46{clip-path:url(#SVGID_126_)}.st47{clip-path:url(#SVGID_128_);fill:url(#SVGID_129_)}.st48{clip-path:url(#SVGID_131_)}.st49{clip-path:url(#SVGID_133_);fill:url(#SVGID_134_)}.st50{clip-path:url(#SVGID_136_);fill:url(#SVGID_137_)}.st51{clip-path:url(#SVGID_139_);fill:url(#SVGID_140_)}.st52{clip-path:url(#SVGID_142_);fill:url(#SVGID_143_)}.st53{clip-path:url(#SVGID_145_);fill:url(#SVGID_146_)}.st54{clip-path:url(#SVGID_148_);fill:url(#SVGID_149_)}.st55{clip-path:url(#SVGID_151_);fill:url(#SVGID_152_)}.st56{clip-path:url(#SVGID_154_);fill:url(#SVGID_155_)}.st57{clip-path:url(#SVGID_157_);fill:url(#SVGID_158_)}.st58{clip-path:url(#SVGID_160_);fill:url(#SVGID_161_)}.st59{clip-path:url(#SVGID_163_);fill:url(#SVGID_164_)}.st60{clip-path:url(#SVGID_166_);fill:url(#SVGID_167_)}.st61{clip-path:url(#SVGID_169_);fill:url(#SVGID_170_)}.st62{clip-path:url(#SVGID_172_);fill:url(#SVGID_173_)}.st63{clip-path:url(#SVGID_175_);fill:url(#SVGID_176_)}.st64{clip-path:url(#SVGID_178_)}.st65{clip-path:url(#SVGID_180_)}.st66{clip-path:url(#SVGID_182_)}.st67{clip-path:url(#SVGID_184_)}.st68{clip-path:url(#SVGID_186_);fill:url(#SVGID_187_)}.st69{clip-path:url(#SVGID_189_);fill:url(#SVGID_190_)}.st70{clip-path:url(#SVGID_192_);fill:url(#SVGID_193_)}.st71{clip-path:url(#SVGID_195_);fill:url(#SVGID_196_)}.st72{clip-path:url(#SVGID_198_);fill:url(#SVGID_199_)}.st73{clip-path:url(#SVGID_201_);fill:url(#SVGID_202_)}.st74{clip-path:url(#SVGID_204_);fill:url(#SVGID_205_)}.st75{clip-path:url(#SVGID_207_);fill:url(#SVGID_208_)}.st76{clip-path:url(#SVGID_210_);fill:url(#SVGID_211_)}.st77{clip-path:url(#SVGID_213_);fill:url(#SVGID_214_)}.st78{clip-path:url(#SVGID_216_);fill:url(#SVGID_217_)}.st79{clip-path:url(#SVGID_219_);fill:url(#SVGID_220_)}.st80{clip-path:url(#SVGID_222_);fill:url(#SVGID_223_)}.st81{clip-path:url(#SVGID_225_);fill:url(#SVGID_226_)}.st82{clip-path:url(#SVGID_228_);fill:url(#SVGID_229_)}</style><g><defs><path id="SVGID_1_" transform="matrix(0.6408 -0.7677 0.7677 0.6408 -175.0583 -154.4477)" d="M-452.1-110.6H-53v440.9H-452.1z"/></defs><clipPath id="SVGID_2_"><use xlink:href="#SVGID_1_" style="overflow:visible"/></clipPath><g class="st0"><defs><path id="SVGID_3_" transform="matrix(0.6408 -0.7677 0.7677 0.6408 -175.0583 -154.4477)" d="M-452.1-110.6H-53v440.9H-452.1z"/></defs><clipPath id="SVGID_4_"><use xlink:href="#SVGID_3_" style="overflow:visible"/></clipPath><g class="st1"><g><defs><path id="SVGID_5_" transform="matrix(0.6408 -0.7677 0.7677 0.6408 -234.8548 -221.737)" d="M-660.1-156h611.5v592.2H-660.1z"/></defs><clipPath id="SVGID_6_"><use xlink:href="#SVGID_5_" style="overflow:visible"/></clipPath><g class="st2"><defs><path id="SVGID_7_" d="M-549.6 121.9-189 377.7-147.8-62.3-148.3-62.4-549.6 121.8z"/></defs><clipPath id="SVGID_8_"><use xlink:href="#SVGID_7_" style="overflow:visible"/></clipPath><g class="st3"><defs><path id="SVGID_9_" transform="matrix(9.326836e-02 -0.9956 0.9956 9.326836e-02 -304.3835 44.2783)" d="M-470.1 182.7h684.4v13.2H-470.1z"/></defs><clipPath id="SVGID_10_"><use xlink:href="#SVGID_9_" style="overflow:visible"/></clipPath><linearGradient id="SVGID_11_" gradientUnits="userSpaceOnUse" x1="-553.7059" y1="572.8615" x2="-552.1485" y2="572.8615" gradientTransform="matrix(337.4514 -251.9717 -251.9717 -337.4514 330881.625 54121.5352)"><stop offset="0" style="stop-color:#00aced"/><stop offset=".4959" style="stop-color:#2b2a68"/><stop offset=".9947" style="stop-color:#aa2e8d"/><stop offset="1" style="stop-color:#aa2e8d"/></linearGradient><path class="st4" d="M-543.2 174.8-23.7-213.1 287.5 203.7-232 591.6z"/></g></g><g class="st2"><defs><path id="SVGID_12_" d="M-549.6 121.9-189 377.7-147.8-62.3-148.3-62.4-549.6 121.8z"/></defs><clipPath id="SVGID_13_"><use xlink:href="#SVGID_12_" style="overflow:visible"/></clipPath><g class="st5"><defs><path id="SVGID_14_" transform="matrix(9.326839e-02 -0.9956 0.9956 9.326839e-02 -326.3756 15.0645)" d="M-497.1 180.1h684.4v13.2H-497.1z"/></defs><clipPath id="SVGID_15_"><use xlink:href="#SVGID_14_" style="overflow:visible"/></clipPath><linearGradient id="SVGID_16_" gradientUnits="userSpaceOnUse" x1="-553.7059" y1="572.9047" x2="-552.1485" y2="572.9047" gradientTransform="matrix(337.4514 -251.9717 -251.9717 -337.4514 330881.625 54121.5352)"><stop offset="0" style="stop-color:#00aced"/><stop offset=".4959" style="stop-color:#2b2a68"/><stop offset=".9947" style="stop-color:#aa2e8d"/><stop offset="1" style="stop-color:#aa2e8d"/></linearGradient><path class="st6" d="M-570.3 172.3-50.8-215.6 260.4 201.2-259.1 589.1z"/></g></g><g class="st2"><defs><path id="SVGID_17_" d="M-205.6 365.9-193.2 374.7-152.4-60.5-166.2-54.1z"/></defs><clipPath id="SVGID_18_"><use xlink:href="#SVGID_17_" style="overflow:visible"/></clipPath><linearGradient id="SVGID_19_" gradientUnits="userSpaceOnUse" x1="-553.7059" y1="572.9937" x2="-552.1485" y2="572.9937" gradientTransform="matrix(337.4514 -251.9717 -251.9717 -337.4514 330881.625 54121.5352)"><stop offset="0" style="stop-color:#00aced"/><stop offset=".4959" style="stop-color:#2b2a68"/><stop offset=".9947" style="stop-color:#aa2e8d"/><stop offset="1" style="stop-color:#aa2e8d"/></linearGradient><path class="st7" d="M-439.2 145.7-110.3-99.9 87.8 165.3-241.1 410.9z"/></g><g class="st2"><defs><path id="SVGID_20_" d="M-231.2 347.8-218.8 356.6-180.9-47.4-194.7-41.1z"/></defs><clipPath id="SVGID_21_"><use xlink:href="#SVGID_20_" style="overflow:visible"/></clipPath><linearGradient id="SVGID_22_" gradientUnits="userSpaceOnUse" x1="-553.7059" y1="573.0369" x2="-552.1485" y2="573.0369" gradientTransform="matrix(337.4514 -251.9717 -251.9717 -337.4514 330881.625 54121.5352)"><stop offset="0" style="stop-color:#00aced"/><stop offset=".4959" style="stop-color:#2b2a68"/><stop offset=".9947" style="stop-color:#aa2e8d"/><stop offset="1" style="stop-color:#aa2e8d"/></linearGradient><path class="st8" d="M-447.5 143.7-142-84.4 42.1 162.2-263.4 390.3z"/></g></g></g></g></g><g><defs><path id="SVGID_59_" transform="matrix(7.915886e-02 -0.9969 0.9969 7.915886e-02 -19.6833 289.3781)" d="M3.5-2.9H290v316.5H3.5z"/></defs><clipPath id="SVGID_24_"><use xlink:href="#SVGID_59_" style="overflow:visible"/></clipPath><g style="clip-path:url(#SVGID_24_)"><defs><path id="SVGID_61_" transform="matrix(7.915886e-02 -0.9969 0.9969 7.915886e-02 -19.6833 289.3781)" d="M3.5-2.9H290v316.5H3.5z"/></defs><clipPath id="SVGID_25_"><use xlink:href="#SVGID_61_" style="overflow:visible"/></clipPath><g style="opacity:.1;clip-path:url(#SVGID_25_)"><g><defs><path id="SVGID_63_" transform="matrix(7.915886e-02 -0.9969 0.9969 7.915886e-02 12.657 191.0934)" d="M-109.7-123.9h439v425.2h-439z"/></defs><clipPath id="SVGID_27_"><use xlink:href="#SVGID_63_" style="overflow:visible"/></clipPath><g style="clip-path:url(#SVGID_27_)"><defs><path id="SVGID_65_" d="M.5.0 313.9 49.9 114.1 296.3 113.8 296.1.4.1z"/></defs><clipPath id="SVGID_28_"><use xlink:href="#SVGID_65_" style="overflow:visible"/></clipPath><g style="clip-path:url(#SVGID_28_)"><defs><path id="SVGID_67_" transform="matrix(0.6299 -0.7767 0.7767 0.6299 -44.8897 260.2688)" d="M5 172.5h491.3v9.5H5z"/></defs><clipPath id="SVGID_30_"><use xlink:href="#SVGID_67_" style="overflow:visible"/></clipPath><linearGradient id="SVGID_31_" gradientUnits="userSpaceOnUse" x1="-551.7922" y1="564.3495" x2="-550.6742" y2="564.3495" gradientTransform="matrix(64.8634 416.1201 -416.1201 64.8634 270853.5 193020.3594)"><stop offset="0" style="stop-color:#00aced"/><stop offset=".4959" style="stop-color:#2b2a68"/><stop offset=".9947" style="stop-color:#aa2e8d"/><stop offset="1" style="stop-color:#aa2e8d"/></linearGradient><path class="st11" d="M30.3-23.9 102 435.9l368.9-57.5L399.3-81.5z"/></g></g><g style="clip-path:url(#SVGID_27_)"><defs><path id="SVGID_70_" d="M.5.0 313.9 49.9 114.1 296.3 113.8 296.1.4.1z"/></defs><clipPath id="SVGID_33_"><use xlink:href="#SVGID_70_" style="overflow:visible"/></clipPath><g style="clip-path:url(#SVGID_33_)"><defs><path id="SVGID_72_" transform="matrix(0.6299 -0.7767 0.7767 0.6299 -40.9573 243.9649)" d="M-10.2 160.2h491.3v9.5H-10.2z"/></defs><clipPath id="SVGID_34_"><use xlink:href="#SVGID_72_" style="overflow:visible"/></clipPath><linearGradient id="SVGID_36_" gradientUnits="userSpaceOnUse" x1="-551.7922" y1="564.3806" x2="-550.6742" y2="564.3806" gradientTransform="matrix(64.8634 416.1201 -416.1201 64.8634 270853.5 193020.3594)"><stop offset="0" style="stop-color:#00aced"/><stop offset=".4959" style="stop-color:#2b2a68"/><stop offset=".9947" style="stop-color:#aa2e8d"/><stop offset="1" style="stop-color:#aa2e8d"/></linearGradient><path style="clip-path:url(#SVGID_34_);fill:url(#SVGID_36_)" d="M15.2-36.2 86.9 423.6l368.9-57.5L384.1-93.7z"/></g></g><g style="clip-path:url(#SVGID_27_)"><defs><path id="SVGID_75_" d="M299.5 47.6 310.3 49.3 112.6 293 108.7 282.8z"/></defs><clipPath id="SVGID_37_"><use xlink:href="#SVGID_75_" style="overflow:visible"/></clipPath><linearGradient id="SVGID_39_" gradientUnits="userSpaceOnUse" x1="-551.7922" y1="564.4445" x2="-550.6742" y2="564.4445" gradientTransform="matrix(64.8634 416.1201 -416.1201 64.8634 270853.5 193020.3594)"><stop offset="0" style="stop-color:#00aced"/><stop offset=".4959" style="stop-color:#2b2a68"/><stop offset=".9947" style="stop-color:#aa2e8d"/><stop offset="1" style="stop-color:#aa2e8d"/></linearGradient><path style="clip-path:url(#SVGID_37_);fill:url(#SVGID_39_)" d="M69.1 43.3 114.5 334.4 349.2 297.8 303.8 6.7z"/></g><g style="clip-path:url(#SVGID_27_)"><defs><path id="SVGID_78_" d="M277.3 44.1 288 45.8 104.6 272 100.7 261.8z"/></defs><clipPath id="SVGID_40_"><use xlink:href="#SVGID_78_" style="overflow:visible"/></clipPath><linearGradient id="SVGID_42_" gradientUnits="userSpaceOnUse" x1="-551.7922" y1="564.4755" x2="-550.6742" y2="564.4755" gradientTransform="matrix(64.8634 416.1201 -416.1201 64.8634 270853.5 193020.3594)"><stop offset="0" style="stop-color:#00aced"/><stop offset=".4959" style="stop-color:#2b2a68"/><stop offset=".9947" style="stop-color:#aa2e8d"/><stop offset="1" style="stop-color:#aa2e8d"/></linearGradient><path style="clip-path:url(#SVGID_40_);fill:url(#SVGID_42_)" d="M63.8 40.1 106 310.5l218.2-34L282.1 6.1z"/></g><g style="clip-path:url(#SVGID_27_)"><defs><path id="SVGID_81_" d="M255 40.5 265.8 42.2 96.5 251 92.6 240.8z"/></defs><clipPath id="SVGID_43_"><use xlink:href="#SVGID_81_" style="overflow:visible"/></clipPath><linearGradient id="SVGID_45_" gradientUnits="userSpaceOnUse" x1="-551.7922" y1="564.5065" x2="-550.6742" y2="564.5065" gradientTransform="matrix(64.8634 416.1201 -416.1201 64.8634 270853.5 193020.3594)"><stop offset="0" style="stop-color:#00aced"/><stop offset=".4959" style="stop-color:#2b2a68"/><stop offset=".9947" style="stop-color:#aa2e8d"/><stop offset="1" style="stop-color:#aa2e8d"/></linearGradient><path style="clip-path:url(#SVGID_43_);fill:url(#SVGID_45_)" d="M58.5 36.9 97.4 286.5 299.2 255.1 260.3 5.4z"/></g><g style="clip-path:url(#SVGID_27_)"><defs><path id="SVGID_84_" d="M232.8 37 243.6 38.7 88.5 230 84.6 219.8z"/></defs><clipPath id="SVGID_46_"><use xlink:href="#SVGID_84_" style="overflow:visible"/></clipPath><linearGradient id="SVGID_48_" gradientUnits="userSpaceOnUse" x1="-551.7922" y1="564.5375" x2="-550.6742" y2="564.5375" gradientTransform="matrix(64.8634 416.1201 -416.1201 64.8634 270853.5 193020.3594)"><stop offset="0" style="stop-color:#00aced"/><stop offset=".4959" style="stop-color:#2b2a68"/><stop offset=".9947" style="stop-color:#aa2e8d"/><stop offset="1" style="stop-color:#aa2e8d"/></linearGradient><path style="clip-path:url(#SVGID_46_);fill:url(#SVGID_48_)" d="M53.3 33.7 88.9 262.6 274.2 233.7 238.5 4.8z"/></g><g style="clip-path:url(#SVGID_27_)"><defs><path id="SVGID_87_" d="M210.6 33.4 221.4 35.2 80.4 208.9 76.5 198.7z"/></defs><clipPath id="SVGID_49_"><use xlink:href="#SVGID_87_" style="overflow:visible"/></clipPath><linearGradient id="SVGID_51_" gradientUnits="userSpaceOnUse" x1="-551.7922" y1="564.5685" x2="-550.6742" y2="564.5685" gradientTransform="matrix(64.8634 416.1201 -416.1201 64.8634 270853.5 193020.3594)"><stop offset="0" style="stop-color:#00aced"/><stop offset=".4959" style="stop-color:#2b2a68"/><stop offset=".9947" style="stop-color:#aa2e8d"/><stop offset="1" style="stop-color:#aa2e8d"/></linearGradient><path style="clip-path:url(#SVGID_49_);fill:url(#SVGID_51_)" d="M48 30.5 80.4 238.7 249.2 212.4 216.7 4.2z"/></g><g style="clip-path:url(#SVGID_27_)"><defs><path id="SVGID_90_" d="M188.3 29.9 199.1 31.6 72.4 187.9 68.5 177.7z"/></defs><clipPath id="SVGID_52_"><use xlink:href="#SVGID_90_" style="overflow:visible"/></clipPath><linearGradient id="SVGID_54_" gradientUnits="userSpaceOnUse" x1="-551.7922" y1="564.5996" x2="-550.6742" y2="564.5996" gradientTransform="matrix(64.8634 416.1201 -416.1201 64.8634 270853.5 193020.3594)"><stop offset="0" style="stop-color:#00aced"/><stop offset=".4959" style="stop-color:#2b2a68"/><stop offset=".9947" style="stop-color:#aa2e8d"/><stop offset="1" style="stop-color:#aa2e8d"/></linearGradient><path style="clip-path:url(#SVGID_52_);fill:url(#SVGID_54_)" d="M42.7 27.3 71.9 214.7 224.2 191 195 3.6z"/></g><g style="clip-path:url(#SVGID_27_)"><defs><path id="SVGID_93_" d="M166.1 26.4 176.9 28.1 64.3 166.9 60.4 156.7z"/></defs><clipPath id="SVGID_55_"><use xlink:href="#SVGID_93_" style="overflow:visible"/></clipPath><linearGradient id="SVGID_57_" gradientUnits="userSpaceOnUse" x1="-551.7922" y1="564.6306" x2="-550.6742" y2="564.6306" gradientTransform="matrix(64.8634 416.1201 -416.1201 64.8634 270853.5 193020.3594)"><stop offset="0" style="stop-color:#00aced"/><stop offset=".4959" style="stop-color:#2b2a68"/><stop offset=".9947" style="stop-color:#aa2e8d"/><stop offset="1" style="stop-color:#aa2e8d"/></linearGradient><path style="clip-path:url(#SVGID_55_);fill:url(#SVGID_57_)" d="M37.4 24.1 63.4 190.8 199.2 169.6 173.2 3z"/></g><g style="clip-path:url(#SVGID_27_)"><defs><path id="SVGID_96_" d="M143.9 22.8 154.7 24.5 56.3 145.9 52.4 135.7z"/></defs><clipPath id="SVGID_58_"><use xlink:href="#SVGID_96_" style="overflow:visible"/></clipPath><linearGradient id="SVGID_60_" gradientUnits="userSpaceOnUse" x1="-551.7922" y1="564.6616" x2="-550.6742" y2="564.6616" gradientTransform="matrix(64.8634 416.1201 -416.1201 64.8634 270853.5 193020.3594)"><stop offset="0" style="stop-color:#00aced"/><stop offset=".4959" style="stop-color:#2b2a68"/><stop offset=".9947" style="stop-color:#aa2e8d"/><stop offset="1" style="stop-color:#aa2e8d"/></linearGradient><path style="clip-path:url(#SVGID_58_);fill:url(#SVGID_60_)" d="M32.2 20.9 54.9 166.9 174.2 148.3 151.4 2.4z"/></g><g style="clip-path:url(#SVGID_27_)"><defs><path id="SVGID_99_" d="M121.7 19.3 132.4 21 48.2 124.9 44.3 114.7z"/></defs><clipPath id="SVGID_62_"><use xlink:href="#SVGID_99_" style="overflow:visible"/></clipPath><linearGradient id="SVGID_64_" gradientUnits="userSpaceOnUse" x1="-551.7922" y1="564.6927" x2="-550.6742" y2="564.6927" gradientTransform="matrix(64.8634 416.1201 -416.1201 64.8634 270853.5 193020.3594)"><stop offset="0" style="stop-color:#00aced"/><stop offset=".4959" style="stop-color:#2b2a68"/><stop offset=".9947" style="stop-color:#aa2e8d"/><stop offset="1" style="stop-color:#aa2e8d"/></linearGradient><path style="clip-path:url(#SVGID_62_);fill:url(#SVGID_64_)" d="M26.9 17.8 46.4 142.9 149.2 126.9 129.6 1.7z"/></g><g style="clip-path:url(#SVGID_27_)"><defs><path id="SVGID_102_" d="M99.4 15.8 110.2 17.5l-70 86.3L36.3 93.6z"/></defs><clipPath id="SVGID_66_"><use xlink:href="#SVGID_102_" style="overflow:visible"/></clipPath><linearGradient id="SVGID_68_" gradientUnits="userSpaceOnUse" x1="-551.7922" y1="564.7237" x2="-550.6742" y2="564.7237" gradientTransform="matrix(64.8634 416.1201 -416.1201 64.8634 270853.5 193020.3594)"><stop offset="0" style="stop-color:#00aced"/><stop offset=".4959" style="stop-color:#2b2a68"/><stop offset=".9947" style="stop-color:#aa2e8d"/><stop offset="1" style="stop-color:#aa2e8d"/></linearGradient><path style="clip-path:url(#SVGID_66_);fill:url(#SVGID_68_)" d="M21.6 14.6 37.9 119 124.1 105.5 107.9 1.1z"/></g><g style="clip-path:url(#SVGID_27_)"><defs><path id="SVGID_105_" d="M77.2 12.2 88 13.9 32.1 82.8 28.2 72.6z"/></defs><clipPath id="SVGID_69_"><use xlink:href="#SVGID_105_" style="overflow:visible"/></clipPath><linearGradient id="SVGID_71_" gradientUnits="userSpaceOnUse" x1="-551.7922" y1="564.7548" x2="-550.6742" y2="564.7548" gradientTransform="matrix(64.8634 416.1201 -416.1201 64.8634 270853.5 193020.3594)"><stop offset="0" style="stop-color:#00aced"/><stop offset=".4959" style="stop-color:#2b2a68"/><stop offset=".9947" style="stop-color:#aa2e8d"/><stop offset="1" style="stop-color:#aa2e8d"/></linearGradient><path style="clip-path:url(#SVGID_69_);fill:url(#SVGID_71_)" d="M16.3 11.4 29.4 95 99.1 84.2 86.1.5z"/></g><g style="clip-path:url(#SVGID_27_)"><defs><path id="SVGID_108_" d="M55 8.7 65.8 10.4 24.1 61.8 20.2 51.6z"/></defs><clipPath id="SVGID_73_"><use xlink:href="#SVGID_108_" style="overflow:visible"/></clipPath><linearGradient id="SVGID_74_" gradientUnits="userSpaceOnUse" x1="-551.7922" y1="564.7858" x2="-550.6742" y2="564.7858" gradientTransform="matrix(64.8634 416.1201 -416.1201 64.8634 270853.5 193020.3594)"><stop offset="0" style="stop-color:#00aced"/><stop offset=".4959" style="stop-color:#2b2a68"/><stop offset=".9947" style="stop-color:#aa2e8d"/><stop offset="1" style="stop-color:#aa2e8d"/></linearGradient><path class="st27" d="M11.1 8.2 20.9 71.1 74.1 62.8 64.3-.1z"/></g><g style="clip-path:url(#SVGID_27_)"><defs><path id="SVGID_111_" d="M32.7 5.1 43.5 6.9 16 40.8 12.1 30.6z"/></defs><clipPath id="SVGID_76_"><use xlink:href="#SVGID_111_" style="overflow:visible"/></clipPath><linearGradient id="SVGID_77_" gradientUnits="userSpaceOnUse" x1="-551.7922" y1="564.8168" x2="-550.6742" y2="564.8168" gradientTransform="matrix(64.8634 416.1201 -416.1201 64.8634 270853.5 193020.3594)"><stop offset="0" style="stop-color:#00aced"/><stop offset=".4959" style="stop-color:#2b2a68"/><stop offset=".9947" style="stop-color:#aa2e8d"/><stop offset="1" style="stop-color:#aa2e8d"/></linearGradient><path class="st28" d="M5.8 5 12.4 47.2 49.1 41.4 42.5-.7z"/></g><g style="clip-path:url(#SVGID_27_)"><defs><path id="SVGID_114_" d="M10.5 1.6 21.3 3.3 8 19.8 4.1 9.6z"/></defs><clipPath id="SVGID_79_"><use xlink:href="#SVGID_114_" style="overflow:visible"/></clipPath><linearGradient id="SVGID_80_" gradientUnits="userSpaceOnUse" x1="-551.7922" y1="564.8478" x2="-550.6742" y2="564.8478" gradientTransform="matrix(64.8634 416.1201 -416.1201 64.8634 270853.5 193020.3594)"><stop offset="0" style="stop-color:#00aced"/><stop offset=".4959" style="stop-color:#2b2a68"/><stop offset=".9947" style="stop-color:#aa2e8d"/><stop offset="1" style="stop-color:#aa2e8d"/></linearGradient><path class="st29" d="M.5 1.8 3.9 23.2 24.1 20.1 20.8-1.4z"/></g></g></g></g></g><g><defs><path id="SVGID_117_" d="M209 .5h6e2v504H209z"/></defs><clipPath id="SVGID_82_"><use xlink:href="#SVGID_117_" style="overflow:visible"/></clipPath><g style="clip-path:url(#SVGID_82_)"><defs><path id="SVGID_119_" transform="matrix(0.2966 -0.955 0.955 0.2966 286.2013 701.7971)" d="M359.3-78h520.5v469.3H359.3z"/></defs><clipPath id="SVGID_83_"><use xlink:href="#SVGID_119_" style="overflow:visible"/></clipPath><g style="clip-path:url(#SVGID_83_)"><defs><path id="SVGID_121_" transform="matrix(0.2966 -0.955 0.955 0.2966 286.2013 701.7971)" d="M359.3-78h520.5v469.3H359.3z"/></defs><clipPath id="SVGID_85_"><use xlink:href="#SVGID_121_" style="overflow:visible"/></clipPath><g style="opacity:.1;clip-path:url(#SVGID_85_)"><g><defs><path id="SVGID_123_" transform="matrix(0.2966 -0.955 0.955 0.2966 404.3683 791.4096)" d="M389.8-238.3h699.3v719H389.8z"/></defs><clipPath id="SVGID_86_"><use xlink:href="#SVGID_123_" style="overflow:visible"/></clipPath><g style="clip-path:url(#SVGID_86_)"><defs><path id="SVGID_125_" d="M920.8-22.2 727.5 462.7 406.2 53.4 406.6 53 920.7-22.3z"/></defs><clipPath id="SVGID_88_"><use xlink:href="#SVGID_125_" style="overflow:visible"/></clipPath><g style="clip-path:url(#SVGID_88_)"><defs><path id="SVGID_127_" d="M801.8 627.4 304.2-6.4 292 3.2 789.6 637.1z"/></defs><clipPath id="SVGID_89_"><use xlink:href="#SVGID_127_" style="overflow:visible"/></clipPath><linearGradient id="SVGID_91_" gradientUnits="userSpaceOnUse" x1="-555.7267" y1="573.264" x2="-553.9001" y2="573.264" gradientTransform="matrix(-421.3708 -27.994 28.9047 -422.9073 -249920.3281 227213.7188)"><stop offset="0" style="stop-color:#00aced"/><stop offset=".4959" style="stop-color:#2b2a68"/><stop offset=".9947" style="stop-color:#aa2e8d"/><stop offset="1" style="stop-color:#aa2e8d"/></linearGradient><path style="clip-path:url(#SVGID_89_);fill:url(#SVGID_91_)" d="M948.2 34.3 187.4-16.2 145.6 596.3 906.4 646.9z"/></g></g><g style="clip-path:url(#SVGID_86_)"><defs><path id="SVGID_130_" d="M920.8-22.2 727.5 462.7 406.2 53.4 406.6 53 920.7-22.3z"/></defs><clipPath id="SVGID_92_"><use xlink:href="#SVGID_130_" style="overflow:visible"/></clipPath><g style="clip-path:url(#SVGID_92_)"><defs><path id="SVGID_132_" d="M826.9 607.6 329.3-26.3 317.1-16.7 814.7 617.2z"/></defs><clipPath id="SVGID_94_"><use xlink:href="#SVGID_132_" style="overflow:visible"/></clipPath><linearGradient id="SVGID_95_" gradientUnits="userSpaceOnUse" x1="-555.7267" y1="573.3147" x2="-553.9001" y2="573.3147" gradientTransform="matrix(-421.3708 -27.994 28.9047 -422.9073 -249920.3281 227213.7188)"><stop offset="0" style="stop-color:#00aced"/><stop offset=".4959" style="stop-color:#2b2a68"/><stop offset=".9947" style="stop-color:#aa2e8d"/><stop offset="1" style="stop-color:#aa2e8d"/></linearGradient><path class="st34" d="M973.3 14.4 212.6-36.1 170.7 576.5 931.5 627z"/></g></g></g></g></g></g></g></svg>