<svg xmlns="http://www.w3.org/2000/svg" xmlns:xlink="http://www.w3.org/1999/xlink" id="Layer_1" viewBox="0 0 397 458" style="enable-background:new 0 0 397 458" class="mdl-js"><style>.st0{clip-path:url(#SVGID_2_)}.st1{opacity:.1;clip-path:url(#SVGID_4_)}.st2{clip-path:url(#SVGID_6_)}.st3{clip-path:url(#SVGID_8_)}.st4{clip-path:url(#SVGID_10_);fill:url(#SVGID_11_)}.st5{clip-path:url(#SVGID_13_)}.st6{clip-path:url(#SVGID_15_);fill:url(#SVGID_16_)}.st7{clip-path:url(#SVGID_18_);fill:url(#SVGID_19_)}.st8{clip-path:url(#SVGID_21_);fill:url(#SVGID_22_)}.st9{clip-path:url(#SVGID_24_);fill:url(#SVGID_25_)}.st10{clip-path:url(#SVGID_27_);fill:url(#SVGID_28_)}.st11{clip-path:url(#SVGID_30_);fill:url(#SVGID_31_)}.st12{clip-path:url(#SVGID_33_);fill:url(#SVGID_34_)}.st13{clip-path:url(#SVGID_36_);fill:url(#SVGID_37_)}.st14{clip-path:url(#SVGID_39_);fill:url(#SVGID_40_)}.st15{clip-path:url(#SVGID_42_);fill:url(#SVGID_43_)}.st16{clip-path:url(#SVGID_45_);fill:url(#SVGID_46_)}.st17{clip-path:url(#SVGID_48_);fill:url(#SVGID_49_)}.st18{clip-path:url(#SVGID_51_);fill:url(#SVGID_52_)}.st19{clip-path:url(#SVGID_54_);fill:url(#SVGID_55_)}.st20{clip-path:url(#SVGID_57_);fill:url(#SVGID_58_)}.st21{clip-path:url(#SVGID_60_)}.st22{opacity:.1;clip-path:url(#SVGID_62_)}.st23{clip-path:url(#SVGID_64_)}.st24{clip-path:url(#SVGID_66_)}.st25{clip-path:url(#SVGID_68_);fill:url(#SVGID_69_)}.st26{clip-path:url(#SVGID_71_)}.st27{clip-path:url(#SVGID_73_);fill:url(#SVGID_74_)}.st28{clip-path:url(#SVGID_76_);fill:url(#SVGID_77_)}.st29{clip-path:url(#SVGID_79_);fill:url(#SVGID_80_)}.st30{clip-path:url(#SVGID_82_);fill:url(#SVGID_83_)}.st31{clip-path:url(#SVGID_85_);fill:url(#SVGID_86_)}.st32{clip-path:url(#SVGID_88_);fill:url(#SVGID_89_)}.st33{clip-path:url(#SVGID_91_);fill:url(#SVGID_92_)}.st34{clip-path:url(#SVGID_94_);fill:url(#SVGID_95_)}.st35{clip-path:url(#SVGID_97_);fill:url(#SVGID_98_)}.st36{clip-path:url(#SVGID_100_);fill:url(#SVGID_101_)}.st37{clip-path:url(#SVGID_103_);fill:url(#SVGID_104_)}.st38{clip-path:url(#SVGID_106_);fill:url(#SVGID_107_)}.st39{clip-path:url(#SVGID_109_);fill:url(#SVGID_110_)}.st40{clip-path:url(#SVGID_112_);fill:url(#SVGID_113_)}.st41{clip-path:url(#SVGID_115_);fill:url(#SVGID_116_)}.st42{clip-path:url(#SVGID_118_)}.st43{clip-path:url(#SVGID_120_)}.st44{opacity:.1;clip-path:url(#SVGID_122_)}.st45{clip-path:url(#SVGID_124_)}.st46{clip-path:url(#SVGID_126_)}.st47{clip-path:url(#SVGID_128_);fill:url(#SVGID_129_)}.st48{clip-path:url(#SVGID_131_)}.st49{clip-path:url(#SVGID_133_);fill:url(#SVGID_134_)}.st50{clip-path:url(#SVGID_136_);fill:url(#SVGID_137_)}.st51{clip-path:url(#SVGID_139_);fill:url(#SVGID_140_)}.st52{clip-path:url(#SVGID_142_);fill:url(#SVGID_143_)}.st53{clip-path:url(#SVGID_145_);fill:url(#SVGID_146_)}.st54{clip-path:url(#SVGID_148_);fill:url(#SVGID_149_)}.st55{clip-path:url(#SVGID_151_);fill:url(#SVGID_152_)}.st56{clip-path:url(#SVGID_154_);fill:url(#SVGID_155_)}.st57{clip-path:url(#SVGID_157_);fill:url(#SVGID_158_)}.st58{clip-path:url(#SVGID_160_);fill:url(#SVGID_161_)}.st59{clip-path:url(#SVGID_163_);fill:url(#SVGID_164_)}.st60{clip-path:url(#SVGID_166_);fill:url(#SVGID_167_)}.st61{clip-path:url(#SVGID_169_);fill:url(#SVGID_170_)}.st62{clip-path:url(#SVGID_172_);fill:url(#SVGID_173_)}.st63{clip-path:url(#SVGID_175_);fill:url(#SVGID_176_)}.st64{clip-path:url(#SVGID_178_)}.st65{clip-path:url(#SVGID_180_)}.st66{clip-path:url(#SVGID_182_)}.st67{clip-path:url(#SVGID_184_)}.st68{clip-path:url(#SVGID_186_);fill:url(#SVGID_187_)}.st69{clip-path:url(#SVGID_189_);fill:url(#SVGID_190_)}.st70{clip-path:url(#SVGID_192_);fill:url(#SVGID_193_)}.st71{clip-path:url(#SVGID_195_);fill:url(#SVGID_196_)}.st72{clip-path:url(#SVGID_198_);fill:url(#SVGID_199_)}.st73{clip-path:url(#SVGID_201_);fill:url(#SVGID_202_)}.st74{clip-path:url(#SVGID_204_);fill:url(#SVGID_205_)}.st75{clip-path:url(#SVGID_207_);fill:url(#SVGID_208_)}.st76{clip-path:url(#SVGID_210_);fill:url(#SVGID_211_)}.st77{clip-path:url(#SVGID_213_);fill:url(#SVGID_214_)}.st78{clip-path:url(#SVGID_216_);fill:url(#SVGID_217_)}.st79{clip-path:url(#SVGID_219_);fill:url(#SVGID_220_)}.st80{clip-path:url(#SVGID_222_);fill:url(#SVGID_223_)}.st81{clip-path:url(#SVGID_225_);fill:url(#SVGID_226_)}.st82{clip-path:url(#SVGID_228_);fill:url(#SVGID_229_)}</style><g><defs><path id="SVGID_59_" transform="matrix(7.915886e-02 -0.9969 0.9969 7.915886e-02 -398.595 -121.7677)" d="M-408.5-3.4H-122v316.5H-408.5z"/></defs><clipPath id="SVGID_2_"><use xlink:href="#SVGID_59_" style="overflow:visible"/></clipPath><g class="st0"><defs><path id="SVGID_61_" transform="matrix(7.915886e-02 -0.9969 0.9969 7.915886e-02 -398.595 -121.7677)" d="M-408.5-3.4H-122v316.5H-408.5z"/></defs><clipPath id="SVGID_4_"><use xlink:href="#SVGID_61_" style="overflow:visible"/></clipPath><g class="st1"><g><defs><path id="SVGID_63_" transform="matrix(7.915886e-02 -0.9969 0.9969 7.915886e-02 -366.2547 -220.0524)" d="M-521.7-124.4h439v425.2h-439z"/></defs><clipPath id="SVGID_6_"><use xlink:href="#SVGID_63_" style="overflow:visible"/></clipPath><g class="st2"><defs><path id="SVGID_65_" d="M-411.5-.5-98.1 49.4-297.9 295.8-298.2 295.6-411.6-.4z"/></defs><clipPath id="SVGID_8_"><use xlink:href="#SVGID_65_" style="overflow:visible"/></clipPath><g class="st3"><defs><path id="SVGID_67_" transform="matrix(0.6299 -0.7767 0.7767 0.6299 -197.015 -59.9095)" d="M-407 172h491.3v9.5H-407z"/></defs><clipPath id="SVGID_10_"><use xlink:href="#SVGID_67_" style="overflow:visible"/></clipPath><linearGradient id="SVGID_11_" gradientUnits="userSpaceOnUse" x1="-963.7922" y1="563.8732" x2="-962.6742" y2="563.8732" gradientTransform="matrix(64.8634 416.1201 -416.1201 64.8634 296967 364492.25)"><stop offset="0" style="stop-color:#00aced"/><stop offset=".4959" style="stop-color:#2b2a68"/><stop offset=".9947" style="stop-color:#aa2e8d"/><stop offset="1" style="stop-color:#aa2e8d"/></linearGradient><path class="st4" d="M-381.7-24.4-310 435.4 58.9 377.9-12.7-81.9z"/></g></g><g class="st2"><defs><path id="SVGID_70_" d="M-411.5-.5-98.1 49.4-297.9 295.8-298.2 295.6-411.6-.4z"/></defs><clipPath id="SVGID_13_"><use xlink:href="#SVGID_70_" style="overflow:visible"/></clipPath><g class="st5"><defs><path id="SVGID_72_" transform="matrix(0.6299 -0.7767 0.7767 0.6299 -193.0826 -76.2134)" d="M-422.2 159.7h491.3v9.5H-422.2z"/></defs><clipPath id="SVGID_15_"><use xlink:href="#SVGID_72_" style="overflow:visible"/></clipPath><linearGradient id="SVGID_16_" gradientUnits="userSpaceOnUse" x1="-963.7922" y1="563.9042" x2="-962.6742" y2="563.9042" gradientTransform="matrix(64.8634 416.1201 -416.1201 64.8634 296967 364492.25)"><stop offset="0" style="stop-color:#00aced"/><stop offset=".4959" style="stop-color:#2b2a68"/><stop offset=".9947" style="stop-color:#aa2e8d"/><stop offset="1" style="stop-color:#aa2e8d"/></linearGradient><path class="st6" d="M-396.8-36.7-325.1 423.2 43.8 365.7-27.9-94.2z"/></g></g></g></g></g></g><g><defs><path id="SVGID_117_" d="M-203 0h6e2v504H-203z"/></defs><clipPath id="SVGID_18_"><use xlink:href="#SVGID_117_" style="overflow:visible"/></clipPath><g style="clip-path:url(#SVGID_18_)"><defs><path id="SVGID_119_" transform="matrix(0.2966 -0.955 0.955 0.2966 -3.1308 308.0056)" d="M-52.7-78.5h520.5v469.3H-52.7z"/></defs><clipPath id="SVGID_19_"><use xlink:href="#SVGID_119_" style="overflow:visible"/></clipPath><g style="clip-path:url(#SVGID_19_)"><defs><path id="SVGID_121_" transform="matrix(0.2966 -0.955 0.955 0.2966 -3.1308 308.0056)" d="M-52.7-78.5h520.5v469.3H-52.7z"/></defs><clipPath id="SVGID_21_"><use xlink:href="#SVGID_121_" style="overflow:visible"/></clipPath><g style="opacity:.1;clip-path:url(#SVGID_21_)"><g><defs><path id="SVGID_123_" transform="matrix(0.2966 -0.955 0.955 0.2966 115.0362 397.6181)" d="M-22.2-238.8h699.3v719H-22.2z"/></defs><clipPath id="SVGID_22_"><use xlink:href="#SVGID_123_" style="overflow:visible"/></clipPath><g style="clip-path:url(#SVGID_22_)"><defs><path id="SVGID_125_" d="M508.8-22.7 315.5 462.2-5.8 52.9-5.4 52.5 508.7-22.8z"/></defs><clipPath id="SVGID_24_"><use xlink:href="#SVGID_125_" style="overflow:visible"/></clipPath><g style="clip-path:url(#SVGID_24_)"><defs><path id="SVGID_127_" d="M389.8 627-107.8-6.9-120 2.7 377.6 636.6z"/></defs><clipPath id="SVGID_25_"><use xlink:href="#SVGID_127_" style="overflow:visible"/></clipPath><linearGradient id="SVGID_27_" gradientUnits="userSpaceOnUse" x1="-967.7267" y1="572.7877" x2="-965.9001" y2="572.7877" gradientTransform="matrix(-421.3708 -27.994 28.9047 -422.9073 -423923.3125 215478.2656)"><stop offset="0" style="stop-color:#00aced"/><stop offset=".4959" style="stop-color:#2b2a68"/><stop offset=".9947" style="stop-color:#aa2e8d"/><stop offset="1" style="stop-color:#aa2e8d"/></linearGradient><path style="clip-path:url(#SVGID_25_);fill:url(#SVGID_27_)" d="M536.2 33.8-224.6-16.7-266.4 595.9l760.8 50.5z"/></g></g><g style="clip-path:url(#SVGID_22_)"><defs><path id="SVGID_130_" d="M508.8-22.7 315.5 462.2-5.8 52.9-5.4 52.5 508.7-22.8z"/></defs><clipPath id="SVGID_28_"><use xlink:href="#SVGID_130_" style="overflow:visible"/></clipPath><g style="clip-path:url(#SVGID_28_)"><defs><path id="SVGID_132_" d="M414.9 607.1-82.7-26.8-94.9-17.1 402.7 616.7z"/></defs><clipPath id="SVGID_30_"><use xlink:href="#SVGID_132_" style="overflow:visible"/></clipPath><linearGradient id="SVGID_31_" gradientUnits="userSpaceOnUse" x1="-967.7267" y1="572.8384" x2="-965.9001" y2="572.8384" gradientTransform="matrix(-421.3708 -27.994 28.9047 -422.9073 -423923.3125 215478.2656)"><stop offset="0" style="stop-color:#00aced"/><stop offset=".4959" style="stop-color:#2b2a68"/><stop offset=".9947" style="stop-color:#aa2e8d"/><stop offset="1" style="stop-color:#aa2e8d"/></linearGradient><path class="st11" d="M561.3 14-199.4-36.6-241.3 576l760.8 50.5z"/></g></g><g style="clip-path:url(#SVGID_22_)"><defs><path id="SVGID_135_" d="M324.4 439.9 317.7 456.6-.1 51.8 17.6 49.2z"/></defs><clipPath id="SVGID_33_"><use xlink:href="#SVGID_135_" style="overflow:visible"/></clipPath><linearGradient id="SVGID_34_" gradientUnits="userSpaceOnUse" x1="-967.7267" y1="572.9427" x2="-965.9001" y2="572.9427" gradientTransform="matrix(-421.3708 -27.994 28.9047 -422.9073 -423923.3125 215478.2656)"><stop offset="0" style="stop-color:#00aced"/><stop offset=".4959" style="stop-color:#2b2a68"/><stop offset=".9947" style="stop-color:#aa2e8d"/><stop offset="1" style="stop-color:#aa2e8d"/></linearGradient><path class="st12" d="M414.8 71.8-66.9 39.8-93.5 429.6l481.6 32z"/></g><g style="clip-path:url(#SVGID_22_)"><defs><path id="SVGID_138_" d="M338.1 405.5 331.4 422.2 36.4 46.4 54.1 43.8z"/></defs><clipPath id="SVGID_36_"><use xlink:href="#SVGID_138_" style="overflow:visible"/></clipPath><linearGradient id="SVGID_37_" gradientUnits="userSpaceOnUse" x1="-967.7267" y1="572.9934" x2="-965.9001" y2="572.9934" gradientTransform="matrix(-421.3708 -27.994 28.9047 -422.9073 -423923.3125 215478.2656)"><stop offset="0" style="stop-color:#00aced"/><stop offset=".4959" style="stop-color:#2b2a68"/><stop offset=".9947" style="stop-color:#aa2e8d"/><stop offset="1" style="stop-color:#aa2e8d"/></linearGradient><path class="st13" d="M421.8 64.5-25.6 34.8-50.3 397.2 397 426.9z"/></g><g style="clip-path:url(#SVGID_22_)"><defs><path id="SVGID_141_" d="M351.8 371.1 345.1 387.8 72.9 41.1 90.7 38.5z"/></defs><clipPath id="SVGID_39_"><use xlink:href="#SVGID_141_" style="overflow:visible"/></clipPath><linearGradient id="SVGID_40_" gradientUnits="userSpaceOnUse" x1="-967.7267" y1="573.0441" x2="-965.9001" y2="573.0441" gradientTransform="matrix(-421.3708 -27.994 28.9047 -422.9073 -423923.3125 215478.2656)"><stop offset="0" style="stop-color:#00aced"/><stop offset=".4959" style="stop-color:#2b2a68"/><stop offset=".9947" style="stop-color:#aa2e8d"/><stop offset="1" style="stop-color:#aa2e8d"/></linearGradient><path class="st14" d="M428.8 57.2 15.8 29.7-7.1 364.7l413 27.5z"/></g><g style="clip-path:url(#SVGID_22_)"><defs><path id="SVGID_144_" d="M365.5 336.7 358.8 353.4 109.4 35.7 127.2 33.1z"/></defs><clipPath id="SVGID_42_"><use xlink:href="#SVGID_144_" style="overflow:visible"/></clipPath><linearGradient id="SVGID_43_" gradientUnits="userSpaceOnUse" x1="-967.7267" y1="573.0948" x2="-965.9001" y2="573.0948" gradientTransform="matrix(-421.3708 -27.994 28.9047 -422.9073 -423923.3125 215478.2656)"><stop offset="0" style="stop-color:#00aced"/><stop offset=".4959" style="stop-color:#2b2a68"/><stop offset=".9947" style="stop-color:#aa2e8d"/><stop offset="1" style="stop-color:#aa2e8d"/></linearGradient><path class="st15" d="M435.8 49.9 57.1 24.7l-21 307.6L414.8 357.5z"/></g><g style="clip-path:url(#SVGID_22_)"><defs><path id="SVGID_147_" d="M379.2 302.3 372.5 319 145.9 30.4 163.7 27.8z"/></defs><clipPath id="SVGID_45_"><use xlink:href="#SVGID_147_" style="overflow:visible"/></clipPath><linearGradient id="SVGID_46_" gradientUnits="userSpaceOnUse" x1="-967.7267" y1="573.1455" x2="-965.9001" y2="573.1455" gradientTransform="matrix(-421.3708 -27.994 28.9047 -422.9073 -423923.3125 215478.2656)"><stop offset="0" style="stop-color:#00aced"/><stop offset=".4959" style="stop-color:#2b2a68"/><stop offset=".9947" style="stop-color:#aa2e8d"/><stop offset="1" style="stop-color:#aa2e8d"/></linearGradient><path class="st16" d="M442.8 42.5 98.4 19.7 79.3 299.9 423.7 322.7z"/></g><g style="clip-path:url(#SVGID_22_)"><defs><path id="SVGID_150_" d="M392.9 267.9 386.2 284.6 182.4 25 200.2 22.4z"/></defs><clipPath id="SVGID_48_"><use xlink:href="#SVGID_150_" style="overflow:visible"/></clipPath><linearGradient id="SVGID_49_" gradientUnits="userSpaceOnUse" x1="-967.7267" y1="573.1962" x2="-965.9001" y2="573.1962" gradientTransform="matrix(-421.3708 -27.994 28.9047 -422.9073 -423923.3125 215478.2656)"><stop offset="0" style="stop-color:#00aced"/><stop offset=".4959" style="stop-color:#2b2a68"/><stop offset=".9947" style="stop-color:#aa2e8d"/><stop offset="1" style="stop-color:#aa2e8d"/></linearGradient><path class="st17" d="M449.8 35.2l-310-20.6L122.5 267.4 432.6 288z"/></g><g style="clip-path:url(#SVGID_22_)"><defs><path id="SVGID_153_" d="M406.6 233.6 4e2 250.2 219 19.7 236.7 17.1z"/></defs><clipPath id="SVGID_51_"><use xlink:href="#SVGID_153_" style="overflow:visible"/></clipPath><linearGradient id="SVGID_52_" gradientUnits="userSpaceOnUse" x1="-967.7267" y1="573.2469" x2="-965.9001" y2="573.2469" gradientTransform="matrix(-421.3708 -27.994 28.9047 -422.9073 -423923.3125 215478.2656)"><stop offset="0" style="stop-color:#00aced"/><stop offset=".4959" style="stop-color:#2b2a68"/><stop offset=".9947" style="stop-color:#aa2e8d"/><stop offset="1" style="stop-color:#aa2e8d"/></linearGradient><path class="st18" d="M456.8 27.9 181.1 9.6 165.7 235 441.4 253.3z"/></g><g style="clip-path:url(#SVGID_22_)"><defs><path id="SVGID_156_" d="M420.3 199.2 413.7 215.9 255.5 14.3 273.2 11.7z"/></defs><clipPath id="SVGID_54_"><use xlink:href="#SVGID_156_" style="overflow:visible"/></clipPath><linearGradient id="SVGID_55_" gradientUnits="userSpaceOnUse" x1="-967.7267" y1="573.2976" x2="-965.9001" y2="573.2976" gradientTransform="matrix(-421.3708 -27.994 28.9047 -422.9073 -423923.3125 215478.2656)"><stop offset="0" style="stop-color:#00aced"/><stop offset=".4959" style="stop-color:#2b2a68"/><stop offset=".9947" style="stop-color:#aa2e8d"/><stop offset="1" style="stop-color:#aa2e8d"/></linearGradient><path class="st19" d="M463.8 20.6 222.5 4.6 208.9 202.6l241.4 16z"/></g><g style="clip-path:url(#SVGID_22_)"><defs><path id="SVGID_159_" d="M434 164.8 427.4 181.5 292 9 309.7 6.4z"/></defs><clipPath id="SVGID_57_"><use xlink:href="#SVGID_159_" style="overflow:visible"/></clipPath><linearGradient id="SVGID_58_" gradientUnits="userSpaceOnUse" x1="-967.7267" y1="573.3483" x2="-965.9001" y2="573.3483" gradientTransform="matrix(-421.3708 -27.994 28.9047 -422.9073 -423923.3125 215478.2656)"><stop offset="0" style="stop-color:#00aced"/><stop offset=".4959" style="stop-color:#2b2a68"/><stop offset=".9947" style="stop-color:#aa2e8d"/><stop offset="1" style="stop-color:#aa2e8d"/></linearGradient><path class="st20" d="M470.9 13.3 263.8-.5 252.1 170.2 459.2 183.9z"/></g><g style="clip-path:url(#SVGID_22_)"><defs><path id="SVGID_162_" d="M447.7 130.4 441.1 147.1 328.5 3.6 346.2 1z"/></defs><clipPath id="SVGID_60_"><use xlink:href="#SVGID_162_" style="overflow:visible"/></clipPath><linearGradient id="SVGID_62_" gradientUnits="userSpaceOnUse" x1="-967.7267" y1="573.399" x2="-965.9001" y2="573.399" gradientTransform="matrix(-421.3708 -27.994 28.9047 -422.9073 -423923.3125 215478.2656)"><stop offset="0" style="stop-color:#00aced"/><stop offset=".4959" style="stop-color:#2b2a68"/><stop offset=".9947" style="stop-color:#aa2e8d"/><stop offset="1" style="stop-color:#aa2e8d"/></linearGradient><path style="clip-path:url(#SVGID_60_);fill:url(#SVGID_62_)" d="M477.9 6 305.1-5.5 295.3 137.7l172.8 11.5z"/></g><g style="clip-path:url(#SVGID_22_)"><defs><path id="SVGID_165_" d="M461.5 96 454.8 112.7 365-1.7 382.7-4.3z"/></defs><clipPath id="SVGID_64_"><use xlink:href="#SVGID_165_" style="overflow:visible"/></clipPath><linearGradient id="SVGID_66_" gradientUnits="userSpaceOnUse" x1="-967.7267" y1="573.4497" x2="-965.9001" y2="573.4497" gradientTransform="matrix(-421.3708 -27.994 28.9047 -422.9073 -423923.3125 215478.2656)"><stop offset="0" style="stop-color:#00aced"/><stop offset=".4959" style="stop-color:#2b2a68"/><stop offset=".9947" style="stop-color:#aa2e8d"/><stop offset="1" style="stop-color:#aa2e8d"/></linearGradient><path style="clip-path:url(#SVGID_64_);fill:url(#SVGID_66_)" d="M484.9-1.3 346.5-10.5l-8 115.8L477 114.5z"/></g><g style="clip-path:url(#SVGID_22_)"><defs><path id="SVGID_168_" d="M475.2 61.6 468.5 78.3 401.5-7.1 419.2-9.7z"/></defs><clipPath id="SVGID_68_"><use xlink:href="#SVGID_168_" style="overflow:visible"/></clipPath><linearGradient id="SVGID_69_" gradientUnits="userSpaceOnUse" x1="-967.7267" y1="573.5004" x2="-965.9001" y2="573.5004" gradientTransform="matrix(-421.3708 -27.994 28.9047 -422.9073 -423923.3125 215478.2656)"><stop offset="0" style="stop-color:#00aced"/><stop offset=".4959" style="stop-color:#2b2a68"/><stop offset=".9947" style="stop-color:#aa2e8d"/><stop offset="1" style="stop-color:#aa2e8d"/></linearGradient><path class="st25" d="M491.9-8.6 387.8-15.5 381.7 72.9 485.8 79.8z"/></g></g></g></g></g></g><g><defs><path id="SVGID_177_" transform="matrix(0.9972 -7.437787e-02 7.437787e-02 0.9972 -6.4993 42.4092)" d="M452.8 6.4h226.6v204.2H452.8z"/></defs><clipPath id="SVGID_71_"><use xlink:href="#SVGID_177_" style="overflow:visible"/></clipPath><g class="st26"><defs><path id="SVGID_179_" transform="matrix(0.9972 -7.437787e-02 7.437787e-02 0.9972 -6.4993 42.4092)" d="M452.8 6.4h226.6v204.2H452.8z"/></defs><clipPath id="SVGID_73_"><use xlink:href="#SVGID_179_" style="overflow:visible"/></clipPath><g style="clip-path:url(#SVGID_73_)"><g><defs><path id="SVGID_181_" transform="matrix(0.9972 -7.437787e-02 7.437787e-02 0.9972 -6.4802 42.9028)" d="M441.8-3h261.9v222.9H441.8z"/></defs><clipPath id="SVGID_74_"><use xlink:href="#SVGID_181_" style="overflow:visible"/></clipPath><g style="clip-path:url(#SVGID_74_)"><defs><path id="SVGID_183_" d="M587.5 209.2 671.6-1.8 446.9 30.9V31.1L587.4 209.2z"/></defs><clipPath id="SVGID_76_"><use xlink:href="#SVGID_183_" style="overflow:visible"/></clipPath><g style="clip-path:url(#SVGID_76_)"><defs><path id="SVGID_185_" transform="matrix(0.9896 -0.1438 0.1438 0.9896 5.3245 82.2869)" d="M396.3.9h351.6v6.8H396.3z"/></defs><clipPath id="SVGID_77_"><use xlink:href="#SVGID_185_" style="overflow:visible"/></clipPath><linearGradient id="SVGID_79_" gradientUnits="userSpaceOnUse" x1="-983.9956" y1="559.6564" x2="-982.8335" y2="559.6564" gradientTransform="matrix(-223.3004 -184.9569 -184.9569 223.3004 -115559.2734 -306895.25)"><stop offset="0" style="stop-color:#00aced"/><stop offset=".4959" style="stop-color:#2b2a68"/><stop offset=".9947" style="stop-color:#aa2e8d"/><stop offset="1" style="stop-color:#aa2e8d"/></linearGradient><path style="clip-path:url(#SVGID_77_);fill:url(#SVGID_79_)" d="M593 194.4 381.4 19.1 551.1-185.8 762.8-10.5z"/></g></g></g></g></g></g></svg>