<svg xmlns="http://www.w3.org/2000/svg" xmlns:xlink="http://www.w3.org/1999/xlink" id="Layer_1" viewBox="0 0 398.7 436" style="enable-background:new 0 0 398.7 436" class="mdl-js"><style>.st0{clip-path:url(#SVGID_2_)}.st1{opacity:.1;clip-path:url(#SVGID_4_)}.st2{clip-path:url(#SVGID_6_)}.st3{clip-path:url(#SVGID_8_)}.st4{clip-path:url(#SVGID_10_);fill:url(#SVGID_11_)}.st5{clip-path:url(#SVGID_13_)}.st6{clip-path:url(#SVGID_15_);fill:url(#SVGID_16_)}.st7{clip-path:url(#SVGID_18_);fill:url(#SVGID_19_)}.st8{clip-path:url(#SVGID_21_);fill:url(#SVGID_22_)}.st9{clip-path:url(#SVGID_24_);fill:url(#SVGID_25_)}.st10{clip-path:url(#SVGID_27_);fill:url(#SVGID_28_)}.st11{clip-path:url(#SVGID_30_);fill:url(#SVGID_31_)}.st12{clip-path:url(#SVGID_33_);fill:url(#SVGID_34_)}.st13{clip-path:url(#SVGID_36_);fill:url(#SVGID_37_)}.st14{clip-path:url(#SVGID_39_);fill:url(#SVGID_40_)}.st15{clip-path:url(#SVGID_42_);fill:url(#SVGID_43_)}.st16{clip-path:url(#SVGID_45_);fill:url(#SVGID_46_)}.st17{clip-path:url(#SVGID_48_);fill:url(#SVGID_49_)}.st18{clip-path:url(#SVGID_51_);fill:url(#SVGID_52_)}.st19{clip-path:url(#SVGID_54_);fill:url(#SVGID_55_)}.st20{clip-path:url(#SVGID_57_);fill:url(#SVGID_58_)}</style><g><defs><path id="SVGID_1_" transform="matrix(0.6408 -0.7677 0.7677 0.6408 -24.8436 289.6505)" d="M97.5-49.1h399.1v440.9H97.5z"/></defs><clipPath id="SVGID_2_"><use xlink:href="#SVGID_1_" style="overflow:visible"/></clipPath><g class="st0"><defs><path id="SVGID_3_" transform="matrix(0.6408 -0.7677 0.7677 0.6408 -24.8436 289.6505)" d="M97.5-49.1h399.1v440.9H97.5z"/></defs><clipPath id="SVGID_4_"><use xlink:href="#SVGID_3_" style="overflow:visible"/></clipPath><g class="st1"><g><defs><path id="SVGID_5_" transform="matrix(0.6408 -0.7677 0.7677 0.6408 -84.6401 222.3611)" d="M-110.5-94.5H501v592.2H-110.5z"/></defs><clipPath id="SVGID_6_"><use xlink:href="#SVGID_5_" style="overflow:visible"/></clipPath><g class="st2"><defs><path id="SVGID_7_" d="M.1 183.4 360.7 439.2 401.9-.8 401.4-.9.1 183.3z"/></defs><clipPath id="SVGID_8_"><use xlink:href="#SVGID_7_" style="overflow:visible"/></clipPath><g class="st3"><defs><path id="SVGID_9_" transform="matrix(9.326836e-02 -0.9956 0.9956 9.326836e-02 132.7808 647.356)" d="M79.6 244.2H764v13.2H79.6z"/></defs><clipPath id="SVGID_10_"><use xlink:href="#SVGID_9_" style="overflow:visible"/></clipPath><linearGradient id="SVGID_11_" gradientUnits="userSpaceOnUse" x1="-4.0176" y1="634.3851" x2="-2.4602" y2="634.3851" gradientTransform="matrix(337.4514 -251.9717 -251.9717 -337.4514 161440.4219 213450.1875)"><stop offset="0" style="stop-color:#00aced"/><stop offset=".4959" style="stop-color:#2b2a68"/><stop offset=".9947" style="stop-color:#aa2e8d"/><stop offset="1" style="stop-color:#aa2e8d"/></linearGradient><path class="st4" d="M6.5 236.3 526-151.6 837.2 265.2 317.7 653.1z"/></g></g><g class="st2"><defs><path id="SVGID_12_" d="M.1 183.4 360.7 439.2 401.9-.8 401.4-.9.1 183.3z"/></defs><clipPath id="SVGID_13_"><use xlink:href="#SVGID_12_" style="overflow:visible"/></clipPath><g class="st5"><defs><path id="SVGID_14_" transform="matrix(9.326839e-02 -0.9956 0.9956 9.326839e-02 110.7887 618.1422)" d="M52.6 241.7H737v13.2H52.6z"/></defs><clipPath id="SVGID_15_"><use xlink:href="#SVGID_14_" style="overflow:visible"/></clipPath><linearGradient id="SVGID_16_" gradientUnits="userSpaceOnUse" x1="-4.0176" y1="634.4283" x2="-2.4602" y2="634.4283" gradientTransform="matrix(337.4514 -251.9717 -251.9717 -337.4514 161440.4219 213450.1875)"><stop offset="0" style="stop-color:#00aced"/><stop offset=".4959" style="stop-color:#2b2a68"/><stop offset=".9947" style="stop-color:#aa2e8d"/><stop offset="1" style="stop-color:#aa2e8d"/></linearGradient><path class="st6" d="M-20.6 233.8 498.9-154.1 810.1 262.7 290.6 650.6z"/></g></g><g class="st2"><defs><path id="SVGID_17_" d="M344.1 427.4 356.5 436.2 397.3 1 383.4 7.4z"/></defs><clipPath id="SVGID_18_"><use xlink:href="#SVGID_17_" style="overflow:visible"/></clipPath><linearGradient id="SVGID_19_" gradientUnits="userSpaceOnUse" x1="-4.0176" y1="634.5173" x2="-2.4602" y2="634.5173" gradientTransform="matrix(337.4514 -251.9717 -251.9717 -337.4514 161440.4219 213450.1875)"><stop offset="0" style="stop-color:#00aced"/><stop offset=".4959" style="stop-color:#2b2a68"/><stop offset=".9947" style="stop-color:#aa2e8d"/><stop offset="1" style="stop-color:#aa2e8d"/></linearGradient><path class="st7" d="M110.5 207.2 439.4-38.4 637.5 226.8 308.6 472.4z"/></g><g class="st2"><defs><path id="SVGID_20_" d="M318.5 409.3 330.9 418.1 368.8 14.1 354.9 20.5z"/></defs><clipPath id="SVGID_21_"><use xlink:href="#SVGID_20_" style="overflow:visible"/></clipPath><linearGradient id="SVGID_22_" gradientUnits="userSpaceOnUse" x1="-4.0176" y1="634.5605" x2="-2.4602" y2="634.5605" gradientTransform="matrix(337.4514 -251.9717 -251.9717 -337.4514 161440.4219 213450.1875)"><stop offset="0" style="stop-color:#00aced"/><stop offset=".4959" style="stop-color:#2b2a68"/><stop offset=".9947" style="stop-color:#aa2e8d"/><stop offset="1" style="stop-color:#aa2e8d"/></linearGradient><path class="st8" d="M102.2 205.2 407.6-22.9 591.7 223.7 286.3 451.8z"/></g><g class="st2"><defs><path id="SVGID_23_" d="M292.9 391.1 305.4 4e2 340.3 27.2 326.4 33.5z"/></defs><clipPath id="SVGID_24_"><use xlink:href="#SVGID_23_" style="overflow:visible"/></clipPath><linearGradient id="SVGID_25_" gradientUnits="userSpaceOnUse" x1="-4.0176" y1="634.6038" x2="-2.4602" y2="634.6038" gradientTransform="matrix(337.4514 -251.9717 -251.9717 -337.4514 161440.4219 213450.1875)"><stop offset="0" style="stop-color:#00aced"/><stop offset=".4959" style="stop-color:#2b2a68"/><stop offset=".9947" style="stop-color:#aa2e8d"/><stop offset="1" style="stop-color:#aa2e8d"/></linearGradient><path class="st9" d="M93.8 203.3 375.8-7.3 546 220.6 264 431.2z"/></g><g class="st2"><defs><path id="SVGID_26_" d="M267.4 373 279.8 381.8l32-341.5L298 46.6z"/></defs><clipPath id="SVGID_27_"><use xlink:href="#SVGID_26_" style="overflow:visible"/></clipPath><linearGradient id="SVGID_28_" gradientUnits="userSpaceOnUse" x1="-4.0176" y1="634.647" x2="-2.4602" y2="634.647" gradientTransform="matrix(337.4514 -251.9717 -251.9717 -337.4514 161440.4219 213450.1875)"><stop offset="0" style="stop-color:#00aced"/><stop offset=".4959" style="stop-color:#2b2a68"/><stop offset=".9947" style="stop-color:#aa2e8d"/><stop offset="1" style="stop-color:#aa2e8d"/></linearGradient><path class="st10" d="M85.5 201.3 344 8.2 500.3 217.5 241.7 410.6z"/></g><g class="st2"><defs><path id="SVGID_29_" d="M241.8 354.9 254.2 363.7 283.3 53.3 269.5 59.7z"/></defs><clipPath id="SVGID_30_"><use xlink:href="#SVGID_29_" style="overflow:visible"/></clipPath><linearGradient id="SVGID_31_" gradientUnits="userSpaceOnUse" x1="-4.0176" y1="634.6902" x2="-2.4602" y2="634.6902" gradientTransform="matrix(337.4514 -251.9717 -251.9717 -337.4514 161440.4219 213450.1875)"><stop offset="0" style="stop-color:#00aced"/><stop offset=".4959" style="stop-color:#2b2a68"/><stop offset=".9947" style="stop-color:#aa2e8d"/><stop offset="1" style="stop-color:#aa2e8d"/></linearGradient><path class="st11" d="M77.1 199.3 312.3 23.8 454.6 214.4 219.5 390z"/></g><g class="st2"><defs><path id="SVGID_32_" d="M216.2 336.7 228.6 345.5 254.8 66.4 241 72.8z"/></defs><clipPath id="SVGID_33_"><use xlink:href="#SVGID_32_" style="overflow:visible"/></clipPath><linearGradient id="SVGID_34_" gradientUnits="userSpaceOnUse" x1="-4.0176" y1="634.7335" x2="-2.4602" y2="634.7335" gradientTransform="matrix(337.4514 -251.9717 -251.9717 -337.4514 161440.4219 213450.1875)"><stop offset="0" style="stop-color:#00aced"/><stop offset=".4959" style="stop-color:#2b2a68"/><stop offset=".9947" style="stop-color:#aa2e8d"/><stop offset="1" style="stop-color:#aa2e8d"/></linearGradient><path class="st12" d="M68.8 197.4 280.5 39.3 408.9 211.3 197.2 369.4z"/></g><g class="st2"><defs><path id="SVGID_35_" d="M190.7 318.6 203.1 327.4 226.3 79.5 212.5 85.8z"/></defs><clipPath id="SVGID_36_"><use xlink:href="#SVGID_35_" style="overflow:visible"/></clipPath><linearGradient id="SVGID_37_" gradientUnits="userSpaceOnUse" x1="-4.0176" y1="634.7767" x2="-2.4602" y2="634.7767" gradientTransform="matrix(337.4514 -251.9717 -251.9717 -337.4514 161440.4219 213450.1875)"><stop offset="0" style="stop-color:#00aced"/><stop offset=".4959" style="stop-color:#2b2a68"/><stop offset=".9947" style="stop-color:#aa2e8d"/><stop offset="1" style="stop-color:#aa2e8d"/></linearGradient><path class="st13" d="M60.4 195.4 248.7 54.8 363.2 208.2 174.9 348.8z"/></g><g class="st2"><defs><path id="SVGID_38_" d="M165.1 300.4 177.5 309.2 197.8 92.6 184 98.9z"/></defs><clipPath id="SVGID_39_"><use xlink:href="#SVGID_38_" style="overflow:visible"/></clipPath><linearGradient id="SVGID_40_" gradientUnits="userSpaceOnUse" x1="-4.0176" y1="634.8199" x2="-2.4602" y2="634.8199" gradientTransform="matrix(337.4514 -251.9717 -251.9717 -337.4514 161440.4219 213450.1875)"><stop offset="0" style="stop-color:#00aced"/><stop offset=".4959" style="stop-color:#2b2a68"/><stop offset=".9947" style="stop-color:#aa2e8d"/><stop offset="1" style="stop-color:#aa2e8d"/></linearGradient><path class="st14" d="M52 193.5 216.9 70.4 317.5 205.1 152.6 328.2z"/></g><g class="st2"><defs><path id="SVGID_41_" d="M139.5 282.3 151.9 291.1 169.3 105.7 155.5 112z"/></defs><clipPath id="SVGID_42_"><use xlink:href="#SVGID_41_" style="overflow:visible"/></clipPath><linearGradient id="SVGID_43_" gradientUnits="userSpaceOnUse" x1="-4.0176" y1="634.8632" x2="-2.4602" y2="634.8632" gradientTransform="matrix(337.4514 -251.9717 -251.9717 -337.4514 161440.4219 213450.1875)"><stop offset="0" style="stop-color:#00aced"/><stop offset=".4959" style="stop-color:#2b2a68"/><stop offset=".9947" style="stop-color:#aa2e8d"/><stop offset="1" style="stop-color:#aa2e8d"/></linearGradient><path class="st15" d="M43.7 191.5 185.1 85.9 271.7 202 130.3 307.6z"/></g><g class="st2"><defs><path id="SVGID_44_" d="M113.9 264.2 126.3 273 140.8 118.7 127 125.1z"/></defs><clipPath id="SVGID_45_"><use xlink:href="#SVGID_44_" style="overflow:visible"/></clipPath><linearGradient id="SVGID_46_" gradientUnits="userSpaceOnUse" x1="-4.0176" y1="634.9064" x2="-2.4602" y2="634.9064" gradientTransform="matrix(337.4514 -251.9717 -251.9717 -337.4514 161440.4219 213450.1875)"><stop offset="0" style="stop-color:#00aced"/><stop offset=".4959" style="stop-color:#2b2a68"/><stop offset=".9947" style="stop-color:#aa2e8d"/><stop offset="1" style="stop-color:#aa2e8d"/></linearGradient><path class="st16" d="M35.3 189.5 153.3 101.5 226 198.9 108.1 287z"/></g><g class="st2"><defs><path id="SVGID_47_" d="M88.4 246 100.8 254.8l11.5-123L98.5 138.2z"/></defs><clipPath id="SVGID_48_"><use xlink:href="#SVGID_47_" style="overflow:visible"/></clipPath><linearGradient id="SVGID_49_" gradientUnits="userSpaceOnUse" x1="-4.0176" y1="634.9496" x2="-2.4602" y2="634.9496" gradientTransform="matrix(337.4514 -251.9717 -251.9717 -337.4514 161440.4219 213450.1875)"><stop offset="0" style="stop-color:#00aced"/><stop offset=".4959" style="stop-color:#2b2a68"/><stop offset=".9947" style="stop-color:#aa2e8d"/><stop offset="1" style="stop-color:#aa2e8d"/></linearGradient><path class="st17" d="M27 187.6 121.5 117 180.3 195.8 85.8 266.4z"/></g><g class="st2"><defs><path id="SVGID_50_" d="M62.8 227.9 75.2 236.7 83.8 144.9 70 151.2z"/></defs><clipPath id="SVGID_51_"><use xlink:href="#SVGID_50_" style="overflow:visible"/></clipPath><linearGradient id="SVGID_52_" gradientUnits="userSpaceOnUse" x1="-4.0176" y1="634.9928" x2="-2.4602" y2="634.9928" gradientTransform="matrix(337.4514 -251.9717 -251.9717 -337.4514 161440.4219 213450.1875)"><stop offset="0" style="stop-color:#00aced"/><stop offset=".4959" style="stop-color:#2b2a68"/><stop offset=".9947" style="stop-color:#aa2e8d"/><stop offset="1" style="stop-color:#aa2e8d"/></linearGradient><path class="st18" d="M18.6 185.6 89.7 132.5 134.6 192.7l-71.1 53z"/></g><g class="st2"><defs><path id="SVGID_53_" d="M37.2 209.7 49.6 218.5 55.3 158 41.5 164.3z"/></defs><clipPath id="SVGID_54_"><use xlink:href="#SVGID_53_" style="overflow:visible"/></clipPath><linearGradient id="SVGID_55_" gradientUnits="userSpaceOnUse" x1="-4.0176" y1="635.0361" x2="-2.4602" y2="635.0361" gradientTransform="matrix(337.4514 -251.9717 -251.9717 -337.4514 161440.4219 213450.1875)"><stop offset="0" style="stop-color:#00aced"/><stop offset=".4959" style="stop-color:#2b2a68"/><stop offset=".9947" style="stop-color:#aa2e8d"/><stop offset="1" style="stop-color:#aa2e8d"/></linearGradient><path class="st19" d="M10.3 183.6 57.9 148.1 88.9 189.6 41.2 225.1z"/></g><g class="st2"><defs><path id="SVGID_56_" d="M11.6 191.6 24.1 200.4 26.8 171 13 177.4z"/></defs><clipPath id="SVGID_57_"><use xlink:href="#SVGID_56_" style="overflow:visible"/></clipPath><linearGradient id="SVGID_58_" gradientUnits="userSpaceOnUse" x1="-4.0176" y1="635.0793" x2="-2.4602" y2="635.0793" gradientTransform="matrix(337.4514 -251.9717 -251.9717 -337.4514 161440.4219 213450.1875)"><stop offset="0" style="stop-color:#00aced"/><stop offset=".4959" style="stop-color:#2b2a68"/><stop offset=".9947" style="stop-color:#aa2e8d"/><stop offset="1" style="stop-color:#aa2e8d"/></linearGradient><path class="st20" d="M1.9 181.7 26.1 163.6 43.2 186.5 19 204.5z"/></g></g></g></g></g></svg>