<svg xmlns="http://www.w3.org/2000/svg" viewBox="0 0 35.79 35.79"><defs><style>.cls-1{fill:#dedfe1;}</style></defs><title>404-bg-2</title><g id="Слой_2" data-name="Слой 2"><g id="layout"><path class="cls-1" d="M34.47,18.65l-3.78-7a.76.76,0,0,0-1-.31.74.74,0,0,0-.3,1l3.77,7A10.29,10.29,0,0,1,15.21,29.4a10.18,10.18,0,0,1-.38-10L24,2.33,26.47,7a.77.77,0,0,0,1,.31.76.76,0,0,0,.31-1L24.65.39A.76.76,0,0,0,24,0a.75.75,0,0,0-.66.39L13.5,18.66a11.63,11.63,0,0,0,.22,11.14A9,9,0,0,1,2.83,26.1a8.83,8.83,0,0,1-.33-8.74l8-14.85,4.67,8.66a.75.75,0,0,0,1.32-.7L11.15.58a.75.75,0,0,0-.66-.39.76.76,0,0,0-.66.39L1.17,16.67a10.33,10.33,0,0,0,.38,10.21,10.55,10.55,0,0,0,13,4.2A11.78,11.78,0,0,0,34.47,18.65Z"/><path class="cls-1" d="M22.68,31.25a.76.76,0,0,0,.75.75,8.88,8.88,0,0,0,8.89-8.1.74.74,0,0,0-.68-.81.75.75,0,0,0-.81.67,7.39,7.39,0,0,1-7.4,6.75A.75.75,0,0,0,22.68,31.25Z"/><path class="cls-1" d="M5.36,21.56a.74.74,0,0,0-.75-.74h0a.75.75,0,0,0-.75.74,6.09,6.09,0,0,0,5.59,6.08h.07a.74.74,0,0,0,.06-1.48A4.61,4.61,0,0,1,5.36,21.56Z"/></g></g></svg>