<svg xmlns="http://www.w3.org/2000/svg" viewBox="0 0 35.79 35.79"><defs><style>.cls-1{fill:#dedfe1;}</style></defs><title>404-bg-7</title><g id="Слой_2" data-name="Слой 2"><g id="layout"><path class="cls-1" d="M30.58,26.76a3,3,0,0,1-1.94-.65,3.8,3.8,0,0,0-4.56,0,3,3,0,0,1-1.94.65,3,3,0,0,1-1.93-.65,3.82,3.82,0,0,0-4.57,0,3,3,0,0,1-1.93.65,3,3,0,0,1-1.94-.65,3.62,3.62,0,0,0-2.28-.76,3.59,3.59,0,0,0-2.28.76,3,3,0,0,1-1.94.65,3,3,0,0,1-1.93-.65,3.65,3.65,0,0,0-2.29-.76H.83a.75.75,0,0,1-.06-1.49h.28a5,5,0,0,1,3.11,1,1.62,1.62,0,0,0,1.11.4,1.62,1.62,0,0,0,1.11-.4,5,5,0,0,1,3.11-1,5,5,0,0,1,3.1,1,1.64,1.64,0,0,0,1.12.4,1.62,1.62,0,0,0,1.11-.4,5.28,5.28,0,0,1,6.21,0,1.62,1.62,0,0,0,1.11.4,1.6,1.6,0,0,0,1.11-.4,5.29,5.29,0,0,1,6.22,0,1.6,1.6,0,0,0,1.11.4,1.62,1.62,0,0,0,1.11-.4,5,5,0,0,1,3.11-1h.28A.75.75,0,0,1,35,25.36H34.8a3.59,3.59,0,0,0-2.28.76A3,3,0,0,1,30.58,26.76Z"/><path class="cls-1" d="M30.58,31.28a3.08,3.08,0,0,1-1.94-.65,3.54,3.54,0,0,0-2.28-.76,3.62,3.62,0,0,0-2.28.75,3,3,0,0,1-1.94.66,3,3,0,0,1-1.93-.66,3.65,3.65,0,0,0-2.29-.75,3.58,3.58,0,0,0-2.28.76,3.05,3.05,0,0,1-1.93.65,3.08,3.08,0,0,1-1.94-.65,3.56,3.56,0,0,0-2.28-.76,3.54,3.54,0,0,0-2.28.76,3.11,3.11,0,0,1-1.94.65,3.05,3.05,0,0,1-1.93-.65,3.59,3.59,0,0,0-2.29-.76H.83a.75.75,0,0,1-.77-.71.74.74,0,0,1,.71-.78h.28a5.1,5.1,0,0,1,3.11,1,1.58,1.58,0,0,0,1.11.41,1.58,1.58,0,0,0,1.11-.41,5.1,5.1,0,0,1,3.11-1,5,5,0,0,1,3.1,1,1.61,1.61,0,0,0,1.12.41,1.58,1.58,0,0,0,1.11-.41,5.32,5.32,0,0,1,6.21,0,1.58,1.58,0,0,0,1.11.41,1.57,1.57,0,0,0,1.11-.41,5.34,5.34,0,0,1,6.22,0,1.57,1.57,0,0,0,1.11.41,1.58,1.58,0,0,0,1.11-.41,5.1,5.1,0,0,1,3.11-1h.28A.75.75,0,1,1,35,29.87H34.8a3.54,3.54,0,0,0-2.28.76A3.11,3.11,0,0,1,30.58,31.28Z"/><path class="cls-1" d="M30.58,35.79a3,3,0,0,1-1.94-.65,3.8,3.8,0,0,0-4.56,0,3,3,0,0,1-1.94.65,3,3,0,0,1-1.93-.65,3.82,3.82,0,0,0-4.57,0,3,3,0,0,1-1.93.65,3,3,0,0,1-1.94-.65,3.62,3.62,0,0,0-2.28-.76,3.59,3.59,0,0,0-2.28.76,3,3,0,0,1-1.94.65,3,3,0,0,1-1.93-.65,3.65,3.65,0,0,0-2.29-.76H.83a.75.75,0,0,1-.77-.71.73.73,0,0,1,.7-.78h.29a5,5,0,0,1,3.11,1,1.62,1.62,0,0,0,1.11.4,1.62,1.62,0,0,0,1.11-.4,5,5,0,0,1,3.11-1,5,5,0,0,1,3.1,1,1.64,1.64,0,0,0,1.12.4,1.62,1.62,0,0,0,1.11-.4,5.28,5.28,0,0,1,6.21,0,1.62,1.62,0,0,0,1.11.4,1.6,1.6,0,0,0,1.11-.4,5.29,5.29,0,0,1,6.22,0,1.6,1.6,0,0,0,1.11.4,1.62,1.62,0,0,0,1.11-.4,5,5,0,0,1,3.11-1h.28a.74.74,0,0,1,.71.78.75.75,0,0,1-.78.71H34.8a3.59,3.59,0,0,0-2.28.76A3,3,0,0,1,30.58,35.79Z"/><path class="cls-1" d="M15.61,2.63V.75A.75.75,0,0,0,14.86,0H7.8a.74.74,0,0,0-.74.75V2H.74A.74.74,0,0,0,0,2.72v13.2a.74.74,0,0,0,.74.74H7.06V17.9a.74.74,0,0,0,.74.74h7.06a.75.75,0,0,0,.75-.74v-3a6.36,6.36,0,0,1,3.6,1.79,6.78,6.78,0,0,1,2,5.81.76.76,0,0,0,.18.56.74.74,0,0,0,.53.27h.21A3,3,0,0,0,24,22.69a3.78,3.78,0,0,1,4.52,0,3,3,0,0,0,1.92.64h.4a3.15,3.15,0,0,0,1.53-.62,3.55,3.55,0,0,1,2.25-.75H35c.47,0,.71-.34.72-1V19.76C35.67,11.31,25.85,3,15.61,2.63ZM14.12,17.15H8.55V13.42a.75.75,0,0,0-.75-.74.74.74,0,0,0-.74.74v1.75H1.49V3.47H7.06V9.32a.75.75,0,0,0,.74.75.76.76,0,0,0,.75-.75V1.49h5.57V17.15Zm20.06,3.31a5.09,5.09,0,0,0-2.6,1l-.29.2a16.29,16.29,0,0,0-1.21-3.47.74.74,0,0,0-1-.35.75.75,0,0,0-.35,1,14.43,14.43,0,0,1,1,2.88l-.39-.24a5.2,5.2,0,0,0-6.16,0,4.1,4.1,0,0,1-.49.29,8.23,8.23,0,0,0-2.49-6.12,7.72,7.72,0,0,0-4.63-2.22V9.09a17,17,0,0,1,10.44,5.68.71.71,0,0,0,.55.25.73.73,0,0,0,.5-.19.75.75,0,0,0,.06-1.05A18.43,18.43,0,0,0,15.61,7.59V4.12c9.49.38,18.58,7.94,18.58,15.64C34.19,20.05,34.19,20.28,34.18,20.46Z"/></g></g></svg>