<svg xmlns="http://www.w3.org/2000/svg" viewBox="0 0 35.79 35.79"><defs><style>.cls-1{fill:#dedfe1;}</style></defs><title>404-bg-3</title><g id="Слой_2" data-name="Слой 2"><g id="layout"><path class="cls-1" d="M24,21.55c1.82.91,3.83.82,6.14-.27a5.23,5.23,0,0,1,2.16-.23A4.06,4.06,0,0,0,35,20.48a.69.69,0,0,0,.11-.13.68.68,0,0,0,.12-.12.75.75,0,0,0-.1-1.05L21.48,8A.76.76,0,0,0,21,7.83h-.68v-1A7,7,0,0,0,23.64.75.75.75,0,0,0,22.89,0a.74.74,0,0,0-.74.75A5.88,5.88,0,0,1,20.31,5a2.42,2.42,0,0,0-4.83,0A5.75,5.75,0,0,1,13.65.75a.75.75,0,0,0-1.5,0,7.09,7.09,0,0,0,3.32,6.1v1h-1A.78.78,0,0,0,14,8L.46,18.9h0L.38,19l0,0,0,.06a.18.18,0,0,0,0,.07h0a1.4,1.4,0,0,0,0,1.33,4.17,4.17,0,0,0,3.18,1.69,2.75,2.75,0,0,0,.4,0A10.16,10.16,0,0,0,8,20.93a5.31,5.31,0,0,1,2.49-.63,5.46,5.46,0,0,1,2,.72l.53.26a8.55,8.55,0,0,0,2.44.77h.12a4.9,4.9,0,0,0,2.68-.36L20,20.93C21.31,20.33,22.47,20.81,24,21.55Zm-2.64-6.94a.75.75,0,0,0-1.05.1.75.75,0,0,0,.11,1l.44.37L17.9,18.52,15,16.13l2.93-2.4.52.43a.72.72,0,0,0,.47.17A.74.74,0,0,0,19.36,13l-.29-.24L22,10.36l2.93,2.4L22,15.16Zm-8.38-.15A.75.75,0,0,0,12,15.62l.63.51-3,2.48L6.5,16l3-2.39L10,14a.7.7,0,0,0,.47.17.76.76,0,0,0,.58-.27A.75.75,0,0,0,11,12.86l-.32-.26,2.95-2.37,3.11,2.54-2.93,2.39Zm13.17-.74,3,2.42L26.2,18.61l-3-2.48Zm6.18,5.83a6.55,6.55,0,0,0-2.83.38,6.16,6.16,0,0,1-3.35.72l4.14-3.55,3,2.45ZM20.84,9.4,17.9,11.81l-3-2.49h5.88ZM17,7.39a4.27,4.27,0,0,0,.71.07.76.76,0,0,0,.75-.75A.75.75,0,0,0,17.67,6a3,3,0,0,1-.71-.1V5.26a.94.94,0,1,1,1.87,0V7.83H17ZM7.34,19.59a8.54,8.54,0,0,1-3.69,1.1,3.05,3.05,0,0,1-2-.85L5.32,16.9l2.75,2.37C7.81,19.37,7.56,19.48,7.34,19.59Zm5.82.1A9,9,0,0,0,11.49,19l2.3-1.89,2.93,2.39-1.28,1.05a7.5,7.5,0,0,1-1.77-.59Zm6.21-.12-.9.41L22,17.09l3.05,2.5-.62.53C23.11,19.47,21.35,18.68,19.37,19.57Z"/><path class="cls-1" d="M18.85,25.55c-.28-.6-1-.6-1.33-.6a4.35,4.35,0,0,0-3.46,1.64A12.15,12.15,0,0,0,7.4,23.86h0a6.54,6.54,0,0,0-4.27,1.58A4.09,4.09,0,0,0,1.49,28c0,.71,1.1,2.93,4.48,3.37a14.28,14.28,0,0,0,1.83.11,17.81,17.81,0,0,0,6.07-1,4.27,4.27,0,0,0,3.65,1.93c.32,0,1.05,0,1.33-.61s-.17-1.12-.6-1.62-.89-1-.89-1.52a2.92,2.92,0,0,1,.89-1.51C18.68,26.67,19.12,26.16,18.85,25.55ZM3,28A4.73,4.73,0,0,1,6,25.54a2.79,2.79,0,0,1,.88,2.28c0,1.33-.51,2-.66,2.06h-.1C3.93,29.59,3.12,28.35,3,28Zm5,2a5.43,5.43,0,0,0,.42-2.16,4.53,4.53,0,0,0-.6-2.44A11.35,11.35,0,0,1,13.41,28h0a3.84,3.84,0,0,0-.07.69c0,.14,0,.27,0,.41A15.7,15.7,0,0,1,8,30Zm8.87.9a2.38,2.38,0,0,1-2-2.19,2.37,2.37,0,0,1,2-2.18,3.48,3.48,0,0,0-1,2.18A3.54,3.54,0,0,0,16.86,30.88Z"/><path class="cls-1" d="M32.87,32.88a5,5,0,0,1-1.39-.71,7.11,7.11,0,0,1,1.07-.53A.75.75,0,0,0,32,30.25a9.42,9.42,0,0,0-1.37.67,8.35,8.35,0,0,0-4.53-1.84,3.85,3.85,0,0,0-2.85,1,3.05,3.05,0,0,0-.92,2c0,.7,1,1.86,3.2,2.14a9.25,9.25,0,0,0,1.08.06,9.76,9.76,0,0,0,3.93-.75.61.61,0,0,0,.16-.12,6.76,6.76,0,0,0,1.7.85.85.85,0,0,0,.23,0,.74.74,0,0,0,.23-1.45Zm-7.14-.1A3.09,3.09,0,0,1,23.85,32a1.64,1.64,0,0,1,.36-.74,2.29,2.29,0,0,1,1.88-.69A6.86,6.86,0,0,1,29.59,32s0,.07,0,.1a.61.61,0,0,0,.06.25A9.42,9.42,0,0,1,25.73,32.78Z"/><path class="cls-1" d="M31,24.23a.75.75,0,0,0-.75-.74H20.88a.75.75,0,1,0,0,1.49H30.2A.75.75,0,0,0,31,24.23Z"/><path class="cls-1" d="M35.05,23.49H33.56a.75.75,0,1,0,0,1.49h1.49a.75.75,0,0,0,0-1.49Z"/><path class="cls-1" d="M14.91,34.3H5.59a.75.75,0,0,0,0,1.49h9.32a.75.75,0,1,0,0-1.49Z"/><path class="cls-1" d="M2.24,34.3H.75a.75.75,0,1,0,0,1.49H2.24a.75.75,0,0,0,0-1.49Z"/></g></g></svg>