<svg xmlns="http://www.w3.org/2000/svg" viewBox="0 0 35.79 35.79"><defs><style>.cls-1{fill:#dedfe1;}</style></defs><title>404-bg-5</title><g id="Слой_2" data-name="Слой 2"><g id="layout"><path class="cls-1" d="M3,15.45H21.32a6.54,6.54,0,1,0-6.53-6.53,6,6,0,0,0,.1,1.08.74.74,0,1,0,1.47-.24,5.27,5.27,0,0,1-.08-.84,5,5,0,1,1,5,5H3a.74.74,0,0,0-.74.74A.75.75,0,0,0,3,15.45Z"/><path class="cls-1" d="M29.87,23.85H14.08a.77.77,0,0,0,0,1.54H29.87a4.43,4.43,0,1,1-4.32,4.43,5,5,0,0,1,.06-.74.75.75,0,1,0-1.48-.25,5.82,5.82,0,1,0,5.74-5Z"/><path class="cls-1" d="M25.73,19.55a.75.75,0,0,0-.75-.74H7.46a.75.75,0,1,0,0,1.49H25A.75.75,0,0,0,25.73,19.55Z"/><path class="cls-1" d="M33.18,20.3h1.87a.75.75,0,0,0,0-1.49H33.18a.75.75,0,0,0,0,1.49Z"/><path class="cls-1" d="M26.47,19.55a.75.75,0,0,0,.75.75H31a.75.75,0,0,0,0-1.49H27.22A.75.75,0,0,0,26.47,19.55Z"/><path class="cls-1" d="M4.47,18.81H.75a.75.75,0,1,0,0,1.49H4.47a.75.75,0,1,0,0-1.49Z"/><path class="cls-1" d="M18.27,1.49h1.49a.75.75,0,1,0,0-1.49H18.27a.75.75,0,1,0,0,1.49Z"/><path class="cls-1" d="M22.48,1.49a6.24,6.24,0,0,1,6.23,6.23.75.75,0,1,0,1.49,0A7.73,7.73,0,0,0,22.48,0a.74.74,0,0,0-.74.75A.74.74,0,0,0,22.48,1.49Z"/></g></g></svg>