<svg xmlns="http://www.w3.org/2000/svg" viewBox="0 0 36 36"><defs><style>.cls-1{fill:#dedfe1;}</style></defs><title>404-bg-1</title><g id="Слой_2" data-name="Слой 2"><g id="layout"><path class="cls-1" d="M19.06,18,35.78,1.28A.75.75,0,0,0,34.72.22L18,16.94,1.28.22A.75.75,0,0,0,.22,1.28L16.94,18,.22,34.72a.75.75,0,0,0,0,1.06.75.75,0,0,0,1.06,0L18,19.06,34.72,35.78a.75.75,0,0,0,1.06,0,.75.75,0,0,0,0-1.06Z"/><path class="cls-1" d="M33,10.1a.75.75,0,0,0-1.06,0l-7.37,7.37a.75.75,0,0,0,0,1.06l2.64,2.63a.71.71,0,0,0,.53.22.74.74,0,0,0,.53-.22.75.75,0,0,0,0-1.06L26.19,18,33,11.16A.74.74,0,0,0,33,10.1Z"/><path class="cls-1" d="M29.24,22.12a.75.75,0,0,0,0,1.06l1.6,1.6a.79.79,0,0,0,.53.22.77.77,0,0,0,.53-.22.74.74,0,0,0,0-1.06l-1.6-1.6A.74.74,0,0,0,29.24,22.12Z"/><path class="cls-1" d="M3,25.9a.71.71,0,0,0,.53.22A.74.74,0,0,0,4,25.9l7.37-7.37a.75.75,0,0,0,0-1.06L8.77,14.84A.75.75,0,0,0,7.71,15.9L9.81,18,3,24.84A.74.74,0,0,0,3,25.9Z"/><path class="cls-1" d="M6.23,14.1a.74.74,0,0,0,.53-.22.75.75,0,0,0,0-1.06l-1.6-1.6a.75.75,0,0,0-1.06,0,.74.74,0,0,0,0,1.06l1.6,1.6A.73.73,0,0,0,6.23,14.1Z"/><path class="cls-1" d="M35.25,36a.74.74,0,0,1-.53-.22L17.47,18.53a.75.75,0,0,1,0-1.06L34.72.22a.75.75,0,0,1,1.06,1.06L19.06,18,35.78,34.72a.75.75,0,0,1,0,1.06A.74.74,0,0,1,35.25,36Z"/><path class="cls-1" d="M27.76,21.38a.71.71,0,0,1-.53-.22l-2.64-2.63a.75.75,0,0,1,0-1.06L32,10.1a.75.75,0,0,1,1.06,0,.74.74,0,0,1,0,1.06L26.19,18l2.1,2.1a.75.75,0,0,1,0,1.06A.74.74,0,0,1,27.76,21.38Z"/><path class="cls-1" d="M31.37,25a.79.79,0,0,1-.53-.22l-1.6-1.6a.75.75,0,0,1,0-1.06.74.74,0,0,1,1.06,0l1.6,1.6a.74.74,0,0,1,0,1.06A.77.77,0,0,1,31.37,25Z"/></g></g></svg>