<svg xmlns="http://www.w3.org/2000/svg" viewBox="0 0 35.79 35.79"><defs><style>.cls-1{fill:#dedfe1;}</style></defs><title>404-bg-4</title><g id="Слой_2" data-name="Слой 2"><g id="layout"><path class="cls-1" d="M17.9,9.88a8,8,0,1,0,8,8A8,8,0,0,0,17.9,9.88Zm0,14.55a6.53,6.53,0,1,1,6.53-6.53A6.54,6.54,0,0,1,17.9,24.43Z"/><path class="cls-1" d="M24.56,24.41A9.32,9.32,0,1,1,17.9,8.58a9.22,9.22,0,0,1,6.59,2.73.74.74,0,0,0,1.05,0,.75.75,0,0,0,0-1.06,10.81,10.81,0,1,0,.09,15.2.74.74,0,0,0,0-1.05A.75.75,0,0,0,24.56,24.41Z"/><path class="cls-1" d="M27.81,19.78a.76.76,0,0,0-.91.53,9.25,9.25,0,0,1-.66,1.75.74.74,0,0,0,.33,1,.8.8,0,0,0,.33.08.74.74,0,0,0,.67-.41,10,10,0,0,0,.77-2A.75.75,0,0,0,27.81,19.78Z"/><path class="cls-1" d="M17.9,14.82A3.08,3.08,0,1,0,21,17.9,3.08,3.08,0,0,0,17.9,14.82Zm0,4.66a1.59,1.59,0,1,1,1.58-1.58A1.59,1.59,0,0,1,17.9,19.48Z"/><path class="cls-1" d="M35.12,13.84l-3.35-.31a15.13,15.13,0,0,0-1-2.35l2.15-2.59a.73.73,0,0,0,0-1L28.21,2.9a.76.76,0,0,0-1,0L24.61,5a14.17,14.17,0,0,0-2.35-1L22,.68A.73.73,0,0,0,21.21,0H14.58a.75.75,0,0,0-.74.68L13.53,4a14.17,14.17,0,0,0-2.35,1L8.59,2.85a.76.76,0,0,0-1,0L2.9,7.59a.75.75,0,0,0,0,1L5,11.18H5a14.39,14.39,0,0,0-1,2.34l-3.35.31a.75.75,0,0,0-.68.74v6.63A.73.73,0,0,0,.68,22L4,22.26a14.17,14.17,0,0,0,1,2.35L2.85,27.2a.76.76,0,0,0,0,1l4.68,4.68a.74.74,0,0,0,1,0l2.59-2.15a15.13,15.13,0,0,0,2.35,1l.31,3.35a.75.75,0,0,0,.74.67h6.63a.73.73,0,0,0,.74-.67l.31-3.35a15.13,15.13,0,0,0,2.35-1l2.59,2.15a.74.74,0,0,0,1,0l4.68-4.68a.74.74,0,0,0,0-1l-2.15-2.59a15.13,15.13,0,0,0,1-2.35L35.12,22a.73.73,0,0,0,.67-.74V14.58A.75.75,0,0,0,35.12,13.84Zm-.82,6.69-3.18.29a.77.77,0,0,0-.65.55,12.74,12.74,0,0,1-1.22,3,.74.74,0,0,0,.07.85l2,2.45-3.73,3.73-2.45-2a.74.74,0,0,0-.85-.07,12.74,12.74,0,0,1-3,1.22.77.77,0,0,0-.55.65l-.29,3.18H15.26L15,31.12a.77.77,0,0,0-.55-.65,12.74,12.74,0,0,1-3-1.22.74.74,0,0,0-.85.07l-2.45,2L4.43,27.63l2-2.45a.76.76,0,0,0,.08-.85,12.77,12.77,0,0,1-1.23-3,.75.75,0,0,0-.65-.55l-3.18-.29V15.26L4.67,15a.75.75,0,0,0,.65-.55,13.15,13.15,0,0,1,1-2.54c.07-.14.15-.28.23-.42a.76.76,0,0,0-.08-.85l-2-2.45L8.16,4.43l2.45,2a.76.76,0,0,0,.85.08,12.77,12.77,0,0,1,3-1.23A.75.75,0,0,0,15,4.67l.29-3.18h5.27l.29,3.18a.75.75,0,0,0,.55.65,12.77,12.77,0,0,1,3,1.23.76.76,0,0,0,.85-.08l2.45-2,3.73,3.73-2,2.45a.74.74,0,0,0-.07.85,12.74,12.74,0,0,1,1.22,3,.77.77,0,0,0,.65.55l3.18.29Z"/></g></g></svg>