<svg xmlns="http://www.w3.org/2000/svg" viewBox="0 0 35.79 35.79"><defs><style>.cls-1{fill:#dedfe1;}</style></defs><title>404-bg-6</title><g id="Слой_2" data-name="Слой 2"><g id="layout"><path class="cls-1" d="M35.62,31.92a.75.75,0,0,0-1-.1,8.5,8.5,0,0,1-3,1.61,4.89,4.89,0,0,1-2.63,0l3.81-12.57a.76.76,0,0,0-.33-.86l-3-1.85V12.62a.75.75,0,0,0-.74-.75H27.59V9.61a.75.75,0,0,0-.75-.76H24.23V6.59a.75.75,0,0,0-.74-.75H20.13V.75A.75.75,0,0,0,19.39,0h-3a.75.75,0,0,0-.74.75V5.84H12.3a.75.75,0,0,0-.74.75V8.85H9a.76.76,0,0,0-.75.76v2.26H7.08a.75.75,0,0,0-.74.75v5.49L3.34,20a.75.75,0,0,0-.32.86l3.8,12.57-.61-.27C3.77,32,1.76,33.22.27,34.46a.76.76,0,0,0-.1,1.06.74.74,0,0,0,.58.27.72.72,0,0,0,.47-.17c1.75-1.45,3-1.78,4.35-1.14a6.69,6.69,0,0,0,6.14.28c1.49-.75,2.65-1.24,4-.63l1.72.78a6.17,6.17,0,0,0,5.23,0l.54-.27a5.67,5.67,0,0,1,2-.73,5.24,5.24,0,0,1,2.49.65,6.3,6.3,0,0,0,4.3.37A10.08,10.08,0,0,0,35.52,33,.76.76,0,0,0,35.62,31.92ZM28,17.19l-6.19-3.82H28ZM17.15,1.51h1.49V5.84H17.15Zm-4.1,5.84h9.69v1.5H13.05Zm-3.36,3H26.1v1.51H19.34l-1.06-.65h0l-.05,0h0l-.06,0-.05,0h-.33l-.05,0-.05,0h0l-.06,0h0l-1.05.65H9.69Zm-1.86,3H14L7.83,17.19Zm3.21,20a4.34,4.34,0,0,1-2.52.42L4.61,20.94l12.54-7.73V33.14l-.85-.39C14.22,31.81,12.38,32.73,11,33.41Zm14.06-1a6.63,6.63,0,0,0-2.6.89l-.5.25a4.71,4.71,0,0,1-3.36.26V13.21l12.54,7.73-3.6,11.88A5.66,5.66,0,0,0,25.1,32.36Z"/><path class="cls-1" d="M20.82,16.1a.54.54,0,0,0-.07-.13.31.31,0,0,0-.09-.11.73.73,0,0,0-.67-.21l-.14,0-.13.07a1.56,1.56,0,0,0-.21.21s-.05.08-.07.13a.74.74,0,0,0,0,.14,1.13,1.13,0,0,0,0,.3.74.74,0,0,0,0,.14l.07.13a.52.52,0,0,0,.1.11.31.31,0,0,0,.11.09.57.57,0,0,0,.13.08l.14,0h.14a.75.75,0,0,0,.53-.22.31.31,0,0,0,.09-.11.83.83,0,0,0,.07-.13.74.74,0,0,0,0-.14.57.57,0,0,0,0-.3A.74.74,0,0,0,20.82,16.1Z"/><path class="cls-1" d="M29.08,23.17a.75.75,0,0,0,.41-1.38l-6.71-4.52a.73.73,0,0,0-1,.21.75.75,0,0,0,.21,1L28.67,23A.69.69,0,0,0,29.08,23.17Z"/><path class="cls-1" d="M16.39,16.24a.74.74,0,0,0,0-.14c0-.05-.05-.09-.07-.13a1.56,1.56,0,0,0-.21-.21L16,15.69l-.15,0a.73.73,0,0,0-.67.21L15,16a.54.54,0,0,0-.07.13.74.74,0,0,0,0,.14.77.77,0,0,0,0,.15.75.75,0,0,0,.75.75h.14l.15,0,.12-.08a.31.31,0,0,0,.11-.09.71.71,0,0,0,.22-.53A.76.76,0,0,0,16.39,16.24Z"/><path class="cls-1" d="M13,17.27,6.3,21.79a.75.75,0,0,0,.41,1.38A.69.69,0,0,0,7.12,23l6.72-4.52a.75.75,0,0,0,.2-1A.73.73,0,0,0,13,17.27Z"/></g></g></svg>