<svg width="16" height="16" viewBox="0 0 16 16" fill="none" xmlns="http://www.w3.org/2000/svg">
<g clip-path="url(#clip0)">
<path d="M15.3041 6.10352e-05H4.8694C4.58128 6.10352e-05 4.34766 0.233653 4.34766 0.521808V11.3043C4.34766 11.5925 4.58125 11.8261 4.8694 11.8261H15.3041C15.5922 11.8261 15.8259 11.5925 15.8259 11.3043V0.521777C15.8259 0.233653 15.5923 6.10352e-05 15.3041 6.10352e-05ZM14.7824 4.17394H13.2172C12.9291 4.17394 12.6955 4.40754 12.6955 4.69569C12.6955 4.98384 12.929 5.21744 13.2172 5.21744H14.7824V10.7826H8.17373V9.21741C8.17373 8.92929 7.94014 8.69567 7.65198 8.69567C7.36383 8.69567 7.13023 8.92926 7.13023 9.21741V10.7826H5.39112V1.04352H7.13023V6.78262C7.13023 7.07074 7.36383 7.30436 7.65198 7.30436C7.94014 7.30436 8.17373 7.07077 8.17373 6.78262V5.21741H10.7824C11.0705 5.21741 11.3041 4.98381 11.3041 4.69566C11.3041 4.4075 11.0706 4.17391 10.7824 4.17391H8.17373V1.04352H14.7824V4.17394H14.7824Z" fill="#4479BC"/>
<path d="M15.6736 14.0658L14.6302 13.0224C14.4265 12.8186 14.0961 12.8186 13.8924 13.0224C13.6886 13.2261 13.6886 13.5564 13.8924 13.7602L14.0452 13.913H4.04263L4.19544 13.7602C4.39919 13.5565 4.39919 13.2261 4.19547 13.0224C3.99175 12.8186 3.66138 12.8186 3.45763 13.0224L2.41426 14.0658C2.20911 14.2707 2.21264 14.6024 2.41426 14.8038L3.45763 15.8472C3.66135 16.051 3.99172 16.051 4.19547 15.8472C4.39922 15.6435 4.39922 15.3131 4.19547 15.1094L4.04263 14.9565H14.0451L13.8923 15.1094C13.6886 15.3131 13.6886 15.6435 13.8923 15.8472C14.096 16.051 14.4264 16.051 14.6302 15.8472L15.6735 14.8038C15.877 14.6005 15.8765 14.2685 15.6736 14.0658Z" fill="#4479BC"/>
<path d="M2.41361 10.9354L2.26077 11.0882V1.78133L2.41361 1.93414C2.61733 2.13789 2.9477 2.13793 3.15145 1.93414C3.3552 1.73043 3.35523 1.40005 3.15145 1.19631L2.10795 0.152812C1.90424 -0.0509372 1.57386 -0.0509372 1.37011 0.152812L0.326651 1.19627C0.122903 1.39999 0.122871 1.73036 0.326651 1.93411C0.530369 2.13786 0.860742 2.13786 1.06449 1.93411L1.2173 1.7813V11.0882L1.06449 10.9353C0.860773 10.7316 0.5304 10.7316 0.326651 10.9353C0.122903 11.1391 0.122871 11.4694 0.326651 11.6732L1.37011 12.7166C1.57383 12.9204 1.9042 12.9204 2.10795 12.7166L3.15142 11.6732C3.35516 11.4695 3.3552 11.1391 3.15142 10.9353C2.94773 10.7317 2.61736 10.7317 2.41361 10.9354Z" fill="#4479BC"/>
</g>
<defs>
<clipPath id="clip0">
<rect width="16" height="16" fill="white"/>
</clipPath>
</defs>
</svg>
