<svg xmlns="http://www.w3.org/2000/svg" xmlns:xlink="http://www.w3.org/1999/xlink" viewBox="0 0 36 36"><defs><style>.cls-1{fill:url(#New_Gradient_Swatch_1);}.cls-2{fill:url(#New_Gradient_Swatch_1-4);}.cls-3{fill:url(#New_Gradient_Swatch_1-5);}</style><linearGradient id="New_Gradient_Swatch_1" x1="35.94" y1="18" x2="-0.65" y2="18" gradientUnits="userSpaceOnUse"><stop offset="0" stop-color="#a92c8e"/><stop offset="0.5" stop-color="#2b2968"/><stop offset="1" stop-color="#25a7de"/></linearGradient><linearGradient id="New_Gradient_Swatch_1-4" x1="35.94" y1="15.63" x2="-0.65" y2="15.63" xlink:href="#New_Gradient_Swatch_1"/><linearGradient id="New_Gradient_Swatch_1-5" x1="35.94" y1="23.45" x2="-0.65" y2="23.45" xlink:href="#New_Gradient_Swatch_1"/></defs><title>arr-gradient</title><g id="Слой_2" data-name="Слой 2"><g id="layout"><path class="cls-1" d="M7.5,17.25H20.63a.75.75,0,0,1,0,1.5H7.5a.75.75,0,0,1,0-1.5Z"/><path class="cls-1" d="M.75,17.25h1.5a.75.75,0,0,1,0,1.5H.75a.75.75,0,0,1,0-1.5Z"/><path class="cls-1" d="M18,36a.75.75,0,0,0,.53-.22L35.78,18.53a.75.75,0,0,0,0-1.06L18.53.22a.75.75,0,1,0-1.06,1.06L34.19,18,17.47,34.72A.75.75,0,0,0,18,36Z"/><path class="cls-2" d="M25.49,21.38a.75.75,0,0,0,.53-.22l2.63-2.63a.75.75,0,0,0,0-1.06L21.29,10.1a.75.75,0,1,0-1.06,1.06L27.06,18,25,20.1a.75.75,0,0,0,.53,1.28Z"/><path class="cls-3" d="M21.88,25a.75.75,0,0,0,.53-.22l1.6-1.6a.75.75,0,1,0-1.06-1.06l-1.6,1.6A.75.75,0,0,0,21.88,25Z"/></g></g></svg>