<svg width="65" height="65" viewBox="0 0 65 65" fill="none" xmlns="http://www.w3.org/2000/svg">
<path d="M25.2407 47.8129C25.0965 48.2526 25.2379 48.7355 25.5962 49.0282C25.8007 49.1954 26.0519 49.2807 26.3046 49.2807C26.4946 49.2807 26.6854 49.2324 26.858 49.1343L30.5885 46.8494C30.9383 46.6505 31.1543 46.279 31.1543 45.8765V40.1069C31.1543 39.6974 30.9305 39.3204 30.5711 39.1244C30.2117 38.9283 29.7736 38.944 29.4292 39.1658L27.76 40.2399C27.5439 40.379 27.3821 40.5883 27.3021 40.8326L25.2407 47.8129ZM27.3021 46.8494L28.6558 42.0135L29.7006 41.2673V45.3716L27.3021 46.8494Z" fill="#213A72"/>
<path d="M35.0406 31.0392V44.1291C35.0406 44.5285 35.2535 44.8976 35.599 45.0977C35.7724 45.1982 35.9663 45.2485 36.16 45.2485C36.3522 45.2485 36.5446 45.1989 36.7172 45.1L60.1751 31.6376C60.5228 31.438 60.7373 31.0677 60.7373 30.6667V17.5768C60.7373 17.1774 60.5245 16.8083 60.179 16.6082C59.8335 16.4082 59.4072 16.4072 59.0608 16.606L35.6029 30.0684C35.2551 30.2679 35.0406 30.6382 35.0406 31.0392ZM37.2794 31.6874L58.4986 19.5097V30.0184L37.2794 42.196V31.6874Z" fill="#213A72"/>
<path d="M0 48.4287V53.3704C0 53.7704 0.213426 54.1399 0.559684 54.3397L18.7651 64.85C18.939 64.9504 19.1321 65 19.3246 65C19.5162 65 19.7061 64.9485 19.8767 64.8513L19.8777 64.8531L26.3696 61.1658C26.3696 61.1658 28.976 62.7329 29.1173 62.8144C29.6016 63.0941 30.1368 63.2269 30.6928 63.2269C32.4202 63.2269 34.3494 61.9446 35.5905 59.7948C36.3268 58.5199 36.7057 57.122 36.6578 55.8588C36.6503 55.6613 36.6311 55.4699 36.6027 55.2836L49.5225 47.8252L52.346 49.3086L52.3454 49.3075C52.8103 49.5669 53.3338 49.6972 53.8859 49.6972C54.5372 49.6972 55.2274 49.5174 55.9051 49.1596C57.023 48.5695 58.0441 47.5423 58.7802 46.2675C59.5165 44.9926 59.8954 43.5947 59.8474 42.3315C59.8426 42.2062 59.832 42.0839 59.8189 41.963L61.0508 41.2519C61.3972 41.052 61.6106 40.6824 61.6106 40.2824V34.7672L63.6084 33.6192C63.9557 33.4195 64.1701 33.0494 64.1701 32.6486V11.6314C64.1701 11.2314 63.9569 10.8619 63.6104 10.662L45.4029 0.149958C45.0574 -0.0495875 44.6316 -0.0500352 44.2855 0.148914L13.9637 17.5764C13.6167 17.7758 13.4026 18.1455 13.4021 18.5458C13.4021 18.5461 13.4021 18.5468 13.4021 18.5468V24.0577L7.24126 27.654C6.97545 27.8092 6.79008 28.0649 6.71919 28.3567L6.71785 28.3564L4.05166 39.3326C1.47189 41.6525 0 44.9463 0 48.4287ZM2.29127 47.421L3.33273 48.0223V49.2218L2.23874 48.6054V48.4287C2.23874 48.0901 2.25769 47.7541 2.29127 47.421ZM6.34114 39.392L7.4141 34.9751L23.3721 44.1884L22.1162 48.4996L6.34114 39.392ZM8.54063 30.3375L24.691 39.6614L24.0169 41.9758L7.96467 32.7082L8.54063 30.3375ZM10.0352 28.6155L14.5213 25.9969L30.494 35.2196L26.0083 37.8368L10.0352 28.6155ZM15.641 20.4856L31.6078 29.7035V33.2776L15.641 24.0582V20.4856ZM60.8079 11.6291L32.7285 27.7655L16.7641 18.5492L44.8419 2.41108L60.8079 11.6291ZM33.8465 48.1402V29.7051L61.9312 13.5658V32.0009L33.8465 48.1402ZM52.8552 46.0225C52.8236 45.1876 53.1039 44.1919 53.6241 43.2907C54.1444 42.3895 54.8666 41.6489 55.6054 41.259C55.9576 41.073 56.2909 40.9782 56.574 40.9782C56.7512 40.9782 56.9087 41.0154 57.039 41.0906C57.3774 41.286 57.5855 41.7692 57.61 42.4165C57.6416 43.2514 57.3615 44.2471 56.8412 45.1482C56.3209 46.0494 55.5987 46.79 54.8599 47.18C54.2871 47.4823 53.7647 47.5435 53.4262 47.3483C53.0879 47.153 52.8798 46.6698 52.8552 46.0225ZM34.969 52.679C34.6179 52.4764 34.2397 52.3523 33.8465 52.2986V50.7225L59.3719 36.0539V39.6362L58.9878 39.8578C58.7537 39.5732 58.4758 39.3348 58.1586 39.1517C57.1397 38.5634 55.8282 38.6099 54.5605 39.2792C53.4428 39.8693 52.4216 40.8964 51.6855 42.1713C51.2478 42.9294 50.9375 43.7308 50.7671 44.5217L35.6686 53.2377C35.4634 53.0177 35.2296 52.8293 34.969 52.679ZM30.4346 56.818C31.2881 55.3397 32.5423 54.5041 33.381 54.5041C33.5583 54.5041 33.7171 54.5414 33.8497 54.6179C34.1882 54.8133 34.3961 55.2964 34.4207 55.9437C34.4523 56.7786 34.1721 57.7744 33.6518 58.6756C32.6178 60.4666 30.996 61.3136 30.2367 60.8758C29.4774 60.4373 29.4006 58.6089 30.4346 56.818ZM20.4444 58.2644C20.4444 55.6657 21.4369 53.2035 23.2393 51.3315L23.5981 50.9587C23.7237 50.8282 23.8158 50.6693 23.8664 50.4954L26.9609 39.8729L31.6078 37.1615L31.6077 52.6898C30.441 53.2322 29.3174 54.2751 28.4957 55.6985C28.0784 56.4213 27.7855 57.1625 27.6126 57.8849L20.4444 61.9564V58.2644ZM17.0969 57.1667L17.098 55.9283L18.3163 56.6315C18.2632 57.0301 18.2299 57.4329 18.216 57.839L17.0969 57.1667ZM2.23874 52.724V51.1749L3.90256 52.1123C4.0733 52.2085 4.2627 52.2565 4.4521 52.2565C4.64747 52.2565 4.84253 52.2055 5.01686 52.1035C5.36028 51.9028 5.57147 51.5349 5.57147 51.1372V47.3761C5.57147 46.9761 5.35804 46.6067 5.01178 46.4067L2.79931 45.1293C3.29721 43.704 4.11674 42.4018 5.20834 41.3231L21.0258 50.4552C20.0571 51.6206 19.3218 52.9395 18.846 54.3523L16.5396 53.0213C16.1935 52.8216 15.7671 52.8214 15.4207 53.0211C15.0746 53.2208 14.861 53.5902 14.8607 53.9899L14.8576 57.7987C14.8573 58.192 15.0634 58.5565 15.4004 58.759L18.2057 60.4449V61.942L2.23874 52.724Z" fill="#213A72"/>
</svg>
