<svg xmlns="http://www.w3.org/2000/svg" viewBox="0 0 20 20"><defs><style>.cls-1{fill:#fff;}</style></defs><title>burger</title><g id="Слой_2" data-name="Слой 2"><g id="layout"><path class="cls-1" d="M17.37,5.25H2.63A2.63,2.63,0,1,1,2.63,0H17.37a2.63,2.63,0,1,1,0,5.25ZM2.63.8a1.83,1.83,0,1,0,0,3.65H17.37a1.83,1.83,0,1,0,0-3.65Z"/><path class="cls-1" d="M17.37,12.63H2.63a2.63,2.63,0,0,1,0-5.26H17.37a2.63,2.63,0,0,1,0,5.26ZM2.63,8.17a1.83,1.83,0,1,0,0,3.66H17.37a1.83,1.83,0,0,0,0-3.66Z"/><path class="cls-1" d="M17.37,20H2.63a2.63,2.63,0,1,1,0-5.25H17.37a2.63,2.63,0,1,1,0,5.25ZM2.63,15.55a1.83,1.83,0,1,0,0,3.65H17.37a1.83,1.83,0,1,0,0-3.65Z"/></g></g></svg>