<svg width="31" height="24" viewBox="0 0 31 24" fill="none" xmlns="http://www.w3.org/2000/svg">
<g clip-path="url(#clip0)">
<path d="M24.45 0H2.45C1.89771 0 1.45 0.447715 1.45 1V23C1.45 23.5523 1.89771 24 2.45 24H24.45C25.0023 24 25.45 23.5523 25.45 23V1C25.45 0.447715 25.0023 0 24.45 0Z" fill="white"/>
<path d="M24.45 0.75C24.5163 0.75 24.5799 0.776339 24.6268 0.823223C24.6737 0.870107 24.7 0.933696 24.7 1V23C24.7 23.0663 24.6737 23.1299 24.6268 23.1768C24.5799 23.2237 24.5163 23.25 24.45 23.25H2.45C2.38369 23.25 2.3201 23.2237 2.27322 23.1768C2.22634 23.1299 2.2 23.0663 2.2 23V1C2.2 0.933696 2.22634 0.870107 2.27322 0.823223C2.3201 0.776339 2.38369 0.75 2.45 0.75H24.45ZM24.45 0H2.45C2.18478 0 1.93043 0.105357 1.74289 0.292893C1.55535 0.48043 1.45 0.734784 1.45 1V23C1.45 23.2652 1.55535 23.5196 1.74289 23.7071C1.93043 23.8946 2.18478 24 2.45 24H24.45C24.7152 24 24.9696 23.8946 25.1571 23.7071C25.3446 23.5196 25.45 23.2652 25.45 23V1C25.45 0.734784 25.3446 0.48043 25.1571 0.292893C24.9696 0.105357 24.7152 0 24.45 0V0Z" fill="url(#paint0_linear)"/>
<path d="M29.9 0.590007C29.733 0.402262 29.5282 0.252 29.2989 0.149104C29.0697 0.0462089 28.8213 -0.00698853 28.57 -0.00698853C28.3187 -0.00698853 28.0703 0.0462089 27.8411 0.149104C27.6118 0.252 27.407 0.402262 27.24 0.590007L12.9 16.1L7.64 10.41C7.56924 10.3338 7.49231 10.2636 7.41 10.2C7.34814 10.1287 7.2813 10.0619 7.21 10L3.21 5.67001C3.043 5.48226 2.83815 5.332 2.60892 5.2291C2.37969 5.12621 2.13127 5.07301 1.88 5.07301C1.62873 5.07301 1.38031 5.12621 1.15108 5.2291C0.921845 5.332 0.716994 5.48226 0.549999 5.67001C0.196507 6.0644 0.00102234 6.57538 0.00102234 7.10501C0.00102234 7.63463 0.196507 8.14562 0.549999 8.54001L4.55 12.87C4.62113 12.9428 4.69805 13.0097 4.78 13.07C4.83668 13.1582 4.90021 13.2418 4.97 13.32L11.56 20.44C11.727 20.6278 11.9318 20.778 12.1611 20.8809C12.3903 20.9838 12.6387 21.037 12.89 21.037C13.1413 21.037 13.3897 20.9838 13.6189 20.8809C13.8482 20.778 14.053 20.6278 14.22 20.44L29.9 3.46001C30.2535 3.06562 30.449 2.55463 30.449 2.02501C30.449 1.49538 30.2535 0.984397 29.9 0.590007V0.590007Z" fill="#2A2A68"/>
</g>
<defs>
<linearGradient id="paint0_linear" x1="1.45" y1="12" x2="25.45" y2="12" gradientUnits="userSpaceOnUse">
<stop stop-color="#A92C8E"/>
<stop offset="0.5" stop-color="#2B2968"/>
<stop offset="1" stop-color="#25A7DE"/>
</linearGradient>
<clipPath id="clip0">
<rect width="30.45" height="24" fill="white"/>
</clipPath>
</defs>
</svg>
