<svg xmlns="http://www.w3.org/2000/svg" viewBox="0 0 22.5 22.5"><defs><style>.cls-1{fill:#fff;}</style></defs><title>contact-mobile</title><g id="Слой_2" data-name="Слой 2"><g id="layout"><path class="cls-1" d="M22.24,18.16l-4.69-4.93a.94.94,0,0,0-1.28-.08l-3.05,2.45A9.89,9.89,0,0,1,11,14.08a.47.47,0,0,0-.62.71,9.47,9.47,0,0,0,2.8,1.81.47.47,0,0,0,.41-.09l1.17-.94,4.7,5.08a7.67,7.67,0,0,1-5.45.72,16.63,16.63,0,0,1-8.16-4.73v0a16.65,16.65,0,0,1-4.73-8.2A7.69,7.69,0,0,1,1.86,3L6.75,7.65l-.56.67a.47.47,0,0,0-.07.49A18.4,18.4,0,0,0,9,13.39a.47.47,0,1,0,.71-.61A17.35,17.35,0,0,1,7.09,8.7L9.18,6.21a.94.94,0,0,0-.07-1.28L4.27.26A.93.93,0,0,0,3,.27l-.87.86A8.06,8.06,0,0,0,.21,8.61,17.51,17.51,0,0,0,5.1,17.19l0,0a17.63,17.63,0,0,0,8.73,5.07,10.7,10.7,0,0,0,2.07.21,7.47,7.47,0,0,0,5.44-2.13l.87-.89A.94.94,0,0,0,22.24,18.16ZM3.62.94,8.47,5.61,7.35,6.93,2.41,2.19c.11-.13.23-.26.35-.39ZM20.7,19.71c-.14.14-.29.27-.44.4L15.51,15l1.36-1.09,4.69,4.94Z"/></g></g></svg>