<?xml version="1.0" encoding="utf-8"?>
<!-- Generator: Adobe Illustrator 24.0.2, SVG Export Plug-In . SVG Version: 6.00 Build 0)  -->
<svg version="1.1" id="Слой_1" xmlns="http://www.w3.org/2000/svg" xmlns:xlink="http://www.w3.org/1999/xlink" x="0px" y="0px"
	 viewBox="0 0 49.9 94" style="enable-background:new 0 0 49.9 94;" xml:space="preserve">
<style type="text/css">
	.st0{fill:#B7B9BD;}
</style>
<title>default-partner</title>
<g id="Слой_2_1_">
	<g id="layout">
		<path class="st0" d="M36.5,35.1c-0.4-0.4-1.1-0.4-1.5,0.1c0,0,0,0,0,0L2.9,70.7c-0.4,0.5-0.3,1.1,0.2,1.5c0.4,0.3,1,0.3,1.4-0.1
			l32.1-35.6C36.9,36.1,36.9,35.5,36.5,35.1z"/>
		<path class="st0" d="M39.1,33.2c0.3,0,0.6-0.1,0.8-0.4l8.6-9.5c0.3-0.5,0.2-1.1-0.3-1.5c-0.4-0.3-0.9-0.2-1.2,0.1l-8.7,9.5
			c-0.4,0.4-0.4,1.1,0.1,1.5C38.6,33.1,38.9,33.2,39.1,33.2z"/>
		<path class="st0" d="M31.3,37.4c0.3-0.5,0-1.2-0.5-1.4c0,0,0,0,0,0c-2-1-4.2-1.5-6.4-1.5c-8.1,0-14.6,6.5-14.6,14.6
			c0,2.9,0.8,5.7,2.4,8.1c0.4,0.5,1,0.5,1.5,0.2c0.4-0.3,0.5-0.9,0.3-1.3c-3.8-5.7-2.3-13.5,3.5-17.3c3.7-2.4,8.4-2.8,12.4-0.8
			C30.4,38.2,31,37.9,31.3,37.4C31.3,37.4,31.3,37.4,31.3,37.4z"/>
		<path class="st0" d="M16.5,60.2c-0.3,0.5-0.1,1.2,0.4,1.5c0,0,0,0,0,0c6.9,4.2,15.9,2,20-4.9C40,51.6,39.7,45,36,40.3
			c-0.4-0.5-1-0.6-1.5-0.2c-0.5,0.4-0.6,1-0.2,1.5c1.7,2.2,2.6,4.8,2.6,7.6c0,6.9-5.6,12.5-12.5,12.5c-2.2,0-4.5-0.6-6.4-1.8
			C17.5,59.5,16.9,59.6,16.5,60.2C16.5,60.1,16.5,60.2,16.5,60.2z"/>
		<path class="st0" d="M24.4,40.6c1.1,0,2.1,0.2,3.1,0.6c0.6,0.2,1.2-0.1,1.4-0.6c0.2-0.6-0.1-1.2-0.6-1.4l0,0
			c-5.4-2.2-11.6,0.4-13.8,5.9c-1.2,2.9-1,6.2,0.5,9c0.3,0.5,0.9,0.7,1.4,0.4c0.5-0.3,0.7-0.9,0.4-1.4l0,0
			c-2.2-4.1-0.6-9.3,3.5-11.5C21.6,41,23,40.6,24.4,40.6z"/>
		<path class="st0" d="M24.4,57.6c-1.4,0-2.8-0.3-4-1c-0.5-0.3-1.2-0.1-1.4,0.4c-0.3,0.5-0.1,1.2,0.4,1.4l0,0
			c5.2,2.8,11.6,0.8,14.4-4.3c1.9-3.5,1.6-7.9-0.7-11.2c-0.3-0.5-1-0.6-1.5-0.3c-0.5,0.3-0.6,1-0.3,1.5c0,0,0,0.1,0.1,0.1
			c2.7,3.8,1.8,9.1-2,11.8C27.9,57.1,26.2,57.6,24.4,57.6z"/>
		<path class="st0" d="M4.2,67c0-0.6-0.5-1.1-1.1-1.1c0,0,0,0,0,0H2.1V32.3h32.8c0.6,0,1.1-0.5,1.1-1.1c0-0.6-0.5-1.1-1.1-1.1H20.5
			v-2.5c0-1.6-1.3-2.9-2.9-2.9H9.3c-1.6,0-2.9,1.3-2.9,2.9v2.5H1.1c-0.6,0-1.1,0.5-1.1,1.1c0,0,0,0,0,0V67c0,0.6,0.5,1.1,1.1,1.1
			c0,0,0,0,0,0h2.1C3.8,68.1,4.2,67.6,4.2,67L4.2,67z M8.5,27.6c0-0.4,0.4-0.8,0.8-0.8h8.3c0.4,0,0.8,0.4,0.8,0.8v2.5H8.5V27.6z"/>
		<path class="st0" d="M48.8,30.1h-4c-0.6,0-1.1,0.5-1.1,1.1c0,0.6,0.5,1.1,1.1,1.1h3V66H12.2c-0.6,0-1.1,0.5-1.1,1.1
			c0,0.6,0.5,1.1,1.1,1.1c0,0,0,0,0,0h36.6c0.6,0,1.1-0.5,1.1-1.1c0,0,0,0,0,0V31.2C49.9,30.6,49.4,30.1,48.8,30.1
			C48.8,30.1,48.8,30.1,48.8,30.1z"/>
		<path class="st0" d="M42.7,39.3c1.6,0,2.9-1.3,2.9-2.9c0-1.6-1.3-2.9-2.9-2.9c-1.6,0-2.9,1.3-2.9,2.9c0,0,0,0,0,0
			C39.8,38,41.1,39.3,42.7,39.3z M42.7,35.6c0.4,0,0.8,0.3,0.8,0.8c0,0.4-0.3,0.8-0.8,0.8S42,36.8,42,36.4v0
			C42,36,42.3,35.6,42.7,35.6z"/>
	</g>
</g>
</svg>
