<svg xmlns="http://www.w3.org/2000/svg" viewBox="0 0 43.03 48"><defs><style>.cls-1{fill:#b7b9bd;}</style></defs><title>end-pdf</title><g id="Слой_2" data-name="Слой 2"><g id="layout"><path class="cls-1" d="M42.76,8.17,35.47.32A1,1,0,0,0,34.74,0H9.49A2.12,2.12,0,0,0,7.37,2.12v14H3a3,3,0,0,0-3,3v11a3,3,0,0,0,3,3H7.37V45.88A2.12,2.12,0,0,0,9.49,48H40.91A2.12,2.12,0,0,0,43,45.88v-37A1,1,0,0,0,42.76,8.17Zm-2.24.52H36.14a1.25,1.25,0,0,1-1.24-1.24V2.64ZM2,30.1v-11a1,1,0,0,1,1-1H27.5a1,1,0,0,1,1,1v11a1,1,0,0,1-1,1H3A1,1,0,0,1,2,30.1ZM40.91,46H9.49a.12.12,0,0,1-.12-.12V33.1H27.5a3,3,0,0,0,3-3v-11a3,3,0,0,0-3-3H9.37v-14A.12.12,0,0,1,9.49,2H33a1,1,0,0,0-.09.4v5a3.25,3.25,0,0,0,3.24,3.24H41V45.88A.12.12,0,0,1,40.91,46Z"/><path class="cls-1" d="M9.67,21.72a3.69,3.69,0,0,0-1.53-.29H5.26v6.64H6.8V26.23H8.14a3.74,3.74,0,0,0,1.53-.29,2.23,2.23,0,0,0,1-.83,2.5,2.5,0,0,0,0-2.56A2.27,2.27,0,0,0,9.67,21.72Zm-.56,3a1.61,1.61,0,0,1-1.05.3H6.8v-2.3H8.05A1.61,1.61,0,0,1,9.1,23a1.05,1.05,0,0,1,.36.86A1,1,0,0,1,9.1,24.68Z"/><path class="cls-1" d="M17,21.83a4.24,4.24,0,0,0-1.91-.41h-3v6.64h3A4.24,4.24,0,0,0,17,27.65a3.09,3.09,0,0,0,1.29-1.16,3.54,3.54,0,0,0,0-3.49A3.09,3.09,0,0,0,17,21.83Zm-.4,4.41A2.23,2.23,0,0,1,15,26.8h-1.4V22.68H15a2.23,2.23,0,0,1,1.59.55,2.2,2.2,0,0,1,0,3Z"/><polygon class="cls-1" points="19.94 28.06 21.48 28.06 21.48 25.64 24.55 25.64 24.55 24.41 21.48 24.41 21.48 22.66 24.96 22.66 24.96 21.42 19.94 21.42 19.94 28.06"/></g></g></svg>