<svg xmlns="http://www.w3.org/2000/svg" viewBox="0 0 43.03 48"><defs><style>.cls-1{fill:#b7b9bd;}</style></defs><title>end-stp</title><g id="Слой_2" data-name="Слой 2"><g id="layout"><path class="cls-1" d="M42.76,8.17,35.47.32A1,1,0,0,0,34.74,0H9.49A2.12,2.12,0,0,0,7.37,2.12v14H3a3,3,0,0,0-3,3v11a3,3,0,0,0,3,3H7.37V45.88A2.12,2.12,0,0,0,9.49,48H40.91A2.12,2.12,0,0,0,43,45.88v-37A1,1,0,0,0,42.76,8.17Zm-2.24.52H36.64a1.25,1.25,0,0,1-1.24-1.24V3.18ZM2,30.1v-11a1,1,0,0,1,1-1H27.5a1,1,0,0,1,1,1v11a1,1,0,0,1-1,1H3A1,1,0,0,1,2,30.1ZM40.91,46H9.49a.12.12,0,0,1-.12-.12V33.1H27.5a3,3,0,0,0,3-3v-11a3,3,0,0,0-3-3H9.37v-14A.12.12,0,0,1,9.49,2h24a1,1,0,0,0-.09.4v5a3.25,3.25,0,0,0,3.24,3.24H41V45.88A.12.12,0,0,1,40.91,46Z"/><path class="cls-1" d="M10.1,24.49a11.23,11.23,0,0,0-1.27-.36,5.76,5.76,0,0,1-1.11-.33.54.54,0,0,1-.36-.51.63.63,0,0,1,.31-.55,1.79,1.79,0,0,1,1-.21,3.83,3.83,0,0,1,1.88.52L11,21.9a3.78,3.78,0,0,0-1.08-.44,5.3,5.3,0,0,0-1.27-.15,4,4,0,0,0-1.57.27,2.14,2.14,0,0,0-1,.74,1.82,1.82,0,0,0-.32,1,1.54,1.54,0,0,0,.35,1.06A2.06,2.06,0,0,0,7,25a11.14,11.14,0,0,0,1.27.36q.5.11.8.21a1.44,1.44,0,0,1,.48.25.49.49,0,0,1,.19.39.59.59,0,0,1-.32.52,2,2,0,0,1-1,.19,4,4,0,0,1-1.2-.19,3.64,3.64,0,0,1-1-.5L5.67,27.4a3.67,3.67,0,0,0,1.2.55,5.65,5.65,0,0,0,1.55.21A4,4,0,0,0,10,27.9a2.17,2.17,0,0,0,1-.74,1.79,1.79,0,0,0,.32-1,1.51,1.51,0,0,0-.35-1.05A2.1,2.1,0,0,0,10.1,24.49Z"/><polygon class="cls-1" points="11.8 22.67 13.96 22.67 13.96 28.06 15.53 28.06 15.53 22.67 17.7 22.67 17.7 21.42 11.8 21.42 11.8 22.67"/><path class="cls-1" d="M23.32,21.72a3.83,3.83,0,0,0-1.56-.29H18.83v6.64H20.4V26.23h1.36a3.88,3.88,0,0,0,1.56-.29,2.35,2.35,0,0,0,1-3.39A2.31,2.31,0,0,0,23.32,21.72Zm-.58,3a1.67,1.67,0,0,1-1.07.3H20.4v-2.3h1.28a1.67,1.67,0,0,1,1.07.3,1,1,0,0,1,.37.86A1,1,0,0,1,22.75,24.68Z"/></g></g></svg>