<svg width="56" height="73" viewBox="0 0 56 73" fill="none" xmlns="http://www.w3.org/2000/svg">
<path d="M27.5338 45.636L27.5344 45.6363C27.6683 45.7023 27.8141 45.7366 27.9591 45.7366C28.1027 45.7366 28.2494 45.7045 28.3854 45.6339C28.3857 45.6337 28.386 45.6335 28.3863 45.6334L54.5173 32.5687L54.5175 32.5686C54.8383 32.4073 55.0416 32.0788 55.0416 31.7197C55.0416 31.3606 54.8383 31.0321 54.5175 30.8708L54.5173 30.8707L33.9425 20.5841L33.9425 20.5841L33.9418 20.5837C33.4751 20.3542 32.9057 20.5399 32.6684 21.0089L32.668 21.0096C32.4344 21.4787 32.6244 22.0484 33.0933 22.2837L33.0935 22.2838L51.9685 31.7213L27.9591 43.7252L3.94971 31.7214L23.0836 22.1585L23.0838 22.1584C23.5527 21.923 23.7427 21.3534 23.5091 20.8843L23.509 20.8841C23.2735 20.4131 22.7036 20.2252 22.2348 20.4587L22.2346 20.4588L1.40092 30.874L1.40065 30.8741C1.07989 31.0354 0.876617 31.3639 0.876617 31.723C0.876617 32.0821 1.07989 32.4106 1.40065 32.5719L1.40093 32.572L27.5338 45.636Z" fill="#213A72" stroke="#213A72" stroke-width="0.25"/>
<path d="M27.5331 72.0245L27.5338 72.0248C27.6676 72.0908 27.8135 72.1251 27.9585 72.1251C28.1019 72.1251 28.2483 72.0931 28.3807 72.026C28.3809 72.026 28.381 72.0259 28.3811 72.0258L54.5133 58.9606L54.5135 58.9605C54.9824 58.7251 55.1724 58.1555 54.9388 57.6864L54.9386 57.686C54.703 57.2167 54.1351 57.0293 53.665 57.2605L53.665 57.2605L53.6643 57.2608L27.9568 70.1138L2.24932 57.2608L2.24932 57.2608L2.24841 57.2604C1.78022 57.031 1.21257 57.2166 0.975222 57.6856L0.97522 57.6856L0.974859 57.6864C0.741263 58.1555 0.931246 58.7251 1.40011 58.9605L1.4003 58.9606L27.5331 72.0245Z" fill="#213A72" stroke="#213A72" stroke-width="0.25"/>
<path d="M53.1397 58.1096C53.1397 58.6338 53.5651 59.0592 54.0894 59.0592C54.6153 59.0592 55.039 58.6355 55.039 58.1096V31.7211C55.039 31.1969 54.6136 30.7715 54.0894 30.7715C53.5651 30.7715 53.1397 31.1969 53.1397 31.7211V58.1096Z" fill="#213A72" stroke="#213A72" stroke-width="0.25"/>
<path d="M27.0089 71.1754C27.0089 71.6996 27.4343 72.125 27.9586 72.125C28.4827 72.125 28.9082 71.7014 28.9082 71.1754V44.7869C28.9082 44.2627 28.4828 43.8373 27.9586 43.8373C27.4343 43.8373 27.0089 44.2627 27.0089 44.7869V71.1754Z" fill="#213A72" stroke="#213A72" stroke-width="0.25"/>
<path d="M0.875641 58.1096C0.875641 58.6338 1.30104 59.0592 1.82528 59.0592C2.34935 59.0592 2.77492 58.6356 2.77492 58.1096V31.7211C2.77492 31.1969 2.34952 30.7715 1.82528 30.7715C1.30104 30.7715 0.875641 31.1969 0.875641 31.7211V58.1096Z" fill="#213A72" stroke="#213A72" stroke-width="0.25"/>
<path d="M29.1251 2.35972C29.1251 1.96054 29.0061 1.59403 28.8078 1.32434C28.6095 1.05473 28.3253 0.875 28.0001 0.875C27.675 0.875 27.3908 1.05385 27.1924 1.32325C26.994 1.59269 26.8751 1.95926 26.8751 2.35972V35.6403C26.8751 36.0395 26.994 36.406 27.1924 36.6757C27.3906 36.9453 27.6748 37.125 28.0001 37.125C28.3253 37.125 28.6095 36.9453 28.8078 36.6757C29.0061 36.406 29.1251 36.0395 29.1251 35.6403V2.35972Z" fill="#213A72" stroke="#213A72" stroke-width="0.25"/>
<path d="M20.6328 27.337L20.6323 27.3366C20.4465 27.1527 20.2035 27.0596 19.9605 27.0596C19.7173 27.0596 19.4744 27.1528 19.2871 27.3382L19.2866 27.3387C18.9162 27.7091 18.9162 28.311 19.2866 28.6815L27.284 36.6805L27.2845 36.681C27.4626 36.8572 27.7035 36.9579 27.9562 36.9579C28.209 36.9579 28.4501 36.8571 28.6284 36.6788L36.6291 28.6798L36.6291 28.6798C36.9995 28.3094 36.9995 27.7074 36.6291 27.337C36.2587 26.9666 35.6567 26.9666 35.2863 27.337L27.9579 34.6638L20.6328 27.337Z" fill="#213A72" stroke="#213A72" stroke-width="0.25"/>
</svg>
