<svg xmlns="http://www.w3.org/2000/svg" viewBox="0 0 16.4 24"><defs><style>.cls-1{fill:#6e737a;}</style></defs><title>file-input</title><g id="Слой_2" data-name="Слой 2"><g id="layout"><path class="cls-1" d="M15.9,11.71a.5.5,0,0,0-.5.5v4.9a5.89,5.89,0,1,1-11.78,0V8.21a4.45,4.45,0,0,1,8.89,0v8.44a3.06,3.06,0,0,1-6.12,0v-7a.5.5,0,0,0-1,0v7a4.06,4.06,0,0,0,8.12,0V8.21a5.45,5.45,0,0,0-10.89,0v8.9a6.89,6.89,0,1,0,13.78,0v-4.9A.5.5,0,0,0,15.9,11.71Z"/><path class="cls-1" d="M3.1,2.72a6.52,6.52,0,0,1,1.63-1.1A.5.5,0,1,0,4.3.72,7.53,7.53,0,0,0,0,7.52v5.73a.5.5,0,0,0,1,0V7.52A6.54,6.54,0,0,1,3.1,2.72Z"/><path class="cls-1" d="M8,1a6.54,6.54,0,0,1,1.63.2A6.46,6.46,0,0,1,12,2.33a.5.5,0,1,0,.61-.8A7.45,7.45,0,0,0,9.89.24,7.54,7.54,0,0,0,8,0,.5.5,0,0,0,8,1Z"/><path class="cls-1" d="M.5,15.25a.5.5,0,0,0-.5.5v2a.5.5,0,0,0,1,0v-2A.5.5,0,0,0,.5,15.25Z"/></g></g></svg>