<svg width="68" height="75" viewBox="0 0 68 75" fill="none" xmlns="http://www.w3.org/2000/svg">
<path d="M16.4013 12.7529C15.7874 13.1787 15.092 13.4207 14.355 13.4207C13.6179 13.4207 12.9225 13.1787 12.3086 12.7529V13.6356L14.355 17.6409L16.4013 13.6356V12.7529Z" fill="#D8B4A4"/>
<path d="M16.0518 16.1945L18.2487 17.1952L18.3561 14.7166L17.0388 14.2627L16.0518 16.1945Z" fill="#898785"/>
<path d="M14.3546 12.568C16.3551 12.568 17.9825 10.2478 17.9825 7.39563V6.16507C17.1607 6.02575 16.5986 5.47169 16.3539 4.57129C15.8657 4.8953 15.1633 5.09329 14.3546 5.09329C13.546 5.09329 12.8435 4.8953 12.3553 4.57129C12.1106 5.47169 11.5485 6.02575 10.7266 6.16507L10.7267 7.39563C10.7266 10.2478 12.3541 12.568 14.3546 12.568ZM15.8897 7.53734C16.0483 7.37875 16.3331 7.37875 16.4917 7.53734C16.5719 7.61578 16.6162 7.72663 16.6162 7.83747C16.6162 7.95003 16.5719 8.0607 16.4917 8.13932C16.4133 8.21947 16.3024 8.2638 16.1899 8.2638C16.079 8.2638 15.9682 8.21947 15.8897 8.13932C15.8096 8.0607 15.7635 7.95003 15.7635 7.83747C15.7635 7.72663 15.8096 7.61578 15.8897 7.53734ZM13.2499 9.90653C13.4503 9.90653 13.6184 10.0448 13.664 10.2311C13.7468 10.282 13.9834 10.3707 14.3544 10.3707C14.7255 10.3707 14.9619 10.282 15.0449 10.2309C15.0905 10.0447 15.2586 9.90636 15.459 9.90636C15.6945 9.90636 15.8853 10.0972 15.8853 10.3327C15.8853 10.8571 15.2557 11.2234 14.3543 11.2234C13.4528 11.2234 12.8232 10.8572 12.8232 10.3327C12.8236 10.0974 13.0144 9.90653 13.2499 9.90653ZM12.092 7.83765C12.092 7.7268 12.138 7.61595 12.2165 7.53751C12.3768 7.37721 12.6599 7.37721 12.8202 7.53751C12.9003 7.61595 12.9447 7.7268 12.9447 7.83765C12.9447 7.9502 12.9003 8.05934 12.8202 8.13949C12.74 8.21964 12.6309 8.26397 12.5183 8.26397C12.4075 8.26397 12.2966 8.21964 12.2165 8.13949C12.138 8.06087 12.092 7.95003 12.092 7.83765Z" fill="#D8B4A4"/>
<path d="M11.6424 3.42108C11.6424 3.18558 11.8332 2.99475 12.0687 2.99475H12.0689C12.0691 2.99475 12.0691 2.99475 12.0691 2.99475C12.3046 2.99475 12.4954 3.18558 12.4954 3.42108C12.4954 3.75532 13.2198 4.24082 14.3547 4.24082C15.4898 4.24082 16.214 3.75532 16.214 3.42108C16.214 3.18558 16.4048 2.99475 16.6403 2.99475H16.6405C16.6407 2.99475 16.6407 2.99475 16.6407 2.99475C16.8762 2.99475 17.067 3.18558 17.067 3.42108C17.067 4.47684 17.3751 5.10184 17.9826 5.28874V3.11003C17.9834 3.06859 17.9911 2.39312 17.406 1.79524C16.794 1.16973 15.7674 0.852539 14.3549 0.852539C12.9424 0.852539 11.9156 1.16973 11.3034 1.79524C10.7183 2.39312 10.726 3.06842 10.7266 3.0969L10.7268 5.28874C11.3344 5.10184 11.6424 4.47684 11.6424 3.42108Z" fill="#C69C6D"/>
<path d="M17.3278 52.6156C17.2961 52.7571 17.3213 52.901 17.3982 53.0223C17.4752 53.1435 17.5947 53.2276 17.7349 53.2588C17.8752 53.2905 18.0193 53.2651 18.1406 53.1882C18.2618 53.1113 18.3459 52.9918 18.3771 52.8516C18.3795 52.8412 18.382 52.831 18.3851 52.8209L21.213 43.4814L19.5538 42.5L17.3278 52.6156Z" fill="#E5CBBD"/>
<path d="M14.7812 18.68V40.0489H19.0778L19.5508 38.2564C19.5766 38.1415 19.7608 37.3975 20.3172 36.6584V23.8518C20.3172 23.8419 20.3382 23.7193 20.3409 23.7117L22.8046 16.6392C22.2631 16.1547 21.5133 15.7142 20.4722 15.4441C20.4615 15.4414 19.1966 15.0059 19.1966 15.0059L19.0728 17.8629C19.0667 18.0045 18.9906 18.1337 18.8697 18.2079C18.8017 18.2497 18.7244 18.2709 18.6469 18.2709C18.5867 18.2709 18.5265 18.2581 18.47 18.2325L15.6632 16.9538L14.7812 18.68Z" fill="#898785"/>
<path d="M20.3178 49.3817L19.206 53.0539C19.1221 53.4092 18.9067 53.7118 18.5979 53.9078C18.3724 54.0509 18.1164 54.1247 17.8555 54.1247C17.7537 54.1247 17.6511 54.1134 17.5494 54.0908C17.1872 54.0098 16.8779 53.7925 16.6789 53.4791C16.4799 53.1655 16.4149 52.7932 16.4961 52.4306L18.7848 42.0305C18.6739 41.9249 18.625 41.7663 18.6654 41.6135L18.8533 40.9014H8.39258V71.1916H12.5005L13.929 43.6901C13.9413 43.4551 14.1403 43.2752 14.377 43.2864C14.597 43.2978 14.7674 43.4749 14.7785 43.6902L14.7814 43.6901L16.2099 71.1916H20.3178V49.3817Z" fill="#5576A5"/>
<path d="M12.6577 16.1945L11.6707 14.2627L10.3535 14.7166L10.4609 17.1952L12.6577 16.1945Z" fill="#898785"/>
<path d="M8.39319 23.8517V40.0487H13.9291V18.68L13.0472 16.9538L10.2404 18.2325C10.1841 18.2581 10.1237 18.2709 10.0635 18.2709C9.98595 18.2709 9.9087 18.2497 9.84065 18.2079C9.71975 18.1337 9.64369 18.0045 9.63755 17.8629L9.51375 15.0059C9.51375 15.0059 8.24874 15.4414 8.23817 15.4441C7.19895 15.7136 6.44981 16.1576 5.9082 16.6457C5.9082 16.6457 8.37289 23.727 8.37511 23.7348C8.37971 23.751 8.39319 23.8419 8.39319 23.8517Z" fill="#898785"/>
<path d="M7.55716 72.556C7.11992 73.0193 6.98776 73.7127 6.94922 74.1476H12.4782V72.0449H8.89703C8.31995 72.0451 7.88185 72.2122 7.55716 72.556Z" fill="#736357"/>
<path d="M22.1231 41.5358L20.7575 37.5352C20.4839 38.0075 20.3908 38.4103 20.383 38.4466C20.3818 38.4526 20.3799 38.4598 20.3784 38.4657L19.5723 41.5198L21.7206 42.7906L22.1231 41.5358Z" fill="#B0CE5F"/>
<path d="M1.01351 39.5909H3.71081L4.50924 38.124H0.90625L1.01351 39.5909Z" fill="#898785"/>
<path d="M0.86233 41.421C0.822596 41.7275 0.904622 42.0317 1.0934 42.2773C1.28235 42.5226 1.55537 42.6799 1.8625 42.7198C2.16945 42.7593 2.47402 42.6777 2.71942 42.4887C2.96481 42.2998 3.12204 42.0266 3.16194 41.7194C3.16348 41.7077 3.43599 40.4434 3.43599 40.4434H0.991251L0.86233 41.421Z" fill="#D8B4A4"/>
<path d="M4.51862 19.1504C4.51726 19.1652 0.966797 37.2714 0.966797 37.2714H4.87742L7.52611 23.8823L5.25839 17.3721C4.60832 18.2832 4.51999 19.135 4.51862 19.1504Z" fill="#898785"/>
<path d="M49.6298 17.2653L52.4122 16.5975V14.4522C51.3833 13.5232 50.7058 11.9521 50.7058 10.1739V8.99914H50.7063C50.7062 8.79843 50.8477 8.61937 51.052 8.58032C51.083 8.57435 54.1511 7.96112 54.1511 5.99063V3.41748C53.3893 3.46182 51.7297 3.68641 50.6078 4.76672C49.8312 5.51433 49.4376 6.5573 49.4376 7.86647C49.4376 7.9352 49.4209 8.00307 49.3892 8.06395C49.3515 8.13574 45.7625 15.0987 48.382 17.7257C48.7534 17.5336 49.1668 17.3741 49.6298 17.2653Z" fill="#CC7050"/>
<path d="M51.5586 9.33702V10.1747C51.5586 12.5515 52.9128 14.4854 54.5775 14.4854C56.2422 14.4854 57.5964 12.5515 57.5964 10.1747V9.33702C56.8974 9.15114 55.3342 8.61942 54.5775 7.44531C53.8209 8.61942 52.2576 9.15097 51.5586 9.33702ZM52.7958 10.7782C52.685 10.7782 52.5741 10.7321 52.494 10.6537C52.4155 10.5735 52.3695 10.4644 52.3695 10.3518C52.3695 10.2393 52.4155 10.1302 52.494 10.05C52.6543 9.89141 52.939 9.89141 53.0976 10.05C53.1778 10.1302 53.2221 10.2393 53.2221 10.3518C53.2221 10.4644 53.1778 10.5735 53.0976 10.6537C53.0192 10.7321 52.9083 10.7782 52.7958 10.7782ZM56.0581 10.05C56.215 9.89141 56.5014 9.89141 56.66 10.05C56.7402 10.1302 56.7845 10.2393 56.7845 10.3518C56.7845 10.4644 56.7402 10.5735 56.66 10.6537C56.5816 10.7321 56.4707 10.7782 56.3582 10.7782C56.2456 10.7782 56.1365 10.7321 56.0581 10.652C55.9779 10.5734 55.9319 10.4644 55.9319 10.3518C55.9319 10.2393 55.9779 10.1302 56.0581 10.05ZM55.3113 12.3066C55.3545 12.117 55.5243 11.9753 55.7271 11.9753C55.9626 11.9753 56.1534 12.1661 56.1534 12.4016C56.1534 12.9371 55.5054 13.3111 54.5777 13.3111C53.65 13.3111 53.002 12.9371 53.002 12.4016C53.002 12.1661 53.1928 11.9753 53.4283 11.9753C53.6311 11.9753 53.8009 12.117 53.8441 12.3066C53.9281 12.3612 54.1781 12.4584 54.5779 12.4584C54.9771 12.4584 55.2272 12.361 55.3113 12.3066Z" fill="#FCEBE6"/>
<path d="M22.5227 30.6472C22.4716 30.3165 22.4438 29.9758 22.4438 29.6272C22.4438 25.9391 23.9409 24.7113 25.1818 24.2091C25.1818 24.2091 24.1934 19.1655 24.1921 19.1506C24.1861 19.0889 24.0926 18.2531 23.4555 17.3633L21.1846 23.8827L22.5227 30.6472Z" fill="#898785"/>
<path d="M43.1765 27.1758L43.1777 27.1765C43.2107 27.1236 43.2546 27.0767 43.3108 27.0414C43.5104 26.9164 43.7733 26.9764 43.8985 27.1758L44.7771 28.5752H48.4111C48.4111 25.921 46.62 24.7397 44.87 24.7397C42.7933 24.7397 41.5825 26.0609 41.3291 28.5752H42.2977L43.1765 27.1758Z" fill="#9C6634"/>
<path d="M58.1025 8.58017C58.3071 8.61905 58.4488 8.79811 58.4486 8.99899H58.4492V10.1738C58.4492 11.9517 57.7718 13.5227 56.7432 14.4517V16.5977L59.5276 17.2658C59.9901 17.3745 60.4028 17.5336 60.7737 17.7256C63.3925 15.0984 59.8037 8.13576 59.7663 8.06397C59.7346 8.00309 59.7179 7.93522 59.7179 7.86649C59.7179 6.55545 59.323 5.51129 58.544 4.76334C57.4174 3.68166 55.7636 3.46014 55.0039 3.41699V5.99065C55.0039 7.9683 58.0714 8.57437 58.1025 8.58017Z" fill="#CC7050"/>
<path d="M54.5767 15.3375C54.1161 15.3375 53.6743 15.2292 53.2642 15.0314V16.934C53.2642 17.1312 53.1291 17.3026 52.9373 17.3486L50.9961 17.8143C51.2127 18.9906 52.5947 19.7606 54.5767 19.7606C56.559 19.7606 57.9412 18.9908 58.1577 17.8143L56.2166 17.3486C56.0249 17.3026 55.8897 17.1312 55.8897 16.934V15.0312C55.4795 15.2291 55.0375 15.3375 54.5767 15.3375Z" fill="#FCEBE6"/>
<path d="M48.4608 29.6268C48.4608 29.5595 48.4594 29.4937 48.4584 29.4277H44.5403C44.3936 29.4277 44.2572 29.3523 44.1793 29.228L43.5364 28.2041L42.8935 29.228C42.8155 29.3523 42.6791 29.4277 42.5325 29.4277H41.2797C41.2787 29.4937 41.2773 29.5595 41.2773 29.6268C41.2773 32.1669 42.8885 34.2332 44.8689 34.2332C46.8495 34.2332 48.4608 32.1669 48.4608 29.6268ZM46.2354 30.1088C46.394 29.9502 46.6787 29.9502 46.839 30.1088C46.9175 30.1872 46.9635 30.2981 46.9635 30.4106C46.9635 30.5215 46.9175 30.6323 46.839 30.7107C46.7589 30.7909 46.6498 30.8352 46.5372 30.8352C46.4247 30.8352 46.3155 30.7909 46.2354 30.7107C46.1569 30.6323 46.1109 30.5215 46.1109 30.4106C46.1109 30.2981 46.1569 30.1872 46.2354 30.1088ZM42.8998 30.7176C42.8196 30.6391 42.7736 30.53 42.7736 30.4174C42.7736 30.3049 42.8196 30.194 42.8998 30.1156C43.0584 29.957 43.3432 29.957 43.5018 30.1156C43.5819 30.1957 43.6262 30.3049 43.6262 30.4174C43.6262 30.5283 43.5819 30.6391 43.5018 30.7176C43.4233 30.7977 43.3125 30.8438 43.1999 30.8438C43.0891 30.8438 42.9782 30.7977 42.8998 30.7176ZM43.4387 32.5068C43.4381 32.2713 43.6285 32.0799 43.864 32.0794C43.8643 32.0794 43.8646 32.0794 43.865 32.0794C44.0503 32.0794 44.2083 32.1978 44.2669 32.3632C44.3536 32.406 44.5606 32.4664 44.8636 32.4664C44.8653 32.4664 44.867 32.4664 44.8687 32.4664C45.1747 32.4657 45.3834 32.4039 45.4702 32.3606C45.5282 32.1947 45.6859 32.0757 45.8718 32.0752C45.8721 32.0752 45.8725 32.0752 45.8728 32.0752C46.1078 32.0752 46.2986 32.2653 46.2991 32.5005C46.2997 32.6696 46.2267 32.9822 45.7343 33.1744C45.497 33.267 45.1902 33.3183 44.8706 33.319C44.868 33.319 44.8655 33.319 44.8631 33.319C44.012 33.319 43.4398 32.9931 43.4387 32.5068Z" fill="#E5CBBD"/>
<path d="M26.8881 35.0861C26.4387 35.0861 26.0049 35.0031 25.5958 34.8501C25.5697 34.9461 25.511 35.0297 25.4297 35.0868C25.6345 35.4007 26.1884 35.6787 26.8818 35.6787C26.884 35.6787 26.8867 35.6789 26.8882 35.6787C26.8905 35.6789 26.8925 35.6787 26.8947 35.6787C27.5881 35.6787 28.142 35.4009 28.3468 35.0868C28.2655 35.0298 28.2068 34.9461 28.1807 34.8501C27.7713 35.0031 27.3374 35.0861 26.8881 35.0861Z" fill="#E5CBBD"/>
<path d="M47 34.4352L47.7413 34.6925C47.8388 34.2562 47.9405 33.8399 48.0459 33.4424C47.7393 33.8271 47.3873 34.1571 47 34.4178V34.4352Z" fill="#FCEBE6"/>
<path d="M23.3467 28.5752H24.3153L25.1939 27.1758C25.319 26.9763 25.582 26.9161 25.7815 27.0414C25.8378 27.0767 25.8816 27.1238 25.9147 27.1765L25.9159 27.1758L26.7945 28.5752H30.4285C30.1751 26.0609 28.9643 24.7397 26.8874 24.7397C24.8109 24.7397 23.6001 26.0609 23.3467 28.5752Z" fill="#C69C6D"/>
<path d="M22.6289 31.1846L23.3675 34.9182L24.759 34.4352V34.4177C23.742 33.733 22.9662 32.5739 22.6289 31.1846Z" fill="#898785"/>
<path d="M44.8689 35.0861C44.4195 35.0861 43.9857 35.0031 43.5766 34.8501C43.5505 34.9463 43.4917 35.03 43.4102 35.0871C43.6146 35.4024 44.1694 35.6818 44.868 35.6787C44.8684 35.6787 44.8687 35.6787 44.8689 35.6787C44.8711 35.6789 44.8731 35.6787 44.8754 35.6787C45.5687 35.6787 46.1226 35.4009 46.3274 35.0868C46.2461 35.0298 46.1874 34.9461 46.1613 34.8501C45.7521 35.0031 45.3182 35.0861 44.8689 35.0861Z" fill="#E5CBBD"/>
<path d="M26.1988 29.228L25.5559 28.2041L24.913 29.228C24.8351 29.3523 24.6986 29.4277 24.552 29.4277H23.2993C23.2982 29.4937 23.2969 29.5595 23.2969 29.6268C23.2969 32.1669 24.9081 34.2332 26.8886 34.2332C28.8692 34.2332 30.4803 32.1669 30.4803 29.6268C30.4803 29.5595 30.479 29.4937 30.4779 29.4277H26.5598C26.4132 29.4277 26.2767 29.3523 26.1988 29.228ZM24.9185 30.7193C24.84 30.6391 24.794 30.53 24.794 30.4174C24.794 30.3049 24.84 30.194 24.9185 30.1156C25.0771 29.957 25.3635 29.957 25.5221 30.1156C25.6006 30.194 25.6466 30.3049 25.6466 30.4174C25.6466 30.53 25.6006 30.6391 25.5221 30.7193C25.442 30.7977 25.3328 30.8438 25.2203 30.8438C25.1077 30.8438 24.9986 30.7977 24.9185 30.7193ZM28.2558 30.1088C28.4126 29.9502 28.6991 29.9502 28.8577 30.1088C28.9379 30.1872 28.9839 30.2981 28.9839 30.4089C28.9839 30.5215 28.9379 30.6323 28.8577 30.7107C28.7793 30.7909 28.6684 30.8352 28.5576 30.8352C28.445 30.8352 28.3342 30.7909 28.2558 30.7107C28.1756 30.6323 28.1313 30.5215 28.1313 30.4089C28.1313 30.2981 28.1756 30.1872 28.2558 30.1088ZM27.4899 32.3606C27.5479 32.1947 27.7056 32.0757 27.8915 32.0752C27.8918 32.0752 27.8922 32.0752 27.8925 32.0752C28.1275 32.0752 28.3183 32.2653 28.3189 32.5005C28.3192 32.6696 28.2464 32.9822 27.7541 33.1744C27.5167 33.267 27.2099 33.3183 26.8905 33.319C26.8879 33.319 26.8854 33.319 26.883 33.319C26.0319 33.319 25.4597 32.9931 25.4585 32.5068C25.458 32.2713 25.6483 32.0799 25.8838 32.0794C25.8842 32.0794 25.8845 32.0794 25.8849 32.0794C26.0702 32.0794 26.2281 32.1978 26.2868 32.3632C26.3739 32.4062 26.5866 32.4722 26.8886 32.4664C27.1942 32.4657 27.4029 32.4039 27.4899 32.3606Z" fill="#E5CBBD"/>
<path d="M23.1533 52.541L22.21 61.4105H25.9107L26.464 55.0831C26.4847 54.8486 26.6922 54.6761 26.9258 54.6955C27.1351 54.7138 27.2949 54.8807 27.3124 55.083H27.3133L27.8707 61.4105H31.5674L30.624 52.541H23.1533Z" fill="#C69C6D"/>
<path d="M48.6056 52.541H41.1348L40.1914 61.4105H43.8921L44.4455 55.0831C44.4661 54.8486 44.6725 54.6761 44.9073 54.6955C45.1165 54.7138 45.2763 54.8807 45.2939 55.083H45.2947L45.8522 61.4105H49.5488L48.6056 52.541Z" fill="#C66D6D"/>
<path d="M48.0886 72.16L48.6017 62.2632H46.23L46.2266 72.16H48.0886Z" fill="#E5CBBD"/>
<path d="M48.491 73.0127H46.225L46.2246 74.1469H49.6276C49.6311 74.1445 49.6349 74.1423 49.6385 74.1397C49.5998 73.878 49.5068 73.5448 49.2853 73.3108C49.0958 73.1111 48.836 73.0135 48.491 73.0127Z" fill="#B3B3B3"/>
<path d="M51.3745 38.4453C51.3669 38.4096 51.2739 38.0074 51.0006 37.5352L49.6348 41.5358L50.0372 42.7906L52.1856 41.5198C52.1854 41.5198 51.3761 38.4521 51.3745 38.4453Z" fill="#5F7ECE"/>
<path d="M41.2481 73.0127C40.903 73.0134 40.6433 73.1111 40.454 73.311C40.2306 73.5468 40.1376 73.8839 40.0996 74.1469H43.5145L43.514 73.0127H41.2481Z" fill="#B3B3B3"/>
<path d="M43.5137 72.16L43.5102 62.2632H41.1387L41.6516 72.16H43.5137Z" fill="#E5CBBD"/>
<path d="M49.5702 43.7915L49.415 52.0959L49.4664 52.5778H52.408L49.7658 43.8522C49.7244 43.8493 49.6831 43.8428 49.6434 43.8277C49.6176 43.8179 49.5932 43.8058 49.5702 43.7915Z" fill="#BADFE8"/>
<path d="M50.9561 74.1474H54.1499V71.6494H52.2888C52.1624 72.1977 51.823 73.2422 50.9561 74.1474Z" fill="#998675"/>
<path d="M63.5064 24.458L60.9645 25.6128C60.875 25.8709 60.7617 26.1009 60.6328 26.3062L65.0837 40.9255C65.0867 40.9356 65.0895 40.9457 65.0917 40.9559C65.151 41.219 65.3093 41.4433 65.5375 41.5874C65.7656 41.7316 66.0364 41.778 66.2992 41.7188C66.5625 41.6593 66.7868 41.5011 66.931 41.2729C67.0751 41.0449 67.1217 40.7743 67.0622 40.5111L63.5064 24.458Z" fill="#FCEBE6"/>
<path d="M53.1612 53.9078C52.969 53.7859 52.813 53.6223 52.7023 53.4307H50.3408C50.3778 55.1126 50.6266 61.6453 52.2914 70.7964H54.151V54.1007C54.0685 54.1155 53.9858 54.1249 53.9034 54.1249C53.6428 54.1247 53.3869 54.0511 53.1612 53.9078Z" fill="#FCEBE6"/>
<path d="M55.0803 53.4791C55.0564 53.5168 55.0309 53.5528 55.0039 53.5875V70.7964H56.8639C58.5295 61.64 58.7774 55.1119 58.8143 53.4307H55.1079C55.0985 53.4467 55.0904 53.4632 55.0803 53.4791Z" fill="#FCEBE6"/>
<path d="M55.0039 71.6494V74.1474H58.1981C57.3311 73.2422 56.9918 72.1977 56.8654 71.6494H55.0039Z" fill="#998675"/>
<path d="M19.8136 72.0449H16.2324V74.1476H21.2616C21.2917 73.8742 21.3652 73.5152 21.5397 73.1759C21.2314 72.4157 20.6652 72.0449 19.8136 72.0449Z" fill="#736357"/>
<path d="M52.2042 42.5L50.5449 43.4814L53.3728 52.8209C53.3759 52.831 53.3786 52.8412 53.3809 52.8516C53.4122 52.9916 53.4961 53.1111 53.6174 53.1882C53.7386 53.2651 53.8826 53.2902 54.0229 53.2588C54.1631 53.2274 54.2826 53.1435 54.3595 53.0223C54.4364 52.901 54.4617 52.7571 54.4303 52.6171L52.2042 42.5Z" fill="#E5CBBD"/>
<path d="M34.2227 42.5L32.5635 43.4814L35.3914 52.8209C35.3945 52.831 35.3972 52.8412 35.3994 52.8516C35.4308 52.9916 35.5147 53.1111 35.6359 53.1882C35.7572 53.2651 35.9011 53.2902 36.0415 53.2588C36.1816 53.2274 36.3012 53.1435 36.3781 53.0223C36.455 52.901 36.4802 52.7571 36.4489 52.6171L34.2227 42.5Z" fill="#E5CBBD"/>
<path d="M40.9796 41.5236L41.1696 51.6884H48.5702L48.7601 41.5236C48.7603 41.5152 48.7808 41.4004 48.783 41.3938L50.3706 36.743C50.0297 36.4308 49.5816 36.1609 48.9941 36.0273C48.9789 36.0239 47.1345 35.3848 47.1345 35.3848C46.8101 36.0514 45.9215 36.5314 44.8763 36.5314C44.8744 36.5314 44.8727 36.5314 44.8708 36.5314C44.8701 36.5314 44.8696 36.5314 44.8689 36.5314C44.8671 36.5314 44.8654 36.5314 44.8635 36.5314C43.8181 36.5314 42.9297 36.0514 42.6053 35.3848C42.6053 35.3848 40.7608 36.0239 40.7457 36.0273C40.1582 36.161 39.7099 36.4308 39.3691 36.743L40.9568 41.3938C40.9592 41.4004 40.9795 41.5154 40.9796 41.5236Z" fill="#5F7ECE"/>
<path d="M25.5334 72.16L25.53 62.2632H23.1582L23.6713 72.16H25.5334Z" fill="#E5CBBD"/>
<path d="M28.2476 62.2632L28.2441 72.16H30.106L30.6191 62.2632H28.2476Z" fill="#E5CBBD"/>
<path d="M23.2677 73.0127C22.9227 73.0134 22.6628 73.1111 22.4735 73.311C22.2501 73.5468 22.1573 73.8839 22.1191 74.1469H25.534L25.5337 73.0127H23.2677Z" fill="#B3B3B3"/>
<path d="M31.0136 36.0273C30.9984 36.0239 30.9833 36.0197 30.9684 36.0144L29.154 35.3848C28.8296 36.0514 27.941 36.5314 26.8958 36.5314C26.8939 36.5314 26.8922 36.5314 26.8904 36.5314C26.8898 36.5314 26.8892 36.5314 26.8885 36.5314C26.8866 36.5314 26.8849 36.5314 26.883 36.5314C25.8377 36.5314 24.9492 36.0514 24.6248 35.3848L22.8104 36.0144C22.7956 36.0195 22.7804 36.0239 22.7652 36.0273C22.1777 36.161 21.7294 36.4308 21.3887 36.743L22.9763 41.3938C22.9785 41.4004 22.999 41.5152 22.9992 41.5236L23.1891 51.6884H30.5899L30.7798 41.5236C30.78 41.5152 30.8005 41.4004 30.8027 41.3938L32.3903 36.743C32.0494 36.4308 31.6011 36.161 31.0136 36.0273Z" fill="#B0CE5F"/>
<path d="M28.2445 73.0127L28.2441 74.1469H31.659C31.621 73.8843 31.5281 73.5468 31.3047 73.311C31.1154 73.1111 30.8557 73.0134 30.5105 73.0127H28.2445Z" fill="#B3B3B3"/>
<path d="M36.3164 48.045L36.9467 50.9096L39.1958 43.4814L37.5366 42.5L36.3164 48.045Z" fill="#E5CBBD"/>
<path d="M60.318 22.0755C61.0145 22.707 61.2353 23.6826 61.171 24.5818L63.3177 23.6065L62.9208 21.8149C62.8929 21.6935 62.1862 18.767 59.3293 18.0955L58.9923 18.0146C58.6843 19.5893 56.9877 20.6132 54.5762 20.6132C52.1651 20.6132 50.4685 19.5893 50.1605 18.0148L49.8256 18.0951C46.9666 18.7672 46.2598 21.6937 46.2311 21.8178L45.835 23.6065L47.9816 24.5816C47.9173 23.6824 48.1383 22.7068 48.8348 22.0755C49.0094 21.9173 49.2788 21.9307 49.4371 22.105C49.5952 22.2795 49.582 22.5491 49.4076 22.7073C48.7473 23.3057 48.6985 24.4781 48.9917 25.3269C49.2204 25.9892 49.6252 26.4196 50.0481 26.4498C50.2616 26.4652 50.4306 26.6364 50.4432 26.85L50.5885 29.3212C50.5941 29.4153 50.5682 29.5088 50.515 29.5867C49.7533 30.702 49.0933 32.5139 48.551 34.9738L49.2067 35.2015C51.5924 35.7583 52.1596 38.0475 52.2067 38.2564L53.0928 41.6136C53.1332 41.7664 53.0844 41.925 52.9734 42.0306C52.9734 42.0306 55.281 52.5295 55.2867 52.5783H62.2276C62.1974 49.8053 61.8826 34.337 58.6379 29.5867C58.5847 29.5088 58.5588 29.4153 58.5644 29.3212L58.7101 26.85C58.7227 26.6364 58.8917 26.4652 59.1052 26.4498C59.5279 26.4196 59.9326 25.9894 60.1613 25.327C60.4544 24.4781 60.4058 23.3056 59.7455 22.7072C59.5711 22.5491 59.558 22.2795 59.716 22.105C59.874 21.9307 60.1437 21.9173 60.318 22.0755Z" fill="#BADFE8"/>
<path d="M33.399 38.4657C33.3971 38.4589 33.3956 38.4521 33.3941 38.4453C33.3864 38.4096 33.2934 38.0074 33.0201 37.5352L31.6543 41.5358L32.0568 42.7906L34.2051 41.5198L33.399 38.4657Z" fill="#B0CE5F"/>
<path d="M38.3634 38.4466C38.3622 38.4526 38.3604 38.4598 38.3588 38.4657L37.5527 41.5198L39.7011 42.7906L40.1035 41.5358L38.7379 37.5352C38.4644 38.0077 38.3715 38.4105 38.3634 38.4466Z" fill="#5F7ECE"/>
<path d="M25.8834 32.0795C25.883 32.0795 25.8827 32.0795 25.8823 32.0795C25.6468 32.08 25.4564 32.2713 25.457 32.5068C25.4582 32.9932 26.0302 33.319 26.8815 33.319C26.884 33.319 26.8866 33.319 26.889 33.319C27.2086 33.3184 27.5152 33.267 27.7526 33.1744C28.2449 32.9824 28.3177 32.6698 28.3174 32.5005C28.3168 32.2653 28.126 32.0752 27.891 32.0752C27.8907 32.0752 27.8903 32.0752 27.89 32.0752C27.7043 32.0757 27.5466 32.1947 27.4884 32.3607C27.4014 32.404 27.1927 32.4657 26.8869 32.4664C26.5849 32.4722 26.3723 32.4062 26.2851 32.3632C26.2266 32.1978 26.0687 32.0795 25.8834 32.0795Z" fill="#1C1B1A"/>
<path d="M25.6466 30.4179C25.6466 30.3053 25.6006 30.1945 25.5221 30.116C25.3635 29.9574 25.077 29.9574 24.9184 30.116C24.84 30.1945 24.7939 30.3053 24.7939 30.4179C24.7939 30.5304 24.84 30.6395 24.9184 30.7197C24.9986 30.7981 25.1077 30.8442 25.2203 30.8442C25.3328 30.8442 25.442 30.7981 25.5221 30.7197C25.6006 30.6395 25.6466 30.5304 25.6466 30.4179Z" fill="#1C1B1A"/>
<path d="M28.5572 30.8356C28.668 30.8356 28.7789 30.7913 28.8573 30.7112C28.9375 30.6327 28.9835 30.5219 28.9835 30.4093C28.9835 30.2985 28.9375 30.1876 28.8573 30.1092C28.6987 29.9506 28.4122 29.9506 28.2553 30.1092C28.1752 30.1876 28.1309 30.2985 28.1309 30.4093C28.1309 30.5219 28.1752 30.6327 28.2553 30.7112C28.3338 30.7913 28.4446 30.8356 28.5572 30.8356Z" fill="#1C1B1A"/>
<path d="M45.7351 33.1744C46.2275 32.9824 46.3005 32.6698 46.2999 32.5005C46.2994 32.2653 46.1086 32.0752 45.8736 32.0752C45.8733 32.0752 45.8729 32.0752 45.8726 32.0752C45.6869 32.0757 45.5291 32.1947 45.471 32.3607C45.384 32.404 45.1753 32.4657 44.8695 32.4664C44.8678 32.4664 44.8661 32.4664 44.8644 32.4664C44.5614 32.4664 44.3544 32.4059 44.2677 32.3632C44.2091 32.1978 44.0512 32.0795 43.8658 32.0795C43.8654 32.0795 43.8651 32.0795 43.8648 32.0795C43.6293 32.08 43.4388 32.2713 43.4395 32.5068C43.4406 32.9932 44.0126 33.319 44.8639 33.319C44.8665 33.319 44.869 33.319 44.8714 33.319C45.191 33.3184 45.4978 33.267 45.7351 33.1744Z" fill="#1C1B1A"/>
<path d="M43.628 30.4179C43.628 30.3053 43.5837 30.1962 43.5036 30.116C43.345 29.9574 43.0602 29.9574 42.9016 30.116C42.8214 30.1945 42.7754 30.3053 42.7754 30.4179C42.7754 30.5304 42.8214 30.6395 42.9016 30.718C42.9802 30.7981 43.0909 30.8442 43.2017 30.8442C43.3143 30.8442 43.4251 30.7981 43.5036 30.718C43.5837 30.6395 43.628 30.5287 43.628 30.4179Z" fill="#1C1B1A"/>
<path d="M46.5377 30.8356C46.6502 30.8356 46.7593 30.7913 46.8395 30.7112C46.9179 30.6327 46.964 30.5219 46.964 30.411C46.964 30.2985 46.9179 30.1876 46.8395 30.1092C46.6792 29.9506 46.3944 29.9506 46.2358 30.1092C46.1574 30.1876 46.1113 30.2985 46.1113 30.411C46.1113 30.5219 46.1574 30.6327 46.2358 30.7112C46.316 30.7913 46.4251 30.8356 46.5377 30.8356Z" fill="#1C1B1A"/>
<path d="M53.4273 11.9746C53.1918 11.9746 53.001 12.1654 53.001 12.4009C53.001 12.9364 53.649 13.3104 54.5767 13.3104C55.5044 13.3104 56.1524 12.9364 56.1524 12.4009C56.1524 12.1654 55.9616 11.9746 55.7261 11.9746C55.5233 11.9746 55.3535 12.1163 55.3103 12.306C55.2262 12.3605 54.9762 12.4577 54.5765 12.4577C54.177 12.4577 53.9268 12.3605 53.8427 12.306C53.7997 12.1162 53.6301 11.9746 53.4273 11.9746Z" fill="#1C1B1A"/>
<path d="M53.2208 10.3515C53.2208 10.2389 53.1765 10.1298 53.0963 10.0496C52.9377 9.89102 52.653 9.89102 52.4927 10.0496C52.4142 10.1298 52.3682 10.2389 52.3682 10.3515C52.3682 10.464 52.4142 10.5731 52.4927 10.6533C52.5728 10.7317 52.6836 10.7778 52.7945 10.7778C52.907 10.7778 53.0179 10.7317 53.0963 10.6533C53.1765 10.5731 53.2208 10.464 53.2208 10.3515Z" fill="#1C1B1A"/>
<path d="M56.357 10.7778C56.4695 10.7778 56.5804 10.7317 56.6588 10.6533C56.739 10.5731 56.7833 10.464 56.7833 10.3515C56.7833 10.2389 56.739 10.1298 56.6588 10.0496C56.5002 9.89102 56.2137 9.89102 56.0569 10.0496C55.9767 10.1298 55.9307 10.2389 55.9307 10.3515C55.9307 10.464 55.9767 10.5731 56.0569 10.6516C56.1353 10.7317 56.2444 10.7778 56.357 10.7778Z" fill="#1C1B1A"/>
<path d="M64.225 23.7588C64.2249 23.7579 64.2247 23.7569 64.2243 23.756L63.7532 21.6287C63.7281 21.5176 63.2457 19.4917 61.5095 18.1882C64.1877 15.2006 61.0252 8.66333 60.5688 7.76207C60.5475 6.25799 60.0649 5.04261 59.1337 4.14834C57.4292 2.51158 54.8323 2.54791 54.5765 2.55558C54.3177 2.54808 51.7237 2.51227 50.0201 4.14817C49.0887 5.04244 48.6061 6.25799 48.5849 7.7619C48.1284 8.66316 44.9657 15.2008 47.6444 18.1882C45.9078 19.4919 45.4253 21.5176 45.3997 21.6304L44.8999 23.8873C44.89 23.8873 44.8795 23.887 44.8699 23.887C43.5931 23.887 40.4257 24.3108 40.4257 29.6269C40.4257 31.6902 41.3626 33.4894 42.741 34.4173V34.4349L40.533 35.2012C38.1472 35.758 37.58 38.0472 37.533 38.2561L36.6469 41.6134C36.6065 41.7662 36.6552 41.9248 36.7663 42.0303L35.8792 46.0614L34.9921 42.0303C35.1029 41.9248 35.1517 41.7662 35.1114 41.6134L34.2253 38.2561C34.1784 38.0471 33.6111 35.7579 31.2254 35.2012L29.0173 34.4349V34.4175C30.3959 33.4894 31.3328 31.6902 31.3328 29.6269C31.3328 24.3536 28.1655 23.887 26.8884 23.887C26.6432 23.887 26.3381 23.9063 26.0039 23.9689L25.039 19.0497C25.0018 18.7127 24.5576 15.6307 20.7031 14.6227L17.2541 13.4341V11.9843C18.2206 10.8782 18.8356 9.23222 18.8356 7.39577L18.8354 5.77709C18.8354 5.77658 18.8356 5.77624 18.8356 5.77589C18.8356 5.77555 18.8354 5.77504 18.8354 5.7747L18.8352 3.12669C18.8369 3.0844 18.8659 2.08287 18.0341 1.21793C17.257 0.409787 16.0192 0 14.3552 0C12.6912 0 11.4533 0.409787 10.676 1.21793C9.84414 2.08287 9.87313 3.0844 9.87449 3.11015V7.39594C9.87449 9.23239 10.4894 10.8784 11.456 11.9844V13.4343L8.00701 14.6229C4.15232 15.6311 3.70825 18.7134 3.67108 19.0501C3.67108 19.0501 0.023244 37.7103 0.0235851 37.7166C0.0237556 37.7207 0.0225619 37.7246 0.022903 37.7287L0.189342 40.0048L0.0171049 41.3109C-0.0521308 41.8438 0.0902628 42.3719 0.418024 42.7977C0.745785 43.2237 1.21986 43.4964 1.75277 43.5656C1.84094 43.5771 1.9291 43.5829 2.01658 43.5829C2.45775 43.5829 2.88442 43.4384 3.2398 43.1647C3.66068 42.8407 3.93199 42.3738 4.00515 41.8484L4.36838 40.1671L5.60132 37.9016C5.60337 37.8979 7.53975 28.2035 7.53975 28.2035V40.4751C7.53975 40.4759 7.54009 40.4766 7.54009 40.4775C7.54009 40.4783 7.53975 40.479 7.53975 40.4799V71.5077C7.31704 71.6281 7.11581 71.7817 6.93795 71.9702C6.00173 72.962 6.08086 74.5317 6.08478 74.5981C6.09774 74.8237 6.28447 74.9998 6.51042 74.9998H12.9053C13.1409 74.9998 13.3317 74.809 13.3317 74.5735V71.6291L14.3552 51.9246L15.3787 71.6291V74.5735C15.3787 74.809 15.5696 74.9998 15.8051 74.9998H25.96C26.0731 74.9998 26.1816 74.9548 26.2615 74.875C26.3415 74.795 26.3864 74.6866 26.3864 74.5733L26.3823 62.2557C26.5658 62.2202 26.709 62.0669 26.7259 61.8742L26.8901 59.9965L27.0555 61.8746C27.0724 62.0655 27.2134 62.2175 27.3947 62.2545L27.3906 74.5735C27.3906 74.6866 27.4355 74.795 27.5154 74.8752C27.5954 74.9552 27.7039 75 27.8169 75H32.1087C32.3343 75 32.5209 74.8244 32.5344 74.5991C32.5373 74.5522 32.5956 73.4403 31.9278 72.7297C31.6684 72.4538 31.3434 72.2773 30.9578 72.2021L31.4731 62.2635H32.0415C32.1624 62.2635 32.2777 62.2122 32.3585 62.1223C32.4394 62.0325 32.4782 61.9124 32.4655 61.792L31.4341 52.0965L31.5893 43.7921C31.6123 43.8064 31.6367 43.8185 31.6624 43.8282C31.7022 43.8434 31.7434 43.8501 31.7849 43.8528L34.5712 53.0545C34.6551 53.4097 34.8705 53.7124 35.1793 53.9083C35.4049 54.0514 35.6607 54.1253 35.9216 54.1253C36.0234 54.1253 36.1259 54.114 36.2277 54.0913C36.5901 54.0103 36.8993 53.7931 37.0983 53.4796C37.2577 53.2283 37.3295 52.9392 37.3108 52.6485L39.9739 43.8528C40.0154 43.8499 40.0567 43.8434 40.0964 43.8282C40.122 43.8185 40.1465 43.8064 40.1695 43.7921L40.3247 52.0965L39.2934 61.792C39.2806 61.9122 39.3195 62.0323 39.4003 62.1223C39.4811 62.2122 39.5964 62.2635 39.7173 62.2635H40.2857L40.801 72.2021C40.4155 72.2773 40.0904 72.454 39.831 72.7297C39.1632 73.4403 39.2216 74.552 39.2245 74.5991C39.2379 74.8242 39.4245 75 39.6501 75H43.9419C44.0549 75 44.1634 74.955 44.2434 74.8752C44.3233 74.7952 44.3682 74.6867 44.3682 74.5735L44.3641 62.2559C44.5476 62.2204 44.6908 62.0671 44.7077 61.8744L44.872 59.9967L45.0374 61.8747C45.0542 62.0657 45.1953 62.2177 45.3765 62.2547L45.3719 74.5733C45.3719 74.6864 45.4168 74.7949 45.4968 74.875C45.5768 74.955 45.6852 74.9998 45.7983 74.9998H59.4005C59.5914 74.9998 59.759 74.873 59.8108 74.6893C59.8627 74.5055 59.7861 74.3099 59.6232 74.2099C58.0567 73.2493 57.7048 71.5583 57.6502 71.2302C59.3756 61.8527 59.629 55.1386 59.6659 53.4307H62.6572C62.8927 53.4307 63.0835 53.2399 63.0835 53.0044C63.0835 52.2578 63.0415 34.7841 59.4241 29.2286L59.5419 27.2265C59.6874 27.1793 59.8267 27.1092 59.9594 27.0212L64.2637 41.1589C64.3761 41.6373 64.6662 42.0447 65.0821 42.3074C65.3836 42.4979 65.7252 42.596 66.0733 42.596C66.2109 42.5958 66.3495 42.5806 66.487 42.5496C66.9725 42.4401 67.386 42.148 67.6517 41.7273C67.9174 41.3066 68.0033 40.8076 67.894 40.324L64.225 23.7588ZM55.003 3.41711C55.7628 3.46008 57.4166 3.6816 58.5431 4.76345C59.3221 5.5114 59.717 6.55539 59.717 7.86661C59.717 7.93533 59.7338 8.0032 59.7655 8.06408C59.803 8.13588 63.3917 15.0985 60.7728 17.7257C60.4019 17.5339 59.989 17.3746 59.5267 17.266L56.7423 16.5978V14.452C57.7709 13.523 58.4483 11.952 58.4483 10.1741V8.99928H58.4478C58.4479 8.79839 58.3061 8.61933 58.1016 8.58045C58.0706 8.57448 55.003 7.96842 55.003 5.99093V3.41711ZM56.2165 17.3485L58.1577 17.8142C57.9411 18.9905 56.559 19.7605 54.5767 19.7605C52.5946 19.7605 51.2126 18.9907 50.9961 17.8142L52.9372 17.3485C53.1289 17.3024 53.2641 17.1311 53.2641 16.9339V15.0313C53.6743 15.2291 54.1161 15.3374 54.5767 15.3374C55.0375 15.3374 55.4795 15.229 55.8896 15.0313V16.9341C55.8896 17.1311 56.0249 17.3024 56.2165 17.3485ZM54.5767 7.44454C55.3334 8.61865 56.8968 9.15037 57.5956 9.33625V10.1739C57.5956 12.5508 56.2414 14.4846 54.5767 14.4846C52.912 14.4846 51.5578 12.5508 51.5578 10.1739V9.33625C52.2568 9.15037 53.8201 8.61882 54.5767 7.44454ZM49.3883 8.06408C49.4202 8.0032 49.4367 7.93533 49.4367 7.86661C49.4367 6.55744 49.8305 5.51464 50.6069 4.76686C51.7288 3.68672 53.3885 3.46213 54.1502 3.41762V5.99076C54.1502 7.96125 51.0822 8.57448 51.0511 8.58045C50.8469 8.6195 50.7053 8.79856 50.7055 8.99928H50.705V10.1741C50.705 11.9522 51.3825 13.5233 52.4113 14.4524V16.5978L49.6289 17.2656C49.1659 17.3744 48.7526 17.5339 48.3811 17.7259C45.7616 15.0988 49.3508 8.13588 49.3883 8.06408ZM44.8699 24.7398C46.6199 24.7398 48.411 25.9211 48.411 28.5752H44.777L43.8984 27.1759C43.7732 26.9763 43.5103 26.9163 43.3107 27.0415C43.2545 27.0768 43.2106 27.1239 43.1776 27.1765L43.1764 27.1759L42.2978 28.5752H41.3292C41.5824 26.0609 42.7932 24.7398 44.8699 24.7398ZM41.2783 29.6271C41.2783 29.5597 41.2797 29.4939 41.2807 29.4279H42.5335C42.6801 29.4279 42.8165 29.3525 42.8945 29.2282L43.5374 28.2043L44.1803 29.2282C44.2582 29.3525 44.3946 29.4279 44.5413 29.4279H48.4594C48.4604 29.4939 48.4618 29.5597 48.4618 29.6271C48.4618 32.1671 46.8505 34.2335 44.8701 34.2335C42.8895 34.2335 41.2783 32.1671 41.2783 29.6271ZM48.0447 33.4422C47.9393 33.8397 47.8377 34.256 47.7401 34.6924L46.9988 34.435V34.4176C47.3863 34.1569 47.7381 33.8269 48.0447 33.4422ZM46.3283 35.0868C46.1235 35.4008 45.5698 35.6787 44.8762 35.6787C44.874 35.6787 44.8721 35.6789 44.8697 35.6787C44.8697 35.6787 44.8692 35.6787 44.8689 35.6787C44.1702 35.6818 43.6155 35.4023 43.411 35.0872C43.4925 35.03 43.5514 34.9463 43.5774 34.8501C43.9866 35.0033 44.4204 35.0861 44.8697 35.0861C45.3191 35.0861 45.7529 35.0031 46.162 34.8501C46.1885 34.9461 46.2469 35.0299 46.3283 35.0868ZM30.4801 29.6271C30.4801 32.1671 28.8688 34.2335 26.8884 34.2335C24.908 34.2335 23.2967 32.1671 23.2967 29.6271C23.2967 29.5597 23.298 29.4939 23.2991 29.4279H24.5518C24.6984 29.4279 24.8349 29.3525 24.9128 29.2282L25.5557 28.2043L26.1986 29.2282C26.2765 29.3525 26.413 29.4279 26.5596 29.4279H30.4777C30.4788 29.4939 30.4801 29.5597 30.4801 29.6271ZM28.3468 35.0868C28.142 35.4008 27.5883 35.6787 26.8947 35.6787C26.8925 35.6787 26.8904 35.6789 26.8882 35.6787C26.8867 35.6789 26.884 35.6787 26.8818 35.6787C26.1884 35.6787 25.6345 35.4009 25.4297 35.0868C25.5112 35.0297 25.5697 34.9461 25.5958 34.8501C26.0049 35.0033 26.4387 35.0861 26.8881 35.0861C27.3374 35.0861 27.7712 35.0031 28.1803 34.8501C28.2068 34.9461 28.2654 35.0299 28.3468 35.0868ZM24.7593 34.4176V34.4352L23.3678 34.9182L22.6292 31.1845C22.9667 32.5739 23.7424 33.733 24.7593 34.4176ZM26.8884 24.7398C28.9653 24.7398 30.1761 26.0609 30.4295 28.5752H26.7955L25.9169 27.1759L25.9157 27.1765C25.8826 27.1237 25.8388 27.0768 25.7825 27.0415C25.583 26.9163 25.32 26.9765 25.1949 27.1759L24.3163 28.5752H23.3477C23.6009 26.0609 24.8117 24.7398 26.8884 24.7398ZM24.1923 19.1505C24.1937 19.1653 25.1821 24.209 25.1821 24.209C23.9413 24.7112 22.444 25.939 22.444 29.6271C22.444 29.9756 22.4718 30.3165 22.523 30.647L21.1848 23.8824L23.4558 17.363C24.0929 18.2532 24.1863 19.0888 24.1923 19.1505ZM19.5719 41.5196L20.378 38.4655C20.3796 38.4596 20.3814 38.4524 20.3826 38.4464C20.3905 38.4103 20.4836 38.0075 20.7571 37.535L22.1227 41.5356L21.7203 42.7904L19.5719 41.5196ZM21.2136 43.4814L18.3857 52.8209C18.3826 52.8309 18.3799 52.8412 18.3777 52.8516C18.3463 52.9916 18.2624 53.1111 18.1412 53.1882C18.0199 53.2653 17.8758 53.2905 17.7355 53.2588C17.5955 53.2274 17.4759 53.1435 17.3988 53.0223C17.3219 52.901 17.2967 52.7571 17.3284 52.6156L19.5545 42.5L21.2136 43.4814ZM22.5545 35.2004L22.5515 35.2014C21.9984 35.3305 21.5443 35.5532 21.1705 35.8209V28.2037L22.5545 35.2004ZM18.6475 18.2709C18.7251 18.2709 18.8023 18.2497 18.8704 18.208C18.9911 18.1338 19.0673 18.0045 19.0735 17.863L19.1973 15.0059C19.1973 15.0059 20.4623 15.4414 20.4728 15.4442C21.5139 15.7143 22.2638 16.1548 22.8052 16.6392L20.3415 23.7117C20.3388 23.7194 20.3178 23.8421 20.3178 23.8519V36.6584C19.7614 37.3975 19.5774 38.1415 19.5515 38.2565L19.0784 40.0489H14.7819V18.68L15.6639 16.9539L18.4706 18.2325C18.5271 18.2581 18.5873 18.2709 18.6475 18.2709ZM14.3552 17.6409L12.3088 13.6357V12.753C12.9227 13.1788 13.6182 13.4208 14.3552 13.4208C15.0922 13.4208 15.7877 13.1788 16.4016 12.753V13.6357L14.3552 17.6409ZM18.3564 14.716L18.2489 17.1943L16.0522 16.1937L17.0392 14.262L18.3564 14.716ZM11.3037 1.79535C11.9159 1.16984 12.9425 0.852656 14.3552 0.852656C15.7679 0.852656 16.7945 1.16984 17.4067 1.79535C17.9918 2.39324 17.9841 3.06854 17.9833 3.11015V5.28886C17.3758 5.10195 17.0677 4.47679 17.0677 3.4212C17.0677 3.18569 16.8769 2.99487 16.6413 2.99487H16.641C16.4055 2.99487 16.2147 3.18569 16.2147 3.4212C16.2147 3.75544 15.4903 4.24094 14.3554 4.24094C13.2203 4.24094 12.4961 3.75544 12.4961 3.4212C12.4961 3.18569 12.3052 2.99487 12.0697 2.99487H12.0694C11.8339 2.99487 11.6431 3.18569 11.6431 3.4212C11.6431 4.47696 11.3349 5.10195 10.7273 5.28903L10.7272 3.09719C10.7263 3.06871 10.7186 2.39324 11.3037 1.79535ZM10.7272 7.39594L10.727 6.16539C11.5489 6.02606 12.1108 5.47201 12.3557 4.5716C12.844 4.89561 13.5464 5.0936 14.355 5.0936C15.1637 5.0936 15.8661 4.89561 16.3543 4.5716C16.5991 5.47201 17.1611 6.02606 17.9829 6.16539V7.39594C17.9829 10.2479 16.3554 12.5683 14.355 12.5683C12.3547 12.5682 10.7272 10.2479 10.7272 7.39594ZM11.6712 14.262L12.6582 16.1937L10.4615 17.1943L10.354 14.716L11.6712 14.262ZM3.16221 41.7201C3.12231 42.0273 2.96508 42.3005 2.71968 42.4894C2.47429 42.6784 2.16972 42.76 1.86277 42.7205C1.55581 42.6806 1.28262 42.5235 1.09367 42.2779C0.90472 42.0326 0.822695 41.7282 0.862599 41.4217L0.99152 40.4439H3.43643C3.43643 40.4439 3.16375 41.7084 3.16221 41.7201ZM3.71132 39.5912H1.01403L0.906937 38.1241H4.50975L3.71132 39.5912ZM4.87691 37.2717H0.966282C0.966282 37.2717 4.51674 19.1655 4.51811 19.1507C4.51947 19.1353 4.60781 18.2835 5.25787 17.3725L7.5256 23.8827L4.87691 37.2717ZM5.9076 16.6457C6.4492 16.1575 7.19835 15.7136 8.23757 15.4442C8.24831 15.4414 9.51314 15.0059 9.51314 15.0059L9.63695 17.863C9.64308 18.0045 9.71914 18.1338 9.84005 18.208C9.90809 18.2497 9.98534 18.2709 10.0629 18.2709C10.1231 18.2709 10.1833 18.2581 10.2398 18.2325L13.0465 16.9539L13.9285 18.68V40.0489H8.39258V23.8519C8.39258 23.842 8.37911 23.7513 8.3745 23.7349C8.37212 23.727 5.9076 16.6457 5.9076 16.6457ZM12.479 74.1472H6.95005C6.98859 73.7123 7.12076 73.0188 7.558 72.5556C7.88252 72.2116 8.32078 72.0445 8.89769 72.0445H12.4788L12.479 74.1472ZM14.7812 43.6903L14.7783 43.6905C14.7672 43.4751 14.5968 43.2982 14.3769 43.2866C14.1402 43.2754 13.9412 43.4551 13.9289 43.6903L12.5003 71.1919H8.39258V40.9016H18.8533L18.6654 41.6137C18.625 41.7665 18.6737 41.9251 18.7848 42.0307L16.4961 52.4309C16.4151 52.7932 16.4799 53.1657 16.6789 53.4793C16.8779 53.7929 17.187 54.0102 17.5494 54.091C17.6512 54.1137 17.7537 54.1249 17.8555 54.1249C18.1163 54.1249 18.3722 54.0511 18.5979 53.908C18.9067 53.7121 19.1221 53.4094 19.206 53.0542L20.3178 49.3819V71.1917H16.2099L14.7812 43.6903ZM21.2605 74.1472H16.2314V72.0445H19.8125C20.6642 72.0445 21.2303 72.4153 21.5387 73.1755C21.3642 73.5148 21.2907 73.8738 21.2605 74.1472ZM21.1705 71.5132V46.5661L21.9921 43.8526C22.0335 43.8497 22.0748 43.8433 22.1146 43.8281C22.1401 43.8184 22.1647 43.8062 22.1877 43.7919L22.3429 52.0963L21.3115 61.7918C21.2987 61.9121 21.3376 62.0321 21.4184 62.1222C21.4993 62.212 21.6145 62.2634 21.7355 62.2634H22.3038L22.8192 72.2019C22.5678 72.251 22.3451 72.3476 22.1466 72.4821C21.9027 72.0563 21.5729 71.7309 21.1705 71.5132ZM22.1186 74.1472C22.1567 73.8842 22.2496 73.5471 22.473 73.3112C22.6623 73.1114 22.922 73.0136 23.2672 73.013H25.5332L25.5335 74.1472H22.1186ZM23.1577 62.2634H25.5294L25.5327 72.1603H23.6708L23.1577 62.2634ZM31.3038 73.3111C31.5272 73.5471 31.6201 73.8844 31.6582 74.147H28.2433L28.2436 73.0128H30.5096C30.8548 73.0136 31.1147 73.1112 31.3038 73.3111ZM28.244 72.1601L28.2474 62.2632H30.6191L30.106 72.1601H28.244ZM31.5671 61.4107H27.8705L27.313 55.0831H27.3122C27.2944 54.8809 27.1348 54.7139 26.9256 54.6957C26.6919 54.6763 26.4842 54.8488 26.4638 55.0833L25.9104 61.4107H22.2097L23.1531 52.5412H30.6239L31.5671 61.4107ZM30.8016 41.3937C30.7994 41.4004 30.7789 41.5152 30.7787 41.5235L30.5888 51.6884H23.188L22.9981 41.5235C22.9979 41.5153 22.9774 41.4004 22.9752 41.3937L21.3876 36.743C21.7285 36.4308 22.1766 36.1608 22.7641 36.0273C22.7793 36.0239 22.7945 36.0196 22.8093 36.0143L24.6237 35.3847C24.9481 36.0513 25.8366 36.5314 26.8819 36.5314C26.8836 36.5314 26.8855 36.5314 26.8874 36.5314C26.8879 36.5314 26.8886 36.5314 26.8893 36.5314C26.8911 36.5314 26.8928 36.5314 26.8947 36.5314C27.9399 36.5314 28.8285 36.0513 29.1529 35.3847L30.9673 36.0143C30.9822 36.0194 30.9974 36.0239 31.0125 36.0273C31.6 36.161 32.0483 36.4308 32.3891 36.743L30.8016 41.3937ZM31.6541 41.5356L33.0199 37.535C33.2932 38.0072 33.3862 38.4094 33.3938 38.4451C33.3954 38.4519 33.3969 38.4587 33.3988 38.4655L34.2049 41.5196L32.0565 42.7904L31.6541 41.5356ZM36.378 53.0223C36.301 53.1435 36.1815 53.2276 36.0413 53.2588C35.9008 53.2902 35.7571 53.2651 35.6358 53.1882C35.5146 53.1113 35.4305 52.9917 35.3993 52.8516C35.3969 52.8412 35.3943 52.8309 35.3913 52.8209L32.5633 43.4814L34.2226 42.5L36.4491 52.6171C36.4801 52.7571 36.4549 52.901 36.378 53.0223ZM36.946 50.9096L36.3155 48.045L37.5359 42.4998L39.1951 43.4812L36.946 50.9096ZM39.7018 42.7904L37.5534 41.5196L38.3595 38.4655C38.3611 38.4596 38.3629 38.4524 38.3641 38.4464C38.372 38.4103 38.4651 38.0075 38.7386 37.535L40.1042 41.5356L39.7018 42.7904ZM39.3691 36.743C39.7098 36.4308 40.1581 36.1608 40.7456 36.0273C40.7608 36.0239 42.6053 35.3847 42.6053 35.3847C42.9296 36.0513 43.8181 36.5314 44.8634 36.5314C44.8651 36.5314 44.867 36.5314 44.8689 36.5314C44.8694 36.5314 44.8701 36.5314 44.8708 36.5314C44.8726 36.5314 44.8743 36.5314 44.8762 36.5314C45.9214 36.5314 46.81 36.0513 47.1344 35.3847C47.1344 35.3847 48.9789 36.0239 48.994 36.0273C49.5815 36.161 50.0298 36.4308 50.3706 36.743L48.7829 41.3937C48.7807 41.4004 48.7602 41.5152 48.7601 41.5235L48.5701 51.6884H41.1695L40.9796 41.5235C40.9794 41.5153 40.9589 41.4004 40.9567 41.3937L39.3691 36.743ZM49.6356 41.5356L51.0014 37.535C51.2747 38.0072 51.3677 38.4094 51.3753 38.4451C51.3769 38.4519 52.1862 41.5196 52.1862 41.5196L50.0379 42.7904L49.6356 41.5356ZM52.4084 52.5782H49.4667L49.4154 52.0963L49.5706 43.7919C49.5936 43.8062 49.618 43.8184 49.6438 43.8281C49.6835 43.8433 49.7248 43.8499 49.7662 43.8526L52.4084 52.5782ZM40.1001 74.1472C40.1382 73.8842 40.2311 73.5471 40.4545 73.3112C40.6438 73.1114 40.9035 73.0136 41.2487 73.013H43.5147L43.5152 74.1472H40.1001ZM41.1394 62.2634H43.5111L43.5145 72.1603H41.6525L41.1394 62.2634ZM45.2945 55.0831H45.2937C45.2759 54.8809 45.1163 54.7139 44.9071 54.6957C44.6721 54.6763 44.4657 54.8488 44.4453 55.0833L43.8919 61.4107H40.1912L41.1346 52.5412H48.6054L49.5488 61.4107H45.8522L45.2945 55.0831ZM48.6006 62.2634L48.0875 72.1603H46.2256L46.229 62.2634H48.6006ZM49.6277 74.1472H46.2248L46.2251 73.013H48.4911C48.8361 73.0136 49.096 73.1114 49.2853 73.3112C49.5068 73.5452 49.5999 73.8784 49.6385 74.1402C49.6351 74.1424 49.6313 74.1448 49.6277 74.1472ZM49.9091 72.7295C49.6497 72.4536 49.3247 72.2771 48.9389 72.2019L49.4543 62.2634H50.0227C50.0675 62.2634 50.1108 62.2542 50.1526 62.2407C50.4509 64.8184 50.8816 67.8517 51.5034 71.2304C51.4604 71.4893 51.2316 72.5987 50.3649 73.5273C50.2751 73.2531 50.1339 72.9688 49.9091 72.7295ZM54.1504 74.1472H50.9565C51.8235 73.242 52.1628 72.1975 52.2892 71.6492H54.1504V74.1472ZM54.1504 70.7964H52.2907C50.6258 61.6454 50.3772 55.1126 50.3402 53.4307H52.7017C52.8124 53.6224 52.9683 53.7859 53.1606 53.9078C53.3862 54.0509 53.642 54.1248 53.9029 54.1248C53.9853 54.1248 54.068 54.1154 54.1506 54.1005V70.7964H54.1504ZM54.3596 53.0223C54.2827 53.1435 54.1632 53.2276 54.023 53.2588C53.8827 53.2902 53.7387 53.2651 53.6175 53.1882C53.4962 53.1113 53.4122 52.9917 53.381 52.8516C53.3786 52.8412 53.376 52.8309 53.3729 52.8209L50.545 43.4814L52.2043 42.5L54.4307 52.6171C54.4616 52.7571 54.4365 52.901 54.3596 53.0223ZM58.1973 74.1472H55.003V71.6492H56.8646C56.9909 72.1975 57.3303 73.242 58.1973 74.1472ZM56.863 70.7964H55.003V53.5876C55.03 53.5528 55.0556 53.5168 55.0794 53.4791C55.0895 53.4633 55.0977 53.4469 55.1069 53.4307H58.8132C58.7766 55.112 58.5286 61.6402 56.863 70.7964ZM59.7457 22.7071C60.4058 23.3057 60.4544 24.4781 60.1614 25.327C59.9328 25.9891 59.5281 26.4194 59.1053 26.4497C58.8918 26.4651 58.7228 26.6363 58.7102 26.85L58.5646 29.3211C58.559 29.4153 58.5849 29.5087 58.6381 29.5867C61.8826 34.337 62.1976 49.8052 62.2278 52.5782H55.2868C55.2812 52.5294 52.9735 42.0305 52.9735 42.0305C53.0844 41.9249 53.1333 41.7663 53.0929 41.6136L52.2068 38.2563C52.1599 38.0472 51.5926 35.758 49.2069 35.2014L48.5512 34.9738C49.0935 32.5137 49.7534 30.7019 50.5152 29.5867C50.5684 29.5087 50.5943 29.4155 50.5887 29.3211L50.4434 26.85C50.4308 26.6363 50.2618 26.4651 50.0483 26.4497C49.6253 26.4196 49.2207 25.9891 48.9918 25.3268C48.6988 24.4781 48.7476 23.3057 49.4077 22.7073C49.5822 22.549 49.5955 22.2796 49.4372 22.1049C49.2792 21.9307 49.0095 21.9172 48.8349 22.0754C48.1383 22.7068 47.9173 23.6824 47.9818 24.5816L45.8351 23.6065L46.2313 21.8178C46.2599 21.6936 46.9668 18.767 49.8257 18.0951L50.1606 18.0148C50.4686 19.5893 52.1651 20.6131 54.5764 20.6131C56.9877 20.6131 58.6845 19.5893 58.9925 18.0146L59.3294 18.0954C62.1863 18.767 62.893 21.6935 62.921 21.8149L63.3178 23.6065L61.1712 24.5817C61.2355 23.6825 61.0146 22.7068 60.3182 22.0754C60.1437 21.9172 59.8741 21.9305 59.716 22.1049C59.5581 22.2794 59.5712 22.549 59.7457 22.7071ZM49.0769 27.4069L49.1944 27.0214C49.3271 27.1092 49.4664 27.1793 49.6117 27.2267L49.7294 29.2287C49.5839 29.4519 49.4427 29.6992 49.3051 29.9671C49.3105 29.8544 49.2914 28.2132 49.0769 27.4069ZM66.9312 41.2722C66.7871 41.5002 66.5627 41.6586 66.2994 41.7181C66.0366 41.7773 65.7658 41.7309 65.5376 41.5866C65.3094 41.4425 65.1512 41.2183 65.0919 40.9551C65.0895 40.9449 65.0869 40.9347 65.0838 40.9248L60.633 26.3055C60.7619 26.1002 60.875 25.8701 60.9646 25.6121L63.5066 24.4573L67.0625 40.5102C67.1217 40.7735 67.0753 41.0442 66.9312 41.2722Z" fill="#1C1B1A"/>
<path d="M14.3549 11.2238C15.2563 11.2238 15.8859 10.8576 15.8859 10.3331C15.8859 10.0976 15.6951 9.90674 15.4596 9.90674C15.2592 9.90674 15.0911 10.045 15.0456 10.2313C14.9625 10.2824 14.7262 10.3711 14.3551 10.3711C13.984 10.3711 13.7475 10.2824 13.6646 10.2314C13.6189 10.045 13.4509 9.90691 13.2505 9.90691C13.015 9.90691 12.8242 10.0977 12.8242 10.3332C12.8239 10.8576 13.4535 11.2238 14.3549 11.2238Z" fill="#1C1B1A"/>
<path d="M12.82 8.13919C12.9001 8.05904 12.9445 7.9499 12.9445 7.83735C12.9445 7.72651 12.9001 7.61566 12.82 7.53722C12.6597 7.37692 12.3766 7.37692 12.2163 7.53722C12.1378 7.61566 12.0918 7.72651 12.0918 7.83735C12.0918 7.9499 12.1378 8.06058 12.2163 8.13919C12.2964 8.21934 12.4073 8.26368 12.5181 8.26368C12.6307 8.26368 12.7398 8.21917 12.82 8.13919Z" fill="#1C1B1A"/>
<path d="M16.191 8.26435C16.3035 8.26435 16.4144 8.22002 16.4928 8.13987C16.573 8.06125 16.6173 7.95058 16.6173 7.83803C16.6173 7.72718 16.573 7.61634 16.4928 7.53789C16.3342 7.3793 16.0494 7.3793 15.8908 7.53789C15.8107 7.61634 15.7646 7.72718 15.7646 7.83803C15.7646 7.95058 15.8107 8.06125 15.8908 8.13987C15.9693 8.21985 16.0801 8.26435 16.191 8.26435Z" fill="#1C1B1A"/>
</svg>
