<svg width="70" height="75" viewBox="0 0 70 75" fill="none" xmlns="http://www.w3.org/2000/svg">
<path d="M17.8867 12.7529C17.2728 13.1787 16.5774 13.4207 15.8403 13.4207C15.1033 13.4207 14.4079 13.1787 13.7939 12.7529V13.6356L15.8403 17.6409L17.8867 13.6356V12.7529Z" fill="#D8B4A4"/>
<path d="M17.5371 16.1945L19.7341 17.1952L19.8415 14.7166L18.5241 14.2627L17.5371 16.1945Z" fill="#898785"/>
<path d="M15.84 12.568C17.8405 12.568 19.4679 10.2478 19.4679 7.39563V6.16507C18.6461 6.02575 18.084 5.47169 17.8393 4.57129C17.351 4.8953 16.6486 5.09329 15.84 5.09329C15.0313 5.09329 14.3289 4.8953 13.8407 4.57129C13.5959 5.47169 13.0339 6.02575 12.2119 6.16507L12.2121 7.39563C12.2119 10.2478 13.8395 12.568 15.84 12.568ZM17.3751 7.53734C17.5337 7.37875 17.8185 7.37875 17.9771 7.53734C18.0572 7.61578 18.1016 7.72663 18.1016 7.83747C18.1016 7.95003 18.0572 8.0607 17.9771 8.13932C17.8986 8.21947 17.7878 8.2638 17.6752 8.2638C17.5644 8.2638 17.4535 8.21947 17.3751 8.13932C17.2949 8.0607 17.2489 7.95003 17.2489 7.83747C17.2489 7.72663 17.2949 7.61578 17.3751 7.53734ZM14.7353 9.90653C14.9356 9.90653 15.1038 10.0448 15.1493 10.2311C15.2322 10.282 15.4687 10.3707 15.8398 10.3707C16.2109 10.3707 16.4472 10.282 16.5303 10.2309C16.5758 10.0447 16.744 9.90636 16.9443 9.90636C17.1798 9.90636 17.3707 10.0972 17.3707 10.3327C17.3707 10.8571 16.7411 11.2234 15.8396 11.2234C14.9382 11.2234 14.3086 10.8572 14.3086 10.3327C14.3089 10.0974 14.4998 9.90653 14.7353 9.90653ZM13.5774 7.83765C13.5774 7.7268 13.6234 7.61595 13.7018 7.53751C13.8621 7.37721 14.1452 7.37721 14.3055 7.53751C14.3857 7.61595 14.43 7.7268 14.43 7.83765C14.43 7.9502 14.3857 8.05934 14.3055 8.13949C14.2254 8.21964 14.1162 8.26397 14.0037 8.26397C13.8928 8.26397 13.782 8.21964 13.7018 8.13949C13.6234 8.06087 13.5774 7.95003 13.5774 7.83765Z" fill="#D8B4A4"/>
<path d="M13.1277 3.42108C13.1277 3.18558 13.3186 2.99475 13.5541 2.99475H13.5542C13.5544 2.99475 13.5544 2.99475 13.5544 2.99475C13.7899 2.99475 13.9807 3.18558 13.9807 3.42108C13.9807 3.75532 14.7052 4.24082 15.84 4.24082C16.9751 4.24082 17.6993 3.75532 17.6993 3.42108C17.6993 3.18558 17.8902 2.99475 18.1257 2.99475H18.1258C18.126 2.99475 18.126 2.99475 18.126 2.99475C18.3615 2.99475 18.5523 3.18558 18.5523 3.42108C18.5523 4.47684 18.8605 5.10184 19.4679 5.28874V3.11003C19.4688 3.06859 19.4765 2.39312 18.8914 1.79524C18.2793 1.16973 17.2527 0.852539 15.8402 0.852539C14.4277 0.852539 13.4009 1.16973 12.7887 1.79524C12.2036 2.39312 12.2113 3.06842 12.212 3.0969L12.2122 5.28874C12.8198 5.10184 13.1277 4.47684 13.1277 3.42108Z" fill="#C69C6D"/>
<path d="M18.8122 52.6156C18.7805 52.7571 18.8057 52.901 18.8826 53.0223C18.9595 53.1435 19.0791 53.2276 19.2193 53.2588C19.3596 53.2905 19.5037 53.2651 19.6249 53.1882C19.7462 53.1113 19.8303 52.9918 19.8615 52.8516C19.8639 52.8412 19.8664 52.831 19.8695 52.8209L22.6974 43.4814L21.0381 42.5L18.8122 52.6156Z" fill="#E5CBBD"/>
<path d="M16.2666 18.68V40.0489H20.5631L21.0362 38.2564C21.0619 38.1415 21.2461 37.3975 21.8026 36.6584V23.8518C21.8026 23.8419 21.8235 23.7193 21.8263 23.7117L24.2899 16.6392C23.7485 16.1547 22.9987 15.7142 21.9576 15.4441C21.9468 15.4414 20.682 15.0059 20.682 15.0059L20.5582 17.8629C20.5521 18.0045 20.476 18.1337 20.3551 18.2079C20.287 18.2497 20.2098 18.2709 20.1322 18.2709C20.072 18.2709 20.0118 18.2581 19.9554 18.2325L17.1486 16.9538L16.2666 18.68Z" fill="#898785"/>
<path d="M21.8022 49.3817L20.6903 53.0539C20.6064 53.4092 20.3911 53.7118 20.0822 53.9078C19.8568 54.0509 19.6008 54.1247 19.3399 54.1247C19.2381 54.1247 19.1354 54.1134 19.0338 54.0908C18.6716 54.0098 18.3622 53.7925 18.1632 53.4791C17.9642 53.1655 17.8993 52.7932 17.9804 52.4306L20.2691 42.0305C20.1583 41.9249 20.1093 41.7663 20.1498 41.6135L20.3377 40.9014H9.87695V71.1916H13.9849L15.4134 43.6901C15.4257 43.4551 15.6247 43.2752 15.8614 43.2864C16.0814 43.2978 16.2518 43.4749 16.2628 43.6902L16.2657 43.6901L17.6943 71.1916H21.8022V49.3817Z" fill="#5576A5"/>
<path d="M14.1421 16.1945L13.1551 14.2627L11.8379 14.7166L11.9453 17.1952L14.1421 16.1945Z" fill="#898785"/>
<path d="M9.87756 23.8517V40.0487H15.4135V18.68L14.5315 16.9538L11.7248 18.2325C11.6685 18.2581 11.6081 18.2709 11.5479 18.2709C11.4703 18.2709 11.3931 18.2497 11.325 18.2079C11.2041 18.1337 11.1281 18.0045 11.1219 17.8629L10.9981 15.0059C10.9981 15.0059 9.73312 15.4414 9.72255 15.4441C8.68333 15.7136 7.93419 16.1576 7.39258 16.6457C7.39258 16.6457 9.85727 23.727 9.85948 23.7348C9.86409 23.751 9.87756 23.8419 9.87756 23.8517Z" fill="#898785"/>
<path d="M9.04349 72.556C8.60625 73.0193 8.47409 73.7127 8.43555 74.1476H13.9645V72.0449H10.3834C9.80628 72.0451 9.36818 72.2122 9.04349 72.556Z" fill="#736357"/>
<path d="M23.6074 41.5358L22.2418 37.5352C21.9683 38.0075 21.8752 38.4103 21.8673 38.4466C21.8662 38.4526 21.8643 38.4598 21.8627 38.4657L21.0566 41.5198L23.205 42.7906L23.6074 41.5358Z" fill="#B0CE5F"/>
<path d="M2.49887 39.5909H5.19616L5.99459 38.124H2.3916L2.49887 39.5909Z" fill="#898785"/>
<path d="M2.34768 41.421C2.30795 41.7275 2.38997 42.0317 2.57875 42.2773C2.7677 42.5226 3.04072 42.6799 3.34785 42.7198C3.6548 42.7593 3.95937 42.6777 4.20477 42.4887C4.45016 42.2998 4.60739 42.0266 4.6473 41.7194C4.64883 41.7077 4.92134 40.4434 4.92134 40.4434H2.4766L2.34768 41.421Z" fill="#D8B4A4"/>
<path d="M6.003 19.1504C6.00163 19.1652 2.45117 37.2714 2.45117 37.2714H6.3618L9.01049 23.8823L6.74276 17.3721C6.0927 18.2832 6.00436 19.135 6.003 19.1504Z" fill="#898785"/>
<path d="M51.1141 17.2653L53.8965 16.5975V14.4522C52.8677 13.5232 52.1902 11.9521 52.1902 10.1739V8.99914H52.1907C52.1905 8.79843 52.3321 8.61937 52.5364 8.58032C52.5674 8.57435 55.6354 7.96112 55.6354 5.99063V3.41748C54.8737 3.46182 53.2141 3.68641 52.0921 4.76672C51.3155 5.51433 50.922 6.5573 50.922 7.86647C50.922 7.9352 50.9052 8.00307 50.8735 8.06395C50.8358 8.13574 47.2468 15.0987 49.8664 17.7257C50.2378 17.5336 50.6512 17.3741 51.1141 17.2653Z" fill="#CC7050"/>
<path d="M53.043 9.33702V10.1747C53.043 12.5515 54.3972 14.4854 56.0619 14.4854C57.7266 14.4854 59.0808 12.5515 59.0808 10.1747V9.33702C58.3818 9.15114 56.8185 8.61942 56.0619 7.44531C55.3052 8.61942 53.742 9.15097 53.043 9.33702ZM54.2802 10.7782C54.1693 10.7782 54.0585 10.7321 53.9783 10.6537C53.8999 10.5735 53.8538 10.4644 53.8538 10.3518C53.8538 10.2393 53.8999 10.1302 53.9783 10.05C54.1386 9.89141 54.4234 9.89141 54.582 10.05C54.6622 10.1302 54.7065 10.2393 54.7065 10.3518C54.7065 10.4644 54.6622 10.5735 54.582 10.6537C54.5036 10.7321 54.3927 10.7782 54.2802 10.7782ZM57.5424 10.05C57.6993 9.89141 57.9858 9.89141 58.1444 10.05C58.2246 10.1302 58.2689 10.2393 58.2689 10.3518C58.2689 10.4644 58.2246 10.5735 58.1444 10.6537C58.066 10.7321 57.9551 10.7782 57.8426 10.7782C57.73 10.7782 57.6209 10.7321 57.5424 10.652C57.4623 10.5734 57.4162 10.4644 57.4162 10.3518C57.4162 10.2393 57.4623 10.1302 57.5424 10.05ZM56.7957 12.3066C56.8388 12.117 57.0087 11.9753 57.2114 11.9753C57.4469 11.9753 57.6378 12.1661 57.6378 12.4016C57.6378 12.9371 56.9897 13.3111 56.0621 13.3111C55.1344 13.3111 54.4863 12.9371 54.4863 12.4016C54.4863 12.1661 54.6772 11.9753 54.9127 11.9753C55.1154 11.9753 55.2853 12.117 55.3284 12.3066C55.4125 12.3612 55.6625 12.4584 56.0622 12.4584C56.4614 12.4584 56.7116 12.361 56.7957 12.3066Z" fill="#FCEBE6"/>
<path d="M24.0081 30.6472C23.9569 30.3165 23.9291 29.9758 23.9291 29.6272C23.9291 25.9391 25.4262 24.7113 26.6672 24.2091C26.6672 24.2091 25.6788 19.1655 25.6774 19.1506C25.6714 19.0889 25.578 18.2531 24.9409 17.3633L22.6699 23.8827L24.0081 30.6472Z" fill="#898785"/>
<path d="M44.6618 27.1758L44.663 27.1765C44.6961 27.1236 44.7399 27.0767 44.7962 27.0414C44.9957 26.9164 45.2587 26.9764 45.3838 27.1758L46.2624 28.5752H49.8964C49.8964 25.921 48.1054 24.7397 46.3554 24.7397C44.2786 24.7397 43.0679 26.0609 42.8145 28.5752H43.7831L44.6618 27.1758Z" fill="#754C24"/>
<path d="M59.5868 8.58017C59.7915 8.61905 59.9332 8.79811 59.933 8.99899H59.9335V10.1738C59.9335 11.9517 59.2562 13.5227 58.2275 14.4517V16.5977L61.012 17.2658C61.4744 17.3745 61.8871 17.5336 62.258 17.7256C64.8769 15.0984 61.2881 8.13576 61.2507 8.06397C61.219 8.00309 61.2023 7.93522 61.2023 7.86649C61.2023 6.55545 60.8073 5.51129 60.0283 4.76334C58.9018 3.68166 57.248 3.46014 56.4883 3.41699V5.99065C56.4883 7.9683 59.5558 8.57437 59.5868 8.58017Z" fill="#CC7050"/>
<path d="M56.0611 15.3375C55.6005 15.3375 55.1587 15.2292 54.7485 15.0314V16.934C54.7485 17.1312 54.6135 17.3026 54.4216 17.3486L52.4805 17.8143C52.697 18.9906 54.079 19.7606 56.0611 19.7606C58.0434 19.7606 59.4255 18.9908 59.6421 17.8143L57.7009 17.3486C57.5093 17.3026 57.374 17.1312 57.374 16.934V15.0312C56.9639 15.2291 56.5219 15.3375 56.0611 15.3375Z" fill="#FCEBE6"/>
<path d="M49.9462 29.6268C49.9462 29.5595 49.9448 29.4937 49.9438 29.4277H46.0256C45.879 29.4277 45.7426 29.3523 45.6646 29.228L45.0217 28.2041L44.3788 29.228C44.3009 29.3523 44.1645 29.4277 44.0178 29.4277H42.7651C42.7641 29.4937 42.7627 29.5595 42.7627 29.6268C42.7627 32.1669 44.3739 34.2332 46.3543 34.2332C48.3348 34.2332 49.9462 32.1669 49.9462 29.6268ZM47.7207 30.1088C47.8793 29.9502 48.1641 29.9502 48.3244 30.1088C48.4028 30.1872 48.4489 30.2981 48.4489 30.4106C48.4489 30.5215 48.4028 30.6323 48.3244 30.7107C48.2442 30.7909 48.1351 30.8352 48.0226 30.8352C47.91 30.8352 47.8009 30.7909 47.7207 30.7107C47.6423 30.6323 47.5962 30.5215 47.5962 30.4106C47.5962 30.2981 47.6423 30.1872 47.7207 30.1088ZM44.3851 30.7176C44.305 30.6391 44.2589 30.53 44.2589 30.4174C44.2589 30.3049 44.305 30.194 44.3851 30.1156C44.5437 29.957 44.8285 29.957 44.9871 30.1156C45.0673 30.1957 45.1116 30.3049 45.1116 30.4174C45.1116 30.5283 45.0673 30.6391 44.9871 30.7176C44.9087 30.7977 44.7978 30.8438 44.6853 30.8438C44.5744 30.8438 44.4636 30.7977 44.3851 30.7176ZM44.924 32.5068C44.9235 32.2713 45.1138 32.0799 45.3493 32.0794C45.3497 32.0794 45.35 32.0794 45.3503 32.0794C45.5357 32.0794 45.6936 32.1978 45.7523 32.3632C45.8389 32.406 46.0459 32.4664 46.349 32.4664C46.3507 32.4664 46.3524 32.4664 46.3541 32.4664C46.66 32.4657 46.8687 32.4039 46.9555 32.3606C47.0135 32.1947 47.1713 32.0757 47.3571 32.0752C47.3575 32.0752 47.3578 32.0752 47.3582 32.0752C47.5932 32.0752 47.784 32.2653 47.7845 32.5005C47.785 32.6696 47.712 32.9822 47.2197 33.1744C46.9823 33.267 46.6755 33.3183 46.356 33.319C46.3534 33.319 46.3508 33.319 46.3485 33.319C45.4973 33.319 44.9252 32.9931 44.924 32.5068Z" fill="#E5CBBD"/>
<path d="M28.3724 35.0861C27.9231 35.0861 27.4893 35.0031 27.0802 34.8501C27.0541 34.9461 26.9954 35.0297 26.9141 35.0868C27.1189 35.4007 27.6728 35.6787 28.3661 35.6787C28.3684 35.6787 28.3711 35.6789 28.3726 35.6787C28.3748 35.6789 28.3769 35.6787 28.3791 35.6787C29.0725 35.6787 29.6264 35.4009 29.8312 35.0868C29.7498 35.0298 29.6912 34.9461 29.6651 34.8501C29.2556 35.0031 28.8218 35.0861 28.3724 35.0861Z" fill="#E5CBBD"/>
<path d="M48.4844 34.4352L49.2257 34.6925C49.3232 34.2562 49.4249 33.8399 49.5302 33.4424C49.2236 33.8271 48.8717 34.1571 48.4844 34.4178V34.4352Z" fill="#FCEBE6"/>
<path d="M24.833 28.5752H25.8016L26.6802 27.1758C26.8054 26.9763 27.0683 26.9161 27.2679 27.0414C27.3241 27.0767 27.368 27.1238 27.401 27.1765L27.4022 27.1758L28.2808 28.5752H31.9148C31.6614 26.0609 30.4506 24.7397 28.3737 24.7397C26.2972 24.7397 25.0864 26.0609 24.833 28.5752Z" fill="#C69C6D"/>
<path d="M24.1133 31.1846L24.8519 34.9182L26.2434 34.4352V34.4177C25.2263 33.733 24.4506 32.5739 24.1133 31.1846Z" fill="#898785"/>
<path d="M46.3542 35.0861C45.9049 35.0861 45.4711 35.0031 45.0619 34.8501C45.0359 34.9463 44.977 35.03 44.8955 35.0871C45.1 35.4024 45.6547 35.6818 46.3534 35.6787C46.3537 35.6787 46.3541 35.6787 46.3542 35.6787C46.3565 35.6789 46.3585 35.6787 46.3607 35.6787C47.0541 35.6787 47.608 35.4009 47.8128 35.0868C47.7314 35.0298 47.6728 34.9461 47.6467 34.8501C47.2374 35.0031 46.8036 35.0861 46.3542 35.0861Z" fill="#E5CBBD"/>
<path d="M27.6832 29.228L27.0403 28.2041L26.3974 29.228C26.3194 29.3523 26.183 29.4277 26.0364 29.4277H24.7836C24.7826 29.4937 24.7812 29.5595 24.7812 29.6268C24.7812 32.1669 26.3924 34.2332 28.373 34.2332C30.3535 34.2332 31.9647 32.1669 31.9647 29.6268C31.9647 29.5595 31.9633 29.4937 31.9623 29.4277H28.0442C27.8975 29.4277 27.7611 29.3523 27.6832 29.228ZM26.4028 30.7193C26.3244 30.6391 26.2783 30.53 26.2783 30.4174C26.2783 30.3049 26.3244 30.194 26.4028 30.1156C26.5614 29.957 26.8479 29.957 27.0065 30.1156C27.085 30.194 27.131 30.3049 27.131 30.4174C27.131 30.53 27.085 30.6391 27.0065 30.7193C26.9264 30.7977 26.8172 30.8438 26.7047 30.8438C26.5921 30.8438 26.483 30.7977 26.4028 30.7193ZM29.7401 30.1088C29.897 29.9502 30.1835 29.9502 30.3421 30.1088C30.4223 30.1872 30.4683 30.2981 30.4683 30.4089C30.4683 30.5215 30.4223 30.6323 30.3421 30.7107C30.2637 30.7909 30.1528 30.8352 30.042 30.8352C29.9294 30.8352 29.8186 30.7909 29.7401 30.7107C29.66 30.6323 29.6156 30.5215 29.6156 30.4089C29.6156 30.2981 29.66 30.1872 29.7401 30.1088ZM28.9743 32.3606C29.0323 32.1947 29.19 32.0757 29.3759 32.0752C29.3762 32.0752 29.3766 32.0752 29.3769 32.0752C29.6119 32.0752 29.8027 32.2653 29.8032 32.5005C29.8036 32.6696 29.7308 32.9822 29.2384 33.1744C29.001 33.267 28.6943 33.3183 28.3749 33.319C28.3723 33.319 28.3697 33.319 28.3674 33.319C27.5162 33.319 26.9441 32.9931 26.9429 32.5068C26.9424 32.2713 27.1327 32.0799 27.3682 32.0794C27.3686 32.0794 27.3689 32.0794 27.3692 32.0794C27.5546 32.0794 27.7125 32.1978 27.7712 32.3632C27.8583 32.4062 28.071 32.4722 28.373 32.4664C28.6786 32.4657 28.8873 32.4039 28.9743 32.3606Z" fill="#E5CBBD"/>
<path d="M24.6387 52.541L23.6953 61.4105H27.396L27.9494 55.0831C27.97 54.8486 28.1776 54.6761 28.4112 54.6955C28.6204 54.7138 28.7802 54.8807 28.7978 55.083H28.7986L29.3561 61.4105H33.0527L32.1093 52.541H24.6387Z" fill="#C69C6D"/>
<path d="M50.09 52.541H42.6192L41.6758 61.4105H45.3765L45.9299 55.0831C45.9505 54.8486 46.1568 54.6761 46.3917 54.6955C46.6009 54.7138 46.7607 54.8807 46.7782 55.083H46.7791L47.3366 61.4105H51.0332L50.09 52.541Z" fill="#C66D6D"/>
<path d="M49.573 72.16L50.0861 62.2632H47.7143L47.7109 72.16H49.573Z" fill="#E5CBBD"/>
<path d="M49.9753 73.0127H47.7093L47.709 74.1469H51.1119C51.1155 74.1445 51.1193 74.1423 51.1229 74.1397C51.0841 73.878 50.9912 73.5448 50.7697 73.3108C50.5802 73.1111 50.3203 73.0135 49.9753 73.0127Z" fill="#B3B3B3"/>
<path d="M52.8609 38.4453C52.8532 38.4096 52.7602 38.0074 52.4869 37.5352L51.1211 41.5358L51.5236 42.7906L53.6719 41.5198C53.6717 41.5198 52.8624 38.4521 52.8609 38.4453Z" fill="#5F7ECE"/>
<path d="M42.7335 73.0127C42.3883 73.0134 42.1286 73.1111 41.9393 73.311C41.7159 73.5468 41.623 73.8839 41.585 74.1469H44.9998L44.9993 73.0127H42.7335Z" fill="#B3B3B3"/>
<path d="M44.998 72.16L44.9946 62.2632H42.623L43.136 72.16H44.998Z" fill="#E5CBBD"/>
<path d="M51.0556 43.7915L50.9004 52.0959L50.9517 52.5778H53.8934L51.2512 43.8522C51.2097 43.8493 51.1685 43.8428 51.1287 43.8277C51.103 43.8179 51.0786 43.8058 51.0556 43.7915Z" fill="#BADFE8"/>
<path d="M52.4414 74.1474H55.6353V71.6494H53.7741C53.6477 72.1977 53.3084 73.2422 52.4414 74.1474Z" fill="#998675"/>
<path d="M64.9908 24.458L62.4489 25.6128C62.3593 25.8709 62.2461 26.1009 62.1172 26.3062L66.5681 40.9255C66.5711 40.9356 66.5739 40.9457 66.5761 40.9559C66.6354 41.219 66.7937 41.4433 67.0218 41.5874C67.25 41.7316 67.5208 41.778 67.7836 41.7188C68.0469 41.6593 68.2712 41.5011 68.4154 41.2729C68.5595 41.0449 68.6061 40.7743 68.5466 40.5111L64.9908 24.458Z" fill="#FCEBE6"/>
<path d="M54.6466 53.9078C54.4544 53.7859 54.2984 53.6223 54.1877 53.4307H51.8262C51.8632 55.1126 52.112 61.6453 53.7767 70.7964H55.6364V54.1007C55.5538 54.1155 55.4711 54.1249 55.3887 54.1249C55.1282 54.1247 54.8722 54.0511 54.6466 53.9078Z" fill="#FCEBE6"/>
<path d="M56.5647 53.4791C56.5408 53.5168 56.5152 53.5528 56.4883 53.5875V70.7964H58.3483C60.0138 61.64 60.2618 55.1119 60.2986 53.4307H56.5923C56.5829 53.4467 56.5747 53.4632 56.5647 53.4791Z" fill="#FCEBE6"/>
<path d="M56.4883 71.6494V74.1474H59.6825C58.8155 73.2422 58.4762 72.1977 58.3498 71.6494H56.4883Z" fill="#998675"/>
<path d="M21.298 72.0449H17.7168V74.1476H22.7459C22.7761 73.8742 22.8496 73.5152 23.0241 73.1759C22.7158 72.4157 22.1496 72.0449 21.298 72.0449Z" fill="#736357"/>
<path d="M53.6886 42.5L52.0293 43.4814L54.8572 52.8209C54.8603 52.831 54.863 52.8412 54.8652 52.8516C54.8966 52.9916 54.9805 53.1111 55.1018 53.1882C55.223 53.2651 55.3669 53.2902 55.5073 53.2588C55.6475 53.2274 55.767 53.1435 55.8439 53.0223C55.9208 52.901 55.9461 52.7571 55.9147 52.6171L53.6886 42.5Z" fill="#E5CBBD"/>
<path d="M35.7081 42.5L34.0488 43.4814L36.8767 52.8209C36.8798 52.831 36.8825 52.8412 36.8848 52.8516C36.9161 52.9916 37 53.1111 37.1213 53.1882C37.2425 53.2651 37.3865 53.2902 37.5268 53.2588C37.667 53.2274 37.7865 53.1435 37.8634 53.0223C37.9404 52.901 37.9656 52.7571 37.9342 52.6171L35.7081 42.5Z" fill="#E5CBBD"/>
<path d="M42.464 41.5236L42.654 51.6884H50.0545L50.2445 41.5236C50.2447 41.5152 50.2651 41.4004 50.2674 41.3938L51.855 36.743C51.5141 36.4308 51.066 36.1609 50.4785 36.0273C50.4633 36.0239 48.6188 35.3848 48.6188 35.3848C48.2945 36.0514 47.4058 36.5314 46.3607 36.5314C46.3588 36.5314 46.3571 36.5314 46.3552 36.5314C46.3545 36.5314 46.354 36.5314 46.3533 36.5314C46.3514 36.5314 46.3497 36.5314 46.3479 36.5314C45.3025 36.5314 44.414 36.0514 44.0897 35.3848C44.0897 35.3848 42.2452 36.0239 42.23 36.0273C41.6426 36.161 41.1942 36.4308 40.8535 36.743L42.4412 41.3938C42.4435 41.4004 42.4638 41.5154 42.464 41.5236Z" fill="#5F7ECE"/>
<path d="M27.0177 72.16L27.0143 62.2632H24.6426L25.1557 72.16H27.0177Z" fill="#E5CBBD"/>
<path d="M29.7319 62.2632L29.7285 72.16H31.5904L32.1035 62.2632H29.7319Z" fill="#E5CBBD"/>
<path d="M24.752 73.0127C24.4071 73.0134 24.1472 73.1111 23.9579 73.311C23.7345 73.5468 23.6417 73.8839 23.6035 74.1469H27.0184L27.0181 73.0127H24.752Z" fill="#B3B3B3"/>
<path d="M32.498 36.0273C32.4828 36.0239 32.4676 36.0197 32.4528 36.0144L30.6384 35.3848C30.314 36.0514 29.4254 36.5314 28.3802 36.5314C28.3783 36.5314 28.3766 36.5314 28.3747 36.5314C28.3742 36.5314 28.3735 36.5314 28.3728 36.5314C28.371 36.5314 28.3693 36.5314 28.3674 36.5314C27.322 36.5314 26.4336 36.0514 26.1092 35.3848L24.2948 36.0144C24.2799 36.0195 24.2648 36.0239 24.2496 36.0273C23.6621 36.161 23.2138 36.4308 22.873 36.743L24.4607 41.3938C24.4629 41.4004 24.4834 41.5152 24.4835 41.5236L24.6735 51.6884H32.0742L32.2642 41.5236C32.2644 41.5152 32.2848 41.4004 32.2871 41.3938L33.8747 36.743C33.5338 36.4308 33.0855 36.161 32.498 36.0273Z" fill="#B0CE5F"/>
<path d="M29.7289 73.0127L29.7285 74.1469H33.1434C33.1054 73.8843 33.0124 73.5468 32.789 73.311C32.5998 73.1111 32.34 73.0134 31.9949 73.0127H29.7289Z" fill="#B3B3B3"/>
<path d="M37.8008 48.045L38.4311 50.9096L40.6802 43.4814L39.0209 42.5L37.8008 48.045Z" fill="#E5CBBD"/>
<path d="M61.8034 22.0755C62.4998 22.707 62.7207 23.6826 62.6564 24.5818L64.803 23.6065L64.4062 21.8149C64.3782 21.6935 63.6715 18.767 60.8146 18.0955L60.4777 18.0146C60.1697 19.5893 58.4731 20.6132 56.0616 20.6132C53.6504 20.6132 51.9538 19.5893 51.6458 18.0148L51.3109 18.0951C48.452 18.7672 47.7451 21.6937 47.7165 21.8178L47.3203 23.6065L49.467 24.5816C49.4027 23.6824 49.6237 22.7068 50.3201 22.0755C50.4948 21.9173 50.7642 21.9307 50.9224 22.105C51.0805 22.2795 51.0674 22.5491 50.8929 22.7073C50.2326 23.3057 50.1839 24.4781 50.477 25.3269C50.7057 25.9892 51.1105 26.4196 51.5335 26.4498C51.747 26.4652 51.916 26.6364 51.9286 26.85L52.0739 29.3212C52.0795 29.4153 52.0536 29.5088 52.0004 29.5867C51.2386 30.702 50.5787 32.5139 50.0364 34.9738L50.6921 35.2015C53.0778 35.7583 53.645 38.0475 53.692 38.2564L54.5781 41.6136C54.6185 41.7664 54.5698 41.925 54.4588 42.0306C54.4588 42.0306 56.7664 52.5295 56.772 52.5783H63.713C63.6828 49.8053 63.368 34.337 60.1233 29.5867C60.0701 29.5088 60.0442 29.4153 60.0498 29.3212L60.1954 26.85C60.208 26.6364 60.377 26.4652 60.5905 26.4498C61.0133 26.4196 61.418 25.9894 61.6466 25.327C61.9398 24.4781 61.8912 23.3056 61.2309 22.7072C61.0564 22.5491 61.0433 22.2795 61.2014 22.105C61.3593 21.9307 61.6291 21.9173 61.8034 22.0755Z" fill="#BADFE8"/>
<path d="M34.8834 38.4657C34.8815 38.4589 34.88 38.4521 34.8784 38.4453C34.8708 38.4096 34.7778 38.0074 34.5045 37.5352L33.1387 41.5358L33.5411 42.7906L35.6895 41.5198L34.8834 38.4657Z" fill="#B0CE5F"/>
<path d="M39.8478 38.4466C39.8466 38.4526 39.8447 38.4598 39.8432 38.4657L39.0371 41.5198L41.1855 42.7906L41.5879 41.5358L40.2223 37.5352C39.9488 38.0077 39.8558 38.4105 39.8478 38.4466Z" fill="#5F7ECE"/>
<path d="M27.3697 32.0795C27.3693 32.0795 27.369 32.0795 27.3687 32.0795C27.1332 32.08 26.9427 32.2713 26.9434 32.5068C26.9446 32.9932 27.5165 33.319 28.3678 33.319C28.3704 33.319 28.3729 33.319 28.3753 33.319C28.6949 33.3184 29.0015 33.267 29.2389 33.1744C29.7312 32.9824 29.804 32.6698 29.8037 32.5005C29.8032 32.2653 29.6123 32.0752 29.3774 32.0752C29.377 32.0752 29.3767 32.0752 29.3763 32.0752C29.1906 32.0757 29.0329 32.1947 28.9747 32.3607C28.8878 32.404 28.679 32.4657 28.3733 32.4664C28.0713 32.4722 27.8586 32.4062 27.7715 32.3632C27.713 32.1978 27.5551 32.0795 27.3697 32.0795Z" fill="#1C1B1A"/>
<path d="M27.132 30.4179C27.132 30.3053 27.0859 30.1945 27.0075 30.116C26.8489 29.9574 26.5624 29.9574 26.4038 30.116C26.3253 30.1945 26.2793 30.3053 26.2793 30.4179C26.2793 30.5304 26.3253 30.6395 26.4038 30.7197C26.4839 30.7981 26.5931 30.8442 26.7056 30.8442C26.8182 30.8442 26.9273 30.7981 27.0075 30.7197C27.0859 30.6395 27.132 30.5304 27.132 30.4179Z" fill="#1C1B1A"/>
<path d="M30.0416 30.8356C30.1524 30.8356 30.2633 30.7913 30.3417 30.7112C30.4218 30.6327 30.4679 30.5219 30.4679 30.4093C30.4679 30.2985 30.4218 30.1876 30.3417 30.1092C30.1831 29.9506 29.8966 29.9506 29.7397 30.1092C29.6596 30.1876 29.6152 30.2985 29.6152 30.4093C29.6152 30.5219 29.6596 30.6327 29.7397 30.7112C29.8182 30.7913 29.929 30.8356 30.0416 30.8356Z" fill="#1C1B1A"/>
<path d="M47.2205 33.1744C47.7128 32.9824 47.7858 32.6698 47.7853 32.5005C47.7848 32.2653 47.594 32.0752 47.359 32.0752C47.3586 32.0752 47.3583 32.0752 47.3579 32.0752C47.1722 32.0757 47.0145 32.1947 46.9563 32.3607C46.8694 32.404 46.6606 32.4657 46.3549 32.4664C46.3532 32.4664 46.3515 32.4664 46.3498 32.4664C46.0467 32.4664 45.8397 32.4059 45.7531 32.3632C45.6944 32.1978 45.5365 32.0795 45.3511 32.0795C45.3508 32.0795 45.3505 32.0795 45.3501 32.0795C45.1146 32.08 44.9241 32.2713 44.9248 32.5068C44.926 32.9932 45.498 33.319 46.3493 33.319C46.3518 33.319 46.3544 33.319 46.3568 33.319C46.6763 33.3184 46.9831 33.267 47.2205 33.1744Z" fill="#1C1B1A"/>
<path d="M45.1124 30.4179C45.1124 30.3053 45.0681 30.1962 44.9879 30.116C44.8293 29.9574 44.5446 29.9574 44.386 30.116C44.3058 30.1945 44.2598 30.3053 44.2598 30.4179C44.2598 30.5304 44.3058 30.6395 44.386 30.718C44.4646 30.7981 44.5752 30.8442 44.6861 30.8442C44.7986 30.8442 44.9095 30.7981 44.9879 30.718C45.0681 30.6395 45.1124 30.5287 45.1124 30.4179Z" fill="#1C1B1A"/>
<path d="M48.023 30.8356C48.1356 30.8356 48.2447 30.7913 48.3248 30.7112C48.4033 30.6327 48.4493 30.5219 48.4493 30.411C48.4493 30.2985 48.4033 30.1876 48.3248 30.1092C48.1645 29.9506 47.8798 29.9506 47.7212 30.1092C47.6427 30.1876 47.5967 30.2985 47.5967 30.411C47.5967 30.5219 47.6427 30.6327 47.7212 30.7112C47.8013 30.7913 47.9105 30.8356 48.023 30.8356Z" fill="#1C1B1A"/>
<path d="M54.9127 11.9746C54.6772 11.9746 54.4863 12.1654 54.4863 12.4009C54.4863 12.9364 55.1343 13.3104 56.062 13.3104C56.9897 13.3104 57.6377 12.9364 57.6377 12.4009C57.6377 12.1654 57.4469 11.9746 57.2114 11.9746C57.0087 11.9746 56.8388 12.1163 56.7957 12.306C56.7116 12.3605 56.4616 12.4577 56.0619 12.4577C55.6623 12.4577 55.4121 12.3605 55.3281 12.306C55.2851 12.1162 55.1154 11.9746 54.9127 11.9746Z" fill="#1C1B1A"/>
<path d="M54.7062 10.3515C54.7062 10.2389 54.6618 10.1298 54.5817 10.0496C54.4231 9.89102 54.1383 9.89102 53.978 10.0496C53.8996 10.1298 53.8535 10.2389 53.8535 10.3515C53.8535 10.464 53.8996 10.5731 53.978 10.6533C54.0582 10.7317 54.169 10.7778 54.2798 10.7778C54.3924 10.7778 54.5032 10.7317 54.5817 10.6533C54.6618 10.5731 54.7062 10.464 54.7062 10.3515Z" fill="#1C1B1A"/>
<path d="M57.8423 10.7778C57.9549 10.7778 58.0657 10.7317 58.1442 10.6533C58.2243 10.5731 58.2687 10.464 58.2687 10.3515C58.2687 10.2389 58.2243 10.1298 58.1442 10.0496C57.9856 9.89102 57.6991 9.89102 57.5422 10.0496C57.4621 10.1298 57.416 10.2389 57.416 10.3515C57.416 10.464 57.4621 10.5731 57.5422 10.6516C57.6207 10.7317 57.7298 10.7778 57.8423 10.7778Z" fill="#1C1B1A"/>
<path d="M65.7094 23.7588C65.7092 23.7579 65.7091 23.7569 65.7087 23.756L65.2375 21.6287C65.2125 21.5176 64.73 19.4917 62.9939 18.1882C65.6721 15.2006 62.5096 8.66333 62.0532 7.76207C62.0319 6.25799 61.5493 5.04261 60.618 4.14834C58.9136 2.51158 56.3167 2.54791 56.0609 2.55558C55.8021 2.54808 53.2081 2.51227 51.5045 4.14817C50.5731 5.04244 50.0905 6.25799 50.0693 7.7619C49.6128 8.66316 46.4501 15.2008 49.1288 18.1882C47.3921 19.4919 46.9097 21.5176 46.8841 21.6304L46.3843 23.8873C46.3744 23.8873 46.3638 23.887 46.3543 23.887C45.0775 23.887 41.9101 24.3108 41.9101 29.6269C41.9101 31.6902 42.847 33.4894 44.2254 34.4173V34.4349L42.0173 35.2012C39.6316 35.758 39.0644 38.0472 39.0173 38.2561L38.1313 41.6134C38.0908 41.7662 38.1396 41.9248 38.2506 42.0303L37.3635 46.0614L36.4764 42.0303C36.5873 41.9248 36.636 41.7662 36.5958 41.6134L35.7097 38.2561C35.6628 38.0471 35.0955 35.7579 32.7097 35.2012L30.5017 34.4349V34.4175C31.8803 33.4894 32.8172 31.6902 32.8172 29.6269C32.8172 24.3536 29.6499 23.887 28.3728 23.887C28.1276 23.887 27.8225 23.9063 27.4882 23.9689L26.5234 19.0497C26.4862 18.7127 26.042 15.6307 22.1874 14.6227L18.7384 13.4341V11.9843C19.705 10.8782 20.3199 9.23222 20.3199 7.39577L20.3198 5.77709C20.3198 5.77658 20.3199 5.77624 20.3199 5.77589C20.3199 5.77555 20.3198 5.77504 20.3198 5.7747L20.3196 3.12669C20.3213 3.0844 20.3503 2.08287 19.5184 1.21793C18.7413 0.409787 17.5036 0 15.8396 0C14.1755 0 12.9376 0.409787 12.1604 1.21793C11.3285 2.08287 11.3575 3.0844 11.3589 3.11015V7.39594C11.3589 9.23239 11.9738 10.8784 12.9404 11.9844V13.4343L9.49138 14.6229C5.63669 15.6311 5.19263 18.7134 5.15545 19.0501C5.15545 19.0501 1.50762 37.7103 1.50796 37.7166C1.50813 37.7207 1.50694 37.7246 1.50728 37.7287L1.67372 40.0048L1.50148 41.3109C1.43224 41.8438 1.57464 42.3719 1.9024 42.7977C2.23016 43.2237 2.70424 43.4964 3.23715 43.5656C3.32531 43.5771 3.41348 43.5829 3.50096 43.5829C3.94212 43.5829 4.36879 43.4384 4.72418 43.1647C5.14505 42.8407 5.41637 42.3738 5.48952 41.8484L5.85276 40.1671L7.0857 37.9016C7.08774 37.8979 9.02413 28.2035 9.02413 28.2035V40.4751C9.02413 40.4759 9.02447 40.4766 9.02447 40.4775C9.02447 40.4783 9.02413 40.479 9.02413 40.4799V71.5077C8.80141 71.6281 8.60019 71.7817 8.42232 71.9702C7.4861 72.962 7.56523 74.5317 7.56915 74.5981C7.58211 74.8237 7.76885 74.9998 7.9948 74.9998H14.3897C14.6252 74.9998 14.8161 74.809 14.8161 74.5735V71.6291L15.8396 51.9246L16.8631 71.6291V74.5735C16.8631 74.809 17.0539 74.9998 17.2894 74.9998H27.4444C27.5575 74.9998 27.6659 74.9548 27.7459 74.875C27.8259 74.795 27.8707 74.6866 27.8707 74.5733L27.8666 62.2557C28.0501 62.2202 28.1934 62.0669 28.2103 61.8742L28.3745 59.9965L28.5399 61.8746C28.5568 62.0655 28.6978 62.2175 28.8791 62.2545L28.875 74.5735C28.875 74.6866 28.9198 74.795 28.9998 74.8752C29.0798 74.9552 29.1883 75 29.3013 75H33.5931C33.8187 75 34.0053 74.8244 34.0187 74.5991C34.0216 74.5522 34.0799 73.4403 33.4121 72.7297C33.1528 72.4538 32.8277 72.2773 32.4422 72.2021L32.9575 62.2635H33.5259C33.6468 62.2635 33.7621 62.2122 33.8429 62.1223C33.9237 62.0325 33.9626 61.9124 33.9498 61.792L32.9185 52.0965L33.0736 43.7921C33.0967 43.8064 33.1211 43.8185 33.1468 43.8282C33.1865 43.8434 33.2278 43.8501 33.2692 43.8528L36.0556 53.0545C36.1395 53.4097 36.3548 53.7124 36.6637 53.9083C36.8893 54.0514 37.1451 54.1253 37.406 54.1253C37.5078 54.1253 37.6103 54.114 37.7121 54.0913C38.0745 54.0103 38.3836 53.7931 38.5827 53.4796C38.7421 53.2283 38.8139 52.9392 38.7951 52.6485L41.4583 43.8528C41.4998 43.8499 41.541 43.8434 41.5808 43.8282C41.6063 43.8185 41.6309 43.8064 41.6539 43.7921L41.8091 52.0965L40.7777 61.792C40.7649 61.9122 40.8038 62.0323 40.8847 62.1223C40.9655 62.2122 41.0808 62.2635 41.2017 62.2635H41.7701L42.2854 72.2021C41.8998 72.2773 41.5748 72.454 41.3154 72.7297C40.6476 73.4403 40.7059 74.552 40.7088 74.5991C40.7223 74.8242 40.9089 75 41.1345 75H45.4262C45.5393 75 45.6478 74.955 45.7277 74.8752C45.8077 74.7952 45.8526 74.6867 45.8526 74.5735L45.8485 62.2559C46.032 62.2204 46.1752 62.0671 46.1921 61.8744L46.3563 59.9967L46.5217 61.8747C46.5386 62.0657 46.6796 62.2177 46.8609 62.2547L46.8563 74.5733C46.8563 74.6864 46.9012 74.7949 46.9812 74.875C47.0611 74.955 47.1696 74.9998 47.2827 74.9998H60.8849C61.0757 74.9998 61.2434 74.873 61.2952 74.6893C61.347 74.5055 61.2705 74.3099 61.1076 74.2099C59.5411 73.2493 59.1891 71.5583 59.1346 71.2302C60.86 61.8527 61.1134 55.1386 61.1503 53.4307H64.1415C64.377 53.4307 64.5679 53.2399 64.5679 53.0044C64.5679 52.2578 64.5259 34.7841 60.9084 29.2286L61.0263 27.2265C61.1717 27.1793 61.3111 27.1092 61.4437 27.0212L65.7481 41.1589C65.8605 41.6373 66.1506 42.0447 66.5665 42.3074C66.868 42.4979 67.2096 42.596 67.5576 42.596C67.6953 42.5958 67.8339 42.5806 67.9713 42.5496C68.4568 42.4401 68.8704 42.148 69.1361 41.7273C69.4017 41.3066 69.4877 40.8076 69.3784 40.324L65.7094 23.7588ZM56.4874 3.41711C57.2471 3.46008 58.9009 3.6816 60.0275 4.76345C60.8065 5.5114 61.2014 6.55539 61.2014 7.86661C61.2014 7.93533 61.2181 8.0032 61.2498 8.06408C61.2874 8.13588 64.876 15.0985 62.2572 17.7257C61.8863 17.5339 61.4734 17.3746 61.0111 17.266L58.2267 16.5978V14.452C59.2553 13.523 59.9327 11.952 59.9327 10.1741V8.99928H59.9322C59.9323 8.79839 59.7904 8.61933 59.586 8.58045C59.5549 8.57448 56.4874 7.96842 56.4874 5.99093V3.41711ZM57.7009 17.3485L59.6421 17.8142C59.4255 18.9905 58.0433 19.7605 56.0611 19.7605C54.079 19.7605 52.697 18.9907 52.4804 17.8142L54.4216 17.3485C54.6133 17.3024 54.7485 17.1311 54.7485 16.9339V15.0313C55.1586 15.2291 55.6005 15.3374 56.0611 15.3374C56.5219 15.3374 56.9639 15.229 57.374 15.0313V16.9341C57.374 17.1311 57.5092 17.3024 57.7009 17.3485ZM56.0611 7.44454C56.8177 8.61865 58.3812 9.15037 59.08 9.33625V10.1739C59.08 12.5508 57.7258 14.4846 56.0611 14.4846C54.3964 14.4846 53.0422 12.5508 53.0422 10.1739V9.33625C53.7412 9.15037 55.3044 8.61882 56.0611 7.44454ZM50.8727 8.06408C50.9046 8.0032 50.9211 7.93533 50.9211 7.86661C50.9211 6.55744 51.3149 5.51464 52.0913 4.76686C53.2132 3.68672 54.8728 3.46213 55.6346 3.41762V5.99076C55.6346 7.96125 52.5666 8.57448 52.5355 8.58045C52.3312 8.6195 52.1897 8.79856 52.1899 8.99928H52.1893V10.1741C52.1893 11.9522 52.8669 13.5233 53.8957 14.4524V16.5978L51.1133 17.2656C50.6503 17.3744 50.2369 17.5339 49.8655 17.7259C47.246 15.0988 50.8352 8.13588 50.8727 8.06408ZM46.3543 24.7398C48.1043 24.7398 49.8954 25.9211 49.8954 28.5752H46.2613L45.3828 27.1759C45.2576 26.9763 44.9946 26.9163 44.7951 27.0415C44.7388 27.0768 44.695 27.1239 44.6619 27.1765L44.6607 27.1759L43.7822 28.5752H42.8135C43.0668 26.0609 44.2775 24.7398 46.3543 24.7398ZM42.7627 29.6271C42.7627 29.5597 42.7641 29.4939 42.7651 29.4279H44.0178C44.1645 29.4279 44.3009 29.3525 44.3788 29.2282L45.0218 28.2043L45.6646 29.2282C45.7426 29.3525 45.879 29.4279 46.0257 29.4279H49.9438C49.9448 29.4939 49.9462 29.5597 49.9462 29.6271C49.9462 32.1671 48.3348 34.2335 46.3544 34.2335C44.3739 34.2335 42.7627 32.1671 42.7627 29.6271ZM49.5291 33.4422C49.4237 33.8397 49.322 34.256 49.2245 34.6924L48.4832 34.435V34.4176C48.8706 34.1569 49.2224 33.8269 49.5291 33.4422ZM47.8127 35.0868C47.6079 35.4008 47.0541 35.6787 46.3606 35.6787C46.3584 35.6787 46.3565 35.6789 46.3541 35.6787C46.3541 35.6787 46.3536 35.6787 46.3533 35.6787C45.6546 35.6818 45.0998 35.4023 44.8954 35.0872C44.9769 35.03 45.0357 34.9463 45.0618 34.8501C45.4709 35.0033 45.9048 35.0861 46.3541 35.0861C46.8035 35.0861 47.2373 35.0031 47.6464 34.8501C47.6728 34.9461 47.7313 35.0299 47.8127 35.0868ZM31.9645 29.6271C31.9645 32.1671 30.3532 34.2335 28.3728 34.2335C26.3924 34.2335 24.781 32.1671 24.781 29.6271C24.781 29.5597 24.7824 29.4939 24.7834 29.4279H26.0362C26.1828 29.4279 26.3192 29.3525 26.3972 29.2282L27.0401 28.2043L27.683 29.2282C27.7609 29.3525 27.8973 29.4279 28.044 29.4279H31.9621C31.9631 29.4939 31.9645 29.5597 31.9645 29.6271ZM29.8312 35.0868C29.6264 35.4008 29.0726 35.6787 28.3791 35.6787C28.3769 35.6787 28.3748 35.6789 28.3726 35.6787C28.3711 35.6789 28.3683 35.6787 28.3661 35.6787C27.6727 35.6787 27.1189 35.4009 26.9141 35.0868C26.9956 35.0297 27.0541 34.9461 27.0802 34.8501C27.4893 35.0033 27.9231 35.0861 28.3724 35.0861C28.8218 35.0861 29.2556 35.0031 29.6647 34.8501C29.6912 34.9461 29.7498 35.0299 29.8312 35.0868ZM26.2437 34.4176V34.4352L24.8522 34.9182L24.1136 31.1845C24.4511 32.5739 25.2268 33.733 26.2437 34.4176ZM28.3728 24.7398C30.4497 24.7398 31.6604 26.0609 31.9139 28.5752H28.2798L27.4013 27.1759L27.4001 27.1765C27.367 27.1237 27.3232 27.0768 27.2669 27.0415C27.0674 26.9163 26.8044 26.9765 26.6792 27.1759L25.8007 28.5752H24.832C25.0853 26.0609 26.296 24.7398 28.3728 24.7398ZM25.6767 19.1505C25.678 19.1653 26.6664 24.209 26.6664 24.209C25.4257 24.7112 23.9284 25.939 23.9284 29.6271C23.9284 29.9756 23.9562 30.3165 24.0073 30.647L22.6692 23.8824L24.9402 17.363C25.5773 18.2532 25.6707 19.0888 25.6767 19.1505ZM21.0563 41.5196L21.8624 38.4655C21.8639 38.4596 21.8658 38.4524 21.867 38.4464C21.8749 38.4103 21.968 38.0075 22.2415 37.535L23.6071 41.5356L23.2047 42.7904L21.0563 41.5196ZM22.698 43.4814L19.8701 52.8209C19.867 52.8309 19.8643 52.8412 19.8621 52.8516C19.8307 52.9916 19.7468 53.1111 19.6255 53.1882C19.5043 53.2653 19.3602 53.2905 19.2199 53.2588C19.0798 53.2274 18.9603 53.1435 18.8832 53.0223C18.8063 52.901 18.7811 52.7571 18.8128 52.6156L21.0389 42.5L22.698 43.4814ZM24.0389 35.2004L24.0358 35.2014C23.4828 35.3305 23.0287 35.5532 22.6549 35.8209V28.2037L24.0389 35.2004ZM20.1319 18.2709C20.2094 18.2709 20.2867 18.2497 20.3547 18.208C20.4755 18.1338 20.5517 18.0045 20.5578 17.863L20.6816 15.0059C20.6816 15.0059 21.9466 15.4414 21.9572 15.4442C22.9983 15.7143 23.7481 16.1548 24.2896 16.6392L21.8259 23.7117C21.8232 23.7194 21.8022 23.8421 21.8022 23.8519V36.6584C21.2458 37.3975 21.0618 38.1415 21.0358 38.2565L20.5628 40.0489H16.2662V18.68L17.1482 16.9539L19.955 18.2325C20.0115 18.2581 20.0717 18.2709 20.1319 18.2709ZM15.8396 17.6409L13.7932 13.6357V12.753C14.4071 13.1788 15.1025 13.4208 15.8396 13.4208C16.5766 13.4208 17.272 13.1788 17.886 12.753V13.6357L15.8396 17.6409ZM19.8408 14.716L19.7333 17.1943L17.5365 16.1937L18.5236 14.262L19.8408 14.716ZM12.7881 1.79535C13.4003 1.16984 14.4269 0.852656 15.8396 0.852656C17.2523 0.852656 18.2789 1.16984 18.8911 1.79535C19.4762 2.39324 19.4685 3.06854 19.4676 3.11015V5.28886C18.8602 5.10195 18.552 4.47679 18.552 3.4212C18.552 3.18569 18.3612 2.99487 18.1257 2.99487H18.1254C17.8899 2.99487 17.6991 3.18569 17.6991 3.4212C17.6991 3.75544 16.9746 4.24094 15.8397 4.24094C14.7047 4.24094 13.9804 3.75544 13.9804 3.4212C13.9804 3.18569 13.7896 2.99487 13.5541 2.99487H13.5538C13.3183 2.99487 13.1274 3.18569 13.1274 3.4212C13.1274 4.47696 12.8193 5.10195 12.2117 5.28903L12.2115 3.09719C12.2107 3.06871 12.203 2.39324 12.7881 1.79535ZM12.2115 7.39594L12.2114 6.16539C13.0333 6.02606 13.5952 5.47201 13.8401 4.5716C14.3283 4.89561 15.0307 5.0936 15.8394 5.0936C16.6481 5.0936 17.3505 4.89561 17.8387 4.5716C18.0834 5.47201 18.6455 6.02606 19.4673 6.16539V7.39594C19.4673 10.2479 17.8397 12.5683 15.8394 12.5683C13.8391 12.5682 12.2115 10.2479 12.2115 7.39594ZM13.1556 14.262L14.1426 16.1937L11.9458 17.1943L11.8384 14.716L13.1556 14.262ZM4.64659 41.7201C4.60668 42.0273 4.44945 42.3005 4.20406 42.4894C3.95867 42.6784 3.6541 42.76 3.34714 42.7205C3.04018 42.6806 2.76699 42.5235 2.57804 42.2779C2.3891 42.0326 2.30707 41.7282 2.34697 41.4217L2.4759 40.4439H4.9208C4.9208 40.4439 4.64812 41.7084 4.64659 41.7201ZM5.1957 39.5912H2.49841L2.39131 38.1241H5.99413L5.1957 39.5912ZM6.36128 37.2717H2.45066C2.45066 37.2717 6.00112 19.1655 6.00248 19.1507C6.00385 19.1353 6.09218 18.2835 6.74225 17.3725L9.00997 23.8827L6.36128 37.2717ZM7.39197 16.6457C7.93358 16.1575 8.68272 15.7136 9.72194 15.4442C9.73268 15.4414 10.9975 15.0059 10.9975 15.0059L11.1213 17.863C11.1275 18.0045 11.2035 18.1338 11.3244 18.208C11.3925 18.2497 11.4697 18.2709 11.5473 18.2709C11.6075 18.2709 11.6677 18.2581 11.7241 18.2325L14.5309 16.9539L15.4129 18.68V40.0489H9.87695V23.8519C9.87695 23.842 9.86348 23.7513 9.85888 23.7349C9.85649 23.727 7.39197 16.6457 7.39197 16.6457ZM13.9634 74.1472H8.43443C8.47297 73.7123 8.60513 73.0188 9.04237 72.5556C9.36689 72.2116 9.80516 72.0445 10.3821 72.0445H13.9632L13.9634 74.1472ZM16.2656 43.6903L16.2627 43.6905C16.2516 43.4751 16.0812 43.2982 15.8612 43.2866C15.6245 43.2754 15.4255 43.4551 15.4133 43.6903L13.9847 71.1919H9.87695V40.9016H20.3377L20.1498 41.6137C20.1093 41.7665 20.1581 41.9251 20.2691 42.0307L17.9804 52.4309C17.8994 52.7932 17.9642 53.1657 18.1632 53.4793C18.3622 53.7929 18.6714 54.0102 19.0338 54.091C19.1356 54.1137 19.2381 54.1249 19.3399 54.1249C19.6006 54.1249 19.8566 54.0511 20.0822 53.908C20.3911 53.7121 20.6064 53.4094 20.6903 53.0542L21.8022 49.3819V71.1917H17.6943L16.2656 43.6903ZM22.7449 74.1472H17.7158V72.0445H21.2969C22.1486 72.0445 22.7147 72.4153 23.023 73.1755C22.8486 73.5148 22.7751 73.8738 22.7449 74.1472ZM22.6549 71.5132V46.5661L23.4765 43.8526C23.5179 43.8497 23.5592 43.8433 23.5989 43.8281C23.6245 43.8184 23.6491 43.8062 23.6721 43.7919L23.8273 52.0963L22.7959 61.7918C22.7831 61.9121 22.822 62.0321 22.9028 62.1222C22.9836 62.212 23.0989 62.2634 23.2198 62.2634H23.7882L24.3036 72.2019C24.0522 72.251 23.8295 72.3476 23.631 72.4821C23.3871 72.0563 23.0573 71.7309 22.6549 71.5132ZM23.603 74.1472C23.641 73.8842 23.734 73.5471 23.9574 73.3112C24.1467 73.1114 24.4064 73.0136 24.7515 73.013H27.0176L27.0179 74.1472H23.603ZM24.6421 62.2634H27.0138L27.0171 72.1603H25.1552L24.6421 62.2634ZM32.7882 73.3111C33.0116 73.5471 33.1045 73.8844 33.1425 74.147H29.7276L29.728 73.0128H31.994C32.3392 73.0136 32.5991 73.1112 32.7882 73.3111ZM29.7283 72.1601L29.7317 62.2632H32.1035L31.5904 72.1601H29.7283ZM33.0515 61.4107H29.3549L28.7974 55.0831H28.7965C28.7788 54.8809 28.6192 54.7139 28.41 54.6957C28.1763 54.6763 27.9686 54.8488 27.9482 55.0833L27.3948 61.4107H23.6941L24.6375 52.5412H32.1083L33.0515 61.4107ZM32.286 41.3937C32.2837 41.4004 32.2633 41.5152 32.2631 41.5235L32.0731 51.6884H24.6724L24.4824 41.5235C24.4823 41.5153 24.4618 41.4004 24.4596 41.3937L22.872 36.743C23.2128 36.4308 23.661 36.1608 24.2485 36.0273C24.2637 36.0239 24.2788 36.0196 24.2937 36.0143L26.1081 35.3847C26.4325 36.0513 27.3209 36.5314 28.3663 36.5314C28.368 36.5314 28.3699 36.5314 28.3718 36.5314C28.3723 36.5314 28.3729 36.5314 28.3736 36.5314C28.3755 36.5314 28.3772 36.5314 28.3791 36.5314C29.4243 36.5314 30.3129 36.0513 30.6373 35.3847L32.4517 36.0143C32.4666 36.0194 32.4817 36.0239 32.4969 36.0273C33.0844 36.161 33.5327 36.4308 33.8734 36.743L32.286 41.3937ZM33.1384 41.5356L34.5042 37.535C34.7776 38.0072 34.8705 38.4094 34.8782 38.4451C34.8797 38.4519 34.8813 38.4587 34.8831 38.4655L35.6893 41.5196L33.5409 42.7904L33.1384 41.5356ZM37.8623 53.0223C37.7854 53.1435 37.6659 53.2276 37.5257 53.2588C37.3852 53.2902 37.2414 53.2651 37.1202 53.1882C36.9989 53.1113 36.9149 52.9917 36.8837 52.8516C36.8813 52.8412 36.8787 52.8309 36.8756 52.8209L34.0477 43.4814L35.707 42.5L37.9334 52.6171C37.9645 52.7571 37.9392 52.901 37.8623 53.0223ZM38.4304 50.9096L37.7999 48.045L39.0202 42.4998L40.6795 43.4812L38.4304 50.9096ZM41.1862 42.7904L39.0378 41.5196L39.8439 38.4655C39.8454 38.4596 39.8473 38.4524 39.8485 38.4464C39.8564 38.4103 39.9495 38.0075 40.223 37.535L41.5886 41.5356L41.1862 42.7904ZM40.8535 36.743C41.1942 36.4308 41.6425 36.1608 42.23 36.0273C42.2452 36.0239 44.0896 35.3847 44.0896 35.3847C44.414 36.0513 45.3024 36.5314 46.3478 36.5314C46.3495 36.5314 46.3514 36.5314 46.3533 36.5314C46.3538 36.5314 46.3545 36.5314 46.3551 36.5314C46.357 36.5314 46.3587 36.5314 46.3606 36.5314C47.4058 36.5314 48.2944 36.0513 48.6188 35.3847C48.6188 35.3847 50.4632 36.0239 50.4784 36.0273C51.0659 36.161 51.5142 36.4308 51.8549 36.743L50.2673 41.3937C50.2651 41.4004 50.2446 41.5152 50.2444 41.5235L50.0545 51.6884H42.6539L42.4639 41.5235C42.4638 41.5153 42.4433 41.4004 42.4411 41.3937L40.8535 36.743ZM51.1199 41.5356L52.4857 37.535C52.7591 38.0072 52.852 38.4094 52.8597 38.4451C52.8612 38.4519 53.6706 41.5196 53.6706 41.5196L51.5222 42.7904L51.1199 41.5356ZM53.8928 52.5782H50.9511L50.8998 52.0963L51.055 43.7919C51.078 43.8062 51.1024 43.8184 51.1281 43.8281C51.1679 43.8433 51.2091 43.8499 51.2506 43.8526L53.8928 52.5782ZM41.5845 74.1472C41.6225 73.8842 41.7155 73.5471 41.9389 73.3112C42.1282 73.1114 42.3879 73.0136 42.733 73.013H44.9991L44.9996 74.1472H41.5845ZM42.6237 62.2634H44.9955L44.9989 72.1603H43.1369L42.6237 62.2634ZM46.7789 55.0831H46.778C46.7603 54.8809 46.6007 54.7139 46.3915 54.6957C46.1565 54.6763 45.9501 54.8488 45.9297 55.0833L45.3763 61.4107H41.6756L42.619 52.5412H50.0898L51.0331 61.4107H47.3365L46.7789 55.0831ZM50.085 62.2634L49.5719 72.1603H47.71L47.7134 62.2634H50.085ZM51.1121 74.1472H47.7091L47.7095 73.013H49.9755C50.3205 73.0136 50.5804 73.1114 50.7697 73.3112C50.9912 73.5452 51.0843 73.8784 51.1228 74.1402C51.1194 74.1424 51.1157 74.1448 51.1121 74.1472ZM51.3935 72.7295C51.1341 72.4536 50.8091 72.2771 50.4233 72.2019L50.9387 62.2634H51.5071C51.5519 62.2634 51.5952 62.2542 51.637 62.2407C51.9353 64.8184 52.366 67.8517 52.9878 71.2304C52.9448 71.4893 52.716 72.5987 51.8493 73.5273C51.7594 73.2531 51.6182 72.9688 51.3935 72.7295ZM55.6348 74.1472H52.4409C53.3079 73.242 53.6472 72.1975 53.7736 71.6492H55.6348V74.1472ZM55.6348 70.7964H53.7751C52.1102 61.6454 51.8616 55.1126 51.8246 53.4307H54.1861C54.2968 53.6224 54.4526 53.7859 54.645 53.9078C54.8706 54.0509 55.1264 54.1248 55.3873 54.1248C55.4697 54.1248 55.5524 54.1154 55.6349 54.1005V70.7964H55.6348ZM55.844 53.0223C55.7671 53.1435 55.6475 53.2276 55.5074 53.2588C55.367 53.2902 55.2231 53.2651 55.1019 53.1882C54.9806 53.1113 54.8965 52.9917 54.8653 52.8516C54.8629 52.8412 54.8604 52.8309 54.8573 52.8209L52.0294 43.4814L53.6887 42.5L55.9151 52.6171C55.946 52.7571 55.9209 52.901 55.844 53.0223ZM59.6816 74.1472H56.4874V71.6492H58.3489C58.4753 72.1975 58.8147 73.242 59.6816 74.1472ZM58.3474 70.7964H56.4874V53.5876C56.5144 53.5528 56.5399 53.5168 56.5638 53.4791C56.5739 53.4633 56.5821 53.4469 56.5913 53.4307H60.2976C60.2609 55.112 60.013 61.6402 58.3474 70.7964ZM61.2301 22.7071C61.8902 23.3057 61.9388 24.4781 61.6458 25.327C61.4171 25.9891 61.0125 26.4194 60.5897 26.4497C60.3762 26.4651 60.2072 26.6363 60.1946 26.85L60.049 29.3211C60.0433 29.4153 60.0693 29.5087 60.1225 29.5867C63.367 34.337 63.682 49.8052 63.7121 52.5782H56.7712C56.7656 52.5294 54.4579 42.0305 54.4579 42.0305C54.5688 41.9249 54.6177 41.7663 54.5773 41.6136L53.6912 38.2563C53.6443 38.0472 53.077 35.758 50.6912 35.2014L50.0355 34.9738C50.5778 32.5137 51.2378 30.7019 51.9995 29.5867C52.0528 29.5087 52.0787 29.4155 52.073 29.3211L51.9278 26.85C51.9151 26.6363 51.7461 26.4651 51.5326 26.4497C51.1097 26.4196 50.705 25.9891 50.4762 25.3268C50.1832 24.4781 50.232 23.3057 50.8921 22.7073C51.0666 22.549 51.0799 22.2796 50.9216 22.1049C50.7635 21.9307 50.4939 21.9172 50.3193 22.0754C49.6227 22.7068 49.4017 23.6824 49.4661 24.5816L47.3195 23.6065L47.7156 21.8178C47.7443 21.6936 48.4511 18.767 51.3101 18.0951L51.645 18.0148C51.953 19.5893 53.6494 20.6131 56.0607 20.6131C58.4721 20.6131 60.1688 19.5893 60.4768 18.0146L60.8138 18.0954C63.6707 18.767 64.3774 21.6935 64.4054 21.8149L64.8022 23.6065L62.6555 24.5817C62.7198 23.6825 62.499 22.7068 61.8025 22.0754C61.6281 21.9172 61.3585 21.9305 61.2004 22.1049C61.0425 22.2794 61.0556 22.549 61.2301 22.7071ZM50.5613 27.4069L50.6788 27.0214C50.8115 27.1092 50.9508 27.1793 51.0961 27.2267L51.2137 29.2287C51.0683 29.4519 50.9271 29.6992 50.7895 29.9671C50.7949 29.8544 50.7758 28.2132 50.5613 27.4069ZM68.4156 41.2722C68.2715 41.5002 68.0471 41.6586 67.7838 41.7181C67.521 41.7773 67.2502 41.7309 67.022 41.5866C66.7938 41.4425 66.6356 41.2183 66.5762 40.9551C66.5738 40.9449 66.5713 40.9347 66.5682 40.9248L62.1173 26.3055C62.2463 26.1002 62.3593 25.8701 62.449 25.6121L64.991 24.4573L68.5469 40.5102C68.6061 40.7735 68.5597 41.0442 68.4156 41.2722Z" fill="#1C1B1A"/>
<path d="M15.8403 11.2238C16.7417 11.2238 17.3713 10.8576 17.3713 10.3331C17.3713 10.0976 17.1805 9.90674 16.945 9.90674C16.7446 9.90674 16.5764 10.045 16.5309 10.2313C16.4479 10.2824 16.2115 10.3711 15.8404 10.3711C15.4694 10.3711 15.2328 10.2824 15.1499 10.2314C15.1042 10.045 14.9363 9.90691 14.7359 9.90691C14.5004 9.90691 14.3096 10.0977 14.3096 10.3332C14.3092 10.8576 14.9388 11.2238 15.8403 11.2238Z" fill="#1C1B1A"/>
<path d="M14.3053 8.13919C14.3855 8.05904 14.4298 7.9499 14.4298 7.83735C14.4298 7.72651 14.3855 7.61566 14.3053 7.53722C14.145 7.37692 13.8619 7.37692 13.7016 7.53722C13.6232 7.61566 13.5771 7.72651 13.5771 7.83735C13.5771 7.9499 13.6232 8.06058 13.7016 8.13919C13.7818 8.21934 13.8926 8.26368 14.0035 8.26368C14.116 8.26368 14.2252 8.21917 14.3053 8.13919Z" fill="#1C1B1A"/>
<path d="M17.6763 8.26435C17.7889 8.26435 17.8997 8.22002 17.9782 8.13987C18.0583 8.06125 18.1027 7.95058 18.1027 7.83803C18.1027 7.72718 18.0583 7.61634 17.9782 7.53789C17.8196 7.3793 17.5348 7.3793 17.3762 7.53789C17.296 7.61634 17.25 7.72718 17.25 7.83803C17.25 7.95058 17.296 8.06125 17.3762 8.13987C17.4546 8.21985 17.5655 8.26435 17.6763 8.26435Z" fill="#1C1B1A"/>
<path d="M11.2873 29.354C11.1265 29.354 10.9794 29.2635 10.9069 29.1199L10.4347 28.1855L9.96248 29.1199C9.88984 29.2635 9.74284 29.354 9.58203 29.354H7.39616C7.39428 29.4403 7.39258 29.5269 7.39258 29.6153C7.39258 30.9802 7.72614 32.3523 8.4393 33.2394C8.46744 33.265 9.24012 34.2217 10.4349 34.2217C11.6296 34.2217 12.4023 33.2652 12.4304 33.2394C13.1436 32.3523 13.4771 30.9802 13.4771 29.6153C13.4771 29.5268 13.4753 29.4403 13.4736 29.354H11.2873ZM8.46539 30.7077C8.38524 30.6276 8.3409 30.5184 8.3409 30.4059C8.3409 30.2933 8.38541 30.1825 8.46539 30.104C8.62398 29.9454 8.90877 29.9454 9.06737 30.104C9.14752 30.1825 9.19168 30.2933 9.19168 30.4059C9.19168 30.5184 9.14734 30.6276 9.06737 30.7077C8.98892 30.7862 8.87808 30.8322 8.76536 30.8322C8.65468 30.8322 8.54383 30.7862 8.46539 30.7077ZM11.3001 33.1163C11.0626 33.2089 10.7561 33.2602 10.4366 33.2609C10.434 33.2609 10.4316 33.2609 10.4291 33.2609C9.57827 33.2609 9.00598 32.935 9.00444 32.449C9.00376 32.2135 9.1939 32.0222 9.4294 32.0213C9.42991 32.0213 9.43026 32.0213 9.43077 32.0213C9.61614 32.0213 9.77405 32.1397 9.83271 32.3051C9.91934 32.3477 10.1265 32.4082 10.4296 32.4082C10.4314 32.4082 10.4332 32.4082 10.4347 32.4082C10.7404 32.4076 10.9492 32.3458 11.036 32.3025C11.094 32.1368 11.2515 32.0176 11.4371 32.017C11.4376 32.017 11.4379 32.017 11.4384 32.017C11.6733 32.017 11.8641 32.207 11.8648 32.442C11.8654 32.6115 11.7928 32.9243 11.3001 33.1163ZM12.4047 30.7077C12.3245 30.7862 12.2155 30.8322 12.1028 30.8322C11.9903 30.8322 11.8811 30.7862 11.8008 30.7077C11.7224 30.6276 11.6765 30.5184 11.6765 30.4059C11.6765 30.2933 11.7225 30.1825 11.8008 30.104C11.9611 29.9454 12.2459 29.9454 12.4045 30.104C12.4829 30.1825 12.529 30.2933 12.529 30.4059C12.5292 30.5184 12.4831 30.6276 12.4047 30.7077Z" fill="#E0B489"/>
<path d="M11.4399 32.0176C11.4393 32.0176 11.439 32.0176 11.4385 32.0176C11.2528 32.0181 11.0952 32.1373 11.0374 32.303C10.9504 32.3462 10.7419 32.4081 10.4361 32.4088C10.4344 32.4088 10.4327 32.4088 10.431 32.4088C10.128 32.4088 9.92077 32.3482 9.83414 32.3056C9.77547 32.1402 9.61756 32.0218 9.43219 32.0218C9.43168 32.0218 9.43134 32.0218 9.43083 32.0218C9.19532 32.0225 9.00518 32.214 9.00586 32.4495C9.0074 32.9357 9.57953 33.2614 10.4305 33.2614C10.433 33.2614 10.4354 33.2614 10.438 33.2614C10.7576 33.2608 11.0642 33.2094 11.3016 33.1168C11.7942 32.9246 11.8667 32.6119 11.8664 32.4425C11.8655 32.2076 11.6747 32.0176 11.4399 32.0176Z" fill="#1C1B1A"/>
<path d="M9.19258 30.4061C9.19258 30.2936 9.14824 30.1827 9.06826 30.1043C8.9095 29.9457 8.62471 29.9457 8.46628 30.1043C8.38613 30.1827 8.3418 30.2936 8.3418 30.4061C8.3418 30.5187 8.3863 30.6278 8.46628 30.708C8.54473 30.7864 8.65557 30.8325 8.76642 30.8325C8.87897 30.8325 8.98999 30.7864 9.06843 30.708C9.14824 30.6278 9.19258 30.5187 9.19258 30.4061Z" fill="#1C1B1A"/>
<path d="M11.8021 30.1043C11.7236 30.1827 11.6777 30.2936 11.6777 30.4061C11.6777 30.5187 11.7238 30.6278 11.8021 30.708C11.8824 30.7864 11.9913 30.8325 12.1041 30.8325C12.2166 30.8325 12.3258 30.7864 12.4059 30.708C12.4844 30.6278 12.5304 30.5187 12.5304 30.4061C12.5304 30.2936 12.4842 30.1827 12.4059 30.1043C12.2471 29.9457 11.9624 29.9457 11.8021 30.1043Z" fill="#1C1B1A"/>
<path d="M10.4357 35.0746C9.97369 35.0746 9.54258 34.9871 9.14695 34.8232C9.11625 34.9549 9.02468 35.0652 8.89746 35.1186C8.93447 35.9344 9.16707 36.6539 10.4357 36.6539C11.7056 36.6539 11.9374 35.9325 11.974 35.1189C11.8466 35.0656 11.7549 34.9551 11.7242 34.8234C11.3287 34.9871 10.8976 35.0746 10.4357 35.0746Z" fill="#E0B489"/>
<path d="M6.54093 29.6157C6.54093 29.3699 6.54792 29.1298 6.56174 28.9022C6.57521 28.6757 6.75972 28.5023 6.98721 28.5033V28.5018H9.32076L10.0552 27.0485C10.1615 26.8382 10.4173 26.754 10.6281 26.8602C10.7125 26.903 10.7754 26.9706 10.8151 27.049L10.8163 27.0485L11.5508 28.5018H13.8845V28.5033C14.1089 28.5026 14.2964 28.6757 14.31 28.9022C14.3238 29.1298 14.3308 29.3699 14.3308 29.6157C14.3308 31.0118 14.0438 32.2112 13.5341 33.1278H15.7077C15.6473 29.7028 14.7919 27.3287 13.3421 25.8788C12.1052 24.6419 10.4512 24.7262 10.4406 24.7264C10.4275 24.7265 8.75085 24.6563 7.51296 25.8942C6.81464 26.5925 6.23159 27.4825 5.84073 28.6334C5.83374 28.6663 5.82214 28.6975 5.80765 28.7277C5.40997 29.9409 5.19425 31.41 5.16406 33.1278H7.33765C6.82794 32.211 6.54093 31.0118 6.54093 29.6157Z" fill="#754C24"/>
<path d="M16.8012 39.4082L15.151 40.8708L15.0557 41.6434C15.0616 41.6563 18.9325 52.7934 18.9325 52.7934C18.9378 52.8087 18.9424 52.8246 18.946 52.8404C18.9772 52.9804 19.0611 53.1 19.1825 53.1769C19.3038 53.254 19.4484 53.2789 19.5879 53.2477C19.7282 53.2163 19.8476 53.1324 19.9247 53.0111C20.0016 52.8899 20.0268 52.746 19.9954 52.6058L16.8012 39.4082Z" fill="#E0B489"/>
<path d="M14.5597 36.0155C14.5443 36.0121 12.8074 35.4102 12.8074 35.4102C12.7176 36.2679 12.3092 37.5063 10.4354 37.5063C8.55951 37.5063 8.15228 36.2657 8.06326 35.4102C8.06326 35.4102 6.32657 36.012 6.3114 36.0154C5.37382 36.2287 4.18743 37.5002 3.99609 38.2033L6.4057 40.3389C6.48346 40.4077 6.53326 40.5027 6.54605 40.6057L6.82026 42.8288H14.0504L14.3247 40.6057C14.3375 40.5027 14.3872 40.4077 14.465 40.3389L16.8746 38.2031C16.6962 37.6683 16.1106 36.3685 14.5597 36.0155Z" fill="#FF7B7B"/>
<path d="M11.7914 73.001L11.791 74.1352H15.057C14.833 73.6512 14.372 73.0029 13.5101 73.001H11.7914Z" fill="#F4A2A9"/>
<path d="M11.791 72.1483H13.1532C13.4327 70.5455 14.5664 63.7547 14.6283 58.7715H11.7944L11.791 72.1483Z" fill="#E0B489"/>
<path d="M13.9457 43.6816H6.92578L7.02042 44.4473H13.8512L13.9457 43.6816Z" fill="#F4A2A9"/>
<path d="M6.88969 45.3003C6.27203 46.3987 3.41085 51.8073 3.28125 57.9191H17.5895C17.4602 51.8001 14.5994 46.3978 13.9816 45.3003H6.88969Z" fill="#FF7B7B"/>
<path d="M7.36117 73.001C6.49931 73.0029 6.03853 73.6509 5.81445 74.1352H9.08064L9.0803 73.001H7.36117Z" fill="#F4A2A9"/>
<path d="M4.06969 39.4082L2.51154 45.8452C2.5112 45.847 2.51086 45.8485 2.51052 45.85L0.873419 52.6128C0.843746 52.7456 0.868983 52.8896 0.945893 53.0108C1.02297 53.132 1.14234 53.2161 1.28252 53.2473C1.57294 53.3125 1.86028 53.1293 1.92508 52.8399C1.92849 52.8241 1.9331 52.8085 1.93839 52.7932C1.93839 52.7932 5.80911 41.6565 5.81507 41.6437L5.71958 40.8707L4.06969 39.4082Z" fill="#E0B489"/>
<path d="M9.08064 72.1483L9.07705 58.7715H6.24316C6.3049 63.7559 7.43859 70.5456 7.71792 72.1483H9.08064Z" fill="#E0B489"/>
<path fill-rule="evenodd" clip-rule="evenodd" d="M17.524 38.7683L17.641 38.6648C17.7558 38.563 17.8071 38.4075 17.7752 38.2574C17.7537 38.1554 17.22 35.7615 14.7728 35.1904L12.5648 34.424V34.3173C12.6893 34.2148 12.808 34.1021 12.9209 33.9806H16.1376C16.3731 33.9806 16.5639 33.7898 16.5639 33.5543C16.5639 29.6563 15.6739 26.8627 13.9185 25.251C12.3759 23.8345 10.7258 23.8751 10.4354 23.8751C10.1422 23.8751 8.49388 23.8361 6.95296 25.251C6.39788 25.7605 5.93011 26.3888 5.54897 27.1321L4.98213 28.5158C4.5338 29.9087 4.30751 31.5911 4.30751 33.5543C4.30751 33.7898 4.49833 33.9806 4.73384 33.9806H6.19256L7.06568 33.9808H7.95057C8.06363 34.102 8.18215 34.2148 8.30681 34.3173V34.424L7.24559 34.7924L6.43454 35.0737L6.09894 35.1902C5.278 35.3817 4.6733 35.7787 4.23009 36.225L3.59162 37.0558C3.22566 37.6747 3.10594 38.2101 3.09605 38.2572C3.06433 38.4073 3.11566 38.563 3.23043 38.6646L3.34776 38.7685L2.57968 41.9412L1.67263 45.689C1.67263 45.689 0.0246148 52.5179 0.0189873 52.567C0.0189873 52.567 -0.0237341 52.8729 0.0189873 53.0522C0.0617087 53.2315 0.237777 53.4853 0.237777 53.4853C0.437128 53.7894 0.740674 54.0005 1.09589 54.0798C1.1977 54.1025 1.29933 54.1134 1.39961 54.1134C2.02767 54.1134 2.5964 53.6845 2.75039 53.0522L6.05 43.5517L6.20194 44.7826C5.64549 45.7417 2.42382 51.5883 2.42382 58.3458C2.42382 58.5813 2.61464 58.7721 2.85015 58.7721H5.38987C5.45024 63.7244 6.55187 70.4162 6.86087 72.2005C5.57268 72.4723 4.9528 73.7571 4.7983 74.4723C4.77101 74.5983 4.80239 74.7298 4.88322 74.83C4.96422 74.9303 5.08598 74.9886 5.2149 74.9886H9.50684C9.6199 74.9886 9.72835 74.9436 9.80833 74.8638C9.88848 74.7838 9.93317 74.6754 9.93317 74.5623L9.92907 58.7723H10.9417L10.9374 74.5623C10.9374 74.6754 10.9823 74.7838 11.0624 74.8638C11.1424 74.9438 11.2507 74.9886 11.3637 74.9886H15.6553C15.7843 74.9886 15.9062 74.9303 15.987 74.83C16.068 74.7298 16.0992 74.5983 16.0719 74.4723C15.9176 73.7571 15.2977 72.4723 14.0094 72.2005C14.3182 70.4162 15.4202 63.7245 15.4807 58.7721H18.0201C18.2556 58.7721 18.4464 58.5813 18.4464 58.3458C18.4464 51.588 15.2246 45.741 14.6686 44.7826L14.8206 43.5514L18.1202 53.052C18.2055 53.4033 18.4198 53.7026 18.7259 53.8968C18.9515 54.0399 19.2075 54.1137 19.4682 54.1137C19.5701 54.1137 19.6725 54.1025 19.7744 54.0798C20.1367 53.9988 20.4459 53.7815 20.6449 53.4679C20.8439 53.1543 20.9089 52.782 20.826 52.4123L17.524 38.7683ZM7.39344 29.6161C7.39344 30.981 7.727 32.3531 8.44016 33.2402C8.44191 33.2418 8.44651 33.247 8.45389 33.2552C8.56566 33.3808 9.315 34.2224 10.4357 34.2224C11.5556 34.2224 12.3046 33.3819 12.4173 33.2555C12.4248 33.2471 12.4295 33.2418 12.4313 33.2402C13.1444 32.3529 13.478 30.981 13.4777 29.6161C13.4777 29.5277 13.476 29.4411 13.4741 29.3548H11.2882C11.1274 29.3548 10.9804 29.2642 10.9078 29.1207L10.4355 28.1863L9.96335 29.1207C9.89087 29.2642 9.7437 29.3548 9.58289 29.3548H7.39702L7.39661 29.3758C7.39503 29.4551 7.39344 29.5347 7.39344 29.6161ZM10.4357 36.6542C11.7057 36.6542 11.9372 35.9329 11.9741 35.1193C11.8467 35.0659 11.755 34.9554 11.7244 34.8236C11.3288 34.9874 10.8977 35.0749 10.4357 35.0749C9.97375 35.0749 9.54248 34.9873 9.14701 34.8236C9.11632 34.9552 9.02474 35.0656 8.89752 35.1189C8.93453 35.9348 9.16731 36.6542 10.4357 36.6542ZM5.84058 28.6336C5.83359 28.6667 5.822 28.6979 5.8075 28.7279C5.40982 29.9411 5.19427 31.4102 5.16392 33.128H7.33751C6.82779 32.2114 6.54078 31.012 6.54078 29.6159C6.54078 29.3701 6.54778 29.13 6.56159 28.9024C6.57506 28.6761 6.75958 28.5027 6.98707 28.5035V28.502H9.32062L10.0551 27.0487C10.1613 26.8384 10.4171 26.7542 10.6279 26.8604C10.7123 26.9031 10.7754 26.9708 10.815 27.0492L10.8162 27.0487L11.5507 28.502H13.8844V28.5035C14.1088 28.5028 14.2962 28.6759 14.3098 28.9024C14.3237 29.13 14.3307 29.3701 14.3307 29.6159C14.3307 31.012 14.0437 32.2114 13.5339 33.128H15.7075C15.6473 29.703 14.7918 27.3287 13.3419 25.879C12.1262 24.6634 10.5075 24.7241 10.4425 24.7265L10.4405 24.7266L10.4384 24.7265C10.3707 24.7246 8.72976 24.6774 7.51281 25.8944C6.81449 26.5927 6.23144 27.4827 5.84058 28.6336ZM1.92518 52.8402C1.9286 52.8245 1.9332 52.8088 1.93849 52.7935C1.93849 52.7935 5.80921 41.6568 5.81534 41.6438L5.71985 40.8708L4.06979 39.4085L2.51164 45.8455C2.5113 45.8472 2.51096 45.8488 2.51062 45.8503L0.87352 52.6131C0.843847 52.7459 0.869084 52.8898 0.945994 53.0111C1.02324 53.1323 1.14262 53.2162 1.28262 53.2476C1.57321 53.3127 1.86038 53.1296 1.92518 52.8402ZM9.07692 58.7721H6.24304C6.30477 63.7566 7.43846 70.5465 7.71796 72.1489H9.08051L9.07692 58.7721ZM7.36138 73.0018C6.49969 73.0036 6.03874 73.6517 5.81466 74.136H9.08085L9.08051 73.0018H7.36138ZM11.7909 74.136H15.0569C14.8329 73.652 14.3719 73.0036 13.5101 73.0018H11.7913L11.7909 74.136ZM11.7913 72.1491H13.1535C13.433 70.5463 14.5668 63.7556 14.6287 58.7723H11.7949L11.7913 72.1491ZM3.28159 57.9195H17.5898C17.4606 51.8005 14.5998 46.3982 13.9819 45.3007H6.89003C6.27237 46.3991 3.41119 51.8076 3.28159 57.9195ZM13.9458 43.6823H6.92585L7.02049 44.448H13.8513L13.9458 43.6823ZM14.3252 40.6066C14.338 40.5036 14.3878 40.4086 14.4655 40.3397L16.8752 38.2043C16.6968 37.6692 16.1113 36.3693 14.5602 36.0164C14.545 36.013 12.808 35.411 12.808 35.411C12.7181 36.2688 12.3097 37.5072 10.4359 37.5072C8.56005 37.5072 8.15282 36.2666 8.0638 35.411C8.0638 35.411 6.32728 36.0129 6.31193 36.0163C5.37435 36.2296 4.18796 37.5011 3.99663 38.2042L6.40623 40.3397C6.484 40.4086 6.53379 40.5036 6.54658 40.6066L6.8208 42.8297H14.051L14.3252 40.6066ZM19.5885 53.2478C19.729 53.2164 19.8484 53.1325 19.9253 53.0112C20.0024 52.89 20.0274 52.7459 19.996 52.6057L16.8018 39.4083L15.1516 40.8709L15.0563 41.6435C15.0622 41.6564 18.9331 52.7935 18.9331 52.7935C18.9384 52.8088 18.943 52.8247 18.9466 52.8405C18.9778 52.9805 19.0617 53.1001 19.1831 53.177C19.3044 53.2541 19.449 53.279 19.5885 53.2478Z" fill="#1C1B1A"/>
</svg>
