<svg width="68" height="75" viewBox="0 0 68 75" fill="none" xmlns="http://www.w3.org/2000/svg">
<path d="M13.1893 18.7443L12.2672 16.9888L11.0361 17.4016L11.1367 19.6539L13.1893 18.7443Z" fill="white"/>
<path d="M25.4265 41.0678H28.0766L28.1965 40.2754H24.9004L25.4265 41.0678Z" fill="#588AA3"/>
<path d="M14.2662 8.36389C14.5027 8.36389 14.6953 8.54245 14.722 8.77174H15.1767C15.2034 8.54245 15.3958 8.36389 15.6325 8.36389H18.0796C17.9687 6.32579 17.1041 4.30908 14.9494 4.30908C12.7948 4.30908 11.9302 6.32597 11.8193 8.36389H14.2662ZM13.993 5.12956H15.9057C16.1604 5.12956 16.3668 5.33597 16.3668 5.59071C16.3668 5.84545 16.1604 6.05187 15.9057 6.05187H13.993C13.7383 6.05187 13.5319 5.84545 13.5319 5.59071C13.5319 5.33597 13.7385 5.12956 13.993 5.12956ZM13.2419 6.62498H16.657C16.9117 6.62498 17.1182 6.8314 17.1182 7.08614C17.1182 7.34088 16.9117 7.54729 16.657 7.54729H13.2419C12.9872 7.54729 12.7807 7.34088 12.7807 7.08614C12.7807 6.8314 12.9872 6.62498 13.2419 6.62498Z" fill="#E0B489"/>
<path d="M19.4451 8.36367C19.6999 8.36367 19.9063 8.57008 19.9063 8.82482V9.43299C20.0721 8.95653 20.119 8.11834 19.6667 6.65722C19.3192 5.53515 18.618 4.83586 17.7656 4.68848C18.4904 5.55415 18.929 6.81641 19.0015 8.36367H19.4451Z" fill="#CCCCCC"/>
<path d="M16.093 10.0141C16.093 10.5262 16.5097 10.9429 17.0217 10.9429H18.0556C18.5677 10.9429 18.9844 10.5262 18.9844 10.0141V9.55132V9.28662H16.0928V10.0141H16.093ZM17.2128 9.78854C17.3844 9.61699 17.6943 9.61699 17.864 9.78854C17.9507 9.87542 18.0005 9.99329 18.0005 10.1152C18.0005 10.237 17.9507 10.355 17.864 10.4417C17.7791 10.5266 17.6592 10.5764 17.5393 10.5764C17.4176 10.5764 17.2993 10.5264 17.2128 10.4417C17.1261 10.355 17.0782 10.2371 17.0782 10.1152C17.0782 9.99347 17.1261 9.87542 17.2128 9.78854Z" fill="#D8D5D4"/>
<path d="M18.7607 19.6539L18.8612 17.4016L17.6301 16.9888L16.708 18.7443L18.7607 19.6539Z" fill="white"/>
<path d="M17.8551 20.2621L16.8429 19.8135L16.082 20.9014L16.3834 22.0379C17.3353 21.5813 17.714 20.7315 17.8551 20.2621Z" fill="white"/>
<path d="M18.9291 11.6455C18.6686 11.7855 18.3711 11.8654 18.0553 11.8654H17.0214C16.7416 11.8654 16.4772 11.8012 16.2393 11.6896C16.0205 12.1856 15.5247 12.5331 14.9484 12.5331C14.3725 12.5331 13.8765 12.1856 13.6578 11.6894C13.4198 11.801 13.1551 11.8654 12.8755 11.8654H11.8416C11.5258 11.8654 11.2282 11.7853 10.9678 11.6455C11.2627 13.6773 12.8146 15.0435 14.9486 15.0435C17.0825 15.0433 18.6343 13.6772 18.9291 11.6455ZM13.2438 13.2678C13.2438 13.0131 13.4502 12.8067 13.705 12.8067C13.849 12.8067 13.9778 12.8727 14.0625 12.9764C14.1907 13.0144 14.4969 13.0679 14.9484 13.0679C15.3998 13.0679 15.706 13.0144 15.8344 12.9764C15.9189 12.8727 16.0476 12.8067 16.1919 12.8067C16.4466 12.8067 16.653 13.0131 16.653 13.2678C16.653 13.4466 16.653 13.9902 14.9486 13.9902C13.2438 13.9904 13.2438 13.4466 13.2438 13.2678Z" fill="#E0B489"/>
<path d="M16.6951 15.6792C16.1589 15.8653 15.5723 15.9655 14.9484 15.9655C14.3248 15.9655 13.7384 15.8655 13.2021 15.6794V16.785L14.1045 18.5029H15.7927L16.6951 16.785V15.6792Z" fill="#E0B489"/>
<path d="M11.8409 10.9427H12.8748C13.3868 10.9427 13.8035 10.526 13.8035 10.0139V9.28662H10.9121V9.55132V10.0141C10.9121 10.526 11.3288 10.9427 11.8409 10.9427ZM12.0322 9.78835C12.2019 9.61681 12.5119 9.61681 12.6833 9.78835C12.77 9.87321 12.8198 9.99311 12.8198 10.115C12.8198 10.2368 12.7698 10.3548 12.6833 10.4415C12.5985 10.5264 12.4802 10.5762 12.3587 10.5762C12.2351 10.5762 12.1168 10.5262 12.032 10.4415C11.9453 10.3548 11.8955 10.237 11.8955 10.115C11.8957 9.99329 11.9456 9.87321 12.0322 9.78835Z" fill="#D8D5D4"/>
<path d="M14.6695 21.2729L14.3965 22.3021C14.5684 22.3281 14.7519 22.3434 14.9486 22.3458C15.1452 22.3432 15.3289 22.3279 15.5007 22.3021L15.2277 21.2729H14.6695Z" fill="#8C6239"/>
<path d="M15.9694 19.4253H13.9293L13.9131 19.4325L14.5556 20.3511H15.3432L15.9857 19.4325L15.9694 19.4253Z" fill="#8C6239"/>
<path d="M14.7261 9.69434V10.0138C14.7261 10.3621 14.6278 10.6867 14.46 10.9653V11.1221C14.46 11.3914 14.6791 11.6105 14.9482 11.6105C15.2175 11.6105 15.4367 11.3914 15.4367 11.1221V10.9658C15.2686 10.6871 15.1701 10.3623 15.1701 10.0138V9.69434H14.7261Z" fill="#C69C6D"/>
<path d="M10.2307 6.65722C9.77841 8.11778 9.8249 8.95579 9.99073 9.43243V8.82482C9.99073 8.57008 10.1971 8.36367 10.4519 8.36367H10.8953C10.968 6.81641 11.4065 5.55433 12.1312 4.68848C11.279 4.83586 10.5779 5.53515 10.2307 6.65722Z" fill="#CCCCCC"/>
<path d="M28.062 41.9907H25.7529L26.001 43.1086C26.004 43.1215 26.0062 43.1344 26.0079 43.1475C26.0512 43.4719 26.2443 43.7425 26.5114 43.9041C26.6808 43.084 27.2947 42.4255 28.0889 42.1899L28.062 41.9907Z" fill="#C69C6D"/>
<path d="M27.4355 44.0128C27.6508 43.9459 27.8393 43.8181 27.9773 43.6391C28.092 43.4901 28.1584 43.3172 28.1808 43.1372C27.8178 43.3016 27.5411 43.622 27.4355 44.0128Z" fill="#C69C6D"/>
<path d="M24.594 21.602C24.5832 21.496 24.2889 18.9445 20.976 18.1087C20.9646 18.1058 19.7709 17.7061 19.7709 17.7061L19.6522 20.3693C19.6455 20.5215 19.5638 20.6606 19.4343 20.7408C19.3603 20.7867 19.276 20.81 19.1916 20.81C19.1281 20.81 19.0645 20.7969 19.0047 20.7703L18.7108 20.6401C18.4163 21.5388 17.6705 22.661 16.2061 23.0905C16.2003 23.0923 15.665 23.2686 14.949 23.2686C14.2329 23.2686 13.6978 23.0923 13.692 23.0905C12.2276 22.661 11.4818 21.5388 11.1873 20.6401L10.8934 20.7703C10.8338 20.7969 10.77 20.81 10.7066 20.81C10.6219 20.81 10.5378 20.7867 10.4638 20.7408C10.3343 20.6606 10.2526 20.5217 10.246 20.3693L10.1273 17.7061C10.1273 17.7061 8.93351 18.1058 8.92226 18.1087C5.58279 18.9512 5.30665 21.5757 5.30444 21.602C5.30278 21.6186 0.954102 39.9028 0.954102 39.9028C3.16763 40.8251 4.31792 40.9783 4.36662 41.194L6.2201 35.7133L8.19623 25.995C8.24603 25.7509 8.48104 25.5923 8.72563 25.6321C8.97096 25.674 9.13882 25.9031 9.10506 26.1497C9.09252 26.241 7.91456 34.9666 8.94754 41.068H20.9511C21.9847 34.9644 20.8061 26.241 20.7936 26.1497C20.7595 25.9031 20.9277 25.674 21.173 25.6321C21.4173 25.5923 21.653 25.7509 21.7024 25.995L24.4188 39.3532H28.1705C28.1702 39.3532 24.5955 21.6186 24.594 21.602Z" fill="#588AA3"/>
<path d="M20.3345 72.1758H16.8604V74.0766H22.2001C22.1579 73.6743 22.0269 73.0774 21.6359 72.6646C21.3241 72.3355 20.8986 72.1758 20.3345 72.1758Z" fill="#4D4D4D"/>
<path d="M8.25863 72.6676C7.87163 73.0783 7.74104 73.6745 7.69824 74.0766H13.0371V72.1758H9.56296C8.99722 72.1758 8.57056 72.3366 8.25863 72.6676Z" fill="#4D4D4D"/>
<path d="M20.7881 41.9907H9.1084V49.2483V50.5096L9.10858 51.5241C9.10858 51.5241 9.10858 51.8008 9.10858 51.856V71.2545H13.6052L14.486 45.4914C14.4945 45.242 14.699 45.0459 14.9464 45.0459C14.9517 45.0459 14.9573 45.0459 14.9624 45.0463C15.2063 45.0546 15.3972 45.2511 15.4055 45.4912H15.4077L16.2917 71.2545H20.7883V41.9907H20.7881Z" fill="#736357"/>
<path d="M12.042 20.2619C12.1829 20.7315 12.5614 21.5812 13.5136 22.0379L13.815 20.9014L13.0541 19.8135L12.042 20.2619Z" fill="white"/>
<path d="M16.6524 13.2673C16.6524 13.0126 16.446 12.8062 16.1912 12.8062C16.0471 12.8062 15.9184 12.8722 15.8337 12.9759C15.7055 13.0139 15.3993 13.0673 14.9478 13.0673C14.4964 13.0673 14.1902 13.0139 14.0618 12.9759C13.9773 12.8722 13.8486 12.8062 13.7043 12.8062C13.4496 12.8062 13.2432 13.0126 13.2432 13.2673C13.2432 13.446 13.2432 13.9897 14.9476 13.9897C16.6524 13.9898 16.6524 13.446 16.6524 13.2673Z" fill="#1C1B1A"/>
<path d="M13.2414 7.5473H16.6565C16.9113 7.5473 17.1177 7.34089 17.1177 7.08615C17.1177 6.83141 16.9113 6.625 16.6565 6.625H13.2414C12.9867 6.625 12.7803 6.83141 12.7803 7.08615C12.7803 7.34089 12.9867 7.5473 13.2414 7.5473Z" fill="#1C1B1A"/>
<path d="M13.9924 6.05219H15.9051C16.1598 6.05219 16.3662 5.84577 16.3662 5.59103C16.3662 5.33629 16.1598 5.12988 15.9051 5.12988H13.9924C13.7377 5.12988 13.5312 5.33629 13.5312 5.59103C13.5312 5.84577 13.7378 6.05219 13.9924 6.05219Z" fill="#1C1B1A"/>
<path d="M12.3605 10.5762C12.482 10.5762 12.6003 10.5262 12.6851 10.4415C12.7718 10.3548 12.8216 10.2369 12.8216 10.115C12.8216 9.99326 12.7716 9.87318 12.6851 9.78833C12.5136 9.61678 12.2037 9.61678 12.034 9.78833C11.9473 9.87318 11.8975 9.99308 11.8975 10.115C11.8975 10.2368 11.9474 10.3548 12.034 10.4415C12.1186 10.5262 12.2369 10.5762 12.3605 10.5762Z" fill="#1C1B1A"/>
<path d="M17.5393 10.5762C17.659 10.5762 17.7791 10.5262 17.8639 10.4415C17.9506 10.3548 18.0004 10.2369 18.0004 10.115C18.0004 9.99326 17.9506 9.87521 17.8639 9.78833C17.6942 9.61678 17.3843 9.61678 17.2128 9.78833C17.1261 9.87521 17.0781 9.99308 17.0781 10.115C17.0781 10.2368 17.1261 10.3548 17.2128 10.4415C17.2993 10.5262 17.4175 10.5762 17.5393 10.5762Z" fill="#1C1B1A"/>
<path d="M4.42038 41.6554L1.03227 40.4564L0.768796 41.8401C0.559991 41.8796 0.598104 42.0772 0.76874 42.1167C0.750319 42.4435 0.799637 42.9222 1.0316 43.1311C1.41434 44.4224 2.79779 44.7914 3.68254 43.7767L4.42038 41.6554Z" fill="#C69C6D"/>
<path fill-rule="evenodd" clip-rule="evenodd" d="M29.0102 42.1142L28.935 41.5591L29.1934 39.8097C29.1932 39.7809 25.5088 21.4902 25.5088 21.4902C25.4686 21.1445 25.0159 18.1859 21.2181 17.2192L17.617 16.0119V15.2445C19.0237 14.3864 19.9062 12.8283 19.9062 10.9315V10.8289C20.1124 10.7155 20.3658 10.5181 20.573 10.177C21.0775 9.34584 21.069 8.07011 20.5475 6.38524C19.9527 4.46372 18.3949 3.43738 16.7163 3.82216C16.1974 3.5392 15.6038 3.38721 14.9479 3.38721C14.2919 3.38721 13.6985 3.53902 13.1795 3.82216C11.5009 3.4372 9.94327 4.4639 9.34857 6.38524C8.8271 8.07011 8.81861 9.34584 9.32293 10.177C9.53008 10.5183 9.78353 10.7155 9.98976 10.8289V10.9315C9.98976 12.8285 10.8722 14.3864 12.2793 15.2447V16.0119L8.67824 17.2192C4.8802 18.1859 4.42753 21.1449 4.38751 21.4902L1.29935 35.6344L0.931206 37.3206L0.504844 39.2734L0.253557 40.4243C0.253557 40.4243 0.190765 40.7424 0.148058 41.1942C0.0820454 41.8927 0.0640165 42.911 0.400019 43.5686C0.739323 44.2328 1.06692 44.6922 1.78347 44.9757C2.47342 45.2487 3.09749 45.2865 3.68291 44.9302C4.36592 44.5145 4.64261 43.7767 4.64261 43.7767L7.50175 33.4871C7.4335 36.1457 7.63327 39.1017 8.10863 41.6202L8.10904 41.6226L8.10937 41.6244C8.13408 41.7545 8.15972 41.8834 8.18628 42.0112V45.0572L8.1861 52.3958V71.5747C7.96401 71.695 7.76332 71.8483 7.58642 72.0359C6.67555 73.0023 6.75358 74.5025 6.75727 74.5659C6.77184 74.8094 6.97364 74.9998 7.21769 74.9998H13.4973C13.752 74.9998 13.9584 74.7934 13.9584 74.5386V72.1766H14.0507C14.2993 72.1766 14.503 71.9796 14.5116 71.7311L14.9475 58.982L15.3849 71.7313C15.3935 71.9798 15.5972 72.1766 15.8458 72.1766H15.9381V74.5386C15.9381 74.7934 16.1445 74.9998 16.3992 74.9998H22.6788C22.9228 74.9998 23.1246 74.8096 23.1392 74.5659C23.1429 74.5025 23.2207 73.0023 22.3101 72.0359C22.1332 71.8483 21.9325 71.695 21.7104 71.5747V42.0112C21.7371 41.8836 21.7626 41.7545 21.7873 41.6244L21.7876 41.6226L21.788 41.6202C22.2634 39.1019 22.3516 36.1459 22.2835 33.4871C22.2835 33.4871 23.6428 40.0489 23.6564 40.0698L24.7472 41.7131L25.0971 43.2903C25.2393 44.2727 26.1039 44.9892 27.094 44.989C27.1798 44.989 27.2669 44.9836 27.3541 44.9726C27.8972 44.9039 28.3779 44.6304 28.7075 44.2021C28.9619 43.8715 29.0993 43.4793 29.1113 43.073L29.0102 42.1142ZM18.8607 17.4012L17.6296 16.9886L16.7074 18.7439L18.7601 19.6535L18.8607 17.4012ZM14.5546 20.3511H15.3422L15.9847 19.4327L15.9685 19.4255H13.9284L13.9121 19.4327L14.5546 20.3511ZM14.9484 22.3462C15.1451 22.3439 15.3286 22.3285 15.5005 22.3025L15.2277 21.2734H14.6693L14.3963 22.3025C14.5683 22.3284 14.7518 22.3437 14.9484 22.3462ZM14.1043 18.503H15.7925L16.6949 16.7851V15.6793C16.1587 15.8654 15.5721 15.9656 14.9482 15.9656C14.3246 15.9656 13.7382 15.8656 13.202 15.6795V16.7851L14.1043 18.503ZM13.5126 22.0376L13.814 20.9012L13.0529 19.8131L12.041 20.2617C12.1819 20.7313 12.5606 21.5809 13.5126 22.0376ZM17.8561 20.2618L16.8439 19.8132L16.0829 20.9014L16.3843 22.0378C17.3365 21.5811 17.715 20.7315 17.8561 20.2618ZM18.9841 10.0141V9.55133L18.9842 9.28681H16.0926V10.0141C16.0926 10.5262 16.5093 10.9429 17.0214 10.9429H18.0553C18.5674 10.9429 18.9841 10.5262 18.9841 10.0141ZM19.9064 9.43364C20.0722 8.95718 20.119 8.11899 19.6667 6.65788C19.3192 5.5358 18.6183 4.83651 17.7659 4.68913C18.4906 5.55499 18.9293 6.81707 19.0018 8.36432H19.4452C19.6999 8.36432 19.9064 8.57073 19.9064 8.82547V9.43364ZM18.0784 8.36432C17.9675 6.3264 17.1029 4.30951 14.9482 4.30951C12.7937 4.30951 11.929 6.3264 11.8181 8.36432H14.265C14.5017 8.36432 14.6941 8.54288 14.7208 8.77216H15.1755C15.2022 8.54288 15.3948 8.36432 15.6313 8.36432H18.0784ZM15.4369 11.1224V10.9661C15.2687 10.6874 15.1701 10.3624 15.1701 10.0141V9.69465H14.7263V10.0141C14.7263 10.3622 14.628 10.687 14.4602 10.9656V11.1224C14.4602 11.3917 14.6793 11.6108 14.9484 11.6108C15.2176 11.6108 15.4369 11.3917 15.4369 11.1224ZM9.99012 8.82547C9.99012 8.57073 10.1965 8.36432 10.4513 8.36432H10.8949C10.9674 6.81707 11.406 5.5548 12.1308 4.68913C11.2784 4.83651 10.5773 5.5358 10.2301 6.65788C9.77781 8.11844 9.82429 8.95644 9.99012 9.43309V8.82547ZM10.9124 9.28662V9.55133L10.9126 10.014C10.9126 10.526 11.3293 10.9427 11.8414 10.9427H12.8753C13.3873 10.9427 13.804 10.526 13.804 10.014V9.28662H10.9124ZM11.8412 11.8652C11.5254 11.8652 11.2279 11.7853 10.9674 11.6453C11.2624 13.677 12.8142 15.0431 14.9479 15.0433C17.0819 15.0433 18.6338 13.6772 18.9287 11.6453C18.6683 11.7851 18.3707 11.8652 18.0549 11.8652H17.021C16.7414 11.8652 16.4769 11.801 16.2389 11.6894C16.0201 12.1854 15.5243 12.5329 14.9481 12.5329C14.3722 12.5329 13.8762 12.1854 13.6574 11.6892C13.4194 11.8008 13.1549 11.8652 12.8751 11.8652H11.8412ZM13.1894 18.7441L12.2673 16.9886L11.0362 17.4014L11.1367 19.6537L13.1894 18.7441ZM7.69746 74.0775H13.0363V72.1766H9.56218C8.99644 72.1766 8.56978 72.3375 8.25786 72.6684C7.87104 73.0792 7.74026 73.6754 7.69746 74.0775ZM15.4077 45.4911L16.2917 71.2543H20.7881V41.9906H9.1084V49.2482L9.10859 50.5095C9.10859 50.5095 9.10835 51.0021 9.1084 51.3396L9.10859 51.8559V71.2543H13.6052L14.486 45.4913C14.4945 45.2421 14.699 45.0458 14.9464 45.0458C14.9517 45.0458 14.9573 45.0458 14.9624 45.0462C15.2063 45.0545 15.3972 45.2509 15.4055 45.4911H15.4077ZM16.8607 74.0775H22.2005C22.1581 73.6752 22.0273 73.0783 21.6364 72.6653C21.3245 72.3364 20.8989 72.1766 20.3349 72.1766H16.8607V74.0775ZM24.4177 39.3535L21.7013 25.9952C21.6517 25.7512 21.4162 25.5926 21.1719 25.6324C20.9266 25.6743 20.7586 25.9034 20.7925 26.15C20.805 26.2413 21.9836 34.9646 20.95 41.0683H8.94645C7.91347 34.9669 9.09143 26.2413 9.10398 26.15C9.13792 25.9034 8.96987 25.6743 8.72454 25.6324C8.47994 25.5926 8.24494 25.7512 8.19514 25.9952L5.05963 38.0089C4.99571 38.2699 4.93172 38.5324 4.86776 38.7963C4.69081 39.4172 4.5042 40.1234 4.31466 40.9176L4.30161 40.9132L4.12933 41.6525L4.13855 41.6554L3.72031 43.4078C3.71523 43.4277 3.71155 43.447 3.7078 43.4665C3.70173 43.4982 3.6955 43.5308 3.68291 43.5686C3.59693 43.8269 3.38154 43.9576 3.1883 44.0749C3.1491 44.0987 3.11081 44.122 3.0747 44.1456C2.68295 44.4021 2.29 44.2745 1.8757 44.0534C1.5005 43.8531 1.3956 43.6441 1.19186 43.2383L1.13786 43.1311C0.912205 42.6855 0.934153 41.9995 0.99994 41.4709C1.05406 41.0361 1.13786 40.7078 1.13786 40.7078L4.12933 41.6525L4.30161 40.9132L1.29935 39.903C1.33572 39.7218 1.38046 39.5399 1.42992 39.339C1.48243 39.1256 1.54025 38.8906 1.59901 38.6118C1.61995 38.5125 1.63827 38.389 1.65705 38.2626C1.67703 38.128 1.69753 37.9899 1.72221 37.874C2.87558 32.4551 5.30222 21.6151 5.30335 21.6023C5.30575 21.5758 5.58189 18.9514 8.92118 18.109C8.93243 18.1061 10.1263 17.7063 10.1263 17.7063L10.2449 20.3696C10.2515 20.5217 10.3332 20.6608 10.4627 20.7411C10.5367 20.787 10.6208 20.8102 10.7055 20.8102C10.7689 20.8102 10.8326 20.7971 10.8923 20.7706L11.1862 20.6404C11.4808 21.539 12.2265 22.6613 13.691 23.0907C13.7056 23.0955 14.2381 23.2689 14.9479 23.2689C15.6526 23.2689 16.1827 23.0979 16.205 23.0907C17.6694 22.6613 18.4152 21.539 18.7098 20.6404L19.0036 20.7706C19.0632 20.7971 19.127 20.8102 19.1905 20.8102C19.275 20.8102 19.3592 20.787 19.4332 20.7411C19.5627 20.6608 19.6444 20.5219 19.6511 20.3696L19.7699 17.7063C19.7699 17.7063 20.9637 18.1061 20.9749 18.109C24.2878 18.9448 24.5822 21.4963 24.5929 21.6023C24.5944 21.6189 28.1691 39.3535 28.1691 39.3535H24.4177ZM26.0087 43.1471C26.052 43.4716 26.2452 43.7422 26.5123 43.9038C26.6816 43.0837 27.2955 42.4253 28.0898 42.1894L28.0628 41.9904H25.7538L26.0019 43.1082C26.0033 43.1148 26.0046 43.1213 26.0057 43.1279C26.0069 43.1343 26.0079 43.1407 26.0087 43.1471ZM27.4353 44.0134C27.6506 43.9464 27.8391 43.8188 27.9771 43.6396C28.0918 43.4906 28.1582 43.3178 28.1805 43.1377C27.8173 43.3021 27.5406 43.6225 27.4353 44.0134ZM25.4263 41.0683H28.0765L28.1964 40.2758H24.9003L25.4263 41.0683Z" fill="#1C1B1A"/>
<path fill-rule="evenodd" clip-rule="evenodd" d="M8.19514 25.9952L5.05963 38.0089C6.64844 31.5212 8.19514 25.9952 8.19514 25.9952Z" fill="#1C1B1A"/>
<path d="M1.59901 38.6118L4.64261 39.6066L4.85509 38.7925L1.72221 37.874C1.69753 37.9899 1.67703 38.128 1.65705 38.2626C1.63827 38.389 1.61995 38.5125 1.59901 38.6118Z" fill="#1C1B1A"/>
<path d="M53.4455 40.0103H60.2917C60.2664 38.9612 60.0141 36.0849 58.1628 32.9207C57.4425 31.6894 57.8617 30.697 58.2673 29.7373C58.7372 28.6254 59.223 27.4757 58.3424 25.5411C58.2659 25.3732 58.2997 25.1756 58.4279 25.0427L60.7576 22.6235C60.1768 21.8661 59.3026 21.1254 58.0106 20.8217L56.4889 20.4565L53.4453 29.2513V40.0103H53.4455Z" fill="#C4806E"/>
<path d="M51.782 9.92773C51.3244 10.6637 50.5577 11.1557 50 11.438H52.306C52.55 11.438 52.7476 11.6325 52.7546 11.8749H53.2354C53.2425 11.6325 53.44 11.438 53.684 11.438H54.1762C52.9011 11.083 52.1828 10.4845 51.782 9.92773Z" fill="#E0B489"/>
<path d="M40.1124 43.1522C40.8164 43.5227 41.2981 44.2606 41.2981 45.1098C41.2981 45.3583 41.0967 45.5597 40.8482 45.5597C40.5997 45.5597 40.3984 45.3583 40.3984 45.1098C40.3984 44.6961 40.2055 44.3272 39.9055 44.0864L39.8198 44.4732C39.7567 44.7528 39.8058 45.0382 39.9578 45.279C40.1099 45.5195 40.3465 45.6867 40.6244 45.7495C40.902 45.812 41.1862 45.7609 41.4282 45.611C41.7991 45.3812 41.9029 44.9279 41.9052 44.9194L42.304 43.5301L40.1864 42.8184L40.1124 43.1522Z" fill="#C69C6D"/>
<path d="M54.5545 23.296L55.6099 20.2463L54.7255 20.0341C54.5232 19.9855 54.3805 19.8047 54.3805 19.5966V17.9017C53.9458 18.0846 53.4804 18.1851 52.9957 18.1851C52.5107 18.1851 52.0448 18.0844 51.6101 17.9014V19.5965C51.6101 19.8045 51.4676 19.9853 51.2653 20.0339L50.3809 20.2461L51.4364 23.2958H54.5545V23.296Z" fill="#E0B489"/>
<path d="M52.9957 17.2851C54.47 17.2851 55.7253 16.0645 56.1815 14.3707C56.0221 14.4245 55.8518 14.4549 55.6744 14.4549H54.8256C53.9482 14.4549 53.2345 13.7412 53.2345 12.864V12.7749H52.7564V12.864C52.7564 13.7412 52.0429 14.4549 51.1656 14.4549H50.3167C50.1392 14.4549 49.969 14.4243 49.8096 14.3707C50.2657 16.0643 51.5212 17.2851 52.9957 17.2851ZM51.7827 14.6181C51.9966 14.6181 52.1759 14.7676 52.2214 14.9677C52.3101 15.0253 52.5739 15.1279 52.9957 15.1279C53.4175 15.1279 53.6813 15.0253 53.77 14.9677C53.8155 14.7676 53.9948 14.6181 54.2087 14.6181C54.4572 14.6181 54.6586 14.8195 54.6586 15.068C54.6586 15.633 53.9748 16.0276 52.9959 16.0276C52.017 16.0276 51.3332 15.633 51.3332 15.068C51.3328 14.8195 51.5342 14.6181 51.7827 14.6181Z" fill="#E0B489"/>
<path d="M51.748 24.1953L52.996 27.8007L54.2437 24.1953H51.748Z" fill="#96564A"/>
<path d="M44.7297 23.3994C44.343 24.1093 44.201 24.6947 44.1882 24.7501L40.3818 41.9346L42.5522 42.664L46.4777 28.9873C46.2001 28.0633 46.098 26.9404 46.7061 25.4519L44.7297 23.3994Z" fill="#C4806E"/>
<path d="M51.2712 8.59481C51.2712 8.34954 51.4677 8.14926 51.7129 8.14494C51.9558 8.13486 52.1619 8.33352 52.1705 8.57879C52.1757 8.66319 52.3505 10.7049 56.3651 10.8468C56.3651 10.8468 56.3636 9.95466 56.3636 9.94981C56.3636 8.21962 54.8841 6.86426 52.9952 6.86426C51.1063 6.86426 49.6268 8.21962 49.6268 9.94981C49.6268 9.95574 49.625 10.6181 49.625 10.6181C50.2881 10.2773 51.2712 9.60215 51.2712 8.59481Z" fill="#CCCCCC"/>
<path d="M50.3162 13.5555H51.1652C51.5461 13.5555 51.8562 13.2455 51.8562 12.8644V12.3384H49.625V12.8644C49.625 13.2453 49.9352 13.5555 50.3162 13.5555ZM50.4231 12.6288C50.5904 12.4615 50.8909 12.4615 51.0583 12.6288C51.1429 12.7116 51.1896 12.8286 51.1896 12.9473C51.1896 13.0661 51.1429 13.1813 51.0583 13.264C50.9755 13.3486 50.8585 13.3972 50.7416 13.3972C50.6228 13.3972 50.5058 13.3486 50.4231 13.264C50.3385 13.1813 50.2899 13.0643 50.2899 12.9473C50.2899 12.8286 50.3385 12.7116 50.4231 12.6288Z" fill="#D8D5D4"/>
<path d="M52.9958 5.96493C53.6699 5.96493 54.3027 6.10385 54.8642 6.35326C54.9273 6.15819 54.9635 5.95467 54.9635 5.74737C54.9635 4.6623 54.0807 3.7793 52.9956 3.7793C51.9103 3.7793 51.0273 4.66212 51.0273 5.74737C51.0273 5.95449 51.0637 6.15837 51.1269 6.35344C51.6886 6.10403 52.3215 5.96493 52.9958 5.96493Z" fill="#CCCCCC"/>
<path d="M54.1338 12.8644C54.1338 13.2455 54.444 13.5555 54.8251 13.5555H55.674C56.0551 13.5555 56.3651 13.2455 56.3651 12.8644V12.3384H54.1338V12.8644ZM54.9308 12.6288C55.0999 12.4615 55.4004 12.4615 55.5678 12.6288C55.6506 12.7134 55.6991 12.8286 55.6991 12.9473C55.6991 13.0643 55.6506 13.1812 55.5678 13.2658C55.4832 13.3488 55.368 13.3972 55.2493 13.3972C55.1305 13.3972 55.0153 13.3486 54.9308 13.2658C54.848 13.1812 54.7994 13.0643 54.7994 12.9473C54.7994 12.8286 54.848 12.7134 54.9308 12.6288Z" fill="#D8D5D4"/>
<path d="M52.5454 29.2513L49.5014 20.4565L47.9819 20.8211C46.689 21.125 45.8144 21.8659 45.2334 22.6236L47.5628 25.0427C47.6908 25.1755 47.7246 25.373 47.6483 25.5411C46.7676 27.4757 47.2535 28.6256 47.7233 29.7373C48.1289 30.697 48.5482 31.6895 47.8279 32.9207C45.9701 36.0959 45.7214 38.9635 45.698 40.0103H52.5455V29.2513H52.5454Z" fill="#C4806E"/>
<path d="M62.5402 28.0877C62.5402 28.0872 62.5401 28.0867 62.5401 28.0863L61.8005 24.7472C61.7881 24.6931 61.6463 24.1088 61.2599 23.3994L59.2832 25.4519C59.8884 26.9339 59.7901 28.0539 59.5152 28.9756L61.4069 35.5768C61.4201 35.6075 61.4291 35.6405 61.435 35.6745L61.5664 36.1332C61.5741 36.154 61.5802 36.1751 61.5847 36.1969L63.4551 42.7228L65.6098 41.9436L62.5402 28.0877Z" fill="#C4806E"/>
<path d="M64.56 45.6102C64.8007 45.7624 65.0863 45.8114 65.3638 45.7487C65.9373 45.6194 66.2984 45.0477 66.169 44.4744L65.8046 42.8291L63.7021 43.5894C63.7021 43.5894 64.0878 44.9356 64.0896 44.944C64.1522 45.2215 64.3194 45.4581 64.56 45.6102Z" fill="#C69C6D"/>
<path d="M60.5664 36.2021C60.5795 36.2462 60.5916 36.2892 60.6042 36.333L60.6596 36.2344L60.6504 36.2023H60.5664V36.2021Z" fill="#C69C6D"/>
<path d="M48.4502 74.0965H52.546V72.52H50.2214C50.0532 72.5292 48.8517 72.6453 48.4502 74.0965Z" fill="#998675"/>
<path d="M50.583 71.6204H52.5455V58.1221H48.8633C49.1393 61.5427 49.6547 66.4892 50.583 71.6204Z" fill="#E0B489"/>
<path d="M45.6545 40.9102C45.5456 42.1793 45.3666 46.8335 47.0937 57.2221H52.9956H58.8971C60.6302 46.7966 60.4479 42.1719 60.3371 40.9102H45.6545Z" fill="#96564A"/>
<path d="M53.4453 72.52V74.0965H57.5407C57.1389 72.6438 55.9352 72.529 55.769 72.52H53.4453Z" fill="#998675"/>
<path d="M53.4453 71.6204H55.4075C56.3358 66.4892 56.8512 61.5427 57.1274 58.1221H53.4453V71.6204Z" fill="#E0B489"/>
<path fill-rule="evenodd" clip-rule="evenodd" d="M58.9971 20.1896C58.7524 20.0942 58.4943 20.0109 58.2179 19.946L55.2798 19.2409V17.3706C56.4717 16.4436 57.2646 14.8157 57.2646 12.9646C57.2646 12.9646 57.263 9.93714 57.2628 9.93084C57.2567 8.65178 56.6358 7.53359 55.6562 6.81326C55.7912 6.47568 55.8626 6.11381 55.8626 5.74672C55.8626 4.16535 54.5764 2.87891 52.995 2.87891C51.4136 2.87891 50.127 4.16535 50.127 5.74672C50.127 6.11381 50.1984 6.47568 50.3336 6.81344C49.3554 7.53305 48.7349 8.64908 48.7274 9.92616C48.7268 9.93408 48.725 12.9646 48.725 12.9646C48.725 14.8155 49.5179 16.4433 50.7095 17.3702V19.2409L47.7735 19.9454C44.2035 20.7847 43.3462 24.396 43.3111 24.5515L39.2461 42.9046L39.0482 43.7981L38.9426 44.2753C38.8269 44.7874 38.9176 45.3139 39.1979 45.7579C39.4785 46.2018 39.9148 46.5099 40.427 46.6256C40.5722 46.6583 40.7185 46.6745 40.8635 46.6745C41.2308 46.6745 41.5912 46.5711 41.9094 46.3701C42.3493 46.0922 42.656 45.6609 42.774 45.1545L47.0153 30.3771C47.3222 31.1253 47.4884 31.7179 47.0508 32.4657C44.7111 36.4645 44.7784 39.9571 44.8 40.436C44.7198 40.981 44.1961 45.4392 46.2689 57.7459C46.3055 57.9626 46.493 58.1211 46.7125 58.1211H47.9602C48.2352 61.5473 48.7509 66.5253 49.6832 71.6995C48.8226 71.9266 47.6788 72.6786 47.4584 74.491C47.4429 74.619 47.4829 74.7473 47.5681 74.8437C47.6536 74.9402 47.7762 74.9953 47.905 74.9953H58.085C58.2138 74.9953 58.3363 74.94 58.4218 74.8437C58.5071 74.7473 58.5471 74.619 58.5316 74.491C58.3111 72.6786 57.1674 71.9266 56.3067 71.6995C57.239 66.5253 57.7548 61.5473 58.0297 58.1211H59.2775C59.4972 58.1211 59.6847 57.9626 59.721 57.7459C61.7947 45.4331 61.2693 40.9767 61.1896 40.4351C61.2009 40.1851 61.2229 39.1281 60.9173 37.6108L61.0076 37.4499L63.2156 45.1542C63.3174 45.592 63.5611 45.9733 63.9095 46.2484L64.8094 46.6459C64.9139 46.6632 65.0196 46.6745 65.1263 46.6745C65.2715 46.6743 65.4178 46.6583 65.5628 46.6256C66.62 46.387 67.2862 45.3327 67.0481 44.2773L65.5666 37.589L65.3672 36.6893L65.2117 35.9873L65.0124 35.0878L64.8094 34.1711L63.9096 30.109L63.4402 27.9892L62.9556 25.802L62.6781 24.5494C62.6493 24.4227 62.0562 21.9313 59.8337 20.5988L58.9971 20.1896ZM60.757 22.623C60.1761 21.8656 59.3018 21.125 58.0099 20.8212L56.4885 20.4559L53.4448 29.2506V40.0097H60.2909C60.2655 38.9606 60.0133 36.0843 58.162 32.9201C57.4416 31.6889 57.8609 30.6963 58.2665 29.7367C58.7364 28.625 59.2222 27.4751 58.3416 25.5405C58.2653 25.3726 58.2991 25.175 58.427 25.042L60.757 22.623ZM60.392 35.3019L58.978 30.3679C58.6689 31.1205 58.4994 31.7148 58.9386 32.4659C59.5175 33.4551 59.9474 34.4124 60.2688 35.3019H60.392ZM51.747 24.1947L52.995 27.7999L54.2426 24.1947H51.747ZM55.6738 13.5544C56.055 13.5544 56.365 13.2444 56.365 12.8633L56.3648 12.3373H54.1337V12.8633C54.1337 13.2444 54.4439 13.5544 54.825 13.5544H55.6738ZM53.2352 11.8744C53.2422 11.6321 53.4398 11.4375 53.6838 11.4375H54.176C52.901 11.0825 52.1827 10.484 51.782 9.92724C51.3244 10.6632 50.5576 11.1552 49.9999 11.4375H52.3058C52.5498 11.4375 52.7474 11.6321 52.7544 11.8744H53.2352ZM54.9631 5.74672C54.9631 4.66146 54.0802 3.77864 52.9952 3.77864C51.9099 3.77864 51.0269 4.66146 51.0271 5.74672C51.0271 5.95402 51.0634 6.15772 51.1266 6.35278C51.6882 6.10337 52.3211 5.96427 52.9953 5.96427C53.6692 5.96427 54.3023 6.10319 54.8637 6.3526C54.9267 6.15772 54.9631 5.95402 54.9631 5.74672ZM52.9952 6.86401C51.1063 6.86401 49.6267 8.21936 49.6267 9.94955C49.6267 9.95549 49.6249 10.6179 49.6253 10.6181C50.288 10.2772 51.2711 9.60208 51.2711 8.59455C51.2711 8.34911 51.4676 8.14901 51.7129 8.14469C51.9558 8.13461 52.1618 8.33327 52.1705 8.57854C52.1757 8.66293 52.3502 10.7044 56.365 10.8466L56.3636 9.94955C56.3636 8.21936 54.8841 6.86401 52.9952 6.86401ZM51.8559 12.3373H49.6249L49.6248 12.8633C49.6248 13.2444 49.9348 13.5544 50.3159 13.5544H51.1649C51.5459 13.5544 51.8559 13.2444 51.8559 12.8633V12.3373ZM50.3161 14.454C50.1387 14.454 49.9685 14.4236 49.809 14.3698C50.2652 16.0636 51.5207 17.2844 52.9952 17.2842C54.4695 17.2842 55.725 16.0636 56.1809 14.3698C56.0215 14.4234 55.8513 14.454 55.6738 14.454H54.825C53.9476 14.454 53.2339 13.7403 53.2339 12.8631V12.774H52.7558V12.8631C52.7558 13.7403 52.0422 14.454 51.1651 14.454H50.3161ZM51.6094 19.5954C51.6094 19.8034 51.4669 19.9843 51.2646 20.0329L50.3802 20.2452L51.4357 23.2949H54.5539L55.6092 20.2452L54.7248 20.033C54.5225 19.9845 54.3798 19.8036 54.3798 19.5956V17.9007C53.9453 18.0833 53.4798 18.1841 52.995 18.1841C52.51 18.1841 52.0443 18.0833 51.6094 17.9003V19.5954ZM41.4287 45.6094C41.7889 45.3862 41.8972 44.952 41.9053 44.9197C41.9055 44.9187 41.9058 44.9179 41.9058 44.9179L42.3045 43.5285L40.1869 42.8168L40.113 43.1506C40.8169 43.5211 41.2986 44.2589 41.2986 45.1083C41.2986 45.3568 41.0973 45.5581 40.8488 45.5581C40.6002 45.5581 40.3989 45.3568 40.3989 45.1083C40.3989 44.6946 40.206 44.3257 39.906 44.0849L39.8204 44.4716C39.7572 44.7513 39.8063 45.0366 39.9584 45.2774C40.1104 45.5182 40.3472 45.6852 40.6249 45.748C40.9026 45.8106 41.1867 45.7593 41.4287 45.6094ZM42.553 42.6628L46.4786 28.9861C46.2009 28.0621 46.0989 26.9392 46.7069 25.4507L44.7306 23.3982C44.3437 24.1081 44.2019 24.6935 44.1891 24.7489L40.3827 41.9335L42.553 42.6628ZM47.7229 29.7369C48.1285 30.6965 48.5478 31.6889 47.8274 32.9203C45.9695 36.0956 45.721 38.9631 45.6976 40.0098H52.5451V29.2508L49.5011 20.4561L47.9817 20.8207C46.6889 21.1246 45.8142 21.8654 45.2332 22.6232L47.5624 25.0422C47.6905 25.1752 47.7243 25.3728 47.6479 25.5407C46.7672 27.4753 47.2531 28.625 47.7229 29.7369ZM48.4495 74.0957H52.5453V72.5192H50.2207C50.0525 72.5284 48.8508 72.6444 48.4495 74.0957ZM50.5828 71.6196H52.5453L52.5451 58.1213H48.8629C49.1391 61.5419 49.6544 66.4885 50.5828 71.6196ZM53.445 74.0957H57.5404C57.1386 72.643 55.9349 72.5282 55.7687 72.5192H53.445V74.0957ZM53.445 71.6196H55.4072C56.3355 66.4885 56.8509 61.5419 57.1269 58.1213H53.445V71.6196ZM52.9952 57.2216H58.8967C60.6298 46.7962 60.4475 42.1714 60.3366 40.9096H45.6541C45.5452 42.1787 45.3663 46.8329 47.0933 57.2216H52.9952ZM60.5661 36.2016C60.5792 36.2457 60.5913 36.2889 60.6038 36.3324L60.6593 36.2337L60.6501 36.2016H60.5661ZM61.5658 36.132C61.5736 36.1529 61.5797 36.1739 61.5842 36.1957L63.4542 42.7216L65.6089 41.9425L62.5397 28.0866C62.5397 28.086 62.5397 28.0855 62.5395 28.0851L61.8 24.746C61.7875 24.6919 61.6457 24.1076 61.2594 23.3982L59.2827 25.4507C59.888 26.9328 59.7896 28.0526 59.5146 28.9744L61.4064 35.5756C61.4197 35.6064 61.4285 35.6393 61.4345 35.6733L61.5658 36.132ZM65.8054 42.8282L63.7029 43.5884C63.7029 43.5884 64.0885 44.9346 64.0903 44.9429C64.1529 45.2206 64.3199 45.4572 64.5607 45.6092C64.8015 45.7613 65.087 45.8102 65.3645 45.7478C65.938 45.6184 66.2992 45.0467 66.1698 44.4734L65.8054 42.8282Z" fill="#1C1B1A"/>
<path fill-rule="evenodd" clip-rule="evenodd" d="M60.6038 36.3324C60.5913 36.2889 60.5792 36.2457 60.5661 36.2016H60.6501L60.6593 36.2337L60.6038 36.3324Z" fill="#1C1B1A"/>
<path d="M52.9951 16.0277C53.974 16.0277 54.6578 15.6331 54.6578 15.068C54.6578 14.8195 54.4564 14.6182 54.2079 14.6182C53.994 14.6182 53.8148 14.7677 53.7692 14.9678C53.6805 15.0254 53.4167 15.128 52.9949 15.128C52.5731 15.128 52.3093 15.0254 52.2206 14.9678C52.1751 14.7677 51.9959 14.6182 51.7819 14.6182C51.5334 14.6182 51.332 14.8195 51.332 15.068C51.3324 15.6331 52.0162 16.0277 52.9951 16.0277Z" fill="#1C1B1A"/>
<path d="M50.7417 13.3968C50.8587 13.3968 50.9756 13.3482 51.0584 13.2637C51.143 13.1809 51.1898 13.0657 51.1898 12.9469C51.1898 12.8282 51.143 12.7112 51.0584 12.6284C50.8911 12.4611 50.5905 12.4611 50.4232 12.6284C50.3386 12.7112 50.29 12.8282 50.29 12.9469C50.29 13.0639 50.3386 13.1809 50.4232 13.2637C50.506 13.3482 50.6229 13.3968 50.7417 13.3968Z" fill="#1C1B1A"/>
<path d="M55.2487 13.3968C55.3675 13.3968 55.4826 13.3482 55.5672 13.2655C55.65 13.1809 55.6986 13.0639 55.6986 12.9469C55.6986 12.8282 55.65 12.713 55.5672 12.6284C55.3998 12.4611 55.0993 12.4611 54.9302 12.6284C54.8474 12.713 54.7988 12.8282 54.7988 12.9469C54.7988 13.0639 54.8474 13.1809 54.9302 13.2655C55.0148 13.3482 55.1299 13.3968 55.2487 13.3968Z" fill="#1C1B1A"/>
<path d="M36.3553 13.6509C35.7726 13.9628 35.0767 14.111 34.2506 14.1114C34.2506 14.1114 34.2504 14.1114 34.2503 14.1114C34.2501 14.1114 34.2498 14.1114 34.2494 14.1114C34.2493 14.1114 34.2489 14.1114 34.2486 14.1114C34.2486 14.1114 34.2484 14.1114 34.2483 14.1114C33.4224 14.111 32.7263 13.9627 32.1436 13.6509V14.3235L33.3268 16.6305H35.1719L36.3553 14.3235V13.6509Z" fill="#E5CBBD"/>
<path d="M32.8281 33.6331L34.2509 35.425L35.6739 33.6331L34.6957 19.7637H33.8063L32.8281 33.6331Z" fill="white"/>
<path d="M37.1529 14.6185L36.0166 16.834L38.1117 17.6749L37.9685 14.9608L37.1688 14.5762C37.1634 14.5902 37.1598 14.605 37.1529 14.6185Z" fill="#67BAB2"/>
<path d="M35.3495 17.4736H33.1622L32.9727 17.56L33.6707 18.9204H34.831L35.5352 17.5482L35.3495 17.4736Z" fill="white"/>
<path d="M34.2506 13.2683C35.7142 13.2683 36.488 12.5151 36.5007 12.5041C37.0839 11.937 37.5287 10.9843 37.8068 9.42529C37.8069 9.42428 37.8068 9.42327 37.8068 9.42226C37.8388 9.13965 37.6911 7.84719 37.5216 6.99381C37.4267 7.068 37.3207 7.14 37.2068 7.20509C37.3083 7.28198 37.3748 7.40271 37.3748 7.5398C37.3748 7.77266 37.1861 7.96134 36.9532 7.96134H35.6468C35.4139 7.96134 35.2252 7.77266 35.2252 7.5398C35.2252 7.37135 35.3247 7.22735 35.4674 7.15973C35.1841 6.95368 34.9296 6.64342 34.7079 6.22288C34.2518 5.35669 33.6898 4.81896 33.0377 4.62421C32.3727 4.42507 31.7807 4.64208 31.592 4.72487C31.3657 5.06245 30.7024 6.794 30.6963 9.43423C30.9743 10.9879 31.4185 11.9382 32.0006 12.5041C32.0134 12.5151 32.787 13.2683 34.2506 13.2683ZM35.9506 8.39807C36.1074 8.24125 36.3907 8.24125 36.5475 8.39807C36.6251 8.47732 36.6705 8.58523 36.6705 8.69652C36.6705 8.80781 36.6249 8.9159 36.5475 8.99515C36.4683 9.07271 36.3604 9.11807 36.2489 9.11807C36.1378 9.11807 36.0297 9.07254 35.9505 8.99515C35.8729 8.9159 35.8274 8.80798 35.8274 8.69652C35.8275 8.5854 35.8731 8.47563 35.9506 8.39807ZM33.5679 11.4167C33.6498 11.4673 33.8837 11.5548 34.2508 11.5548C34.6177 11.5548 34.8512 11.4671 34.9333 11.4167C34.9785 11.2324 35.1448 11.0958 35.3429 11.0958C35.5758 11.0958 35.7645 11.2845 35.7645 11.5173C35.7645 12.0359 35.1421 12.398 34.2508 12.398C33.3595 12.398 32.7367 12.036 32.7367 11.5173C32.7367 11.2845 32.9254 11.0958 33.1583 11.0958C33.3564 11.0958 33.5228 11.2324 33.5679 11.4167ZM31.1264 7.53997C31.1264 7.3071 31.3151 7.11842 31.548 7.11842H32.8544C33.0873 7.11842 33.276 7.3071 33.276 7.53997C33.276 7.77283 33.0873 7.96151 32.8544 7.96151H31.548C31.3151 7.96151 31.1264 7.77266 31.1264 7.53997ZM31.8296 8.69652C31.8296 8.5854 31.8751 8.47563 31.9544 8.39807C32.1113 8.24125 32.3944 8.24125 32.5496 8.39807C32.6288 8.47732 32.6744 8.58523 32.6744 8.69652C32.6744 8.80781 32.6287 8.9159 32.5496 8.99515C32.472 9.07271 32.3624 9.11807 32.2511 9.11807C32.1417 9.11807 32.0319 9.07254 31.9544 8.99515C31.8751 8.9159 31.8296 8.80781 31.8296 8.69652Z" fill="#E5CBBD"/>
<path d="M31.1208 4.01669C31.1613 3.99443 32.1246 3.47222 33.2785 3.81637C34.156 4.07857 34.8876 4.75591 35.4533 5.83001C35.7137 6.32441 35.9954 6.58678 36.2907 6.61055C36.7546 6.64411 37.2618 6.1165 37.4037 5.92781C37.5435 5.74166 37.8079 5.70406 37.9939 5.84384C38.0568 5.89089 38.1011 5.95277 38.129 6.02055L38.1305 6.01988C38.3064 6.4453 38.5087 7.65312 38.6011 8.55608C38.9039 7.99154 39.1737 6.81795 38.7881 4.41058C38.4871 2.53065 37.9136 0.843111 34.2501 0.842773C30.5866 0.843111 30.013 2.53065 29.712 4.41058C29.3347 6.76855 29.5856 7.9423 29.8806 8.51999C30.0159 6.25965 30.6044 4.5099 31.0271 4.08734C31.0547 4.05968 31.0863 4.03574 31.1208 4.01669Z" fill="#998675"/>
<path d="M31.3479 14.6185C31.341 14.605 31.3376 14.5902 31.3322 14.5762L30.5244 14.9648L30.3799 17.8155L32.4935 16.8524L31.3479 14.6185Z" fill="#67BAB2"/>
<path d="M47.5466 40.832H45.1289C45.1289 40.832 45.3985 42.082 45.4 42.0936C45.4393 42.3973 45.5948 42.6674 45.8376 42.8544C46.0802 43.0413 46.3814 43.1225 46.6849 43.0828C47.3117 43.0013 47.7553 42.425 47.6737 41.7979L47.5466 40.832Z" fill="#E5CBBD"/>
<path d="M40.2279 39.9482H28.2715V71.235H32.3347L33.8297 44.0405C33.8423 43.8081 34.0382 43.6294 34.2738 43.6429C34.4903 43.6547 34.6578 43.8288 34.6694 44.0405H34.6699L36.1649 71.235H40.2281V39.9482H40.2279Z" fill="#999999"/>
<path d="M40.381 16.1123C40.3546 16.1054 38.8338 15.377 38.8338 15.377L38.9874 18.2892C38.995 18.433 38.9287 18.5706 38.8117 18.6542C38.739 18.7063 38.653 18.733 38.5665 18.733C38.5134 18.733 38.4601 18.7229 38.4094 18.7026L36.3197 17.8637L35.5159 19.4299L36.5247 33.7374C36.5321 33.8424 36.4999 33.9466 36.4343 34.0291L34.6699 36.251V37.6043H40.2274V24.4257C40.2274 24.3475 40.248 24.2954 40.2509 24.2871L42.6869 17.2938C42.1519 16.8148 41.4105 16.3792 40.381 16.1123Z" fill="#67BAB2"/>
<path d="M34.7555 38.4473H33.7441V39.1049H34.7555V38.4473Z" fill="#4D4D4D"/>
<path d="M32.9009 38.4473H28.2715V39.1049H32.9009V38.4473Z" fill="#E6E6E6"/>
<path d="M44.0587 19.7767C44.0528 19.7157 43.9604 18.8895 43.3306 18.0098L41.085 24.4562L43.7257 37.8049H47.5925C47.5923 37.8049 44.0601 19.7916 44.0587 19.7767Z" fill="#67BAB2"/>
<path d="M39.7285 72.0781H36.1875V74.1572H41.6556C41.6182 73.7274 41.488 73.0419 41.0506 72.5806C40.7301 72.2424 40.2974 72.0781 39.7285 72.0781Z" fill="#736357"/>
<path d="M40.229 38.4473H35.5996V39.1049H40.229V38.4473Z" fill="#E6E6E6"/>
<path d="M47.645 38.6484H44.0996L44.8525 39.9888H47.5286L47.645 38.6484Z" fill="#67BAB2"/>
<path d="M27.447 72.5835C27.0147 73.0416 26.884 73.727 26.8457 74.1572H32.3127V72.0781H28.7717C28.2012 72.0781 27.7679 72.2434 27.447 72.5835Z" fill="#736357"/>
<path d="M24.4397 19.7789C24.4383 19.7924 20.9062 37.8053 20.9062 37.8053H24.773L27.4138 24.4566L25.1683 18.0103C24.5381 18.8901 24.4459 19.7167 24.4397 19.7789Z" fill="#67BAB2"/>
<path d="M20.9716 39.9888H23.6478L24.4007 38.6484H20.8555L20.9716 39.9888Z" fill="#67BAB2"/>
<path d="M20.827 41.7987C20.7456 42.425 21.1892 43.0013 21.8163 43.0828C22.12 43.1226 22.421 43.0413 22.6635 42.8544C22.9061 42.6676 23.0616 42.3973 23.101 42.0936C23.1027 42.082 23.3722 40.832 23.3722 40.832H20.9548L20.827 41.7987Z" fill="#E5CBBD"/>
<path d="M28.2718 24.4253V37.6039H33.8276V36.2485L32.0649 34.0286C31.9993 33.9462 31.9671 33.842 31.9745 33.7369L32.9835 19.4294L32.2037 17.9097L30.0981 18.8689C30.0425 18.8942 29.9828 18.9069 29.9234 18.9069C29.8403 18.9069 29.7575 18.8823 29.6865 18.8339C29.5648 18.7512 29.495 18.611 29.5024 18.4641L29.6587 15.3799C29.6587 15.3799 28.145 16.1049 28.1185 16.1119C27.0895 16.3788 26.3479 16.8143 25.8125 17.2935L28.2484 24.2867C28.2514 24.2949 28.2718 24.3577 28.2718 24.4253Z" fill="#67BAB2"/>
<path d="M32.7363 11.5173C32.7363 12.0358 33.3589 12.3979 34.2504 12.3979C35.1415 12.3979 35.764 12.0359 35.764 11.5173C35.764 11.2844 35.5754 11.0957 35.3425 11.0957C35.1444 11.0957 34.9781 11.2325 34.9329 11.4166C34.851 11.4672 34.6173 11.5547 34.2504 11.5547C33.8833 11.5547 33.6494 11.467 33.5675 11.4166C33.5223 11.2323 33.356 11.0957 33.1579 11.0957C32.925 11.0957 32.7363 11.2844 32.7363 11.5173Z" fill="#1C1B1A"/>
<path d="M32.5481 8.99545C32.6274 8.9162 32.6729 8.80829 32.6729 8.69683C32.6729 8.58571 32.6272 8.47762 32.5481 8.39837C32.393 8.24156 32.1097 8.24156 31.9529 8.39837C31.8737 8.47594 31.8281 8.58554 31.8281 8.69683C31.8281 8.80812 31.8737 8.9162 31.9529 8.99545C32.0305 9.07302 32.1401 9.11838 32.2497 9.11838C32.361 9.11838 32.4706 9.07285 32.5481 8.99545Z" fill="#1C1B1A"/>
<path d="M36.2495 9.11838C36.3608 9.11838 36.4689 9.07285 36.5481 8.99545C36.6257 8.9162 36.671 8.80829 36.671 8.69683C36.671 8.58571 36.6255 8.47762 36.5481 8.39837C36.3913 8.24156 36.108 8.24156 35.9512 8.39837C35.8736 8.47594 35.8281 8.58554 35.8281 8.69683C35.8281 8.80812 35.8738 8.9162 35.9512 8.99545C36.0303 9.07285 36.1384 9.11838 36.2495 9.11838Z" fill="#1C1B1A"/>
<path fill-rule="evenodd" clip-rule="evenodd" d="M48.3401 40.4006L48.5254 38.2632C48.5259 38.259 44.8971 19.6777 44.8971 19.6777C44.8603 19.3451 44.4226 16.31 40.6341 15.3067L37.1995 13.6546V13.0034C37.866 12.2972 38.3177 11.2366 38.6004 9.77079C39.1703 9.45699 40.2682 8.31949 39.6212 4.27752L39.6211 4.27719C39.3817 2.78247 38.9361 0.000843032 34.2518 0H34.2513H34.2505H34.2496H34.2493C29.5649 0.000843094 29.1192 2.78289 28.8798 4.27752C28.2328 8.31983 29.3307 9.45699 29.9006 9.77079C30.1832 11.2366 30.6348 12.297 31.3015 13.0034V13.6546L27.8669 15.3067C24.0784 16.31 23.6407 19.3451 23.6039 19.6777L21.8223 28.7622L21.3921 30.9525L20.0482 37.8052L20.0084 38.6483L20.1246 39.9886L20.0568 42.5107C20.0578 42.5134 20.0594 42.5156 20.0602 42.5183C20.2802 43.245 20.907 43.8146 21.7074 43.9187C21.7946 43.9298 21.8815 43.9355 21.968 43.9355C22.4043 43.9355 22.8262 43.7927 23.1776 43.5222C23.5939 43.2019 23.8622 42.74 23.9346 42.2205L24.293 40.5614C24.293 40.5614 25.5342 38.3089 25.5342 38.3085L27.4293 28.7286V38.0258V71.5474C27.2091 71.6662 27.0102 71.8183 26.8343 72.0045C25.9086 72.9852 25.9868 74.5373 25.9905 74.6027C26.0033 74.8258 26.188 75 26.4114 75H32.7346C32.9675 75 33.1562 74.8113 33.1562 74.5785V71.6674L34.2507 51.7576L35.3452 71.6674V74.5785C35.3452 74.8113 35.5338 75 35.7667 75H42.0899C42.3133 75 42.498 74.8258 42.5108 74.6027C42.5145 74.5371 42.5927 72.9852 41.667 72.0045C41.4912 71.8183 41.292 71.6662 41.072 71.5474V38.0259V28.7288C41.072 28.7288 43.0082 38.4249 43.0131 38.4333L44.2086 40.5616L44.5669 42.2207C44.6394 42.7402 44.9077 43.2019 45.3239 43.5224C45.6753 43.793 46.0971 43.9358 46.5335 43.9357C46.62 43.9357 46.707 43.9301 46.7942 43.9188C47.882 43.7773 48.6519 42.7771 48.5104 41.6883L48.3401 40.4006ZM38.1115 17.6743L37.9684 14.9602L37.1686 14.5756C37.1675 14.5785 37.1664 14.5814 37.1654 14.5844C37.1645 14.5869 37.1637 14.5894 37.1629 14.5919C37.1599 14.6007 37.157 14.6096 37.1528 14.6179L36.0164 16.8334L38.1115 17.6743ZM32.972 17.5603L33.6701 18.9206H34.8304L35.5347 17.5483L35.3489 17.4738H33.1615L32.972 17.5603ZM34.2501 35.425L35.6731 33.6331L34.695 19.7637H33.8055L32.8273 33.6331L34.2501 35.425ZM33.3276 16.6307H35.1728L36.3562 14.3237V13.651C35.7735 13.9628 35.0776 14.1112 34.2515 14.1115H34.2512H34.2503H34.2495H34.2491C33.4232 14.1112 32.7272 13.963 32.1444 13.651V14.3237L33.3276 16.6307ZM29.7121 4.4109C29.3347 6.76887 29.5856 7.94262 29.8807 8.52031C30.016 6.25998 30.6044 4.51022 31.027 4.08783C31.0548 4.06001 31.0865 4.03606 31.1209 4.01701C31.1614 3.99475 32.1247 3.47237 33.2786 3.81669C34.1561 4.07872 34.8877 4.75623 35.4534 5.83034C35.7138 6.32473 35.9955 6.5871 36.2908 6.61087C36.7546 6.64443 37.2619 6.11682 37.4038 5.92813C37.5436 5.74198 37.808 5.70438 37.994 5.84416C38.0569 5.89138 38.1012 5.95326 38.1291 6.02088L38.1306 6.0202C38.3064 6.44563 38.5088 7.65344 38.6012 8.5564C38.9039 7.99186 39.1737 6.81827 38.7882 4.4109C38.4872 2.53097 37.9137 0.843432 34.2501 0.843095C30.5869 0.843432 30.0131 2.53097 29.7121 4.4109ZM31.5915 4.72504C31.3654 5.06261 30.7019 6.79416 30.6958 9.4344C30.9739 10.9881 31.418 11.9384 32.0001 12.5043C32.0129 12.5152 32.7865 13.2685 34.2501 13.2685C35.7138 13.2685 36.4876 12.5152 36.5002 12.5043C37.0835 11.9372 37.5283 10.9845 37.8063 9.42546C37.8065 9.42445 37.8063 9.42344 37.8063 9.42242C37.8384 9.13999 37.6907 7.84736 37.5212 6.99398C37.4263 7.06834 37.3202 7.14017 37.2064 7.20525C37.3077 7.28214 37.3743 7.40288 37.3743 7.53996C37.3743 7.77283 37.1856 7.96151 36.9528 7.96151H35.6463C35.4135 7.96151 35.2248 7.77283 35.2248 7.53996C35.2248 7.37151 35.3241 7.22734 35.4669 7.1599C35.1836 6.95384 34.9292 6.64358 34.7074 6.22305C34.2513 5.35702 33.6893 4.81913 33.0373 4.62437C32.3722 4.4254 31.7802 4.64242 31.5915 4.72504ZM31.332 14.5754L30.5242 14.9641L30.3798 17.8148L32.4935 16.8516L31.3477 14.6177C31.3433 14.6092 31.3404 14.6001 31.3374 14.591C31.3357 14.5858 31.334 14.5805 31.332 14.5754ZM22.6627 42.8543C22.9055 42.6673 23.0609 42.3972 23.1002 42.0935C23.1019 42.0817 23.3715 40.8319 23.3715 40.8319H20.954L20.8262 41.7986C20.7446 42.4249 21.1884 43.0012 21.8155 43.0826C22.119 43.1226 22.42 43.0412 22.6627 42.8543ZM20.9709 39.9886H23.6471L24.3999 38.6483H20.8547L20.9709 39.9886ZM20.9072 37.8052H24.7739L27.4145 24.4565L25.169 18.0102C24.5391 18.89 24.4467 19.7168 24.4406 19.7788C24.4392 19.7923 20.9072 37.8052 20.9072 37.8052ZM28.1187 16.1122C27.0894 16.3791 26.348 16.8147 25.8126 17.2939L28.2485 24.287C28.2515 24.2953 28.2719 24.358 28.2719 24.4256V37.6042H33.8278V36.2488L32.065 34.029C31.9996 33.9465 31.9672 33.8423 31.9746 33.7373L32.9837 19.4298L32.2038 17.91L30.0982 18.8693C30.0426 18.8948 29.9831 18.9072 29.9236 18.9072C29.8404 18.9072 29.7576 18.8826 29.6866 18.8342C29.5649 18.7516 29.4951 18.6113 29.5025 18.4644L29.6588 15.3802C29.6588 15.3802 28.1451 16.1053 28.1187 16.1122ZM34.7558 39.1051V38.4475H33.7445V39.1051H34.7558ZM32.9014 39.1051V38.4475H28.2719V39.1051H32.9014ZM26.8456 74.1571H32.3125V72.078H28.7716C28.2013 72.078 27.7678 72.2433 27.4469 72.5834C27.0144 73.0415 26.8839 73.7269 26.8456 74.1571ZM34.6697 44.0402H34.6702L36.165 71.2349H40.2282V39.9482H28.2718V71.2347H32.335L33.83 44.0402C33.8426 43.8079 34.0387 43.6291 34.2741 43.6426C34.4908 43.6544 34.6582 43.8284 34.6697 44.0402ZM35.5989 38.4475V39.1051H40.2284V38.4475H35.5989ZM36.1878 74.1571H41.6559C41.6186 73.7273 41.4883 73.0418 41.0509 72.5805C40.7303 72.2424 40.2977 72.078 39.7288 72.078H36.1878V74.1571ZM40.2284 37.6042V24.4256C40.2284 24.352 40.2466 24.3016 40.2511 24.289L40.2518 24.287L42.6882 17.2937C42.1528 16.8147 41.4114 16.3791 40.382 16.1122C40.3555 16.1053 38.8347 15.3769 38.8347 15.3769L38.9883 18.2891C38.9959 18.4329 38.9297 18.5705 38.8126 18.6541C38.74 18.7062 38.6541 18.7329 38.5675 18.7329C38.5144 18.7329 38.4611 18.7228 38.4103 18.7025L36.3206 17.8637L35.5168 19.4298L36.5257 33.7373C36.5331 33.8423 36.5009 33.9465 36.4353 34.029L34.6709 36.2509V37.6042H40.2284ZM43.3313 18.01L41.0856 24.4565L43.7262 37.8052H47.593C47.593 37.8052 44.0607 19.7918 44.0594 19.777C44.0535 19.7159 43.9611 18.8899 43.3313 18.01ZM47.6456 38.6483H44.1004L44.8532 39.9886H47.5294L47.6456 38.6483ZM45.8376 42.8543C46.0803 43.0412 46.3814 43.1223 46.685 43.0826C47.3117 43.001 47.7553 42.4247 47.6739 41.7979L47.5466 40.8319H45.1289C45.1289 40.8319 45.3984 42.0819 45.4001 42.0935C45.4395 42.3972 45.595 42.6675 45.8376 42.8543Z" fill="#1C1B1A"/>
<path d="M33.2746 7.53971C33.2746 7.30685 33.0859 7.11816 32.853 7.11816H31.5465C31.3137 7.11816 31.125 7.30685 31.125 7.53971C31.125 7.77257 31.3137 7.96126 31.5465 7.96126H32.853C33.0859 7.96126 33.2746 7.77241 33.2746 7.53971Z" fill="#1C1B1A"/>
</svg>
