<svg width="41" height="75" viewBox="0 0 41 75" fill="none" xmlns="http://www.w3.org/2000/svg">
<path d="M13.8351 17.8125C15.8869 17.8125 17.318 17.0155 17.5419 15.7975L15.5324 15.3154C15.334 15.2677 15.194 15.0903 15.194 14.8862V12.9152C14.7692 13.12 14.3121 13.2334 13.8351 13.2334C13.358 13.2334 12.9006 13.12 12.476 12.915V14.8862C12.476 15.0903 12.336 15.2677 12.1376 15.3154L10.1279 15.7975C10.3521 17.0157 11.7829 17.8125 13.8351 17.8125Z" fill="#E0B489"/>
<path d="M11.5931 12.3117C10.5289 11.3499 9.82677 9.72687 9.82677 7.88689V6.67066C9.82677 6.45509 9.98124 6.27643 10.1855 6.23759V6.23724C10.2325 6.22805 13.3936 5.59125 13.3936 3.55618C13.3936 3.31237 13.5911 3.11481 13.8349 3.11481C14.0787 3.11481 14.2763 3.31237 14.2763 3.55618C14.2763 5.60361 17.452 6.23106 17.4842 6.23724V6.23776C17.6884 6.27643 17.8431 6.45527 17.8431 6.67084V7.88707C17.8431 9.72705 17.141 11.3502 16.0765 12.3121V12.6295C17.5625 12.5518 18.6157 12.0732 19.2066 11.2007C20.5702 9.18787 19.2016 5.69682 19.1875 5.66187C19.1668 5.60996 19.1561 5.55435 19.1561 5.49821C19.1561 4.14073 18.7472 3.05991 17.9407 2.28557C16.4477 0.852004 13.9147 0.877603 13.8347 0.881487C13.8386 0.881664 13.8399 0.881664 13.8355 0.881664C13.8312 0.881664 13.8317 0.881487 13.8347 0.881487C13.7396 0.877956 11.2067 0.862597 9.7249 2.28928C8.9209 3.06326 8.51343 4.14285 8.51343 5.49821C8.51343 5.554 8.50266 5.60961 8.482 5.66151C8.46805 5.69665 7.10228 9.19529 8.46399 11.2025C9.05525 12.0737 10.1078 12.5518 11.5929 12.6295V12.3117H11.5931Z" fill="#754C24"/>
<path d="M0.909128 39.2927C0.84716 39.5671 0.895535 39.8471 1.04472 40.0831C1.1939 40.3192 1.42606 40.4832 1.69865 40.5448C1.97071 40.6062 2.25107 40.558 2.48729 40.4087C2.72351 40.2595 2.88752 40.0273 2.94896 39.7548C2.95143 39.7442 2.95408 39.7337 2.95726 39.7235L3.56211 37.737L1.4243 36.9678L0.909128 39.2927Z" fill="#E0B489"/>
<path d="M10.0869 74.1173H13.3935V71.5312H11.4665C11.3356 72.0989 10.9843 73.1802 10.0869 74.1173Z" fill="#998675"/>
<path d="M16.9598 7.01997C16.2356 6.827 14.617 6.27617 13.8344 5.06152C13.0516 6.27617 11.433 6.827 10.709 7.01997V7.88717C10.709 9.531 11.335 10.969 12.2642 11.7433C12.2977 11.7642 12.9384 12.3501 13.8346 12.3501C14.7306 12.3501 15.3713 11.764 15.4051 11.7431C16.3341 10.9686 16.96 9.53083 16.96 7.88734V7.01997H16.9598ZM11.99 8.51197C11.8735 8.51197 11.7605 8.4643 11.6775 8.38309C11.5963 8.30011 11.5486 8.18712 11.5486 8.0706C11.5486 7.95408 11.5963 7.84109 11.6775 7.75811C11.8417 7.59569 12.1381 7.59392 12.3025 7.75811C12.3855 7.84109 12.4314 7.95408 12.4314 8.0706C12.4314 8.18712 12.3855 8.30011 12.3025 8.38309C12.2195 8.4643 12.1065 8.51197 11.99 8.51197ZM13.8344 11.1342C12.874 11.1342 12.2031 10.7471 12.2031 10.1927C12.2031 9.94889 12.4007 9.75133 12.6445 9.75133C12.8544 9.75133 13.0302 9.89787 13.0749 10.0944C13.1619 10.1509 13.4209 10.2515 13.8346 10.2515C14.2482 10.2515 14.5072 10.1509 14.5943 10.0944C14.6389 9.89804 14.8146 9.75133 15.0247 9.75133C15.2685 9.75133 15.4661 9.94889 15.4661 10.1927C15.4657 10.7471 14.795 11.1342 13.8344 11.1342ZM15.9906 8.38309C15.9076 8.4643 15.7946 8.51197 15.6781 8.51197C15.5616 8.51197 15.4484 8.4643 15.3656 8.38309C15.2844 8.30011 15.2367 8.18712 15.2367 8.0706C15.2367 7.95408 15.2844 7.84109 15.3656 7.75811C15.5298 7.59392 15.8264 7.59392 15.9906 7.75811C16.0736 7.84109 16.1195 7.95408 16.1195 8.0706C16.1195 8.18712 16.0736 8.30011 15.9906 8.38309Z" fill="#E0B489"/>
<path d="M13.394 32.446V18.6831C11.1335 18.5651 9.5673 17.5353 9.26735 16.0034L8.9169 16.0875C5.9569 16.7832 5.22564 19.813 5.19598 19.9415L1.61719 36.0981L3.82015 36.8906L7.56578 24.5877C7.4309 24.3732 7.31279 24.1327 7.21957 23.8628C6.83382 22.7458 6.87954 21.1258 7.89169 20.2084C8.0723 20.0444 8.35142 20.0584 8.51508 20.239C8.67874 20.4196 8.66514 20.6987 8.48436 20.8624C7.80094 21.482 7.75063 22.6958 8.05394 23.5747C8.29069 24.2602 8.70963 24.7056 9.14712 24.7369C9.36816 24.7528 9.54311 24.93 9.55618 25.1512L9.70695 27.7096C9.7126 27.807 9.68594 27.9038 9.63068 27.9845C9.08656 28.7816 8.58817 29.9344 8.14856 31.4086C8.21053 32.3613 9.91669 32.4412 13.394 32.446Z" fill="#9681C1"/>
<path d="M30.5429 27.7566C30.3764 27.7566 30.2241 27.6628 30.149 27.5142L29.6602 26.5469L29.1713 27.5142C29.0961 27.6628 28.9439 27.7566 28.7774 27.7566H26.5144C26.5125 27.8459 26.5107 27.9356 26.5107 28.0271C26.5107 29.4401 26.8561 30.8606 27.5944 31.779C27.6235 31.8055 28.4235 32.796 29.6604 32.796C30.8972 32.796 31.6972 31.8057 31.7263 31.779C32.4646 30.8606 32.81 29.4401 32.81 28.0271C32.81 27.9354 32.808 27.8459 32.8063 27.7566H30.5429ZM27.6214 29.158C27.5384 29.075 27.4925 28.962 27.4925 28.8455C27.4925 28.729 27.5386 28.6142 27.6214 28.533C27.7856 28.3688 28.0804 28.3688 28.2446 28.533C28.3276 28.6142 28.3733 28.729 28.3733 28.8455C28.3733 28.962 28.3274 29.075 28.2446 29.158C28.1634 29.2392 28.0486 29.2869 27.932 29.2869C27.8174 29.2869 27.7026 29.2392 27.6214 29.158ZM30.5562 31.6516C30.3102 31.7474 29.993 31.8006 29.6621 31.8013C29.6595 31.8013 29.657 31.8013 29.6543 31.8013C28.7735 31.8013 28.1811 31.4639 28.1795 30.9607C28.1788 30.7169 28.3756 30.5188 28.6194 30.518C28.62 30.518 28.6203 30.518 28.6208 30.518C28.8127 30.518 28.9762 30.6405 29.037 30.8117C29.1266 30.8559 29.3412 30.9185 29.6549 30.9185C29.6568 30.9185 29.6586 30.9185 29.6602 30.9185C29.9767 30.9178 30.1928 30.8539 30.2827 30.8091C30.3427 30.6375 30.5058 30.5141 30.6979 30.5135C30.6985 30.5135 30.6988 30.5135 30.6993 30.5135C30.9424 30.5135 31.14 30.7102 31.1407 30.9535C31.1414 31.129 31.0662 31.4528 30.5562 31.6516ZM31.6997 29.158C31.6167 29.2392 31.5039 29.2869 31.3872 29.2869C31.2706 29.2869 31.1576 29.2392 31.0745 29.158C30.9933 29.075 30.9458 28.962 30.9458 28.8455C30.9458 28.729 30.9935 28.6142 31.0745 28.533C31.2405 28.3688 31.5353 28.3688 31.6995 28.533C31.7807 28.6142 31.8284 28.729 31.8284 28.8455C31.8285 28.962 31.7809 29.075 31.6997 29.158Z" fill="#E0B489"/>
<path d="M29.6589 33.6782C29.1806 33.6782 28.7343 33.5876 28.3247 33.418C28.2929 33.5543 28.1981 33.6685 28.0664 33.7238C28.1047 34.5684 28.3455 35.3132 29.6589 35.3132C30.9736 35.3132 31.2135 34.5664 31.2515 33.7241C31.1196 33.6688 31.0246 33.5544 30.9929 33.4181C30.5834 33.5876 30.1371 33.6782 29.6589 33.6782Z" fill="#E0B489"/>
<path d="M25.6276 28.027C25.6276 27.7726 25.6348 27.524 25.6491 27.2883C25.6631 27.0538 25.8541 26.8743 26.0896 26.8754V26.8738H28.5055L29.2659 25.3692C29.3759 25.1515 29.6407 25.0643 29.8589 25.1743C29.9463 25.2186 30.0114 25.2885 30.0526 25.3698L30.0538 25.3692L30.8142 26.8738H33.2303V26.8754C33.4626 26.8746 33.6566 27.0538 33.6707 27.2883C33.685 27.524 33.6923 27.7726 33.6923 28.027C33.6923 29.4724 33.3952 30.714 32.8675 31.663H35.1177C35.0552 28.1172 34.1697 25.6593 32.6687 24.1583C31.3882 22.8778 29.6758 22.965 29.6649 22.9652C29.6513 22.9654 27.9155 22.8926 26.6339 24.1742C25.911 24.8971 25.3073 25.8185 24.9027 27.0101C24.8955 27.0441 24.8834 27.0764 24.8684 27.1077C24.4567 28.3636 24.2334 29.8846 24.2021 31.663H26.4524C25.9247 30.7138 25.6276 29.4724 25.6276 28.027Z" fill="#754C24"/>
<path d="M11.4687 70.6483H13.394V52.6699H9.44922C9.48771 54.4112 9.74511 61.1744 11.4687 70.6483Z" fill="#E0B489"/>
<path d="M14.2767 32.446C17.7542 32.4412 19.46 32.3613 19.5219 31.4086C19.0827 29.9346 18.5847 28.7818 18.0398 27.9846C17.9847 27.904 17.9579 27.8074 17.9636 27.7098L18.114 25.1514C18.127 24.9302 18.302 24.7529 18.523 24.7371C18.9609 24.7058 19.38 24.2602 19.6166 23.5745C19.9201 22.6956 19.8696 21.4819 19.1862 20.8625C19.0055 20.6987 18.9918 20.4198 19.1554 20.239C19.3189 20.0587 19.5982 20.0444 19.7788 20.2084C20.7908 21.1256 20.8365 22.7456 20.4511 23.8626C20.3579 24.1327 20.2394 24.3735 20.1046 24.588L23.2346 34.8688C23.6934 34.4066 24.3196 33.9957 25.1694 33.7975L25.5168 33.6769L25.2663 32.5452H23.7561C23.5123 32.5452 23.3147 32.3477 23.3147 32.1038C23.3147 30.0714 23.549 28.3296 24.0131 26.8876L22.4738 19.9387C22.4447 19.8131 21.7129 16.7832 18.7552 16.088L18.4026 16.0034C18.1029 17.5355 16.5367 18.5653 14.2764 18.6832V32.446H14.2767Z" fill="#9681C1"/>
<path d="M36.2505 38.1641L34.542 39.6783L34.4434 40.4781C34.4495 40.4915 38.457 52.0215 38.457 52.0215C38.4625 52.0373 38.4672 52.0538 38.4709 52.0702C38.5032 52.2151 38.5901 52.3389 38.7158 52.4185C38.8413 52.4983 38.991 52.5241 39.1355 52.4918C39.2808 52.4593 39.4043 52.3724 39.4841 52.2469C39.5638 52.1214 39.5899 51.9724 39.5574 51.8273L36.2505 38.1641Z" fill="#E0B489"/>
<path d="M33.9304 34.6531C33.9145 34.6496 32.1164 34.0264 32.1164 34.0264C32.0233 34.9144 31.6005 36.1965 29.6606 36.1965C27.7186 36.1965 27.297 34.9121 27.2048 34.0264C27.2048 34.0264 25.4068 34.6494 25.3911 34.6529C24.4205 34.8738 23.1922 36.1901 22.9941 36.918L25.4888 39.1289C25.5693 39.2003 25.6208 39.2986 25.6341 39.4052L25.9179 41.7067H33.4032L33.6871 39.4052C33.7003 39.2986 33.7519 39.2003 33.8324 39.1289L36.327 36.9179C36.1423 36.3642 35.5361 35.0186 33.9304 34.6531Z" fill="#FF7B7B"/>
<path d="M14.2764 71.5312V74.1173H17.5829C16.6855 73.1802 16.3342 72.0989 16.2034 71.5312H14.2764Z" fill="#998675"/>
<path d="M31.0629 72.9434L31.0625 74.1176H34.4437C34.2118 73.6165 33.7346 72.9453 32.8423 72.9434H31.0629Z" fill="#F4A2A9"/>
<path d="M31.0635 72.0602H32.4737C32.7631 70.4008 33.9368 63.3705 34.0009 58.2114H31.067L31.0635 72.0602Z" fill="#E0B489"/>
<path d="M33.293 42.5898H26.0254L26.1234 43.3825H33.1952L33.293 42.5898Z" fill="#F4A2A9"/>
<path d="M19.8299 32.5912C19.3678 32.9616 18.7529 33.0776 18.4726 33.1295C17.397 33.3284 15.8254 33.3284 13.8357 33.3284C11.846 33.3284 10.2742 33.3284 9.1987 33.1295C8.91764 33.0776 8.30113 32.961 7.83858 32.5889C6.28372 39.3593 7.39103 49.6794 7.64314 51.7867H18.8756C18.8815 51.7356 20.5874 44.666 20.5874 44.666C20.7271 41.1343 20.6895 36.3389 19.8299 32.5912Z" fill="#514377"/>
<path d="M25.9877 44.2646C25.3482 45.4018 22.3861 51.0012 22.252 57.3286H37.065C36.9312 50.9938 33.9694 45.4009 33.3298 44.2646H25.9877Z" fill="#FF7B7B"/>
<path d="M14.2765 70.6491H16.2016C17.9263 61.1697 18.183 54.4113 18.221 52.6709H14.2764V70.6491H14.2765Z" fill="#E0B489"/>
<path d="M26.4773 72.9434C25.585 72.9453 25.108 73.6162 24.876 74.1176H28.2574L28.257 72.9434H26.4773Z" fill="#F4A2A9"/>
<path d="M23.0696 38.165L21.4565 44.8292C21.4561 44.8309 21.4558 44.8325 21.4554 44.8341L19.7606 51.8355C19.7298 51.973 19.756 52.122 19.8356 52.2475C19.9154 52.3731 20.039 52.4601 20.1841 52.4924C20.4848 52.5598 20.7822 52.3702 20.8493 52.0706C20.8529 52.0542 20.8576 52.0381 20.8631 52.0223C20.8631 52.0223 24.8704 40.4926 24.8766 40.4794L24.7777 39.6791L23.0696 38.165Z" fill="#E0B489"/>
<path d="M28.2559 72.0602L28.2522 58.2114H25.3184C25.3823 63.3717 26.556 70.401 26.8451 72.0602H28.2559Z" fill="#E0B489"/>
<path d="M30.6996 30.5137C30.699 30.5137 30.6987 30.5137 30.6981 30.5137C30.5059 30.5142 30.3428 30.6376 30.2829 30.8092C30.1929 30.8539 29.9769 30.918 29.6604 30.9187C29.6586 30.9187 29.6569 30.9187 29.6551 30.9187C29.3414 30.9187 29.1269 30.856 29.0372 30.8119C28.9765 30.6406 28.813 30.5181 28.6211 30.5181C28.6205 30.5181 28.6202 30.5181 28.6196 30.5181C28.3758 30.5188 28.179 30.7171 28.1797 30.9609C28.1813 31.4642 28.7736 31.8014 29.6546 31.8014C29.6572 31.8014 29.6597 31.8014 29.6623 31.8014C29.9932 31.8007 30.3106 31.7476 30.5564 31.6517C31.0664 31.4527 31.1415 31.1289 31.1411 30.9536C31.1402 30.7103 30.9427 30.5137 30.6996 30.5137Z" fill="#1C1B1A"/>
<path d="M28.373 28.8448C28.373 28.7283 28.3271 28.6135 28.2443 28.5323C28.0799 28.3681 27.7851 28.3681 27.6211 28.5323C27.5381 28.6135 27.4922 28.7283 27.4922 28.8448C27.4922 28.9613 27.5383 29.0743 27.6211 29.1573C27.7023 29.2385 27.817 29.2862 27.9318 29.2862C28.0483 29.2862 28.1632 29.2385 28.2445 29.1573C28.3271 29.0743 28.373 28.9613 28.373 28.8448Z" fill="#1C1B1A"/>
<path d="M31.074 28.5323C30.9928 28.6135 30.9453 28.7283 30.9453 28.8448C30.9453 28.9613 30.993 29.0743 31.074 29.1573C31.1572 29.2385 31.27 29.2862 31.3867 29.2862C31.5032 29.2862 31.6162 29.2385 31.6992 29.1573C31.7804 29.0743 31.8281 28.9613 31.8281 28.8448C31.8281 28.7283 31.7802 28.6135 31.6992 28.5323C31.5348 28.3681 31.24 28.3681 31.074 28.5323Z" fill="#1C1B1A"/>
<path d="M36.9978 37.5018L37.1189 37.3947C37.2377 37.2893 37.2909 37.1282 37.2579 36.9729C37.2356 36.8673 36.683 34.3889 34.1496 33.7977L31.8636 33.0043V32.8938C31.9925 32.7876 32.1154 32.6709 32.2323 32.5452H35.5625C35.8063 32.5452 36.0039 32.3477 36.0039 32.1039C36.0039 28.0684 35.0825 25.1761 33.2651 23.5076C31.668 22.0412 29.9597 22.0832 29.6591 22.0832C29.3556 22.0832 27.6491 22.0428 26.0538 23.5076C25.4791 24.0351 24.9949 24.6855 24.6003 25.4551L23.3357 19.7457C23.3016 19.5953 22.4602 16.0522 18.9596 15.2293L16.0771 14.5376V13.5141C17.8782 13.4296 19.1768 12.8198 19.938 11.696C21.4519 9.4613 20.2586 6.00185 20.0388 5.41536C20.0219 3.84673 19.5221 2.57983 18.5527 1.64889C16.7888 -0.0449048 14.2318 0.000114698 13.8353 0.000114698C13.4388 0.000114698 10.8818 -0.0449048 9.11778 1.64889C8.14835 2.57983 7.64855 3.84656 7.6316 5.41536C7.4118 6.00185 6.21851 9.4613 7.73259 11.696C8.49386 12.8199 9.79219 13.4297 11.5933 13.5141V14.5376L8.71278 15.2289C5.20989 16.0522 4.369 19.5955 4.33457 19.748L0.0481739 39.0992C-0.0655227 39.6017 0.0236336 40.1184 0.298695 40.5538C0.573932 40.9893 1.00206 41.2916 1.50452 41.4051C1.64699 41.4372 1.79035 41.4531 1.933 41.4531C2.29333 41.4531 2.64695 41.3516 2.95909 41.1544C3.38951 40.8824 3.69017 40.4606 3.80652 39.9655L8.26258 25.3289C8.39976 25.4198 8.544 25.4923 8.69459 25.5414L8.81659 27.6143C8.24528 28.4922 7.72852 29.7076 7.27974 31.23C5.04518 38.8123 6.74162 51.7409 6.81507 52.2875C6.84437 52.5066 7.03151 52.6703 7.25238 52.6703H8.56607C8.60438 54.4384 8.86673 61.3894 10.6532 71.0976C10.5967 71.4367 10.2325 73.1877 8.61038 74.1824C8.44195 74.2857 8.36268 74.4884 8.41618 74.6785C8.46985 74.8686 8.64339 75 8.84095 75H13.8348H18.8284C19.026 75 19.1997 74.8686 19.2532 74.6785C19.3069 74.4882 19.2274 74.2857 19.059 74.1824C17.4363 73.1874 17.0725 71.4353 17.0163 71.0971C18.7808 61.5088 19.0583 54.6102 19.1017 52.7381C19.3081 53.0528 19.6224 53.2714 19.9901 53.3535C20.0955 53.377 20.2007 53.3883 20.3045 53.3883C20.9548 53.3883 21.5436 52.9443 21.703 52.2896L25.119 42.454L25.2763 43.7283C24.7002 44.7212 21.3649 50.7741 21.3649 57.77C21.3649 58.0138 21.5624 58.2114 21.8063 58.2114H24.4356C24.4981 63.3383 25.6386 70.2662 25.9585 72.1134C24.6248 72.3949 23.9831 73.725 23.8231 74.4654C23.7949 74.5959 23.8274 74.732 23.9111 74.8358C23.9949 74.9396 24.121 75 24.2544 75H28.6978C28.8148 75 28.9271 74.9534 29.0099 74.8708C29.0929 74.788 29.1392 74.6757 29.1392 74.5586L29.1349 58.2116H30.1833L30.1788 74.5586C30.1788 74.6757 30.2253 74.788 30.3083 74.8708C30.3911 74.9536 30.5032 75 30.6202 75H35.0632C35.1967 75 35.3229 74.9396 35.4066 74.8358C35.4905 74.732 35.5228 74.5959 35.4945 74.4654C35.3347 73.725 34.693 72.3949 33.3592 72.1134C33.6789 70.2662 34.8197 63.3385 34.8824 58.2114H37.5114C37.7552 58.2114 37.9528 58.0138 37.9528 57.77C37.9528 50.7738 34.6172 44.7205 34.0417 43.7283L34.199 42.4536L37.615 52.2894C37.7033 52.6531 37.9252 52.963 38.2421 53.1641C38.4757 53.3122 38.7407 53.3886 39.0106 53.3886C39.116 53.3886 39.2221 53.377 39.3275 53.3535C39.7027 53.2696 40.0228 53.0447 40.2288 52.72C40.4348 52.3954 40.5021 52.01 40.4163 51.6272L36.9978 37.5018ZM31.7254 31.7787C31.6963 31.8052 30.8963 32.7956 29.6594 32.7956C28.4226 32.7956 27.6226 31.8053 27.5935 31.7787C26.8552 30.8603 26.5098 29.4398 26.5098 28.0267C26.5098 27.9351 26.5118 27.8456 26.5135 27.7562H28.7765C28.943 27.7562 29.0954 27.6625 29.1704 27.5138L29.6593 26.5465L30.1481 27.5138C30.2233 27.6625 30.3755 27.7562 30.542 27.7562H32.805C32.8069 27.8456 32.8087 27.9352 32.8087 28.0267C32.809 29.4398 32.4637 30.8601 31.7254 31.7787ZM31.2521 33.7241C31.2139 34.5664 30.9742 35.3132 29.6594 35.3132C28.3463 35.3132 28.1053 34.5683 28.067 33.7237C28.1987 33.6684 28.2935 33.5542 28.3253 33.4179C28.7347 33.5874 29.1812 33.6782 29.6594 33.6782C30.1377 33.6782 30.584 33.5876 30.9936 33.4179C31.0252 33.5544 31.1202 33.6688 31.2521 33.7241ZM27.4554 32.8938V33.0043L26.3568 33.3856L26.1705 32.5454H27.0866C27.2037 32.6709 27.3264 32.7876 27.4554 32.8938ZM24.8679 27.1072C24.8829 27.0762 24.895 27.0438 24.9022 27.0096C25.3068 25.8181 25.9105 24.8967 26.6334 24.1737C27.915 22.8922 29.6508 22.9647 29.6644 22.9647C29.6752 22.9647 31.3877 22.8773 32.6682 24.1578C34.1692 25.6587 35.0549 28.1167 35.1172 31.6625H32.867C33.3947 30.7136 33.6918 29.4719 33.6918 28.0265C33.6918 27.7721 33.6845 27.5235 33.6702 27.2878C33.6561 27.0534 33.4621 26.8742 33.2298 26.8749V26.8733H30.8137L30.0533 25.3688L30.0521 25.3693C30.0111 25.2881 29.9458 25.218 29.8584 25.1739C29.6402 25.0639 29.3754 25.1511 29.2654 25.3688L28.505 26.8733H26.0891V26.8749C25.8536 26.874 25.6626 27.0536 25.6486 27.2878C25.6343 27.5235 25.6271 27.7721 25.6271 28.0265C25.6271 29.4719 25.9242 30.7136 26.4519 31.6625H24.2017C24.2331 29.8841 24.4562 28.3632 24.8679 27.1072ZM18.4029 16.0034L18.7555 16.088C21.7134 16.7833 22.445 19.8132 22.4741 19.9387L24.0134 26.8876C23.5493 28.3296 23.315 30.0715 23.315 32.1039C23.315 32.3477 23.5126 32.5452 23.7564 32.5452H25.2666L25.5171 33.6769L25.1697 33.7975C24.3198 33.9958 23.6937 34.4068 23.2349 34.8688L20.1049 24.5881C20.2397 24.3736 20.3582 24.1328 20.4514 23.8626C20.837 22.7456 20.7913 21.1258 19.7791 20.2085C19.5985 20.0444 19.3192 20.0586 19.1557 20.239C18.9921 20.4196 19.0057 20.6987 19.1865 20.8626C19.8699 21.4821 19.9204 22.6958 19.6169 23.5745C19.3801 24.2602 18.961 24.7058 18.5233 24.7371C18.3023 24.753 18.1274 24.9302 18.1143 25.1514L17.9639 27.7098C17.9582 27.8074 17.9849 27.904 18.0401 27.9847C18.5848 28.7818 19.0828 29.9346 19.5223 31.4086C19.4605 32.3615 17.7545 32.4413 14.277 32.446V18.6831C16.537 18.5653 18.1032 17.5355 18.4029 16.0034ZM22.2 37.3945L22.3214 37.502L21.5262 40.7867C21.4872 37.5548 21.2108 34.0132 20.3905 31.2298C19.9419 29.7074 19.4253 28.4921 18.8537 27.6141L18.9755 25.5414C19.1263 25.4925 19.2703 25.42 19.4077 25.329L22.5739 35.7289C22.195 36.3696 22.0711 36.924 22.0608 36.9727C22.028 37.1281 22.0811 37.2893 22.2 37.3945ZM15.406 11.743C15.3722 11.7638 14.7315 12.35 13.8355 12.35C12.9395 12.35 12.2988 11.764 12.2651 11.7432C11.3359 10.9688 10.7099 9.53086 10.7099 7.88702V7.01982C11.4341 6.82686 13.0527 6.27603 13.8353 5.06138C14.6181 6.27603 16.2367 6.82686 16.9607 7.01982V7.88702C16.9607 9.53068 16.3349 10.9685 15.406 11.743ZM8.46455 11.2026C7.10266 9.19542 8.46843 5.69677 8.48256 5.66164C8.50321 5.60974 8.51398 5.55412 8.51398 5.49834C8.51398 4.14298 8.92163 3.06339 9.72545 2.28941C11.2072 0.862726 13.7401 0.878086 13.8353 0.881617C13.9153 0.877909 16.4482 0.852133 17.9413 2.2857C18.7476 3.06004 19.1566 4.14086 19.1566 5.49834C19.1566 5.5543 19.1672 5.60991 19.188 5.66199C19.2022 5.69713 20.5708 9.18818 19.2071 11.2008C18.616 12.0731 17.5631 12.5518 16.0771 12.6296V12.3122C17.1415 11.3504 17.8436 9.72718 17.8436 7.8872V6.67096C17.8436 6.4554 17.689 6.27656 17.4847 6.23789V6.23736C17.4526 6.23118 14.2769 5.60373 14.2769 3.55631C14.2769 3.3125 14.0793 3.11494 13.8355 3.11494C13.5917 3.11494 13.3941 3.3125 13.3941 3.55631C13.3941 5.59138 10.233 6.22818 10.1861 6.23736V6.23772C9.9818 6.27656 9.82732 6.45522 9.82732 6.67079V7.88702C9.82732 9.727 10.5295 11.35 11.5937 12.3118V12.6294C10.1084 12.5518 9.05581 12.0738 8.46455 11.2026ZM12.1378 15.3147C12.3362 15.2671 12.4762 15.0896 12.4762 14.8855V12.9144C12.9008 13.1194 13.3583 13.2327 13.8353 13.2327C14.3123 13.2327 14.7694 13.1194 15.1942 12.9146V14.8855C15.1942 15.0896 15.3342 15.2671 15.5326 15.3147L17.5421 15.7969C17.3181 17.0149 15.8871 17.8118 13.8353 17.8118C11.7831 17.8118 10.3522 17.0149 10.1282 15.7969L12.1378 15.3147ZM2.95768 39.723C2.9545 39.7334 2.95185 39.7438 2.94938 39.7542C2.88777 40.0266 2.72393 40.259 2.48771 40.4081C2.25149 40.5575 1.97113 40.6055 1.69907 40.5443C1.42648 40.4827 1.19432 40.3188 1.04514 40.0826C0.895956 39.8464 0.847758 39.5664 0.909549 39.2922L1.42454 36.9674L3.56235 37.7366L2.95768 39.723ZM9.63065 27.9847C9.68573 27.9042 9.71257 27.8074 9.70692 27.7098L9.55614 25.1514C9.54308 24.9302 9.36812 24.753 9.14708 24.7371C8.70942 24.7058 8.29047 24.2604 8.0539 23.5749C7.75042 22.696 7.80073 21.4822 8.48432 20.8626C8.66493 20.6989 8.6787 20.4198 8.51504 20.2392C8.35121 20.0586 8.07226 20.0446 7.89165 20.2086C6.87968 21.126 6.83396 22.746 7.21954 23.863C7.31275 24.1329 7.43086 24.3736 7.56575 24.5879L3.82011 36.8908L1.61715 36.0983L5.19595 19.9417C5.22561 19.813 5.95705 16.7834 8.91687 16.0877L9.26731 16.0036C9.56727 17.5357 11.1334 18.5653 13.3939 18.6833V32.4462C9.91665 32.4414 8.2105 32.3615 8.14853 31.4088C8.58796 29.9346 9.08653 28.7818 9.63065 27.9847ZM13.3939 74.1173H10.0874C10.9848 73.1801 11.3361 72.0988 11.4669 71.5312H13.3939V74.1173ZM13.3939 70.6485H11.4687C9.74505 61.1746 9.48765 54.4114 9.44933 52.6703H13.3941V70.6485H13.3939ZM17.5832 74.1173H14.2767V71.5312H16.2035C16.3343 72.0988 16.6858 73.1801 17.5832 74.1173ZM16.2017 70.6485H14.2767V52.6701H18.2213C18.1831 54.4107 17.9264 61.1691 16.2017 70.6485ZM18.8752 51.7873H7.64272C7.39061 49.6801 6.28348 39.36 7.83816 32.5896C8.30071 32.9617 8.91722 33.0781 9.19828 33.1301C10.2738 33.3291 11.8454 33.3291 13.8353 33.3291C15.825 33.3291 17.3966 33.3291 18.4722 33.1301C18.7525 33.0782 19.3672 32.9622 19.8294 32.5919C20.6891 36.3396 20.7267 41.135 20.5872 44.6667C20.5872 44.6667 18.881 51.7365 18.8752 51.7873ZM20.8624 52.0218C20.857 52.0377 20.8522 52.0539 20.8487 52.0702C20.7816 52.3698 20.4843 52.5594 20.1834 52.492C20.0385 52.4595 19.9149 52.3726 19.8349 52.2471C19.7553 52.1215 19.7292 51.9725 19.7599 51.835L21.4547 44.8337C21.4551 44.8321 21.4555 44.8305 21.4558 44.8287L23.0689 38.1646L24.7772 39.6785L24.8761 40.4788C24.8697 40.4922 20.8624 52.0218 20.8624 52.0218ZM25.3188 58.2114H28.2527L28.2564 72.0601H26.8458C26.5564 70.4011 25.3828 63.3717 25.3188 58.2114ZM24.8754 74.1173C25.1073 73.6159 25.5845 72.945 26.4766 72.943H28.2564L28.2568 74.1173H24.8754ZM34.4437 74.1173H31.0625L31.0628 72.943H32.8422C33.7345 72.945 34.2117 73.6162 34.4437 74.1173ZM32.4731 72.0603H31.0628L31.0665 58.2116H34.0004C33.9363 63.3706 32.7624 70.4009 32.4731 72.0603ZM37.066 57.3286H22.2529C22.3871 51.0012 25.3492 45.4018 25.9887 44.2647H33.3307C33.9704 45.4009 36.9321 50.9938 37.066 57.3286ZM26.0257 42.5892H33.2933L33.1955 43.3819H26.1237L26.0257 42.5892ZM33.8314 39.1287C33.7509 39.2 33.6994 39.2984 33.6861 39.405L33.4022 41.7065H25.917L25.6331 39.405C25.6199 39.2984 25.5683 39.2 25.4878 39.1287L22.9932 36.9178C23.1913 36.1899 24.4195 34.8736 25.3902 34.6527C25.4061 34.6492 27.2038 34.0261 27.2038 34.0261C27.296 34.9119 27.7176 36.1963 29.6596 36.1963C31.5995 36.1963 32.0224 34.9142 32.1154 34.0261C32.1154 34.0261 33.9137 34.6493 33.9294 34.6529C35.5353 35.0182 36.1414 36.364 36.3261 36.918L33.8314 39.1287ZM39.4838 52.2473C39.4042 52.3728 39.2806 52.4596 39.1351 52.4921C38.9907 52.5244 38.841 52.4987 38.7154 52.4189C38.5897 52.3392 38.5029 52.2155 38.4706 52.0705C38.4669 52.0541 38.4621 52.0377 38.4566 52.0218C38.4566 52.0218 34.4492 40.4918 34.443 40.4784L34.5417 39.6787L36.2501 38.1644L39.557 51.8274C39.5895 51.9725 39.5636 52.1217 39.4838 52.2473Z" fill="#1C1B1A"/>
<path d="M15.0247 9.75146C14.8148 9.75146 14.639 9.898 14.5943 10.0945C14.5072 10.151 14.2483 10.2516 13.8346 10.2516C13.4209 10.2516 13.162 10.151 13.0749 10.0945C13.0302 9.89818 12.8546 9.75146 12.6445 9.75146C12.4007 9.75146 12.2031 9.94902 12.2031 10.1928C12.2031 10.7472 12.874 11.1344 13.8344 11.1344C14.7948 11.1344 15.4657 10.7472 15.4657 10.1928C15.4661 9.94902 15.2685 9.75146 15.0247 9.75146Z" fill="#1C1B1A"/>
<path d="M12.4316 8.07071C12.4316 7.95419 12.3857 7.8412 12.3027 7.75822C12.1383 7.59403 11.8419 7.5958 11.6777 7.75822C11.5965 7.8412 11.5488 7.95419 11.5488 8.07071C11.5488 8.18723 11.5965 8.30022 11.6777 8.3832C11.7607 8.46441 11.8735 8.51208 11.9902 8.51208C12.1067 8.51208 12.2197 8.46441 12.3027 8.3832C12.3857 8.30022 12.4316 8.18723 12.4316 8.07071Z" fill="#1C1B1A"/>
<path d="M15.3662 7.75791C15.285 7.84088 15.2373 7.95388 15.2373 8.0704C15.2373 8.18692 15.285 8.29991 15.3662 8.38289C15.4492 8.4641 15.5622 8.51177 15.6787 8.51177C15.795 8.51177 15.9082 8.4641 15.9912 8.38289C16.0741 8.29991 16.12 8.18692 16.12 8.0704C16.12 7.95388 16.074 7.84088 15.9912 7.75791C15.827 7.59372 15.5304 7.59372 15.3662 7.75791Z" fill="#1C1B1A"/>
</svg>
