<svg width="81" height="75" viewBox="0 0 81 75" fill="none" xmlns="http://www.w3.org/2000/svg">
<path d="M29.7072 8.55791H30.6071C31.0388 8.55791 31.3902 8.24617 31.3902 7.86282V7.33008H28.9238V7.86282C28.9238 8.246 29.2753 8.55791 29.7072 8.55791ZM29.8558 7.64317C30.0144 7.48458 30.2992 7.48458 30.4576 7.64317C30.5379 7.72162 30.5838 7.83076 30.5838 7.94331C30.5838 8.05586 30.5377 8.16671 30.4576 8.24515C30.3793 8.3253 30.2685 8.36964 30.1575 8.36964C30.0449 8.36964 29.9339 8.3253 29.8556 8.24515C29.7753 8.16671 29.7311 8.05586 29.7311 7.94331C29.7313 7.83076 29.7755 7.72162 29.8558 7.64317Z" fill="#D8D5D4"/>
<path d="M29.0159 3.28296C29.5132 2.78517 29.9837 3.03961 30.3616 3.2439C30.7816 3.47088 31.357 3.78193 32.5184 3.7821C33.6804 3.78193 34.2558 3.47088 34.6757 3.2439C35.0537 3.03978 35.5234 2.785 36.0213 3.28296C36.4857 3.74697 36.5186 5.42398 36.4529 6.47736H36.5403C36.7758 6.47736 36.9666 6.66818 36.9666 6.90369V7.70757C37.2519 7.10372 37.4775 5.91716 37.1081 3.61004C36.8812 2.19207 36.6666 0.85271 32.5184 0.852539C28.3704 0.85271 28.1561 2.19207 27.9291 3.61004C27.5597 5.91716 27.7853 7.10372 28.0706 7.7074V6.90369C28.0706 6.66818 28.2615 6.47736 28.497 6.47736H28.5844C28.5188 5.42415 28.5517 3.74714 29.0159 3.28296Z" fill="#754C24"/>
<path d="M32.5187 12.5683C34.1487 12.5681 35.3726 11.9882 35.9947 9.27619C35.7916 9.36179 35.5673 9.41056 35.3308 9.41056H34.4309C33.529 9.41056 32.7952 8.71633 32.7952 7.86282V7.33008H32.2427V7.86282C32.2427 8.71616 31.5089 9.41056 30.6069 9.41056H29.707C29.4705 9.41056 29.2462 9.36179 29.043 9.27601C29.6652 11.9882 30.8891 12.5681 32.5187 12.5683ZM31.4144 10.3712C31.6149 10.3712 31.7829 10.5095 31.8286 10.6957C31.9115 10.7467 32.148 10.8354 32.5191 10.8354C32.8902 10.8354 33.1265 10.7467 33.2096 10.6955C33.2553 10.5093 33.4234 10.371 33.6238 10.371C33.8593 10.371 34.0501 10.5618 34.0501 10.7973C34.0501 11.3217 33.4207 11.688 32.5191 11.688C31.6177 11.688 30.9881 11.3219 30.9881 10.7973C30.9881 10.562 31.1789 10.3712 31.4144 10.3712Z" fill="#C69C6D"/>
<path d="M29.5827 13.9336C29.5757 13.92 29.5721 13.9049 29.5667 13.8906L28.7497 14.2837L28.6035 17.1665L30.7413 16.1928L29.5827 13.9336Z" fill="#A6D9FF"/>
<path d="M35.4539 13.9328L34.3047 16.1732L36.4235 17.0235L36.2788 14.2788L35.4699 13.8896C35.4645 13.9041 35.4609 13.9192 35.4539 13.9328Z" fill="#A6D9FF"/>
<path d="M33.6475 7.86282C33.6475 8.24617 33.9988 8.55791 34.4305 8.55791H35.3304C35.7624 8.55791 36.1139 8.24617 36.1139 7.86282V7.33008H33.6475V7.86282ZM34.5787 7.64317C34.739 7.48458 35.0223 7.48287 35.1824 7.64317C35.2609 7.72162 35.3069 7.83246 35.3069 7.94331C35.3069 8.05586 35.2607 8.16671 35.1824 8.24515C35.1023 8.3253 34.9933 8.36964 34.8806 8.36964C34.768 8.36964 34.6589 8.3253 34.5786 8.24515C34.5001 8.16671 34.4542 8.05586 34.4542 7.94331C34.4544 7.83076 34.5003 7.72162 34.5787 7.64317Z" fill="#D8D5D4"/>
<path d="M35.409 3.87446C35.3972 3.86338 35.387 3.8557 35.3797 3.85059C35.3205 3.86576 35.1895 3.93653 35.0824 3.99451C34.6392 4.23411 33.8977 4.63486 32.5209 4.6352C32.5207 4.6352 32.5207 4.6352 32.5205 4.6352C32.5204 4.6352 32.52 4.6352 32.5197 4.6352C32.5195 4.6352 32.5193 4.6352 32.519 4.6352C32.5188 4.6352 32.5188 4.6352 32.5187 4.6352C31.142 4.63486 30.4005 4.23394 29.9573 3.99451C29.8505 3.93687 29.7199 3.86627 29.6604 3.85076C29.6517 3.85707 29.6384 3.86815 29.6201 3.8864C29.4771 4.0924 29.3517 5.28288 29.439 6.47797H35.6012C35.688 5.28271 35.5616 4.09138 35.409 3.87446Z" fill="#C69C6D"/>
<path d="M26.4727 23.8513V36.3112L26.6651 37.1795H32.0916V35.8088L30.309 33.5636C30.2427 33.48 30.2101 33.3748 30.2176 33.2686L31.2379 18.7988L30.4492 17.262L28.3198 18.2319C28.2633 18.2577 28.2029 18.2703 28.1431 18.2703C28.0588 18.2703 27.9753 18.2454 27.9033 18.1965C27.7802 18.1129 27.7098 17.971 27.7173 17.8223L27.8752 14.7031C27.8752 14.7031 26.3445 15.4364 26.3177 15.4434C25.2766 15.7134 24.527 16.1538 23.9854 16.6385L26.4489 23.7109C26.4514 23.7183 26.4727 23.8411 26.4727 23.8513Z" fill="#A6D9FF"/>
<path d="M13.6438 12.0736C13.6438 11.8412 13.8301 11.6514 14.0625 11.6473C14.2983 11.6377 14.4881 11.826 14.4962 12.0584C14.5013 12.1384 14.6674 14.0726 18.4714 14.2075V13.371C18.4712 13.3666 18.4701 13.3623 18.4701 13.3577C18.4701 11.718 17.0678 10.4336 15.2779 10.4336C13.488 10.4336 12.0857 11.718 12.0857 13.3577C12.0857 13.3633 12.0842 13.3686 12.084 13.3742V13.9912C12.7121 13.6682 13.6438 13.0286 13.6438 12.0736Z" fill="#CCCCCC"/>
<path d="M14.1263 13.3359C13.6926 14.0334 12.966 14.4996 12.4375 14.7672H14.6229C14.8539 14.7672 15.0412 14.9516 15.0478 15.1813H15.5035C15.5101 14.9516 15.6974 14.7672 15.9286 14.7672H16.4034C15.1907 14.4314 14.5066 13.8644 14.1263 13.3359Z" fill="#E0B489"/>
<path d="M16.3564 16.1186C16.3564 16.4798 16.6504 16.7736 17.0116 16.7736H17.816C18.1772 16.7736 18.471 16.4798 18.471 16.1186V15.6201H16.3566V16.1186H16.3564ZM17.1124 15.8954C17.271 15.7368 17.5575 15.7368 17.7144 15.8954C17.7945 15.9738 17.8404 16.0846 17.8404 16.1972C17.8404 16.3097 17.7944 16.4189 17.7144 16.499C17.6359 16.5775 17.5266 16.6235 17.4141 16.6235C17.3017 16.6235 17.1926 16.5775 17.1122 16.499C17.0321 16.4189 16.9878 16.3097 16.9878 16.1972C16.9878 16.0846 17.0323 15.9738 17.1124 15.8954Z" fill="#D8D5D4"/>
<path d="M14.0947 26.8574L15.2774 30.274L16.4597 26.8574H14.0947Z" fill="#96564A"/>
<path d="M33.0307 38.0322H32.0078V38.6975H33.0307V38.0322Z" fill="#4D4D4D"/>
<path d="M24.4537 27.1932L24.7165 28.38L25.6064 23.8827L23.3356 17.3633C22.6983 18.2535 22.6047 19.0896 22.5985 19.1523C22.5972 19.166 22.5951 19.1815 22.5926 19.1951L21.7578 23.4492C23.8642 24.7122 24.4265 27.073 24.4537 27.1932Z" fill="#A6D9FF"/>
<path d="M20.9095 34.6954C21.4581 35.6328 21.8655 36.5401 22.1702 37.383H22.292L20.9515 32.6963C20.6556 33.4146 20.4912 33.9801 20.9095 34.6954Z" fill="#A6D9FF"/>
<path d="M31.1561 38.6975V38.0322H26.8555L27.0028 38.6975H31.1561Z" fill="#999999"/>
<path d="M15.7031 41.8441H22.1912C22.1671 40.8499 21.928 38.1242 20.1738 35.1255C19.491 33.9586 19.8883 33.0181 20.2727 32.1086C20.718 31.0549 21.1784 29.9654 20.3438 28.132C20.2713 27.9729 20.3034 27.7857 20.4248 27.6596L22.6327 25.367C22.0824 24.6492 21.2538 23.9473 20.0293 23.6595L18.5875 23.3135L15.7031 31.648V41.8441Z" fill="#C4806E"/>
<path d="M15.2774 9.58104C15.9162 9.58104 16.5161 9.71269 17.0482 9.94905C17.108 9.76419 17.1423 9.57132 17.1423 9.37487C17.1423 8.34656 16.3057 7.50977 15.2774 7.50977C14.2489 7.50977 13.4121 8.34639 13.4121 9.37487C13.4121 9.57115 13.4466 9.76419 13.5064 9.94922C14.0386 9.71269 14.6386 9.58104 15.2774 9.58104Z" fill="#CCCCCC"/>
<path d="M39.8327 39.4346C38.5513 39.4346 37.6158 40.1239 37.579 40.1443C36.7393 40.8125 36.2325 41.9467 36.0781 43.5197H37.1361L38.0681 42.035C38.1931 41.8357 38.4565 41.7756 38.6557 41.9005C38.712 41.9358 38.7558 41.9828 38.7889 42.0357L38.7901 42.035L39.7222 43.5197H43.5871C43.4852 42.4799 43.229 41.632 42.8247 40.9835C42.8032 40.9569 41.5894 39.4346 39.8327 39.4346Z" fill="#B79870"/>
<path d="M38.1431 38.2632L38.0469 38.698H38.759C38.896 38.6679 39.0288 38.6448 39.1562 38.6276L38.1431 38.2632Z" fill="#E5CBBD"/>
<path d="M33.8828 38.0322V38.6975H37.1729L37.3204 38.0322H33.8828Z" fill="#999999"/>
<path d="M38.3184 50.0197V50.5622C38.3922 50.7458 39.0259 51.2729 39.8291 51.2729C39.83 51.2729 39.8308 51.2729 39.8318 51.2729C39.8325 51.2729 39.8337 51.2729 39.8346 51.2729C40.6381 51.2729 41.272 50.7457 41.3456 50.5622V50.0195C40.8707 50.2209 40.3617 50.3318 39.8318 50.3318C39.3022 50.3318 38.7931 50.2209 38.3184 50.0197Z" fill="#D8B4A4"/>
<path d="M43.6348 44.3723H39.4859C39.3393 44.3723 39.2029 44.2969 39.1249 44.1726L38.4285 43.0635L37.7324 44.1726C37.6544 44.2969 37.518 44.3723 37.3714 44.3723H36.0293C36.0279 44.4492 36.0264 44.5261 36.0264 44.6049C36.0264 46.5089 36.8836 48.1605 38.1295 48.9623C38.13 48.9627 38.1307 48.9632 38.1314 48.9635C38.6437 49.2928 39.2211 49.4792 39.8321 49.4792C41.0963 49.4792 42.2177 48.6851 42.9102 47.4666C42.9133 47.461 42.9162 47.4553 42.9196 47.4499C43.3708 46.6486 43.6379 45.6663 43.6379 44.6049C43.6377 44.5263 43.6362 44.4492 43.6348 44.3723ZM38.0739 45.8631C37.9633 45.8631 37.8523 45.8171 37.7738 45.7386C37.6937 45.6585 37.6476 45.5493 37.6476 45.4368C37.6476 45.3242 37.6938 45.2151 37.7738 45.1349C37.9324 44.9763 38.2172 44.9763 38.3758 45.1349C38.4559 45.2151 38.5003 45.3242 38.5003 45.4368C38.5003 45.5493 38.4559 45.6585 38.3758 45.7386C38.2973 45.8171 38.1865 45.8631 38.0739 45.8631ZM39.8338 48.4709C39.8314 48.4709 39.8292 48.4709 39.8267 48.4709C39.4957 48.4709 39.178 48.4189 38.9319 48.324C38.4249 48.1288 38.3488 47.8102 38.3485 47.6378C38.3482 47.4023 38.5386 47.2111 38.7741 47.2108C38.7743 47.2108 38.7747 47.2108 38.7748 47.2108C38.9634 47.2108 39.1236 47.3334 39.1797 47.5033C39.2699 47.5503 39.4989 47.6136 39.832 47.6184C40.1686 47.6177 40.3942 47.5478 40.4841 47.5004C40.5397 47.33 40.6998 47.2067 40.8887 47.2064C40.8889 47.2064 40.8893 47.2064 40.8894 47.2064C41.1246 47.2064 41.3154 47.3969 41.3158 47.632C41.3166 48.2093 40.5721 48.4693 39.8338 48.4709ZM41.8904 45.7301C41.812 45.8102 41.7013 45.8563 41.5886 45.8563C41.4778 45.8563 41.3669 45.8102 41.2885 45.7301C41.2081 45.6516 41.1623 45.5425 41.1623 45.4299C41.1623 45.3174 41.2083 45.2065 41.2885 45.1281C41.4471 44.9695 41.7318 44.9695 41.8903 45.1281C41.9706 45.2065 42.0148 45.3174 42.0148 45.4299C42.0149 45.5425 41.9706 45.6516 41.8904 45.7301Z" fill="#D8B4A4"/>
<path d="M47.9649 14.4514C46.9363 13.5222 46.2589 11.9512 46.2589 10.1733V8.99847H46.2594C46.2592 8.79776 46.401 8.6187 46.6054 8.57965C46.6508 8.57078 49.7042 7.95567 49.7042 5.98995C49.7042 5.75445 49.895 5.56362 50.1305 5.56362C50.366 5.56362 50.5568 5.75445 50.5568 5.98995C50.5568 7.96761 53.6243 8.57368 53.6554 8.57948C53.8598 8.61836 54.0017 8.79742 54.0016 8.9983H54.0021V10.1731C54.0021 11.9512 53.3245 13.5223 52.2957 14.4514V14.7543C53.7313 14.6791 54.7481 14.2166 55.3191 13.3738C56.6363 11.4296 55.3143 8.05748 55.3007 8.02371C55.2807 7.97358 55.2703 7.91986 55.2703 7.86563C55.2703 6.55441 54.8754 5.51042 54.0964 4.76247C52.5994 3.32505 50.1709 3.40623 50.1477 3.40742C50.1424 3.40759 50.1373 3.40657 50.1318 3.40657C50.1257 3.40657 50.1199 3.40776 50.1138 3.40742C50.0892 3.40674 47.6506 3.33136 46.1603 4.76605C45.3837 5.51366 44.9901 6.55663 44.9901 7.86563C44.9901 7.91952 44.9797 7.97324 44.9598 8.02337C44.9463 8.05731 43.6271 11.4369 44.9426 13.3755C45.5137 14.2173 46.5302 14.6792 47.9647 14.7543V14.4514H47.9649Z" fill="#E0BC4B"/>
<path d="M38.3291 37.4236L40.4568 38.1891L44.075 26.3056C43.9447 26.0984 43.8306 25.8661 43.7406 25.6054C43.368 24.5264 43.4121 22.9616 44.3896 22.0754C44.5639 21.9171 44.8337 21.9304 44.9918 22.1049C45.1499 22.2794 45.1367 22.549 44.9623 22.707C44.3021 23.3056 44.2534 24.478 44.5465 25.3269C44.7752 25.9891 45.1799 26.4193 45.6024 26.4495C45.816 26.4649 45.9849 26.6361 45.9976 26.8498L46.1432 29.3209C46.1487 29.4151 46.1229 29.5085 46.0695 29.5865C45.5438 30.3564 45.0624 31.4703 44.6377 32.8943C44.6981 33.8143 46.3461 33.8912 49.7046 33.896V20.602C47.5211 20.4881 46.0081 19.4934 45.7186 18.0137L45.3799 18.095C44.4742 18.3078 43.7834 18.7538 43.2612 19.2654C43.221 19.3701 43.1407 19.4548 43.037 19.501C42.0834 20.5667 41.7904 21.7976 41.7861 21.817L38.3291 37.4236Z" fill="#B7C16F"/>
<path d="M53.1502 9.33702C52.4506 9.15063 50.8872 8.61857 50.1312 7.44531C49.3751 8.61857 47.8117 9.15063 47.1123 9.33702V10.1747C47.1123 12.5515 48.4665 14.4854 50.1312 14.4854C51.796 14.4854 53.1502 12.5515 53.1502 10.1747V9.33702ZM48.3502 10.7784C48.2378 10.7784 48.1268 10.7323 48.0484 10.6539C47.9682 10.5737 47.9239 10.4646 47.9239 10.352C47.9239 10.2395 47.9684 10.1303 48.0484 10.0502C48.2069 9.89159 48.4934 9.89159 48.652 10.0502C48.7305 10.1303 48.7765 10.2395 48.7765 10.352C48.7765 10.4646 48.7305 10.5737 48.652 10.6539C48.5721 10.7323 48.4612 10.7784 48.3502 10.7784ZM50.1312 13.3113C49.2035 13.3113 48.5555 12.9373 48.5555 12.4018C48.5555 12.1663 48.7463 11.9755 48.9818 11.9755C49.1846 11.9755 49.3545 12.1172 49.3976 12.3068C49.4817 12.3614 49.7318 12.4586 50.1314 12.4586C50.531 12.4586 50.7811 12.3614 50.8652 12.3068C50.9083 12.1172 51.078 11.9755 51.281 11.9755C51.5165 11.9755 51.7073 12.1663 51.7073 12.4018C51.7069 12.9373 51.0589 13.3113 50.1312 13.3113ZM52.2129 10.6539C52.1345 10.7323 52.0236 10.7784 51.9128 10.7784C51.8002 10.7784 51.6892 10.7323 51.6108 10.6539C51.5306 10.5737 51.4864 10.4646 51.4864 10.352C51.4864 10.2395 51.5308 10.1303 51.6108 10.0502C51.7695 9.89159 52.0558 9.89159 52.2127 10.0502C52.2929 10.1303 52.3372 10.2395 52.3372 10.352C52.3374 10.4646 52.2931 10.5737 52.2129 10.6539Z" fill="#E5CBBD"/>
<path d="M33.4524 15.9687L34.6492 13.6355V12.9551C34.0597 13.2706 33.3559 13.4206 32.5204 13.4208C32.5203 13.4208 32.5203 13.4208 32.5201 13.4208C32.5199 13.4208 32.5196 13.4208 32.5192 13.4208C32.5191 13.4208 32.5189 13.4208 32.5186 13.4208C32.5186 13.4208 32.5184 13.4208 32.5182 13.4208C31.683 13.4206 30.979 13.2704 30.3896 12.9551V13.6355L31.5864 15.9687H33.4524Z" fill="#C69C6D"/>
<path d="M33.1062 18.2843L33.8181 16.8967L33.6307 16.8213H31.4182L31.2266 16.9086L31.9326 18.2843H33.1062Z" fill="#999999"/>
<path d="M39.9141 26.3217L40.9533 21.6305C40.9743 21.5376 41.307 20.138 42.4009 18.9192C42.3336 18.599 42.1549 17.9949 41.7026 17.3633L39.4316 23.8827L39.9141 26.3217Z" fill="#A6D9FF"/>
<path d="M32.5198 34.9759L33.9591 33.1636L32.9699 19.1367H32.0701L31.0811 33.1636L32.5198 34.9759Z" fill="#999999"/>
<path d="M33.7997 18.7993L34.8202 33.269C34.8277 33.3755 34.7951 33.4807 34.7288 33.5641L32.9443 35.8112V37.1799H37.5093L38.5649 32.414V23.8516C38.5649 23.8422 38.5855 23.7198 38.5886 23.7114L41.0523 16.639C40.5107 16.1543 39.761 15.714 38.7199 15.4439C38.6931 15.4369 37.1551 14.7002 37.1551 14.7002L37.3105 17.6454C37.3181 17.7909 37.2511 17.9301 37.1328 18.0146C37.0593 18.0672 36.9723 18.0943 36.8848 18.0943C36.8313 18.0943 36.7772 18.0842 36.726 18.0636L34.6123 17.2154L33.7997 18.7993Z" fill="#A6D9FF"/>
<path d="M44.6455 30.4079L44.2816 28.5527L41.9023 36.368L42.1031 37.383H42.9426C43.1268 35.5923 43.4129 34.0312 43.799 32.7212C44.0582 31.8408 44.3418 31.0693 44.6455 30.4079Z" fill="#A6D9FF"/>
<path d="M42.8635 38.2363H42.4805L42.8181 38.8376C42.8323 38.6345 42.8473 38.4343 42.8635 38.2363Z" fill="#A6D9FF"/>
<path d="M23.6221 27.3798C23.6101 27.3285 23.4759 26.7748 23.1096 26.1025L21.2363 28.0476C21.8071 29.445 21.7179 30.5026 21.4604 31.3737L25.191 44.4146L27.2321 43.6765L23.6221 27.3798Z" fill="#C4806E"/>
<path d="M36.9294 72.2542H38.5696V68.5449H36.6387L36.9294 72.2542Z" fill="#D8B4A4"/>
<path d="M39.4219 74.1471H40.0088C39.9715 73.7223 39.8422 73.0514 39.4219 72.5845V74.1471Z" fill="#333333"/>
<path d="M43.6461 62.7129H36.0176V67.6931H39.0718L39.4077 64.3128C39.4311 64.0783 39.6407 63.9075 39.874 63.9307C40.0796 63.9511 40.2364 64.1147 40.2558 64.3127H40.256L40.5923 67.6931H43.6461V62.7129Z" fill="#5576A5"/>
<path d="M42.7347 72.2542L43.0255 68.5449H41.0947V72.2542H42.7347Z" fill="#D8B4A4"/>
<path d="M46.0953 57.382L47.9842 61.6849C47.9899 61.698 47.995 61.7113 47.9994 61.7248C48.0323 61.8263 48.2796 61.916 48.5787 61.8189C48.877 61.7222 49.0252 61.5045 48.9924 61.4028L47.2122 56.5703L46.0693 57.0205C46.0772 57.1384 46.0862 57.2593 46.0953 57.382Z" fill="#D8B4A4"/>
<path d="M43.1288 73.1074H41.0947V74.1473H44.403C44.3543 73.9219 44.255 73.647 44.0528 73.44C43.8347 73.2162 43.5323 73.1074 43.1288 73.1074Z" fill="#999999"/>
<path d="M35.215 55.1277C35.3068 54.9548 35.5046 54.8664 35.6946 54.914C35.8845 54.9613 36.0179 55.132 36.0179 55.3277V61.8601H43.6465V55.3277C43.6465 55.132 43.7796 54.9614 43.9698 54.914C44.1598 54.8664 44.3574 54.9549 44.4493 55.1277L45.1589 56.4628L47.8108 55.4183C47.8108 55.4183 46.2387 52.6773 46.2307 52.6565C46.2162 52.6224 45.7948 51.6691 43.9234 51.433C43.9144 51.4318 42.0256 51.0684 42.0256 51.0684C41.6618 51.6122 40.7696 52.1257 39.8346 52.1257C39.8339 52.1257 39.8332 52.1257 39.8325 52.1257C39.8322 52.1257 39.8318 52.1257 39.8315 52.1257C39.8308 52.1257 39.8301 52.1257 39.8295 52.1257C38.8943 52.1257 38.0017 51.6118 37.6383 51.0685C37.6383 51.0685 35.7497 51.4318 35.7406 51.433C33.869 51.6693 33.4478 52.6226 33.4308 52.663C33.4239 52.679 31.8535 55.4183 31.8535 55.4183L34.5055 56.4628L35.215 55.1277Z" fill="#F4A04D"/>
<path d="M35.7832 68.546H35.5918C35.3563 68.546 35.1655 68.3552 35.1655 68.1197V57.0391L35.0804 57.1994C34.9786 57.3907 34.7496 57.4756 34.5477 57.396L34.5018 57.3781L33.7871 59.0067L34.4568 71.1927H35.9907L35.7832 68.546Z" fill="#4D4D4D"/>
<path d="M35.6066 73.4434C35.4066 73.6501 35.308 73.9231 35.2598 74.1473H38.5683V73.1074H36.5338C36.1283 73.1076 35.8251 73.2174 35.6066 73.4434Z" fill="#999999"/>
<path d="M50.5576 71.6494V74.1474H53.7515C52.8847 73.2422 52.5453 72.1977 52.419 71.6494H50.5576Z" fill="#998675"/>
<path d="M50.1301 34.7493C48.208 34.7493 46.69 34.7493 45.6509 34.5572C45.3796 34.507 44.7841 34.3945 44.3373 34.0352C43.9231 35.8363 43.6695 38.0418 43.582 40.6129C44.1219 41.506 44.4893 42.7817 44.4893 44.6051C44.4893 45.7708 44.2038 46.8557 43.7152 47.7614C43.7746 48.6993 43.8496 49.6403 43.9367 50.5685L44.043 50.589C46.2469 50.8719 46.899 52.0708 47.009 52.3122L47.162 52.5786H56.1117C56.3549 50.5431 57.4243 40.5747 55.9226 34.0352C55.4759 34.3945 54.8804 34.507 54.609 34.5572C53.5701 34.7493 52.0518 34.7493 50.1301 34.7493Z" fill="#767743"/>
<path d="M58.4757 21.8148C58.4476 21.6936 57.7408 18.7671 54.8838 18.0954L54.5433 18.0137C54.2537 19.4935 52.7409 20.4883 50.5576 20.6022V33.8961C53.9159 33.8915 55.5637 33.8145 55.6241 32.8944C55.2 31.4705 54.7186 30.3568 54.1923 29.5866C54.1391 29.5087 54.1132 29.4154 54.1187 29.3211L54.2643 26.8499C54.2769 26.6363 54.4459 26.4651 54.6594 26.4497C55.0822 26.4193 55.487 25.9891 55.7157 25.3268C56.0087 24.4778 55.9601 23.3056 55.2999 22.7072C55.1255 22.549 55.1122 22.2795 55.2703 22.1049C55.4285 21.9308 55.698 21.9171 55.8724 22.0754C56.8499 22.9613 56.8941 24.5261 56.5216 25.6051C56.4316 25.866 56.3173 26.0986 56.187 26.3058L59.8052 38.1893L61.9333 37.4238L58.4757 21.8148Z" fill="#B7C16F"/>
<path d="M50.5576 70.7964H52.4171C54.0828 61.6401 54.3308 55.1119 54.3676 53.4307H50.5576V70.7964Z" fill="#E5CBBD"/>
<path d="M62.1198 38.2632L60.0547 39.006C60.0547 39.006 60.643 40.9455 60.6469 40.9554C60.7534 41.2315 60.8645 41.4427 61.0927 41.5868C61.3209 41.7311 61.5912 41.7777 61.8545 41.7183C62.3978 41.5957 62.7402 41.0539 62.6178 40.5104L62.1198 38.2632Z" fill="#E5CBBD"/>
<path d="M46.5098 74.1474H49.7038V71.6494H47.8423C47.7161 72.1977 47.3766 73.2422 46.5098 74.1474Z" fill="#998675"/>
<path d="M48.8421 62.6298C48.6663 62.687 48.4908 62.7139 48.3229 62.7139C47.8002 62.7139 47.3518 62.4511 47.1967 62.0105L46.3242 60.0234C46.6066 62.8935 47.0732 66.5565 47.8447 70.7966H49.7045V61.9571C49.5382 62.2542 49.2357 62.5023 48.8421 62.6298Z" fill="#E5CBBD"/>
<path d="M30.6653 61.4189C30.638 61.5045 30.7864 61.7222 31.085 61.8191C31.3834 61.9158 31.631 61.8263 31.6641 61.7248C31.6684 61.7112 31.6735 61.6979 31.6793 61.6849L33.7076 57.065L32.4516 56.5703L30.6653 61.4189Z" fill="#D8B4A4"/>
<path d="M48.7956 55.4213C48.8571 55.5287 48.8693 55.6576 48.8282 55.7746C48.7872 55.8914 48.6974 55.9849 48.5821 56.0302L48.0057 56.2572L49.7043 60.8689V53.4307H47.6523L48.7956 55.4213Z" fill="#E5CBBD"/>
<path d="M36.0574 72.0449H34.4795V73.7714C34.5683 73.469 34.7227 73.1321 34.995 72.8507C35.2815 72.5546 35.6442 72.3677 36.077 72.2927L36.0574 72.0449Z" fill="#333333"/>
<path d="M14.8511 31.648L11.9664 23.3135L10.5264 23.659C9.30131 23.947 8.47235 24.6491 7.92188 25.3672L10.1291 27.6596C10.2505 27.7855 10.2824 27.9727 10.2101 28.132C9.37549 29.9654 9.83592 31.0551 10.2812 32.1086C10.6656 33.0181 11.0629 33.9587 10.3801 35.1255C8.61952 38.1346 8.38402 40.8521 8.36168 41.8441H14.8511V31.648Z" fill="#C4806E"/>
<path d="M7.44558 26.1025C7.07894 26.7753 6.94456 27.33 6.93228 27.3826L3.3252 43.668L5.38061 44.3588L9.09616 31.379C8.83729 30.5069 8.74657 29.4477 9.31853 28.0476L7.44558 26.1025Z" fill="#C4806E"/>
<path d="M10.9688 74.1473H14.8502V72.6533H12.6475C12.4877 72.662 11.349 72.772 10.9688 74.1473Z" fill="#998675"/>
<path d="M12.9913 71.8009H14.8511V59.0088H11.3613C11.6231 62.2504 12.1115 66.9382 12.9913 71.8009Z" fill="#E0B489"/>
<path d="M15.7031 71.8009H17.5626C18.4422 66.9382 18.9306 62.2504 19.1925 59.0088H15.7031V71.8009Z" fill="#E0B489"/>
<path d="M15.7031 72.6533V74.1473H19.5843C19.2035 72.7706 18.0626 72.6618 17.905 72.6533H15.7031Z" fill="#998675"/>
<path d="M15.2771 20.3084C16.6742 20.3084 17.864 19.1517 18.296 17.5465C18.1449 17.5974 17.9838 17.6263 17.8156 17.6263H17.0112C16.1797 17.6263 15.5034 16.9499 15.5034 16.1186V16.0342H15.0503V16.1186C15.0503 16.9499 14.3741 17.6263 13.5428 17.6263H12.7382C12.5701 17.6263 12.4087 17.5973 12.2578 17.5465C12.6899 19.1517 13.8797 20.3084 15.2771 20.3084ZM14.1275 17.7809C14.3301 17.7809 14.5001 17.9226 14.5433 18.1123C14.6274 18.1668 14.8775 18.2641 15.2771 18.2641C15.6766 18.2641 15.9268 18.1668 16.0109 18.1123C16.054 17.9226 16.2239 17.7809 16.4265 17.7809C16.662 17.7809 16.8528 17.9718 16.8528 18.2073C16.8528 18.7427 16.2048 19.1167 15.2771 19.1167C14.3494 19.1167 13.7014 18.7427 13.7014 18.2073C13.7012 17.9718 13.892 17.7809 14.1275 17.7809Z" fill="#E0B489"/>
<path d="M12.7388 16.7736H13.5434C13.9044 16.7736 14.1982 16.4798 14.1982 16.1186V15.6201H12.084V16.1186C12.0838 16.4798 12.3776 16.7736 12.7388 16.7736ZM12.8389 15.8954C12.9994 15.7368 13.2825 15.7368 13.4428 15.8954C13.5229 15.9755 13.5671 16.0846 13.5671 16.1972C13.5671 16.308 13.5228 16.4189 13.4428 16.499C13.3625 16.5775 13.2535 16.6235 13.1408 16.6235C13.0284 16.6235 12.9191 16.5775 12.8388 16.499C12.7605 16.4189 12.7144 16.308 12.7144 16.1972C12.7146 16.0846 12.7607 15.9755 12.8389 15.8954Z" fill="#D8D5D4"/>
<path d="M16.7551 26.0049L17.7553 23.1148L16.9171 22.9137C16.7253 22.8677 16.5902 22.6963 16.5902 22.4992V20.8929C16.1784 21.0662 15.737 21.1615 15.2778 21.1615C14.8182 21.1615 14.3769 21.066 13.9647 20.8926V22.499C13.9647 22.6961 13.8296 22.8675 13.6378 22.9135L12.7998 23.1146L13.8 26.0048H16.7551V26.0049Z" fill="#E0B489"/>
<path d="M3.06833 44.8214C3.73545 45.1725 4.19196 45.8719 4.19196 46.6766C4.19196 46.9121 4.00114 47.1029 3.76563 47.1029C3.53013 47.1029 3.3393 46.9121 3.3393 46.6766C3.3393 46.2846 3.15649 45.935 2.87239 45.7068L2.79104 46.0733C2.73119 46.3383 2.77791 46.6087 2.92201 46.8369C3.06611 47.0649 3.29036 47.2233 3.55349 47.2828C3.81662 47.342 4.08708 47.2956 4.31543 47.1514C4.5436 47.0073 4.70202 46.783 4.76137 46.5197C4.76324 46.5119 4.76529 46.504 4.76734 46.4964L5.14455 45.179L3.13842 44.5049L3.06833 44.8214Z" fill="#E0B489"/>
<path d="M25.6394 72.556C25.2021 73.0193 25.0698 73.7127 25.0312 74.1476H30.5602V72.0449H26.9791C26.402 72.0451 25.9637 72.2122 25.6394 72.556Z" fill="#333333"/>
<path d="M26.238 47.1512C26.4662 47.2955 26.7368 47.3418 26.9998 47.2827C27.5433 47.1601 27.8855 46.6181 27.7631 46.0748L27.4178 44.5156L25.4258 45.236L25.7863 46.4964C25.7887 46.504 26.0099 47.0071 26.238 47.1512Z" fill="#E0B489"/>
<path d="M29.8592 61.1393L31.3582 57.0694L31.4084 56.1587L31.0811 56.03C30.9657 55.9846 30.8761 55.8912 30.835 55.7744C30.7941 55.6574 30.8059 55.5285 30.8676 55.421L31.5107 54.3013L32.0937 43.6884C32.1065 43.4534 32.3096 43.2715 32.5427 43.2862C32.7619 43.2983 32.9312 43.4742 32.943 43.6884H32.9437L33.3705 51.4505C33.8236 51.09 34.5322 50.7275 35.6195 50.588L37.4653 50.2326V49.5343C36.0946 48.5361 35.1732 46.7004 35.1732 44.6039C35.1732 41.8811 35.9904 40.3752 36.9822 39.5498H27.1903L28.5941 45.8881C28.8197 46.8885 28.1884 47.8876 27.1865 48.1136C27.0491 48.1446 26.9104 48.1599 26.7728 48.1599C26.6718 48.1599 26.5717 48.1494 26.4727 48.1328V71.1909H30.5821L31.0494 62.6853C30.974 62.6715 30.8978 62.6536 30.8216 62.6289C30.0879 62.3915 29.6653 61.737 29.8592 61.1393Z" fill="#4D4D4D"/>
<path d="M22.487 38.3601L22.5354 38.2363H22.4512C22.4636 38.2781 22.4752 38.3189 22.487 38.3601Z" fill="#A6D9FF"/>
<path d="M8.32013 42.6973C8.21678 43.9 8.04728 48.3107 9.68387 58.1558H20.8697C22.5121 48.2757 22.3394 43.893 22.2345 42.6973H8.32013Z" fill="#96564A"/>
<path d="M50.1306 19.7604C52.1126 19.7604 53.4949 18.9907 53.7111 17.8142L51.7701 17.3484C51.5784 17.3024 51.4432 17.131 51.4432 16.9339V15.0312C51.0333 15.2291 50.5912 15.3374 50.1306 15.3374C49.67 15.3374 49.2278 15.2289 48.8177 15.0312V16.934C48.8177 17.1312 48.6825 17.3026 48.4908 17.3486L46.5498 17.8143C46.7662 18.9907 48.1484 19.7604 50.1306 19.7604Z" fill="#E5CBBD"/>
<path d="M15.2771 19.117C16.2049 19.117 16.8528 18.743 16.8528 18.2076C16.8528 17.9721 16.6619 17.7812 16.4264 17.7812C16.2238 17.7812 16.0538 17.923 16.0109 18.1126C15.9268 18.1672 15.6766 18.2644 15.2771 18.2644C14.8775 18.2644 14.6273 18.1672 14.5433 18.1126C14.5001 17.923 14.3303 17.7812 14.1275 17.7812C13.892 17.7812 13.7012 17.9721 13.7012 18.2076C13.7013 18.743 14.3492 19.117 15.2771 19.117Z" fill="#1C1B1A"/>
<path d="M13.141 16.6235C13.2536 16.6235 13.3627 16.5774 13.443 16.499C13.5232 16.4188 13.5673 16.308 13.5673 16.1972C13.5673 16.0846 13.523 15.9755 13.443 15.8953C13.2827 15.7367 12.9996 15.7367 12.8392 15.8953C12.7609 15.9755 12.7148 16.0846 12.7148 16.1972C12.7148 16.308 12.7611 16.4188 12.8392 16.499C12.9193 16.5774 13.0285 16.6235 13.141 16.6235Z" fill="#1C1B1A"/>
<path d="M17.4144 16.6235C17.527 16.6235 17.6363 16.5774 17.7147 16.499C17.7949 16.4188 17.8408 16.3097 17.8408 16.1972C17.8408 16.0846 17.7947 15.9738 17.7147 15.8953C17.5579 15.7367 17.2712 15.7367 17.1128 15.8953C17.0326 15.9738 16.9883 16.0846 16.9883 16.1972C16.9883 16.3097 17.0328 16.4188 17.1128 16.499C17.1929 16.5774 17.3021 16.6235 17.4144 16.6235Z" fill="#1C1B1A"/>
<path d="M40.8886 47.2061C40.8884 47.2061 40.8881 47.2061 40.8879 47.2061C40.699 47.2062 40.5388 47.3297 40.4832 47.5001C40.3934 47.5476 40.1676 47.6174 39.8311 47.6181C39.4981 47.6133 39.269 47.5502 39.1788 47.5029C39.1227 47.3331 38.9626 47.2105 38.774 47.2105C38.7738 47.2105 38.7735 47.2105 38.7733 47.2105C38.5378 47.2108 38.3473 47.402 38.3477 47.6375C38.348 47.8099 38.4241 48.1285 38.931 48.3237C39.1771 48.4185 39.4948 48.4705 39.8258 48.4705C39.8284 48.4705 39.8306 48.4705 39.833 48.4705C40.5712 48.469 41.3158 48.209 41.3149 47.6315C41.3146 47.3965 41.1237 47.2061 40.8886 47.2061Z" fill="#1C1B1A"/>
<path d="M38.5011 45.4364C38.5011 45.3239 38.4568 45.2147 38.3766 45.1346C38.2178 44.976 37.9331 44.976 37.7746 45.1346C37.6945 45.2147 37.6484 45.3239 37.6484 45.4364C37.6484 45.549 37.6947 45.6581 37.7746 45.7382C37.8531 45.8167 37.9639 45.8627 38.0748 45.8627C38.1873 45.8627 38.2983 45.8167 38.3766 45.7382C38.4568 45.6581 38.5011 45.549 38.5011 45.4364Z" fill="#1C1B1A"/>
<path d="M41.2883 45.1277C41.208 45.2062 41.1621 45.317 41.1621 45.4296C41.1621 45.5421 41.2082 45.6513 41.2883 45.7297C41.3668 45.8099 41.4774 45.8559 41.5884 45.8559C41.701 45.8559 41.8118 45.8099 41.8903 45.7297C41.9706 45.6513 42.0148 45.5421 42.0148 45.4296C42.0148 45.317 41.9704 45.2062 41.8903 45.1277C41.7317 44.9691 41.4469 44.9691 41.2883 45.1277Z" fill="#1C1B1A"/>
<path d="M51.2801 11.9746C51.0772 11.9746 50.9075 12.1163 50.8644 12.306C50.7803 12.3605 50.5301 12.4577 50.1306 12.4577C49.731 12.4577 49.4808 12.3605 49.3968 12.306C49.3536 12.1163 49.1839 11.9746 48.981 11.9746C48.7455 11.9746 48.5547 12.1654 48.5547 12.4009C48.5547 12.9364 49.2027 13.3104 50.1304 13.3104C51.0581 13.3104 51.7061 12.9364 51.7061 12.4009C51.7065 12.1654 51.5156 11.9746 51.2801 11.9746Z" fill="#1C1B1A"/>
<path d="M48.7765 10.3515C48.7765 10.2389 48.7304 10.1298 48.652 10.0496C48.4934 9.89102 48.2069 9.89102 48.0483 10.0496C47.9682 10.1298 47.9238 10.2389 47.9238 10.3515C47.9238 10.464 47.9683 10.5731 48.0483 10.6533C48.1268 10.7317 48.2376 10.7778 48.3502 10.7778C48.461 10.7778 48.572 10.7317 48.652 10.6533C48.7306 10.5731 48.7765 10.464 48.7765 10.3515Z" fill="#1C1B1A"/>
<path d="M51.6106 10.0496C51.5305 10.1298 51.4863 10.2389 51.4863 10.3515C51.4863 10.464 51.5307 10.5731 51.6106 10.6533C51.6891 10.7317 51.7999 10.7778 51.9127 10.7778C52.0233 10.7778 52.1344 10.7317 52.2128 10.6533C52.2929 10.5731 52.3373 10.464 52.3373 10.3515C52.3373 10.2389 52.2928 10.1298 52.2128 10.0496C52.0557 9.89102 51.7692 9.89102 51.6106 10.0496Z" fill="#1C1B1A"/>
<path d="M59.3073 21.6285C59.2744 21.4832 58.4617 18.0608 55.0804 17.266L52.2961 16.5978V15.6093C54.0359 15.5276 55.2901 14.9386 56.0255 13.8531C57.4878 11.6946 56.3351 8.35298 56.1228 7.78648C56.1065 6.2713 55.6237 5.04757 54.6873 4.14852C52.9815 2.5104 50.3829 2.54808 50.13 2.55593C49.8679 2.5486 47.2762 2.51398 45.5737 4.14869C44.6373 5.04774 44.1546 6.27147 44.1382 7.78665C43.9259 8.35315 42.7734 11.6949 44.2357 13.8533C44.9712 14.9389 46.2253 15.5279 47.9649 15.6094V16.598L45.1825 17.2656C44.3389 17.464 43.6553 17.8257 43.1036 18.2592C42.7537 17.1891 41.76 15.3671 38.9752 14.6296L35.5016 12.9589V12.3001C36.1757 11.5858 36.6326 10.5133 36.9184 9.03085C37.4948 8.71349 38.6051 7.56325 37.9508 3.47544C37.6575 1.64427 37.0216 0.000341063 32.5201 0C32.5201 0 32.5201 0 32.5199 0C32.5197 0 32.5194 0 32.519 0C32.5189 0 32.5187 0 32.5183 0H32.5182C28.0168 0.000341063 27.3807 1.64427 27.0876 3.47544C26.4334 7.56308 27.5436 8.71332 28.12 9.03068C28.4058 10.5131 28.8625 11.5856 29.5368 12.2999V12.9587L26.0634 14.6294C22.2315 15.6442 21.789 18.7141 21.7518 19.0501L20.965 23.0613C20.7332 22.971 20.4884 22.892 20.2266 22.8304L17.4423 22.1623V20.3898C18.5718 19.5114 19.3233 17.9686 19.3233 16.2143C19.3233 16.2143 19.3217 13.3453 19.3214 13.3393C19.3156 12.1272 18.7274 11.0675 17.7989 10.3847C17.927 10.0649 17.9945 9.72184 17.9945 9.37413C17.9945 7.87549 16.7755 6.65636 15.2769 6.65636C13.7783 6.65636 12.559 7.87549 12.559 9.37413C12.559 9.72184 12.6267 10.0649 12.7547 10.385C11.8274 11.0668 11.2397 12.1246 11.2326 13.3349C11.2321 13.3424 11.2302 16.2143 11.2302 16.2143C11.2302 17.9684 11.9816 19.5109 13.1108 20.3895V22.1623L10.3284 22.8299C6.94524 23.6253 6.133 27.0477 6.09958 27.195L2.24744 44.5881C2.1973 44.5845 2.14733 44.5804 2.09635 44.5804C0.940482 44.5804 0 45.5207 0 46.6767V74.5737C0 74.8092 0.190825 75 0.426329 75C0.661833 75 0.852658 74.8092 0.852658 74.5737V46.6766C0.852658 46.0031 1.39103 45.4544 2.05985 45.4348L1.95958 45.887C1.84993 46.3723 1.93588 46.8713 2.20156 47.292C2.46742 47.7127 2.88079 48.0047 3.36629 48.1143C3.50391 48.1454 3.64256 48.1607 3.78018 48.1607C4.12823 48.1607 4.46981 48.0626 4.77131 47.8722C5.18826 47.6087 5.47884 47.1999 5.59071 46.7201L9.60383 32.7006C9.89851 33.4169 10.0615 33.9815 9.64374 34.6954C7.4258 38.4859 7.49009 41.7965 7.51039 42.2489C7.4345 42.7668 6.93842 46.9922 8.90261 58.6528C8.93705 58.8582 9.11475 59.0084 9.32297 59.0084H10.5056C10.7662 62.2553 11.2551 66.9731 12.1383 71.8765C11.3226 72.0916 10.2387 72.8044 10.0298 74.522C10.0152 74.6432 10.0532 74.7648 10.134 74.8562C10.215 74.9476 10.331 74.9998 10.4531 74.9998H20.1004C20.2225 74.9998 20.3385 74.9475 20.4195 74.8562C20.5005 74.7648 20.5383 74.6432 20.5237 74.522C20.3146 72.8046 19.2309 72.0918 18.4152 71.8765C19.2986 66.9731 19.7873 62.2553 20.0479 59.0084H21.2305C21.4387 59.0084 21.6164 58.8582 21.6509 58.6528C23.6154 46.9869 23.1185 42.7629 23.0428 42.248C23.0533 42.0118 23.0743 41.01 22.7846 39.5712L22.8729 39.4141L24.9628 46.7199C25.0593 47.135 25.2902 47.4963 25.6203 47.7571V71.5079C25.3976 71.6281 25.1964 71.7817 25.0185 71.9702C24.0823 72.962 24.1616 74.5317 24.1654 74.5981C24.1783 74.8237 24.3651 74.9998 24.5908 74.9998H30.9858C31.2213 74.9998 31.4121 74.809 31.4121 74.5735V71.6294L31.9087 62.5957C32.1699 62.4782 32.3731 62.2777 32.467 62.0103L33.027 60.7343L33.6259 71.6293V74.5733C33.6259 74.8088 33.8168 74.9997 34.0523 74.9997H54.954C55.1448 74.9997 55.3126 74.8728 55.3643 74.6891C55.4161 74.5053 55.3396 74.3097 55.1767 74.2098C53.6094 73.2485 53.2579 71.5563 53.2037 71.2295C54.9289 61.8524 55.1825 55.1383 55.2194 53.4305H56.4886C56.7021 53.4305 56.8827 53.2724 56.9112 53.0608C56.982 52.5328 58.6204 40.0448 56.462 32.7209C56.0289 31.2504 55.5299 30.0765 54.9775 29.2283L55.0954 27.2262C55.2408 27.179 55.3802 27.1089 55.5128 27.0211L59.8171 41.1588C59.9293 41.6372 60.2195 42.0446 60.6356 42.3074C60.9371 42.4979 61.2787 42.5959 61.6267 42.5959C61.7644 42.5959 61.903 42.5806 62.0406 42.5495C63.0425 42.3234 63.6736 41.3243 63.448 40.3241L59.3073 21.6285ZM50.1309 14.4846C48.4661 14.4846 47.1119 12.5508 47.1119 10.1739V9.33627C47.8115 9.14988 49.3749 8.61782 50.1309 7.44456C50.887 8.61782 52.4504 9.14988 53.1498 9.33627V10.1739C53.1498 12.551 51.7956 14.4846 50.1309 14.4846ZM44.9431 13.3763C43.6275 11.4377 44.9467 8.05813 44.9603 8.0242C44.9803 7.97406 44.9907 7.92034 44.9907 7.86646C44.9907 6.55745 45.3844 5.51448 46.1609 4.76687C47.651 3.33219 50.0898 3.40756 50.1143 3.40825C50.1204 3.40859 50.1263 3.40722 50.1324 3.40739C50.1377 3.40739 50.1428 3.40859 50.1483 3.40825C50.1716 3.40705 52.6 3.32605 54.0969 4.76329C54.8757 5.51124 55.2709 6.55524 55.2709 7.86646C55.2709 7.92051 55.2812 7.97423 55.3012 8.02454C55.3148 8.05847 56.6368 11.4306 55.3196 13.3746C54.7485 14.2172 53.7318 14.6799 52.2963 14.7551V14.4522C53.3251 13.5232 54.0026 11.9521 54.0026 10.1739V8.99913H54.0021C54.0023 8.79824 53.8604 8.61918 53.6559 8.5803C53.6249 8.57433 50.5574 7.96826 50.5574 5.99078C50.5574 5.75527 50.3665 5.56445 50.131 5.56445C49.8955 5.56445 49.7047 5.75527 49.7047 5.99078C49.7047 7.9565 46.6513 8.5716 46.606 8.58047C46.4015 8.61935 46.2598 8.79841 46.26 8.9993H46.2593V10.1741C46.2593 11.9521 46.9368 13.523 47.9653 14.452V14.7553C46.5306 14.68 45.5142 14.2181 44.9431 13.3763ZM48.491 17.3485C48.6827 17.3025 48.8179 17.1311 48.8179 16.934V15.0312C49.2281 15.229 49.6703 15.3373 50.1309 15.3373C50.5915 15.3373 51.0335 15.229 51.4434 15.0312V16.9338C51.4434 17.1309 51.5787 17.3023 51.7703 17.3484L53.7113 17.8141C53.4951 18.9904 52.1128 19.7604 50.1309 19.7604C48.1486 19.7604 46.7664 18.9906 46.55 17.8141L48.491 17.3485ZM43.2612 19.2655C43.7832 18.7541 44.474 18.3081 45.3798 18.0951L45.7185 18.0138C46.0081 19.4935 47.521 20.4882 49.7045 20.6021V33.8961C46.3461 33.8915 44.6982 33.8144 44.6377 32.8944C45.0621 31.4703 45.5435 30.3565 46.0695 29.5866C46.1227 29.5086 46.1486 29.4153 46.1431 29.321L45.9975 26.8499C45.9849 26.6362 45.8159 26.465 45.6024 26.4496C45.1796 26.4194 44.775 25.9892 44.5465 25.327C44.2531 24.4781 44.3019 23.3055 44.9622 22.7071C45.1365 22.5491 45.1498 22.2795 44.9917 22.105C44.8335 21.9307 44.5639 21.9172 44.3896 22.0755C43.4121 22.9616 43.3681 24.5264 43.7405 25.6055C43.8306 25.8662 43.9446 26.0987 44.0749 26.3057L40.4568 38.1892L38.329 37.4237L41.7862 21.8168C41.7905 21.7974 42.0835 20.5665 43.0371 19.5008C43.1406 19.4549 43.2207 19.37 43.2612 19.2655ZM42.9192 47.4496C42.9158 47.455 42.9129 47.4607 42.9099 47.4663C42.2173 48.6847 41.0959 49.4789 39.8318 49.4789C39.2207 49.4789 38.6433 49.2925 38.1311 48.9632C38.1304 48.9629 38.1297 48.9624 38.1292 48.962C36.8833 48.1602 36.026 46.5088 36.026 44.6046C36.026 44.526 36.0275 44.4489 36.0289 44.372H37.371C37.5177 44.372 37.6541 44.2966 37.732 44.1723L38.4281 43.0632L39.1246 44.1723C39.2025 44.2965 39.3389 44.372 39.4856 44.372H43.6345C43.6358 44.4489 43.6374 44.5258 43.6374 44.6046C43.6375 45.666 43.3705 46.6483 42.9192 47.4496ZM43.0667 50.4005L42.1982 50.2333V49.5348C42.4632 49.3418 42.7115 49.1179 42.9395 48.8665C42.9777 49.3802 43.0204 49.8909 43.0667 50.4005ZM41.3456 50.0193V50.562C41.2717 50.7455 40.638 51.2727 39.8345 51.2727C39.8336 51.2727 39.8324 51.2727 39.8318 51.2727C39.8307 51.2727 39.8299 51.2727 39.829 51.2727C39.0258 51.2727 38.392 50.7455 38.3183 50.562V50.0195C38.7931 50.2207 39.3021 50.3316 39.8318 50.3316C40.3618 50.3316 40.8706 50.2207 41.3456 50.0193ZM39.7214 43.5193L38.7893 42.0347L38.7881 42.0354C38.755 41.9825 38.7112 41.9354 38.6549 41.9001C38.4557 41.7753 38.1923 41.8353 38.0673 42.0347L37.1353 43.5193H36.0773C36.2315 41.9464 36.7385 40.8122 37.5782 40.144C37.615 40.1237 38.5506 39.4343 39.8319 39.4343C41.5886 39.4343 42.8024 40.9566 42.8241 40.983C43.2284 41.6316 43.4846 42.4794 43.5865 43.5192H39.7214V43.5193ZM37.1733 38.6979H33.8833V38.0327H37.3207L37.1733 38.6979ZM38.0466 38.6979L38.1428 38.263L39.1558 38.6275C39.0284 38.6447 38.8955 38.6675 38.7586 38.6979H38.0466ZM41.1727 38.7649L41.3933 38.0398L41.981 39.086C41.7095 38.9443 41.4363 38.84 41.1727 38.7649ZM42.4811 38.2358H42.8642C42.8478 38.4337 42.8328 38.6339 42.8188 38.8371L42.4811 38.2358ZM42.1031 37.3831L41.9024 36.3681L44.2816 28.5528L44.6455 30.408C44.3418 31.0693 44.0584 31.8408 43.7988 32.7211C43.4128 34.0313 43.1268 35.5922 42.9424 37.3829H42.1031V37.3831ZM44.8635 27.0893C44.9612 27.1442 45.0613 27.1926 45.1655 27.2266L45.2833 29.2288C45.2833 29.2288 45.2832 29.229 45.2832 29.2291L44.8635 27.0893ZM39.4179 28.5647V28.2039L39.4556 28.3944L39.4179 28.5647ZM42.4017 18.9193C41.3077 20.1383 40.975 21.5376 40.954 21.6306L39.9148 26.3217L39.4324 23.8828L41.7034 17.3634C42.1554 17.9948 42.3343 18.599 42.4017 18.9193ZM36.8853 18.0944C36.973 18.0944 37.0598 18.0673 37.1333 18.0148C37.2516 17.93 37.3186 17.7911 37.311 17.6456L37.1556 14.7003C37.1556 14.7003 38.6936 15.437 38.7204 15.444C39.7613 15.714 40.5112 16.1545 41.0528 16.6391L38.5891 23.7116C38.586 23.7199 38.5654 23.8424 38.5654 23.8518V32.4142L37.5098 37.18H32.9448V35.8113L34.7293 33.5642C34.7956 33.4807 34.8282 33.3754 34.8207 33.2692L33.8002 18.7994L34.6132 17.2155L36.7269 18.0637C36.7777 18.0844 36.8316 18.0944 36.8853 18.0944ZM31.4181 16.8212H33.6306L33.8181 16.8965L33.106 18.2842H31.9324L31.2264 16.9086L31.4181 16.8212ZM30.3894 13.6354V12.955C30.9788 13.2704 31.6827 13.4205 32.518 13.4207C32.5182 13.4207 32.5183 13.4207 32.5183 13.4207C32.5187 13.4207 32.5189 13.4207 32.519 13.4207C32.5194 13.4207 32.5197 13.4207 32.5199 13.4207C32.5201 13.4207 32.5201 13.4207 32.5202 13.4207C33.3557 13.4205 34.0594 13.2703 34.649 12.955V13.6354L33.4523 15.9686H31.5862L30.3894 13.6354ZM32.0693 19.1369H32.9691L33.9583 33.1638L32.5192 34.976L31.0803 33.1638L32.0693 19.1369ZM33.0306 38.0327V38.6979H32.0078V38.0327H33.0306ZM36.2796 14.2791L36.4244 17.0238L34.3055 16.1736L35.4547 13.9331C35.4617 13.9195 35.4651 13.9045 35.4708 13.8901L36.2796 14.2791ZM36.1145 7.86287C36.1145 8.24623 35.7631 8.55796 35.3311 8.55796H34.4312C33.9994 8.55796 33.6481 8.24623 33.6481 7.86287V7.33013H36.1145V7.86287ZM29.4382 6.47748C29.3509 5.28239 29.4764 4.09191 29.6193 3.88591C29.6377 3.86766 29.651 3.85657 29.6595 3.85026C29.7192 3.86561 29.8497 3.93621 29.9564 3.99402C30.3998 4.23362 31.1411 4.63437 32.5178 4.63471C32.518 4.63471 32.518 4.63471 32.5182 4.63471C32.5185 4.63471 32.5187 4.63471 32.5189 4.63471C32.5192 4.63471 32.5195 4.63471 32.5197 4.63471C32.5199 4.63471 32.5199 4.63471 32.5201 4.63471C33.8969 4.63437 34.6386 4.23345 35.0816 3.99402C35.1887 3.93621 35.3197 3.86527 35.3788 3.85009C35.3862 3.85504 35.3964 3.86288 35.4082 3.87397C35.5608 4.09105 35.6873 5.28222 35.6 6.47765H29.4382V6.47748ZM28.4975 6.47748C28.262 6.47748 28.0712 6.6683 28.0712 6.9038V7.70752C27.7859 7.10367 27.5603 5.91711 27.9297 3.61016C28.1567 2.19218 28.371 0.852829 32.519 0.852658C36.6672 0.852829 36.8817 2.19218 37.1087 3.61016C37.4781 5.91745 37.2525 7.10401 36.9672 7.70769V6.9038C36.9672 6.6683 36.7763 6.47748 36.5408 6.47748H36.4537C36.5194 5.4241 36.4863 3.74692 36.0221 3.28308C35.5241 2.78512 35.0545 3.0399 34.6764 3.24402C34.2564 3.471 33.681 3.78205 32.5192 3.78222C31.3577 3.78205 30.7822 3.471 30.3623 3.24402C29.9844 3.0399 29.5139 2.78546 29.0166 3.28308C28.5523 3.74726 28.5195 5.42427 28.5852 6.47748H28.4975ZM28.9239 7.33013H31.3903V7.86287C31.3903 8.24623 31.0388 8.55796 30.6072 8.55796H29.7073C29.2753 8.55796 28.9239 8.24623 28.9239 7.86287V7.33013ZM29.0432 9.27607C29.2464 9.36185 29.4708 9.41062 29.7073 9.41062H30.6072C31.5091 9.41062 32.2429 8.71639 32.2429 7.86287V7.33013H32.7955V7.86287C32.7955 8.71622 33.5293 9.41062 34.4312 9.41062H35.3311C35.5676 9.41062 35.7917 9.36185 35.995 9.27624C35.3729 11.988 34.149 12.5682 32.519 12.5684C30.8894 12.568 29.6655 11.988 29.0432 9.27607ZM28.7508 14.2831L29.5678 13.89C29.5733 13.9043 29.5768 13.9193 29.5838 13.933L30.7426 16.1922L28.6048 17.1659L28.7508 14.2831ZM26.3182 15.444C26.3449 15.437 27.8756 14.7038 27.8756 14.7038L27.7177 17.8229C27.7102 17.9717 27.7806 18.1135 27.9038 18.1971C27.9757 18.246 28.0593 18.2709 28.1435 18.2709C28.2036 18.2709 28.2637 18.2583 28.3202 18.2326L30.4496 17.2626L31.2383 18.7994L30.218 33.2692C30.2105 33.3756 30.2431 33.4808 30.3094 33.5642L32.092 35.8094V37.1802H26.6655L26.4732 36.3118V23.8519C26.4732 23.8415 26.4519 23.7189 26.4493 23.7117L23.9858 16.6393C24.5274 16.1546 25.2771 15.7142 26.3182 15.444ZM31.1551 38.0327V38.6979H27.0018L26.8545 38.0327H31.1551ZM22.5922 19.1952C22.5949 19.1816 22.5968 19.1661 22.5982 19.1524C22.6043 19.0897 22.6979 18.2534 23.3352 17.3634L25.606 23.8828L24.7162 28.3801L24.4534 27.1933C24.4261 27.0733 23.8639 24.7123 21.7575 23.4495L22.5922 19.1952ZM25.6205 28.2037V32.4622L25.1756 30.4532L25.6205 28.2037ZM20.0295 23.6601C21.2539 23.9479 22.0823 24.6498 22.6328 25.3676L20.4247 27.6602C20.3033 27.7863 20.2714 27.9735 20.3437 28.1326C21.1783 29.966 20.7179 31.0557 20.2726 32.1092C19.8883 33.0187 19.4909 33.9593 20.1737 35.1261C21.928 38.1247 22.1671 40.8505 22.1911 41.8447H15.7031V31.6486L18.5874 23.3141L20.0295 23.6601ZM20.9513 32.6964L22.2919 37.3831H22.1701C21.8656 36.5402 21.458 35.6329 20.9094 34.6955C20.4913 33.9801 20.6556 33.4147 20.9513 32.6964ZM15.2769 30.2736L14.0943 26.857H16.4592L15.2769 30.2736ZM18.4705 16.1185C18.4705 16.4797 18.1766 16.7735 17.8154 16.7735H17.011C16.6499 16.7735 16.3559 16.4797 16.3559 16.1185V15.62H18.4703V16.1185H18.4705ZM15.9297 14.7674C15.6985 14.7674 15.5112 14.9517 15.5046 15.1814H15.0489C15.0423 14.9517 14.855 14.7674 14.6239 14.7674H12.4386C12.9672 14.4998 13.6937 14.0336 14.1274 13.3361C14.5076 13.8646 15.1918 14.4316 16.4046 14.7674H15.9297ZM15.2771 7.50919C16.3052 7.50919 17.142 8.34582 17.142 9.3743C17.142 9.57075 17.1077 9.76362 17.0479 9.94848C16.5158 9.71212 15.9159 9.58047 15.2771 9.58047C14.6383 9.58047 14.0383 9.71212 13.5061 9.94865C13.4463 9.76379 13.4118 9.57075 13.4118 9.3743C13.4118 8.34582 14.2486 7.50919 15.2771 7.50919ZM12.0832 13.3738C12.0834 13.3681 12.0849 13.363 12.0849 13.3572C12.0849 11.7176 13.4872 10.4331 15.2771 10.4331C17.067 10.4331 18.4693 11.7176 18.4693 13.3572C18.4693 13.3617 18.4705 13.3659 18.4706 13.3705V14.207C14.6666 14.0721 14.5006 12.1379 14.4954 12.058C14.4873 11.8255 14.2975 11.6373 14.0617 11.6468C13.8293 11.6509 13.643 11.8405 13.643 12.0731C13.643 13.0281 12.7113 13.6679 12.0834 13.9909V13.3738H12.0832ZM12.0832 15.62H14.1974V16.1185C14.1974 16.4797 13.9036 16.7735 13.5426 16.7735H12.738C12.3768 16.7735 12.083 16.4797 12.083 16.1185V15.62H12.0832ZM12.2578 17.5463C12.4089 17.5973 12.5701 17.6262 12.7382 17.6262H13.5428C14.3741 17.6262 15.0503 16.9498 15.0503 16.1185V16.0341H15.5034V16.1185C15.5034 16.9498 16.1797 17.6262 17.0112 17.6262H17.8156C17.9838 17.6262 18.1451 17.5972 18.296 17.5463C17.864 19.1516 16.6742 20.3083 15.2771 20.3083C13.8797 20.3083 12.6899 19.1516 12.2578 17.5463ZM13.6371 22.9131C13.8289 22.8671 13.964 22.6957 13.964 22.4986V20.8922C14.3762 21.0656 14.8175 21.1611 15.2771 21.1611C15.7363 21.1611 16.1777 21.0656 16.5895 20.8925V22.4988C16.5895 22.6959 16.7246 22.8673 16.9164 22.9133L17.7546 23.1144L16.7544 26.0045H13.7993L12.7991 23.1144L13.6371 22.9131ZM4.7679 46.4963C4.76568 46.504 4.7638 46.5118 4.76193 46.5197C4.70241 46.7828 4.54416 47.0072 4.31599 47.1513C4.08764 47.2956 3.81718 47.342 3.55405 47.2828C3.29092 47.2233 3.06667 47.065 2.92257 46.8369C2.77847 46.6087 2.73192 46.3382 2.7916 46.0732L2.87295 45.7068C3.15705 45.9349 3.33986 46.2845 3.33986 46.6766C3.33986 46.9121 3.53069 47.1029 3.76619 47.1029C4.0017 47.1029 4.19252 46.9121 4.19252 46.6766C4.19252 45.8717 3.73601 45.1725 3.06889 44.8214L3.13898 44.5048L5.14511 45.179L4.7679 46.4963ZM9.09548 31.3787L5.37993 44.3585L3.32451 43.6677L6.9316 27.3823C6.94371 27.3297 7.07809 26.775 7.4449 26.1023L9.31768 28.0473C8.74589 29.4476 8.83661 30.5068 9.09548 31.3787ZM10.3796 35.1261C11.0624 33.9592 10.6651 33.0187 10.2807 32.1092C9.83541 31.0555 9.37498 29.966 10.2096 28.1326C10.282 27.9735 10.25 27.7863 10.1286 27.6602L7.9212 25.3678C8.47184 24.6497 9.3008 23.9476 10.5257 23.6596L11.9657 23.3141L14.8504 31.6486V41.8447H8.36117C8.38351 40.8527 8.61901 38.1353 10.3796 35.1261ZM14.8508 74.1473H10.9693C11.3494 72.772 12.4882 72.662 12.648 72.6533H14.8508V74.1473ZM14.8508 71.8007H12.9909C12.1113 66.938 11.6229 62.2502 11.361 59.0086H14.8508V71.8007ZM19.5845 74.1473H15.7034V72.6533H17.9053C18.0629 72.6617 19.2036 72.7705 19.5845 74.1473ZM17.5629 71.8007H15.7034V59.0086H19.1928C18.9311 62.2502 18.4425 66.938 17.5629 71.8007ZM20.8698 58.1559H9.68398C8.04739 48.3108 8.2169 43.9001 8.32024 42.6974H22.2346C22.3395 43.8933 22.5122 48.276 20.8698 58.1559ZM22.4875 38.3596C22.4757 38.3183 22.4641 38.2775 22.4517 38.2358H22.5359L22.4875 38.3596ZM21.4597 31.3734C21.7174 30.5023 21.8064 29.4447 21.2356 28.0473L23.1089 26.1023C23.475 26.7745 23.6094 27.3282 23.6214 27.3795L27.2312 43.6762L25.1901 44.4143L21.4597 31.3734ZM25.4252 45.2361L27.4172 44.5158L27.7626 46.0749C27.8852 46.6182 27.5427 47.16 26.9993 47.2828C26.7363 47.342 26.4657 47.2956 26.2375 47.1513C26.0093 47.0072 25.788 46.5042 25.7858 46.4965L25.4252 45.2361ZM30.5596 74.1473H25.0306C25.0693 73.7125 25.2015 73.0189 25.6388 72.5558C25.9631 72.2118 26.4015 72.0447 26.9783 72.0447H30.5594V74.1473H30.5596ZM30.5826 71.192H26.4732V48.1338C26.5722 48.1501 26.6723 48.1609 26.7733 48.1609C26.9109 48.1609 27.0496 48.1455 27.187 48.1145C28.1889 47.8884 28.8202 46.8892 28.5946 45.889L27.1908 39.5507H36.9827C35.9909 40.3759 35.1737 41.8821 35.1737 44.6048C35.1737 46.7013 36.0951 48.5371 37.4658 49.5352V50.2335L35.62 50.5889C34.5327 50.7284 33.8243 51.091 33.371 51.4515L32.9442 43.6894H32.9435C32.9319 43.4752 32.7625 43.2992 32.5432 43.2871C32.3101 43.2724 32.107 43.4542 32.0942 43.6894L31.5112 54.3022L30.8681 55.4219C30.8064 55.5294 30.7944 55.6583 30.8355 55.7753C30.8766 55.8921 30.9663 55.9855 31.0816 56.0309L31.4089 56.1597L31.3587 57.0703L29.8598 61.1402C29.6659 61.7379 30.0886 62.3924 30.8221 62.6303C30.8983 62.655 30.9743 62.673 31.0499 62.6868L30.5826 71.192ZM32.5722 52.454L32.4554 52.6573L32.5194 51.4934L32.5722 52.454ZM31.6792 61.6845C31.6734 61.6977 31.6684 61.711 31.664 61.7245C31.6311 61.8259 31.3833 61.9154 31.0849 61.8188C30.7863 61.7219 30.6379 61.5041 30.6652 61.4185L32.4513 56.57L33.7073 57.0647L31.6792 61.6845ZM31.8534 55.4182C31.8534 55.4182 33.4239 52.6789 33.4307 52.6629C33.4477 52.6225 33.869 51.6692 35.7405 51.4329C35.7496 51.4317 37.6382 51.0684 37.6382 51.0684C38.0016 51.6119 38.894 52.1256 39.8294 52.1256C39.8301 52.1256 39.8307 52.1256 39.8314 52.1256C39.8318 52.1256 39.8321 52.1256 39.8324 52.1256C39.8331 52.1256 39.8338 52.1256 39.8345 52.1256C40.7694 52.1256 41.6617 51.6123 42.0255 51.0683C42.0255 51.0683 43.9143 51.4317 43.9233 51.4329C45.7949 51.6692 46.2161 52.6225 46.2306 52.6564C46.2386 52.6772 47.8108 55.4182 47.8108 55.4182L45.1588 56.4627L44.4493 55.1276C44.3573 54.9549 44.1597 54.8665 43.9697 54.9139C43.7797 54.9613 43.6464 55.1319 43.6464 55.3276V61.86H36.0178V55.3276C36.0178 55.1319 35.8846 54.9613 35.6945 54.9139C35.5045 54.8663 35.3067 54.9547 35.215 55.1276L34.5057 56.4627L31.8534 55.4182ZM48.9927 61.4027C49.0255 61.5043 48.8773 61.7221 48.579 61.8188C48.2799 61.9156 48.0328 61.8261 47.9997 61.7246C47.9955 61.711 47.9902 61.6977 47.9845 61.6847L46.0956 57.3819C46.0865 57.2591 46.0777 57.1382 46.0695 57.0203L47.2124 56.5701L48.9927 61.4027ZM33.7864 59.006L34.5011 57.3774L34.547 57.3953C34.7491 57.4748 34.9779 57.39 35.0797 57.1987L35.1648 57.0384V68.119C35.1648 68.3546 35.3557 68.5454 35.5912 68.5454H35.7825L35.99 71.1919H34.4561L33.7864 59.006ZM34.4788 73.7711V72.0447H36.0567L36.0761 72.2926C35.6433 72.3677 35.2806 72.5544 34.9941 72.8506C34.722 73.1318 34.5676 73.4688 34.4788 73.7711ZM38.5688 74.1473H35.2603C35.3086 73.9231 35.4072 73.6501 35.6072 73.4434C35.8256 73.2174 36.129 73.1076 36.5345 73.1076H38.569V74.1473H38.5688ZM38.5688 72.2548H36.9286L36.6379 68.5455H38.5688V72.2548ZM39.4215 74.1473V72.5848C39.842 73.0517 39.9713 73.7225 40.0084 74.1473H39.4215ZM40.2424 72.2384C40.0398 71.9548 39.7726 71.6997 39.4215 71.5107V68.5454H39.4578C39.6184 68.5454 39.7595 68.4555 39.8319 68.3216C39.9046 68.4553 40.0453 68.5454 40.2061 68.5454H40.2424V72.2384ZM40.256 64.3124H40.2559C40.2364 64.1143 40.0797 63.9509 39.8741 63.9305C39.6408 63.9071 39.431 64.0781 39.4078 64.3126L39.0719 67.6929H36.0177V62.7127H43.6462V67.6929H40.5923L40.256 64.3124ZM43.0258 68.5455L42.7351 72.2548H41.0952V68.5455H43.0258ZM41.0951 74.1473V73.1074H43.1292C43.5326 73.1074 43.835 73.2162 44.0533 73.4398C44.2554 73.6468 44.3546 73.9217 44.4035 74.1472H41.0951V74.1473ZM45.2603 74.095C45.1981 73.7326 45.0447 73.2386 44.6696 72.8506C44.3831 72.5544 44.0202 72.3677 43.5872 72.2926L43.881 68.5455H44.0724C44.3079 68.5455 44.4987 68.3547 44.4987 68.1192V57.0381L44.5841 57.1989C44.6861 57.3902 44.9151 57.475 45.1169 57.3955L45.1626 57.3776L45.2562 57.5911C45.4949 60.7534 45.9984 65.476 47.0572 71.2311C47.0047 71.5466 46.6769 73.1204 45.2603 74.095ZM49.7045 74.1473H46.5105C47.3773 73.2422 47.7166 72.1977 47.843 71.6494H49.7045V74.1473ZM49.7045 70.7966H47.8447C47.0732 66.5563 46.6066 62.8934 46.3242 60.0234L47.1967 62.0104C47.3517 62.4511 47.8 62.7139 48.3229 62.7139C48.4907 62.7139 48.6663 62.6868 48.8421 62.6298C49.2357 62.5022 49.5383 62.2539 49.7047 61.9571V70.7966H49.7045ZM49.7045 60.8692L48.0059 56.2575L48.5823 56.0306C48.6975 55.9852 48.7874 55.8918 48.8283 55.7749C48.8693 55.658 48.8573 55.529 48.7958 55.4216L47.6525 53.431H49.7045V60.8692ZM53.7509 74.1473H50.557V71.6494H52.4182C52.5447 72.1977 52.8841 73.2422 53.7509 74.1473ZM52.4167 70.7966H50.5572V53.431H54.3672C54.3304 55.1121 54.0824 61.6404 52.4167 70.7966ZM56.1124 52.5783H47.1628L47.0098 52.312C46.8998 52.0705 46.2477 50.8716 44.0437 50.5887L43.9375 50.5683C43.8503 49.6401 43.7753 48.6991 43.716 47.7611C44.2045 46.8555 44.49 45.7705 44.49 44.6048C44.49 42.7816 44.1227 41.5059 43.5828 40.6126C43.6703 38.0415 43.9238 35.836 44.3381 34.0349C44.7849 34.3942 45.3804 34.5067 45.6517 34.5569C46.6907 34.7491 48.2088 34.7491 50.1309 34.7491C52.0527 34.7491 53.5708 34.7491 54.6097 34.5569C54.8812 34.5067 55.4767 34.3942 55.9233 34.0349C57.425 40.5744 56.3556 50.5429 56.1124 52.5783ZM59.8048 38.1892L56.1866 26.3057C56.3169 26.0985 56.4311 25.8659 56.5212 25.605C56.8936 24.526 56.8495 22.9614 55.872 22.0753C55.6975 21.9172 55.4279 21.9307 55.2698 22.1048C55.1117 22.2793 55.1249 22.5489 55.2995 22.7071C55.9596 23.3055 56.0082 24.4778 55.7153 25.3267C55.4864 25.9892 55.0817 26.4194 54.659 26.4496C54.4455 26.465 54.2765 26.6362 54.2639 26.8499L54.1182 29.321C54.1128 29.4153 54.1385 29.5086 54.1919 29.5866C54.7182 30.3567 55.1994 31.4704 55.6237 32.8944C55.5633 33.8142 53.9155 33.8913 50.5572 33.8961V20.6021C52.7405 20.4882 54.2533 19.4935 54.5429 18.0136L54.8834 18.0953C57.7405 18.7668 58.4472 21.6935 58.4753 21.8148L61.9327 37.4235L59.8048 38.1892ZM61.8532 41.7182C61.5899 41.7775 61.3196 41.7311 61.0914 41.5867C60.8633 41.4426 60.7521 41.2315 60.6457 40.9552C60.6419 40.9453 60.0534 39.0059 60.0534 39.0059L62.1185 38.263L62.6163 40.5103C62.7389 41.0536 62.3967 41.5954 61.8532 41.7182Z" fill="#1C1B1A"/>
<path d="M32.5183 11.6881C33.4198 11.6881 34.0494 11.322 34.0494 10.7974C34.0494 10.5619 33.8585 10.3711 33.623 10.3711C33.4227 10.3711 33.2545 10.5094 33.2088 10.6956C33.1259 10.7468 32.8894 10.8355 32.5183 10.8355C32.1473 10.8355 31.9109 10.7468 31.8279 10.6958C31.7822 10.5094 31.6142 10.3713 31.4136 10.3713C31.1781 10.3713 30.9873 10.5621 30.9873 10.7976C30.9875 11.3218 31.6169 11.6881 32.5183 11.6881Z" fill="#1C1B1A"/>
<path d="M30.1586 8.36983C30.2694 8.36983 30.3804 8.32549 30.4587 8.24534C30.539 8.16689 30.5849 8.05605 30.5849 7.9435C30.5849 7.83095 30.5389 7.7218 30.4587 7.64336C30.3001 7.48477 30.0153 7.48477 29.8569 7.64336C29.7766 7.7218 29.7324 7.83095 29.7324 7.9435C29.7324 8.05605 29.7768 8.16689 29.8569 8.24534C29.935 8.32549 30.0459 8.36983 30.1586 8.36983Z" fill="#1C1B1A"/>
<path d="M34.8822 8.37047C34.9948 8.37047 35.1039 8.32613 35.1841 8.24598C35.2625 8.16753 35.3085 8.05669 35.3085 7.94414C35.3085 7.83329 35.2623 7.72244 35.1841 7.644C35.0239 7.4837 34.7407 7.48541 34.5804 7.644C34.5019 7.72244 34.4561 7.83159 34.4561 7.94414C34.4561 8.05669 34.5021 8.16753 34.5804 8.24598C34.6605 8.32613 34.7697 8.37047 34.8822 8.37047Z" fill="#1C1B1A"/>
<path d="M64.1641 23.1536L63.3143 21.5356L62.1797 21.9161L62.2723 23.9919L64.1641 23.1536Z" fill="white"/>
<path d="M75.4419 43.7274H77.8843L77.9948 42.9971H74.957L75.4419 43.7274Z" fill="#588AA3"/>
<path d="M65.1565 13.5866C65.3744 13.5866 65.5519 13.7512 65.5765 13.9625H65.9956C66.0202 13.7512 66.1976 13.5866 66.4157 13.5866H68.6709C68.5688 11.7083 67.772 9.84961 65.7862 9.84961C63.8003 9.84961 63.0035 11.7084 62.9014 13.5866H65.1565ZM64.9047 10.6058H66.6675C66.9022 10.6058 67.0925 10.796 67.0925 11.0308C67.0925 11.2656 66.9022 11.4558 66.6675 11.4558H64.9047C64.6699 11.4558 64.4797 11.2656 64.4797 11.0308C64.4797 10.796 64.6701 10.6058 64.9047 10.6058ZM64.2124 11.984H67.3599C67.5947 11.984 67.7849 12.1742 67.7849 12.409C67.7849 12.6438 67.5947 12.834 67.3599 12.834H64.2124C63.9777 12.834 63.7874 12.6438 63.7874 12.409C63.7874 12.1742 63.9777 11.984 64.2124 11.984Z" fill="#E0B489"/>
<path d="M69.9297 13.5864C70.1645 13.5864 70.3547 13.7766 70.3547 14.0114V14.5719C70.5076 14.1328 70.5507 13.3603 70.1339 12.0137C69.8136 10.9795 69.1674 10.3351 68.3818 10.1992C69.0498 10.997 69.454 12.1604 69.5209 13.5864H69.9297Z" fill="#CCCCCC"/>
<path d="M66.84 15.1075C66.84 15.5794 67.224 15.9635 67.696 15.9635H68.6488C69.1208 15.9635 69.5048 15.5794 69.5048 15.1075V14.681V14.437H66.8398V15.1075H66.84ZM67.8721 14.8996C68.0302 14.7415 68.3158 14.7415 68.4722 14.8996C68.5521 14.9797 68.598 15.0883 68.598 15.2007C68.598 15.3129 68.5521 15.4217 68.4722 15.5016C68.394 15.5798 68.2835 15.6257 68.173 15.6257C68.0608 15.6257 67.9518 15.5796 67.8721 15.5016C67.7922 15.4217 67.748 15.313 67.748 15.2007C67.748 15.0885 67.7922 14.9797 67.8721 14.8996Z" fill="#D8D5D4"/>
<path d="M69.299 23.9919L69.3917 21.9161L68.2571 21.5356L67.4072 23.1536L69.299 23.9919Z" fill="white"/>
<path d="M68.4642 24.5521L67.5313 24.1387L66.8301 25.1414L67.1079 26.1887C67.9851 25.768 68.3341 24.9848 68.4642 24.5521Z" fill="white"/>
<path d="M69.4545 16.6108C69.2145 16.7399 68.9403 16.8135 68.6492 16.8135H67.6964C67.4385 16.8135 67.1949 16.7543 66.9755 16.6515C66.7739 17.1086 66.317 17.4289 65.7859 17.4289C65.2551 17.4289 64.798 17.1086 64.5963 16.6513C64.377 16.7542 64.1331 16.8135 63.8754 16.8135H62.9225C62.6314 16.8135 62.3572 16.7397 62.1172 16.6108C62.389 18.4834 63.8193 19.7425 65.786 19.7425C67.7526 19.7423 69.1829 18.4833 69.4545 16.6108ZM64.2149 18.106C64.2149 17.8712 64.4051 17.681 64.6399 17.681C64.7726 17.681 64.8913 17.7419 64.9693 17.8374C65.0875 17.8724 65.3697 17.9217 65.7859 17.9217C66.2019 17.9217 66.4841 17.8724 66.6024 17.8374C66.6802 17.7419 66.7989 17.681 66.9319 17.681C67.1666 17.681 67.3569 17.8712 67.3569 18.106C67.3569 18.2708 67.3569 18.7718 65.786 18.7718C64.2149 18.7719 64.2149 18.2708 64.2149 18.106Z" fill="#E0B489"/>
<path d="M67.395 20.3286C66.9008 20.5001 66.3602 20.5925 65.7852 20.5925C65.2104 20.5925 64.67 20.5003 64.1758 20.3288V21.3478L65.0074 22.931H66.5633L67.395 21.3478V20.3286Z" fill="#E0B489"/>
<path d="M62.9214 15.9633H63.8743C64.3462 15.9633 64.7302 15.5793 64.7302 15.1073V14.437H62.0654V14.681V15.1075C62.0654 15.5793 62.4495 15.9633 62.9214 15.9633ZM63.0977 14.8994C63.2541 14.7413 63.5399 14.7413 63.6978 14.8994C63.7777 14.9776 63.8236 15.0881 63.8236 15.2005C63.8236 15.3127 63.7775 15.4215 63.6978 15.5014C63.6196 15.5796 63.5106 15.6255 63.3986 15.6255C63.2847 15.6255 63.1757 15.5794 63.0975 15.5014C63.0176 15.4215 62.9717 15.3129 62.9717 15.2005C62.9719 15.0883 63.018 14.9776 63.0977 14.8994Z" fill="#D8D5D4"/>
<path d="M65.528 25.4839L65.2764 26.4323C65.4348 26.4563 65.604 26.4704 65.7852 26.4726C65.9664 26.4702 66.1357 26.4561 66.294 26.4323L66.0424 25.4839H65.528Z" fill="#8C6239"/>
<path d="M66.7262 23.7812H64.846L64.8311 23.7879L65.4232 24.6345H66.1491L66.7412 23.7879L66.7262 23.7812Z" fill="#8C6239"/>
<path d="M65.5803 14.813V15.1074C65.5803 15.4284 65.4897 15.7276 65.335 15.9843V16.1288C65.335 16.377 65.5369 16.579 65.785 16.579C66.0332 16.579 66.2351 16.377 66.2351 16.1288V15.9848C66.0803 15.7279 65.9895 15.4286 65.9895 15.1074V14.813H65.5803Z" fill="#C69C6D"/>
<path d="M61.4371 12.0137C61.0202 13.3598 61.063 14.1321 61.2159 14.5714V14.0114C61.2159 13.7766 61.4061 13.5864 61.6409 13.5864H62.0496C62.1166 12.1604 62.5207 10.9972 63.1886 10.1992C62.4032 10.3351 61.757 10.9795 61.4371 12.0137Z" fill="#CCCCCC"/>
<path d="M77.8713 44.5781H75.7432L75.9718 45.6083C75.9745 45.6202 75.9766 45.6321 75.9781 45.6442C76.0181 45.9433 76.1961 46.1926 76.4422 46.3416C76.5983 45.5857 77.1641 44.9788 77.8961 44.7617L77.8713 44.5781Z" fill="#C69C6D"/>
<path d="M77.2939 46.4418C77.4923 46.3801 77.6661 46.2622 77.7932 46.0973C77.899 45.96 77.9602 45.8007 77.9808 45.6348C77.6462 45.7862 77.3912 46.0815 77.2939 46.4418Z" fill="#C69C6D"/>
<path d="M74.6748 25.7874C74.6648 25.6897 74.3937 23.3382 71.3404 22.5679C71.3299 22.5652 70.2298 22.1968 70.2298 22.1968L70.1203 24.6513C70.1142 24.7915 70.0389 24.9197 69.9195 24.9937C69.8513 25.036 69.7736 25.0574 69.6958 25.0574C69.6373 25.0574 69.5786 25.0454 69.5236 25.0209L69.2528 24.9009C68.9813 25.7291 68.2939 26.7634 66.9443 27.1592C66.939 27.1609 66.4457 27.3234 65.7857 27.3234C65.1257 27.3234 64.6326 27.1609 64.6273 27.1592C63.2776 26.7634 62.5903 25.7291 62.3188 24.9009L62.048 25.0209C61.9931 25.0454 61.9343 25.0574 61.8758 25.0574C61.7978 25.0574 61.7202 25.036 61.6521 24.9937C61.5327 24.9197 61.4574 24.7917 61.4513 24.6513L61.342 22.1968C61.342 22.1968 60.2417 22.5652 60.2314 22.5679C57.1536 23.3443 56.8991 25.7631 56.8971 25.7874C56.8955 25.8027 52.8877 42.6538 52.8877 42.6538C54.9277 43.5038 55.9879 43.6451 56.0328 43.8438L57.741 38.7927L59.5622 29.8361C59.6081 29.6111 59.8247 29.4649 60.0501 29.5017C60.2762 29.5402 60.4309 29.7514 60.3998 29.9787C60.3883 30.0628 59.3026 38.1045 60.2546 43.7277H71.3174C72.27 38.1025 71.1838 30.0628 71.1723 29.9787C71.1408 29.7514 71.2959 29.5402 71.522 29.5017C71.747 29.4649 71.9643 29.6111 72.0099 29.8361L74.5133 42.1474H77.971C77.9707 42.1474 74.6762 25.8027 74.6748 25.7874Z" fill="#588AA3"/>
<path d="M70.7497 72.3975H67.5479V74.1493H72.4691C72.4302 73.7786 72.3095 73.2284 71.9491 72.848C71.6618 72.5447 71.2696 72.3975 70.7497 72.3975Z" fill="#4D4D4D"/>
<path d="M59.62 72.8507C59.2633 73.2293 59.143 73.7787 59.1035 74.1493H64.0239V72.3975H60.8221C60.3007 72.3975 59.9075 72.5457 59.62 72.8507Z" fill="#4D4D4D"/>
<path d="M71.1676 44.5781H60.4033V51.2669V52.4293L60.4035 53.3643C60.4035 53.3643 60.4035 53.6194 60.4035 53.6703V71.5483H64.5477L65.3594 47.8045C65.3673 47.5746 65.5558 47.3939 65.7838 47.3939C65.7887 47.3939 65.7938 47.3939 65.7985 47.3942C66.0233 47.4019 66.1992 47.5829 66.2069 47.8043H66.2089L67.0236 71.5483H71.1678V44.5781H71.1676Z" fill="#736357"/>
<path d="M63.1064 24.552C63.2363 24.9848 63.5852 25.7678 64.4627 26.1887L64.7405 25.1414L64.0393 24.1387L63.1064 24.552Z" fill="white"/>
<path d="M67.3559 18.1057C67.3559 17.8709 67.1656 17.6807 66.9309 17.6807C66.7981 17.6807 66.6794 17.7415 66.6014 17.8371C66.4832 17.8721 66.201 17.9214 65.7849 17.9214C65.3689 17.9214 65.0867 17.8721 64.9683 17.8371C64.8905 17.7415 64.7718 17.6807 64.6389 17.6807C64.4041 17.6807 64.2139 17.8709 64.2139 18.1057C64.2139 18.2704 64.2139 18.7714 65.7847 18.7714C67.3559 18.7716 67.3559 18.2704 67.3559 18.1057Z" fill="#1C1B1A"/>
<path d="M64.2121 12.8339H67.3596C67.5943 12.8339 67.7846 12.6437 67.7846 12.4089C67.7846 12.1741 67.5943 11.9839 67.3596 11.9839H64.2121C63.9773 11.9839 63.7871 12.1741 63.7871 12.4089C63.7871 12.6437 63.9773 12.8339 64.2121 12.8339Z" fill="#1C1B1A"/>
<path d="M64.9045 11.456H66.6673C66.902 11.456 67.0923 11.2657 67.0923 11.031C67.0923 10.7962 66.902 10.606 66.6673 10.606H64.9045C64.6697 10.606 64.4795 10.7962 64.4795 11.031C64.4795 11.2657 64.6699 11.456 64.9045 11.456Z" fill="#1C1B1A"/>
<path d="M63.4003 15.6254C63.5124 15.6254 63.6213 15.5794 63.6995 15.5013C63.7794 15.4214 63.8254 15.3128 63.8254 15.2004C63.8254 15.0882 63.7793 14.9775 63.6995 14.8993C63.5414 14.7412 63.2558 14.7412 63.0994 14.8993C63.0195 14.9775 62.9736 15.088 62.9736 15.2004C62.9736 15.3126 63.0197 15.4214 63.0994 15.5013C63.1775 15.5794 63.2864 15.6254 63.4003 15.6254Z" fill="#1C1B1A"/>
<path d="M68.1731 15.6254C68.2834 15.6254 68.3941 15.5794 68.4723 15.5013C68.5522 15.4214 68.5981 15.3128 68.5981 15.2004C68.5981 15.0882 68.5522 14.9794 68.4723 14.8993C68.3159 14.7412 68.0303 14.7412 67.8722 14.8993C67.7922 14.9794 67.748 15.088 67.748 15.2004C67.748 15.3126 67.7922 15.4214 67.8722 15.5013C67.9519 15.5794 68.0609 15.6254 68.1731 15.6254Z" fill="#1C1B1A"/>
<path d="M56.0824 44.2687L52.9598 43.1637L52.717 44.4389C52.5246 44.4753 52.5597 44.6574 52.717 44.6938C52.7 44.9951 52.7454 45.4362 52.9592 45.6288C53.312 46.8189 54.587 47.1589 55.4024 46.2238L56.0824 44.2687Z" fill="#C69C6D"/>
<path fill-rule="evenodd" clip-rule="evenodd" d="M78.7451 44.6917L78.6758 44.1802L78.9139 42.5679C78.9138 42.5413 75.5181 25.6841 75.5181 25.6841C75.481 25.3656 75.0639 22.6389 71.5637 21.7479L68.2449 20.6352V19.928C69.5413 19.1371 70.3546 17.7011 70.3546 15.953V15.8584C70.5447 15.7539 70.7782 15.572 70.9692 15.2577C71.4341 14.4916 71.4263 13.3159 70.9457 11.7631C70.3974 9.99214 68.9618 9.04624 67.4147 9.40087C66.9365 9.14008 66.3894 9 65.7849 9C65.1804 9 64.6335 9.13991 64.1551 9.40087C62.608 9.04607 61.1725 9.99231 60.6244 11.7631C60.1438 13.3159 60.136 14.4916 60.6008 15.2577C60.7917 15.5722 61.0253 15.7539 61.2154 15.8584V15.953C61.2154 17.7013 62.0287 19.1371 63.3255 19.9282V20.6352L60.0067 21.7479C56.5063 22.6389 56.0891 25.3659 56.0522 25.6841L52.2423 43.1343C52.2423 43.1343 52.1844 43.4274 52.145 43.8439C52.0842 44.4876 52.0676 45.4261 52.3772 46.0322C52.69 46.6443 52.9919 47.0677 53.6523 47.329C54.2881 47.5806 54.8633 47.6154 55.4028 47.2871C56.0323 46.904 56.2873 46.224 56.2873 46.224L58.9224 36.7408C58.8595 39.1911 59.0436 41.9154 59.4817 44.2364L59.4821 44.2387L59.4824 44.2404C59.5051 44.3602 59.5288 44.479 59.5533 44.5969V47.4041L59.5531 54.1675V71.8433C59.3484 71.9542 59.1634 72.0954 59.0004 72.2683C58.1609 73.159 58.2328 74.5416 58.2362 74.6001C58.2497 74.8245 58.4357 74.9999 58.6606 74.9999H64.448C64.6828 74.9999 64.873 74.8097 64.873 74.5749V72.398H64.958C65.1872 72.398 65.3749 72.2165 65.3828 71.9875L65.7846 60.2375L66.1876 71.9876C66.1956 72.2166 66.3833 72.398 66.6125 72.398H66.6975V74.5749C66.6975 74.8097 66.8877 74.9999 67.1225 74.9999H72.9099C73.1348 74.9999 73.3208 74.8247 73.3342 74.6001C73.3376 74.5416 73.4094 73.159 72.5701 72.2683C72.407 72.0954 72.2221 71.9542 72.0174 71.8433V44.5969C72.0421 44.4792 72.0655 44.3602 72.0883 44.2404L72.0886 44.2387L72.089 44.2364C72.5271 41.9156 72.6083 39.1913 72.5456 36.7408C72.5456 36.7408 73.7984 42.7884 73.8109 42.8076L74.8162 44.3221L75.1387 45.7757C75.2697 46.6811 76.0665 47.3414 76.9791 47.3412C77.0582 47.3412 77.1384 47.3363 77.2188 47.3261C77.7193 47.2628 78.1623 47.0107 78.4661 46.616C78.7006 46.3113 78.8272 45.9499 78.8383 45.5754C79.3522 45.7267 79.7289 46.202 79.7289 46.7642V74.5747C79.7289 74.8095 79.9192 74.9998 80.1539 74.9998C80.3887 74.9998 80.5789 74.8095 80.5789 74.5747V46.7644C80.5793 45.6986 79.777 44.8184 78.7451 44.6917ZM69.391 21.9157L68.2564 21.5354L67.4066 23.1531L69.2984 23.9914L69.391 21.9157ZM66.1484 24.6344L66.7405 23.7879L66.7255 23.7813H64.8453L64.8303 23.7879L65.4225 24.6344H66.1484ZM65.7854 26.4731C65.9666 26.4709 66.1358 26.4568 66.2942 26.4328L66.0428 25.4844H65.5282L65.2766 26.4328C65.435 26.4566 65.6042 26.4707 65.7854 26.4731ZM65.0075 22.9311H66.5634L67.395 21.3479V20.3287C66.9008 20.5002 66.3602 20.5925 65.7852 20.5925C65.2105 20.5925 64.67 20.5004 64.1758 20.3289V21.3479L65.0075 22.9311ZM64.4621 26.1887L64.7399 25.1413L64.0385 24.1385L63.1058 24.5519C63.2357 24.9847 63.5847 25.7678 64.4621 26.1887ZM68.4652 24.5521L67.5324 24.1386L66.8309 25.1415L67.1087 26.1889C67.9863 25.768 68.3351 24.9849 68.4652 24.5521ZM69.5047 15.1075V14.681L69.5049 14.4372H66.8399V15.1075C66.8399 15.5795 67.224 15.9635 67.6959 15.9635H68.6488C69.1207 15.9635 69.5047 15.5795 69.5047 15.1075ZM70.3548 14.5725C70.5076 14.1334 70.5508 13.3609 70.1339 12.0143C69.8136 10.9802 69.1676 10.3357 68.382 10.1999C69.05 10.9979 69.4543 12.161 69.5211 13.587H69.9298C70.1645 13.587 70.3548 13.7773 70.3548 14.012V14.5725ZM68.67 13.587C68.5679 11.7088 67.771 9.85002 65.7852 9.85002C63.7996 9.85002 63.0026 11.7088 62.9005 13.587H65.1556C65.3737 13.587 65.551 13.7516 65.5756 13.9629H65.9947C66.0193 13.7516 66.1968 13.587 66.4148 13.587H68.67ZM66.2356 16.1289V15.9849C66.0805 15.7281 65.9898 15.4285 65.9898 15.1075V14.8131H65.5807V15.1075C65.5807 15.4283 65.4901 15.7277 65.3354 15.9844V16.1289C65.3354 16.3771 65.5374 16.5791 65.7854 16.5791C66.0334 16.5791 66.2356 16.3771 66.2356 16.1289ZM61.2157 14.012C61.2157 13.7773 61.406 13.587 61.6407 13.587H62.0496C62.1164 12.161 62.5207 10.9977 63.1886 10.1999C62.403 10.3357 61.7568 10.9802 61.4369 12.0143C61.02 13.3604 61.0629 14.1327 61.2157 14.572V14.012ZM62.0657 14.437V14.681L62.0659 15.1074C62.0659 15.5793 62.4499 15.9633 62.9219 15.9633H63.8747C64.3467 15.9633 64.7307 15.5793 64.7307 15.1074V14.437H62.0657ZM62.9217 16.8135C62.6307 16.8135 62.3564 16.7399 62.1164 16.6109C62.3882 18.4833 63.8185 19.7423 65.7849 19.7425C67.7517 19.7425 69.1819 18.4835 69.4537 16.6109C69.2137 16.7397 68.9395 16.8135 68.6484 16.8135H67.6956C67.4378 16.8135 67.1941 16.7544 66.9748 16.6515C66.7731 17.1087 66.3162 17.4289 65.7851 17.4289C65.2543 17.4289 64.7972 17.1087 64.5956 16.6513C64.3763 16.7542 64.1325 16.8135 63.8746 16.8135H62.9217ZM64.1643 23.1533L63.3144 21.5354L62.1798 21.9158L62.2725 23.9916L64.1643 23.1533ZM59.1027 74.1499H64.0232V72.398H60.8213C60.2999 72.398 59.9067 72.5463 59.6192 72.8513C59.2627 73.2299 59.1422 73.7793 59.1027 74.1499ZM66.2087 47.804L67.0234 71.548H71.1674V44.5778H60.4031V51.2666L60.4033 52.4291C60.4033 52.4291 60.4031 52.8831 60.4031 53.1941C60.4031 53.3677 60.4033 53.6699 60.4033 53.6699V71.548H64.5475L65.3592 47.8041C65.367 47.5745 65.5556 47.3936 65.7835 47.3936C65.7885 47.3936 65.7936 47.3936 65.7983 47.3939C66.0231 47.4016 66.199 47.5826 66.2067 47.804H66.2087ZM67.5478 74.1499H72.4691C72.43 73.7791 72.3095 73.229 71.9492 72.8484C71.6618 72.5452 71.2696 72.398 70.7497 72.398H67.5478V74.1499ZM75.9788 45.6437C76.0188 45.9428 76.1968 46.1922 76.4429 46.3411C76.599 45.5853 77.1648 44.9785 77.8968 44.7611L77.872 44.5776H75.7439L75.9725 45.6079C75.9751 45.6198 75.9773 45.6317 75.9788 45.6437ZM77.2936 46.4421C77.492 46.3804 77.6658 46.2627 77.7929 46.0976C77.8987 45.9603 77.9599 45.801 77.9804 45.6351C77.6457 45.7865 77.3907 46.0818 77.2936 46.4421ZM75.4421 43.7278H77.8846L77.9951 42.9975H74.9573L75.4421 43.7278ZM55.4373 45.8839L55.8143 44.2662L53.0573 43.3956C53.0573 43.3956 52.98 43.6981 52.9301 44.0989C52.8695 44.586 52.8493 45.2183 53.0573 45.6289C53.2802 46.0692 53.3622 46.2788 53.7373 46.479C54.1191 46.6828 54.4812 46.8003 54.8423 46.564C55.0396 46.4348 55.3075 46.3185 55.4028 46.0322C55.4216 45.9758 55.425 45.9321 55.4373 45.8839ZM74.5125 42.1474L72.0091 29.8361C71.9633 29.6112 71.7462 29.465 71.5212 29.5017C71.2951 29.5403 71.1402 29.7515 71.1715 29.9788C71.183 30.0629 72.2692 38.1026 71.3166 43.7278H60.2538C59.3018 38.1046 60.3875 30.0629 60.399 29.9788C60.4303 29.7515 60.2754 29.5403 60.0493 29.5017C59.8239 29.465 59.6073 29.6112 59.5614 29.8361L56.4831 41.6304L56.2873 42.3807L55.973 43.5849L53.2061 42.6539C53.2752 42.3095 53.3771 41.9629 53.4823 41.4639C53.5221 41.2748 53.5517 40.9911 53.5958 40.7838C54.6588 35.7897 56.8952 25.7993 56.8963 25.7875C56.8985 25.763 57.153 23.3444 60.2306 22.568C60.2409 22.5653 61.3412 22.1969 61.3412 22.1969L61.4505 24.6514C61.4566 24.7916 61.5319 24.9198 61.6513 24.9938C61.7194 25.0361 61.797 25.0575 61.875 25.0575C61.9335 25.0575 61.9921 25.0454 62.0472 25.021L62.318 24.9009C62.5895 25.7292 63.2768 26.7635 64.6265 27.1593C64.64 27.1637 65.1308 27.3235 65.7849 27.3235C66.4344 27.3235 66.923 27.1659 66.9435 27.1593C68.2931 26.7635 68.9805 25.7292 69.252 24.9009L69.5228 25.021C69.5777 25.0454 69.6365 25.0575 69.695 25.0575C69.7728 25.0575 69.8505 25.0361 69.9187 24.9938C70.0381 24.9198 70.1134 24.7918 70.1195 24.6514L70.229 22.1969C70.229 22.1969 71.3292 22.5653 71.3396 22.568C74.3929 23.3383 74.6642 25.6897 74.674 25.7875C74.6754 25.8028 77.9699 42.1474 77.9699 42.1474H74.5125Z" fill="#1C1B1A"/>
<path d="M53.5958 40.7838C53.5517 40.9911 53.5221 41.2748 53.4823 41.4639L56.2873 42.3807L56.4831 41.6304L53.5958 40.7838Z" fill="#1C1B1A"/>
</svg>
