<svg width="20" height="20" viewBox="0 0 20 20" fill="none" xmlns="http://www.w3.org/2000/svg">
<path fill-rule="evenodd" clip-rule="evenodd" d="M14.8158 12.8969L20 18.0811L18.0811 20L12.8969 14.8158C9.4382 17.2767 4.67067 16.6765 1.92988 13.4351C-0.810911 10.1937 -0.61038 5.39272 2.39117 2.39117C5.39272 -0.61038 10.1937 -0.810911 13.4351 1.92988C16.6765 4.67067 17.2767 9.4382 14.8158 12.8969ZM8.18934 1.8592C4.6934 1.8592 1.85937 4.69323 1.85937 8.18917C1.86336 11.6835 4.69505 14.5152 8.18934 14.5191C11.6853 14.5191 14.5193 11.6851 14.5193 8.18917C14.5193 4.69323 11.6853 1.8592 8.18934 1.8592Z" fill="white"/>
</svg>
