<svg width="29" height="75" viewBox="0 0 29 75" fill="none" xmlns="http://www.w3.org/2000/svg">
<path d="M16.3563 13.6509C15.7735 13.9628 15.0777 14.111 14.2516 14.1114C14.2516 14.1114 14.2514 14.1114 14.2513 14.1114C14.2511 14.1114 14.2507 14.1114 14.2504 14.1114C14.2502 14.1114 14.2499 14.1114 14.2496 14.1114C14.2496 14.1114 14.2494 14.1114 14.2492 14.1114C13.4233 14.111 12.7273 13.9627 12.1445 13.6509V14.3235L13.3277 16.6305H15.1729L16.3563 14.3235V13.6509Z" fill="#E5CBBD"/>
<path d="M12.8281 33.6331L14.2509 35.425L15.6739 33.6331L14.6957 19.7637H13.8063L12.8281 33.6331Z" fill="white"/>
<path d="M17.1529 14.6185L16.0166 16.834L18.1117 17.6749L17.9685 14.9608L17.1688 14.5762C17.1634 14.5902 17.1598 14.605 17.1529 14.6185Z" fill="#67BAB2"/>
<path d="M15.3495 17.4736H13.1622L12.9727 17.56L13.6707 18.9204H14.831L15.5352 17.5482L15.3495 17.4736Z" fill="white"/>
<path d="M14.2506 13.2683C15.7142 13.2683 16.488 12.5151 16.5007 12.5041C17.0839 11.937 17.5287 10.9843 17.8068 9.42529C17.8069 9.42428 17.8068 9.42327 17.8068 9.42226C17.8388 9.13965 17.6911 7.84719 17.5216 6.99381C17.4267 7.068 17.3207 7.14 17.2068 7.20509C17.3083 7.28198 17.3748 7.40271 17.3748 7.5398C17.3748 7.77266 17.1861 7.96134 16.9532 7.96134H15.6468C15.4139 7.96134 15.2252 7.77266 15.2252 7.5398C15.2252 7.37135 15.3247 7.22735 15.4674 7.15973C15.1841 6.95368 14.9296 6.64342 14.7079 6.22288C14.2518 5.35669 13.6898 4.81896 13.0377 4.62421C12.3727 4.42507 11.7807 4.64208 11.592 4.72487C11.3657 5.06245 10.7024 6.794 10.6963 9.43423C10.9743 10.9879 11.4185 11.9382 12.0006 12.5041C12.0134 12.5151 12.787 13.2683 14.2506 13.2683ZM15.9506 8.39807C16.1074 8.24125 16.3907 8.24125 16.5475 8.39807C16.6251 8.47732 16.6705 8.58523 16.6705 8.69652C16.6705 8.80781 16.6249 8.9159 16.5475 8.99515C16.4683 9.07271 16.3604 9.11807 16.2489 9.11807C16.1378 9.11807 16.0297 9.07254 15.9505 8.99515C15.8729 8.9159 15.8274 8.80798 15.8274 8.69652C15.8275 8.5854 15.8731 8.47563 15.9506 8.39807ZM13.5679 11.4167C13.6498 11.4673 13.8837 11.5548 14.2508 11.5548C14.6177 11.5548 14.8512 11.4671 14.9333 11.4167C14.9785 11.2324 15.1448 11.0958 15.3429 11.0958C15.5758 11.0958 15.7645 11.2845 15.7645 11.5173C15.7645 12.0359 15.1421 12.398 14.2508 12.398C13.3595 12.398 12.7367 12.036 12.7367 11.5173C12.7367 11.2845 12.9254 11.0958 13.1583 11.0958C13.3564 11.0958 13.5228 11.2324 13.5679 11.4167ZM11.1264 7.53997C11.1264 7.3071 11.3151 7.11842 11.548 7.11842H12.8544C13.0873 7.11842 13.276 7.3071 13.276 7.53997C13.276 7.77283 13.0873 7.96151 12.8544 7.96151H11.548C11.3151 7.96151 11.1264 7.77266 11.1264 7.53997ZM11.8296 8.69652C11.8296 8.5854 11.8751 8.47563 11.9544 8.39807C12.1113 8.24125 12.3944 8.24125 12.5496 8.39807C12.6288 8.47732 12.6744 8.58523 12.6744 8.69652C12.6744 8.80781 12.6287 8.9159 12.5496 8.99515C12.472 9.07271 12.3624 9.11807 12.2511 9.11807C12.1417 9.11807 12.0319 9.07254 11.9544 8.99515C11.8751 8.9159 11.8296 8.80781 11.8296 8.69652Z" fill="#E5CBBD"/>
<path d="M11.1208 4.01669C11.1613 3.99443 12.1246 3.47222 13.2785 3.81637C14.156 4.07857 14.8876 4.75591 15.4533 5.83001C15.7137 6.32441 15.9954 6.58678 16.2907 6.61055C16.7546 6.64411 17.2618 6.1165 17.4037 5.92781C17.5435 5.74166 17.8079 5.70406 17.9939 5.84384C18.0568 5.89089 18.1011 5.95277 18.129 6.02055L18.1305 6.01988C18.3064 6.4453 18.5087 7.65312 18.6011 8.55608C18.9039 7.99154 19.1737 6.81795 18.7881 4.41058C18.4871 2.53065 17.9136 0.843111 14.2501 0.842773C10.5866 0.843111 10.013 2.53065 9.71202 4.41058C9.33465 6.76855 9.58556 7.9423 9.88064 8.51999C10.0159 6.25965 10.6044 4.5099 11.0271 4.08734C11.0547 4.05968 11.0863 4.03574 11.1208 4.01669Z" fill="#998675"/>
<path d="M11.3479 14.6185C11.341 14.605 11.3376 14.5902 11.3322 14.5762L10.5244 14.9648L10.3799 17.8155L12.4935 16.8524L11.3479 14.6185Z" fill="#67BAB2"/>
<path d="M27.5466 40.832H25.1289C25.1289 40.832 25.3985 42.082 25.4 42.0936C25.4393 42.3973 25.5948 42.6674 25.8376 42.8544C26.0802 43.0413 26.3814 43.1225 26.6849 43.0828C27.3117 43.0013 27.7553 42.425 27.6737 41.7979L27.5466 40.832Z" fill="#E5CBBD"/>
<path d="M20.2279 39.9482H8.27148V71.235H12.3347L13.8297 44.0405C13.8423 43.8081 14.0382 43.6294 14.2738 43.6428C14.4903 43.6547 14.6578 43.8288 14.6694 44.0405H14.6699L16.1649 71.235H20.2281V39.9482H20.2279Z" fill="#999999"/>
<path d="M20.381 16.1123C20.3546 16.1054 18.8338 15.377 18.8338 15.377L18.9874 18.2892C18.995 18.433 18.9287 18.5706 18.8117 18.6542C18.739 18.7063 18.653 18.733 18.5665 18.733C18.5134 18.733 18.4601 18.7229 18.4094 18.7026L16.3197 17.8637L15.5159 19.4299L16.5247 33.7374C16.5321 33.8424 16.4999 33.9466 16.4343 34.0291L14.6699 36.251V37.6043H20.2274V24.4257C20.2274 24.3475 20.248 24.2954 20.2509 24.2871L22.6869 17.2938C22.1519 16.8148 21.4105 16.3792 20.381 16.1123Z" fill="#67BAB2"/>
<path d="M14.7555 38.4473H13.7441V39.1049H14.7555V38.4473Z" fill="#4D4D4D"/>
<path d="M12.9009 38.4473H8.27148V39.1049H12.9009V38.4473Z" fill="#E6E6E6"/>
<path d="M24.0597 19.7767C24.0538 19.7157 23.9614 18.8895 23.3316 18.0098L21.0859 24.4562L23.7267 37.8049H27.5934C27.5933 37.8049 24.0611 19.7916 24.0597 19.7767Z" fill="#67BAB2"/>
<path d="M19.7285 72.0781H16.1875V74.1572H21.6556C21.6182 73.7274 21.488 73.0419 21.0506 72.5806C20.7301 72.2424 20.2974 72.0781 19.7285 72.0781Z" fill="#736357"/>
<path d="M20.229 38.4473H15.5996V39.1049H20.229V38.4473Z" fill="#E6E6E6"/>
<path d="M27.645 38.6484H24.0996L24.8525 39.9888H27.5286L27.645 38.6484Z" fill="#67BAB2"/>
<path d="M7.447 72.5835C7.01466 73.0416 6.88398 73.727 6.8457 74.1572H12.3127V72.0781H8.77167C8.20123 72.0781 7.76788 72.2434 7.447 72.5835Z" fill="#736357"/>
<path d="M4.43966 19.7789C4.43831 19.7924 0.90625 37.8053 0.90625 37.8053H4.77302L7.41376 24.4566L5.16826 18.0103C4.53813 18.8901 4.4459 19.7167 4.43966 19.7789Z" fill="#67BAB2"/>
<path d="M0.971646 39.9888H3.6478L4.40068 38.6484H0.855469L0.971646 39.9888Z" fill="#67BAB2"/>
<path d="M0.826046 41.7987C0.744603 42.425 1.18824 43.0013 1.81533 43.0828C2.11902 43.1226 2.42 43.0413 2.66248 42.8544C2.90512 42.6676 3.06059 42.3973 3.10004 42.0936C3.10173 42.082 3.37118 40.832 3.37118 40.832H0.953861L0.826046 41.7987Z" fill="#E5CBBD"/>
<path d="M8.27181 24.4253V37.6039H13.8276V36.2485L12.0649 34.0286C11.9993 33.9462 11.9671 33.842 11.9745 33.7369L12.9835 19.4294L12.2037 17.9097L10.0981 18.8689C10.0425 18.8942 9.98278 18.9069 9.92343 18.9069C9.8403 18.9069 9.75751 18.8823 9.68652 18.8339C9.56477 18.7512 9.49497 18.611 9.50239 18.4641L9.6587 15.3799C9.6587 15.3799 8.14501 16.1049 8.11853 16.1119C7.08945 16.3788 6.34786 16.8143 5.8125 17.2935L8.24837 24.2867C8.2514 24.2949 8.27181 24.3577 8.27181 24.4253Z" fill="#67BAB2"/>
<path d="M12.7363 11.5173C12.7363 12.0358 13.3589 12.3979 14.2504 12.3979C15.1415 12.3979 15.764 12.0359 15.764 11.5173C15.764 11.2844 15.5754 11.0957 15.3425 11.0957C15.1444 11.0957 14.9781 11.2325 14.9329 11.4166C14.851 11.4672 14.6173 11.5547 14.2504 11.5547C13.8833 11.5547 13.6494 11.467 13.5675 11.4166C13.5223 11.2323 13.356 11.0957 13.1579 11.0957C12.925 11.0957 12.7363 11.2844 12.7363 11.5173Z" fill="#1C1B1A"/>
<path d="M12.5481 8.99545C12.6274 8.9162 12.6729 8.80829 12.6729 8.69683C12.6729 8.58571 12.6272 8.47762 12.5481 8.39837C12.393 8.24156 12.1097 8.24156 11.9529 8.39837C11.8737 8.47594 11.8281 8.58554 11.8281 8.69683C11.8281 8.80812 11.8737 8.9162 11.9529 8.99545C12.0305 9.07302 12.1401 9.11838 12.2497 9.11838C12.361 9.11838 12.4706 9.07285 12.5481 8.99545Z" fill="#1C1B1A"/>
<path d="M16.2495 9.11838C16.3608 9.11838 16.4689 9.07285 16.5481 8.99545C16.6257 8.9162 16.671 8.80829 16.671 8.69683C16.671 8.58571 16.6255 8.47762 16.5481 8.39837C16.3913 8.24156 16.108 8.24156 15.9512 8.39837C15.8736 8.47594 15.8281 8.58554 15.8281 8.69683C15.8281 8.80812 15.8738 8.9162 15.9512 8.99545C16.0303 9.07285 16.1384 9.11838 16.2495 9.11838Z" fill="#1C1B1A"/>
<path fill-rule="evenodd" clip-rule="evenodd" d="M28.3401 40.4006L28.5254 38.2632C28.5259 38.259 24.8971 19.6777 24.8971 19.6777C24.8603 19.3451 24.4226 16.31 20.6341 15.3067L17.1995 13.6546V13.0034C17.866 12.2972 18.3177 11.2366 18.6004 9.77079C19.1703 9.45699 20.2682 8.31949 19.6212 4.27752L19.6211 4.27719C19.3817 2.78247 18.9361 0.000843032 14.2518 0H14.2513H14.2505H14.2496H14.2493C9.56491 0.000843094 9.11924 2.78289 8.87981 4.27752C8.23281 8.31983 9.3307 9.45699 9.90063 9.77079C10.1832 11.2366 10.6348 12.297 11.3015 13.0034V13.6546L7.86691 15.3067C4.07838 16.31 3.64065 19.3451 3.60389 19.6777L1.82227 28.7622L1.39212 30.9525L0.0482242 37.8052L0.00843146 38.6483L0.124609 39.9886L0.0568255 42.5107C0.0578372 42.5134 0.0593529 42.5156 0.060196 42.5183C0.280244 43.245 0.907002 43.8146 1.70744 43.9187C1.79461 43.9298 1.88145 43.9355 1.96795 43.9355C2.40434 43.9355 2.82622 43.7927 3.17762 43.5222C3.59394 43.2019 3.86222 42.74 3.93455 42.2205L4.29304 40.5614C4.29304 40.5614 5.53424 38.3089 5.53424 38.3085L7.42935 28.7286V38.0258V71.5474C7.20913 71.6662 7.01016 71.8183 6.83429 72.0045C5.90858 72.9852 5.98681 74.5373 5.99052 74.6027C6.00334 74.8258 6.18797 75 6.4114 75H12.7346C12.9675 75 13.1562 74.8113 13.1562 74.5785V71.6674L14.2507 51.7576L15.3452 71.6674V74.5785C15.3452 74.8113 15.5338 75 15.7667 75H22.0899C22.3133 75 22.498 74.8258 22.5108 74.6027C22.5145 74.5371 22.5927 72.9852 21.667 72.0045C21.4912 71.8183 21.292 71.6662 21.072 71.5474V38.0259V28.7288C21.072 28.7288 23.0082 38.4249 23.0131 38.4333L24.2086 40.5616L24.5669 42.2207C24.6394 42.7402 24.9077 43.2019 25.3239 43.5224C25.6753 43.793 26.0971 43.9358 26.5335 43.9357C26.62 43.9357 26.707 43.9301 26.7942 43.9188C27.882 43.7773 28.6519 42.7771 28.5104 41.6883L28.3401 40.4006ZM18.1115 17.6743L17.9684 14.9602L17.1686 14.5756C17.1675 14.5785 17.1664 14.5814 17.1654 14.5844C17.1645 14.5869 17.1637 14.5894 17.1629 14.5919C17.1599 14.6007 17.157 14.6096 17.1528 14.6179L16.0164 16.8334L18.1115 17.6743ZM12.972 17.5603L13.6701 18.9206H14.8304L15.5347 17.5483L15.3489 17.4738H13.1615L12.972 17.5603ZM14.2501 35.425L15.6731 33.6331L14.695 19.7637H13.8055L12.8273 33.6331L14.2501 35.425ZM13.3276 16.6307H15.1728L16.3562 14.3237V13.651C15.7735 13.9628 15.0776 14.1112 14.2515 14.1115H14.2512H14.2503H14.2495H14.2491C13.4232 14.1112 12.7272 13.963 12.1444 13.651V14.3237L13.3276 16.6307ZM9.71211 4.4109C9.33474 6.76887 9.58564 7.94262 9.88073 8.52031C10.016 6.25998 10.6044 4.51022 11.027 4.08783C11.0548 4.06001 11.0865 4.03606 11.1209 4.01701C11.1614 3.99475 12.1247 3.47237 13.2786 3.81669C14.1561 4.07872 14.8877 4.75623 15.4534 5.83034C15.7138 6.32473 15.9955 6.5871 16.2908 6.61087C16.7546 6.64443 17.2619 6.11682 17.4038 5.92813C17.5436 5.74198 17.808 5.70438 17.994 5.84416C18.0569 5.89138 18.1012 5.95326 18.1291 6.02088L18.1306 6.0202C18.3064 6.44563 18.5088 7.65344 18.6012 8.5564C18.9039 7.99186 19.1737 6.81827 18.7882 4.4109C18.4872 2.53097 17.9137 0.843432 14.2501 0.843095C10.5869 0.843432 10.0131 2.53097 9.71211 4.4109ZM11.5915 4.72504C11.3654 5.06261 10.7019 6.79416 10.6958 9.4344C10.9739 10.9881 11.418 11.9384 12.0001 12.5043C12.0129 12.5152 12.7865 13.2685 14.2501 13.2685C15.7138 13.2685 16.4876 12.5152 16.5002 12.5043C17.0835 11.9372 17.5283 10.9845 17.8063 9.42546C17.8065 9.42445 17.8063 9.42344 17.8063 9.42242C17.8384 9.13999 17.6907 7.84736 17.5212 6.99398C17.4263 7.06834 17.3202 7.14017 17.2064 7.20525C17.3077 7.28214 17.3743 7.40288 17.3743 7.53996C17.3743 7.77283 17.1856 7.96151 16.9528 7.96151H15.6463C15.4135 7.96151 15.2248 7.77283 15.2248 7.53996C15.2248 7.37151 15.3241 7.22734 15.4669 7.1599C15.1836 6.95384 14.9292 6.64358 14.7074 6.22305C14.2513 5.35702 13.6893 4.81913 13.0373 4.62437C12.3722 4.4254 11.7802 4.64242 11.5915 4.72504ZM11.332 14.5754L10.5242 14.9641L10.3798 17.8148L12.4935 16.8516L11.3477 14.6177C11.3433 14.6092 11.3404 14.6001 11.3374 14.591C11.3357 14.5858 11.334 14.5805 11.332 14.5754ZM2.66266 42.8543C2.90547 42.6673 3.06094 42.3972 3.10023 42.0935C3.10191 42.0817 3.37153 40.8319 3.37153 40.8319H0.954046L0.826232 41.7986C0.74462 42.4249 1.18843 43.0012 1.81552 43.0826C2.11903 43.1226 2.42002 43.0412 2.66266 42.8543ZM0.970907 39.9886H3.64706L4.39994 38.6483H0.854729L0.970907 39.9886ZM0.90717 37.8052H4.77394L7.41451 24.4565L5.16901 18.0102C4.53905 18.89 4.44665 19.7168 4.44058 19.7788C4.43923 19.7923 0.90717 37.8052 0.90717 37.8052ZM8.11866 16.1122C7.08941 16.3791 6.348 16.8147 5.81263 17.2939L8.2485 24.287C8.25153 24.2953 8.27194 24.358 8.27194 24.4256V37.6042H13.8278V36.2488L12.065 34.029C11.9996 33.9465 11.9672 33.8423 11.9746 33.7373L12.9837 19.4298L12.2038 17.91L10.0982 18.8693C10.0426 18.8948 9.98308 18.9072 9.92356 18.9072C9.84043 18.9072 9.75764 18.8826 9.68665 18.8342C9.56491 18.7516 9.4951 18.6113 9.50252 18.4644L9.65883 15.3802C9.65883 15.3802 8.14514 16.1053 8.11866 16.1122ZM14.7558 39.1051V38.4475H13.7445V39.1051H14.7558ZM12.9014 39.1051V38.4475H8.27194V39.1051H12.9014ZM6.84559 74.1571H12.3125V72.078H8.77155C8.20128 72.078 7.76777 72.2433 7.44688 72.5834C7.01438 73.0415 6.88387 73.7269 6.84559 74.1571ZM14.6697 44.0402H14.6702L16.165 71.2349H20.2282V39.9482H8.27177V71.2347H12.335L13.83 44.0402C13.8426 43.8079 14.0387 43.6291 14.2741 43.6426C14.4908 43.6544 14.6582 43.8284 14.6697 44.0402ZM15.5989 38.4475V39.1051H20.2284V38.4475H15.5989ZM16.1878 74.1571H21.6559C21.6186 73.7273 21.4883 73.0418 21.0509 72.5805C20.7303 72.2424 20.2977 72.078 19.7288 72.078H16.1878V74.1571ZM20.2284 37.6042V24.4256C20.2284 24.352 20.2466 24.3016 20.2511 24.289L20.2518 24.287L22.6882 17.2937C22.1528 16.8147 21.4114 16.3791 20.382 16.1122C20.3555 16.1053 18.8347 15.3769 18.8347 15.3769L18.9883 18.2891C18.9959 18.4329 18.9297 18.5705 18.8126 18.6541C18.74 18.7062 18.6541 18.7329 18.5675 18.7329C18.5144 18.7329 18.4611 18.7228 18.4103 18.7025L16.3206 17.8637L15.5168 19.4298L16.5257 33.7373C16.5331 33.8423 16.5009 33.9465 16.4353 34.029L14.6709 36.2509V37.6042H20.2284ZM23.3313 18.01L21.0856 24.4565L23.7262 37.8052H27.593C27.593 37.8052 24.0607 19.7918 24.0594 19.777C24.0535 19.7159 23.9611 18.8899 23.3313 18.01ZM27.6456 38.6483H24.1004L24.8532 39.9886H27.5294L27.6456 38.6483ZM25.8376 42.8543C26.0803 43.0412 26.3814 43.1223 26.685 43.0826C27.3117 43.001 27.7553 42.4247 27.6739 41.7979L27.5466 40.8319H25.1289C25.1289 40.8319 25.3984 42.0819 25.4001 42.0935C25.4395 42.3972 25.595 42.6675 25.8376 42.8543Z" fill="#1C1B1A"/>
<path d="M13.2746 7.53971C13.2746 7.30685 13.0859 7.11816 12.853 7.11816H11.5465C11.3137 7.11816 11.125 7.30685 11.125 7.53971C11.125 7.77257 11.3137 7.96126 11.5465 7.96126H12.853C13.0859 7.96126 13.2746 7.77241 13.2746 7.53971Z" fill="#1C1B1A"/>
</svg>
