<svg width="85" height="75" viewBox="0 0 85 75" fill="none" xmlns="http://www.w3.org/2000/svg">
<path d="M67.1893 18.7443L66.2672 16.9888L65.0361 17.4016L65.1367 19.6539L67.1893 18.7443Z" fill="white"/>
<path d="M79.4265 41.0678H82.0766L82.1965 40.2754H78.9004L79.4265 41.0678Z" fill="#588AA3"/>
<path d="M68.2662 8.36389C68.5027 8.36389 68.6953 8.54245 68.722 8.77174H69.1767C69.2034 8.54245 69.3958 8.36389 69.6325 8.36389H72.0796C71.9687 6.32579 71.1041 4.30908 68.9494 4.30908C66.7948 4.30908 65.9302 6.32597 65.8193 8.36389H68.2662ZM67.993 5.12956H69.9057C70.1604 5.12956 70.3668 5.33597 70.3668 5.59071C70.3668 5.84545 70.1604 6.05187 69.9057 6.05187H67.993C67.7383 6.05187 67.5319 5.84545 67.5319 5.59071C67.5319 5.33597 67.7385 5.12956 67.993 5.12956ZM67.2419 6.62498H70.657C70.9117 6.62498 71.1182 6.8314 71.1182 7.08614C71.1182 7.34088 70.9117 7.54729 70.657 7.54729H67.2419C66.9872 7.54729 66.7807 7.34088 66.7807 7.08614C66.7807 6.8314 66.9872 6.62498 67.2419 6.62498Z" fill="#E0B489"/>
<path d="M73.4451 8.36367C73.6999 8.36367 73.9063 8.57008 73.9063 8.82482V9.43299C74.0721 8.95653 74.119 8.11834 73.6667 6.65722C73.3192 5.53515 72.618 4.83586 71.7656 4.68848C72.4904 5.55415 72.929 6.81641 73.0015 8.36367H73.4451Z" fill="#CCCCCC"/>
<path d="M70.093 10.0141C70.093 10.5262 70.5097 10.9429 71.0217 10.9429H72.0556C72.5677 10.9429 72.9844 10.5262 72.9844 10.0141V9.55132V9.28662H70.0928V10.0141H70.093ZM71.2128 9.78854C71.3844 9.61699 71.6943 9.61699 71.864 9.78854C71.9507 9.87542 72.0005 9.99329 72.0005 10.1152C72.0005 10.237 71.9507 10.355 71.864 10.4417C71.7791 10.5266 71.6592 10.5764 71.5393 10.5764C71.4176 10.5764 71.2993 10.5264 71.2128 10.4417C71.1261 10.355 71.0782 10.2371 71.0782 10.1152C71.0782 9.99347 71.1261 9.87542 71.2128 9.78854Z" fill="#D8D5D4"/>
<path d="M72.7607 19.6539L72.8612 17.4016L71.6301 16.9888L70.708 18.7443L72.7607 19.6539Z" fill="white"/>
<path d="M71.8551 20.2621L70.8429 19.8135L70.082 20.9014L70.3834 22.0379C71.3353 21.5813 71.714 20.7315 71.8551 20.2621Z" fill="white"/>
<path d="M72.9291 11.6455C72.6686 11.7855 72.3711 11.8654 72.0553 11.8654H71.0214C70.7416 11.8654 70.4772 11.8012 70.2393 11.6896C70.0205 12.1856 69.5247 12.5331 68.9484 12.5331C68.3725 12.5331 67.8765 12.1856 67.6578 11.6894C67.4198 11.801 67.1551 11.8654 66.8755 11.8654H65.8416C65.5258 11.8654 65.2282 11.7853 64.9678 11.6455C65.2627 13.6773 66.8146 15.0435 68.9486 15.0435C71.0825 15.0433 72.6343 13.6772 72.9291 11.6455ZM67.2438 13.2678C67.2438 13.0131 67.4502 12.8067 67.705 12.8067C67.849 12.8067 67.9778 12.8727 68.0625 12.9764C68.1907 13.0144 68.4969 13.0679 68.9484 13.0679C69.3998 13.0679 69.706 13.0144 69.8344 12.9764C69.9189 12.8727 70.0476 12.8067 70.1919 12.8067C70.4466 12.8067 70.653 13.0131 70.653 13.2678C70.653 13.4466 70.653 13.9902 68.9486 13.9902C67.2438 13.9904 67.2438 13.4466 67.2438 13.2678Z" fill="#E0B489"/>
<path d="M70.6951 15.6792C70.1589 15.8653 69.5723 15.9655 68.9484 15.9655C68.3248 15.9655 67.7384 15.8655 67.2021 15.6794V16.785L68.1045 18.5029H69.7927L70.6951 16.785V15.6792Z" fill="#E0B489"/>
<path d="M65.8409 10.9427H66.8748C67.3868 10.9427 67.8035 10.526 67.8035 10.0139V9.28662H64.9121V9.55132V10.0141C64.9121 10.526 65.3288 10.9427 65.8409 10.9427ZM66.0322 9.78835C66.2019 9.61681 66.5119 9.61681 66.6833 9.78835C66.77 9.87321 66.8198 9.99311 66.8198 10.115C66.8198 10.2368 66.7698 10.3548 66.6833 10.4415C66.5985 10.5264 66.4802 10.5762 66.3587 10.5762C66.2351 10.5762 66.1168 10.5262 66.032 10.4415C65.9453 10.3548 65.8955 10.237 65.8955 10.115C65.8957 9.99329 65.9456 9.87321 66.0322 9.78835Z" fill="#D8D5D4"/>
<path d="M68.6695 21.2729L68.3965 22.3021C68.5684 22.3281 68.7519 22.3434 68.9486 22.3458C69.1452 22.3432 69.3289 22.3279 69.5007 22.3021L69.2277 21.2729H68.6695Z" fill="#8C6239"/>
<path d="M69.9694 19.4253H67.9293L67.9131 19.4325L68.5556 20.3511H69.3432L69.9857 19.4325L69.9694 19.4253Z" fill="#8C6239"/>
<path d="M68.7261 9.69434V10.0138C68.7261 10.3621 68.6278 10.6867 68.46 10.9653V11.1221C68.46 11.3914 68.6791 11.6105 68.9482 11.6105C69.2175 11.6105 69.4367 11.3914 69.4367 11.1221V10.9658C69.2686 10.6871 69.1701 10.3623 69.1701 10.0138V9.69434H68.7261Z" fill="#C69C6D"/>
<path d="M64.2307 6.65722C63.7784 8.11778 63.8249 8.95579 63.9907 9.43243V8.82482C63.9907 8.57008 64.1971 8.36367 64.4519 8.36367H64.8953C64.968 6.81641 65.4065 5.55433 66.1312 4.68848C65.279 4.83586 64.5779 5.53515 64.2307 6.65722Z" fill="#CCCCCC"/>
<path d="M82.062 41.9907H79.7529L80.001 43.1086C80.004 43.1215 80.0062 43.1344 80.0079 43.1475C80.0512 43.4719 80.2443 43.7425 80.5114 43.9041C80.6808 43.084 81.2947 42.4255 82.0889 42.1899L82.062 41.9907Z" fill="#C69C6D"/>
<path d="M81.4355 44.0128C81.6508 43.9459 81.8393 43.8181 81.9773 43.6391C82.092 43.4901 82.1584 43.3172 82.1808 43.1372C81.8178 43.3016 81.5411 43.622 81.4355 44.0128Z" fill="#C69C6D"/>
<path d="M78.594 21.602C78.5832 21.496 78.2889 18.9445 74.976 18.1087C74.9646 18.1058 73.7709 17.7061 73.7709 17.7061L73.6522 20.3693C73.6455 20.5215 73.5638 20.6606 73.4343 20.7408C73.3603 20.7867 73.276 20.81 73.1916 20.81C73.1281 20.81 73.0645 20.7969 73.0047 20.7703L72.7108 20.6401C72.4163 21.5388 71.6705 22.661 70.2061 23.0905C70.2003 23.0923 69.665 23.2686 68.949 23.2686C68.2329 23.2686 67.6978 23.0923 67.692 23.0905C66.2276 22.661 65.4818 21.5388 65.1873 20.6401L64.8934 20.7703C64.8338 20.7969 64.77 20.81 64.7066 20.81C64.6219 20.81 64.5378 20.7867 64.4638 20.7408C64.3343 20.6606 64.2526 20.5217 64.246 20.3693L64.1273 17.7061C64.1273 17.7061 62.9335 18.1058 62.9223 18.1087C59.5828 18.9512 59.3067 21.5757 59.3044 21.602C59.3028 21.6186 54.9541 39.9028 54.9541 39.9028C57.1676 40.8251 58.3179 40.9783 58.3666 41.194L60.2201 35.7133L62.1962 25.995C62.246 25.7509 62.481 25.5923 62.7256 25.6321C62.971 25.674 63.1388 25.9031 63.1051 26.1497C63.0925 26.241 61.9146 34.9666 62.9475 41.068H74.9511C75.9847 34.9644 74.8061 26.241 74.7936 26.1497C74.7595 25.9031 74.9277 25.674 75.173 25.6321C75.4173 25.5923 75.653 25.7509 75.7024 25.995L78.4188 39.3532H82.1705C82.1702 39.3532 78.5955 21.6186 78.594 21.602Z" fill="#588AA3"/>
<path d="M74.3345 72.1758H70.8604V74.0766H76.2001C76.1579 73.6743 76.0269 73.0774 75.6359 72.6646C75.3241 72.3355 74.8986 72.1758 74.3345 72.1758Z" fill="#4D4D4D"/>
<path d="M62.2586 72.6676C61.8716 73.0783 61.741 73.6745 61.6982 74.0766H67.0371V72.1758H63.563C62.9972 72.1758 62.5706 72.3366 62.2586 72.6676Z" fill="#4D4D4D"/>
<path d="M74.7881 41.9907H63.1084V49.2483V50.5096L63.1086 51.5241C63.1086 51.5241 63.1086 51.8008 63.1086 51.856V71.2545H67.6052L68.486 45.4914C68.4945 45.242 68.699 45.0459 68.9464 45.0459C68.9517 45.0459 68.9573 45.0459 68.9624 45.0463C69.2063 45.0546 69.3972 45.2511 69.4055 45.4912H69.4077L70.2917 71.2545H74.7883V41.9907H74.7881Z" fill="#736357"/>
<path d="M66.042 20.2619C66.1829 20.7315 66.5614 21.5812 67.5136 22.0379L67.815 20.9014L67.0541 19.8135L66.042 20.2619Z" fill="white"/>
<path d="M70.6524 13.2673C70.6524 13.0126 70.446 12.8062 70.1912 12.8062C70.0471 12.8062 69.9184 12.8722 69.8337 12.9759C69.7055 13.0139 69.3993 13.0673 68.9478 13.0673C68.4964 13.0673 68.1902 13.0139 68.0618 12.9759C67.9773 12.8722 67.8486 12.8062 67.7043 12.8062C67.4496 12.8062 67.2432 13.0126 67.2432 13.2673C67.2432 13.446 67.2432 13.9897 68.9476 13.9897C70.6524 13.9898 70.6524 13.446 70.6524 13.2673Z" fill="#1C1B1A"/>
<path d="M67.2414 7.5473H70.6565C70.9113 7.5473 71.1177 7.34089 71.1177 7.08615C71.1177 6.83141 70.9113 6.625 70.6565 6.625H67.2414C66.9867 6.625 66.7803 6.83141 66.7803 7.08615C66.7803 7.34089 66.9867 7.5473 67.2414 7.5473Z" fill="#1C1B1A"/>
<path d="M67.9924 6.05219H69.9051C70.1598 6.05219 70.3662 5.84577 70.3662 5.59103C70.3662 5.33629 70.1598 5.12988 69.9051 5.12988H67.9924C67.7377 5.12988 67.5312 5.33629 67.5312 5.59103C67.5312 5.84577 67.7378 6.05219 67.9924 6.05219Z" fill="#1C1B1A"/>
<path d="M66.3605 10.5762C66.482 10.5762 66.6003 10.5262 66.6851 10.4415C66.7718 10.3548 66.8216 10.2369 66.8216 10.115C66.8216 9.99326 66.7716 9.87318 66.6851 9.78833C66.5136 9.61678 66.2037 9.61678 66.034 9.78833C65.9473 9.87318 65.8975 9.99308 65.8975 10.115C65.8975 10.2368 65.9474 10.3548 66.034 10.4415C66.1186 10.5262 66.2369 10.5762 66.3605 10.5762Z" fill="#1C1B1A"/>
<path d="M71.5393 10.5762C71.659 10.5762 71.7791 10.5262 71.8639 10.4415C71.9506 10.3548 72.0004 10.2369 72.0004 10.115C72.0004 9.99326 71.9506 9.87521 71.8639 9.78833C71.6942 9.61678 71.3843 9.61678 71.2128 9.78833C71.1261 9.87521 71.0781 9.99308 71.0781 10.115C71.0781 10.2368 71.1261 10.3548 71.2128 10.4415C71.2993 10.5262 71.4175 10.5762 71.5393 10.5762Z" fill="#1C1B1A"/>
<path d="M58.4204 41.6554L55.0323 40.4564L54.7688 41.8401C54.56 41.8796 54.5981 42.0772 54.7687 42.1167C54.7503 42.4435 54.7996 42.9222 55.0316 43.1311C55.4143 44.4224 56.7978 44.7914 57.6825 43.7767L58.4204 41.6554Z" fill="#C69C6D"/>
<path fill-rule="evenodd" clip-rule="evenodd" d="M83.0102 42.1142L82.935 41.5591L83.1934 39.8097C83.1932 39.7809 79.5088 21.4902 79.5088 21.4902C79.4686 21.1445 79.0159 18.1859 75.2181 17.2192L71.617 16.0119V15.2445C73.0237 14.3864 73.9062 12.8283 73.9062 10.9315V10.8289C74.1124 10.7155 74.3658 10.5181 74.573 10.177C75.0775 9.34584 75.069 8.07011 74.5475 6.38524C73.9527 4.46372 72.3949 3.43738 70.7163 3.82216C70.1974 3.5392 69.6038 3.38721 68.9479 3.38721C68.2919 3.38721 67.6985 3.53902 67.1795 3.82216C65.5009 3.4372 63.9433 4.4639 63.3486 6.38524C62.8271 8.07011 62.8186 9.34584 63.3229 10.177C63.5301 10.5183 63.7835 10.7155 63.9898 10.8289V10.9315C63.9898 12.8285 64.8722 14.3864 66.2793 15.2447V16.0119L62.6782 17.2192C58.8802 18.1859 58.4275 21.1449 58.3875 21.4902L54.2536 40.4243C54.2536 40.4243 54.1908 40.7424 54.1481 41.1942C54.082 41.8927 54.064 42.911 54.4 43.5686C54.7393 44.2328 55.0669 44.6922 55.7835 44.9757C56.4734 45.2487 57.0975 45.2865 57.6829 44.9302C58.3659 44.5145 58.6426 43.7767 58.6426 43.7767L61.5018 33.4871C61.4335 36.1457 61.6333 39.1017 62.1086 41.6202L62.109 41.6226L62.1094 41.6244C62.1341 41.7545 62.1597 41.8834 62.1863 42.0112V45.0572L62.1861 52.3958V71.5747C61.964 71.695 61.7633 71.8483 61.5864 72.0359C60.6756 73.0023 60.7536 74.5025 60.7573 74.5659C60.7718 74.8094 60.9736 74.9998 61.2177 74.9998H67.4973C67.752 74.9998 67.9584 74.7934 67.9584 74.5386V72.1766H68.0507C68.2993 72.1766 68.503 71.9796 68.5116 71.7311L68.9475 58.982L69.3849 71.7313C69.3935 71.9798 69.5972 72.1766 69.8458 72.1766H69.9381V74.5386C69.9381 74.7934 70.1445 74.9998 70.3992 74.9998H76.6788C76.9228 74.9998 77.1246 74.8096 77.1392 74.5659C77.1429 74.5025 77.2207 73.0023 76.3101 72.0359C76.1332 71.8483 75.9325 71.695 75.7104 71.5747V42.0112C75.7371 41.8836 75.7626 41.7545 75.7873 41.6244L75.7876 41.6226L75.788 41.6202C76.2634 39.1019 76.3516 36.1459 76.2835 33.4871C76.2835 33.4871 77.6428 40.0489 77.6564 40.0698L78.7472 41.7131L79.0971 43.2903C79.2393 44.2727 80.1039 44.9892 81.094 44.989C81.1798 44.989 81.2669 44.9836 81.3541 44.9726C81.8972 44.9039 82.3779 44.6304 82.7075 44.2021C82.9619 43.8715 83.0993 43.4793 83.1113 43.073C83.6689 43.2371 84.0777 43.7529 84.0777 44.3629V74.5384C84.0777 74.7932 84.2841 74.9996 84.5389 74.9996C84.7936 74.9996 85 74.7932 85 74.5384V44.3631C85.0004 43.2067 84.1299 42.2516 83.0102 42.1142ZM72.8607 17.4012L71.6296 16.9886L70.7074 18.7439L72.7601 19.6535L72.8607 17.4012ZM69.3422 20.3511L69.9847 19.4327L69.9685 19.4255H67.9284L67.9121 19.4327L68.5546 20.3511H69.3422ZM68.9484 22.3462C69.1451 22.3439 69.3286 22.3285 69.5005 22.3025L69.2277 21.2734H68.6693L68.3963 22.3025C68.5683 22.3284 68.7518 22.3437 68.9484 22.3462ZM68.1043 18.503H69.7925L70.6949 16.7851V15.6793C70.1587 15.8654 69.5721 15.9656 68.9482 15.9656C68.3246 15.9656 67.7382 15.8656 67.202 15.6795V16.7851L68.1043 18.503ZM67.5126 22.0376L67.814 20.9012L67.0529 19.8131L66.041 20.2617C66.1819 20.7313 66.5606 21.5809 67.5126 22.0376ZM71.8561 20.2618L70.8439 19.8132L70.0829 20.9014L70.3843 22.0378C71.3365 21.5811 71.715 20.7315 71.8561 20.2618ZM72.9841 10.0141V9.55133L72.9842 9.28681H70.0926V10.0141C70.0926 10.5262 70.5093 10.9429 71.0214 10.9429H72.0553C72.5674 10.9429 72.9841 10.5262 72.9841 10.0141ZM73.9064 9.43364C74.0722 8.95718 74.119 8.11899 73.6667 6.65788C73.3192 5.5358 72.6183 4.83651 71.7659 4.68913C72.4906 5.55499 72.9293 6.81707 73.0018 8.36432H73.4452C73.6999 8.36432 73.9064 8.57073 73.9064 8.82547V9.43364ZM72.0784 8.36432C71.9675 6.3264 71.1029 4.30951 68.9482 4.30951C66.7937 4.30951 65.929 6.3264 65.8181 8.36432H68.265C68.5017 8.36432 68.6941 8.54288 68.7208 8.77216H69.1755C69.2022 8.54288 69.3948 8.36432 69.6313 8.36432H72.0784ZM69.4369 11.1224V10.9661C69.2687 10.6874 69.1701 10.3624 69.1701 10.0141V9.69465H68.7263V10.0141C68.7263 10.3622 68.628 10.687 68.4602 10.9656V11.1224C68.4602 11.3917 68.6793 11.6108 68.9484 11.6108C69.2176 11.6108 69.4369 11.3917 69.4369 11.1224ZM63.9901 8.82547C63.9901 8.57073 64.1965 8.36432 64.4513 8.36432H64.8949C64.9674 6.81707 65.406 5.5548 66.1308 4.68913C65.2784 4.83651 64.5773 5.5358 64.2301 6.65788C63.7778 8.11844 63.8243 8.95644 63.9901 9.43309V8.82547ZM64.9124 9.28662V9.55133L64.9126 10.014C64.9126 10.526 65.3293 10.9427 65.8414 10.9427H66.8753C67.3873 10.9427 67.804 10.526 67.804 10.014V9.28662H64.9124ZM65.8412 11.8652C65.5254 11.8652 65.2279 11.7853 64.9674 11.6453C65.2624 13.677 66.8142 15.0431 68.9479 15.0433C71.0819 15.0433 72.6338 13.6772 72.9287 11.6453C72.6683 11.7851 72.3707 11.8652 72.0549 11.8652H71.021C70.7414 11.8652 70.4769 11.801 70.2389 11.6894C70.0201 12.1854 69.5243 12.5329 68.9481 12.5329C68.3722 12.5329 67.8762 12.1854 67.6574 11.6892C67.4194 11.8008 67.1549 11.8652 66.8751 11.8652H65.8412ZM67.1894 18.7441L66.2673 16.9886L65.0362 17.4014L65.1367 19.6537L67.1894 18.7441ZM61.6975 74.0775H67.0363V72.1766H63.5622C62.9964 72.1766 62.5698 72.3375 62.2579 72.6684C61.871 73.0792 61.7403 73.6754 61.6975 74.0775ZM69.4077 45.4911L70.2917 71.2543H74.7881V41.9906H63.1084V49.2482L63.1086 50.5095C63.1086 50.5095 63.1083 51.0021 63.1084 51.3396C63.1084 51.5279 63.1086 51.8559 63.1086 51.8559V71.2543H67.6052L68.486 45.4913C68.4945 45.2421 68.699 45.0458 68.9464 45.0458C68.9517 45.0458 68.9573 45.0458 68.9624 45.0462C69.2063 45.0545 69.3972 45.2509 69.4055 45.4911H69.4077ZM70.8607 74.0775H76.2005C76.1581 73.6752 76.0273 73.0783 75.6364 72.6653C75.3245 72.3364 74.8989 72.1766 74.3349 72.1766H70.8607V74.0775ZM80.0087 43.1471C80.052 43.4716 80.2452 43.7422 80.5123 43.9038C80.6816 43.0837 81.2955 42.4253 82.0898 42.1894L82.0628 41.9904H79.7538L80.0019 43.1082C80.0046 43.1211 80.007 43.134 80.0087 43.1471ZM81.4353 44.0134C81.6506 43.9464 81.8391 43.8188 81.9771 43.6396C82.0918 43.4906 82.1582 43.3178 82.1805 43.1377C81.8173 43.3021 81.5406 43.6225 81.4353 44.0134ZM79.4263 41.0683H82.0765L82.1964 40.2758H78.9003L79.4263 41.0683ZM57.7203 43.4078L58.1293 41.6525L55.1379 40.7078C55.1379 40.7078 55.0541 41.0361 54.9999 41.4709C54.9342 41.9995 54.9122 42.6855 55.1379 43.1311C55.3798 43.6088 55.4688 43.8362 55.8757 44.0534C56.29 44.2745 56.6829 44.4021 57.0747 44.1456C57.2888 44.0054 57.5795 43.8793 57.6829 43.5686C57.7033 43.5074 57.707 43.46 57.7203 43.4078ZM78.4177 39.3535L75.7013 25.9952C75.6517 25.7512 75.4162 25.5926 75.1719 25.6324C74.9266 25.6743 74.7586 25.9034 74.7925 26.15C74.8051 26.2413 75.9836 34.9646 74.95 41.0683H62.9464C61.9135 34.9669 63.0914 26.2413 63.104 26.15C63.1379 25.9034 62.9699 25.6743 62.7245 25.6324C62.4799 25.5926 62.2449 25.7512 62.1951 25.9952L58.8551 38.7925L58.6426 39.6066L58.3016 40.9132L55.2993 39.903C55.3743 39.5294 55.4849 39.1533 55.599 38.6118C55.6422 38.4067 55.6743 38.0989 55.7222 37.874C56.8756 32.4551 59.3022 21.6151 59.3034 21.6023C59.3057 21.5758 59.5819 18.9514 62.9212 18.109C62.9324 18.1061 64.1263 17.7063 64.1263 17.7063L64.2449 20.3696C64.2515 20.5217 64.3332 20.6608 64.4627 20.7411C64.5367 20.787 64.6208 20.8102 64.7055 20.8102C64.7689 20.8102 64.8326 20.7971 64.8923 20.7706L65.1862 20.6404C65.4808 21.539 66.2265 22.6613 67.691 23.0907C67.7056 23.0955 68.2381 23.2689 68.9479 23.2689C69.6526 23.2689 70.1827 23.0979 70.205 23.0907C71.6694 22.6613 72.4152 21.539 72.7098 20.6404L73.0036 20.7706C73.0632 20.7971 73.127 20.8102 73.1905 20.8102C73.275 20.8102 73.3592 20.787 73.4332 20.7411C73.5627 20.6608 73.6444 20.5219 73.6511 20.3696L73.7699 17.7063C73.7699 17.7063 74.9637 18.1061 74.9749 18.109C78.2878 18.9448 78.5822 21.4963 78.5929 21.6023C78.5944 21.6189 82.1691 39.3535 82.1691 39.3535H78.4177Z" fill="#1C1B1A"/>
<path d="M55.7222 37.874C55.6743 38.0989 55.6422 38.4067 55.599 38.6118L58.6426 39.6066L58.8551 38.7925L55.7222 37.874Z" fill="#1C1B1A"/>
<path d="M33.4123 8.55791H34.3122C34.7438 8.55791 35.0953 8.24617 35.0953 7.86282V7.33008H32.6289V7.86282C32.6289 8.246 32.9804 8.55791 33.4123 8.55791ZM33.5609 7.64317C33.7195 7.48458 34.0042 7.48458 34.1627 7.64317C34.243 7.72162 34.2889 7.83076 34.2889 7.94331C34.2889 8.05586 34.2428 8.16671 34.1627 8.24515C34.0844 8.3253 33.9735 8.36964 33.8625 8.36964C33.75 8.36964 33.639 8.3253 33.5607 8.24515C33.4804 8.16671 33.4362 8.05586 33.4362 7.94331C33.4364 7.83076 33.4805 7.72162 33.5609 7.64317Z" fill="#D8D5D4"/>
<path d="M32.7229 3.28296C33.2202 2.78517 33.6907 3.03961 34.0686 3.2439C34.4886 3.47088 35.064 3.78193 36.2255 3.7821C37.3875 3.78193 37.9629 3.47088 38.3827 3.2439C38.7608 3.03978 39.2304 2.785 39.7284 3.28296C40.1927 3.74697 40.2256 5.42398 40.16 6.47736H40.2473C40.4828 6.47736 40.6736 6.66818 40.6736 6.90369V7.70757C40.9589 7.10372 41.1845 5.91716 40.8152 3.61004C40.5882 2.19207 40.3737 0.85271 36.2255 0.852539C32.0775 0.85271 31.8631 2.19207 31.6361 3.61004C31.2668 5.91716 31.4924 7.10372 31.7777 7.7074V6.90369C31.7777 6.66818 31.9685 6.47736 32.204 6.47736H32.2915C32.2258 5.42415 32.2587 3.74714 32.7229 3.28296Z" fill="#754C24"/>
<path d="M36.2258 12.5683C37.8557 12.5681 39.0796 11.9882 39.7017 9.27619C39.4986 9.36179 39.2744 9.41056 39.0378 9.41056H38.1379C37.236 9.41056 36.5022 8.71633 36.5022 7.86282V7.33008H35.9497V7.86282C35.9497 8.71616 35.2159 9.41056 34.3139 9.41056H33.414C33.1775 9.41056 32.9533 9.36179 32.75 9.27601C33.3723 11.9882 34.5962 12.5681 36.2258 12.5683ZM35.1214 10.3712C35.322 10.3712 35.4899 10.5095 35.5356 10.6957C35.6185 10.7467 35.855 10.8354 36.2261 10.8354C36.5972 10.8354 36.8336 10.7467 36.9166 10.6955C36.9623 10.5093 37.1304 10.371 37.3308 10.371C37.5663 10.371 37.7572 10.5618 37.7572 10.7973C37.7572 11.3217 37.1277 11.688 36.2261 11.688C35.3247 11.688 34.6951 11.3219 34.6951 10.7973C34.6951 10.562 34.8859 10.3712 35.1214 10.3712Z" fill="#C69C6D"/>
<path d="M33.2897 13.9336C33.2827 13.92 33.2792 13.9049 33.2737 13.8906L32.4567 14.2837L32.3105 17.1665L34.4483 16.1928L33.2897 13.9336Z" fill="#A6D9FF"/>
<path d="M39.1609 13.9328L38.0117 16.1732L40.1306 17.0235L39.9858 14.2788L39.177 13.8896C39.1715 13.9041 39.1679 13.9192 39.1609 13.9328Z" fill="#A6D9FF"/>
<path d="M37.3535 7.86282C37.3535 8.24617 37.7048 8.55791 38.1366 8.55791H39.0365C39.4685 8.55791 39.8199 8.24617 39.8199 7.86282V7.33008H37.3535V7.86282ZM38.2848 7.64317C38.4451 7.48458 38.7283 7.48287 38.8885 7.64317C38.9669 7.72162 39.013 7.83246 39.013 7.94331C39.013 8.05586 38.9667 8.16671 38.8885 8.24515C38.8083 8.3253 38.6994 8.36964 38.5866 8.36964C38.4741 8.36964 38.3649 8.3253 38.2846 8.24515C38.2062 8.16671 38.1603 8.05586 38.1603 7.94331C38.1605 7.83076 38.2063 7.72162 38.2848 7.64317Z" fill="#D8D5D4"/>
<path d="M39.1141 3.87446C39.1023 3.86338 39.0921 3.8557 39.0847 3.85059C39.0256 3.86576 38.8946 3.93653 38.7875 3.99451C38.3443 4.23411 37.6028 4.63486 36.226 4.6352C36.2258 4.6352 36.2258 4.6352 36.2256 4.6352C36.2254 4.6352 36.2251 4.6352 36.2248 4.6352C36.2246 4.6352 36.2244 4.6352 36.2241 4.6352C36.2239 4.6352 36.2239 4.6352 36.2237 4.6352C34.847 4.63486 34.1056 4.23394 33.6623 3.99451C33.5556 3.93687 33.425 3.86627 33.3655 3.85076C33.3568 3.85707 33.3435 3.86815 33.3252 3.8864C33.1821 4.0924 33.0568 5.28288 33.1441 6.47797H39.3063C39.3931 5.28271 39.2667 4.09138 39.1141 3.87446Z" fill="#C69C6D"/>
<path d="M30.1788 23.8513V36.3112L30.3711 37.1795H35.7976V35.8088L34.0151 33.5636C33.9487 33.48 33.9162 33.3748 33.9237 33.2686L34.9439 18.7988L34.1552 17.262L32.0258 18.2319C31.9694 18.2577 31.909 18.2703 31.8491 18.2703C31.7649 18.2703 31.6813 18.2454 31.6094 18.1965C31.4862 18.1129 31.4158 17.971 31.4233 17.8223L31.5812 14.7031C31.5812 14.7031 30.0505 15.4364 30.0238 15.4434C28.9827 15.7134 28.233 16.1538 27.6914 16.6385L30.1549 23.7109C30.1575 23.7183 30.1788 23.8411 30.1788 23.8513Z" fill="#A6D9FF"/>
<path d="M17.3489 12.0736C17.3489 11.8412 17.5351 11.6514 17.7676 11.6473C18.0034 11.6377 18.1932 11.826 18.2012 12.0584C18.2063 12.1384 18.3724 14.0726 22.1765 14.2075V13.371C22.1763 13.3666 22.1751 13.3623 22.1751 13.3577C22.1751 11.718 20.7728 10.4336 18.9829 10.4336C17.193 10.4336 15.7908 11.718 15.7908 13.3577C15.7908 13.3633 15.7892 13.3686 15.7891 13.3742V13.9912C16.4171 13.6682 17.3489 13.0286 17.3489 12.0736Z" fill="#CCCCCC"/>
<path d="M17.8333 13.3359C17.3996 14.0334 16.673 14.4996 16.1445 14.7672H18.3299C18.561 14.7672 18.7482 14.9516 18.7549 15.1813H19.2105C19.2172 14.9516 19.4044 14.7672 19.6357 14.7672H20.1104C18.8978 14.4314 18.2136 13.8644 17.8333 13.3359Z" fill="#E0B489"/>
<path d="M20.0625 16.1186C20.0625 16.4798 20.3565 16.7736 20.7177 16.7736H21.5221C21.8833 16.7736 22.1771 16.4798 22.1771 16.1186V15.6201H20.0627V16.1186H20.0625ZM20.8185 15.8954C20.9771 15.7368 21.2636 15.7368 21.4204 15.8954C21.5006 15.9738 21.5465 16.0846 21.5465 16.1972C21.5465 16.3097 21.5004 16.4189 21.4204 16.499C21.342 16.5775 21.2327 16.6235 21.1201 16.6235C21.0078 16.6235 20.8986 16.5775 20.8183 16.499C20.7381 16.4189 20.6938 16.3097 20.6938 16.1972C20.6938 16.0846 20.7383 15.9738 20.8185 15.8954Z" fill="#D8D5D4"/>
<path d="M17.8008 26.8574L18.9834 30.274L20.1657 26.8574H17.8008Z" fill="#96564A"/>
<path d="M36.7357 38.0322H35.7129V38.6975H36.7357V38.0322Z" fill="#4D4D4D"/>
<path d="M28.1588 27.1932L28.4216 28.38L29.3115 23.8827L27.0406 17.3633C26.4034 18.2535 26.3098 19.0896 26.3036 19.1523C26.3022 19.166 26.3002 19.1815 26.2976 19.1951L25.4629 23.4492C27.5693 24.7122 28.1315 27.073 28.1588 27.1932Z" fill="#A6D9FF"/>
<path d="M24.6156 34.6954C25.1642 35.6328 25.5716 36.5401 25.8763 37.383H25.9981L24.6575 32.6963C24.3616 33.4146 24.1972 33.9801 24.6156 34.6954Z" fill="#A6D9FF"/>
<path d="M34.8602 38.6975V38.0322H30.5596L30.7069 38.6975H34.8602Z" fill="#999999"/>
<path d="M19.4092 41.8441H25.8972C25.8732 40.8499 25.6341 38.1242 23.8798 35.1255C23.197 33.9586 23.5944 33.0181 23.9787 32.1086C24.424 31.0549 24.8844 29.9654 24.0499 28.132C23.9774 27.9729 24.0094 27.7857 24.1309 27.6596L26.3387 25.367C25.7884 24.6492 24.9598 23.9473 23.7354 23.6595L22.2936 23.3135L19.4092 31.648V41.8441Z" fill="#C4806E"/>
<path d="M18.9834 9.58104C19.6223 9.58104 20.2222 9.71269 20.7542 9.94905C20.8141 9.76419 20.8484 9.57132 20.8484 9.37487C20.8484 8.34656 20.0117 7.50977 18.9834 7.50977C17.955 7.50977 17.1182 8.34639 17.1182 9.37487C17.1182 9.57115 17.1526 9.76419 17.2125 9.94922C17.7447 9.71269 18.3446 9.58104 18.9834 9.58104Z" fill="#CCCCCC"/>
<path d="M43.5368 39.4346C42.2554 39.4346 41.3199 40.1239 41.2831 40.1443C40.4434 40.8125 39.9366 41.9467 39.7822 43.5197H40.8402L41.7722 42.035C41.8972 41.8357 42.1606 41.7756 42.3598 41.9005C42.4161 41.9358 42.4599 41.9828 42.493 42.0357L42.4942 42.035L43.4263 43.5197H47.2912C47.1893 42.4799 46.9331 41.632 46.5288 40.9835C46.5073 40.9569 45.2935 39.4346 43.5368 39.4346Z" fill="#B79870"/>
<path d="M41.8481 38.2632L41.752 38.698H42.4641C42.601 38.6679 42.7339 38.6448 42.8613 38.6276L41.8481 38.2632Z" fill="#E5CBBD"/>
<path d="M37.5898 38.0322V38.6975H40.8799L41.0274 38.0322H37.5898Z" fill="#999999"/>
<path d="M42.0234 50.0197V50.5622C42.0973 50.7458 42.731 51.2729 43.5342 51.2729C43.535 51.2729 43.5359 51.2729 43.5369 51.2729C43.5376 51.2729 43.5388 51.2729 43.5396 51.2729C44.3432 51.2729 44.977 50.7457 45.0507 50.5622V50.0195C44.5758 50.2209 44.0667 50.3318 43.5369 50.3318C43.0072 50.3318 42.4982 50.2209 42.0234 50.0197Z" fill="#D8B4A4"/>
<path d="M47.3409 44.3723H43.192C43.0453 44.3723 42.9089 44.2969 42.831 44.1726L42.1345 43.0635L41.4384 44.1726C41.3605 44.2969 41.2241 44.3723 41.0774 44.3723H39.7353C39.734 44.4492 39.7324 44.5261 39.7324 44.6049C39.7324 46.5089 40.5897 48.1605 41.8356 48.9623C41.8361 48.9627 41.8368 48.9632 41.8375 48.9635C42.3497 49.2928 42.9272 49.4792 43.5382 49.4792C44.8023 49.4792 45.9237 48.6851 46.6163 47.4666C46.6193 47.461 46.6222 47.4553 46.6257 47.4499C47.0769 46.6486 47.3439 45.6663 47.3439 44.6049C47.3438 44.5263 47.3422 44.4492 47.3409 44.3723ZM41.78 45.8631C41.6693 45.8631 41.5583 45.8171 41.4799 45.7386C41.3997 45.6585 41.3537 45.5493 41.3537 45.4368C41.3537 45.3242 41.3999 45.2151 41.4799 45.1349C41.6385 44.9763 41.9232 44.9763 42.0818 45.1349C42.162 45.2151 42.2063 45.3242 42.2063 45.4368C42.2063 45.5493 42.162 45.6585 42.0818 45.7386C42.0034 45.8171 41.8925 45.8631 41.78 45.8631ZM43.5399 48.4709C43.5375 48.4709 43.5353 48.4709 43.5327 48.4709C43.2017 48.4709 42.884 48.4189 42.6379 48.324C42.131 48.1288 42.0549 47.8102 42.0545 47.6378C42.0542 47.4023 42.2447 47.2111 42.4802 47.2108C42.4804 47.2108 42.4807 47.2108 42.4809 47.2108C42.6695 47.2108 42.8296 47.3334 42.8857 47.5033C42.9759 47.5503 43.205 47.6136 43.538 47.6184C43.8746 47.6177 44.1002 47.5478 44.1901 47.5004C44.2457 47.33 44.4058 47.2067 44.5948 47.2064C44.595 47.2064 44.5953 47.2064 44.5955 47.2064C44.8306 47.2064 45.0215 47.3969 45.0218 47.632C45.0227 48.2093 44.2781 48.4693 43.5399 48.4709ZM45.5965 45.7301C45.5181 45.8102 45.4074 45.8563 45.2947 45.8563C45.1838 45.8563 45.073 45.8102 44.9945 45.7301C44.9142 45.6516 44.8683 45.5425 44.8683 45.4299C44.8683 45.3174 44.9144 45.2065 44.9945 45.1281C45.1531 44.9695 45.4379 44.9695 45.5963 45.1281C45.6766 45.2065 45.7208 45.3174 45.7208 45.4299C45.721 45.5425 45.6766 45.6516 45.5965 45.7301Z" fill="#D8B4A4"/>
<path d="M51.6719 14.4514C50.6433 13.5222 49.9659 11.9512 49.9659 10.1733V8.99847H49.9664C49.9663 8.79776 50.108 8.6187 50.3125 8.57965C50.3578 8.57078 53.4112 7.95567 53.4112 5.98995C53.4112 5.75445 53.602 5.56362 53.8375 5.56362C54.073 5.56362 54.2638 5.75445 54.2638 5.98995C54.2638 7.96761 57.3314 8.57368 57.3624 8.57948C57.5669 8.61836 57.7088 8.79742 57.7086 8.9983H57.7091V10.1731C57.7091 11.9512 57.0316 13.5223 56.0028 14.4514V14.7543C57.4383 14.6791 58.4552 14.2166 59.0261 13.3738C60.3433 11.4296 59.0213 8.05748 59.0077 8.02371C58.9877 7.97358 58.9773 7.91986 58.9773 7.86563C58.9773 6.55441 58.5824 5.51042 57.8034 4.76247C56.3065 3.32505 53.8779 3.40623 53.8547 3.40742C53.8494 3.40759 53.8443 3.40657 53.8389 3.40657C53.8327 3.40657 53.8269 3.40776 53.8208 3.40742C53.7962 3.40674 51.3576 3.33136 49.8674 4.76605C49.0908 5.51366 48.6972 6.55663 48.6972 7.86563C48.6972 7.91952 48.6868 7.97324 48.6668 8.02337C48.6533 8.05731 47.3341 11.4369 48.6496 13.3755C49.2207 14.2173 50.2372 14.6792 51.6718 14.7543V14.4514H51.6719Z" fill="#E0BC4B"/>
<path d="M42.0352 37.4236L44.1629 38.1891L47.7811 26.3056C47.6508 26.0984 47.5367 25.8661 47.4466 25.6054C47.074 24.5264 47.1182 22.9616 48.0957 22.0754C48.27 21.9171 48.5397 21.9304 48.6978 22.1049C48.8559 22.2794 48.8428 22.549 48.6683 22.707C48.0082 23.3056 47.9594 24.478 48.2526 25.3269C48.4813 25.9891 48.8859 26.4193 49.3085 26.4495C49.522 26.4649 49.691 26.6361 49.7036 26.8498L49.8493 29.3209C49.8547 29.4151 49.829 29.5085 49.7756 29.5865C49.2498 30.3564 48.7684 31.4703 48.3438 32.8943C48.4042 33.8143 50.0522 33.8912 53.4106 33.896V20.602C51.2272 20.4881 49.7142 19.4934 49.4246 18.0137L49.086 18.095C48.1803 18.3078 47.4894 18.7538 46.9673 19.2654C46.927 19.3701 46.8467 19.4548 46.743 19.501C45.7894 20.5667 45.4964 21.7976 45.4922 21.817L42.0352 37.4236Z" fill="#B7C16F"/>
<path d="M56.8562 9.33702C56.1567 9.15063 54.5932 8.61857 53.8373 7.44531C53.0811 8.61857 51.5177 9.15063 50.8184 9.33702V10.1747C50.8184 12.5515 52.1726 14.4854 53.8373 14.4854C55.502 14.4854 56.8562 12.5515 56.8562 10.1747V9.33702ZM52.0562 10.7784C51.9439 10.7784 51.8329 10.7323 51.7544 10.6539C51.6743 10.5737 51.6299 10.4646 51.6299 10.352C51.6299 10.2395 51.6744 10.1303 51.7544 10.0502C51.913 9.89159 52.1995 9.89159 52.3581 10.0502C52.4365 10.1303 52.4826 10.2395 52.4826 10.352C52.4826 10.4646 52.4365 10.5737 52.3581 10.6539C52.2781 10.7323 52.1673 10.7784 52.0562 10.7784ZM53.8373 13.3113C52.9096 13.3113 52.2616 12.9373 52.2616 12.4018C52.2616 12.1663 52.4524 11.9755 52.6879 11.9755C52.8907 11.9755 53.0605 12.1172 53.1037 12.3068C53.1877 12.3614 53.4379 12.4586 53.8375 12.4586C54.237 12.4586 54.4872 12.3614 54.5712 12.3068C54.6144 12.1172 54.7841 11.9755 54.987 11.9755C55.2225 11.9755 55.4133 12.1663 55.4133 12.4018C55.413 12.9373 54.765 13.3113 53.8373 13.3113ZM55.919 10.6539C55.8405 10.7323 55.7297 10.7784 55.6188 10.7784C55.5063 10.7784 55.3953 10.7323 55.3168 10.6539C55.2367 10.5737 55.1925 10.4646 55.1925 10.352C55.1925 10.2395 55.2368 10.1303 55.3168 10.0502C55.4756 9.89159 55.7619 9.89159 55.9188 10.0502C55.9989 10.1303 56.0433 10.2395 56.0433 10.352C56.0435 10.4646 55.9991 10.5737 55.919 10.6539Z" fill="#E5CBBD"/>
<path d="M37.1585 15.9687L38.3552 13.6355V12.9551C37.7657 13.2706 37.0619 13.4206 36.2265 13.4208C36.2263 13.4208 36.2263 13.4208 36.2262 13.4208C36.226 13.4208 36.2256 13.4208 36.2253 13.4208C36.2251 13.4208 36.225 13.4208 36.2246 13.4208C36.2246 13.4208 36.2244 13.4208 36.2243 13.4208C35.389 13.4206 34.6851 13.2704 34.0957 12.9551V13.6355L35.2925 15.9687H37.1585Z" fill="#C69C6D"/>
<path d="M36.8112 18.2843L37.5232 16.8967L37.3358 16.8213H35.1233L34.9316 16.9086L35.6376 18.2843H36.8112Z" fill="#999999"/>
<path d="M43.6211 26.3217L44.6603 21.6305C44.6813 21.5376 45.014 20.138 46.108 18.9192C46.0406 18.599 45.8619 17.9949 45.4096 17.3633L43.1387 23.8827L43.6211 26.3217Z" fill="#A6D9FF"/>
<path d="M36.2239 34.9759L37.6632 33.1636L36.674 19.1367H35.7742L34.7852 33.1636L36.2239 34.9759Z" fill="#999999"/>
<path d="M37.5058 18.7993L38.5262 33.269C38.5337 33.3755 38.5012 33.4807 38.4348 33.5641L36.6504 35.8112V37.1799H41.2154L42.2709 32.414V23.8516C42.2709 23.8422 42.2916 23.7198 42.2946 23.7114L44.7583 16.639C44.2167 16.1543 43.4671 15.714 42.426 15.4439C42.3992 15.4369 40.8612 14.7002 40.8612 14.7002L41.0165 17.6454C41.0242 17.7909 40.9572 17.9301 40.8388 18.0146C40.7653 18.0672 40.6783 18.0943 40.5909 18.0943C40.5373 18.0943 40.4833 18.0842 40.4321 18.0636L38.3184 17.2154L37.5058 18.7993Z" fill="#A6D9FF"/>
<path d="M48.3506 30.4079L47.9867 28.5527L45.6074 36.368L45.8081 37.383H46.6477C46.8318 35.5923 47.118 34.0312 47.5041 32.7212C47.7633 31.8408 48.0469 31.0693 48.3506 30.4079Z" fill="#A6D9FF"/>
<path d="M46.5695 38.2363H46.1865L46.5242 38.8376C46.5383 38.6345 46.5533 38.4343 46.5695 38.2363Z" fill="#A6D9FF"/>
<path d="M27.3271 27.3798C27.3152 27.3285 27.181 26.7748 26.8147 26.1025L24.9414 28.0476C25.5122 29.445 25.423 30.5026 25.1655 31.3737L28.896 44.4146L30.9371 43.6765L27.3271 27.3798Z" fill="#C4806E"/>
<path d="M40.6345 72.2542H42.2747V68.5449H40.3438L40.6345 72.2542Z" fill="#D8B4A4"/>
<path d="M43.1279 74.1471H43.7149C43.6776 73.7223 43.5483 73.0514 43.1279 72.5845V74.1471Z" fill="#333333"/>
<path d="M47.3522 62.7129H39.7236V67.6931H42.7779L43.1138 64.3128C43.1372 64.0783 43.3467 63.9075 43.58 63.9307C43.7857 63.9511 43.9424 64.1147 43.9619 64.3127H43.962L44.2983 67.6931H47.3522V62.7129Z" fill="#5576A5"/>
<path d="M46.4408 72.2542L46.7315 68.5449H44.8008V72.2542H46.4408Z" fill="#D8B4A4"/>
<path d="M49.8013 57.382L51.6903 61.6849C51.6959 61.698 51.701 61.7113 51.7055 61.7248C51.7384 61.8263 51.9857 61.916 52.2848 61.8189C52.583 61.7222 52.7312 61.5045 52.6985 61.4028L50.9183 56.5703L49.7754 57.0205C49.7832 57.1384 49.7923 57.2593 49.8013 57.382Z" fill="#D8B4A4"/>
<path d="M46.8349 73.1074H44.8008V74.1473H48.1091C48.0603 73.9219 47.9611 73.647 47.7588 73.44C47.5407 73.2162 47.2384 73.1074 46.8349 73.1074Z" fill="#999999"/>
<path d="M38.9201 55.1277C39.0119 54.9548 39.2097 54.8664 39.3996 54.914C39.5896 54.9613 39.723 55.132 39.723 55.3277V61.8601H47.3515V55.3277C47.3515 55.132 47.4847 54.9614 47.6749 54.914C47.8648 54.8664 48.0625 54.9549 48.1544 55.1277L48.864 56.4628L51.5159 55.4183C51.5159 55.4183 49.9438 52.6773 49.9358 52.6565C49.9213 52.6224 49.4999 51.6691 47.6285 51.433C47.6194 51.4318 45.7306 51.0684 45.7306 51.0684C45.3669 51.6122 44.4747 52.1257 43.5396 52.1257C43.539 52.1257 43.5383 52.1257 43.5376 52.1257C43.5373 52.1257 43.5369 52.1257 43.5366 52.1257C43.5359 52.1257 43.5352 52.1257 43.5345 52.1257C42.5993 52.1257 41.7068 51.6118 41.3434 51.0685C41.3434 51.0685 39.4547 51.4318 39.4457 51.433C37.5741 51.6693 37.1529 52.6226 37.1358 52.663C37.129 52.679 35.5586 55.4183 35.5586 55.4183L38.2105 56.4628L38.9201 55.1277Z" fill="#F4A04D"/>
<path d="M39.4883 68.546H39.2969C39.0614 68.546 38.8706 68.3552 38.8706 68.1197V57.0391L38.7855 57.1994C38.6837 57.3907 38.4547 57.4756 38.2528 57.396L38.2069 57.3781L37.4922 59.0067L38.1619 71.1927H39.6958L39.4883 68.546Z" fill="#4D4D4D"/>
<path d="M39.3137 73.4434C39.1136 73.6501 39.0151 73.9231 38.9668 74.1473H42.2753V73.1074H40.2408C39.8353 73.1076 39.5321 73.2174 39.3137 73.4434Z" fill="#999999"/>
<path d="M54.2637 71.6494V74.1474H57.4576C56.5907 73.2422 56.2514 72.1977 56.125 71.6494H54.2637Z" fill="#998675"/>
<path d="M53.8362 34.7493C51.9141 34.7493 50.396 34.7493 49.357 34.5572C49.0857 34.507 48.4902 34.3945 48.0434 34.0352C47.6292 35.8363 47.3756 38.0418 47.2881 40.6129C47.828 41.506 48.1953 42.7817 48.1953 44.6051C48.1953 45.7708 47.9098 46.8557 47.4213 47.7614C47.4806 48.6993 47.5557 49.6403 47.6428 50.5685L47.749 50.589C49.953 50.8719 50.6051 52.0708 50.7151 52.3122L50.8681 52.5786H59.8177C60.0609 50.5431 61.1303 40.5747 59.6286 34.0352C59.182 34.3945 58.5865 34.507 58.315 34.5572C57.2761 34.7493 55.7579 34.7493 53.8362 34.7493Z" fill="#767743"/>
<path d="M62.1818 21.8148C62.1537 21.6936 61.4468 18.7671 58.5899 18.0954L58.2493 18.0137C57.9598 19.4935 56.447 20.4883 54.2637 20.6022V33.8961C57.622 33.8915 59.2698 33.8145 59.3302 32.8944C58.9061 31.4705 58.4246 30.3568 57.8984 29.5866C57.8452 29.5087 57.8193 29.4154 57.8247 29.3211L57.9703 26.8499C57.983 26.6363 58.152 26.4651 58.3655 26.4497C58.7882 26.4193 59.1931 25.9891 59.4217 25.3268C59.7147 24.4778 59.6661 23.3056 59.006 22.7072C58.8315 22.549 58.8182 22.2795 58.9763 22.1049C59.1346 21.9308 59.404 21.9171 59.5785 22.0754C60.5559 22.9613 60.6001 24.5261 60.2277 25.6051C60.1376 25.866 60.0234 26.0986 59.8931 26.3058L63.5113 38.1893L65.6393 37.4238L62.1818 21.8148Z" fill="#B7C16F"/>
<path d="M54.2637 70.7964H56.1231C57.7889 61.6401 58.0369 55.1119 58.0737 53.4307H54.2637V70.7964Z" fill="#E5CBBD"/>
<path d="M65.8239 38.2632L63.7588 39.006C63.7588 39.006 64.3471 40.9455 64.351 40.9554C64.4575 41.2315 64.5686 41.4427 64.7968 41.5868C65.025 41.7311 65.2953 41.7777 65.5586 41.7183C66.1019 41.5957 66.4443 41.0539 66.3219 40.5104L65.8239 38.2632Z" fill="#E5CBBD"/>
<path d="M50.2168 74.1474H53.4109V71.6494H51.5493C51.4231 72.1977 51.0836 73.2422 50.2168 74.1474Z" fill="#998675"/>
<path d="M52.5482 62.6298C52.3724 62.687 52.1969 62.7139 52.0289 62.7139C51.5062 62.7139 51.0579 62.4511 50.9027 62.0105L50.0303 60.0234C50.3127 62.8935 50.7792 66.5565 51.5507 70.7966H53.4106V61.9571C53.2443 62.2542 52.9418 62.5023 52.5482 62.6298Z" fill="#E5CBBD"/>
<path d="M34.3714 61.4189C34.3441 61.5045 34.4924 61.7222 34.791 61.8191C35.0895 61.9158 35.3371 61.8263 35.3702 61.7248C35.3744 61.7112 35.3795 61.6979 35.3853 61.6849L37.4136 57.065L36.1577 56.5703L34.3714 61.4189Z" fill="#D8B4A4"/>
<path d="M52.5026 55.4213C52.5642 55.5287 52.5763 55.6576 52.5352 55.7746C52.4943 55.8914 52.4044 55.9849 52.2891 56.0302L51.7127 56.2572L53.4114 60.8689V53.4307H51.3594L52.5026 55.4213Z" fill="#E5CBBD"/>
<path d="M39.7615 72.0449H38.1836V73.7714C38.2724 73.469 38.4268 73.1321 38.6991 72.8507C38.9856 72.5546 39.3483 72.3677 39.7811 72.2927L39.7615 72.0449Z" fill="#333333"/>
<path d="M18.5571 31.648L15.6724 23.3135L14.2325 23.659C13.0074 23.947 12.1784 24.6491 11.6279 25.3672L13.8351 27.6596C13.9565 27.7855 13.9884 27.9727 13.9161 28.132C13.0815 29.9654 13.542 31.0551 13.9872 32.1086C14.3716 33.0181 14.769 33.9587 14.0861 35.1255C12.3256 38.1346 12.0901 40.8521 12.0677 41.8441H18.5571V31.648Z" fill="#C4806E"/>
<path d="M11.1497 26.1025C10.783 26.7753 10.6487 27.33 10.6364 27.3826L7.0293 43.668L9.08471 44.3588L12.8003 31.379C12.5414 30.5069 12.4507 29.4477 13.0226 28.0476L11.1497 26.1025Z" fill="#C4806E"/>
<path d="M14.6748 74.1473H18.5563V72.6533H16.3535C16.1937 72.662 15.0551 72.772 14.6748 74.1473Z" fill="#998675"/>
<path d="M16.6973 71.8009H18.5571V59.0088H15.0674C15.3291 62.2504 15.8176 66.9382 16.6973 71.8009Z" fill="#E0B489"/>
<path d="M19.4092 71.8009H21.2687C22.1483 66.9382 22.6367 62.2504 22.8986 59.0088H19.4092V71.8009Z" fill="#E0B489"/>
<path d="M19.4092 72.6533V74.1473H23.2903C22.9095 72.7706 21.7687 72.6618 21.6111 72.6533H19.4092Z" fill="#998675"/>
<path d="M18.9831 20.3084C20.3803 20.3084 21.5701 19.1517 22.0021 17.5465C21.851 17.5974 21.6898 17.6263 21.5217 17.6263H20.7173C19.8858 17.6263 19.2094 16.9499 19.2094 16.1186V16.0342H18.7563V16.1186C18.7563 16.9499 18.0802 17.6263 17.2488 17.6263H16.4443C16.2761 17.6263 16.1148 17.5973 15.9639 17.5465C16.396 19.1517 17.5858 20.3084 18.9831 20.3084ZM17.8336 17.7809C18.0362 17.7809 18.2062 17.9226 18.2493 18.1123C18.3334 18.1668 18.5836 18.2641 18.9831 18.2641C19.3827 18.2641 19.6329 18.1668 19.7169 18.1123C19.7601 17.9226 19.9299 17.7809 20.1325 17.7809C20.368 17.7809 20.5588 17.9718 20.5588 18.2073C20.5588 18.7427 19.9108 19.1167 18.9831 19.1167C18.0554 19.1167 17.4074 18.7427 17.4074 18.2073C17.4072 17.9718 17.5981 17.7809 17.8336 17.7809Z" fill="#E0B489"/>
<path d="M16.4439 16.7736H17.2485C17.6095 16.7736 17.9033 16.4798 17.9033 16.1186V15.6201H15.7891V16.1186C15.7889 16.4798 16.0827 16.7736 16.4439 16.7736ZM16.544 15.8954C16.7045 15.7368 16.9876 15.7368 17.1479 15.8954C17.228 15.9755 17.2722 16.0846 17.2722 16.1972C17.2722 16.308 17.2278 16.4189 17.1479 16.499C17.0675 16.5775 16.9586 16.6235 16.8458 16.6235C16.7335 16.6235 16.6242 16.5775 16.5438 16.499C16.4656 16.4189 16.4195 16.308 16.4195 16.1972C16.4197 16.0846 16.4657 15.9755 16.544 15.8954Z" fill="#D8D5D4"/>
<path d="M20.4592 26.0049L21.4594 23.1148L20.6212 22.9137C20.4294 22.8677 20.2943 22.6963 20.2943 22.4992V20.8929C19.8825 21.0662 19.4411 21.1615 18.9819 21.1615C18.5223 21.1615 18.081 21.066 17.6688 20.8926V22.499C17.6688 22.6961 17.5337 22.8675 17.3419 22.9135L16.5039 23.1146L17.5041 26.0048H20.4592V26.0049Z" fill="#E0B489"/>
<path d="M6.77438 44.8214C7.4415 45.1725 7.89802 45.8719 7.89802 46.6766C7.89802 46.9121 7.70719 47.1029 7.47169 47.1029C7.23618 47.1029 7.04536 46.9121 7.04536 46.6766C7.04536 46.2846 6.86255 45.935 6.57844 45.7068L6.4971 46.0733C6.43724 46.3383 6.48397 46.6087 6.62807 46.8369C6.77217 47.0649 6.99642 47.2233 7.25955 47.2828C7.52268 47.342 7.79314 47.2956 8.02148 47.1514C8.24965 47.0073 8.40808 46.783 8.46742 46.5197C8.4693 46.5119 8.47134 46.504 8.47339 46.4964L8.85061 45.179L6.84447 44.5049L6.77438 44.8214Z" fill="#E0B489"/>
<path d="M29.3454 72.556C28.9082 73.0193 28.7758 73.7127 28.7373 74.1476H34.2663V72.0449H30.6851C30.108 72.0451 29.6698 72.2122 29.3454 72.556Z" fill="#333333"/>
<path d="M29.9431 47.1512C30.1713 47.2955 30.4419 47.3418 30.7049 47.2827C31.2484 47.1601 31.5906 46.6181 31.4682 46.0748L31.1228 44.5156L29.1309 45.236L29.4914 46.4964C29.4938 46.504 29.7149 47.0071 29.9431 47.1512Z" fill="#E0B489"/>
<path d="M33.5653 61.1393L35.0643 57.0694L35.1144 56.1587L34.7872 56.03C34.6717 55.9846 34.5822 55.8912 34.5411 55.7744C34.5002 55.6574 34.5119 55.5285 34.5737 55.421L35.2167 54.3013L35.7998 43.6884C35.8126 43.4534 36.0157 43.2715 36.2488 43.2862C36.4679 43.2983 36.6373 43.4742 36.649 43.6884H36.6497L37.0765 51.4505C37.5296 51.09 38.2382 50.7275 39.3255 50.588L41.1714 50.2326V49.5343C39.8006 48.5361 38.8792 46.7004 38.8792 44.6039C38.8792 41.8811 39.6964 40.3752 40.6882 39.5498H30.8963L32.3001 45.8881C32.5257 46.8885 31.8944 47.8876 30.8926 48.1136C30.7551 48.1446 30.6165 48.1599 30.4788 48.1599C30.3779 48.1599 30.2778 48.1494 30.1787 48.1328V71.1909H34.2882L34.7554 62.6853C34.6801 62.6715 34.6038 62.6536 34.5276 62.6289C33.794 62.3915 33.3714 61.737 33.5653 61.1393Z" fill="#4D4D4D"/>
<path d="M26.194 38.3601L26.2424 38.2363H26.1582C26.1707 38.2781 26.1822 38.3189 26.194 38.3601Z" fill="#A6D9FF"/>
<path d="M12.0262 42.6973C11.9228 43.9 11.7533 48.3107 13.3899 58.1558H24.5758C26.2182 48.2757 26.0454 43.893 25.9405 42.6973H12.0262Z" fill="#96564A"/>
<path d="M53.8367 19.7604C55.8186 19.7604 57.2009 18.9907 57.4172 17.8142L55.4762 17.3484C55.2845 17.3024 55.1493 17.131 55.1493 16.9339V15.0312C54.7393 15.2291 54.2973 15.3374 53.8367 15.3374C53.3761 15.3374 52.9339 15.2289 52.5238 15.0312V16.934C52.5238 17.1312 52.3885 17.3026 52.1969 17.3486L50.2559 17.8143C50.4723 18.9907 51.8544 19.7604 53.8367 19.7604Z" fill="#E5CBBD"/>
<path d="M18.9821 19.117C19.91 19.117 20.5578 18.743 20.5578 18.2076C20.5578 17.9721 20.367 17.7812 20.1315 17.7812C19.9289 17.7812 19.7589 17.923 19.7159 18.1126C19.6319 18.1672 19.3817 18.2644 18.9821 18.2644C18.5826 18.2644 18.3324 18.1672 18.2483 18.1126C18.2052 17.923 18.0353 17.7812 17.8326 17.7812C17.5971 17.7812 17.4062 17.9721 17.4062 18.2076C17.4064 18.743 18.0543 19.117 18.9821 19.117Z" fill="#1C1B1A"/>
<path d="M16.8461 16.6235C16.9586 16.6235 17.0678 16.5774 17.1481 16.499C17.2282 16.4188 17.2724 16.308 17.2724 16.1972C17.2724 16.0846 17.2281 15.9755 17.1481 15.8953C16.9878 15.7367 16.7047 15.7367 16.5442 15.8953C16.466 15.9755 16.4199 16.0846 16.4199 16.1972C16.4199 16.308 16.4661 16.4188 16.5442 16.499C16.6244 16.5774 16.7335 16.6235 16.8461 16.6235Z" fill="#1C1B1A"/>
<path d="M21.1195 16.6235C21.2321 16.6235 21.3414 16.5774 21.4198 16.499C21.5 16.4188 21.5458 16.3097 21.5458 16.1972C21.5458 16.0846 21.4998 15.9738 21.4198 15.8953C21.2629 15.7367 20.9763 15.7367 20.8178 15.8953C20.7377 15.9738 20.6934 16.0846 20.6934 16.1972C20.6934 16.3097 20.7379 16.4188 20.8178 16.499C20.898 16.5774 21.0071 16.6235 21.1195 16.6235Z" fill="#1C1B1A"/>
<path d="M44.5956 47.2061C44.5954 47.2061 44.5951 47.2061 44.5949 47.2061C44.406 47.2062 44.2459 47.3297 44.1903 47.5001C44.1004 47.5476 43.8746 47.6174 43.5381 47.6181C43.2051 47.6133 42.9761 47.5502 42.8859 47.5029C42.8298 47.3331 42.6696 47.2105 42.481 47.2105C42.4808 47.2105 42.4805 47.2105 42.4803 47.2105C42.2448 47.2108 42.0543 47.402 42.0547 47.6375C42.055 47.8099 42.1311 48.1285 42.6381 48.3237C42.8842 48.4185 43.2019 48.4705 43.5329 48.4705C43.5354 48.4705 43.5376 48.4705 43.54 48.4705C44.2783 48.469 45.0228 48.209 45.0219 47.6315C45.0216 47.3965 44.8308 47.2061 44.5956 47.2061Z" fill="#1C1B1A"/>
<path d="M42.2052 45.4364C42.2052 45.3239 42.1609 45.2147 42.0807 45.1346C41.9219 44.976 41.6372 44.976 41.4787 45.1346C41.3986 45.2147 41.3525 45.3239 41.3525 45.4364C41.3525 45.549 41.3988 45.6581 41.4787 45.7382C41.5572 45.8167 41.668 45.8627 41.7789 45.8627C41.8914 45.8627 42.0024 45.8167 42.0807 45.7382C42.1609 45.6581 42.2052 45.549 42.2052 45.4364Z" fill="#1C1B1A"/>
<path d="M44.9944 45.1277C44.914 45.2062 44.8682 45.317 44.8682 45.4296C44.8682 45.5421 44.9142 45.6513 44.9944 45.7297C45.0728 45.8099 45.1835 45.8559 45.2945 45.8559C45.407 45.8559 45.5179 45.8099 45.5963 45.7297C45.6767 45.6513 45.7208 45.5421 45.7208 45.4296C45.7208 45.317 45.6765 45.2062 45.5963 45.1277C45.4377 44.9691 45.153 44.9691 44.9944 45.1277Z" fill="#1C1B1A"/>
<path d="M54.9852 11.9746C54.7823 11.9746 54.6126 12.1163 54.5694 12.306C54.4854 12.3605 54.2352 12.4577 53.8356 12.4577C53.4361 12.4577 53.1859 12.3605 53.1018 12.306C53.0587 12.1163 52.889 11.9746 52.6861 11.9746C52.4506 11.9746 52.2598 12.1654 52.2598 12.4009C52.2598 12.9364 52.9078 13.3104 53.8355 13.3104C54.7632 13.3104 55.4112 12.9364 55.4112 12.4009C55.4115 12.1654 55.2207 11.9746 54.9852 11.9746Z" fill="#1C1B1A"/>
<path d="M52.4825 10.3515C52.4825 10.2389 52.4365 10.1298 52.3581 10.0496C52.1995 9.89102 51.913 9.89102 51.7544 10.0496C51.6742 10.1298 51.6299 10.2389 51.6299 10.3515C51.6299 10.464 51.6744 10.5731 51.7544 10.6533C51.8328 10.7317 51.9437 10.7778 52.0562 10.7778C52.1671 10.7778 52.2781 10.7317 52.3581 10.6533C52.4367 10.5731 52.4825 10.464 52.4825 10.3515Z" fill="#1C1B1A"/>
<path d="M55.3167 10.0496C55.2366 10.1298 55.1924 10.2389 55.1924 10.3515C55.1924 10.464 55.2367 10.5731 55.3167 10.6533C55.3951 10.7317 55.506 10.7778 55.6187 10.7778C55.7294 10.7778 55.8404 10.7317 55.9188 10.6533C55.999 10.5731 56.0433 10.464 56.0433 10.3515C56.0433 10.2389 55.9988 10.1298 55.9188 10.0496C55.7618 9.89102 55.4753 9.89102 55.3167 10.0496Z" fill="#1C1B1A"/>
<path d="M63.0134 21.6285C62.9805 21.4832 62.1677 18.0608 58.7864 17.266L56.0021 16.5978V15.6093C57.7419 15.5276 58.9962 14.9386 59.7315 13.8531C61.1938 11.6946 60.0412 8.35298 59.8289 7.78648C59.8125 6.2713 59.3297 5.04757 58.3933 4.14852C56.6875 2.5104 54.089 2.54808 53.8361 2.55593C53.574 2.5486 50.9822 2.51398 49.2798 4.14869C48.3434 5.04774 47.8606 6.27147 47.8443 7.78665C47.632 8.35315 46.4795 11.6949 47.9418 13.8533C48.6773 14.9389 49.9314 15.5279 51.671 15.6094V16.598L48.8886 17.2656C48.045 17.464 47.3613 17.8257 46.8096 18.2592C46.4597 17.1891 45.466 15.3671 42.6812 14.6296L39.2077 12.9589V12.3001C39.8818 11.5858 40.3386 10.5133 40.6245 9.03085C41.2009 8.71349 42.3112 7.56325 41.6569 3.47544C41.3635 1.64427 40.7276 0.000341063 36.2261 0C36.2261 0 36.2261 0 36.2259 0C36.2258 0 36.2254 0 36.2251 0C36.2249 0 36.2247 0 36.2244 0H36.2242C31.7229 0.000341063 31.0868 1.64427 30.7936 3.47544C30.1395 7.56308 31.2496 8.71332 31.826 9.03068C32.1119 10.5131 32.5685 11.5856 33.2428 12.2999V12.9587L29.7694 14.6294C25.9376 15.6442 25.4951 18.7141 25.4579 19.0501L24.671 23.0613C24.4393 22.971 24.1944 22.892 23.9326 22.8304L21.1484 22.1623V20.3898C22.2778 19.5114 23.0293 17.9686 23.0293 16.2143C23.0293 16.2143 23.0278 13.3453 23.0275 13.3393C23.0217 12.1272 22.4335 11.0675 21.505 10.3847C21.633 10.0649 21.7006 9.72184 21.7006 9.37413C21.7006 7.87549 20.4816 6.65636 18.983 6.65636C17.4843 6.65636 16.265 7.87549 16.265 9.37413C16.265 9.72184 16.3327 10.0649 16.4608 10.385C15.5334 11.0668 14.9458 12.1246 14.9386 13.3349C14.9381 13.3424 14.9362 16.2143 14.9362 16.2143C14.9362 17.9684 15.6876 19.5109 16.8169 20.3895V22.1623L14.0345 22.8299C10.6513 23.6253 9.83906 27.0477 9.80563 27.195L5.95349 44.5881C5.90336 44.5845 5.85339 44.5804 5.8024 44.5804C4.64654 44.5804 3.70605 45.5207 3.70605 46.6767V74.5737C3.70605 74.8092 3.89688 75 4.13238 75C4.36789 75 4.55871 74.8092 4.55871 74.5737V46.6766C4.55871 46.0031 5.09708 45.4544 5.76591 45.4348L5.66563 45.887C5.55598 46.3723 5.64193 46.8713 5.90762 47.292C6.17348 47.7127 6.58685 48.0047 7.07235 48.1143C7.20997 48.1454 7.34861 48.1607 7.48623 48.1607C7.83429 48.1607 8.17586 48.0626 8.47736 47.8722C8.89431 47.6087 9.1849 47.1999 9.29676 46.7201L13.3099 32.7006C13.6046 33.4169 13.7676 33.9815 13.3498 34.6954C11.1319 38.4859 11.1961 41.7965 11.2164 42.2489C11.1406 42.7668 10.6445 46.9922 12.6087 58.6528C12.6431 58.8582 12.8208 59.0084 13.029 59.0084H14.2117C14.4722 62.2553 14.9611 66.9731 15.8443 71.8765C15.0287 72.0916 13.9448 72.8044 13.7359 74.522C13.7212 74.6432 13.7592 74.7648 13.8401 74.8562C13.9211 74.9476 14.037 74.9998 14.1591 74.9998H23.8065C23.9286 74.9998 24.0445 74.9475 24.1255 74.8562C24.2065 74.7648 24.2444 74.6432 24.2297 74.522C24.0206 72.8046 22.9369 72.0918 22.1213 71.8765C23.0046 66.9731 23.4934 62.2553 23.7539 59.0084H24.9366C25.1448 59.0084 25.3225 58.8582 25.3569 58.6528C27.3215 46.9869 26.8245 42.7629 26.7488 42.248C26.7594 42.0118 26.7804 41.01 26.4906 39.5712L26.579 39.4141L28.6688 46.7199C28.7653 47.135 28.9962 47.4963 29.3264 47.7571V71.5079C29.1037 71.6281 28.9025 71.7817 28.7246 71.9702C27.7884 72.962 27.8677 74.5317 27.8714 74.5981C27.8844 74.8237 28.0711 74.9998 28.2969 74.9998H34.6918C34.9273 74.9998 35.1182 74.809 35.1182 74.5735V71.6294L35.6147 62.5957C35.876 62.4782 36.0791 62.2777 36.1731 62.0103L36.7331 60.7343L37.332 71.6293V74.5733C37.332 74.8088 37.5228 74.9997 37.7583 74.9997H58.6601C58.8509 74.9997 59.0187 74.8728 59.0704 74.6891C59.1222 74.5053 59.0456 74.3097 58.8828 74.2098C57.3154 73.2485 56.964 71.5563 56.9097 71.2295C58.635 61.8524 58.8886 55.1383 58.9254 53.4305H60.1947C60.4082 53.4305 60.5888 53.2724 60.6173 53.0608C60.688 52.5328 62.3265 40.0448 60.1681 32.7209C59.7349 31.2504 59.2359 30.0765 58.6836 29.2283L58.8014 27.2262C58.9469 27.179 59.0862 27.1089 59.2189 27.0211L63.5231 41.1588C63.6353 41.6372 63.9256 42.0446 64.3417 42.3074C64.6432 42.4979 64.9847 42.5959 65.3328 42.5959C65.4704 42.5959 65.6091 42.5806 65.7467 42.5495C66.7485 42.3234 67.3797 41.3243 67.1541 40.3241L63.0134 21.6285ZM53.8369 14.4846C52.1722 14.4846 50.818 12.5508 50.818 10.1739V9.33627C51.5175 9.14988 53.0809 8.61782 53.8369 7.44456C54.5931 8.61782 56.1565 9.14988 56.8558 9.33627V10.1739C56.8558 12.551 55.5016 14.4846 53.8369 14.4846ZM48.6492 13.3763C47.3335 11.4377 48.6527 8.05813 48.6664 8.0242C48.6863 7.97406 48.6967 7.92034 48.6967 7.86646C48.6967 6.55745 49.0905 5.51448 49.8669 4.76687C51.357 3.33219 53.7958 3.40756 53.8204 3.40825C53.8265 3.40859 53.8323 3.40722 53.8384 3.40739C53.8437 3.40739 53.8489 3.40859 53.8543 3.40825C53.8777 3.40705 56.306 3.32605 57.803 4.76329C58.5818 5.51124 58.9769 6.55524 58.9769 7.86646C58.9769 7.92051 58.9873 7.97423 59.0073 8.02454C59.0209 8.05847 60.3429 11.4306 59.0257 13.3746C58.4546 14.2172 57.4379 14.6799 56.0023 14.7551V14.4522C57.0311 13.5232 57.7087 11.9521 57.7087 10.1739V8.99913H57.7081C57.7083 8.79824 57.5664 8.61918 57.362 8.5803C57.3309 8.57433 54.2634 7.96826 54.2634 5.99078C54.2634 5.75527 54.0726 5.56445 53.8371 5.56445C53.6016 5.56445 53.4108 5.75527 53.4108 5.99078C53.4108 7.9565 50.3574 8.5716 50.312 8.58047C50.1075 8.61935 49.9658 8.79841 49.966 8.9993H49.9653V10.1741C49.9653 11.9521 50.6428 13.523 51.6713 14.452V14.7553C50.2366 14.68 49.2203 14.2181 48.6492 13.3763ZM52.1971 17.3485C52.3888 17.3025 52.524 17.1311 52.524 16.934V15.0312C52.9341 15.229 53.3763 15.3373 53.8369 15.3373C54.2975 15.3373 54.7395 15.229 55.1495 15.0312V16.9338C55.1495 17.1309 55.2847 17.3023 55.4764 17.3484L57.4174 17.8141C57.2012 18.9904 55.8188 19.7604 53.8369 19.7604C51.8547 19.7604 50.4725 18.9906 50.2561 17.8141L52.1971 17.3485ZM46.9672 19.2655C47.4892 18.7541 48.18 18.3081 49.0859 18.0951L49.4246 18.0138C49.7141 19.4935 51.2271 20.4882 53.4106 20.6021V33.8961C50.0521 33.8915 48.4043 33.8144 48.3437 32.8944C48.7682 31.4703 49.2496 30.3565 49.7755 29.5866C49.8287 29.5086 49.8547 29.4153 49.8492 29.321L49.7036 26.8499C49.6909 26.6362 49.5219 26.465 49.3084 26.4496C48.8857 26.4194 48.481 25.9892 48.2525 25.327C47.9592 24.4781 48.008 23.3055 48.6683 22.7071C48.8425 22.5491 48.8558 22.2795 48.6978 22.105C48.5395 21.9307 48.2699 21.9172 48.0956 22.0755C47.1181 22.9616 47.0741 24.5264 47.4466 25.6055C47.5366 25.8662 47.6507 26.0987 47.781 26.3057L44.1628 38.1892L42.0351 37.4237L45.4923 21.8168C45.4965 21.7974 45.7895 20.5665 46.7431 19.5008C46.8466 19.4549 46.9268 19.37 46.9672 19.2655ZM46.6253 47.4496C46.6219 47.455 46.619 47.4607 46.6159 47.4663C45.9234 48.6847 44.802 49.4789 43.5378 49.4789C42.9268 49.4789 42.3494 49.2925 41.8371 48.9632C41.8364 48.9629 41.8357 48.9624 41.8352 48.962C40.5893 48.1602 39.7321 46.5088 39.7321 44.6046C39.7321 44.526 39.7336 44.4489 39.735 44.372H41.077C41.2237 44.372 41.3601 44.2966 41.4381 44.1723L42.1342 43.0632L42.8306 44.1723C42.9086 44.2965 43.045 44.372 43.1916 44.372H47.3405C47.3419 44.4489 47.3434 44.5258 47.3434 44.6046C47.3436 45.666 47.0765 46.6483 46.6253 47.4496ZM46.7728 50.4005L45.9043 50.2333V49.5348C46.1693 49.3418 46.4176 49.1179 46.6456 48.8665C46.6838 49.3802 46.7264 49.8909 46.7728 50.4005ZM45.0516 50.0193V50.562C44.9778 50.7455 44.3441 51.2727 43.5406 51.2727C43.5397 51.2727 43.5385 51.2727 43.5378 51.2727C43.5368 51.2727 43.5359 51.2727 43.5351 51.2727C42.7319 51.2727 42.098 50.7455 42.0243 50.562V50.0195C42.4991 50.2207 43.0081 50.3316 43.5378 50.3316C44.0678 50.3316 44.5767 50.2207 45.0516 50.0193ZM43.4275 43.5193L42.4954 42.0347L42.4942 42.0354C42.4611 41.9825 42.4173 41.9354 42.361 41.9001C42.1618 41.7753 41.8983 41.8353 41.7733 42.0347L40.8414 43.5193H39.7834C39.9376 41.9464 40.4445 40.8122 41.2842 40.144C41.3211 40.1237 42.2566 39.4343 43.538 39.4343C45.2946 39.4343 46.5085 40.9566 46.5301 40.983C46.9345 41.6316 47.1906 42.4794 47.2926 43.5192H43.4275V43.5193ZM40.8794 38.6979H37.5893V38.0327H41.0267L40.8794 38.6979ZM41.7527 38.6979L41.8489 38.263L42.8618 38.6275C42.7344 38.6447 42.6016 38.6675 42.4647 38.6979H41.7527ZM44.8787 38.7649L45.0994 38.0398L45.687 39.086C45.4155 38.9443 45.1424 38.84 44.8787 38.7649ZM46.1872 38.2358H46.5702C46.5538 38.4337 46.5388 38.6339 46.5249 38.8371L46.1872 38.2358ZM45.8091 37.3831L45.6084 36.3681L47.9877 28.5528L48.3516 30.408C48.0479 31.0693 47.7644 31.8408 47.5049 32.7211C47.1188 34.0313 46.8328 35.5922 46.6485 37.3829H45.8091V37.3831ZM48.5695 27.0893C48.6672 27.1442 48.7673 27.1926 48.8715 27.2266L48.9894 29.2288C48.9894 29.2288 48.9892 29.229 48.9892 29.2291L48.5695 27.0893ZM43.1239 28.5647V28.2039L43.1616 28.3944L43.1239 28.5647ZM46.1077 18.9193C45.0138 20.1383 44.6811 21.5376 44.6601 21.6306L43.6209 26.3217L43.1384 23.8828L45.4094 17.3634C45.8615 17.9948 46.0404 18.599 46.1077 18.9193ZM40.5914 18.0944C40.679 18.0944 40.7658 18.0673 40.8393 18.0148C40.9577 17.93 41.0247 17.7911 41.017 17.6456L40.8617 14.7003C40.8617 14.7003 42.3997 15.437 42.4265 15.444C43.4674 15.714 44.2172 16.1545 44.7588 16.6391L42.2952 23.7116C42.2921 23.7199 42.2715 23.8424 42.2715 23.8518V32.4142L41.2159 37.18H36.6509V35.8113L38.4353 33.5642C38.5017 33.4807 38.5342 33.3754 38.5267 33.2692L37.5063 18.7994L38.3192 17.2155L40.4329 18.0637C40.4838 18.0844 40.5377 18.0944 40.5914 18.0944ZM35.1241 16.8212H37.3366L37.5242 16.8965L36.812 18.2842H35.6385L34.9325 16.9086L35.1241 16.8212ZM34.0955 13.6354V12.955C34.6848 13.2704 35.3888 13.4205 36.2241 13.4207C36.2242 13.4207 36.2244 13.4207 36.2244 13.4207C36.2247 13.4207 36.2249 13.4207 36.2251 13.4207C36.2254 13.4207 36.2258 13.4207 36.2259 13.4207C36.2261 13.4207 36.2261 13.4207 36.2263 13.4207C37.0617 13.4205 37.7655 13.2703 38.355 12.955V13.6354L37.1584 15.9686H35.2923L34.0955 13.6354ZM35.7754 19.1369H36.6751L37.6644 33.1638L36.2253 34.976L34.7863 33.1638L35.7754 19.1369ZM36.7367 38.0327V38.6979H35.7138V38.0327H36.7367ZM39.9856 14.2791L40.1304 17.0238L38.0116 16.1736L39.1608 13.9331C39.1678 13.9195 39.1712 13.9045 39.1768 13.8901L39.9856 14.2791ZM39.8206 7.86287C39.8206 8.24623 39.4691 8.55796 39.0371 8.55796H38.1373C37.7055 8.55796 37.3542 8.24623 37.3542 7.86287V7.33013H39.8206V7.86287ZM33.1443 6.47748C33.0569 5.28239 33.1825 4.09191 33.3254 3.88591C33.3438 3.86766 33.3571 3.85657 33.3656 3.85026C33.4253 3.86561 33.5557 3.93621 33.6625 3.99402C34.1059 4.23362 34.8472 4.63437 36.2239 4.63471C36.2241 4.63471 36.2241 4.63471 36.2242 4.63471C36.2246 4.63471 36.2247 4.63471 36.2249 4.63471C36.2253 4.63471 36.2256 4.63471 36.2258 4.63471C36.2259 4.63471 36.2259 4.63471 36.2261 4.63471C37.603 4.63437 38.3446 4.23345 38.7877 3.99402C38.8948 3.93621 39.0257 3.86527 39.0849 3.85009C39.0922 3.85504 39.1025 3.86288 39.1142 3.87397C39.2669 4.09105 39.3934 5.28222 39.3061 6.47765H33.1443V6.47748ZM32.2036 6.47748C31.9681 6.47748 31.7773 6.6683 31.7773 6.9038V7.70752C31.492 7.10367 31.2664 5.91711 31.6357 3.61016C31.8627 2.19218 32.0771 0.852829 36.2251 0.852658C40.3733 0.852829 40.5878 2.19218 40.8148 3.61016C41.1841 5.91745 40.9585 7.10401 40.6732 7.70769V6.9038C40.6732 6.6683 40.4824 6.47748 40.2469 6.47748H40.1598C40.2254 5.4241 40.1923 3.74692 39.7281 3.28308C39.2302 2.78512 38.7605 3.0399 38.3825 3.24402C37.9625 3.471 37.3871 3.78205 36.2253 3.78222C35.0638 3.78205 34.4882 3.471 34.0684 3.24402C33.6905 3.0399 33.22 2.78546 32.7227 3.28308C32.2583 3.74726 32.2256 5.42427 32.2913 6.47748H32.2036ZM32.6299 7.33013H35.0963V7.86287C35.0963 8.24623 34.7449 8.55796 34.3133 8.55796H33.4134C32.9814 8.55796 32.6299 8.24623 32.6299 7.86287V7.33013ZM32.7493 9.27607C32.9524 9.36185 33.1768 9.41062 33.4134 9.41062H34.3133C35.2152 9.41062 35.949 8.71639 35.949 7.86287V7.33013H36.5015V7.86287C36.5015 8.71622 37.2353 9.41062 38.1373 9.41062H39.0371C39.2737 9.41062 39.4978 9.36185 39.701 9.27624C39.0789 11.988 37.855 12.5682 36.2251 12.5684C34.5955 12.568 33.3716 11.988 32.7493 9.27607ZM32.4568 14.2831L33.2739 13.89C33.2793 13.9043 33.2829 13.9193 33.2899 13.933L34.4487 16.1922L32.3109 17.1659L32.4568 14.2831ZM30.0242 15.444C30.051 15.437 31.5817 14.7038 31.5817 14.7038L31.4238 17.8229C31.4163 17.9717 31.4867 18.1135 31.6098 18.1971C31.6818 18.246 31.7653 18.2709 31.8496 18.2709C31.9096 18.2709 31.9698 18.2583 32.0262 18.2326L34.1557 17.2626L34.9444 18.7994L33.9241 33.2692C33.9166 33.3756 33.9492 33.4808 34.0155 33.5642L35.7981 35.8094V37.1802H30.3716L30.1792 36.3118V23.8519C30.1792 23.8415 30.1579 23.7189 30.1553 23.7117L27.6918 16.6393C28.2335 16.1546 28.9831 15.7142 30.0242 15.444ZM34.8612 38.0327V38.6979H30.7079L30.5605 38.0327H34.8612ZM26.2983 19.1952C26.301 19.1816 26.3029 19.1661 26.3042 19.1524C26.3104 19.0897 26.404 18.2534 27.0413 17.3634L29.3121 23.8828L28.4222 28.3801L28.1594 27.1933C28.1322 27.0733 27.5699 24.7123 25.4635 23.4495L26.2983 19.1952ZM29.3266 28.2037V32.4622L28.8816 30.4532L29.3266 28.2037ZM23.7355 23.6601C24.9599 23.9479 25.7884 24.6498 26.3388 25.3676L24.1308 27.6602C24.0094 27.7863 23.9775 27.9735 24.0498 28.1326C24.8844 29.966 24.4239 31.0557 23.9787 32.1092C23.5943 33.0187 23.197 33.9593 23.8798 35.1261C25.634 38.1247 25.8731 40.8505 25.8972 41.8447H19.4091V31.6486L22.2935 23.3141L23.7355 23.6601ZM24.6574 32.6964L25.998 37.3831H25.8762C25.5716 36.5402 25.1641 35.6329 24.6155 34.6955C24.1973 33.9801 24.3617 33.4147 24.6574 32.6964ZM18.983 30.2736L17.8003 26.857H20.1653L18.983 30.2736ZM22.1765 16.1185C22.1765 16.4797 21.8827 16.7735 21.5215 16.7735H20.7171C20.3559 16.7735 20.0619 16.4797 20.0619 16.1185V15.62H22.1763V16.1185H22.1765ZM19.6358 14.7674C19.4045 14.7674 19.2173 14.9517 19.2106 15.1814H18.755C18.7483 14.9517 18.5611 14.7674 18.33 14.7674H16.1446C16.6733 14.4998 17.3997 14.0336 17.8334 13.3361C18.2137 13.8646 18.8979 14.4316 20.1107 14.7674H19.6358ZM18.9831 7.50919C20.0113 7.50919 20.8481 8.34582 20.8481 9.3743C20.8481 9.57075 20.8138 9.76362 20.7539 9.94848C20.2219 9.71212 19.6219 9.58047 18.9831 9.58047C18.3443 9.58047 17.7444 9.71212 17.2122 9.94865C17.1523 9.76379 17.1179 9.57075 17.1179 9.3743C17.1179 8.34582 17.9547 7.50919 18.9831 7.50919ZM15.7892 13.3738C15.7894 13.3681 15.791 13.363 15.791 13.3572C15.791 11.7176 17.1932 10.4331 18.9831 10.4331C20.773 10.4331 22.1753 11.7176 22.1753 13.3572C22.1753 13.3617 22.1765 13.3659 22.1767 13.3705V14.207C18.3726 14.0721 18.2067 12.1379 18.2014 12.058C18.1934 11.8255 18.0036 11.6373 17.7678 11.6468C17.5353 11.6509 17.3491 11.8405 17.3491 12.0731C17.3491 13.0281 16.4173 13.6679 15.7894 13.9909V13.3738H15.7892ZM15.7892 15.62H17.9035V16.1185C17.9035 16.4797 17.6097 16.7735 17.2487 16.7735H16.4441C16.0829 16.7735 15.7891 16.4797 15.7891 16.1185V15.62H15.7892ZM15.9639 17.5463C16.115 17.5973 16.2761 17.6262 16.4443 17.6262H17.2488C18.0802 17.6262 18.7563 16.9498 18.7563 16.1185V16.0341H19.2094V16.1185C19.2094 16.9498 19.8858 17.6262 20.7173 17.6262H21.5217C21.6898 17.6262 21.8511 17.5972 22.0021 17.5463C21.5701 19.1516 20.3803 20.3083 18.9831 20.3083C17.5858 20.3083 16.396 19.1516 15.9639 17.5463ZM17.3431 22.9131C17.535 22.8671 17.67 22.6957 17.67 22.4986V20.8922C18.0822 21.0656 18.5236 21.1611 18.9831 21.1611C19.4424 21.1611 19.8837 21.0656 20.2955 20.8925V22.4988C20.2955 22.6959 20.4306 22.8673 20.6225 22.9133L21.4606 23.1144L20.4605 26.0045H17.5053L16.5051 23.1144L17.3431 22.9131ZM8.47395 46.4963C8.47173 46.504 8.46986 46.5118 8.46798 46.5197C8.40847 46.7828 8.25021 47.0072 8.02204 47.1513C7.7937 47.2956 7.52324 47.342 7.26011 47.2828C6.99697 47.2233 6.77273 47.065 6.62863 46.8369C6.48453 46.6087 6.43797 46.3382 6.49766 46.0732L6.579 45.7068C6.86311 45.9349 7.04592 46.2845 7.04592 46.6766C7.04592 46.9121 7.23674 47.1029 7.47225 47.1029C7.70775 47.1029 7.89858 46.9121 7.89858 46.6766C7.89858 45.8717 7.44206 45.1725 6.77494 44.8214L6.84503 44.5048L8.85117 45.179L8.47395 46.4963ZM12.8015 31.3787L9.08599 44.3585L7.03057 43.6677L10.6377 27.3823C10.6498 27.3297 10.7841 26.775 11.151 26.1023L13.0237 28.0473C12.4519 29.4476 12.5427 30.5068 12.8015 31.3787ZM14.0856 35.1261C14.7684 33.9592 14.3711 33.0187 13.9867 32.1092C13.5415 31.0555 13.081 29.966 13.9156 28.1326C13.9881 27.9735 13.956 27.7863 13.8346 27.6602L11.6273 25.3678C12.1779 24.6497 13.0069 23.9476 14.2318 23.6596L15.6718 23.3141L18.5565 31.6486V41.8447H12.0672C12.0896 40.8527 12.3251 38.1353 14.0856 35.1261ZM18.5568 74.1473H14.6753C15.0554 72.772 16.1943 72.662 16.354 72.6533H18.5568V74.1473ZM18.5568 71.8007H16.697C15.8174 66.938 15.329 62.2502 15.067 59.0086H18.5568V71.8007ZM23.2906 74.1473H19.4095V72.6533H21.6114C21.7689 72.6617 22.9096 72.7705 23.2906 74.1473ZM21.2689 71.8007H19.4095V59.0086H22.8989C22.6371 62.2502 22.1485 66.938 21.2689 71.8007ZM24.5759 58.1559H13.39C11.7534 48.3108 11.923 43.9001 12.0263 42.6974H25.9407C26.0455 43.8933 26.2183 48.276 24.5759 58.1559ZM26.1936 38.3596C26.1818 38.3183 26.1702 38.2775 26.1577 38.2358H26.242L26.1936 38.3596ZM25.1658 31.3734C25.4234 30.5023 25.5125 29.4447 24.9417 28.0473L26.815 26.1023C27.1811 26.7745 27.3155 27.3282 27.3274 27.3795L30.9372 43.6762L28.8961 44.4143L25.1658 31.3734ZM29.1313 45.2361L31.1233 44.5158L31.4686 46.0749C31.5912 46.6182 31.2488 47.16 30.7053 47.2828C30.4424 47.342 30.1717 47.2956 29.9435 47.1513C29.7154 47.0072 29.494 46.5042 29.4918 46.4965L29.1313 45.2361ZM34.2657 74.1473H28.7367C28.7754 73.7125 28.9076 73.0189 29.3448 72.5558C29.6692 72.2118 30.1076 72.0447 30.6843 72.0447H34.2655V74.1473H34.2657ZM34.2887 71.192H30.1792V48.1338C30.2783 48.1501 30.3784 48.1609 30.4794 48.1609C30.617 48.1609 30.7556 48.1455 30.8931 48.1145C31.8949 47.8884 32.5262 46.8892 32.3006 45.889L30.8968 39.5507H40.6887C39.6969 40.3759 38.8797 41.8821 38.8797 44.6048C38.8797 46.7013 39.8011 48.5371 41.1719 49.5352V50.2335L39.326 50.5889C38.2387 50.7284 37.5303 51.091 37.0771 51.4515L36.6502 43.6894H36.6495C36.6379 43.4752 36.4686 43.2992 36.2493 43.2871C36.0162 43.2724 35.8131 43.4542 35.8003 43.6894L35.2172 54.3022L34.5742 55.4219C34.5124 55.5294 34.5005 55.6583 34.5416 55.7753C34.5827 55.8921 34.6724 55.9855 34.7877 56.0309L35.1149 56.1597L35.0648 57.0703L33.5658 61.1402C33.3719 61.7379 33.7947 62.3924 34.5281 62.6303C34.6043 62.655 34.6804 62.673 34.7559 62.6868L34.2887 71.192ZM36.2783 52.454L36.1615 52.6573L36.2254 51.4934L36.2783 52.454ZM35.3852 61.6845C35.3794 61.6977 35.3745 61.711 35.37 61.7245C35.3371 61.8259 35.0893 61.9154 34.7909 61.8188C34.4923 61.7219 34.3439 61.5041 34.3712 61.4185L36.1574 56.57L37.4133 57.0647L35.3852 61.6845ZM35.5595 55.4182C35.5595 55.4182 37.1299 52.6789 37.1367 52.6629C37.1538 52.6225 37.575 51.6692 39.4466 51.4329C39.4556 51.4317 41.3443 51.0684 41.3443 51.0684C41.7077 51.6119 42.6001 52.1256 43.5354 52.1256C43.5361 52.1256 43.5368 52.1256 43.5375 52.1256C43.5378 52.1256 43.5382 52.1256 43.5385 52.1256C43.5392 52.1256 43.5399 52.1256 43.5406 52.1256C44.4754 52.1256 45.3678 51.6123 45.7315 51.0683C45.7315 51.0683 47.6203 51.4317 47.6294 51.4329C49.501 51.6692 49.9222 52.6225 49.9367 52.6564C49.9447 52.6772 51.5168 55.4182 51.5168 55.4182L48.8649 56.4627L48.1553 55.1276C48.0634 54.9549 47.8657 54.8665 47.6758 54.9139C47.4858 54.9613 47.3524 55.1319 47.3524 55.3276V61.86H39.7239V55.3276C39.7239 55.1319 39.5907 54.9613 39.4006 54.9139C39.2106 54.8663 39.0128 54.9547 38.921 55.1276L38.2118 56.4627L35.5595 55.4182ZM52.6988 61.4027C52.7315 61.5043 52.5833 61.7221 52.2851 61.8188C51.986 61.9156 51.7389 61.8261 51.7058 61.7246C51.7015 61.711 51.6962 61.6977 51.6906 61.6847L49.8016 57.3819C49.7926 57.2591 49.7837 57.1382 49.7755 57.0203L50.9184 56.5701L52.6988 61.4027ZM37.4925 59.006L38.2072 57.3774L38.253 57.3953C38.4551 57.4748 38.684 57.39 38.7858 57.1987L38.8709 57.0384V68.119C38.8709 68.3546 39.0617 68.5454 39.2972 68.5454H39.4885L39.6961 71.1919H38.1621L37.4925 59.006ZM38.1848 73.7711V72.0447H39.7628L39.7822 72.2926C39.3494 72.3677 38.9867 72.5544 38.7002 72.8506C38.428 73.1318 38.2737 73.4688 38.1848 73.7711ZM42.2749 74.1473H38.9664C39.0146 73.9231 39.1132 73.6501 39.3132 73.4434C39.5317 73.2174 39.8351 73.1076 40.2406 73.1076H42.275V74.1473H42.2749ZM42.2749 72.2548H40.6347L40.3439 68.5455H42.2749V72.2548ZM43.1275 74.1473V72.5848C43.5481 73.0517 43.6773 73.7225 43.7145 74.1473H43.1275ZM43.9485 72.2384C43.7459 71.9548 43.4786 71.6997 43.1275 71.5107V68.5454H43.1638C43.3245 68.5454 43.4655 68.4555 43.538 68.3216C43.6106 68.4553 43.7513 68.5454 43.9121 68.5454H43.9485V72.2384ZM43.9621 64.3124H43.9619C43.9425 64.1143 43.7858 63.9509 43.5801 63.9305C43.3468 63.9071 43.1371 64.0781 43.1139 64.3126L42.7779 67.6929H39.7237V62.7127H47.3523V67.6929H44.2984L43.9621 64.3124ZM46.7319 68.5455L46.4411 72.2548H44.8013V68.5455H46.7319ZM44.8011 74.1473V73.1074H46.8352C47.2387 73.1074 47.541 73.2162 47.7593 73.4398C47.9614 73.6468 48.0607 73.9217 48.1096 74.1472H44.8011V74.1473ZM48.9664 74.095C48.9041 73.7326 48.7508 73.2386 48.3756 72.8506C48.0891 72.5544 47.7262 72.3677 47.2933 72.2926L47.5871 68.5455H47.7784C48.0139 68.5455 48.2048 68.3547 48.2048 68.1192V57.0381L48.2902 57.1989C48.3922 57.3902 48.6212 57.475 48.8229 57.3955L48.8686 57.3776L48.9623 57.5911C49.201 60.7534 49.7044 65.476 50.7632 71.2311C50.7107 71.5466 50.383 73.1204 48.9664 74.095ZM53.4106 74.1473H50.2165C51.0833 73.2422 51.4227 72.1977 51.5491 71.6494H53.4106V74.1473ZM53.4106 70.7966H51.5508C50.7793 66.5563 50.3127 62.8934 50.0303 60.0234L50.9027 62.0104C51.0578 62.4511 51.5061 62.7139 52.0289 62.7139C52.1967 62.7139 52.3724 62.6868 52.5482 62.6298C52.9418 62.5022 53.2443 62.2539 53.4108 61.9571V70.7966H53.4106ZM53.4106 60.8692L51.7119 56.2575L52.2883 56.0306C52.4036 55.9852 52.4935 55.8918 52.5344 55.7749C52.5753 55.658 52.5634 55.529 52.5018 55.4216L51.3586 53.431H53.4106V60.8692ZM57.457 74.1473H54.2631V71.6494H56.1242C56.2508 72.1977 56.5901 73.2422 57.457 74.1473ZM56.1227 70.7966H54.2632V53.431H58.0733C58.0364 55.1121 57.7885 61.6404 56.1227 70.7966ZM59.8185 52.5783H50.8688L50.7158 52.312C50.6059 52.0705 49.9537 50.8716 47.7498 50.5887L47.6435 50.5683C47.5564 49.6401 47.4814 48.6991 47.422 47.7611C47.9106 46.8555 48.1961 45.7705 48.1961 44.6048C48.1961 42.7816 47.8287 41.5059 47.2888 40.6126C47.3763 38.0415 47.6299 35.836 48.0441 34.0349C48.4909 34.3942 49.0864 34.5067 49.3577 34.5569C50.3968 34.7491 51.9149 34.7491 53.8369 34.7491C55.7588 34.7491 57.2769 34.7491 58.3158 34.5569C58.5872 34.5067 59.1827 34.3942 59.6294 34.0349C61.1311 40.5744 60.0617 50.5429 59.8185 52.5783ZM63.5108 38.1892L59.8927 26.3057C60.0229 26.0985 60.1372 25.8659 60.2272 25.605C60.5997 24.526 60.5555 22.9614 59.578 22.0753C59.4036 21.9172 59.134 21.9307 58.9759 22.1048C58.8178 22.2793 58.8309 22.5489 59.0056 22.7071C59.6657 23.3055 59.7143 24.4778 59.4213 25.3267C59.1925 25.9892 58.7878 26.4194 58.365 26.4496C58.1515 26.465 57.9825 26.6362 57.9699 26.8499L57.8243 29.321C57.8188 29.4153 57.8446 29.5086 57.8979 29.5866C58.4242 30.3567 58.9054 31.4704 59.3297 32.8944C59.2694 33.8142 57.6215 33.8913 54.2632 33.8961V20.6021C56.4466 20.4882 57.9593 19.4935 58.2489 18.0136L58.5895 18.0953C61.4465 18.7668 62.1532 21.6935 62.1814 21.8148L65.6387 37.4235L63.5108 38.1892ZM65.5593 41.7182C65.296 41.7775 65.0257 41.7311 64.7975 41.5867C64.5693 41.4426 64.4581 41.2315 64.3517 40.9552C64.348 40.9453 63.7595 39.0059 63.7595 39.0059L65.8246 38.263L66.3224 40.5103C66.445 41.0536 66.1027 41.5954 65.5593 41.7182Z" fill="#1C1B1A"/>
<path d="M36.2244 11.6881C37.1258 11.6881 37.7554 11.322 37.7554 10.7974C37.7554 10.5619 37.5646 10.3711 37.3291 10.3711C37.1287 10.3711 36.9606 10.5094 36.9149 10.6956C36.832 10.7468 36.5955 10.8355 36.2244 10.8355C35.8533 10.8355 35.617 10.7468 35.5339 10.6958C35.4882 10.5094 35.3202 10.3713 35.1197 10.3713C34.8842 10.3713 34.6934 10.5621 34.6934 10.7976C34.6935 11.3218 35.323 11.6881 36.2244 11.6881Z" fill="#1C1B1A"/>
<path d="M33.8627 8.36983C33.9735 8.36983 34.0845 8.32549 34.1628 8.24534C34.2431 8.16689 34.289 8.05605 34.289 7.9435C34.289 7.83095 34.243 7.7218 34.1628 7.64336C34.0042 7.48477 33.7194 7.48477 33.561 7.64336C33.4807 7.7218 33.4365 7.83095 33.4365 7.9435C33.4365 8.05605 33.4809 8.16689 33.561 8.24534C33.6391 8.32549 33.75 8.36983 33.8627 8.36983Z" fill="#1C1B1A"/>
<path d="M38.5863 8.37047C38.6989 8.37047 38.808 8.32613 38.8882 8.24598C38.9666 8.16753 39.0126 8.05669 39.0126 7.94414C39.0126 7.83329 38.9664 7.72244 38.8882 7.644C38.728 7.4837 38.4448 7.48541 38.2845 7.644C38.206 7.72244 38.1602 7.83159 38.1602 7.94414C38.1602 8.05669 38.2062 8.16753 38.2845 8.24598C38.3646 8.32613 38.4738 8.37047 38.5863 8.37047Z" fill="#1C1B1A"/>
<path d="M11.2874 29.354C11.1265 29.354 10.9794 29.2635 10.9069 29.1199L10.4347 28.1855L9.96249 29.1199C9.88984 29.2635 9.74285 29.354 9.58203 29.354H7.39616C7.39428 29.4403 7.39258 29.5269 7.39258 29.6153C7.39258 30.9802 7.72614 32.3523 8.4393 33.2394C8.46744 33.265 9.24012 34.2217 10.4349 34.2217C11.6296 34.2217 12.4023 33.2652 12.4304 33.2394C13.1436 32.3523 13.4771 30.9802 13.4771 29.6153C13.4771 29.5268 13.4753 29.4403 13.4736 29.354H11.2874ZM8.46539 30.7077C8.38524 30.6276 8.34091 30.5184 8.34091 30.4059C8.34091 30.2933 8.38541 30.1825 8.46539 30.104C8.62399 29.9454 8.90877 29.9454 9.06737 30.104C9.14752 30.1825 9.19169 30.2933 9.19169 30.4059C9.19169 30.5184 9.14735 30.6276 9.06737 30.7077C8.98892 30.7862 8.87808 30.8322 8.76536 30.8322C8.65468 30.8322 8.54384 30.7862 8.46539 30.7077ZM11.3001 33.1163C11.0626 33.2089 10.7561 33.2602 10.4366 33.2609C10.434 33.2609 10.4316 33.2609 10.4291 33.2609C9.57828 33.2609 9.00598 32.935 9.00445 32.449C9.00376 32.2135 9.1939 32.0222 9.42941 32.0213C9.42992 32.0213 9.43026 32.0213 9.43077 32.0213C9.61614 32.0213 9.77405 32.1397 9.83272 32.3051C9.91935 32.3477 10.1265 32.4083 10.4296 32.4083C10.4315 32.4083 10.4332 32.4083 10.4347 32.4083C10.7405 32.4076 10.9492 32.3458 11.036 32.3025C11.094 32.1368 11.2515 32.0176 11.4371 32.0171C11.4376 32.0171 11.4379 32.0171 11.4384 32.0171C11.6733 32.0171 11.8641 32.207 11.8648 32.442C11.8655 32.6115 11.7928 32.9243 11.3001 33.1163ZM12.4047 30.7077C12.3245 30.7862 12.2156 30.8322 12.1028 30.8322C11.9903 30.8322 11.8811 30.7862 11.8008 30.7077C11.7224 30.6276 11.6765 30.5184 11.6765 30.4059C11.6765 30.2933 11.7225 30.1825 11.8008 30.104C11.9611 29.9454 12.2459 29.9454 12.4045 30.104C12.4829 30.1825 12.529 30.2933 12.529 30.4059C12.5292 30.5184 12.4831 30.6276 12.4047 30.7077Z" fill="#E0B489"/>
<path d="M11.4399 32.0176C11.4393 32.0176 11.439 32.0176 11.4385 32.0176C11.2528 32.0181 11.0952 32.1373 11.0374 32.3031C10.9504 32.3462 10.7419 32.4081 10.4361 32.4088C10.4344 32.4088 10.4327 32.4088 10.431 32.4088C10.128 32.4088 9.92077 32.3482 9.83414 32.3056C9.77547 32.1402 9.61756 32.0218 9.43219 32.0218C9.43168 32.0218 9.43134 32.0218 9.43083 32.0218C9.19532 32.0225 9.00518 32.214 9.00586 32.4495C9.0074 32.9357 9.57953 33.2614 10.4305 33.2614C10.433 33.2614 10.4354 33.2614 10.438 33.2614C10.7576 33.2608 11.0642 33.2094 11.3016 33.1168C11.7942 32.9246 11.8667 32.6119 11.8664 32.4425C11.8655 32.2076 11.6747 32.0176 11.4399 32.0176Z" fill="#1C1B1A"/>
<path d="M9.19258 30.4061C9.19258 30.2936 9.14824 30.1827 9.06826 30.1043C8.9095 29.9457 8.62471 29.9457 8.46628 30.1043C8.38613 30.1827 8.3418 30.2936 8.3418 30.4061C8.3418 30.5187 8.3863 30.6278 8.46628 30.708C8.54473 30.7864 8.65557 30.8325 8.76642 30.8325C8.87897 30.8325 8.98999 30.7864 9.06844 30.708C9.14824 30.6278 9.19258 30.5187 9.19258 30.4061Z" fill="#1C1B1A"/>
<path d="M11.8021 30.1043C11.7236 30.1827 11.6777 30.2936 11.6777 30.4061C11.6777 30.5187 11.7238 30.6278 11.8021 30.708C11.8824 30.7864 11.9913 30.8325 12.1041 30.8325C12.2166 30.8325 12.3258 30.7864 12.4059 30.708C12.4844 30.6278 12.5304 30.5187 12.5304 30.4061C12.5304 30.2936 12.4842 30.1827 12.4059 30.1043C12.2471 29.9457 11.9624 29.9457 11.8021 30.1043Z" fill="#1C1B1A"/>
<path d="M10.4357 35.0746C9.97369 35.0746 9.54258 34.9871 9.14695 34.8232C9.11626 34.9549 9.02468 35.0652 8.89746 35.1186C8.93447 35.9344 9.16707 36.6539 10.4357 36.6539C11.7056 36.6539 11.9374 35.9326 11.974 35.1189C11.8466 35.0656 11.7549 34.9551 11.7242 34.8234C11.3287 34.9871 10.8976 35.0746 10.4357 35.0746Z" fill="#E0B489"/>
<path d="M6.54093 29.6157C6.54093 29.3699 6.54793 29.1298 6.56174 28.9022C6.57521 28.6757 6.75973 28.5023 6.98722 28.5033V28.5018H9.32077L10.0553 27.0485C10.1615 26.8382 10.4173 26.754 10.6281 26.8602C10.7125 26.903 10.7754 26.9706 10.8151 27.049L10.8163 27.0485L11.5508 28.5018H13.8845V28.5033C14.109 28.5026 14.2964 28.6757 14.31 28.9022C14.3238 29.1298 14.3308 29.3699 14.3308 29.6157C14.3308 31.0118 14.0438 32.2112 13.5341 33.1278H15.7077C15.6473 29.7028 14.7919 27.3287 13.3421 25.8788C12.1052 24.6419 10.4512 24.7262 10.4407 24.7264C10.4275 24.7265 8.75086 24.6563 7.51297 25.8942C6.81464 26.5925 6.23159 27.4825 5.84073 28.6334C5.83374 28.6663 5.82214 28.6975 5.80765 28.7277C5.40997 29.9409 5.19425 31.41 5.16406 33.1278H7.33766C6.82794 32.211 6.54093 31.0118 6.54093 29.6157Z" fill="#754C24"/>
<path d="M16.8012 39.4082L15.151 40.8709L15.0557 41.6434C15.0616 41.6563 18.9325 52.7934 18.9325 52.7934C18.9378 52.8088 18.9424 52.8246 18.946 52.8405C18.9772 52.9805 19.0611 53.1 19.1825 53.1769C19.3038 53.254 19.4484 53.2789 19.5879 53.2477C19.7282 53.2163 19.8476 53.1324 19.9247 53.0112C20.0016 52.8899 20.0268 52.746 19.9955 52.6058L16.8012 39.4082Z" fill="#E0B489"/>
<path d="M14.5597 36.0155C14.5443 36.0121 12.8075 35.4102 12.8075 35.4102C12.7176 36.2679 12.3092 37.5063 10.4354 37.5063C8.55952 37.5063 8.15229 36.2657 8.06327 35.4102C8.06327 35.4102 6.32658 36.012 6.3114 36.0154C5.37382 36.2287 4.18743 37.5002 3.99609 38.2033L6.4057 40.3389C6.48347 40.4078 6.53326 40.5027 6.54605 40.6057L6.82027 42.8288H14.0505L14.3247 40.6057C14.3375 40.5027 14.3873 40.4078 14.465 40.3389L16.8746 38.2031C16.6963 37.6683 16.1107 36.3685 14.5597 36.0155Z" fill="#FF7B7B"/>
<path d="M11.7914 73.001L11.791 74.1352H15.057C14.833 73.6512 14.372 73.0029 13.5101 73.001H11.7914Z" fill="#F4A2A9"/>
<path d="M11.792 72.1483H13.1542C13.4337 70.5455 14.5674 63.7548 14.6293 58.7715H11.7954L11.792 72.1483Z" fill="#E0B489"/>
<path d="M13.9457 43.6826H6.92578L7.02043 44.4483H13.8512L13.9457 43.6826Z" fill="#F4A2A9"/>
<path d="M6.8897 45.3003C6.27204 46.3987 3.41085 51.8073 3.28125 57.9191H17.5895C17.4603 51.8001 14.5994 46.3978 13.9816 45.3003H6.8897Z" fill="#FF7B7B"/>
<path d="M7.36215 73.001C6.50028 73.0029 6.03951 73.6509 5.81543 74.1352H9.08162L9.08128 73.001H7.36215Z" fill="#F4A2A9"/>
<path d="M4.06969 39.4082L2.51154 45.8453C2.5112 45.847 2.51086 45.8485 2.51052 45.85L0.873419 52.6128C0.843746 52.7457 0.868983 52.8896 0.945893 53.0108C1.02297 53.1321 1.14235 53.2162 1.28252 53.2474C1.57294 53.3125 1.86028 53.1294 1.92509 52.84C1.9285 52.8241 1.9331 52.8086 1.93839 52.7932C1.93839 52.7932 5.80912 41.6565 5.81508 41.6437L5.71959 40.8707L4.06969 39.4082Z" fill="#E0B489"/>
<path d="M9.08064 72.1483L9.07706 58.7715H6.24316C6.3049 63.756 7.43859 70.5457 7.71792 72.1483H9.08064Z" fill="#E0B489"/>
<path fill-rule="evenodd" clip-rule="evenodd" d="M17.5241 38.7683L17.641 38.6648C17.7558 38.563 17.8071 38.4075 17.7753 38.2574C17.7538 38.1554 17.22 35.7615 14.7729 35.1904L12.5648 34.424V34.3173C12.6893 34.2148 12.808 34.1021 12.9209 33.9807H16.1376C16.3731 33.9807 16.564 33.7898 16.564 33.5543C16.564 29.6563 15.674 26.8627 13.9185 25.251C12.3759 23.8345 10.7258 23.8751 10.4354 23.8751C10.1423 23.8751 8.4939 23.8361 6.95298 25.251C6.39789 25.7605 5.93013 26.3888 5.54899 27.1321L4.98214 28.5158C4.53381 29.9087 4.30752 31.5912 4.30752 33.5543C4.30752 33.7898 4.49834 33.9807 4.73385 33.9807H6.19257L7.0657 33.9808H7.95059C8.06365 34.1021 8.18217 34.2148 8.30683 34.3173V34.424L7.24561 34.7924L6.43456 35.0738L6.09895 35.1902C5.27801 35.3817 4.67331 35.7787 4.2301 36.225L3.59163 37.0559C3.22566 37.6747 3.10595 38.2102 3.09606 38.2572C3.06434 38.4073 3.11567 38.563 3.23044 38.6646L3.34776 38.7685L2.57969 41.9412L1.67263 45.689C1.67263 45.689 0.0246149 52.518 0.0189873 52.5671C0.0189873 52.5671 -0.0237342 52.8729 0.0189873 53.0522C0.0617088 53.2315 0.237778 53.4854 0.237778 53.4854C0.437129 53.7894 0.740675 54.0006 1.09589 54.0799C1.1977 54.1025 1.29934 54.1135 1.39961 54.1135C2.02768 54.1135 2.5964 53.6846 2.75039 53.0522L6.05001 43.5517L6.20195 44.7826C5.64551 45.7417 2.42382 51.5884 2.42382 58.3459C2.42382 58.5814 2.61465 58.7722 2.85015 58.7722H5.38988C5.45025 63.7244 6.55188 70.4163 6.86089 72.2006C5.57269 72.4724 4.95281 73.7572 4.79831 74.4724C4.77102 74.5984 4.8024 74.7299 4.88323 74.8302C4.96423 74.9304 5.08599 74.9887 5.21492 74.9887H9.50686C9.61992 74.9887 9.72838 74.9437 9.80836 74.8639C9.88851 74.7839 9.93319 74.6755 9.93319 74.5624L9.92909 58.7724H10.9417L10.9374 74.5624C10.9374 74.6755 10.9823 74.7839 11.0624 74.8639C11.1424 74.9439 11.2507 74.9887 11.3638 74.9887H15.6554C15.7843 74.9887 15.9062 74.9304 15.9871 74.8302C16.0681 74.7299 16.0993 74.5984 16.072 74.4724C15.9177 73.7572 15.2978 72.4724 14.0094 72.2006C14.3182 70.4163 15.4202 63.7246 15.4808 58.7722H18.0201C18.2556 58.7722 18.4465 58.5814 18.4465 58.3459C18.4465 51.5881 15.2246 45.741 14.6687 44.7826L14.8206 43.5514L18.1202 53.0521C18.2055 53.4034 18.4199 53.7026 18.726 53.8969C18.9516 54.04 19.2076 54.1138 19.4683 54.1138C19.5701 54.1138 19.6726 54.1025 19.7744 54.0799C20.1368 53.9989 20.446 53.7816 20.645 53.468C20.844 53.1544 20.9089 52.7821 20.8261 52.4124L17.5241 38.7683ZM7.39346 29.6161C7.39346 30.981 7.72702 32.3531 8.44018 33.2402C8.44192 33.2418 8.44653 33.247 8.45391 33.2553C8.56568 33.3808 9.31502 34.2225 10.4357 34.2225C11.5556 34.2225 12.3047 33.3819 12.4173 33.2555C12.4249 33.2471 12.4295 33.2418 12.4313 33.2402C13.1445 32.3529 13.478 30.981 13.4777 29.6161C13.4777 29.5277 13.476 29.4411 13.4741 29.3548H11.2882C11.1274 29.3548 10.9804 29.2643 10.9078 29.1207L10.4356 28.1863L9.96337 29.1207C9.89089 29.2643 9.74373 29.3548 9.58291 29.3548H7.39704L7.39662 29.3758C7.39504 29.4552 7.39346 29.5347 7.39346 29.6161ZM10.4357 36.6543C11.7057 36.6543 11.9373 35.9329 11.9741 35.1193C11.8467 35.0659 11.755 34.9554 11.7245 34.8236C11.3288 34.9875 10.8977 35.075 10.4357 35.075C9.97377 35.075 9.5425 34.9873 9.14704 34.8236C9.11634 34.9552 9.02476 35.0656 8.89754 35.119C8.93455 35.9348 9.16733 36.6543 10.4357 36.6543ZM5.8406 28.6336C5.83361 28.6667 5.82201 28.6979 5.80751 28.7279C5.40983 29.9411 5.19428 31.4102 5.16393 33.128H7.33752C6.82781 32.2114 6.5408 31.012 6.5408 29.6159C6.5408 29.3702 6.54779 29.1301 6.56161 28.9024C6.57508 28.6761 6.75959 28.5027 6.98708 28.5035V28.502H9.32064L10.0551 27.0487C10.1614 26.8384 10.4172 26.7542 10.6279 26.8604C10.7123 26.9031 10.7754 26.9708 10.815 27.0492L10.8162 27.0487L11.5507 28.502H13.8844V28.5035C14.1088 28.5028 14.2962 28.6759 14.3099 28.9024C14.3237 29.1301 14.3307 29.3702 14.3307 29.6159C14.3307 31.012 14.0437 32.2114 13.534 33.128H15.7076C15.6474 29.703 14.7918 27.3287 13.3419 25.879C12.1263 24.6634 10.5075 24.7241 10.4425 24.7265L10.4405 24.7266L10.4384 24.7265C10.3708 24.7246 8.72978 24.6774 7.51283 25.8944C6.8145 26.5927 6.23146 27.4827 5.8406 28.6336ZM1.92519 52.8403C1.9286 52.8246 1.9332 52.8089 1.93849 52.7935C1.93849 52.7935 5.80922 41.6568 5.81536 41.6438L5.71986 40.8708L4.0698 39.4085L2.51165 45.8456C2.51131 45.8473 2.51097 45.8488 2.51062 45.8503L0.873522 52.6131C0.843849 52.746 0.869086 52.8899 0.945996 53.0111C1.02325 53.1324 1.14262 53.2163 1.28263 53.2477C1.57321 53.3128 1.86039 53.1297 1.92519 52.8403ZM9.07695 58.7722H6.24305C6.30479 63.7567 7.43848 70.5466 7.71798 72.1491H9.08053L9.07695 58.7722ZM7.3614 73.0019C6.4997 73.0038 6.03875 73.6518 5.81468 74.1361H9.08087L9.08053 73.0019H7.3614ZM11.791 74.1361H15.057C14.8329 73.6521 14.372 73.0038 13.5101 73.0019H11.7913L11.791 74.1361ZM11.7913 72.1492H13.1535C13.433 70.5464 14.5669 63.7556 14.6288 58.7724H11.7949L11.7913 72.1492ZM3.2816 57.9196H17.5899C17.4606 51.8005 14.5998 46.3983 13.9819 45.3007H6.89005C6.27238 46.3991 3.4112 51.8077 3.2816 57.9196ZM13.9458 43.6824H6.92586L7.0205 44.4481H13.8513L13.9458 43.6824ZM14.3252 40.6067C14.338 40.5037 14.3878 40.4087 14.4656 40.3398L16.8752 38.2044C16.6968 37.6693 16.1114 36.3693 14.5602 36.0165C14.545 36.0131 12.808 35.4111 12.808 35.4111C12.7181 36.2688 12.3097 37.5072 10.4359 37.5072C8.56007 37.5072 8.15283 36.2666 8.06382 35.4111C8.06382 35.4111 6.32729 36.0129 6.31195 36.0163C5.37436 36.2296 4.18797 37.5011 3.99664 38.2042L6.40625 40.3398C6.48401 40.4087 6.53381 40.5037 6.5466 40.6067L6.82081 42.8297H14.051L14.3252 40.6067ZM19.5885 53.2478C19.729 53.2165 19.8484 53.1326 19.9253 53.0113C20.0024 52.8901 20.0275 52.746 19.9961 52.6058L16.8019 39.4083L15.1516 40.871L15.0563 41.6435C15.0623 41.6565 18.9332 52.7935 18.9332 52.7935C18.9384 52.8089 18.9431 52.8247 18.9466 52.8406C18.9778 52.9806 19.0617 53.1002 19.1832 53.1771C19.3044 53.2541 19.449 53.279 19.5885 53.2478Z" fill="#1C1B1A"/>
</svg>
