<svg xmlns="http://www.w3.org/2000/svg" viewBox="0 0 36 36.38"><defs><style>.cls-1{fill:#b7b9bd;}</style></defs><title>filter-icon</title><g id="Слой_2" data-name="Слой 2"><g id="layout"><path class="cls-1" d="M10.23,7.58H6.16V.76a.76.76,0,1,0-1.52,0V7.58H.76A.76.76,0,0,0,0,8.34a.75.75,0,0,0,.76.75H4.64V35.62a.76.76,0,1,0,1.52,0V9.09h4.07A.75.75,0,0,0,11,8.34.76.76,0,0,0,10.23,7.58Z"/><path class="cls-1" d="M35.24,15.92H31.17V.76a.76.76,0,1,0-1.52,0V15.92H25.77a.76.76,0,1,0,0,1.51h3.88V35.62a.76.76,0,0,0,1.52,0V17.43h4.07a.76.76,0,1,0,0-1.51Z"/><path class="cls-1" d="M22.8,27.28h-4V.76A.76.76,0,0,0,18.06,0a.75.75,0,0,0-.75.76V27.28h-4a.76.76,0,1,0,0,1.52h4v6.82a.75.75,0,0,0,.75.76.76.76,0,0,0,.76-.76V28.8h4a.76.76,0,0,0,0-1.52Z"/></g></g></svg>