<svg width="30" height="75" viewBox="0 0 30 75" fill="none" xmlns="http://www.w3.org/2000/svg">
<path d="M15.133 38.6154H22.253C22.2266 37.5244 21.9642 34.5331 20.0389 31.2424C19.2898 29.9618 19.7258 28.9297 20.1477 27.9316C20.6363 26.7753 21.1416 25.5796 20.2257 23.5677C20.1462 23.3931 20.1813 23.1876 20.3146 23.0493L22.7375 20.5334C22.1334 19.7457 21.2243 18.9754 19.8806 18.6595L18.2981 18.2798L15.1328 27.4262V38.6154H15.133Z" fill="#C4806E"/>
<path d="M13.404 7.33008C12.9281 8.09549 12.1307 8.60714 11.5508 8.90076H13.949C14.2028 8.90076 14.4083 9.10306 14.4156 9.35514H14.9156C14.9229 9.10306 15.1284 8.90076 15.3821 8.90076H15.894C14.5679 8.53153 13.8208 7.9091 13.404 7.33008Z" fill="#E0B489"/>
<path d="M1.26777 41.8823C1.99987 42.2676 2.50085 43.0351 2.50085 43.9182C2.50085 44.1767 2.29144 44.3861 2.033 44.3861C1.77455 44.3861 1.56514 44.1767 1.56514 43.9182C1.56514 43.488 1.36452 43.1043 1.05256 42.854L0.963479 43.2561C0.897792 43.5469 0.948882 43.8437 1.10702 44.0941C1.26515 44.3443 1.51124 44.5182 1.80019 44.5835C2.08895 44.6485 2.38445 44.5953 2.63616 44.4394C3.02185 44.2004 3.12984 43.729 3.13227 43.7202L3.54698 42.2753L1.34469 41.5352L1.26777 41.8823Z" fill="#C69C6D"/>
<path d="M16.2859 21.2324L17.3835 18.0607L16.4637 17.8401C16.2533 17.7896 16.1049 17.6015 16.1049 17.3851V15.6224C15.6528 15.8126 15.1688 15.9172 14.6647 15.9172C14.1603 15.9172 13.6758 15.8124 13.2237 15.6221V17.3849C13.2237 17.6013 13.0755 17.7894 12.8651 17.8399L11.9453 18.0605L13.0431 21.2322H16.2859V21.2324Z" fill="#E0B489"/>
<path d="M14.6661 14.9815C16.1993 14.9815 17.5048 13.7122 17.9792 11.9506C17.8134 12.0065 17.6364 12.0382 17.4519 12.0382H16.5691C15.6566 12.0382 14.9144 11.296 14.9144 10.3837V10.291H14.4172V10.3837C14.4172 11.296 13.6752 12.0382 12.7628 12.0382H11.8799C11.6954 12.0382 11.5183 12.0064 11.3525 11.9506C11.8269 13.712 13.1326 14.9815 14.6661 14.9815ZM13.4046 12.2079C13.6271 12.2079 13.8135 12.3634 13.8608 12.5715C13.9531 12.6314 14.2274 12.7381 14.6661 12.7381C15.1047 12.7381 15.3791 12.6314 15.4713 12.5715C15.5187 12.3634 15.7051 12.2079 15.9276 12.2079C16.186 12.2079 16.3955 12.4173 16.3955 12.6758C16.3955 13.2634 15.6843 13.6738 14.6663 13.6738C13.6482 13.6738 12.9371 13.2634 12.9371 12.6758C12.9367 12.4173 13.1461 12.2079 13.4046 12.2079Z" fill="#E0B489"/>
<path d="M13.3672 22.168L14.665 25.9175L15.9627 22.168H13.3672Z" fill="#96564A"/>
<path d="M6.07056 21.3398C5.66839 22.0781 5.52073 22.6869 5.50744 22.7445L1.54883 40.6162L3.80595 41.3747L7.88845 27.1512C7.59969 26.1902 7.49358 25.0224 8.12594 23.4744L6.07056 21.3398Z" fill="#C4806E"/>
<path d="M12.8721 5.94379C12.8721 5.68871 13.0765 5.48043 13.3316 5.47593C13.5842 5.46545 13.7985 5.67206 13.8075 5.92713C13.8129 6.0149 13.9946 8.13822 18.1697 8.28587C18.1697 8.28587 18.1683 7.35802 18.1683 7.35297C18.1683 5.5536 16.6296 4.14404 14.6651 4.14404C12.7007 4.14404 11.162 5.5536 11.162 7.35297C11.162 7.35914 11.1602 8.04801 11.1602 8.04801C11.8498 7.69357 12.8721 6.99141 12.8721 5.94379Z" fill="#CCCCCC"/>
<path d="M11.879 11.1023H12.7619C13.1581 11.1023 13.4805 10.7798 13.4805 10.3834V9.83643H11.1602V10.3834C11.1602 10.7796 11.4828 11.1023 11.879 11.1023ZM11.9901 10.1385C12.1642 9.96443 12.4767 9.96443 12.6507 10.1385C12.7387 10.2246 12.7874 10.3462 12.7874 10.4697C12.7874 10.5932 12.7387 10.713 12.6507 10.7991C12.5647 10.887 12.443 10.9376 12.3214 10.9376C12.1979 10.9376 12.0762 10.887 11.9901 10.7991C11.9022 10.713 11.8516 10.5914 11.8516 10.4697C11.8516 10.3462 11.9022 10.2246 11.9901 10.1385Z" fill="#D8D5D4"/>
<path d="M14.6653 3.20857C15.3663 3.20857 16.0245 3.35305 16.6084 3.61243C16.6741 3.40957 16.7117 3.19791 16.7117 2.98232C16.7117 1.85385 15.7936 0.935547 14.6651 0.935547C13.5365 0.935547 12.6182 1.85367 12.6182 2.98232C12.6182 3.19772 12.656 3.40975 12.7217 3.61261C13.3059 3.35324 13.9641 3.20857 14.6653 3.20857Z" fill="#CCCCCC"/>
<path d="M15.8496 10.3834C15.8496 10.7798 16.1722 11.1023 16.5686 11.1023H17.4514C17.8477 11.1023 18.1702 10.7798 18.1702 10.3834V9.83643H15.8496V10.3834ZM16.6785 10.1385C16.8544 9.96443 17.1669 9.96443 17.3409 10.1385C17.427 10.2264 17.4776 10.3462 17.4776 10.4697C17.4776 10.5914 17.427 10.713 17.3409 10.801C17.253 10.8872 17.1332 10.9376 17.0097 10.9376C16.8862 10.9376 16.7664 10.887 16.6785 10.801C16.5924 10.713 16.5418 10.5914 16.5418 10.4697C16.5418 10.3462 16.5924 10.2264 16.6785 10.1385Z" fill="#D8D5D4"/>
<path d="M14.1981 27.4262L11.0324 18.2798L9.45216 18.6589C8.10754 18.975 7.19803 19.7455 6.59375 20.5335L9.0163 23.0493C9.14936 23.1874 9.18455 23.3929 9.1052 23.5677C8.18932 25.5796 8.69461 26.7755 9.18323 27.9316C9.60505 28.9297 10.0411 29.9619 9.29196 31.2424C7.35991 34.5445 7.10128 37.5268 7.07695 38.6154H14.1983V27.4262H14.1981Z" fill="#C4806E"/>
<path d="M24.5924 26.2156C24.5924 26.2151 24.5922 26.2145 24.5922 26.2141L23.823 22.7415C23.8101 22.6852 23.6626 22.0776 23.2608 21.3398L21.2051 23.4744C21.8344 25.0157 21.7323 26.1805 21.4463 27.139L23.4137 34.0041C23.4274 34.0361 23.4367 34.0704 23.4429 34.1057L23.5795 34.5828C23.5876 34.6045 23.5939 34.6264 23.5986 34.649L25.5438 41.4359L27.7846 40.6256L24.5924 26.2156Z" fill="#C4806E"/>
<path d="M26.6939 44.4392C26.9443 44.5975 27.2413 44.6484 27.5298 44.5833C28.1263 44.4487 28.5018 43.8542 28.3673 43.2579L27.9883 41.5469L25.8018 42.3376C25.8018 42.3376 26.2028 43.7376 26.2047 43.7464C26.2698 44.0349 26.4437 44.281 26.6939 44.4392Z" fill="#C69C6D"/>
<path d="M22.5391 34.6553C22.5527 34.7011 22.5653 34.7459 22.5784 34.7913L22.636 34.6888L22.6265 34.6555H22.5391V34.6553Z" fill="#C69C6D"/>
<path d="M9.9375 74.0644H14.197V72.4248H11.7795C11.6046 72.4343 10.355 72.5551 9.9375 74.0644Z" fill="#998675"/>
<path d="M12.1567 71.4893H14.1977V57.4512H10.3682C10.6552 61.0086 11.1912 66.1529 12.1567 71.4893Z" fill="#E0B489"/>
<path d="M7.03109 39.5518C6.91787 40.8717 6.73167 45.7119 8.52786 56.516H14.6657H20.8033C22.6056 45.6735 22.416 40.864 22.3008 39.5518H7.03109Z" fill="#96564A"/>
<path d="M15.1328 72.4258V74.0653H19.392C18.9741 72.5545 17.7223 72.4351 17.5494 72.4258H15.1328Z" fill="#998675"/>
<path d="M15.1328 71.4893H17.1734C18.1389 66.1529 18.6749 61.0086 18.9621 57.4512H15.1328V71.4893Z" fill="#E0B489"/>
<path fill-rule="evenodd" clip-rule="evenodd" d="M20.9074 18.0029C20.6529 17.9037 20.3845 17.8171 20.0971 17.7495L17.0414 17.0163V15.0711C18.2811 14.1071 19.1056 12.4141 19.1056 10.4889C19.1056 10.4889 19.1039 7.34046 19.1037 7.33391C19.0974 6.00371 18.4517 4.8408 17.4329 4.09167C17.5733 3.7406 17.6476 3.36425 17.6476 2.98248C17.6476 1.33788 16.3099 0 14.6653 0C13.0207 0 11.6826 1.33788 11.6826 2.98248C11.6826 3.36425 11.7569 3.7406 11.8975 4.09186C10.8801 4.84024 10.2349 6.0009 10.227 7.32905C10.2265 7.33728 10.2246 10.4889 10.2246 10.4889C10.2246 12.4139 11.0491 14.1068 12.2884 15.0707V17.0163L9.23498 17.7489C5.52227 18.6218 4.63072 22.3775 4.59423 22.5392L0.366692 41.6262L0.160836 42.5554L0.050983 43.0517C-0.0693493 43.5843 0.0249704 44.1319 0.316538 44.5935C0.608292 45.0552 1.06211 45.3756 1.59472 45.4959C1.74574 45.53 1.89789 45.5468 2.04873 45.5468C2.43068 45.5468 2.80553 45.4392 3.13639 45.2302C3.59396 44.9412 3.91285 44.4927 4.03561 43.966L8.44655 28.5977C8.76563 29.3759 8.93855 29.9921 8.48342 30.7699C6.0502 34.9286 6.12019 38.5608 6.14265 39.0588C6.05918 39.6257 5.5146 44.2621 7.67029 57.0609C7.70828 57.2863 7.90328 57.4511 8.13159 57.4511H9.42924C9.71519 61.0143 10.2515 66.1914 11.2211 71.5725C10.326 71.8087 9.13655 72.5907 8.9073 74.4756C8.8912 74.6087 8.93275 74.7421 9.02145 74.8424C9.11034 74.9427 9.23779 75 9.37178 75H19.9588C20.0928 75 20.2202 74.9426 20.3091 74.8424C20.3978 74.7421 20.4394 74.6087 20.4233 74.4756C20.194 72.5907 19.0045 71.8087 18.1094 71.5725C19.079 66.1914 19.6154 61.0143 19.9013 57.4511H21.199C21.4275 57.4511 21.6225 57.2863 21.6603 57.0609C23.8169 44.2557 23.2705 39.6212 23.1875 39.0579C23.1993 38.7979 23.2222 37.6987 22.9044 36.1207L22.9983 35.9534L25.2946 43.9657C25.4005 44.421 25.6539 44.8175 26.0162 45.1037L26.9521 45.5171C27.0608 45.535 27.1707 45.5468 27.2817 45.5468C27.4327 45.5466 27.5848 45.53 27.7357 45.4959C28.8351 45.2478 29.5279 44.1513 29.2803 43.0537L27.7396 36.098L27.5322 35.1623L27.3706 34.4323L27.1632 33.4968L26.9521 32.5435L26.0164 28.3189L25.5281 26.1144L25.0242 23.8397L24.7356 22.537C24.7056 22.4052 24.0888 19.8142 21.7774 18.4284L20.9074 18.0029ZM22.7377 20.5336C22.1336 19.7459 21.2242 18.9756 19.8807 18.6598L18.2985 18.2799L15.1331 27.4262V38.6155H22.253C22.2266 37.5244 21.9642 34.5331 20.0389 31.2424C19.2898 29.962 19.7258 28.9297 20.1476 27.9317C20.6362 26.7755 21.1415 25.5797 20.2257 23.5677C20.1463 23.3931 20.1815 23.1877 20.3145 23.0494L22.7377 20.5336ZM22.3581 33.7195L20.8876 28.5882C20.5661 29.3708 20.3898 29.989 20.8466 30.7701C21.4486 31.7988 21.8957 32.7944 22.2299 33.7195H22.3581ZM13.3675 22.1681L14.6653 25.9175L15.9627 22.1681H13.3675ZM17.4513 11.1024C17.8476 11.1024 18.1701 10.7799 18.1701 10.3836L18.1699 9.83656H15.8495V10.3836C15.8495 10.7799 16.1722 11.1024 16.5685 11.1024H17.4513ZM14.9151 9.35523C14.9224 9.10315 15.1279 8.90085 15.3817 8.90085H15.8935C14.5676 8.53162 13.8205 7.90919 13.4038 7.33017C12.9279 8.09558 12.1304 8.60723 11.5505 8.90085H13.9485C14.2023 8.90085 14.4078 9.10315 14.4151 9.35523H14.9151ZM16.7121 2.98248C16.7121 1.85383 15.7939 0.935711 14.6655 0.935711C13.5368 0.935711 12.6185 1.85383 12.6187 2.98248C12.6187 3.19807 12.6565 3.40992 12.7222 3.61278C13.3063 3.3534 13.9644 3.20874 14.6657 3.20874C15.3665 3.20874 16.0249 3.35321 16.6088 3.61259C16.6743 3.40992 16.7121 3.19807 16.7121 2.98248ZM14.6655 4.14445C12.701 4.14445 11.1624 5.554 11.1624 7.35337C11.1624 7.35955 11.1605 8.04842 11.1609 8.04861C11.8501 7.69416 12.8725 6.992 12.8725 5.94419C12.8725 5.68893 13.0768 5.48083 13.3319 5.47634C13.5845 5.46586 13.7988 5.67246 13.8078 5.92754C13.8132 6.01531 13.9948 8.13844 18.1701 8.28628L18.1686 7.35337C18.1686 5.554 16.6299 4.14445 14.6655 4.14445ZM13.4807 9.83656H11.1605L11.1603 10.3836C11.1603 10.7799 11.4827 11.1024 11.8791 11.1024H12.762C13.1582 11.1024 13.4807 10.7799 13.4807 10.3836V9.83656ZM11.8793 12.0379C11.6948 12.0379 11.5177 12.0063 11.3519 11.9503C11.8263 13.7119 13.132 14.9815 14.6655 14.9813C16.1987 14.9813 17.5044 13.7119 17.9786 11.9503C17.8128 12.0061 17.6358 12.0379 17.4513 12.0379H16.5685C15.656 12.0379 14.9138 11.2957 14.9138 10.3834V10.2908H14.4166V10.3834C14.4166 11.2957 13.6744 12.0379 12.7622 12.0379H11.8793ZM13.2243 17.3849C13.2243 17.6013 13.0761 17.7894 12.8657 17.8399L11.9459 18.0607L13.0437 21.2324H16.2865L17.3841 18.0607L16.4643 17.8401C16.2539 17.7895 16.1055 17.6015 16.1055 17.3851V15.6224C15.6536 15.8124 15.1694 15.9172 14.6653 15.9172C14.1609 15.9172 13.6766 15.8124 13.2243 15.6221V17.3849ZM2.63654 44.4391C3.01115 44.207 3.12378 43.7555 3.13218 43.7218C3.13243 43.7208 3.13265 43.72 3.13265 43.72L3.54736 42.275L1.34507 41.5349L1.26816 41.882C2.00026 42.2674 2.50123 43.0346 2.50123 43.9179C2.50123 44.1764 2.29182 44.3858 2.03338 44.3858C1.77494 44.3858 1.56552 44.1764 1.56552 43.9179C1.56552 43.4877 1.36491 43.1041 1.05294 42.8537L0.963862 43.2558C0.898176 43.5467 0.949265 43.8435 1.1074 44.0939C1.26554 44.3443 1.51181 44.5179 1.80057 44.5832C2.08933 44.6484 2.38483 44.595 2.63654 44.4391ZM3.8058 41.3747L7.88831 27.1511C7.59955 26.1902 7.49344 25.0224 8.12579 23.4744L6.07041 21.3398C5.66805 22.0781 5.52059 22.6869 5.5073 22.7445L1.54868 40.6162L3.8058 41.3747ZM9.18239 27.9319C9.60421 28.9299 10.0403 29.962 9.29112 31.2426C7.35888 34.5449 7.10044 37.527 7.07611 38.6157H14.1974V27.4264L11.0317 18.28L9.4515 18.6592C8.10708 18.9753 7.19738 19.7457 6.5931 20.5338L9.01546 23.0495C9.14871 23.1878 9.18389 23.3933 9.10436 23.5679C8.18848 25.5799 8.69377 26.7755 9.18239 27.9319ZM9.93807 74.0645H14.1976V72.4249H11.7801C11.6051 72.4345 10.3554 72.5552 9.93807 74.0645ZM12.1566 71.4894H14.1976L14.1974 57.4513H10.3679C10.6552 61.0087 11.1912 66.153 12.1566 71.4894ZM15.1333 74.0645H19.3925C18.9746 72.5537 17.7228 72.4343 17.5499 72.4249H15.1333V74.0645ZM15.1333 71.4894H17.1739C18.1394 66.153 18.6754 61.0087 18.9624 57.4513H15.1333V71.4894ZM14.6655 56.5156H20.803C22.6053 45.6733 22.4158 40.8636 22.3005 39.5514H7.03082C6.9176 40.8713 6.73158 45.7115 8.52758 56.5156H14.6655ZM22.5391 34.6552C22.5528 34.701 22.5653 34.7459 22.5784 34.7912L22.636 34.6885L22.6265 34.6552H22.5391ZM23.5789 34.5827C23.5869 34.6045 23.5933 34.6263 23.5979 34.649L25.5427 41.4359L27.7836 40.6256L24.5917 26.2156C24.5917 26.2151 24.5917 26.2145 24.5915 26.2141L23.8223 22.7415C23.8094 22.6852 23.662 22.0775 23.2602 21.3398L21.2044 23.4744C21.834 25.0157 21.7316 26.1802 21.4456 27.139L23.4131 34.0041C23.4269 34.0361 23.4361 34.0703 23.4422 34.1057L23.5789 34.5827ZM27.9879 41.5467L25.8014 42.3373C25.8014 42.3373 26.2024 43.7374 26.2043 43.746C26.2694 44.0347 26.4431 44.2808 26.6935 44.439C26.9439 44.5971 27.2409 44.648 27.5294 44.583C28.1259 44.4485 28.5014 43.8539 28.3669 43.2577L27.9879 41.5467Z" fill="#1C1B1A"/>
<path fill-rule="evenodd" clip-rule="evenodd" d="M22.5784 34.7912C22.5653 34.7459 22.5528 34.701 22.5391 34.6552H22.6265L22.636 34.6885L22.5784 34.7912Z" fill="#1C1B1A"/>
<path d="M14.6651 13.6739C15.6832 13.6739 16.3943 13.2635 16.3943 12.6759C16.3943 12.4174 16.1849 12.208 15.9265 12.208C15.7039 12.208 15.5175 12.3635 15.4702 12.5716C15.3779 12.6315 15.1036 12.7382 14.6649 12.7382C14.2263 12.7382 13.9519 12.6315 13.8597 12.5716C13.8123 12.3635 13.6259 12.208 13.4034 12.208C13.145 12.208 12.9355 12.4174 12.9355 12.6759C12.9359 13.2635 13.6471 13.6739 14.6651 13.6739Z" fill="#1C1B1A"/>
<path d="M12.3213 10.9384C12.4429 10.9384 12.5646 10.8879 12.6507 10.7999C12.7386 10.7138 12.7873 10.5941 12.7873 10.4706C12.7873 10.347 12.7386 10.2254 12.6507 10.1393C12.4766 9.96528 12.1641 9.96528 11.99 10.1393C11.9021 10.2254 11.8516 10.347 11.8516 10.4706C11.8516 10.5922 11.9021 10.7138 11.99 10.7999C12.0761 10.8879 12.1978 10.9384 12.3213 10.9384Z" fill="#1C1B1A"/>
<path d="M17.0108 10.9384C17.1343 10.9384 17.2541 10.8879 17.3421 10.8018C17.4282 10.7138 17.4787 10.5922 17.4787 10.4706C17.4787 10.347 17.4282 10.2273 17.3421 10.1393C17.168 9.96528 16.8555 9.96528 16.6796 10.1393C16.5935 10.2273 16.543 10.347 16.543 10.4706C16.543 10.5922 16.5935 10.7138 16.6796 10.8018C16.7675 10.8879 16.8873 10.9384 17.0108 10.9384Z" fill="#1C1B1A"/>
</svg>
