<svg width="55" height="75" viewBox="0 0 55 75" fill="none" xmlns="http://www.w3.org/2000/svg">
<path d="M16.4013 12.7529C15.7872 13.1787 15.092 13.4207 14.355 13.4207C13.6179 13.4207 12.9227 13.1787 12.3086 12.7529V13.6354L14.355 17.6407L16.4013 13.6354V12.7529Z" fill="#D8B4A4"/>
<path d="M16.0518 16.1935L18.2487 17.1942L18.356 14.7157L17.0388 14.2617L16.0518 16.1935Z" fill="#898785"/>
<path d="M14.7812 18.6798V40.0486H18.9009L19.2082 38.7793L19.0911 38.6757C18.9763 38.5739 18.925 38.4183 18.9569 38.2683C18.9724 38.1949 19.2524 36.938 20.3172 36.0244V33.8867C20.2268 33.8086 20.1683 33.6943 20.1683 33.5654C20.1683 32.6498 20.2193 31.7975 20.3172 31.0047V23.8516C20.3172 23.8422 20.338 23.7198 20.3409 23.7114L22.8044 16.639C22.2631 16.1546 21.5131 15.7141 20.4722 15.444C20.4616 15.4412 19.1966 15.0059 19.1966 15.0059L19.0728 17.8629C19.0667 18.0045 18.9906 18.1337 18.8697 18.2079C18.8017 18.2497 18.7243 18.2708 18.6468 18.2708C18.5866 18.2708 18.5264 18.258 18.4702 18.2325L15.6632 16.9538L14.7812 18.6798Z" fill="#898785"/>
<path d="M21.7212 26.5967C22.0379 26.088 22.401 25.641 22.8138 25.2621C23.6298 24.5128 24.4813 24.1674 25.1426 24.0104L24.1984 19.1949C24.1955 19.1803 24.1934 19.1654 24.192 19.1504C24.1861 19.0887 24.0926 18.2531 23.4555 17.3633L21.1846 23.8828L21.7212 26.5967Z" fill="#898785"/>
<path d="M19.9308 39.4199L19.6546 40.5611C19.6546 40.5613 19.6546 40.5616 19.6544 40.5618L16.7347 52.6243C16.7051 52.7571 16.7303 52.9012 16.8072 53.0223C16.8841 53.1437 17.0037 53.2276 17.1438 53.2588C17.284 53.2902 17.428 53.2651 17.5495 53.1882C17.6708 53.1113 17.7549 52.9918 17.7862 52.8516C17.7898 52.8357 17.7943 52.82 17.7995 52.8047C17.7995 52.8047 21.6704 41.6679 21.6764 41.6549L21.5809 40.8822L19.9308 39.4199Z" fill="#E5CBBD"/>
<path d="M4.51844 19.1504C4.51707 19.1652 4.51485 19.1802 4.51213 19.1949L0.966797 37.2713H4.8774L7.52608 23.8826L5.2582 17.3721C4.60813 18.2834 4.5198 19.135 4.51844 19.1504Z" fill="#898785"/>
<path d="M8.39317 23.8518V40.0488H13.9291V18.6801L13.0471 16.9538L10.2402 18.2325C10.1839 18.258 10.1235 18.2708 10.0635 18.2708C9.98593 18.2708 9.90885 18.2497 9.84064 18.2079C9.71973 18.1337 9.64367 18.0045 9.63753 17.8629L9.51373 15.0059C9.51373 15.0059 8.24873 15.4412 8.23816 15.444C7.19895 15.7134 6.44998 16.1573 5.9082 16.6455L8.36964 23.7114C8.37237 23.7198 8.39317 23.8424 8.39317 23.8518Z" fill="#898785"/>
<path d="M1.01334 39.5911H3.71079L4.50905 38.124H0.90625L1.01334 39.5911Z" fill="#898785"/>
<path d="M14.3548 12.568C16.3551 12.568 17.9826 10.2477 17.9826 7.39562V6.16507C17.1609 6.02574 16.5988 5.47169 16.3539 4.57129C15.8658 4.8953 15.1634 5.09328 14.3546 5.09328C13.5459 5.09328 12.8435 4.8953 12.3553 4.57129C12.1104 5.47169 11.5485 6.02574 10.7266 6.16507V7.39562C10.7267 10.2477 12.3543 12.568 14.3548 12.568ZM15.8882 7.53733C16.0485 7.37873 16.3333 7.37873 16.4919 7.53562C16.572 7.61577 16.6163 7.72662 16.6163 7.83746C16.6163 7.95001 16.5718 8.05915 16.4919 8.1393C16.4117 8.21945 16.3026 8.26379 16.19 8.26379C16.0792 8.26379 15.9682 8.21945 15.888 8.1393C15.8096 8.06085 15.7637 7.95001 15.7637 7.83746C15.7639 7.72662 15.8097 7.61577 15.8882 7.53733ZM13.2501 9.90651C13.4504 9.90651 13.6186 10.0448 13.6643 10.231C13.7472 10.282 13.9835 10.3707 14.3548 10.3707C14.7258 10.3707 14.9622 10.282 15.0452 10.2309C15.091 10.0446 15.2591 9.90634 15.4595 9.90634C15.695 9.90634 15.8858 10.0972 15.8858 10.3327C15.8858 10.857 15.2564 11.2233 14.3548 11.2233C13.4533 11.2233 12.8237 10.8572 12.8237 10.3327C12.8237 10.0973 13.0146 9.90651 13.2501 9.90651ZM12.0922 7.83746C12.0922 7.72491 12.1382 7.61577 12.2165 7.53733C12.3753 7.37873 12.6616 7.37703 12.8202 7.53733C12.8986 7.61577 12.9447 7.72662 12.9447 7.83746C12.9447 7.95001 12.8984 8.05915 12.8202 8.1393C12.74 8.21945 12.631 8.26379 12.5183 8.26379C12.4058 8.26379 12.2966 8.21945 12.2163 8.1393C12.1382 8.06085 12.0922 7.95001 12.0922 7.83746Z" fill="#D8B4A4"/>
<path d="M0.86233 41.4212C0.822596 41.7276 0.904621 42.0319 1.0934 42.2774C1.28218 42.5228 1.55537 42.68 1.86249 42.7199C2.16945 42.7598 2.45406 42.6485 2.71941 42.4889C3.04273 42.2943 3.16551 41.6961 3.16807 41.6845L3.43615 40.4434H0.991422L0.86233 41.4212Z" fill="#D8B4A4"/>
<path d="M7.55911 72.5549C7.12187 73.0182 6.98971 73.7116 6.95117 74.1466H12.4801V72.0439H8.89897C8.32207 72.0439 7.8838 72.2111 7.55911 72.5549Z" fill="#736357"/>
<path d="M12.6577 16.1935L11.6707 14.2617L10.3535 14.7157L10.4608 17.1942L12.6577 16.1935Z" fill="#898785"/>
<path d="M40.4974 28.913L40.4992 28.9131C40.5128 28.6899 40.6963 28.5126 40.9229 28.5126H43.2565L43.9909 27.0595L43.9921 27.06C44.0317 26.9815 44.0948 26.9138 44.1792 26.8712C44.3898 26.7651 44.6458 26.8492 44.752 27.0595L45.4865 28.5126H47.8202C48.0468 28.5126 48.2303 28.6899 48.2438 28.9131L48.2457 28.913C48.2595 29.1406 48.2665 29.3807 48.2665 29.6265C48.2665 31.0233 47.9783 32.2219 47.4677 33.1385H49.6433C49.6241 32.0368 49.5274 31.0385 49.3565 30.1432C49.3463 30.1116 49.3393 30.0794 49.3366 30.0462C49.1234 28.9739 48.8001 28.054 48.3681 27.29C48.3623 27.2801 48.3563 27.2704 48.3512 27.26C48.0462 26.7269 47.6894 26.2679 47.2776 25.8896C46.5076 25.1826 45.7063 24.9062 45.1466 24.7996C45.1425 24.7989 45.1383 24.7993 45.1342 24.7982C45.1316 24.7977 45.1296 24.7965 45.1272 24.7959C44.6973 24.7162 44.4144 24.737 44.4077 24.7375C44.3983 24.7382 44.3898 24.737 44.3806 24.7372C44.3659 24.7374 44.3516 24.7391 44.3368 24.7377C44.2715 24.7328 42.8141 24.6391 41.4485 25.9048C39.9492 27.2945 39.1596 29.7269 39.0996 33.1384H41.2752C40.765 32.2218 40.4766 31.0233 40.4766 29.6263C40.4766 29.3807 40.4836 29.1406 40.4974 28.913Z" fill="#534741"/>
<path d="M21.9457 28.0083C21.9384 28.0317 21.929 28.054 21.9179 28.0756C21.3617 29.4034 21.0615 31.094 21.0254 33.1396H23.2008C22.6906 32.223 22.4023 31.0245 22.4023 29.6275C22.4023 29.3817 22.4092 29.1416 22.4231 28.914L22.4248 28.9141C22.4384 28.6909 22.6219 28.5136 22.8485 28.5136H25.1822L25.9167 27.0605C26.0228 26.8502 26.2786 26.766 26.4895 26.8722C26.5741 26.9148 26.637 26.9825 26.6766 27.061L26.6778 27.0605L27.4123 28.5136H29.7458C29.9724 28.5136 30.1559 28.6909 30.1696 28.9141L30.1713 28.914C30.1851 29.1416 30.1921 29.3817 30.1921 29.6275C30.1921 31.0243 29.9039 32.223 29.3935 33.1396H31.569C31.5086 29.7146 30.7136 27.2774 29.2034 25.8906C27.8268 24.6267 27.0064 24.7389 26.2626 24.7389C25.5187 24.7389 24.2281 25.1147 23.3743 25.906C22.789 26.4484 22.3134 27.1519 21.9457 28.0083Z" fill="#CC7050"/>
<path d="M26.297 35.0863C25.8352 35.0863 25.4039 34.9988 25.0083 34.835C24.9774 34.9664 24.8853 35.0752 24.7588 35.129C24.7956 35.9456 25.0281 36.6656 26.297 36.6656C27.5678 36.6656 27.799 35.9434 27.8352 35.129C27.7086 35.0754 27.6164 34.9664 27.5855 34.835C27.1902 34.9988 26.7588 35.0863 26.297 35.0863Z" fill="#E5CBBD"/>
<path d="M27.1488 29.3657C26.988 29.3657 26.8408 29.2752 26.7682 29.1316L26.2962 28.1973L25.824 29.1316C25.7513 29.2752 25.6043 29.3657 25.4435 29.3657H23.2578C23.2558 29.452 23.2539 29.5387 23.2539 29.627C23.2539 30.9919 23.5875 32.364 24.3006 33.2511C24.3289 33.2767 25.0366 34.2334 26.2962 34.2334C27.5557 34.2334 28.2634 33.2769 28.2917 33.2511C29.0049 32.364 29.3384 30.9919 29.3384 29.627C29.3384 29.5385 29.3366 29.452 29.3347 29.3657H27.1488ZM24.3259 30.7177C24.2474 30.6393 24.2014 30.5301 24.2014 30.4176C24.2014 30.305 24.2476 30.1959 24.3259 30.1157C24.486 29.9571 24.7708 29.9571 24.9295 30.1157C25.008 30.1959 25.0539 30.305 25.0539 30.4176C25.0539 30.5301 25.0078 30.6393 24.9295 30.7177C24.8511 30.7979 24.7403 30.8439 24.6275 30.8439C24.515 30.8439 24.4058 30.7979 24.3259 30.7177ZM27.1614 33.128C26.9241 33.2206 26.6175 33.2719 26.2979 33.2726C26.2953 33.2726 26.2929 33.2726 26.2904 33.2726C25.4393 33.2726 24.8671 32.9467 24.8659 32.4604C24.8654 32.2249 25.0557 32.0337 25.2912 32.033C25.2916 32.033 25.2919 32.033 25.2923 32.033C25.4776 32.033 25.6355 32.1514 25.694 32.3168C25.7807 32.3596 25.9879 32.4199 26.2907 32.4199C26.2926 32.4199 26.2941 32.4199 26.2958 32.4199C26.6018 32.4193 26.8105 32.3575 26.8973 32.3142C26.9554 32.1483 27.1132 32.0293 27.2987 32.0287C27.2991 32.0287 27.2994 32.0287 27.2997 32.0287C27.5347 32.0287 27.7256 32.2189 27.7261 32.454C27.7268 32.6234 27.6539 32.936 27.1614 33.128ZM28.2667 30.7177C28.1865 30.7979 28.0775 30.8439 27.9648 30.8439C27.8523 30.8439 27.7431 30.7979 27.663 30.7177C27.5828 30.6393 27.5385 30.5301 27.5385 30.4176C27.5385 30.305 27.5828 30.1942 27.663 30.1157C27.8217 29.9571 28.1065 29.9571 28.2667 30.1157C28.3451 30.1942 28.3911 30.305 28.3911 30.4176C28.3911 30.5301 28.3451 30.6393 28.2667 30.7177Z" fill="#E5CBBD"/>
<path d="M23.1836 33.9919L23.3289 34.726L24.167 34.4351V34.3283C24.0427 34.226 23.9251 34.1128 23.8125 33.9917H23.1836V33.9919Z" fill="#898785"/>
<path d="M46.5 34.3282V34.4349L47.7038 34.8527C47.7684 34.557 47.8353 34.27 47.9035 33.9917H46.8547C46.7418 34.1126 46.6241 34.2258 46.5 34.3282Z" fill="#F9E4DC"/>
<path d="M44.3722 35.0863C43.9102 35.0863 43.4791 34.9987 43.0835 34.835C43.0528 34.9663 42.9605 35.0752 42.834 35.129C42.871 35.9458 43.1034 36.6656 44.3722 36.6656C45.6431 36.6656 45.8744 35.9434 45.9104 35.129C45.7838 35.0754 45.6916 34.9664 45.6609 34.835C45.2654 34.9988 44.8341 35.0863 44.3722 35.0863Z" fill="#E5C2BD"/>
<path d="M44.3718 34.2334C45.7825 34.2334 46.3392 33.2769 46.3674 33.2511C47.0805 32.364 47.4141 30.9919 47.4141 29.627C47.4141 29.5385 47.4122 29.452 47.4105 29.3657H45.2247C45.0638 29.3657 44.9167 29.2752 44.844 29.1316L44.372 28.1973L43.8998 29.1316C43.8272 29.2752 43.6802 29.3657 43.5193 29.3657H41.3338C41.3318 29.452 41.3301 29.5387 41.3301 29.627C41.3301 30.9917 41.6635 32.3637 42.3765 33.2508C42.4046 33.2767 42.9614 34.2334 44.3718 34.2334ZM45.7385 30.1157C45.8971 29.9571 46.1835 29.9571 46.3421 30.1157C46.4206 30.1942 46.4666 30.305 46.4666 30.4176C46.4666 30.5284 46.4204 30.6393 46.3421 30.7194C46.262 30.7979 46.1528 30.8439 46.0403 30.8439C45.9277 30.8439 45.8184 30.7979 45.7383 30.7194C45.6598 30.6393 45.614 30.5301 45.614 30.4176C45.6141 30.305 45.66 30.1942 45.7385 30.1157ZM43.3681 32.033C43.5536 32.033 43.7115 32.1514 43.77 32.3168C43.8567 32.3594 44.0637 32.4199 44.3664 32.4199C44.3682 32.4199 44.37 32.4199 44.3715 32.4199C44.6776 32.4193 44.8863 32.3574 44.9731 32.3142C45.0313 32.1481 45.1892 32.0291 45.3749 32.0287C45.3749 32.0287 45.3754 32.0287 45.3756 32.0287C45.6107 32.0287 45.8016 32.2192 45.8019 32.4544C45.8028 32.9419 45.2286 33.2707 44.3732 33.2726C44.371 33.2726 44.3688 33.2726 44.3665 33.2726C44.0495 33.2726 43.7453 33.2226 43.5093 33.1317C43.0159 32.9418 42.9419 32.6294 42.9416 32.46C42.9412 32.2245 43.1317 32.0333 43.3672 32.033C43.3674 32.033 43.3679 32.033 43.3681 32.033ZM42.4012 30.1157C42.5615 29.9571 42.8463 29.9571 43.0049 30.1157C43.0833 30.1942 43.1293 30.305 43.1293 30.4176C43.1293 30.5301 43.0831 30.6393 43.0049 30.7194C42.9264 30.7979 42.8157 30.8439 42.703 30.8439C42.5905 30.8439 42.4813 30.7979 42.401 30.7194C42.3226 30.6393 42.2767 30.5284 42.2767 30.4176C42.2767 30.305 42.3227 30.1959 42.4012 30.1157Z" fill="#E5C2BD"/>
<path d="M11.6426 3.42107C11.6426 3.18557 11.8334 2.99474 12.0689 2.99474H12.0691H12.0692C12.3047 2.99474 12.4956 3.18557 12.4956 3.42107C12.4956 3.75531 13.2198 4.24081 14.3549 4.24081C15.4899 4.24081 16.2141 3.75531 16.2141 3.42107C16.2141 3.18557 16.405 2.99474 16.6405 2.99474H16.6406H16.6408C16.8763 2.99474 17.0671 3.18557 17.0671 3.42107C17.0671 4.47682 17.3753 5.10182 17.9827 5.28872V3.11002C17.9836 3.06858 17.9912 2.39311 17.4062 1.79523C16.7941 1.16973 15.7674 0.852539 14.3549 0.852539C12.9423 0.852539 11.9156 1.16973 11.3034 1.79523C10.7183 2.39311 10.726 3.06841 10.7266 3.09689L10.7268 5.28872C11.3344 5.10182 11.6426 4.47682 11.6426 3.42107Z" fill="#B79870"/>
<path d="M47.446 73.0127H45.7269L45.7266 74.1469H48.9929C48.769 73.6631 48.3079 73.0147 47.446 73.0127Z" fill="#71D89A"/>
<path d="M47.9273 45.3604H40.8358C40.2183 46.4587 37.3571 51.8673 37.2275 57.9791H51.5357C51.4063 51.8673 48.5451 46.4587 47.9273 45.3604Z" fill="#BEF4C3"/>
<path d="M47.0893 72.16C47.3688 70.5571 48.5023 63.7664 48.564 58.7832H45.7301L45.7266 72.16H47.0893Z" fill="#E5C2BD"/>
<path d="M47.7866 44.459L47.881 43.6934H40.8613L40.9558 44.459H47.7866Z" fill="#71D89A"/>
<path d="M43.0171 72.16L43.0136 58.7832H40.1797C40.2416 63.7676 41.3756 70.5573 41.6549 72.16H43.0171Z" fill="#E5C2BD"/>
<path d="M41.2969 73.0127C40.435 73.0146 39.9741 73.6626 39.75 74.1469H43.0158L43.0155 73.0127H41.2969Z" fill="#71D89A"/>
<path d="M48.6055 44.7936C48.9934 45.462 50.6754 48.5067 51.6593 52.5778H51.8884L48.7574 43.5625L48.6055 44.7936Z" fill="#BADFE8"/>
<path d="M20.3188 58.783H18.713C18.4775 58.783 18.2867 58.5922 18.2867 58.3567C18.2867 54.5278 19.321 50.9923 20.3188 48.4716V48.1525L18.6133 53.0631C18.5278 53.4144 18.3135 53.7135 18.0074 53.9077C17.7819 54.0508 17.526 54.1246 17.2651 54.1246C17.1631 54.1246 17.0608 54.1134 16.9588 54.0907C16.5966 54.0097 16.2872 53.7926 16.0884 53.479C15.8894 53.1654 15.8244 52.7931 15.9056 52.4306L18.6962 40.9014H8.39355V71.1915H12.5016L13.93 43.69C13.9421 43.4549 14.143 43.2734 14.378 43.2864C14.5981 43.2978 14.7683 43.4748 14.7794 43.6902L14.7823 43.69L16.2107 71.1915H20.3188V58.783Z" fill="#5576A5"/>
<path d="M40.4925 40.6664L40.7665 42.8895H47.9967L48.2709 40.6664C48.2837 40.5634 48.3335 40.4684 48.4113 40.3995L50.8208 38.264C50.6423 37.7289 50.0567 36.4289 48.5056 36.0761C48.4902 36.0727 46.7535 35.4707 46.7535 35.4707C46.664 36.3283 46.2557 37.5669 44.3816 37.5669C42.5059 37.5669 42.0987 36.3259 42.0095 35.4709C42.0095 35.4709 40.2727 36.0727 40.2575 36.0761C38.707 36.4287 38.1213 37.7278 37.9424 38.264L40.3521 40.3995C40.4299 40.4684 40.4797 40.5633 40.4925 40.6664Z" fill="#BEF4C3"/>
<path d="M19.8136 72.0439H16.2324V74.1466H20.7573C20.8848 73.7757 21.1081 73.34 21.4433 72.9703C21.1185 72.3489 20.5837 72.0439 19.8136 72.0439Z" fill="#736357"/>
<path d="M27.6527 73.0127L27.6523 74.1469H30.9185C30.6944 73.6629 30.2335 73.0146 29.3716 73.0127H27.6527Z" fill="#9E71D8"/>
<path d="M23.2235 73.0127C22.3616 73.0146 21.9008 73.6626 21.6768 74.1469H24.9428L24.9424 73.0127H23.2235Z" fill="#9E71D8"/>
<path d="M22.7508 45.3115C22.1332 46.4099 19.2722 51.8185 19.1426 57.9303H33.4508C33.3212 51.8185 30.4602 46.4099 29.8425 45.3115H22.7508Z" fill="#DBBEF4"/>
<path d="M52.8831 52.8514C52.9479 53.1408 53.2365 53.3234 53.5255 53.2588C53.6657 53.2274 53.7852 53.1435 53.8623 53.0223C53.9392 52.901 53.9645 52.7571 53.9331 52.6171L50.7387 39.4199L49.0887 40.8822L48.9932 41.6552C48.9991 41.668 52.8698 52.8047 52.8698 52.8047C52.8751 52.8199 52.8796 52.8356 52.8831 52.8514Z" fill="#E5C2BD"/>
<path d="M29.8072 43.6934H22.7871L22.8818 44.459H29.7127L29.8072 43.6934Z" fill="#9E71D8"/>
<path d="M24.9418 72.16L24.9384 58.7832H22.1045C22.1664 63.7666 23.3001 70.5571 23.5794 72.16H24.9418Z" fill="#E5CBBD"/>
<path d="M27.6523 72.16H29.0147C29.2942 70.5571 30.4277 63.7664 30.4896 58.7832H27.6558L27.6523 72.16Z" fill="#E5CBBD"/>
<path d="M30.4208 36.0273C30.4054 36.0238 28.6686 35.4219 28.6686 35.4219C28.579 36.2796 28.1706 37.518 26.2967 37.518C24.421 37.518 24.0136 36.2773 23.9244 35.422C23.9244 35.422 22.1877 36.0238 22.1725 36.0273C21.6923 36.1366 21.3051 36.3368 20.9933 36.5767C20.9885 36.5803 20.9839 36.5844 20.979 36.5876C20.2941 37.1216 19.98 37.8475 19.8574 38.215L22.267 40.3505C22.3448 40.4194 22.3946 40.5143 22.4074 40.6174L22.6816 42.8405H29.9117L30.1859 40.6174C30.1987 40.5144 30.2485 40.4194 30.3263 40.3505L32.7359 38.2148C32.5573 37.68 31.9719 36.3803 30.4208 36.0273Z" fill="#DBBEF4"/>
<path d="M38.0064 39.4199L35.7734 48.6446L36.4087 51.2684C36.4087 51.2684 39.7458 41.668 39.7519 41.6549L39.6566 40.8824L38.0064 39.4199Z" fill="#E5C2BD"/>
<path d="M32.6625 39.4199L31.0125 40.8824L30.917 41.6551C30.923 41.668 34.7938 52.8047 34.7938 52.8047C34.7991 52.82 34.8037 52.8357 34.8071 52.8516C34.8385 52.9916 34.9226 53.1111 35.0438 53.1882C35.1651 53.2653 35.3093 53.2902 35.4494 53.2588C35.5895 53.2274 35.7091 53.1435 35.7861 53.0223C35.8631 52.901 35.8883 52.7571 35.8569 52.6171L32.6625 39.4199Z" fill="#E5CBBD"/>
<path d="M27.301 32.0288C27.3007 32.0288 27.3003 32.0288 27.3 32.0288C27.1143 32.0291 26.9565 32.1484 26.8985 32.3143C26.8116 32.3576 26.603 32.4193 26.2971 32.42C26.2954 32.42 26.2937 32.42 26.292 32.42C25.9891 32.42 25.7819 32.3595 25.6953 32.3168C25.6366 32.1514 25.4787 32.0331 25.2935 32.0331C25.2932 32.0331 25.2928 32.0331 25.2925 32.0331C25.057 32.0336 24.8667 32.2249 24.8672 32.4604C24.8684 32.9468 25.4403 33.2727 26.2916 33.2727C26.2942 33.2727 26.2966 33.2727 26.2991 33.2727C26.6187 33.272 26.9255 33.2206 27.1627 33.1281C27.6552 32.9359 27.7278 32.6233 27.7275 32.4541C27.7268 32.2191 27.536 32.0288 27.301 32.0288Z" fill="#1C1B1A"/>
<path d="M25.0546 30.4169C25.0546 30.3043 25.0086 30.1952 24.9303 30.115C24.7716 29.9564 24.4868 29.9564 24.3266 30.115C24.2482 30.1952 24.2021 30.3043 24.2021 30.4169C24.2021 30.5294 24.2484 30.6386 24.3266 30.717C24.4068 30.7972 24.5158 30.8432 24.6285 30.8432C24.741 30.8432 24.852 30.7972 24.9305 30.717C25.0088 30.6386 25.0546 30.5294 25.0546 30.4169Z" fill="#1C1B1A"/>
<path d="M27.6636 30.115C27.5834 30.1935 27.5391 30.3043 27.5391 30.4169C27.5391 30.5294 27.5834 30.6386 27.6636 30.717C27.7439 30.7972 27.8528 30.8432 27.9654 30.8432C28.0779 30.8432 28.1871 30.7972 28.2672 30.717C28.3457 30.6386 28.3917 30.5294 28.3917 30.4169C28.3917 30.3043 28.3457 30.1935 28.2672 30.115C28.1069 29.9564 27.8223 29.9564 27.6636 30.115Z" fill="#1C1B1A"/>
<path d="M42.9414 32.4601C42.9417 32.6294 43.0158 32.9418 43.5091 33.1318C43.7451 33.2227 44.0493 33.2727 44.3664 33.2727C44.3686 33.2727 44.3708 33.2727 44.373 33.2727C45.2284 33.2708 45.8026 32.942 45.8017 32.4545C45.8014 32.2193 45.6106 32.0288 45.3754 32.0288C45.3752 32.0288 45.3747 32.0288 45.3747 32.0288C45.1888 32.029 45.0309 32.1482 44.9729 32.3143C44.886 32.3574 44.6774 32.4193 44.3713 32.42C44.3696 32.42 44.3679 32.42 44.3662 32.42C44.0635 32.42 43.8565 32.3595 43.7698 32.3168C43.7112 32.1514 43.5533 32.0331 43.3679 32.0331C43.3677 32.0331 43.3672 32.0331 43.3672 32.0331C43.1315 32.0334 42.9411 32.2246 42.9414 32.4601Z" fill="#1C1B1A"/>
<path d="M42.7035 30.8432C42.8161 30.8432 42.9269 30.7972 43.0053 30.7187C43.0838 30.6386 43.1298 30.5294 43.1298 30.4169C43.1298 30.3043 43.0836 30.1935 43.0053 30.115C42.8467 29.9564 42.562 29.9564 42.4017 30.115C42.3232 30.1952 42.2773 30.3043 42.2773 30.4169C42.2773 30.5277 42.3234 30.6386 42.4017 30.7187C42.482 30.7972 42.591 30.8432 42.7035 30.8432Z" fill="#1C1B1A"/>
<path d="M46.0394 30.8432C46.1518 30.8432 46.2611 30.7972 46.3413 30.7187C46.4197 30.6386 46.4658 30.5277 46.4658 30.4169C46.4658 30.3043 46.4196 30.1935 46.3413 30.115C46.1827 29.9564 45.8962 29.9564 45.7376 30.115C45.6592 30.1935 45.6133 30.3043 45.6133 30.4169C45.6133 30.5294 45.6593 30.6386 45.7376 30.7187C45.8176 30.7972 45.9267 30.8432 46.0394 30.8432Z" fill="#1C1B1A"/>
<path fill-rule="evenodd" clip-rule="evenodd" d="M44.8961 23.9034C44.6337 23.8772 44.4471 23.8819 44.3711 23.8859C44.0977 23.8715 42.4299 23.8468 40.8888 25.2617C39.1334 26.8734 38.2434 29.667 38.2434 33.565C38.2434 33.8005 38.4342 33.9913 38.6697 33.9913H41.8881C42.0007 34.1124 42.1185 34.2255 42.2425 34.3278V34.4345L40.0346 35.2009C37.5874 35.772 37.0534 38.1659 37.0321 38.2679C37.0002 38.418 37.0516 38.5737 37.1663 38.6753L37.2833 38.779L35.3341 46.8316L33.385 38.779L33.502 38.6753C33.6167 38.5735 33.6681 38.418 33.6362 38.2679C33.6147 38.1659 33.0808 35.772 30.6336 35.2009L28.4258 34.4345V34.3278C28.5501 34.2255 28.6678 34.1122 28.7803 33.9912H31.9986C32.2341 33.9912 32.4249 33.8003 32.4249 33.5648C32.4249 29.6669 31.5349 26.8732 29.7795 25.2615C28.2368 23.8451 26.567 23.8712 26.2962 23.8857C26.2427 23.883 26.1362 23.8797 25.9875 23.8871L25.0387 19.0495C25.0015 18.7128 24.5575 15.6305 20.7028 14.6223L17.2536 13.4337V11.9837C18.2204 10.8778 18.8351 9.23167 18.8351 7.39523L18.835 5.77655C18.835 5.77621 18.8351 5.7757 18.8351 5.77536C18.8351 5.77502 18.835 5.7745 18.835 5.77416L18.8348 3.12617C18.8365 3.08387 18.8657 2.08235 18.0337 1.21742C17.2571 0.409785 16.0193 0 14.3553 0C12.6913 0 11.4534 0.409785 10.6763 1.21793C9.84427 2.08286 9.87343 3.08439 9.87479 3.11014V7.39591C9.87479 9.23235 10.4896 10.8783 11.4563 11.9844V13.4344L8.00714 14.623C4.15247 15.6312 3.70841 18.7135 3.67123 19.0501C3.67123 19.0501 0.0227315 37.7248 0.0230726 37.7289L0.18951 40.0049L0.017104 41.311C-0.0521314 41.8439 0.0902615 42.3721 0.418192 42.7979C0.746122 43.2239 1.22003 43.4965 1.75293 43.5658C1.84127 43.5772 1.92909 43.583 2.01674 43.583C2.45791 43.583 2.88457 43.4386 3.23996 43.1649C3.661 42.8408 3.93214 42.3739 4.00547 41.8485L4.36853 40.1678L5.60164 37.9018C5.60573 37.8941 7.53989 28.2037 7.53989 28.2037V40.4752C7.53989 40.4761 7.54006 40.4768 7.54006 40.4776C7.54006 40.4785 7.53989 40.4792 7.53989 40.48V71.5079C7.31717 71.6281 7.11595 71.7817 6.93809 71.9702C6.00187 72.962 6.081 74.5317 6.08475 74.5981C6.09771 74.8237 6.28444 74.9998 6.51039 74.9998H12.9053C13.1408 74.9998 13.3316 74.809 13.3316 74.5735V71.6307L14.3551 51.9262L15.3787 71.6307V74.5735C15.3787 74.809 15.5695 74.9998 15.805 74.9998H25.3685C25.4816 74.9998 25.59 74.9548 25.67 74.875C25.7502 74.795 25.7948 74.6866 25.7948 74.5735L25.7907 58.7836H26.8034L26.7993 74.5735C26.7993 74.6866 26.8441 74.795 26.9241 74.875C27.0041 74.955 27.1125 74.9998 27.2256 74.9998H31.5173C31.6463 74.9998 31.7682 74.9415 31.849 74.8412C31.93 74.741 31.9612 74.6095 31.9339 74.4835C31.7796 73.7683 31.1597 72.4835 29.8714 72.2117C30.1802 70.4274 31.2822 63.7358 31.3425 58.7834H33.8821C34.1176 58.7834 34.3084 58.5926 34.3084 58.3571C34.3084 51.5993 31.0864 45.7525 30.5305 44.7939L30.6824 43.5629L33.982 53.0635C34.0674 53.4148 34.2818 53.7139 34.5879 53.9081C34.8133 54.0512 35.0693 54.125 35.3302 54.125C35.432 54.125 35.5345 54.1138 35.6363 54.0911C35.9987 54.0101 36.3079 53.793 36.5069 53.4794C36.5836 53.3585 36.6399 53.2287 36.6759 53.0938C36.6772 53.0906 36.6789 53.0877 36.68 53.0844L39.9869 43.5629L40.1388 44.7941C39.5827 45.7525 36.3609 51.5995 36.3609 58.3572C36.3609 58.5927 36.5517 58.7836 36.7872 58.7836H39.3266C39.3871 63.7359 40.4893 70.4276 40.7981 72.2118C39.5098 72.4837 38.8899 73.7684 38.7354 74.4836C38.7081 74.6097 38.7393 74.7411 38.8203 74.8414C38.9013 74.9417 39.0231 75 39.152 75H43.4436C43.5566 75 43.6651 74.955 43.745 74.8752C43.8252 74.7952 43.8699 74.6867 43.8699 74.5737L43.8658 58.7837H44.8784L44.8743 74.5737C44.8743 74.6867 44.9192 74.7952 44.9991 74.8752C45.0791 74.9552 45.1874 75 45.3006 75H49.8151C49.8151 75 49.9195 74.7141 49.9319 74.4836C49.9456 74.2282 49.8151 73.8951 49.8151 73.8951C49.5196 73.2122 48.927 72.4182 47.9461 72.2113C48.2551 70.4271 49.3565 63.7354 49.4171 58.7831H49.8009H50.0172H51.9568C52.1923 58.7831 52.3831 58.5922 52.3831 58.3567C52.3831 56.6332 52.173 54.9697 51.8514 53.4306H52.2052C52.4518 53.8556 52.9105 54.1245 53.4071 54.1243C53.5074 54.1243 53.609 54.1134 53.7107 54.0907C53.8694 54.0554 54.0168 53.9923 54.1503 53.9079C54.1503 53.9079 54.4935 53.6621 54.6215 53.376C54.7332 53.1262 54.7881 52.5778 54.7881 52.5778C54.7823 52.5263 54.7743 52.4748 54.7629 52.4231L51.4602 38.7793L51.5775 38.6755C51.6923 38.5737 51.7436 38.4181 51.7117 38.2679C51.6902 38.1659 51.1561 35.772 48.709 35.2011L48.5167 35.1342L47.7044 34.8527L46.5006 34.4349V34.3281C46.6248 34.2258 46.7425 34.1126 46.8552 33.9915L47.9041 33.9917L48.7834 33.9915H50.0741C50.3096 33.9915 50.5004 33.8007 50.5004 33.5652C50.5004 32.2836 50.4022 31.1242 50.2107 30.0841L49.6601 28.0511C49.5221 27.6855 49.3656 27.3442 49.1937 27.0231C49.1937 27.0231 48.2779 25.6125 47.4138 24.9827C46.5436 24.3485 44.8961 23.9034 44.8961 23.9034ZM41.4489 25.9055C39.9496 27.2951 39.1602 29.7276 39.1 33.139V33.1392H41.2756C40.7652 32.2226 40.477 31.0239 40.477 29.6271C40.477 29.3814 40.484 29.1413 40.4978 28.9136L40.4995 28.9138C40.5132 28.6906 40.6966 28.5132 40.9233 28.5132H43.2568L43.9913 27.0601L43.9925 27.0606C44.0322 26.9822 44.0951 26.9145 44.1796 26.8719C44.3902 26.7658 44.6461 26.8499 44.7524 27.0601L45.4868 28.5132H47.8206C48.0472 28.5132 48.2307 28.6906 48.2442 28.9138L48.246 28.9136C48.2598 29.1413 48.2668 29.3814 48.2668 29.6271C48.2668 31.0241 47.9785 32.2226 47.4681 33.1392H49.6437C49.6243 32.0374 49.5277 31.0393 49.3569 30.1438C49.3466 30.1123 49.3398 30.0799 49.3369 30.0468C49.1237 28.9745 48.8004 28.0547 48.3685 27.2907L48.3673 27.2887C48.3617 27.2795 48.3562 27.2704 48.3516 27.2607C48.0465 26.7274 47.6898 26.2684 47.2779 25.8903C46.508 25.1833 45.7067 24.9068 45.147 24.8003C45.1429 24.7994 45.1386 24.7997 45.1345 24.7989C45.132 24.7984 45.1299 24.797 45.1275 24.7965C44.7089 24.7191 44.4299 24.7368 44.4092 24.7381L44.4081 24.7382C44.4034 24.7386 44.3989 24.7385 44.3945 24.7383L44.3921 24.7381C44.3884 24.738 44.3847 24.7378 44.381 24.7378C44.3663 24.738 44.352 24.7397 44.3371 24.7383C44.2718 24.7334 42.8145 24.6398 41.4489 25.9055ZM41.3336 29.3657C41.3317 29.452 41.3298 29.5384 41.3298 29.6269C41.3298 30.9917 41.6632 32.3636 42.3759 33.2507C42.3781 33.2527 42.3835 33.2605 42.3924 33.273C42.4967 33.4204 43.0714 34.2333 44.3716 34.2333C45.6722 34.2333 46.2471 33.4199 46.3508 33.2731C46.3595 33.2607 46.3649 33.2531 46.3671 33.2511C47.0803 32.364 47.4138 30.9919 47.4138 29.6269C47.4138 29.5386 47.4121 29.452 47.4103 29.3657H45.2244C45.0634 29.3657 44.9164 29.2751 44.8438 29.1316L44.3717 28.1972L43.8995 29.1316C43.8271 29.2751 43.6799 29.3657 43.5191 29.3657H41.3336ZM44.3717 36.6653C45.6429 36.6653 45.874 35.9431 45.9099 35.1286C45.7834 35.0751 45.6911 34.9663 45.6604 34.8346C45.2648 34.9985 44.8337 35.086 44.3717 35.086C43.9098 35.086 43.4785 34.9983 43.0831 34.8346C43.0524 34.9661 42.9601 35.0751 42.8336 35.1286C42.8706 35.9453 43.1032 36.6653 44.3717 36.6653ZM23.2548 29.6269C23.2548 30.9919 23.5883 32.364 24.3015 33.2511C24.3021 33.2516 24.3031 33.2527 24.3044 33.2541C24.3071 33.2572 24.3112 33.2621 24.3168 33.2688C24.4291 33.403 25.1235 34.2333 26.2971 34.2333C27.4698 34.2333 28.1642 33.4039 28.2771 33.269C28.2855 33.259 28.2906 33.2528 28.2926 33.2511C29.0058 32.364 29.3393 30.9919 29.3391 29.6269C29.3391 29.5386 29.3374 29.452 29.3354 29.3657H27.1497C26.9887 29.3657 26.8417 29.2751 26.7691 29.1316L26.2971 28.1972L25.8249 29.1316C25.7524 29.2751 25.6052 29.3657 25.4444 29.3657H23.2587C23.2567 29.452 23.2548 29.5384 23.2548 29.6269ZM26.2972 36.6654C27.568 36.6654 27.7991 35.9432 27.8354 35.1288C27.7089 35.0752 27.6166 34.9663 27.5859 34.8348C27.1903 34.9987 26.759 35.0861 26.2972 35.0861C25.8354 35.0861 25.404 34.9985 25.0085 34.8348C24.9777 34.9663 24.8856 35.0752 24.759 35.1288C24.7959 35.9453 25.0285 36.6654 26.2972 36.6654ZM24.1681 34.4351V34.3283C24.0438 34.226 23.9262 34.1128 23.8136 33.9918H23.1847L23.33 34.726L24.1681 34.4351ZM31.5688 33.139C31.5086 29.7141 30.7134 27.2767 29.2032 25.8901C27.9292 24.7204 27.1315 24.7293 26.4301 24.7371L26.4296 24.7371C26.3733 24.7377 26.3177 24.7383 26.2624 24.7383C25.5186 24.7383 24.228 25.1142 23.3742 25.9055C22.7889 26.4477 22.3133 27.1514 21.9456 28.0078C21.9383 28.0311 21.9289 28.0535 21.9178 28.0751C21.3617 29.4029 21.0614 31.0935 21.0253 33.139H23.2007C22.6905 32.2224 22.4021 31.0238 22.4021 29.6269C22.4021 29.3812 22.4091 29.1411 22.4229 28.9134L22.4246 28.9136C22.4383 28.6904 22.6218 28.513 22.8484 28.513H25.1821L25.9166 27.06C26.0227 26.8497 26.2785 26.7654 26.4894 26.8717C26.574 26.9143 26.6371 26.982 26.6765 27.0605L26.6777 27.06L27.4121 28.513H29.7457C29.9723 28.513 30.1558 28.6904 30.1695 28.9136L30.1712 28.9134C30.185 29.1411 30.192 29.3812 30.192 29.6269C30.192 31.0239 29.9036 32.2224 29.3934 33.139H31.5688ZM21.9601 35.2012L22.5166 35.008L22.3155 33.9918H21.1704V35.4744C21.4088 35.3626 21.6706 35.2688 21.9601 35.2012ZM24.1987 19.1949C24.1958 19.1802 24.1937 19.1652 24.1924 19.1504C24.1864 19.0887 24.0929 18.2531 23.4558 17.3632L21.1849 23.8828L21.7217 26.5966C22.0384 26.0878 22.4015 25.641 22.8143 25.262C23.6303 24.5127 24.4818 24.1674 25.1431 24.0104L24.1987 19.1949ZM18.8704 18.2079C18.8022 18.2497 18.725 18.2708 18.6476 18.2708C18.5874 18.2708 18.5272 18.258 18.4709 18.2323L15.664 16.9536L14.782 18.6799V40.0486H18.9017L19.209 38.7793L19.0918 38.6756C18.977 38.574 18.9259 38.4183 18.9576 38.2682C18.9731 38.1949 19.2533 36.9379 20.3179 36.0244V33.8866C20.2275 33.8085 20.169 33.6943 20.169 33.5653C20.169 32.6496 20.22 31.7973 20.3179 31.0047V23.8516C20.3179 23.8422 20.3387 23.7198 20.3416 23.7114L22.8051 16.639C22.2638 16.1545 21.5138 15.714 20.4729 15.4439C20.4623 15.4412 19.1974 15.0058 19.1974 15.0058L19.0735 17.8629C19.0674 18.0044 18.9914 18.1337 18.8704 18.2079ZM17.7864 52.8512C17.7898 52.8353 17.7944 52.8196 17.7997 52.8043C17.7997 52.8043 21.6706 41.6674 21.6765 41.6546L21.581 40.882L19.931 39.4195L19.6547 40.5607L19.6547 40.561L19.6546 40.5612L19.6545 40.5614L16.7349 52.6238C16.7052 52.7567 16.7305 52.9006 16.8074 53.0219C16.8843 53.1431 17.004 53.227 17.144 53.2584C17.2842 53.2898 17.4281 53.2649 17.5497 53.1878C17.6709 53.1107 17.755 52.9912 17.7864 52.8512ZM22.0638 44.7936L21.9119 43.5625L21.1706 45.6972V46.5107C21.5821 45.6461 21.9166 45.0472 22.0638 44.7936ZM12.3089 13.6354L14.3553 17.6407L16.4017 13.6354V12.753C15.7876 13.1788 15.0923 13.4208 14.3553 13.4208C13.6183 13.4208 12.923 13.1788 12.3089 12.753V13.6354ZM18.249 17.1944L18.3563 14.7159L17.0391 14.262L16.0521 16.1937L18.249 17.1944ZM14.3553 0.852653C12.9428 0.852653 11.916 1.16984 11.3038 1.79535C10.7189 2.39323 10.7266 3.0687 10.7274 3.09718L10.7276 5.289C11.335 5.10193 11.6432 4.47694 11.6432 3.42118C11.6432 3.18568 11.834 2.99486 12.0695 2.99486H12.0699C12.3054 2.99486 12.4962 3.18568 12.4962 3.42118C12.4962 3.75542 13.2204 4.24092 14.3555 4.24092C15.4905 4.24092 16.2148 3.75542 16.2148 3.42118C16.2148 3.18568 16.4056 2.99486 16.6411 2.99486H16.6414C16.8769 2.99486 17.0678 3.18568 17.0678 3.42118C17.0678 4.47677 17.3759 5.10193 17.9833 5.28883V3.11014C17.9842 3.06853 17.9919 2.39323 17.4068 1.79535C16.7946 1.16984 15.7678 0.852653 14.3553 0.852653ZM10.7273 6.16536V7.39591C10.7273 10.2479 12.3548 12.5681 14.3555 12.5683C16.3558 12.5683 17.9833 10.2479 17.9833 7.39591V6.16536C17.1614 6.02604 16.5995 5.47198 16.3546 4.57158C15.8664 4.89559 15.164 5.09358 14.3553 5.09358C13.5465 5.09358 12.8441 4.89559 12.356 4.57158C12.1111 5.47198 11.5491 6.02604 10.7273 6.16536ZM12.6585 16.1937L11.6715 14.262L10.3543 14.7159L10.4616 17.1944L12.6585 16.1937ZM1.86293 42.7203C2.16971 42.7602 2.45433 42.6488 2.71984 42.4892C3.03779 42.298 3.16168 41.7168 3.16827 41.6859L3.16851 41.6848L3.43675 40.4437H0.991856L0.862765 41.4215C0.822861 41.728 0.905056 42.0324 1.09383 42.2778C1.28278 42.5233 1.5558 42.6804 1.86293 42.7203ZM1.0142 39.591H3.71165L4.5099 38.124H0.906932L1.0142 39.591ZM0.966447 37.2713H4.87705L7.52573 23.8828L5.25785 17.3723C4.60761 18.2834 4.51945 19.1351 4.51809 19.1504C4.51672 19.1654 4.51468 19.1802 4.51178 19.1949L0.966447 37.2713ZM8.2377 15.4439C7.19848 15.7134 6.44951 16.1573 5.90774 16.6455L8.36901 23.7118C8.37191 23.7199 8.39271 23.8426 8.39271 23.8519V40.0489H13.9286V18.6801L13.0467 16.9538L10.2397 18.2324C10.1835 18.258 10.1233 18.2708 10.0631 18.2708C9.98547 18.2708 9.90822 18.2497 9.84017 18.2079C9.71927 18.1337 9.64321 18.0044 9.63707 17.8629L9.51327 15.0058C9.51327 15.0058 8.24827 15.4412 8.2377 15.4439ZM6.95019 74.1468H12.4791L12.479 72.044H8.89782C8.32109 72.044 7.88265 72.2112 7.55813 72.5551C7.12089 73.0184 6.9889 73.712 6.95019 74.1468ZM14.7786 43.6903L14.7815 43.6901L16.2098 71.1915H20.3179V58.7831H18.7122C18.4767 58.7831 18.2859 58.5922 18.2859 58.3567C18.2859 54.5278 19.3201 50.9922 20.3179 48.4716V48.1525L18.6124 53.0631C18.527 53.4142 18.3126 53.7135 18.0065 53.9078C17.7809 54.0508 17.525 54.1247 17.2642 54.1247C17.1622 54.1247 17.0599 54.1134 16.9579 54.0907C16.5957 54.0099 16.2866 53.7927 16.0876 53.4791C15.8885 53.1654 15.8236 52.793 15.9047 52.4306L18.6953 40.9014H8.39271V71.1915H12.5008L13.9292 43.6901C13.9413 43.4549 14.1421 43.2733 14.3771 43.2864C14.5973 43.298 14.7675 43.4749 14.7786 43.6903ZM16.2315 74.1468H20.7563C20.8839 73.7758 21.1071 73.3402 21.4426 72.9705C21.1175 72.3493 20.5829 72.0442 19.8126 72.0442H16.2315V74.1468ZM22.1199 72.434C22.3024 72.3358 22.5019 72.2579 22.7227 72.2113C22.4141 70.4271 21.3121 63.7354 21.2517 58.7832H21.1706V71.5057C21.5595 71.7142 21.8781 72.0254 22.1199 72.434ZM24.9381 58.7831H22.1042C22.1663 63.7665 23.2998 70.557 23.5791 72.1598H24.9415L24.9381 58.7831ZM23.2229 73.0126C22.3612 73.0145 21.9003 73.6625 21.6762 74.1468H24.9422L24.9418 73.0126H23.2229ZM27.6521 74.1468H30.9183C30.6942 73.6629 30.2332 73.0145 29.3714 73.0126H27.6524L27.6521 74.1468ZM27.6526 72.1598H29.015C29.2943 70.557 30.428 63.7665 30.4901 58.7831H27.6562L27.6526 72.1598ZM19.143 57.9304H33.4511C33.3217 51.8186 30.4606 46.41 29.8429 45.3117H22.7512C22.1335 46.41 19.2726 51.8186 19.143 57.9304ZM29.8071 43.6933H22.787L22.8815 44.459H29.7124L29.8071 43.6933ZM30.1865 40.6176C30.1993 40.5145 30.2491 40.4197 30.3269 40.3508L32.7365 38.2154C32.5579 37.6803 31.9725 36.3803 30.4213 36.0275C30.4062 36.0241 28.6691 35.4221 28.6691 35.4221C28.5796 36.2799 28.1712 37.5182 26.2972 37.5182C24.4216 37.5182 24.0142 36.2776 23.925 35.4223C23.925 35.4223 22.1885 36.0241 22.1731 36.0275C21.6929 36.1368 21.3056 36.337 20.9939 36.5769C20.9922 36.5781 20.9906 36.5794 20.989 36.5806L20.9873 36.5819L20.985 36.5838L20.983 36.5853C20.9819 36.5862 20.9807 36.587 20.9796 36.5878C20.2949 37.1216 19.9806 37.8477 19.858 38.2152L22.2676 40.3508C22.3453 40.4197 22.3951 40.5146 22.4079 40.6176L22.6821 42.8407H29.9123L30.1865 40.6176ZM35.4499 53.2586C35.5903 53.2273 35.7098 53.1434 35.7867 53.022C35.8636 52.9008 35.8887 52.7569 35.8575 52.6168L32.6631 39.4197L31.0131 40.8821L30.9176 41.6548C30.9235 41.6676 34.7944 52.8044 34.7944 52.8044C34.7997 52.8198 34.8043 52.8355 34.8077 52.8513C34.8391 52.9915 34.9232 53.111 35.0444 53.188C35.1657 53.2649 35.3099 53.2899 35.4499 53.2586ZM35.7729 48.644L36.4081 51.2678C36.4081 51.2678 39.7454 41.6674 39.7514 41.6543L39.6561 40.8818L38.0058 39.4193L35.7729 48.644ZM40.2476 36.0271C38.6972 36.3798 38.1114 37.6789 37.9325 38.215L40.3423 40.3506C40.42 40.4195 40.4698 40.5145 40.4826 40.6175L40.7567 42.8405H47.9868L48.261 40.6175C48.2738 40.5143 48.3236 40.4195 48.4014 40.3506L50.811 38.215C50.6324 37.6799 50.0468 36.38 48.4957 36.0271C48.4803 36.0237 46.7437 35.4217 46.7437 35.4217C46.6541 36.2793 46.2459 37.5179 44.3717 37.5179C42.4961 37.5179 42.0889 36.2771 41.9997 35.4219C41.9997 35.4219 40.263 36.0237 40.2476 36.0271ZM49.0878 40.882L48.9923 41.655C48.9982 41.6676 52.8689 52.8044 52.8689 52.8044C52.8742 52.8196 52.8788 52.8353 52.8822 52.8512C52.947 53.1405 53.2358 53.3232 53.5246 53.2586C53.665 53.2273 53.7843 53.1434 53.8614 53.022C53.9383 52.9008 53.9636 52.7569 53.9322 52.6168L50.7378 39.4197L49.0878 40.882ZM51.6589 52.578H51.8879L48.7569 43.5629L48.605 44.7938C48.9928 45.4621 50.6747 48.5067 51.6589 52.578ZM47.787 44.459L47.8816 43.6933H40.8617L40.9562 44.459H47.787ZM43.0128 58.7831H40.1789C40.2408 63.7675 41.3747 70.5572 41.6543 72.1598H43.0164L43.0128 58.7831ZM41.2978 73.0126C40.4361 73.0145 39.975 73.6625 39.7509 74.1468H43.0167L43.0164 73.0126H41.2978ZM40.8259 45.3117C40.2084 46.41 37.3473 51.8186 37.2177 57.9304H51.5258C51.3962 51.8186 48.5351 46.41 47.9174 45.3117H40.8259ZM47.0897 72.1598C47.369 70.557 48.5027 63.7665 48.5644 58.7831H45.7307L45.7271 72.1598H47.0897ZM45.727 73.0126L45.7266 74.1468H48.993C48.769 73.6629 48.3081 73.0145 47.4461 73.0126H45.727Z" fill="#1C1B1A"/>
<path fill-rule="evenodd" clip-rule="evenodd" d="M21.9119 43.5625L22.0638 44.7936C21.9166 45.0472 21.5821 45.6461 21.1706 46.5107V45.6972L21.9119 43.5625ZM51.8879 52.578H51.6589C50.6747 48.5067 48.9928 45.4621 48.605 44.7938L48.7569 43.5629L51.8879 52.578Z" fill="#1C1B1A"/>
<path d="M14.3552 11.2237C15.2567 11.2237 15.8863 10.8576 15.8863 10.3331C15.8863 10.0976 15.6954 9.90674 15.4599 9.90674C15.2596 9.90674 15.0914 10.045 15.0457 10.2313C14.9628 10.2824 14.7263 10.3711 14.3552 10.3711C13.984 10.3711 13.7478 10.2824 13.6648 10.2314C13.6191 10.045 13.4509 9.90691 13.2505 9.90691C13.015 9.90691 12.8242 10.0977 12.8242 10.3332C12.8242 10.8574 13.4538 11.2237 14.3552 11.2237Z" fill="#1C1B1A"/>
<path d="M12.8198 8.13953C12.8982 8.05938 12.9443 7.95024 12.9443 7.83769C12.9443 7.72684 12.8981 7.616 12.8198 7.53755C12.6612 7.37726 12.3749 7.37896 12.2161 7.53755C12.1377 7.616 12.0918 7.72514 12.0918 7.83769C12.0918 7.95024 12.1378 8.06108 12.2161 8.13953C12.2964 8.21968 12.4054 8.26401 12.5181 8.26401C12.6305 8.26401 12.7396 8.21968 12.8198 8.13953Z" fill="#1C1B1A"/>
<path d="M16.1908 8.26456C16.3032 8.26456 16.4125 8.22023 16.4926 8.14008C16.5728 8.05993 16.6171 7.95079 16.6171 7.83824C16.6171 7.72739 16.5726 7.61655 16.4926 7.5364C16.3341 7.37951 16.0493 7.37951 15.889 7.5381C15.8105 7.61655 15.7646 7.72739 15.7646 7.83824C15.7646 7.95079 15.8107 8.06163 15.889 8.14008C15.9689 8.22023 16.0798 8.26456 16.1908 8.26456Z" fill="#1C1B1A"/>
</svg>
