<svg width="52" height="75" viewBox="0 0 52 75" fill="none" xmlns="http://www.w3.org/2000/svg">
<path d="M1.12596 39.529H3.72944L4.4626 38.1816H1.02734L1.12596 39.529Z" fill="#898785"/>
<path d="M14.3918 12.5486C16.3567 12.5486 17.9554 10.2582 17.9554 7.44298V6.26243C17.1726 6.10704 16.6188 5.56376 16.3586 4.7126C15.8648 5.01873 15.1763 5.20279 14.3918 5.20279C13.6071 5.20279 12.9187 5.01853 12.4249 4.7124C12.165 5.56298 11.6099 6.10297 10.8281 6.25895V7.44278C10.8281 10.2582 12.4268 12.5486 14.3918 12.5486ZM15.8826 7.5416C16.0628 7.36141 16.3863 7.36141 16.5665 7.5416C16.6576 7.63266 16.7099 7.75666 16.7099 7.88454C16.7099 8.01242 16.6576 8.13642 16.5665 8.22749C16.4774 8.31661 16.3515 8.36893 16.2255 8.36893C16.0977 8.36893 15.9717 8.31661 15.8826 8.22749C15.7915 8.13836 15.7411 8.01242 15.7411 7.88454C15.7411 7.75666 15.7915 7.63286 15.8826 7.5416ZM13.7526 10.2357C13.8437 10.2848 14.0656 10.3549 14.3918 10.3549C14.7179 10.3549 14.9398 10.2846 15.0308 10.2357C15.0909 10.0364 15.2759 9.89125 15.4947 9.89125C15.7623 9.89125 15.9791 10.1081 15.9791 10.3756C15.9791 10.9338 15.3263 11.3237 14.3918 11.3237C13.4572 11.3237 12.8044 10.9338 12.8044 10.3756C12.8044 10.1081 13.0212 9.89125 13.2888 9.89125C13.5077 9.89125 13.6928 10.0364 13.7526 10.2357ZM12.0753 7.88454C12.0753 7.75666 12.1257 7.63266 12.2168 7.5416C12.397 7.36141 12.7205 7.36141 12.9007 7.5416C12.9918 7.63266 13.0422 7.75666 13.0422 7.88454C13.0422 8.01242 12.9918 8.13642 12.9007 8.22749C12.8116 8.31661 12.6856 8.36893 12.5597 8.36893C12.4318 8.36893 12.3059 8.31661 12.2168 8.22749C12.1257 8.13642 12.0753 8.01242 12.0753 7.88454Z" fill="#D8B4A4"/>
<path d="M4.62685 19.187C4.6253 19.2025 4.62278 19.2201 4.61988 19.2353L1.09375 37.2137H4.87854L7.51069 23.9086L5.28658 17.5234C4.71869 18.3624 4.63267 19.1277 4.62685 19.187Z" fill="#898785"/>
<path d="M0.97807 41.4234C0.940288 41.7137 1.01818 42.002 1.1972 42.2347C1.37623 42.4674 1.63509 42.6162 1.92611 42.6539C2.2179 42.6917 2.50582 42.614 2.73852 42.435C2.97122 42.256 3.12021 41.9969 3.15799 41.7059C3.15974 41.6925 3.16187 41.6792 3.16478 41.666L3.41704 40.498H1.10033L0.97807 41.4234Z" fill="#D8B4A4"/>
<path d="M12.6168 16.1997L11.6825 14.3711L10.457 14.7935L10.5586 17.1371L12.6168 16.1997Z" fill="#898785"/>
<path d="M8.47656 23.7404C8.48179 23.7588 8.48682 23.7773 8.48992 23.7964C8.49244 23.8114 8.49322 23.8259 8.49399 23.8408C8.49477 23.8518 8.49709 23.8623 8.49709 23.8735V39.9867H13.9069V18.7236L13.0583 17.0627L10.3068 18.3161C10.2428 18.3452 10.1742 18.3597 10.106 18.3597C10.0179 18.3597 9.9301 18.3357 9.85279 18.2882C9.71561 18.2039 9.629 18.0571 9.62203 17.8962L9.50171 15.1221L8.33434 15.5245C8.32233 15.5286 8.31051 15.5322 8.29811 15.5353C7.28768 15.7975 6.55549 16.2222 6.02344 16.6905L8.46977 23.7137C8.47326 23.7226 8.47404 23.7315 8.47656 23.7404Z" fill="#898785"/>
<path d="M19.841 72.0498H16.3242V74.0315H21.7226C21.6788 73.6047 21.5428 72.9701 21.1334 72.5385C20.8211 72.2097 20.3985 72.0498 19.841 72.0498Z" fill="#736357"/>
<path d="M20.4836 15.5352C20.4714 15.5321 20.4594 15.5284 20.4474 15.5243L19.28 15.1221L19.1597 17.896C19.1527 18.0569 19.0661 18.2037 18.9289 18.288C18.8516 18.3355 18.7638 18.3595 18.6757 18.3595C18.6073 18.3595 18.5389 18.345 18.4749 18.3159L15.7234 17.0625L14.875 18.7234V39.9861H20.2848V23.873C20.2848 23.8617 20.2871 23.8513 20.2879 23.8402C20.2889 23.8255 20.2896 23.8108 20.2922 23.7958C20.2953 23.7767 20.3003 23.7585 20.3055 23.7401C20.3081 23.7311 20.3088 23.7222 20.3119 23.7133L22.7585 16.6901C22.2262 16.222 21.4942 15.7973 20.4836 15.5352Z" fill="#898785"/>
<path d="M20.2872 40.9551H8.49805V71.0807H12.4853L13.9086 43.6777C13.9226 43.4107 14.1481 43.2038 14.4174 43.2191C14.6674 43.2321 14.8609 43.433 14.8735 43.6779L14.8768 43.6777L16.3001 71.0807H20.2872V40.9551Z" fill="#5576A5"/>
<path d="M7.64995 72.5384C7.24054 72.9697 7.10472 73.6043 7.06055 74.0315H12.4589V72.0498H8.94209C8.38466 72.0496 7.96208 72.2095 7.64995 72.5384Z" fill="#736357"/>
<path d="M24.1623 19.2354C24.159 19.2188 24.1567 19.2019 24.1551 19.1849C24.1493 19.1266 24.0635 18.362 23.4958 17.5234L21.2715 23.9086L23.9034 37.2137H27.6884L24.1623 19.2354Z" fill="#898785"/>
<path d="M41.7978 8.56809C42.0303 8.61227 42.1913 8.81571 42.1911 9.04395H42.1917V10.2169C42.1917 11.9971 41.5162 13.5712 40.4884 14.5125V16.5845L43.2234 17.2407C43.6739 17.3465 44.0779 17.4996 44.4421 17.6844C46.9687 15.0691 43.433 8.20868 43.396 8.13757C43.3598 8.0684 43.341 7.99129 43.341 7.9132C43.341 6.62067 42.9527 5.59242 42.187 4.85732C41.1043 3.81763 39.5266 3.58377 38.752 3.5332V6.04038C38.7518 7.96668 41.7673 8.56228 41.7978 8.56809Z" fill="#CC7050"/>
<path d="M38.2671 15.431C37.8294 15.431 37.4086 15.3339 37.0153 15.1572V16.9663C37.0153 17.1903 36.8618 17.385 36.6438 17.4373L34.7617 17.889C35.0051 19.0036 36.3501 19.7298 38.2671 19.7298C40.1841 19.7298 41.5292 19.0038 41.7733 17.8892L39.8908 17.4375C39.673 17.3852 39.5195 17.1905 39.5195 16.9665V15.1574C39.1258 15.3337 38.705 15.431 38.2671 15.431Z" fill="#FCEBE6"/>
<path d="M33.314 17.2401L36.0467 16.5845V14.5127C35.0186 13.5716 34.3432 11.9973 34.3432 10.2169V9.04396H34.3438C34.3436 8.81591 34.5046 8.61247 34.7367 8.5681C34.7758 8.56054 37.7831 7.95564 37.7831 6.04019V3.53418C37.0057 3.58649 35.4218 3.82307 34.3441 4.86101C33.5811 5.59611 33.1942 6.62281 33.1942 7.91321C33.1942 7.99129 33.1752 8.06841 33.1392 8.13758C33.1022 8.20869 29.566 15.0697 32.0935 17.6846C32.4582 17.4996 32.8627 17.3461 33.314 17.2401Z" fill="#CC7050"/>
<path d="M14.3918 13.5179C13.6804 13.5179 13.0071 13.2964 12.4072 12.9033V13.6597L14.3918 17.5439L16.3763 13.6599V12.9037C15.7764 13.2964 15.1031 13.5179 14.3918 13.5179Z" fill="#D8B4A4"/>
<path d="M11.6251 3.47457C11.6251 3.20699 11.8419 2.99018 12.1095 2.99018H12.1097H12.1099C12.3774 2.99018 12.5942 3.20699 12.5942 3.47457C12.5942 3.77702 13.3113 4.23409 14.3921 4.23409C15.4729 4.23409 16.1897 3.77682 16.1897 3.47457C16.1897 3.20699 16.4066 2.99018 16.6741 2.99018H16.6743C16.6743 2.99018 16.6743 2.99018 16.6745 2.99018C16.9421 2.99018 17.1589 3.20699 17.1589 3.47457C17.1589 4.44973 17.4271 5.04475 17.9556 5.2542V3.16398C17.9564 3.12232 17.9622 2.4686 17.3947 1.89044C16.7946 1.27895 15.7844 0.96875 14.3921 0.96875C12.9996 0.96875 11.9893 1.27895 11.3891 1.89044C10.8218 2.4686 10.8276 3.12213 10.8282 3.14984V5.2542C11.3567 5.04475 11.6251 4.44973 11.6251 3.47457Z" fill="#C69C6D"/>
<path d="M35.3125 10.2172C35.3125 12.558 36.6384 14.4626 38.2678 14.4626C39.8975 14.4626 41.2234 12.5581 41.2234 10.2172V9.42553C40.5138 9.23139 39.0347 8.71077 38.2678 7.59766C37.5011 8.71077 36.0218 9.23139 35.3125 9.42553V10.2172ZM39.7043 10.0512C39.8845 9.87097 40.2081 9.87097 40.3883 10.0512C40.4793 10.1422 40.5297 10.2662 40.5297 10.3941C40.5297 10.522 40.4793 10.646 40.3883 10.7371C40.2991 10.8262 40.1732 10.8785 40.0473 10.8785C39.9194 10.8785 39.7934 10.8262 39.7043 10.7371C39.6133 10.646 39.5629 10.522 39.5629 10.3941C39.5629 10.2662 39.6133 10.1422 39.7043 10.0512ZM37.5864 12.3086C37.6798 12.3611 37.9156 12.4388 38.2678 12.4388C38.6201 12.4388 38.8561 12.3613 38.9495 12.3086C39.007 12.1053 39.194 11.9565 39.4156 11.9565C39.6832 11.9565 39.9 12.1734 39.9 12.4409C39.9 13.0102 39.2288 13.4078 38.268 13.4078C37.3072 13.4078 36.636 13.0102 36.636 12.4409C36.636 12.1734 36.8528 11.9565 37.1204 11.9565C37.3421 11.9563 37.5289 12.1053 37.5864 12.3086ZM36.147 10.0512C36.3291 9.87097 36.6527 9.87097 36.8329 10.0512C36.922 10.1422 36.9743 10.2662 36.9743 10.3941C36.9743 10.522 36.922 10.646 36.8329 10.7371C36.7418 10.8262 36.6178 10.8785 36.4899 10.8785C36.3621 10.8785 36.2381 10.8262 36.147 10.7371C36.0559 10.646 36.0056 10.522 36.0056 10.3941C36.0056 10.2662 36.0559 10.1422 36.147 10.0512Z" fill="#FCEBE6"/>
<path d="M16.166 16.1997L18.2243 17.1373L18.3258 14.7935L17.1001 14.3711L16.166 16.1997Z" fill="#898785"/>
<path d="M47.1422 24.5615L44.692 25.6748C44.606 25.917 44.4998 26.1358 44.3789 26.332L48.8151 40.9027C48.8186 40.9142 48.8217 40.9256 48.8242 40.9372C48.88 41.1846 49.0288 41.3954 49.2433 41.5311C49.4578 41.6667 49.7124 41.7105 49.9596 41.6545C50.2072 41.5985 50.4182 41.4497 50.5535 41.2352C50.6889 41.0207 50.7327 40.7663 50.6769 40.5189L47.1422 24.5615Z" fill="#FCEBE6"/>
<path d="M27.7556 38.1816H24.3203L25.0533 39.529H27.6569L27.7556 38.1816Z" fill="#898785"/>
<path d="M27.6821 40.498H25.3652L25.6175 41.666C25.6204 41.6792 25.6225 41.6923 25.6243 41.7059C25.6621 41.9969 25.8111 42.256 26.0438 42.435C26.2767 42.614 26.5652 42.6919 26.856 42.6539C27.147 42.6162 27.4058 42.4674 27.5849 42.2347C27.7639 42.002 27.8418 41.7137 27.8038 41.4226L27.6821 40.498Z" fill="#D8B4A4"/>
<path d="M34.7891 74.0319H37.7845V71.6553H36.0316C35.9002 72.2003 35.5718 73.1687 34.7891 74.0319Z" fill="#998675"/>
<path d="M29.3944 24.5615L27.6973 32.2235L28.6217 36.9372L32.1546 26.3249C32.0354 26.13 31.93 25.9143 31.8448 25.6746L29.3944 24.5615Z" fill="#FCEBE6"/>
<path d="M36.0348 70.6859H37.7838V53.4648H34.0986C34.1397 55.227 34.3997 61.6802 36.0348 70.6859Z" fill="#FCEBE6"/>
<path d="M38.752 70.6859H40.5012C42.1386 61.6672 42.3969 55.2197 42.4375 53.4648H38.752V70.6859Z" fill="#FCEBE6"/>
<path d="M44.0398 22.0564C44.7311 22.6832 44.9704 23.6155 44.9235 24.5052L46.9275 23.5948L46.5415 21.8524C46.5138 21.7332 45.8149 18.8451 42.9995 18.183L42.7131 18.1143C42.3704 19.6808 40.675 20.6984 38.2674 20.6984C35.8599 20.6984 34.1591 19.6825 33.8163 18.1158L33.5379 18.1827C30.7202 18.8449 30.0209 21.7332 29.9926 21.8558L29.6074 23.5948L31.6116 24.5052C31.5649 23.6155 31.804 22.6832 32.4955 22.0564C32.6939 21.8766 33.0001 21.8917 33.1797 22.0899C33.3595 22.2881 33.3444 22.5944 33.1461 22.774C32.5058 23.3545 32.4606 24.4977 32.747 25.3269C32.9675 25.9656 33.3519 26.3802 33.7503 26.4087C33.9928 26.4261 34.1849 26.6206 34.1992 26.8634L34.3443 29.3307C34.3507 29.4378 34.3213 29.5438 34.2608 29.6323C31.0522 34.3299 30.7213 49.576 30.6876 52.4961H45.8471C45.8132 49.5758 45.4817 34.3287 42.2739 29.6323C42.2134 29.5438 42.184 29.4376 42.1904 29.3307L42.3357 26.8634C42.35 26.6206 42.542 26.4261 42.7846 26.4087C43.183 26.3802 43.5674 25.9657 43.7879 25.3269C44.0743 24.4977 44.0291 23.3543 43.3888 22.7738C43.1905 22.5942 43.1756 22.2879 43.3552 22.0897C43.5352 21.8919 43.8417 21.8766 44.0398 22.0564Z" fill="#BADFE8"/>
<path d="M38.752 71.6553V74.0319H41.7476C40.965 73.1687 40.6366 72.2003 40.505 71.6553H38.752Z" fill="#998675"/>
<path d="M36.6357 12.4397C36.6357 13.0089 37.3067 13.4065 38.2677 13.4065C39.2287 13.4065 39.8997 13.0089 39.8997 12.4397C39.8997 12.1721 39.6829 11.9553 39.4153 11.9553C39.1937 11.9553 39.0067 12.1041 38.9492 12.3073C38.8558 12.36 38.62 12.4375 38.2675 12.4375C37.9153 12.4375 37.6795 12.36 37.5861 12.3073C37.5286 12.1041 37.3416 11.9551 37.1199 11.9551C36.8526 11.9553 36.6357 12.1721 36.6357 12.4397Z" fill="#1C1B1A"/>
<path d="M36.4902 10.8785C36.6181 10.8785 36.7421 10.8262 36.8332 10.737C36.9223 10.646 36.9746 10.522 36.9746 10.3941C36.9746 10.2662 36.9223 10.1422 36.8332 10.0512C36.653 9.87097 36.3294 9.87097 36.1473 10.0512C36.0562 10.1422 36.0059 10.2662 36.0059 10.3941C36.0059 10.522 36.0562 10.646 36.1473 10.737C36.2384 10.826 36.3624 10.8785 36.4902 10.8785Z" fill="#1C1B1A"/>
<path d="M40.0469 10.8785C40.1728 10.8785 40.2988 10.8262 40.3879 10.737C40.479 10.646 40.5293 10.522 40.5293 10.3941C40.5293 10.2662 40.479 10.1422 40.3879 10.0512C40.2077 9.87097 39.8841 9.87097 39.7039 10.0512C39.6129 10.1422 39.5625 10.2662 39.5625 10.3941C39.5625 10.522 39.6129 10.646 39.7039 10.737C39.7931 10.826 39.919 10.8785 40.0469 10.8785Z" fill="#1C1B1A"/>
<path d="M12.8047 10.376C12.8047 10.9342 13.4574 11.324 14.3921 11.324C15.3266 11.324 15.9793 10.9342 15.9793 10.376C15.9793 10.1084 15.7625 9.8916 15.495 9.8916C15.2762 9.8916 15.0912 10.0367 15.0311 10.2361C14.9401 10.2851 14.7182 10.3553 14.3921 10.3553C14.0658 10.3553 13.844 10.2849 13.7529 10.2361C13.6929 10.0367 13.508 9.8916 13.2891 9.8916C13.0215 9.8916 12.8047 10.1084 12.8047 10.376Z" fill="#1C1B1A"/>
<path d="M12.8996 8.22826C12.9907 8.13719 13.0411 8.01319 13.0411 7.88531C13.0411 7.75744 12.9907 7.63343 12.8996 7.54237C12.7194 7.36218 12.3959 7.36218 12.2157 7.54237C12.1246 7.63343 12.0742 7.75744 12.0742 7.88531C12.0742 8.01319 12.1246 8.13719 12.2157 8.22826C12.3048 8.31739 12.4307 8.3697 12.5586 8.3697C12.6845 8.3697 12.8105 8.31739 12.8996 8.22826Z" fill="#1C1B1A"/>
<path d="M16.2256 8.3697C16.3515 8.3697 16.4775 8.31739 16.5666 8.22826C16.6577 8.13719 16.71 8.01319 16.71 7.88531C16.71 7.75744 16.6577 7.63343 16.5666 7.54237C16.3864 7.36218 16.0628 7.36218 15.8827 7.54237C15.7916 7.63343 15.7412 7.75744 15.7412 7.88531C15.7412 8.01319 15.7916 8.13913 15.8827 8.22826C15.9718 8.31739 16.0977 8.3697 16.2256 8.3697Z" fill="#1C1B1A"/>
<path d="M47.4873 21.6406C47.4622 21.5295 46.9842 19.5201 45.2694 18.2045C47.8805 15.1849 44.7862 8.73927 44.3092 7.79433C44.285 6.28266 43.7971 5.05969 42.8584 4.15815C41.1452 2.51299 38.5411 2.5436 38.2683 2.55154C37.9973 2.5436 35.3917 2.51241 33.6779 4.15815C32.739 5.05969 32.2511 6.28247 32.2271 7.79414C31.7499 8.73927 28.655 15.1857 31.2666 18.2053C29.5517 19.5213 29.0739 21.5299 29.0482 21.6427L27.2308 29.8476L25.1169 19.07C25.0766 18.7122 24.6182 15.6162 20.7468 14.6025L17.3447 13.4301V12.0451C18.3105 10.9302 18.9237 9.2812 18.9237 7.44306L18.9234 3.1828C18.9251 3.13959 18.9549 2.11541 18.1073 1.23402C17.3197 0.415215 16.0696 0 14.3917 0C12.7135 0 11.4634 0.415215 10.6758 1.23402C9.82817 2.11541 9.85781 3.13959 9.85917 3.16381V7.44286C9.85917 9.28101 10.4724 10.9299 11.4383 12.0447V13.4301L8.03633 14.6025C4.16493 15.6162 3.70632 18.7122 3.66602 19.07L0.0309998 37.6045C0.0226684 37.6468 0.0199561 37.69 0.0232499 37.733L0.188909 39.9995L0.0176308 41.2979C-0.0536707 41.8456 0.0928076 42.3881 0.429552 42.8258C0.76649 43.2635 1.25359 43.5437 1.80114 43.6148C1.89181 43.6266 1.98249 43.6324 2.07239 43.6324C2.52578 43.6324 2.96424 43.484 3.32927 43.2029C3.76134 42.8704 4.03996 42.3914 4.11572 41.8524L4.4761 40.184L5.70315 37.9293C5.72659 37.8862 5.74325 37.8399 5.75294 37.7919L7.52831 28.8178V40.4707C7.52831 40.4715 7.52869 40.4723 7.52869 40.4731C7.52869 40.4738 7.52831 40.4746 7.52831 40.4754V71.4216C7.31305 71.5421 7.11697 71.6922 6.94336 71.8763C5.99145 72.8848 6.07167 74.4763 6.07554 74.5435C6.09027 74.7999 6.30243 75 6.55915 75H12.9441C13.2117 75 13.4285 74.7832 13.4285 74.5156V71.5773L14.3917 53.0335L15.3548 71.5773V74.5156C15.3548 74.7832 15.5716 75 15.8392 75H22.2242C22.4809 75 22.6928 74.7999 22.7078 74.5435C22.7116 74.4763 22.792 72.8848 21.8399 71.8763C21.6663 71.6922 21.4701 71.5419 21.2548 71.4216V40.4754C21.2548 40.4746 21.2546 40.4738 21.2546 40.4731C21.2546 40.4723 21.2548 40.4715 21.2548 40.4707V28.8178L23.0302 37.7919C23.0397 37.8399 23.0565 37.8862 23.08 37.9293L24.307 40.184L24.6674 41.8524C24.7431 42.3914 25.0218 42.8704 25.4538 43.2029C25.8191 43.484 26.2573 43.6324 26.7107 43.6324C26.8006 43.6324 26.8913 43.6266 26.9818 43.6148C27.5293 43.5437 28.0164 43.2635 28.3536 42.8258C28.6905 42.3881 28.8368 41.8454 28.7655 41.2969L28.6025 40.0609L32.912 27.1161C33.0223 27.1844 33.1358 27.2439 33.2548 27.2856L33.3689 29.2256C29.7577 34.8052 29.716 52.2347 29.716 52.9803C29.716 53.2478 29.9328 53.4646 30.2004 53.4646H33.1298C33.1707 55.2483 33.4351 61.9065 35.1406 71.1788C35.0851 71.5159 34.742 73.1564 33.1992 74.1025C33.0143 74.2159 32.9273 74.4383 32.986 74.647C33.0449 74.8559 33.2354 74.9998 33.4522 74.9998H43.0845C43.3013 74.9998 43.4917 74.8557 43.5506 74.647C43.6095 74.4383 43.5224 74.2159 43.3375 74.1025C41.8071 73.1642 41.4538 71.5159 41.3963 71.1774C43.0994 61.9168 43.3654 55.258 43.4067 53.4646H46.3359C46.6034 53.4646 46.8202 53.2478 46.8202 52.9803C46.8202 52.2349 46.7786 34.8054 43.1676 29.2256L43.2819 27.2856C43.3949 27.2459 43.5026 27.1899 43.608 27.1261L47.8834 41.1684C47.9992 41.6604 48.2978 42.0793 48.7258 42.3496C49.0362 42.5456 49.3881 42.6468 49.7465 42.6468C49.8883 42.6468 50.0311 42.6309 50.1728 42.5989C50.6728 42.4862 51.0989 42.1853 51.3725 41.752C51.6461 41.3188 51.7346 40.8048 51.6222 40.307L47.4873 21.6406ZM38.7523 3.53291C39.527 3.58348 41.1047 3.81734 42.1874 4.85702C42.9531 5.59232 43.3414 6.62057 43.3414 7.91291C43.3414 7.99099 43.3604 8.06811 43.3964 8.13728C43.4334 8.20838 46.969 15.0688 44.4425 17.6841C44.0782 17.4995 43.6743 17.3464 43.2238 17.2404L40.4888 16.5842V14.5122C41.5166 13.5711 42.192 11.997 42.192 10.2166V9.04366H42.1915C42.1917 8.81542 42.0305 8.61197 41.7981 8.5678C41.7677 8.56199 38.7521 7.96639 38.7521 6.03989V3.53291H38.7523ZM39.8916 17.4373L41.7741 17.8889C41.5302 19.0036 40.1849 19.7296 38.2679 19.7296C36.3509 19.7296 35.0061 19.0036 34.7626 17.8887L36.6447 17.4371C36.8625 17.3848 37.0161 17.19 37.0161 16.9661V15.157C37.4096 15.3335 37.8303 15.4308 38.2679 15.4308C38.7058 15.4308 39.1267 15.3337 39.5202 15.157V16.9661C39.5202 17.1902 39.6738 17.385 39.8916 17.4373ZM38.2679 7.59728C39.0348 8.7104 40.5139 9.23102 41.2235 9.42516V10.2168C41.2235 12.5576 39.8976 14.4622 38.2679 14.4622C36.6383 14.4622 35.3126 12.5578 35.3126 10.2168V9.42516C36.0221 9.23102 37.5013 8.7104 38.2679 7.59728ZM33.1397 8.13728C33.1757 8.06811 33.1947 7.99099 33.1947 7.91291C33.1947 6.6227 33.5816 5.59581 34.3446 4.8607C35.4223 3.82277 37.0062 3.58619 37.7836 3.53388V6.04008C37.7836 7.95573 34.7765 8.56044 34.7372 8.56799C34.505 8.61236 34.344 8.81561 34.3442 9.04385H34.3437V10.2168C34.3437 11.9972 35.0191 13.5715 36.0471 14.5126V16.5844L33.3144 17.24C32.8632 17.346 32.4586 17.4995 32.0938 17.6843C29.5665 15.0694 33.1027 8.20838 33.1397 8.13728ZM18.3258 14.7931L18.2243 17.137L16.166 16.1994L17.1003 14.3707L18.3258 14.7931ZM14.3915 17.5433L12.4068 13.6591V12.9027C13.0067 13.2958 13.68 13.5172 14.3915 13.5172C15.1027 13.5172 15.776 13.2958 16.3757 12.9028V13.6591L14.3915 17.5433ZM10.8277 3.14986C10.8272 3.12234 10.8215 2.46862 11.3887 1.89046C11.9889 1.27897 12.9991 0.968769 14.3917 0.968769C15.784 0.968769 16.7942 1.27897 17.3943 1.89046C17.9616 2.46862 17.9558 3.12215 17.9552 3.164V5.25422C17.4264 5.04477 17.1585 4.44975 17.1585 3.47459C17.1585 3.20701 16.9416 2.9902 16.6741 2.9902C16.6739 2.9902 16.6739 2.9902 16.6739 2.9902H16.6737C16.4061 2.9902 16.1893 3.20701 16.1893 3.47459C16.1893 3.77704 15.4724 4.2341 14.3917 4.2341C13.3109 4.2341 12.5938 3.77684 12.5938 3.47459C12.5938 3.20701 12.377 2.9902 12.1094 2.9902H12.1092H12.109C11.8415 2.9902 11.6247 3.20701 11.6247 3.47459C11.6247 4.44975 11.3563 5.04477 10.8277 5.25422V3.14986ZM10.8279 7.44306V6.25922C11.6097 6.10325 12.1646 5.56326 12.4247 4.71268C12.9187 5.01881 13.6071 5.20307 14.3917 5.20307C15.1762 5.20307 15.8646 5.019 16.3584 4.71287C16.6185 5.56403 17.1724 6.10732 17.9552 6.26271V7.44325C17.9552 10.2585 16.3567 12.5489 14.3917 12.5489C12.4266 12.5487 10.8279 10.2583 10.8279 7.44306ZM11.6828 14.3707L12.6171 16.1994L10.5588 17.1368L10.4573 14.7929L11.6828 14.3707ZM3.16478 41.6662C3.16187 41.6794 3.15974 41.6927 3.15799 41.7061C3.12021 41.9971 2.97122 42.2562 2.73852 42.4352C2.50582 42.6142 2.2179 42.6919 1.92611 42.6541C1.63528 42.6164 1.37643 42.4676 1.1972 42.2349C1.01818 42.0022 0.940287 41.7139 0.978069 41.4236L1.10013 40.4982H3.41704L3.16478 41.6662ZM3.72937 39.5295H1.1259L1.02748 38.1821H4.46273L3.72937 39.5295ZM4.87969 37.2133H1.0949L4.62103 19.2349C4.62413 19.2196 4.62645 19.2022 4.62801 19.1867C4.63382 19.1272 4.71984 18.3621 5.28774 17.5231L7.51184 23.9083L4.87969 37.2133ZM6.02361 16.6907C6.55586 16.2222 7.28786 15.7977 8.29828 15.5356C8.31049 15.5325 8.3225 15.5288 8.33452 15.5247L9.50188 15.1223L9.6222 17.8965C9.62918 18.0573 9.7156 18.2041 9.85297 18.2884C9.93027 18.3359 10.018 18.3599 10.1062 18.3599C10.1746 18.3599 10.243 18.3454 10.3069 18.3163L13.0584 17.0629L13.9071 18.7238V39.9865H8.49688V23.8734C8.49688 23.8621 8.49456 23.8517 8.49378 23.8406C8.49281 23.8259 8.49204 23.8112 8.48971 23.7963C8.48661 23.7771 8.48177 23.7589 8.47634 23.7403C8.47383 23.7316 8.47305 23.7226 8.46995 23.7137L6.02361 16.6907ZM12.4595 74.0312H7.06117C7.10515 73.604 7.24116 72.9697 7.65057 72.5382C7.9627 72.2092 8.38528 72.0493 8.94271 72.0493H12.4595V74.0312ZM14.8756 43.6777L14.8724 43.6779C14.8598 43.4332 14.6662 43.2323 14.4163 43.2191C14.1469 43.2038 13.9212 43.4106 13.9075 43.6777L12.4841 71.0807H8.49688V40.9551H20.286V71.0807H16.299L14.8756 43.6777ZM21.7218 74.0312H16.3234V72.0495H19.8402C20.3976 72.0495 20.8202 72.2094 21.1323 72.5384C21.5419 72.9698 21.678 73.6044 21.7218 74.0312ZM20.313 23.7139C20.3099 23.7226 20.3091 23.7318 20.3066 23.7407C20.3013 23.7591 20.2963 23.7773 20.2932 23.7965C20.2907 23.8114 20.2899 23.8259 20.2889 23.8408C20.2884 23.8519 20.2858 23.8623 20.2858 23.8736V39.9867H14.876V18.7236L15.7245 17.0627L18.476 18.3161C18.5399 18.3452 18.6085 18.3597 18.6767 18.3597C18.7649 18.3597 18.8526 18.3357 18.9299 18.2882C19.0671 18.204 19.1537 18.0571 19.1607 17.8963L19.281 15.1223L20.4484 15.5245C20.4604 15.5286 20.4724 15.5323 20.4846 15.5354C21.4951 15.7975 22.2273 16.2222 22.7593 16.6905L20.313 23.7139ZM23.9032 37.2133L21.2713 23.9083L23.4956 17.5231C24.0633 18.3619 24.1491 19.1262 24.1549 19.1845C24.1565 19.2014 24.1588 19.2184 24.1621 19.2351L27.6882 37.2135H23.9032V37.2133ZM25.0535 39.5295L24.3204 38.1821H27.7556L27.6572 39.5295H25.0535ZM27.5857 42.2349C27.4067 42.4676 27.1478 42.6164 26.8568 42.6541C26.566 42.6921 26.2775 42.6142 26.0446 42.4352C25.8119 42.2562 25.6629 41.9971 25.6251 41.7061C25.6234 41.6927 25.621 41.6794 25.6183 41.6662L25.3661 40.4982H27.683L27.8048 41.4226C27.8426 41.7139 27.7647 42.0022 27.5857 42.2349ZM28.6211 36.9372L27.6967 32.2236L29.3938 24.5616L31.8444 25.6747C31.9295 25.9144 32.0351 26.1302 32.1542 26.325L28.6211 36.9372ZM37.7836 74.0312H34.7881C35.5707 73.1679 35.8991 72.1995 36.0307 71.6546H37.7836V74.0312ZM37.7836 70.6859H36.0345C34.3995 61.6802 34.1394 55.227 34.0982 53.4648H37.7834V70.6859H37.7836ZM41.748 74.0312H38.7523V71.6546H40.5054C40.637 72.1997 40.9654 73.1681 41.748 74.0312ZM40.5017 70.6859H38.7525V53.4648H42.4381C42.3972 55.2197 42.139 61.6672 40.5017 70.6859ZM43.3894 22.774C44.0298 23.3545 44.0749 24.4977 43.7886 25.3271C43.5681 25.9657 43.1837 26.3804 42.7853 26.4088C42.5427 26.4263 42.3507 26.6208 42.3364 26.8636L42.1911 29.3309C42.1847 29.4378 42.2141 29.544 42.2746 29.6325C45.4824 34.3289 45.8139 49.576 45.8478 52.4963H30.6883C30.722 49.5762 31.0529 34.3301 34.2615 29.6325C34.322 29.544 34.3514 29.438 34.345 29.3309L34.1999 26.8636C34.1856 26.6208 33.9935 26.4263 33.751 26.4088C33.3526 26.3804 32.9682 25.9657 32.7477 25.3271C32.4613 24.4979 32.5065 23.3547 33.1468 22.7742C33.345 22.5946 33.3602 22.2883 33.1804 22.0901C33.0007 21.8921 32.6946 21.8768 32.4962 22.0566C31.8047 22.6833 31.5656 23.6157 31.6123 24.5054L29.6081 23.595L29.9933 21.856C30.0216 21.7334 30.7208 18.8453 33.5386 18.1828L33.817 18.116C34.16 19.6827 35.8605 20.6985 38.2681 20.6985C40.6755 20.6985 42.3711 19.6809 42.7138 18.1144L43.0002 18.1832C45.8156 18.8451 46.5147 21.7332 46.5422 21.8525L46.9282 23.595L44.9242 24.5054C44.9709 23.6157 44.7318 22.6833 44.0405 22.0566C43.8422 21.8768 43.5359 21.8921 43.3563 22.0901C43.1763 22.2879 43.1912 22.5942 43.3894 22.774ZM50.5535 41.2351C50.4181 41.4494 50.2071 41.5984 49.9596 41.6544C49.7124 41.7104 49.458 41.6664 49.2433 41.531C49.0288 41.3953 48.88 41.1845 48.8242 40.9371C48.8215 40.9255 48.8186 40.9138 48.8151 40.9026L44.3789 26.3319C44.4998 26.1357 44.606 25.9169 44.6921 25.6747L47.1423 24.5614L50.6769 40.5188C50.7327 40.7662 50.6889 41.0206 50.5535 41.2351Z" fill="#1C1B1A"/>
</svg>
