<svg width="63" height="75" viewBox="0 0 63 75" fill="none" xmlns="http://www.w3.org/2000/svg">
<path d="M25.6701 38.0322H24.6475V38.6975H25.6701V38.0322Z" fill="#4D4D4D"/>
<path d="M23.7934 38.0322H19.1113V38.6975H23.7934V38.0322Z" fill="#999999"/>
<path d="M19.1124 23.8513V37.1794H24.7314V35.8087L22.9486 33.5637C22.8823 33.4801 22.8497 33.3749 22.8572 33.2687L23.8775 18.7988L23.089 17.2619L20.9594 18.2319C20.9029 18.2577 20.8426 18.2703 20.7825 18.2703C20.6985 18.2703 20.6147 18.2454 20.5429 18.1965C20.4198 18.1129 20.3492 17.971 20.3569 17.8223L20.5148 14.7031C20.5148 14.7031 18.9841 15.4364 18.9574 15.4434C17.9164 15.7135 17.1666 16.154 16.625 16.6385L19.0885 23.7109C19.0914 23.7188 19.1183 23.7957 19.1124 23.8513Z" fill="white"/>
<path d="M25.1585 12.5681C26.7883 12.5679 28.0122 11.988 28.6343 9.27601C28.4312 9.36161 28.207 9.41038 27.9704 9.41038H27.0705C26.1686 9.41038 25.4346 8.71615 25.4346 7.86265V7.33008H24.8823V7.86265C24.8823 8.71598 24.1485 9.41038 23.2464 9.41038H22.3465C22.1101 9.41038 21.8859 9.36161 21.6826 9.27601C22.3049 11.988 23.5288 12.5679 25.1585 12.5681ZM24.054 10.371C24.2544 10.371 24.4225 10.5093 24.4681 10.6955C24.5509 10.7465 24.7875 10.8352 25.1585 10.8352C25.5296 10.8352 25.766 10.7465 25.849 10.6953C25.8947 10.5091 26.0627 10.3708 26.2631 10.3708C26.4986 10.3708 26.6894 10.5616 26.6894 10.7971C26.6894 11.3215 26.0598 11.6878 25.1584 11.6878C24.257 11.6878 23.6275 11.3217 23.6275 10.7971C23.6277 10.5618 23.8185 10.371 24.054 10.371Z" fill="#E5CBBD"/>
<path d="M22.2222 13.9336C22.2152 13.92 22.2116 13.9049 22.2061 13.8906L21.3891 14.2837L21.2432 17.1665L23.3809 16.1928L22.2222 13.9336Z" fill="white"/>
<path d="M10.4262 35.0861C9.9768 35.0861 9.54297 35.0031 9.13387 34.8501C9.10778 34.9461 9.04912 35.0297 8.96777 35.0868C9.17258 35.4007 9.72647 35.6787 10.4198 35.6787C10.4221 35.6785 10.4248 35.6789 10.4263 35.6787C10.4284 35.679 10.4306 35.6789 10.4328 35.6787C11.1262 35.6787 11.6801 35.4009 11.8849 35.0868C11.8035 35.0297 11.7449 34.9461 11.7188 34.8501C11.3092 35.0031 10.8755 35.0861 10.4262 35.0861Z" fill="#E5CBBD"/>
<path d="M14.0186 29.627C14.0186 29.5595 14.0172 29.4938 14.016 29.4277H10.0981C9.95141 29.4277 9.81499 29.3523 9.73706 29.228L9.09415 28.2041L8.45125 29.228C8.37332 29.3523 8.2369 29.4277 8.09024 29.4277H6.83752C6.83633 29.4937 6.83496 29.5595 6.83496 29.627C6.83496 32.1671 8.44614 34.2334 10.4265 34.2334C12.4072 34.2334 14.0186 32.1671 14.0186 29.627ZM11.793 30.1089C11.9516 29.9503 12.2381 29.9503 12.3967 30.1089C12.4768 30.1874 12.5211 30.2982 12.5211 30.4091C12.5211 30.5216 12.4768 30.6325 12.3967 30.7109C12.3182 30.7911 12.2074 30.8354 12.0948 30.8354C11.9823 30.8354 11.8731 30.7911 11.793 30.7109C11.7145 30.6325 11.6685 30.5216 11.6685 30.4091C11.6685 30.2982 11.7145 30.1874 11.793 30.1089ZM8.45739 30.7177C8.37724 30.6393 8.3329 30.5301 8.3329 30.4176C8.3329 30.305 8.37724 30.1942 8.45739 30.1158C8.61599 29.9572 8.90077 29.9572 9.05937 30.1158C9.13952 30.1959 9.18556 30.305 9.18556 30.4176C9.18556 30.5284 9.13952 30.6393 9.05937 30.7177C8.98092 30.7979 8.87008 30.8439 8.75923 30.8439C8.64668 30.8439 8.53584 30.7979 8.45739 30.7177ZM8.99661 32.5069C8.9961 32.2714 9.18641 32.0803 9.42191 32.0796C9.42226 32.0796 9.4226 32.0796 9.42294 32.0796C9.6083 32.0796 9.76622 32.1979 9.82488 32.3633C9.91151 32.4062 10.1185 32.4665 10.4216 32.4665C10.4233 32.4665 10.425 32.4665 10.4267 32.4665C10.7326 32.4658 10.9413 32.4041 11.0281 32.3608C11.0861 32.1949 11.2439 32.0758 11.4296 32.0753C11.4299 32.0753 11.4303 32.0753 11.4306 32.0753C11.6658 32.0753 11.8564 32.2655 11.8569 32.5006C11.8574 32.6698 11.7844 32.9824 11.2921 33.1746C11.0547 33.2672 10.748 33.3185 10.4286 33.3192C10.426 33.3192 10.4234 33.3192 10.4211 33.3192C9.56976 33.3192 8.9978 32.9933 8.99661 32.5069Z" fill="#E5CBBD"/>
<path d="M0.865903 52.6156C0.834185 52.7571 0.859423 52.901 0.936332 53.0223C1.01324 53.1437 1.13278 53.2276 1.27296 53.2588C1.41348 53.2905 1.55741 53.2651 1.67865 53.1882C1.7999 53.1113 1.88397 52.9917 1.91518 52.8516C1.91757 52.8412 1.92013 52.8309 1.9232 52.8209L4.75111 43.4814L3.09201 42.5L0.865903 52.6156Z" fill="#E5CBBD"/>
<path d="M8.73391 27.1758C8.73561 27.1731 8.8659 26.9456 9.10584 26.9456C9.3057 26.9456 9.4544 27.1731 9.45611 27.1758L10.3347 28.5752H13.9687C13.9687 27.2525 12.7173 24.7397 10.4276 24.7397C8.3509 24.7397 7.14013 26.0608 6.88672 28.5752H7.85533L8.73391 27.1758Z" fill="#E0BC4B"/>
<path d="M12.5547 34.4176V34.435L14.7627 35.2013C15.2063 35.3048 15.5869 35.4684 15.913 35.6672L18.2443 23.8825L15.9735 17.3633C15.3362 18.2535 15.2426 19.0896 15.2366 19.1523C15.2353 19.166 13.9486 25.7309 13.9486 25.7309C14.4251 26.4768 14.8703 27.7532 14.8703 29.6272C14.8702 31.6903 13.9333 33.4895 12.5547 34.4176Z" fill="white"/>
<path d="M27.2888 12.9551C26.6993 13.2706 25.9955 13.4206 25.1601 13.421C25.1599 13.421 25.1599 13.421 25.1597 13.421C25.1596 13.421 25.1592 13.421 25.1591 13.421C25.1589 13.421 25.1585 13.421 25.1584 13.421C25.1582 13.421 25.1582 13.421 25.158 13.421C24.3226 13.4206 23.6187 13.2706 23.0293 12.9551V13.6355L24.2261 15.9687H26.0924L27.2892 13.6355V12.9551H27.2888Z" fill="#E5CBBD"/>
<path d="M28.0935 13.9328L26.9443 16.1732L29.063 17.0235L28.9182 14.2786L28.1096 13.8896C28.1041 13.9041 28.1005 13.9192 28.0935 13.9328Z" fill="white"/>
<path d="M22.3459 8.55871H23.2458C23.6776 8.55871 24.0291 8.24698 24.0291 7.86362V7.33105H21.5625V7.86362C21.5625 8.24681 21.914 8.55871 22.3459 8.55871ZM22.495 7.64398C22.6536 7.48539 22.9383 7.48539 23.0969 7.64398C23.1771 7.72242 23.2214 7.83156 23.2214 7.94411C23.2214 8.05666 23.1771 8.16751 23.0969 8.24595C23.0185 8.3261 22.9076 8.37044 22.7951 8.37044C22.6825 8.37044 22.5734 8.3261 22.495 8.24595C22.4148 8.16751 22.3688 8.05666 22.3688 7.94411C22.3688 7.83156 22.4148 7.72242 22.495 7.64398Z" fill="#D8D5D4"/>
<path d="M3.91991 38.4466C3.91871 38.4526 3.10938 41.5198 3.10938 41.5198L5.25772 42.7906L5.66018 41.5358L4.29439 37.5352C4.02069 38.0077 3.92775 38.4105 3.91991 38.4466Z" fill="#A6D9FF"/>
<path d="M41.3022 18.9099C41.7962 18.3618 42.4453 17.8522 43.2894 17.5144C43.2931 17.513 46.8572 16.5976 46.8572 16.5976V14.452C45.8286 13.523 45.1511 11.9519 45.1511 10.1737V8.99894C45.1511 8.82295 45.2592 8.66504 45.4232 8.60144C45.4272 8.59973 46.1064 8.31358 46.7964 7.34275C46.5869 6.94234 46.4788 6.49299 46.4788 5.99589C46.4788 5.76039 46.6696 5.56957 46.9051 5.56957C47.1407 5.56957 47.3315 5.76039 47.3315 5.99589C47.3315 6.59787 47.5354 7.08149 47.9548 7.47457C49.326 8.75986 52.4094 8.57534 52.4401 8.57347L52.4402 8.57534C52.4495 8.57483 52.4583 8.57262 52.4677 8.57262C52.7032 8.57262 52.894 8.76344 52.894 8.99894V10.1737C52.894 11.9529 52.2158 13.5248 51.1858 14.4539V16.5976C51.1858 16.5976 54.5021 17.4141 54.7443 17.5105C54.7463 17.5112 56.2465 18.3607 56.7412 18.9097C57.269 18.5059 57.5696 18.018 57.6312 17.4537C57.7252 16.593 57.2506 15.7107 56.7386 15.2182C55.9926 14.5003 56.3836 13.5015 56.6946 13.0736C57.0441 12.5613 57.1767 12.0729 57.071 11.6718C56.9465 11.2002 56.5129 10.9014 56.1711 10.7338C54.3147 9.82363 54.1672 7.97388 54.1618 7.89561C54.1611 7.88589 54.1607 7.87617 54.1607 7.86645C54.1607 6.55728 53.767 5.51431 52.9905 4.76671C51.5006 3.3322 49.0617 3.4074 49.0376 3.40809C49.0329 3.40826 49.0283 3.40723 49.0237 3.40723C49.0175 3.40723 49.0119 3.40843 49.0057 3.40809C48.966 3.40689 46.5383 3.33681 45.0532 4.76671C44.2766 5.51431 43.883 6.55728 43.883 7.86645C43.883 7.87617 43.8827 7.88589 43.882 7.89561C43.8765 7.97388 43.729 9.82346 41.8726 10.7338C41.5309 10.9014 41.0972 11.2002 40.9727 11.6718C40.8668 12.0731 40.9995 12.5613 41.3562 13.0838C41.66 13.5015 42.051 14.5003 41.3049 15.2182C40.793 15.7107 40.3184 16.593 40.4124 17.4537C40.4736 18.0182 40.7742 18.506 41.3022 18.9099Z" fill="#534741"/>
<path d="M50.9566 22.1959C52.1046 20.9255 52.101 18.5227 52.0611 17.6847L50.6599 17.3484C50.4682 17.3024 50.3329 17.131 50.3329 16.9339V15.0321C49.9233 15.2292 49.4822 15.3374 49.0223 15.3374C48.5616 15.3374 48.1196 15.2291 47.7097 15.0312V16.9339C47.7097 17.131 47.5744 17.3024 47.3828 17.3484L45.9815 17.6847C45.9416 18.5225 45.9382 20.9253 47.086 22.1959C47.4871 22.6398 47.9837 22.8972 48.5958 22.9763V22.4939C48.5958 22.2583 48.7866 22.0675 49.0221 22.0675C49.2576 22.0675 49.4484 22.2583 49.4484 22.4939V22.9727C50.0591 22.8929 50.5565 22.6388 50.9566 22.1959Z" fill="#E5CBBD"/>
<path d="M26.2692 16.8213H24.0569L23.8652 16.9086L24.5712 18.2843H25.7448L26.457 16.8967L26.2692 16.8213Z" fill="#999999"/>
<path d="M28.0478 3.87429C28.036 3.86321 28.026 3.85553 28.0186 3.85059C27.9595 3.86576 27.8283 3.93653 27.7212 3.99451C27.278 4.23411 26.5365 4.63486 25.1595 4.6352H25.1593C25.1592 4.6352 25.1588 4.6352 25.1587 4.6352C25.1585 4.6352 25.1581 4.6352 25.158 4.6352C25.1578 4.6352 25.1576 4.6352 25.1576 4.6352C23.7809 4.63486 23.0393 4.23411 22.5961 3.99451C22.4893 3.93687 22.3587 3.86627 22.2992 3.85076C22.2905 3.85707 22.277 3.86815 22.2588 3.8864C22.1159 4.0924 21.9904 5.28288 22.0777 6.47796H28.24C28.3271 5.28305 28.2006 4.09155 28.0478 3.87429Z" fill="#E5CBBD"/>
<path d="M21.6555 3.28312C22.1529 2.78534 22.6231 3.03994 23.0011 3.24389C23.4213 3.47087 23.9965 3.78192 25.1583 3.78209C26.3202 3.78192 26.8955 3.47087 27.3156 3.24389C27.6935 3.0396 28.1638 2.78551 28.6611 3.28312C29.1254 3.74747 29.1581 5.4243 29.0925 6.4775H29.18C29.4155 6.4775 29.6063 6.66832 29.6063 6.90383V7.70754C29.8916 7.10369 30.1172 5.91714 29.7478 3.61002C29.5209 2.19206 29.3063 0.85271 25.1582 0.852539C21.01 0.85271 20.7957 2.19206 20.5687 3.61002C20.1995 5.91697 20.4249 7.10352 20.71 7.70737V6.90383C20.71 6.66832 20.9009 6.4775 21.1364 6.4775H21.2239C21.1584 5.4243 21.1915 3.7473 21.6555 3.28312Z" fill="#E0BC4B"/>
<path d="M23.7188 33.1636L25.1579 34.9758L26.597 33.1636L25.6077 19.1367H24.7078L23.7188 33.1636Z" fill="#999999"/>
<path d="M26.2871 7.86362C26.2871 8.24698 26.6386 8.55871 27.0704 8.55871H27.9702C28.4022 8.55871 28.7537 8.24698 28.7537 7.86362V7.33105H26.2871V7.86362ZM27.2191 7.64398C27.3777 7.48539 27.6641 7.48539 27.821 7.64398C27.9012 7.72242 27.9472 7.83156 27.9472 7.94411C27.9472 8.05666 27.9012 8.16751 27.821 8.24595C27.7426 8.3261 27.6335 8.37044 27.5209 8.37044C27.4084 8.37044 27.2975 8.3261 27.2191 8.24595C27.1406 8.16751 27.0946 8.05666 27.0946 7.94411C27.0946 7.83156 27.1406 7.72242 27.2191 7.64398Z" fill="#D8D5D4"/>
<path d="M52.0425 10.1741V9.43757C52.027 9.43757 52.0123 9.43774 51.9961 9.43774C50.975 9.43774 48.6529 9.29671 47.3729 8.09703C47.358 8.08304 47.3454 8.06787 47.3309 8.05371C46.8117 8.72083 46.3043 9.08389 46.0049 9.25885V10.1739C46.0049 12.5508 47.3591 14.4846 49.0236 14.4846C50.6882 14.4848 52.0425 12.551 52.0425 10.1741ZM50.504 10.0494C50.6626 9.89084 50.9474 9.89084 51.106 10.0494C51.1861 10.1296 51.2305 10.2387 51.2305 10.3513C51.2305 10.4638 51.1861 10.573 51.106 10.6531C51.0275 10.7316 50.9167 10.7776 50.8041 10.7776C50.6933 10.7776 50.5824 10.7316 50.504 10.6531C50.4238 10.573 50.3778 10.4638 50.3778 10.3513C50.3778 10.2387 50.4238 10.1279 50.504 10.0494ZM47.2417 10.7776C47.1309 10.7776 47.0201 10.7316 46.9416 10.6531C46.8615 10.573 46.8154 10.4638 46.8154 10.3513C46.8154 10.2387 46.8615 10.1296 46.9416 10.0494C47.1002 9.89084 47.3867 9.89084 47.5436 10.0494C47.6237 10.1296 47.6698 10.2387 47.6698 10.3513C47.6698 10.4638 47.6237 10.573 47.5436 10.6531C47.4651 10.7316 47.3543 10.7776 47.2417 10.7776ZM47.4477 12.4011C47.4477 12.1656 47.6386 11.9747 47.8741 11.9747C48.0768 11.9747 48.2467 12.1164 48.2898 12.3061C48.3739 12.3606 48.6239 12.4578 49.0236 12.4578C49.4233 12.4578 49.6733 12.3606 49.7574 12.3061C49.8006 12.1164 49.9704 11.9747 50.1732 11.9747C50.4087 11.9747 50.5995 12.1656 50.5995 12.4011C50.5995 12.9365 49.9515 13.3105 49.0238 13.3105C48.0958 13.3105 47.4477 12.9365 47.4477 12.4011Z" fill="#E5CBBD"/>
<path d="M38.7065 38.2354H35.1211L35.8825 39.5909H38.5892L38.7065 38.2354Z" fill="white"/>
<path d="M46.7372 70.7962H48.595V47.3857H44.0244C44.1614 49.5002 44.9623 61.0088 46.7372 70.7962Z" fill="#E5CBBD"/>
<path d="M45.4023 74.1473H48.5943V71.6494H46.735C46.6085 72.1977 46.2693 73.2422 45.4023 74.1473Z" fill="#998675"/>
<path d="M38.606 40.4434H36.1611L36.4292 41.6845C36.4318 41.6961 36.4336 41.7078 36.4352 41.7196C36.4751 42.0267 36.6323 42.2999 36.8777 42.4889C37.1233 42.6778 37.4272 42.7597 37.7346 42.7199C38.0417 42.68 38.3148 42.523 38.5037 42.2774C38.6927 42.032 38.7747 41.7276 38.7348 41.4205L38.606 40.4434Z" fill="#E5CBBD"/>
<path d="M37.5907 31.9701C37.5905 31.9693 37.5904 31.9682 37.5902 31.9674L35.0851 19.1951C35.0822 19.1805 34.9792 18.2533 34.3422 17.3633L32.0713 23.8825L34.742 37.3829H38.6524L37.5907 31.9701Z" fill="white"/>
<path d="M31.3597 15.4439C31.3329 15.4369 29.7949 14.7002 29.7949 14.7002L29.9503 17.6454C29.9579 17.7909 29.8909 17.9301 29.7726 18.0146C29.6991 18.0672 29.6121 18.0943 29.5244 18.0943C29.4709 18.0943 29.417 18.0842 29.3657 18.0636L27.2521 17.2154L26.4394 18.7992L27.4598 33.269C27.4673 33.3754 27.4348 33.4806 27.3684 33.564L25.584 35.8111V37.1797H31.2045V23.8516C31.2045 23.7639 31.2255 23.7191 31.2282 23.7114L33.6919 16.639C33.1504 16.1545 32.4006 15.714 31.3597 15.4439Z" fill="white"/>
<path d="M30.6983 72.0449H27.1172V74.1476H32.6472C32.6095 73.7129 32.4778 73.0197 32.0355 72.5531C31.7111 72.2112 31.2737 72.0449 30.6983 72.0449Z" fill="#333333"/>
<path d="M6.80575 73.0127C6.4606 73.0134 6.20088 73.1111 6.01159 73.311C5.78819 73.5468 5.69543 73.8839 5.65723 74.1469H9.07211L9.07177 73.0127H6.80575Z" fill="#C69C6D"/>
<path d="M57.3651 21.8152C57.3491 21.7457 57.1091 20.7559 56.3711 19.7965C56.3428 19.7704 56.3174 19.7405 56.2962 19.7061C56.2933 19.7015 56.292 19.6964 56.2894 19.6918C56.0438 19.3889 55.7463 19.093 55.3897 18.8335C55.5036 20.0891 54.6989 21.417 54.2139 22.0911C55.2662 22.6687 55.7845 23.6931 55.6165 24.9225C55.545 25.4458 55.3511 25.9305 55.0822 26.3247L59.5274 40.9251C59.5305 40.9352 59.9418 41.9251 60.7432 41.7182C61.2824 41.5791 61.6285 41.0538 61.5061 40.5104L57.3651 21.8152Z" fill="#E5CBBD"/>
<path d="M49.4492 70.7962H51.3068C53.0819 61.0088 53.8827 49.5 54.0196 47.3857H49.4492V70.7962Z" fill="#E5CBBD"/>
<path d="M53.4024 22.6596C53.2699 22.6124 53.1693 22.5027 53.1335 22.3666C53.0978 22.2305 53.1314 22.0856 53.2233 21.9794C53.2435 21.956 55.1983 19.6593 54.326 18.2637C54.1514 18.1989 52.9244 17.8926 52.9244 17.8926C52.9546 18.9944 52.8562 21.3656 51.5917 22.7667C50.9401 23.4887 50.0764 23.855 49.0245 23.8559C49.024 23.8559 49.0237 23.856 49.0232 23.856C49.0228 23.856 49.0226 23.856 49.0223 23.856C49.022 23.856 49.0218 23.856 49.0215 23.856C49.0209 23.856 49.0206 23.8559 49.0201 23.8559C47.9683 23.8552 47.1045 23.4887 46.4529 22.7667C45.1884 21.3654 45.09 18.9944 45.1202 17.8926C45.1202 17.8926 43.8934 18.1992 43.7178 18.265C42.8612 19.6451 44.801 21.956 44.8213 21.9795C44.9132 22.0859 44.947 22.2309 44.9111 22.3668C44.8753 22.5029 44.7747 22.6125 44.6422 22.6598C43.2104 23.1714 43.207 24.3322 43.272 24.8074C43.3864 25.6442 43.9577 26.4121 44.4949 26.4505C44.6733 26.4633 44.8247 26.5861 44.8741 26.758L45.9877 30.6299C46.0363 30.7989 45.9761 30.9803 45.8363 31.0867C43.285 33.0311 42.0735 35.1848 42.5331 41.5606C42.6995 43.8687 41.9676 45.6219 41.4639 46.5312H56.5804C56.0765 45.6219 55.3447 43.8685 55.5112 41.5606C55.9708 35.1848 54.7593 33.0309 52.208 31.0867C52.0682 30.9801 52.0081 30.7989 52.0566 30.6299L53.1701 26.758C53.2196 26.5861 53.371 26.4633 53.5494 26.4505C54.0864 26.4121 54.6578 25.6442 54.7723 24.8074C54.8374 24.332 54.834 23.1712 53.4024 22.6596Z" fill="#ED8EBC"/>
<path d="M49.4492 71.6494V74.1473H52.6412C51.7742 73.2422 51.4349 72.1977 51.3085 71.6494H49.4492Z" fill="#998675"/>
<path d="M43.8306 22.0911C43.3465 21.4184 42.5436 20.0942 42.654 18.8408C41.1171 19.9711 40.6843 21.7937 40.6789 21.8173L38.4463 31.8968L39.551 37.5291L42.9623 26.3246C42.6934 25.9303 42.4996 25.4457 42.428 24.9223C42.2599 23.6931 42.7781 22.6686 43.8306 22.0911Z" fill="#E5CBBD"/>
<path d="M6.69142 52.541L5.74805 61.4105H9.44874L10.0021 55.0833C10.0227 54.8486 10.2294 54.6757 10.4641 54.6957C10.6735 54.7139 10.8331 54.8809 10.8507 55.0831L10.8515 55.083L11.409 61.4105H15.1056L14.1622 52.541H6.69142Z" fill="#B7C16F"/>
<path d="M18.9378 52.8516C18.9692 52.9916 19.0531 53.1111 19.1744 53.1882C19.2956 53.2651 19.4395 53.2902 19.5799 53.2588C19.7201 53.2274 19.8396 53.1435 19.9165 53.0223C19.9934 52.901 20.0187 52.7571 19.9873 52.6171L18.2688 44.8081C18.2687 44.8075 18.2685 44.8069 18.2683 44.8063L17.7608 42.5L16.1016 43.4814L18.9295 52.8209C18.9329 52.8309 18.9356 52.8412 18.9378 52.8516Z" fill="#E5CBBD"/>
<path d="M11.7816 73.0127L11.7812 74.1469H15.1961C15.1581 73.8843 15.0652 73.5468 14.8418 73.311C14.6525 73.1111 14.3928 73.0134 14.0476 73.0127H11.7816Z" fill="#C69C6D"/>
<path d="M15.8904 36.7101C15.5543 36.4119 15.1172 36.1561 14.5507 36.0273C14.5355 36.0239 12.6911 35.3848 12.6911 35.3848C12.3667 36.0514 11.4781 36.5314 10.4329 36.5314C10.431 36.5314 10.4293 36.5314 10.4274 36.5314C10.4269 36.5314 10.4263 36.5314 10.4256 36.5314C10.4237 36.5314 10.422 36.5314 10.4201 36.5314C9.37476 36.5314 8.4863 36.0514 8.16195 35.3848C8.16195 35.3848 6.31748 36.0239 6.30231 36.0273C5.715 36.161 5.2665 36.4308 4.92578 36.743L6.51342 41.3938C6.51564 41.4004 6.5361 41.5152 6.53628 41.5235L6.72625 51.6884H14.1268L14.3167 41.5235C14.3169 41.5152 14.3374 41.4004 14.3396 41.3938L15.9272 36.7432C15.9144 36.7325 15.9017 36.7221 15.8904 36.7101Z" fill="#A6D9FF"/>
<path d="M11.7845 62.2632L11.7812 72.1599H13.6431L14.1562 62.2632H11.7845Z" fill="#E5CBBD"/>
<path d="M16.9312 38.4453C16.9235 38.4098 16.8306 38.0074 16.5572 37.5352L15.1914 41.5358L15.5939 42.7906L17.7422 41.5198C17.742 41.5198 16.9325 38.4521 16.9312 38.4453Z" fill="#A6D9FF"/>
<path d="M31.2035 39.5498H19.1113V44.6741L20.8185 52.4315C20.8993 52.7926 20.8344 53.1648 20.6354 53.4784C20.4364 53.792 20.1272 54.0093 19.7648 54.0901C19.663 54.1128 19.5605 54.1241 19.4587 54.1241C19.341 54.1241 19.2247 54.107 19.1115 54.0773V71.191H23.221L24.7327 43.6882C24.7457 43.4531 24.9448 43.271 25.1817 43.286C25.4008 43.2981 25.57 43.4741 25.5818 43.6882H25.5825L27.0944 71.191H31.2037V39.5498H31.2035Z" fill="#4D4D4D"/>
<path d="M31.2046 38.0322H26.5225V38.6975H31.2046V38.0322Z" fill="#999999"/>
<path d="M9.0703 72.1599L9.06706 62.2632H6.69531L7.20844 72.1599H9.0703Z" fill="#E5CBBD"/>
<path d="M18.278 72.5558C17.8408 73.0192 17.7086 73.7125 17.6699 74.1476H23.1989V72.0449H19.6177C19.0408 72.0449 18.6026 72.212 18.278 72.5558Z" fill="#333333"/>
<path d="M11.2926 33.1744C11.7849 32.9824 11.8579 32.6698 11.8574 32.5005C11.8569 32.2653 11.6662 32.0752 11.4311 32.0752C11.4307 32.0752 11.4304 32.0752 11.43 32.0752C11.2443 32.0757 11.0866 32.1947 11.0286 32.3607C10.9416 32.404 10.7329 32.4657 10.4271 32.4664C10.4254 32.4664 10.4237 32.4664 10.422 32.4664C10.119 32.4664 9.91197 32.406 9.82534 32.3632C9.76668 32.1978 9.60894 32.0795 9.4234 32.0795C9.42306 32.0795 9.42272 32.0795 9.42238 32.0795C9.18687 32.08 8.99656 32.2713 8.99707 32.5068C8.99827 32.9932 9.57023 33.319 10.4215 33.319C10.4241 33.319 10.4266 33.319 10.429 33.319C10.7484 33.3184 11.0552 33.267 11.2926 33.1744Z" fill="#1C1B1A"/>
<path d="M9.18469 30.4169C9.18469 30.3043 9.13864 30.1952 9.05849 30.115C8.8999 29.9564 8.61511 29.9564 8.45652 30.115C8.37637 30.1935 8.33203 30.3043 8.33203 30.4169C8.33203 30.5294 8.37637 30.6386 8.45652 30.717C8.53496 30.7972 8.64581 30.8432 8.75836 30.8432C8.8692 30.8432 8.98005 30.7972 9.05849 30.717C9.13864 30.6386 9.18469 30.5277 9.18469 30.4169Z" fill="#1C1B1A"/>
<path d="M12.0953 30.8352C12.2078 30.8352 12.3187 30.7908 12.3971 30.7107C12.4773 30.6322 12.5216 30.5214 12.5216 30.4088C12.5216 30.298 12.4773 30.1871 12.3971 30.1087C12.2385 29.9501 11.952 29.9501 11.7934 30.1087C11.715 30.1871 11.6689 30.298 11.6689 30.4088C11.6689 30.5214 11.715 30.6322 11.7934 30.7107C11.8736 30.7908 11.9827 30.8352 12.0953 30.8352Z" fill="#1C1B1A"/>
<path d="M25.1586 11.6881C26.06 11.6881 26.6896 11.322 26.6896 10.7974C26.6896 10.5619 26.4988 10.3711 26.2633 10.3711C26.0629 10.3711 25.8948 10.5094 25.8493 10.6956C25.7662 10.7468 25.5299 10.8354 25.1588 10.8354C24.7877 10.8354 24.5512 10.7468 24.4683 10.6958C24.4226 10.5094 24.2546 10.3713 24.0543 10.3713C23.8188 10.3713 23.6279 10.5621 23.6279 10.7976C23.6278 11.3218 24.2574 11.6881 25.1586 11.6881Z" fill="#1C1B1A"/>
<path d="M22.7955 8.36982C22.908 8.36982 23.0189 8.32548 23.0973 8.24533C23.1775 8.16689 23.2218 8.05604 23.2218 7.94349C23.2218 7.83094 23.1775 7.7218 23.0973 7.64336C22.9387 7.48477 22.6539 7.48477 22.4953 7.64336C22.4152 7.7218 22.3691 7.83094 22.3691 7.94349C22.3691 8.05604 22.4152 8.16689 22.4953 8.24533C22.5738 8.32548 22.6829 8.36982 22.7955 8.36982Z" fill="#1C1B1A"/>
<path d="M27.5201 8.36982C27.6326 8.36982 27.7418 8.32548 27.8202 8.24533C27.9004 8.16689 27.9464 8.05604 27.9464 7.94349C27.9464 7.83094 27.9004 7.7218 27.8202 7.64336C27.6633 7.48477 27.3768 7.48477 27.2182 7.64336C27.1398 7.7218 27.0938 7.83094 27.0938 7.94349C27.0938 8.05604 27.1398 8.16689 27.2182 8.24533C27.2967 8.32548 27.4075 8.36982 27.5201 8.36982Z" fill="#1C1B1A"/>
<path d="M50.598 12.4009C50.598 12.1654 50.4072 11.9746 50.1717 11.9746C49.969 11.9746 49.7991 12.1163 49.756 12.306C49.6719 12.3605 49.4219 12.4577 49.0222 12.4577C48.6224 12.4577 48.3724 12.3605 48.2884 12.306C48.2452 12.1163 48.0754 11.9746 47.8726 11.9746C47.6371 11.9746 47.4463 12.1654 47.4463 12.4009C47.4463 12.9364 48.0943 13.3104 49.022 13.3104C49.95 13.3104 50.598 12.9364 50.598 12.4009Z" fill="#1C1B1A"/>
<path d="M47.6688 10.3514C47.6688 10.2389 47.6228 10.1298 47.5426 10.0496C47.3857 9.89102 47.0992 9.89102 46.9406 10.0496C46.8605 10.1298 46.8145 10.2389 46.8145 10.3514C46.8145 10.464 46.8605 10.5731 46.9406 10.6533C47.0191 10.7317 47.1299 10.7778 47.2408 10.7778C47.3533 10.7778 47.4642 10.7317 47.5426 10.6533C47.6228 10.5731 47.6688 10.464 47.6688 10.3514Z" fill="#1C1B1A"/>
<path d="M50.8033 10.7778C50.9158 10.7778 51.0267 10.7317 51.1051 10.6533C51.1853 10.5731 51.2296 10.464 51.2296 10.3514C51.2296 10.2389 51.1853 10.1298 51.1051 10.0496C50.9465 9.89102 50.6617 9.89102 50.5031 10.0496C50.423 10.1281 50.377 10.2389 50.377 10.3514C50.377 10.464 50.423 10.5731 50.5031 10.6533C50.5816 10.7317 50.6924 10.7778 50.8033 10.7778Z" fill="#1C1B1A"/>
<path d="M58.1976 21.6286C58.1805 21.5532 57.9527 20.5971 57.2673 19.5829C58.1483 18.9051 58.417 18.1179 58.4793 17.5464C58.6131 16.3193 57.944 15.1943 57.3302 14.6039C56.9331 14.2218 57.3673 13.5997 57.392 13.5649C58.0241 12.6387 58.0149 11.9061 57.8957 11.4546C57.7322 10.8349 57.2658 10.3209 56.5467 9.96838C55.1916 9.304 55.0274 7.99108 55.0136 7.84834C55.0098 6.30453 54.5267 5.05982 53.5775 4.14851C51.8772 2.51567 49.2894 2.54807 49.0225 2.55592C48.7619 2.5479 46.1693 2.51328 44.4664 4.14851C43.5174 5.05982 43.0343 6.30453 43.0304 7.84834C43.0171 7.9817 42.8513 9.30468 41.4973 9.96855C40.7783 10.321 40.3118 10.835 40.1482 11.4547C40.029 11.9063 40.0198 12.6389 40.658 13.5736C40.6765 13.5998 41.1109 14.2219 40.7137 14.6041C40.1 15.1946 39.4308 16.3196 39.5647 17.5466C39.6271 18.1182 39.8958 18.9056 40.777 19.5833C40.0911 20.5976 39.8633 21.5544 39.8459 21.6308L38.035 29.8057L35.9255 19.0503C35.8885 18.7144 35.4458 15.6445 31.6142 14.6297L28.1406 12.959V12.3001C28.8147 11.5857 29.2714 10.5132 29.5572 9.03098C30.1336 8.71379 31.244 7.56339 30.5896 3.47559C30.2967 1.64426 29.6606 0.000341062 25.1592 0C25.1592 0 25.1592 0 25.1591 0C25.1589 0 25.1586 0 25.1584 0C25.1582 0 25.1579 0 25.1577 0C25.1575 0 25.1575 0 25.1575 0C20.6562 0.000341062 20.0201 1.64426 19.727 3.47542C19.0727 7.56305 20.183 8.71328 20.7592 9.03063C21.045 10.5129 21.5017 11.5854 22.1758 12.2997V12.9586L18.7024 14.6293C14.8708 15.6442 14.4279 18.7141 14.3909 19.05L13.2439 24.8977C12.2804 24.0382 11.1172 23.8869 10.4266 23.8869C9.14981 23.8869 5.98237 24.0931 5.98237 29.6268C5.98237 31.6901 6.91926 33.4894 8.29766 34.4172V34.4348L6.08963 35.2012C3.7039 35.7579 3.13672 38.0471 3.08965 38.2561L2.20357 41.6133C2.16333 41.7661 2.21193 41.9247 2.32277 42.0302L0.034078 52.4304C-0.0470947 52.7928 0.0178773 53.1652 0.216887 53.4788C0.415896 53.7924 0.725069 54.0097 1.08745 54.0905C1.18925 54.1132 1.29174 54.1245 1.39355 54.1245C1.65429 54.1245 1.91026 54.0506 2.13587 53.9075C2.4447 53.7116 2.66008 53.4089 2.74381 53.0537L5.53012 43.852C5.57156 43.8491 5.7027 43.8056 5.72572 43.7913L5.8809 52.0957L4.84953 61.7912C4.83674 61.9114 4.87562 62.0315 4.95645 62.1215C5.03728 62.2114 5.15256 62.2627 5.27347 62.2627H5.84202L6.35736 72.2012C5.97179 72.2765 5.64676 72.4531 5.38738 72.7289C4.71959 73.4395 4.77791 74.5512 4.78081 74.5982C4.79428 74.8233 4.98084 74.9992 5.20645 74.9992H9.4982C9.61126 74.9992 9.71972 74.9541 9.7997 74.8743C9.87968 74.7943 9.92453 74.6859 9.92453 74.5726L9.92385 72.586V72.5858L9.92027 62.2549C10.1038 62.2194 10.247 62.0661 10.2639 61.8734L10.4281 59.9957L10.5935 61.8737C10.6104 62.0647 10.7514 62.2167 10.9327 62.2537L10.9291 72.5858V72.586L10.9284 74.5726C10.9284 74.6857 10.9733 74.7942 11.0533 74.8743C11.1333 74.9543 11.2417 74.9992 11.3548 74.9992H15.6465C15.8721 74.9992 16.0587 74.8235 16.0722 74.5982C16.0751 74.5513 16.1334 73.4395 15.4656 72.7289C15.2062 72.4529 14.8812 72.2765 14.4956 72.2012L15.011 62.2627H15.5793C15.7002 62.2627 15.8155 62.2114 15.8963 62.1215C15.9772 62.0316 16.0161 61.9114 16.0033 61.7912L14.9719 52.0957L15.1271 43.7913C15.1501 43.8056 15.2812 43.8491 15.3227 43.852L18.109 53.0537C18.1409 53.1886 18.1917 53.3156 18.2594 53.4323V71.5074C18.0367 71.6278 17.8355 71.7814 17.6578 71.9697C16.7215 72.9615 16.8007 74.5312 16.8046 74.5975C16.8176 74.8232 17.0043 74.9993 17.2302 74.9993H23.6252C23.8607 74.9993 24.0515 74.8085 24.0515 74.573V71.6289L25.1584 51.4921L26.2655 71.6289V74.573C26.2655 74.8085 26.4563 74.9993 26.6918 74.9993H33.0867C33.3127 74.9993 33.4992 74.8232 33.5124 74.5975C33.5161 74.5312 33.5954 72.9615 32.6592 71.9697C32.4813 71.7812 32.2799 71.6276 32.0574 71.5074V37.6062V28.2036C32.0574 28.2036 34.0158 38.0096 34.0205 38.018L35.2294 40.1701L35.592 41.8485C35.6651 42.3739 35.9365 42.8408 36.3573 43.1648C36.7129 43.4385 37.1394 43.5829 37.5805 43.5829C37.668 43.5829 37.7562 43.5773 37.8444 43.5657C38.3773 43.4965 38.8513 43.2238 39.1791 42.7978C39.5069 42.3718 39.6493 41.8438 39.58 41.3101L39.4777 40.5342C39.5229 40.4873 39.5584 40.4295 39.5787 40.363L43.6428 27.0141C43.7973 27.1166 43.9596 27.1956 44.1271 27.2445L45.0885 30.5878C42.0873 32.9747 41.2569 35.7126 41.6827 41.6213C41.9018 44.6602 40.3658 46.6774 40.351 46.6966C40.2502 46.8252 40.2318 47.2391 40.3036 47.3859C40.3752 47.5322 40.5239 47.3859 40.6866 47.3859C40.6869 47.3859 40.6875 47.3859 40.688 47.3859H43.1702C43.2991 49.3909 44.116 61.2573 45.9499 71.2302C45.8955 71.5577 45.5437 73.2492 43.9768 74.2101C43.814 74.31 43.7376 74.5056 43.7892 74.6895C43.8411 74.8731 44.0087 75 44.1995 75H53.8448C54.0356 75 54.2032 74.8731 54.2551 74.6895C54.3069 74.5056 54.2303 74.31 54.0675 74.2101C52.5008 73.2493 52.1488 71.5582 52.0944 71.2304C53.9283 61.2576 54.7452 49.391 54.8741 47.3861H57.3563C57.3568 47.3861 57.3572 47.3861 57.3577 47.3861C57.5206 47.3861 57.6693 47.5324 57.7407 47.3861C57.8123 47.2393 57.7939 46.8254 57.6933 46.6968C57.6778 46.677 56.1413 44.6772 56.3616 41.6215C56.7874 35.7128 55.957 32.9749 52.9558 30.588L53.9172 27.2447C54.0845 27.1958 54.247 27.1168 54.4015 27.0143L58.7081 41.1592C58.9092 42.0147 59.6752 42.5959 60.5212 42.5957C60.6566 42.5957 60.7941 42.5809 60.9315 42.5497C61.9332 42.3236 62.5645 41.3244 62.3389 40.3242L58.1976 21.6286ZM40.4124 17.4538C40.3184 16.5932 40.793 15.7108 41.3049 15.2183C42.051 14.5004 41.66 13.5016 41.3563 13.084C40.9995 12.5615 40.8668 12.0731 40.9727 11.672C41.0972 11.2003 41.5309 10.9015 41.8726 10.7339C43.729 9.82377 43.8765 7.97402 43.882 7.89575C43.8827 7.88603 43.883 7.87631 43.883 7.86659C43.883 6.55743 44.2768 5.51446 45.0532 4.76685C46.5384 3.33695 48.966 3.40704 49.0058 3.40823C49.0119 3.40857 49.0175 3.40738 49.0237 3.40738C49.0285 3.40738 49.0329 3.4084 49.0377 3.40823C49.0619 3.40755 51.5006 3.33234 52.9906 4.76685C53.7672 5.51446 54.1608 6.55743 54.1608 7.86659C54.1608 7.87631 54.1611 7.88603 54.1618 7.89575C54.1672 7.97402 54.3148 9.8236 56.1712 10.7339C56.5129 10.9015 56.9465 11.2003 57.071 11.672C57.1769 12.0732 57.0443 12.5615 56.6947 13.0738C56.3836 13.5016 55.9926 14.5004 56.7387 15.2183C57.2506 15.7108 57.7252 16.5932 57.6312 17.4538C57.5697 18.0181 57.2692 18.506 56.7412 18.9098C56.2465 18.3609 54.7464 17.5115 54.7443 17.5106C54.5022 17.4143 51.1858 16.5978 51.1858 16.5978V14.454C52.2157 13.5251 52.8941 11.9532 52.8941 10.1739V8.99909C52.8941 8.76358 52.7032 8.57276 52.4677 8.57276C52.4583 8.57276 52.4495 8.57498 52.4403 8.57549L52.4401 8.57361C52.4094 8.57549 49.326 8.75983 47.9548 7.47471C47.5355 7.08164 47.3315 6.59801 47.3315 5.99604C47.3315 5.76053 47.1407 5.56971 46.9052 5.56971C46.6697 5.56971 46.4789 5.76053 46.4789 5.99604C46.4789 6.49313 46.587 6.94248 46.7964 7.34289C46.1064 8.31355 45.4274 8.59987 45.4233 8.60158C45.2592 8.66536 45.1511 8.8231 45.1511 8.99909V10.1739C45.1511 11.952 45.8286 13.5231 46.8573 14.4522V16.5978C46.8573 16.5978 43.2932 17.5132 43.2894 17.5145C42.4453 17.8524 41.7962 18.3619 41.3022 18.91C40.7746 18.5062 40.4739 18.0183 40.4124 17.4538ZM49.023 22.0674C48.7875 22.0674 48.5967 22.2582 48.5967 22.4937V22.9761C47.9846 22.8972 47.4881 22.6397 47.087 22.1958C45.9389 20.9253 45.9425 18.5226 45.9824 17.6846L47.3837 17.3483C47.5754 17.3022 47.7106 17.1309 47.7106 16.9337V15.0313C48.1207 15.2291 48.5626 15.3374 49.0232 15.3374C49.4831 15.3374 49.9244 15.2293 50.3339 15.0321V16.9339C50.3339 17.131 50.4691 17.3024 50.6608 17.3484L52.062 17.6847C52.1019 18.5226 52.1055 20.9253 50.9575 22.196C50.5573 22.639 50.0598 22.8929 49.4495 22.9726V22.4937C49.4493 22.2582 49.2585 22.0674 49.023 22.0674ZM46.0041 10.174V9.25898C46.3035 9.08401 46.8109 8.72095 47.3301 8.05383C47.3446 8.06799 47.3571 8.08316 47.3721 8.09715C48.6521 9.29683 50.9744 9.43786 51.9954 9.43786C52.0116 9.43786 52.0262 9.43769 52.0417 9.43769V10.1742C52.0417 12.5511 50.6876 14.4849 49.0228 14.4849C47.3583 14.4847 46.0041 12.5509 46.0041 10.174ZM28.9186 14.2789L29.0634 17.0238L26.9447 16.1735L28.0939 13.9331C28.1009 13.9194 28.1045 13.9044 28.1099 13.8901L28.9186 14.2789ZM24.5716 18.2842L23.8656 16.9085L24.0573 16.8212H26.2696L26.4573 16.8965L25.7452 18.2842H24.5716ZM26.5975 33.1637L25.1584 34.9759L23.7193 33.1637L24.7084 19.1368H25.6083L26.5975 33.1637ZM26.0915 15.9685H24.2253L23.0285 13.6353V12.9549C23.6178 13.2704 24.3218 13.4204 25.1572 13.4208C25.1574 13.4208 25.1574 13.4208 25.1575 13.4208C25.1579 13.4208 25.1581 13.4208 25.1582 13.4208C25.1584 13.4208 25.1587 13.4208 25.1589 13.4208C25.1591 13.4208 25.1591 13.4208 25.1592 13.4208C25.9947 13.4204 26.6986 13.2704 27.288 12.9549V13.6353L26.0915 15.9685ZM28.7537 7.86284C28.7537 8.24619 28.4022 8.55792 27.9703 8.55792H27.0704C26.6386 8.55792 26.2871 8.24619 26.2871 7.86284V7.33027H28.7537V7.86284ZM22.0772 6.47745C21.9899 5.28237 22.1156 4.09189 22.2583 3.88589C22.2766 3.86764 22.2902 3.85656 22.2988 3.85025C22.3583 3.86559 22.4889 3.93619 22.5957 3.994C23.0389 4.2336 23.7805 4.63435 25.1572 4.63469C25.1572 4.63469 25.1574 4.63469 25.1575 4.63469C25.1579 4.63469 25.1581 4.63469 25.1582 4.63469C25.1584 4.63469 25.1587 4.63469 25.1589 4.63469C25.1591 4.63469 25.1591 4.63469 25.1591 4.63469C26.5361 4.63435 27.2776 4.2336 27.7208 3.994C27.8279 3.93619 27.9589 3.86525 28.0182 3.85008C28.0254 3.85502 28.0356 3.8627 28.0474 3.87378C28.2 4.09104 28.3267 5.28237 28.2392 6.47745H22.0772ZM21.1366 6.47745C20.9011 6.47745 20.7103 6.66827 20.7103 6.90377V7.70731C20.4251 7.10346 20.1995 5.91691 20.5689 3.60997C20.7959 2.192 21.0102 0.852655 25.1584 0.852484C29.3064 0.852655 29.5209 2.192 29.7481 3.60997C30.1173 5.91708 29.8918 7.10363 29.6065 7.70748V6.90377C29.6065 6.66827 29.4157 6.47745 29.1802 6.47745H29.0927C29.1584 5.42425 29.1256 3.74725 28.6613 3.28306C28.1638 2.78545 27.6937 3.03971 27.3158 3.24384C26.8958 3.47082 26.3204 3.78186 25.1586 3.78203C23.9969 3.78186 23.4215 3.47082 23.0013 3.24384C22.6235 3.03971 22.1531 2.78528 21.6557 3.28306C21.1915 3.74725 21.1586 5.42425 21.2242 6.47745H21.1366ZM21.5629 7.3301H24.0295V7.86267C24.0295 8.24602 23.678 8.55775 23.2462 8.55775H22.3463C21.9144 8.55775 21.5629 8.24602 21.5629 7.86267V7.3301ZM21.6825 9.2762C21.8856 9.3618 22.1098 9.41058 22.3463 9.41058H23.2462C24.1483 9.41058 24.8821 8.71635 24.8821 7.86284V7.33027H25.4345V7.86284C25.4345 8.71618 26.1683 9.41058 27.0704 9.41058H27.9703C28.2066 9.41058 28.4309 9.3618 28.6342 9.2762C28.0121 11.988 26.788 12.5681 25.1584 12.5683C23.5286 12.568 22.3047 11.988 21.6825 9.2762ZM21.3898 14.283L22.2068 13.8899C22.2123 13.9042 22.2159 13.9192 22.2229 13.9329L23.3816 16.1921L21.2439 17.1658L21.3898 14.283ZM18.9574 15.444C18.9842 15.437 20.5148 14.7037 20.5148 14.7037L20.3569 17.8229C20.3494 17.9716 20.4199 18.1135 20.543 18.197C20.6148 18.246 20.6985 18.2709 20.7826 18.2709C20.8426 18.2709 20.903 18.2582 20.9594 18.2325L23.089 17.2625L23.8775 18.7993L22.8573 33.2692C22.8497 33.3756 22.8823 33.4808 22.9487 33.5642L24.7314 35.8093V37.18H19.1124V23.8518C19.1184 23.7962 19.0912 23.7193 19.0887 23.7116L16.6252 16.6392C17.1666 16.1546 17.9163 15.7141 18.9574 15.444ZM25.6696 38.0325V38.6977H24.647V38.0325H25.6696ZM23.7943 38.0325V38.6977H19.1122V38.0325H23.7943ZM15.2376 19.1523C15.2437 19.0896 15.3372 18.2535 15.9745 17.3633L18.2452 23.8825L15.9139 35.6672C15.5877 35.4684 15.2072 35.3048 14.7637 35.2013L12.5556 34.435V34.4176C13.9342 33.4895 14.8711 31.6903 14.8711 29.627C14.8711 27.753 14.4259 26.4766 13.9494 25.7307C13.9494 25.7309 15.2362 19.166 15.2376 19.1523ZM18.2596 28.2036V37.6063V40.1358L17.7635 38.2564C17.7331 38.121 17.4837 37.1133 16.6641 36.2687L18.2596 28.2036ZM10.4267 24.7398C12.7163 24.7398 13.9678 27.2524 13.9678 28.5752H10.3338L9.45523 27.1758C9.45352 27.1731 9.30482 26.9456 9.10496 26.9456C8.86519 26.9456 8.73491 27.1731 8.73303 27.1758L7.85445 28.5752H6.88584C7.13925 26.0609 8.35002 24.7398 10.4267 24.7398ZM6.83502 29.627C6.83502 29.5595 6.83639 29.4938 6.83758 29.4277H8.0903C8.23696 29.4277 8.37338 29.3523 8.45131 29.228L9.09421 28.2041L9.73712 29.228C9.81505 29.3523 9.95147 29.4277 10.0981 29.4277H14.0162C14.0174 29.4937 14.0188 29.5595 14.0188 29.627C14.0188 32.1671 12.4075 34.2334 10.4269 34.2334C8.4462 34.2334 6.83502 32.1671 6.83502 29.627ZM11.8851 35.0867C11.6803 35.4007 11.1266 35.6786 10.4331 35.6786C10.431 35.6788 10.4288 35.679 10.4266 35.6786C10.4252 35.6788 10.4223 35.6785 10.4201 35.6786C9.72671 35.6786 9.17283 35.4009 8.96802 35.0867C9.04936 35.0296 9.10803 34.946 9.13412 34.85C9.54322 35.003 9.97705 35.0861 10.4264 35.0861C10.8758 35.0861 11.3096 35.003 11.7187 34.85C11.7451 34.946 11.8038 35.0296 11.8851 35.0867ZM1.9239 52.8208C1.92083 52.8308 1.9181 52.841 1.91589 52.8514C1.88451 52.9915 1.80061 53.111 1.67936 53.1881C1.55811 53.2652 1.41418 53.2904 1.27367 53.2587C1.13366 53.2273 1.01412 53.1434 0.937039 53.0222C0.860129 52.9009 0.834891 52.757 0.86661 52.6154L3.09272 42.4999L4.75181 43.4813L1.9239 52.8208ZM5.25863 42.7903L3.11029 41.5195C3.11029 41.5195 3.91962 38.4523 3.92082 38.4464C3.92866 38.4102 4.0216 38.0074 4.2953 37.5349L5.66109 41.5355L5.25863 42.7903ZM5.65682 74.147C5.69485 73.884 5.78779 73.5469 6.01119 73.3111C6.20048 73.1112 6.46019 73.0135 6.80535 73.0128H9.07153L9.07187 74.147H5.65682ZM6.69604 62.2632H9.06778L9.07119 72.1601H7.20917L6.69604 62.2632ZM14.8421 73.3109C15.0655 73.5469 15.1585 73.8842 15.1965 74.1468H11.7816L11.782 73.0126H14.0481C14.3931 73.0135 14.6528 73.111 14.8421 73.3109ZM11.7823 72.16L11.7857 62.2631H14.1574L13.6443 72.16H11.7823ZM15.1054 61.4106H11.4088L10.8514 55.083L10.8505 55.0832C10.8328 54.8809 10.6732 54.714 10.4639 54.6957C10.2293 54.6758 10.0228 54.8487 10.002 55.0834L9.44858 61.4106H5.74789L6.69126 52.5411H14.1621L15.1054 61.4106ZM14.3397 41.3936C14.3375 41.4003 14.3171 41.5151 14.3169 41.5234L14.1269 51.6883H6.72639L6.53642 41.5234C6.53625 41.5152 6.51579 41.4003 6.51357 41.3936L4.92593 36.7429C5.26682 36.4307 5.71514 36.1607 6.30245 36.0272C6.31763 36.0238 8.16209 35.3846 8.16209 35.3846C8.48644 36.0513 9.37491 36.5313 10.4203 36.5313C10.422 36.5313 10.4238 36.5313 10.4257 36.5313C10.4262 36.5313 10.4269 36.5313 10.4276 36.5313C10.4293 36.5313 10.4312 36.5313 10.4331 36.5313C11.4782 36.5313 12.3669 36.0513 12.6912 35.3846C12.6912 35.3846 14.5357 36.0238 14.5509 36.0272C15.1175 36.1561 15.5544 36.4118 15.8906 36.71C15.9018 36.722 15.9146 36.7325 15.9272 36.7431L14.3397 41.3936ZM15.1922 41.5355L16.558 37.5349C16.8314 38.0071 16.9243 38.4094 16.932 38.445C16.9335 38.4518 17.7429 41.5195 17.7429 41.5195L15.5945 42.7903L15.1922 41.5355ZM16.1013 43.4813L17.7606 42.4999L18.2681 44.8061C18.2683 44.8067 18.2684 44.8073 18.2686 44.808L19.987 52.617C20.0184 52.757 19.9932 52.9009 19.9163 53.0222C19.8394 53.1436 19.7198 53.2275 19.5796 53.2587C19.4391 53.2899 19.2954 53.2648 19.1741 53.1881C19.0529 53.1112 18.9688 52.9916 18.9376 52.8514C18.9352 52.841 18.9327 52.8308 18.9296 52.8208L16.1013 43.4813ZM23.1988 74.147H17.6699C17.7084 73.7122 17.8406 73.0186 18.278 72.5553C18.6025 72.2113 19.0408 72.0442 19.6177 72.0442H23.1988V74.147ZM25.5832 43.6888H25.5825C25.5707 43.4746 25.4016 43.2986 25.1824 43.2865C24.9454 43.2715 24.7462 43.4537 24.7334 43.6888L23.2217 71.1915H19.1122V54.0781C19.2256 54.1077 19.3418 54.1248 19.4594 54.1248C19.5612 54.1248 19.6637 54.1135 19.7655 54.0909C20.1279 54.0099 20.4371 53.7928 20.6361 53.4792C20.8351 53.1656 20.9001 52.7933 20.8192 52.4323L19.1121 44.6748V39.5505H31.2042V71.1917H27.0949L25.5832 43.6888ZM26.5223 38.6977V38.0325H31.2044V38.6977H26.5223ZM32.6481 74.147H27.1181V72.0444H30.6993C31.2747 72.0444 31.7121 72.2106 32.0364 72.5525C32.4788 73.0189 32.6104 73.7123 32.6481 74.147ZM31.2283 23.7115C31.2255 23.7191 31.2046 23.7642 31.2046 23.8516V37.1798H25.584V35.8111L27.3685 33.5641C27.4348 33.4805 27.4674 33.3753 27.4599 33.269L26.4394 18.7993L27.2522 17.2154L29.3657 18.0637C29.4171 18.0843 29.471 18.0944 29.5245 18.0944C29.6122 18.0944 29.6991 18.0672 29.7726 18.0147C29.891 17.93 29.958 17.791 29.9503 17.6455L29.795 14.7003C29.795 14.7003 31.3331 15.4371 31.3598 15.444C32.4008 15.7141 33.1507 16.1546 33.6921 16.639L31.2283 23.7115ZM32.0715 23.8825L34.3425 17.3633C34.9796 18.2531 35.0824 19.1805 35.0853 19.1951L37.5904 31.9674C37.5906 31.9682 37.5908 31.9693 37.591 31.9701L38.6527 37.3833H34.7422L32.0715 23.8825ZM35.1203 38.2356H38.7057L38.5882 39.5911H35.8815L35.1203 38.2356ZM38.5033 42.2779C38.3143 42.5232 38.0411 42.6805 37.7342 42.7204C37.4267 42.7601 37.1228 42.6783 36.8773 42.4893C36.6319 42.3004 36.4747 42.0272 36.4347 41.72C36.4332 41.7083 36.4313 41.6965 36.4288 41.6849L36.1607 40.4438H38.6056L38.7345 41.4209C38.7743 41.7281 38.6922 42.0325 38.5033 42.2779ZM42.427 24.9222C42.4985 25.4456 42.6924 25.9302 42.9613 26.3245L39.55 37.5291L38.4453 31.8968L40.6779 21.8172C40.6832 21.7937 41.1162 19.9709 42.653 18.8408C42.5427 20.0942 43.3455 21.4183 43.8297 22.0911C42.7773 22.6683 42.2591 23.6929 42.427 24.9222ZM48.5948 74.147H45.4028C46.2698 73.2418 46.6091 72.1973 46.7355 71.6491H48.5948V74.147ZM48.5948 70.7962H46.737C44.962 61.0088 44.1612 49.5 44.0242 47.3858H48.5948V70.7962ZM52.6413 74.147H49.4493V71.6491H51.3086C51.435 72.1973 51.7743 73.2418 52.6413 74.147ZM51.3069 70.7962H49.4493V47.3858H54.0199C53.883 49.5002 53.082 61.0088 51.3069 70.7962ZM54.7723 24.8066C54.6579 25.6434 54.0866 26.4113 53.5494 26.4497C53.371 26.4625 53.2196 26.5853 53.1701 26.7572L52.0566 30.6291C52.008 30.7981 52.0682 30.9795 52.208 31.0859C54.7593 33.0303 55.9708 35.1839 55.5112 41.5597C55.3448 43.8679 56.0767 45.6211 56.5804 46.5304H41.4639C41.9676 45.6211 42.6995 43.8677 42.5331 41.5597C42.0735 35.1839 43.285 33.0301 45.8363 31.0859C45.9761 30.9793 46.0362 30.7981 45.9877 30.6291L44.8742 26.7572C44.8247 26.5853 44.6733 26.4625 44.4949 26.4497C43.9579 26.4113 43.3864 25.6434 43.272 24.8066C43.207 24.3313 43.2105 23.1705 44.6422 22.659C44.7747 22.6117 44.8754 22.5021 44.9112 22.366C44.9468 22.2299 44.9132 22.0849 44.8213 21.9787C44.801 21.9552 42.8612 19.6445 43.7178 18.2642C43.8933 18.1984 45.1202 17.8918 45.1202 17.8918C45.09 18.9936 45.1884 21.3646 46.4529 22.7659C47.1045 23.4879 47.9683 23.8542 49.0201 23.8551C49.0206 23.8551 49.021 23.8552 49.0215 23.8552C49.0218 23.8552 49.022 23.8552 49.0223 23.8552C49.0227 23.8552 49.0228 23.8552 49.0232 23.8552C49.0237 23.8552 49.024 23.8551 49.0245 23.8551C50.0764 23.8544 50.9399 23.4879 51.5917 22.7659C52.8562 21.3646 52.9546 18.9936 52.9244 17.8918C52.9244 17.8918 54.1514 18.198 54.326 18.2628C55.1981 19.6585 53.2435 21.9552 53.2234 21.9785C53.1313 22.0849 53.0977 22.2299 53.1335 22.3658C53.1693 22.5019 53.2699 22.6115 53.4024 22.6588C54.8337 23.1705 54.8371 24.3313 54.7723 24.8066ZM60.7438 41.718C59.9423 41.9249 59.5311 40.9347 59.528 40.9249L55.0828 26.3245C55.3517 25.9302 55.5455 25.4456 55.6171 24.9222C55.7851 23.6929 55.2668 22.6685 54.2145 22.0909C54.6996 21.4168 55.5044 20.0889 55.3903 18.8333C55.7469 19.0928 56.0444 19.3887 56.29 19.6915C56.2926 19.6961 56.2939 19.7013 56.2968 19.7059C56.318 19.7403 56.3434 19.7702 56.3717 19.7962C57.1098 20.7557 57.3495 21.7456 57.3657 21.815L61.5067 40.5101C61.6292 41.0536 61.283 41.5788 60.7438 41.718Z" fill="#1C1B1A"/>
</svg>
