<svg width="61" height="75" viewBox="0 0 61 75" fill="none" xmlns="http://www.w3.org/2000/svg">
<path d="M23.3324 27.2221L29.3112 40.6097C29.731 39.855 29.9662 37.9897 30.3405 36.6798L25.7353 22.7417C25.7224 22.6854 25.5749 22.0776 25.1729 21.3398L23.1172 23.4744C23.7651 25.0608 23.6374 26.2476 23.3324 27.2221Z" fill="#C4806E"/>
<path d="M17.0469 38.6158H23.7312C23.7069 38.5351 24.0433 37.1578 24.0433 37.1578C23.8407 35.7265 23.3129 33.5673 21.9528 31.2428C21.2037 29.9622 21.6397 28.9301 22.0615 27.9321C22.1796 27.6527 22.2982 27.3705 22.398 27.0755C22.3982 27.0752 22.3984 27.0748 22.3984 27.0744C22.7111 26.149 22.8337 25.0931 22.1395 23.5679C22.06 23.3933 22.0954 23.1879 22.2284 23.0496L24.6514 20.5338C24.0475 19.7462 23.1381 18.9759 21.7945 18.66L20.2122 18.2803L17.0469 27.4266V38.6158Z" fill="#C4806E"/>
<path d="M42.3798 17.9275L41.4443 16.1465L40.1953 16.5653L40.2973 18.8503L42.3798 17.9275Z" fill="white"/>
<path d="M15.2793 22.168L16.5771 25.9173L17.8748 22.168H15.2793Z" fill="#96564A"/>
<path d="M14.7842 5.94408C14.7842 5.68901 14.9888 5.48072 15.2439 5.47623C15.5021 5.47735 15.7106 5.67235 15.7196 5.92743C15.7252 6.01557 15.9067 8.1385 20.0818 8.28634V7.36785C20.0816 7.36298 20.0803 7.35831 20.0803 7.35344C20.0803 5.55408 18.5415 4.14453 16.5772 4.14453C14.613 4.14453 13.0741 5.55408 13.0741 7.35344C13.0741 7.35962 13.0725 7.36542 13.0723 7.37159V8.04848C13.7619 7.69385 14.7842 6.9917 14.7842 5.94408Z" fill="#CCCCCC"/>
<path d="M16.5782 3.20856C17.2792 3.20856 17.9376 3.35304 18.5213 3.61241C18.587 3.40974 18.6248 3.1979 18.6248 2.98231C18.6248 1.85366 17.7067 0.935547 16.5782 0.935547C15.4496 0.935547 14.5312 1.85366 14.5312 2.98212C14.5312 3.19752 14.5691 3.40937 14.6347 3.61223C15.2188 3.35304 15.8772 3.20856 16.5782 3.20856Z" fill="#CCCCCC"/>
<path d="M13.7913 11.1022H14.674C15.0702 11.1022 15.3926 10.7798 15.3926 10.3836V9.83643H13.0723V10.3836C13.0723 10.78 13.3949 11.1022 13.7913 11.1022ZM13.9017 10.1383C14.0757 9.96406 14.3882 9.96406 14.564 10.1383C14.6502 10.2262 14.7006 10.3458 14.7006 10.4695C14.7006 10.593 14.6501 10.7128 14.564 10.801C14.476 10.887 14.3546 10.9374 14.2327 10.9374C14.1092 10.9374 13.9894 10.8868 13.9015 10.801C13.8133 10.7149 13.7649 10.5932 13.7649 10.4695C13.7651 10.3458 13.8135 10.2244 13.9017 10.1383Z" fill="#D8D5D4"/>
<path d="M17.7627 10.3836C17.7627 10.7798 18.0853 11.1022 18.4817 11.1022H19.3644C19.7606 11.1022 20.0831 10.7798 20.0831 10.3836V9.83643H17.7629V10.3836H17.7627ZM18.5927 10.1383C18.7648 9.96406 19.0792 9.96406 19.2533 10.1383C19.3412 10.2262 19.3916 10.3458 19.3916 10.4695C19.3916 10.593 19.341 10.7128 19.2533 10.801C19.1672 10.887 19.0455 10.9374 18.9218 10.9374C18.7983 10.9374 18.6786 10.8868 18.5925 10.801C18.5045 10.7128 18.4559 10.5932 18.4559 10.4695C18.4559 10.3458 18.5047 10.2262 18.5927 10.1383Z" fill="#D8D5D4"/>
<path d="M54.7945 40.5754H57.4831L57.6048 39.7715H54.2607L54.7945 40.5754Z" fill="#588AA3"/>
<path d="M15.316 7.33008C14.8401 8.09549 14.0427 8.60694 13.4629 8.90075H15.8609C16.1145 8.90075 16.32 9.10305 16.3273 9.35513H16.8277C16.835 9.10305 17.0405 8.90075 17.294 8.90075H17.8053C16.4798 8.53134 15.7325 7.90909 15.316 7.33008Z" fill="#E0B489"/>
<path d="M43.4717 7.39596C43.7116 7.39596 43.907 7.57712 43.9341 7.80973H44.3954C44.4225 7.57712 44.6177 7.39596 44.8578 7.39596H47.3405C47.228 5.32824 46.3509 3.28223 44.1649 3.28223C41.9789 3.28223 41.1017 5.32843 40.9893 7.39596H43.4717ZM43.1945 4.11463H45.135C45.3934 4.11463 45.6028 4.32404 45.6028 4.58248C45.6028 4.84093 45.3934 5.05034 45.135 5.05034H43.1945C42.9361 5.05034 42.7267 4.84093 42.7267 4.58248C42.7267 4.32404 42.9363 4.11463 43.1945 4.11463ZM42.4325 5.63178H45.8972C46.1557 5.63178 46.3651 5.84119 46.3651 6.09964C46.3651 6.35808 46.1557 6.56749 45.8972 6.56749H42.4325C42.174 6.56749 41.9646 6.35808 41.9646 6.09964C41.9646 5.84119 42.174 5.63178 42.4325 5.63178Z" fill="#E0B489"/>
<path d="M48.7274 7.39559C48.9858 7.39559 49.1952 7.605 49.1952 7.86345V8.48045C49.3634 7.99706 49.411 7.1467 48.9521 5.66435C48.5995 4.52597 47.8882 3.81652 47.0234 3.66699C47.7587 4.54525 48.2037 5.82585 48.2773 7.39559H48.7274Z" fill="#CCCCCC"/>
<path d="M45.3254 9.07012C45.3254 9.58962 45.7481 10.0124 46.2676 10.0124H47.3166C47.8361 10.0124 48.2588 9.58962 48.2588 9.07012V8.60058V8.33203H45.3252V9.07012H45.3254ZM46.4615 8.84124C46.6356 8.6672 46.95 8.6672 47.1221 8.84124C47.2101 8.92939 47.2606 9.04897 47.2606 9.17267C47.2606 9.29618 47.2101 9.41595 47.1221 9.50391C47.036 9.58999 46.9144 9.64052 46.7928 9.64052C46.6692 9.64052 46.5493 9.58981 46.4615 9.50391C46.3736 9.41595 46.3249 9.29637 46.3249 9.17267C46.3249 9.04916 46.3736 8.92939 46.4615 8.84124Z" fill="#D8D5D4"/>
<path d="M48.0317 18.8503L48.1337 16.5653L46.8847 16.1465L45.9492 17.9275L48.0317 18.8503Z" fill="white"/>
<path d="M47.1133 19.4668L46.0864 19.0117L45.3145 20.1155L45.6202 21.2685C46.5859 20.8053 46.9701 19.9431 47.1133 19.4668Z" fill="white"/>
<path d="M48.204 10.7246C47.9397 10.8666 47.6379 10.9477 47.3175 10.9477H46.2685C45.9847 10.9477 45.7165 10.8826 45.4751 10.7693C45.2531 11.2726 44.7501 11.6251 44.1655 11.6251C43.5812 11.6251 43.078 11.2726 42.856 10.7691C42.6146 10.8824 42.3461 10.9477 42.0624 10.9477H41.0134C40.6931 10.9477 40.3912 10.8665 40.127 10.7246C40.4262 12.786 42.0006 14.1719 44.1656 14.1719C46.3305 14.1718 47.9049 12.7858 48.204 10.7246ZM42.4361 12.3705C42.4361 12.1121 42.6455 11.9027 42.9039 11.9027C43.0501 11.9027 43.1807 11.9697 43.2666 12.0748C43.3967 12.1134 43.7073 12.1677 44.1655 12.1677C44.6234 12.1677 44.934 12.1134 45.0643 12.0748C45.15 11.9697 45.2806 11.9027 45.427 11.9027C45.6854 11.9027 45.8948 12.1121 45.8948 12.3705C45.8948 12.5519 45.8948 13.1034 44.1656 13.1034C42.4361 13.1035 42.4361 12.5519 42.4361 12.3705Z" fill="#E0B489"/>
<path d="M45.9363 14.8174C45.3923 15.0062 44.7972 15.1078 44.1642 15.1078C43.5315 15.1078 42.9366 15.0064 42.3926 14.8176V15.9393L43.3081 17.6821H45.0208L45.9363 15.9393V14.8174Z" fill="#E0B489"/>
<path d="M41.0116 10.0122H42.0605C42.58 10.0122 43.0028 9.58943 43.0028 9.06993V8.33203H40.0693V8.60058V9.07012C40.0693 9.58943 40.4921 10.0122 41.0116 10.0122ZM41.2057 8.84106C41.3778 8.66701 41.6924 8.66701 41.8663 8.84106C41.9542 8.92714 42.0048 9.04878 42.0048 9.17248C42.0048 9.296 41.954 9.41577 41.8663 9.50372C41.7802 9.58981 41.6602 9.64034 41.5369 9.64034C41.4115 9.64034 41.2916 9.58962 41.2055 9.50372C41.1175 9.41577 41.067 9.29618 41.067 9.17248C41.0672 9.04897 41.1179 8.92714 41.2057 8.84106Z" fill="#D8D5D4"/>
<path d="M14.9027 14.4347C14.9195 14.4446 14.9356 14.4551 14.9511 14.4671C15.4375 14.7949 15.9905 14.9815 16.577 14.9815C17.1633 14.9815 17.7158 14.7951 18.2018 14.4676C18.2179 14.4555 18.2345 14.4444 18.2519 14.4343C19.0134 13.901 19.6036 13.0156 19.8903 11.9504C19.7245 12.0065 19.5477 12.0382 19.3632 12.0382H18.4804C17.5681 12.0382 16.8257 11.296 16.8257 10.3838V10.291H16.3283V10.3838C16.3283 11.296 15.5861 12.0382 14.674 12.0382H13.7912C13.6067 12.0382 13.4295 12.0064 13.2637 11.9504C13.5502 13.0158 14.1408 13.9013 14.9027 14.4347ZM15.3157 12.2079C15.5382 12.2079 15.7246 12.3632 15.7719 12.5713C15.8642 12.631 16.1387 12.7379 16.5772 12.7379C17.0157 12.7379 17.2902 12.6312 17.3825 12.5713C17.4298 12.3632 17.616 12.2079 17.8387 12.2079C18.0972 12.2079 18.3066 12.4173 18.3066 12.6758C18.3066 13.2634 17.5954 13.6736 16.5774 13.6736C15.5593 13.6736 14.8482 13.2634 14.8482 12.6758C14.8478 12.4175 15.0572 12.2079 15.3157 12.2079Z" fill="#E0B489"/>
<path d="M43.8805 20.4922L43.6035 21.5362C43.7779 21.5626 43.9641 21.5782 44.1636 21.5806C44.3631 21.578 44.5495 21.5624 44.7237 21.5362L44.4468 20.4922H43.8805Z" fill="#8C6239"/>
<path d="M45.1995 18.6182H43.1297L43.1133 18.6255L43.7651 19.5574H44.5642L45.216 18.6255L45.1995 18.6182Z" fill="#8C6239"/>
<path d="M43.938 8.74609V9.07022C43.938 9.42354 43.8383 9.75291 43.668 10.0355V10.1946C43.668 10.4678 43.8903 10.6901 44.1633 10.6901C44.4366 10.6901 44.6589 10.4678 44.6589 10.1946V10.0361C44.4884 9.75329 44.3885 9.42373 44.3885 9.07022V8.74609H43.938Z" fill="#C69C6D"/>
<path d="M39.3775 5.66435C38.9186 7.14613 38.9658 7.99632 39.134 8.47989V7.86345C39.134 7.605 39.3435 7.39559 39.6019 7.39559H40.0518C40.1255 5.82585 40.5703 4.54543 41.3056 3.66699C40.441 3.81652 39.7297 4.52597 39.3775 5.66435Z" fill="#CCCCCC"/>
<path d="M17.0469 72.4248V74.0643H21.306C20.8881 72.5536 19.6363 72.4342 19.4632 72.4248H17.0469Z" fill="#998675"/>
<path d="M57.4696 41.5117H55.127L55.3787 42.6458C55.3817 42.6589 55.3839 42.672 55.3856 42.6853C55.4296 43.0145 55.6255 43.289 55.8965 43.4529C56.0683 42.6209 56.6911 41.9528 57.4969 41.7138L57.4696 41.5117Z" fill="#C69C6D"/>
<path d="M56.833 43.5632C57.0514 43.4952 57.2427 43.3655 57.3826 43.184C57.499 43.0328 57.5664 42.8575 57.5891 42.6748C57.2208 42.8415 56.9401 43.1666 56.833 43.5632Z" fill="#C69C6D"/>
<path d="M53.9503 20.8266C53.9392 20.719 53.6407 18.1305 50.2797 17.2826C50.2681 17.2796 49.0571 16.874 49.0571 16.874L48.9366 19.576C48.9298 19.7304 48.8469 19.8715 48.7156 19.9529C48.6405 19.9995 48.555 20.023 48.4693 20.023C48.4049 20.023 48.3403 20.0098 48.2797 19.9828L47.9816 19.8507C47.6827 20.7624 46.9261 21.901 45.4404 22.3367C45.4346 22.3385 44.8915 22.5175 44.165 22.5175C43.4385 22.5175 42.8956 22.3385 42.8898 22.3367C41.4041 21.901 40.6475 20.7624 40.3487 19.8507L40.0505 19.9828C39.9901 20.0098 39.9253 20.023 39.861 20.023C39.7751 20.023 39.6897 19.9995 39.6147 19.9529C39.4833 19.8715 39.4004 19.7305 39.3937 19.576L39.2733 16.874C39.2733 16.874 38.0622 17.2796 38.0508 17.2826C34.6627 18.1372 34.3826 20.7999 34.3804 20.8266C34.3787 20.8435 29.9668 39.3933 29.9668 39.3933C32.2125 40.329 33.3795 40.4845 33.4289 40.7033L35.3093 35.1429L37.3142 25.2834C37.3647 25.0358 37.6031 24.8749 37.8513 24.9153C38.1002 24.9578 38.2705 25.1902 38.2362 25.4404C38.2235 25.533 37.0284 34.3854 38.0764 40.5755H50.2544C51.303 34.3831 50.1073 25.533 50.0946 25.4404C50.06 25.1902 50.2306 24.9578 50.4795 24.9153C50.7273 24.8749 50.9665 25.0358 51.0166 25.2834L53.7725 38.8358H57.5787C57.5784 38.8358 53.9518 20.8435 53.9503 20.8266Z" fill="#588AA3"/>
<path d="M49.6291 72.1357H46.1045V74.0642H51.5219C51.479 73.6561 51.3461 73.0505 50.9494 72.6317C50.6331 72.2978 50.2014 72.1357 49.6291 72.1357Z" fill="#4D4D4D"/>
<path d="M37.3771 72.6347C36.9845 73.0514 36.852 73.6563 36.8086 74.0642H42.225V72.1357H38.7004C38.1264 72.1357 37.6936 72.2989 37.3771 72.6347Z" fill="#4D4D4D"/>
<path d="M50.0896 41.5117H38.2402V48.8748V50.1544L38.2404 51.1837C38.2404 51.1837 38.2404 51.4644 38.2404 51.5204V71.2007H42.8024L43.696 45.0633C43.7046 44.8103 43.9121 44.6113 44.1631 44.6113C44.1685 44.6113 44.1741 44.6113 44.1793 44.6117C44.4267 44.6201 44.6204 44.8194 44.6289 45.0631H44.6311L45.5279 71.2007H50.0898V41.5117H50.0896Z" fill="#736357"/>
<path d="M11.8506 74.0643H16.1101V72.4248H13.6928C13.5175 72.4343 12.2683 72.5551 11.8506 74.0643Z" fill="#998675"/>
<path d="M14.0682 71.4892H16.109V57.4512H12.2793C12.5666 61.0085 13.1027 66.1527 14.0682 71.4892Z" fill="#E0B489"/>
<path d="M41.2148 19.4667C41.3578 19.9431 41.7418 20.8051 42.7079 21.2685L43.0136 20.1155L42.2417 19.0117L41.2148 19.4667Z" fill="white"/>
<path d="M16.11 27.4261L12.9443 18.2798L11.3641 18.6589C10.0196 18.975 9.10995 19.7455 8.50586 20.5335L10.9282 23.0491C11.0613 23.1874 11.0965 23.3929 11.0171 23.5675C10.1012 25.5796 10.6067 26.7754 11.0951 27.9316C11.517 28.9296 11.953 29.9619 11.2039 31.2423C9.27857 34.5328 9.01601 37.5237 8.98981 38.6153H16.1102V27.4261H16.11Z" fill="#C4806E"/>
<path d="M17.0469 71.4892H19.0873C20.0527 66.1527 20.5887 61.0085 20.8762 57.4512H17.0469V71.4892Z" fill="#E0B489"/>
<path d="M3.19976 41.8009C4.023 42.1514 4.60182 42.9685 4.60182 43.9184C4.60182 44.1768 4.39241 44.3863 4.13397 44.3863C3.87553 44.3863 3.66612 44.1768 3.66612 43.9184C3.66612 43.4176 3.3942 42.9801 2.99129 42.7428L2.8775 43.2563C2.81182 43.5471 2.86309 43.8439 3.02123 44.0943C3.17936 44.3445 3.42545 44.5184 3.7144 44.5835C4.00278 44.6488 4.29996 44.5973 4.55036 44.4392C4.80075 44.2811 4.97442 44.0352 5.03955 43.7464C5.04142 43.7376 5.04348 43.729 5.0461 43.7206L5.46005 42.2747L3.25871 41.5352L3.19976 41.8009Z" fill="#E0B489"/>
<path d="M7.98245 21.3398C7.58048 22.0781 7.43282 22.6869 7.41953 22.7447L3.46094 40.6161L5.71636 41.3741L9.79361 27.1292C9.5099 26.1726 9.41053 25.0104 10.038 23.4744L7.98245 21.3398Z" fill="#C4806E"/>
<path d="M18.2001 21.2324L19.2977 18.0607L18.3779 17.8399C18.1676 17.7894 18.0191 17.6015 18.0191 17.3849V15.6223C17.567 15.8124 17.0829 15.917 16.5787 15.917C16.0744 15.917 15.5901 15.8122 15.1379 15.6221V17.3849C15.1379 17.6013 14.9895 17.7894 14.7792 17.8399L13.8594 18.0607L14.9571 21.2324H18.2001Z" fill="#E0B489"/>
<path d="M23.791 49.2186L24.3524 45.4758C24.3524 45.4758 25.1054 39.9494 25.1945 39.5518H23.6949H8.9441C8.83107 40.8715 8.64468 45.7115 10.4407 56.5157H22.716C22.978 54.9394 23.4073 51.9768 23.4073 51.9768L23.6038 50.5286L23.791 49.2186Z" fill="#96564A"/>
<path d="M16.5772 13.6737C17.5953 13.6737 18.3064 13.2635 18.3064 12.6759C18.3064 12.4174 18.097 12.208 17.8385 12.208C17.6158 12.208 17.4296 12.3633 17.3823 12.5714C17.29 12.6311 17.0155 12.738 16.577 12.738C16.1386 12.738 15.864 12.6313 15.7718 12.5714C15.7244 12.3633 15.5382 12.208 15.3155 12.208C15.0571 12.208 14.8477 12.4174 14.8477 12.6759C14.848 13.2635 15.5592 13.6737 16.5772 13.6737Z" fill="#1C1B1A"/>
<path d="M14.2343 10.9366C14.3559 10.9366 14.4776 10.8861 14.5655 10.8002C14.6518 10.712 14.7021 10.5924 14.7021 10.4687C14.7021 10.3452 14.6516 10.2255 14.5655 10.1375C14.3898 9.96328 14.0773 9.96328 13.9032 10.1375C13.8151 10.2236 13.7666 10.345 13.7666 10.4687C13.7666 10.5923 13.8153 10.7139 13.9032 10.8002C13.991 10.8863 14.1106 10.9366 14.2343 10.9366Z" fill="#1C1B1A"/>
<path d="M18.9209 10.9366C19.0444 10.9366 19.1662 10.8861 19.2523 10.8002C19.3403 10.712 19.3906 10.5924 19.3906 10.4687C19.3906 10.3452 19.3401 10.2255 19.2523 10.1375C19.0781 9.96328 18.7639 9.96328 18.5917 10.1375C18.5037 10.2255 18.4551 10.345 18.4551 10.4687C18.4551 10.5923 18.5039 10.712 18.5917 10.8002C18.6778 10.8863 18.7974 10.9366 18.9209 10.9366Z" fill="#1C1B1A"/>
<path d="M45.8943 12.3702C45.8943 12.1118 45.6849 11.9023 45.4264 11.9023C45.2803 11.9023 45.1497 11.9693 45.0638 12.0745C44.9337 12.1131 44.623 12.1673 44.1649 12.1673C43.707 12.1673 43.3963 12.1131 43.2661 12.0745C43.1804 11.9693 43.0497 11.9023 42.9034 11.9023C42.645 11.9023 42.4355 12.1118 42.4355 12.3702C42.4355 12.5515 42.4355 13.103 44.1647 13.103C45.8943 13.1032 45.8943 12.5515 45.8943 12.3702Z" fill="#1C1B1A"/>
<path d="M42.4327 6.56754H45.8974C46.1559 6.56754 46.3653 6.35813 46.3653 6.09969C46.3653 5.84125 46.1559 5.63184 45.8974 5.63184H42.4327C42.1743 5.63184 41.9648 5.84125 41.9648 6.09969C41.9648 6.35813 42.1743 6.56754 42.4327 6.56754Z" fill="#1C1B1A"/>
<path d="M43.1944 5.05045H45.1349C45.3933 5.05045 45.6027 4.84104 45.6027 4.5826C45.6027 4.32416 45.3933 4.11475 45.1349 4.11475H43.1944C42.936 4.11475 42.7266 4.32416 42.7266 4.5826C42.7266 4.84104 42.9362 5.05045 43.1944 5.05045Z" fill="#1C1B1A"/>
<path d="M41.5381 9.64075C41.6614 9.64075 41.7814 9.59003 41.8675 9.50414C41.9554 9.41618 42.0059 9.2966 42.0059 9.1729C42.0059 9.04938 41.9552 8.92755 41.8675 8.84147C41.6934 8.66743 41.379 8.66743 41.2068 8.84147C41.1189 8.92755 41.0684 9.0492 41.0684 9.1729C41.0684 9.29641 41.1191 9.41618 41.2068 9.50414C41.2927 9.59003 41.4127 9.64075 41.5381 9.64075Z" fill="#1C1B1A"/>
<path d="M46.7921 9.64075C46.9135 9.64075 47.0354 9.59003 47.1214 9.50414C47.2094 9.41618 47.2599 9.2966 47.2599 9.1729C47.2599 9.04938 47.2094 8.92961 47.1214 8.84147C46.9493 8.66743 46.6349 8.66743 46.4608 8.84147C46.3729 8.92961 46.3242 9.0492 46.3242 9.1729C46.3242 9.29641 46.3729 9.41618 46.4608 9.50414C46.5486 9.59003 46.6686 9.64075 46.7921 9.64075Z" fill="#1C1B1A"/>
<path d="M33.483 41.1712L30.0457 39.9548L29.7783 41.3585C29.5665 41.3986 29.6052 41.5991 29.7783 41.6392C29.7596 41.9708 29.8096 42.4564 30.045 42.6684C30.4333 43.9784 31.8368 44.3527 32.7344 43.3234L33.483 41.1712Z" fill="#C69C6D"/>
<path fill-rule="evenodd" clip-rule="evenodd" d="M26.6476 22.5368L30.3169 35.0626L29.9435 36.7732L25.7353 22.7414C25.7224 22.6851 25.5747 22.0772 25.1729 21.3395L23.1174 23.4741C23.7651 25.0604 23.6374 26.2473 23.3324 27.2217L29.6956 40.7271L29.1489 42.1874L22.7756 28.6478C22.4699 29.4025 22.314 30.0088 22.7594 30.7699C23.6793 32.3425 24.2393 33.8458 24.5793 35.1219L26.1296 39.5513L24.6137 49.9386C24.3502 52.1272 24.0005 54.5228 23.5729 57.0606C23.5351 57.286 23.3401 57.4508 23.1116 57.4508H21.8137C21.5278 61.014 20.9914 66.1911 20.022 71.5723C20.9171 71.8085 22.1062 72.5907 22.3357 74.4754C22.352 74.6083 22.3104 74.7419 22.2215 74.842C22.1326 74.9424 22.0054 74.9998 21.8714 74.9998H11.2844C11.1504 74.9998 11.0232 74.9424 10.9343 74.842C10.8456 74.7419 10.8038 74.6083 10.8201 74.4754C11.0494 72.5906 12.2387 71.8085 13.1338 71.5723C12.1645 66.1911 11.628 61.014 11.3421 57.4508H10.0442C9.81574 57.4508 9.62074 57.286 9.58294 57.0606C7.63145 45.4737 7.94957 43.0516 7.93829 39.342C7.94491 39.2097 7.94957 39.1166 7.94957 39.0592C7.94957 38.5679 7.96211 34.9303 10.3961 30.7697C10.8547 29.9862 10.6757 29.3664 10.3521 28.58L5.94828 43.9656C5.82552 44.4922 5.50682 44.9408 5.04907 45.23C4.7182 45.4388 4.34336 45.5466 3.9614 45.5466C3.81019 45.5466 3.65824 45.5299 3.50721 45.4957C2.97442 45.3756 2.5206 45.0552 2.22904 44.5935C1.93729 44.132 1.84297 43.5842 1.96349 43.0516L2.06922 42.5744C1.42658 42.6848 0.935706 43.2446 0.935706 43.9181V74.5321C0.935706 74.7906 0.726295 75 0.467853 75C0.209411 75 0 74.7906 0 74.5321V43.9181C0 42.6564 1.0216 41.6294 2.28088 41.6187L6.5069 22.5391C6.54358 22.3774 7.43474 18.6217 11.1476 17.7488L14.201 17.0162V15.0707C12.9616 14.1067 12.137 12.4138 12.137 10.4889V7.35334C12.137 7.34846 12.1377 7.34376 12.1384 7.33908C12.1389 7.33568 12.1394 7.33228 12.1397 7.32882C12.1475 6.00068 12.7924 4.83984 13.8101 4.09165C13.6694 3.74039 13.5952 3.36386 13.5952 2.98228C13.5952 1.33787 14.9333 0 16.5779 0C18.2223 0 19.56 1.33787 19.5592 2.98247C19.5592 3.36424 19.4851 3.74058 19.3444 4.09165C20.3636 4.84078 21.009 6.00367 21.0154 7.33387C21.0156 7.33673 21.016 7.33951 21.0164 7.3423C21.0169 7.34591 21.0174 7.34954 21.0174 7.35334V10.4889C21.0174 12.414 20.1929 14.1069 18.9535 15.0709V17.0162L22.0089 17.7494C25.7196 18.6217 26.6115 22.3774 26.6476 22.5368ZM21.7933 18.6597C23.137 18.9756 24.0461 19.7458 24.6502 20.5335L22.2273 23.0492C22.0943 23.1873 22.0591 23.393 22.1384 23.5676C22.8325 25.0928 22.71 26.1487 22.3972 27.0741C22.3972 27.0745 22.3971 27.0748 22.3969 27.0752C22.2971 27.3701 22.1785 27.6524 22.0604 27.9318C21.6386 28.9298 21.2025 29.962 21.9517 31.2425C23.3118 33.5669 23.8395 35.7262 24.0422 37.1574C24.0422 37.1574 23.7057 38.5348 23.7301 38.6155H17.0458V27.4261L20.2111 18.2798L21.7933 18.6597ZM16.5779 25.9174L15.2801 22.168H17.8753L16.5779 25.9174ZM20.0823 10.3835C20.0823 10.7797 19.7599 11.1021 19.3637 11.1021H18.4809C18.0846 11.1021 17.7619 10.7797 17.7619 10.3835V9.83633H20.0821V10.3835H20.0823ZM17.2943 8.90081C17.0407 8.90081 16.8352 9.10311 16.8279 9.35519H16.3275C16.3202 9.10311 16.1147 8.90081 15.8611 8.90081H13.4629C14.0429 8.60718 14.8401 8.09554 15.316 7.33013C15.7328 7.90915 16.4798 8.53139 17.8055 8.90081H17.2943ZM16.5779 0.935706C17.7064 0.935706 18.6245 1.85382 18.6245 2.98228C18.6245 3.19787 18.5867 3.40971 18.521 3.61239C17.9373 3.35301 17.2789 3.20854 16.5779 3.20854C15.8769 3.20854 15.2185 3.35301 14.6344 3.61239C14.5688 3.40952 14.5309 3.19768 14.5309 2.98228C14.5309 1.85382 15.4493 0.935706 16.5779 0.935706ZM13.0748 7.35334C13.0748 5.55398 14.6137 4.14443 16.5779 4.14443C18.5421 4.14443 20.081 5.55398 20.081 7.35334C20.081 7.35447 20.0811 7.35559 20.0812 7.35671C20.0813 7.35817 20.0815 7.35963 20.0818 7.36108C20.0821 7.36329 20.0824 7.3655 20.0825 7.36775V8.28605C15.9074 8.13839 15.7258 6.01528 15.7202 5.92713C15.7112 5.67206 15.5028 5.47706 15.2445 5.47594C14.9894 5.48043 14.7849 5.68872 14.7849 5.94379C14.7849 6.99159 13.7625 7.69375 13.0733 8.04819V7.37149H13.0729C13.073 7.3687 13.0734 7.3659 13.0738 7.36309C13.0743 7.35987 13.0748 7.35663 13.0748 7.35334ZM13.0729 9.83651H15.3931V10.3837C15.3931 10.7799 15.0707 11.1023 14.6745 11.1023H13.7917C13.3954 11.1023 13.0727 10.7799 13.0727 10.3837L13.0729 9.83651ZM13.2644 11.9501C13.4304 12.006 13.6074 12.0379 13.7919 12.0379H14.6747C15.5868 12.0379 16.329 11.2957 16.329 10.3835V10.2907H16.8264V10.3835C16.8264 11.2957 17.5688 12.0379 18.4811 12.0379H19.3639C19.5484 12.0379 19.7254 12.0062 19.891 11.9501C19.6043 13.0153 19.0141 13.9008 18.2526 14.434C18.2352 14.4441 18.2186 14.455 18.2025 14.4673C17.7165 14.7948 17.164 14.9812 16.5777 14.9812C15.991 14.9812 15.438 14.7946 14.9518 14.4668C14.9363 14.455 14.9202 14.4443 14.9034 14.4344C14.1417 13.9012 13.5511 13.0157 13.2644 11.9501ZM14.7783 17.8398C14.9887 17.7893 15.1371 17.6014 15.1371 17.3849V15.622C15.5892 15.8123 16.0736 15.9169 16.5779 15.9169C17.0821 15.9169 17.5662 15.8121 18.0183 15.6222V17.3849C18.0183 17.6012 18.1667 17.7893 18.3771 17.8398L19.2969 18.0606L18.1993 21.2323H14.9563L13.8586 18.0606L14.7783 17.8398ZM5.04514 43.7203C5.04252 43.7287 5.04046 43.7373 5.03859 43.7461C4.97328 44.0349 4.7998 44.2808 4.5494 44.4389C4.29901 44.597 4.00183 44.6483 3.71344 44.5832C3.4245 44.5179 3.17841 44.3442 3.02027 44.094C2.86214 43.8436 2.81105 43.5468 2.87655 43.256L2.99033 42.7425C3.39324 42.98 3.66516 43.4173 3.66516 43.9181C3.66516 44.1765 3.87457 44.386 4.13301 44.386C4.39145 44.386 4.60086 44.1765 4.60086 43.9181C4.60086 42.9682 4.02204 42.1511 3.1988 41.8006L3.25757 41.535L5.45891 42.2746L5.04514 43.7203ZM9.79403 27.1291L5.71679 41.3739L3.46136 40.616L7.41996 22.7446C7.43325 22.6867 7.58071 22.078 7.98288 21.3397L10.0383 23.4741C9.41095 25.0103 9.51033 26.1724 9.79403 27.1291ZM11.2038 31.2425C11.9529 29.9619 11.5169 28.9298 11.095 27.9318L11.0947 27.9309C10.6064 26.7748 10.1014 25.5793 11.017 23.5676C11.0965 23.393 11.0612 23.1877 10.9281 23.0492L8.50575 20.5337C9.11003 19.7456 10.0197 18.9754 11.364 18.6591L12.9442 18.2799L16.1099 27.4263V38.6156H8.9897C9.01609 37.524 9.27846 34.533 11.2038 31.2425ZM16.11 74.0643H11.8505C12.268 72.5552 13.5174 72.4343 13.6927 72.4248H16.11V74.0643ZM16.11 71.489H14.0693C13.1038 66.1525 12.5677 61.0084 12.2804 57.451H16.11V71.489ZM21.3049 74.0643H17.0458V72.4248H19.4621C19.6352 72.4341 20.8868 72.5533 21.3049 74.0643ZM19.0862 71.489H17.0458V57.451H20.875C20.5878 61.0084 20.0516 66.1525 19.0862 71.489ZM10.44 56.5153H22.7154C22.9774 54.939 23.2083 53.4219 23.4065 51.9764L25.172 39.5513H23.6941H8.94348C8.83026 40.8709 8.64405 45.7111 10.44 56.5153Z" fill="#1C1B1A"/>
<path fill-rule="evenodd" clip-rule="evenodd" d="M58.4305 41.6365L58.3542 41.0734C58.3542 41.0734 58.6164 39.3002 58.6164 39.2985C58.6162 39.2693 54.8782 20.7128 54.8782 20.7128C54.8374 20.3621 54.3782 17.3605 50.5251 16.3797L46.8717 15.1549V14.3764C48.2989 13.5058 49.1942 11.925 49.1942 10.0006V9.89659C49.4034 9.78149 49.6605 9.58125 49.8707 9.23523C50.3825 8.39197 50.3739 7.0977 49.8449 5.38835C49.2413 3.43891 47.6609 2.39765 45.9579 2.78803C45.4315 2.50095 44.8293 2.34675 44.1638 2.34675C43.4983 2.34675 42.8963 2.50077 42.3697 2.78803C40.6667 2.39747 39.0865 3.43909 38.4831 5.38835C37.9541 7.0977 37.9455 8.39197 38.4571 9.23523C38.6673 9.58144 38.9244 9.78149 39.1336 9.89659V10.0006C39.1336 11.9252 40.0289 13.5058 41.4564 14.3766V15.1549L37.8031 16.3797C33.9498 17.3605 33.4906 20.3625 33.45 20.7128L29.256 39.9221C29.256 39.9221 29.1923 40.2447 29.1489 40.7032C29.082 41.4118 29.0637 42.4449 29.4046 43.1121C29.7488 43.7859 30.0811 44.252 30.8081 44.5396C31.5081 44.8165 32.1412 44.8549 32.7351 44.4934C33.4281 44.0717 33.7088 43.3232 33.7088 43.3232L36.6095 32.8841C36.5402 35.5813 36.7429 38.5803 37.2252 41.1353C37.2253 41.1361 37.2254 41.137 37.2256 41.1378C37.2257 41.1384 37.2258 41.139 37.2259 41.1396C37.251 41.2715 37.277 41.4024 37.304 41.532V44.6223L37.3038 52.0675V71.5252C37.0785 71.6472 36.8749 71.8027 36.6954 71.993C35.7713 72.9734 35.8504 74.4955 35.8542 74.5598C35.869 74.8069 36.0737 75 36.3213 75H42.6921C42.9506 75 43.16 74.7906 43.16 74.5321V72.1358H43.2536C43.5058 72.1358 43.7124 71.9359 43.7212 71.6839L44.1634 58.7494L44.6072 71.684C44.6159 71.9361 44.8225 72.1358 45.0748 72.1358H45.1684V74.5321C45.1684 74.7906 45.3778 75 45.6362 75H52.0071C52.2547 75 52.4594 74.8071 52.4742 74.5598C52.4779 74.4955 52.5569 72.9734 51.633 71.993C51.4535 71.8027 51.2499 71.6472 51.0246 71.5252V41.532C51.0517 41.4025 51.0776 41.2715 51.1026 41.1396C51.1027 41.139 51.1028 41.1384 51.1029 41.1378C51.1031 41.1369 51.1033 41.1361 51.1034 41.1353C51.5856 38.5805 51.6751 35.5815 51.606 32.8841C51.606 32.8841 52.9851 39.5412 52.9989 39.5624L54.1055 41.2296L54.4605 42.8297C54.6048 43.8264 55.4819 44.5533 56.4865 44.5531C56.5735 44.5531 56.6618 44.5476 56.7504 44.5364C57.3013 44.4668 57.789 44.1893 58.1234 43.7547C58.3815 43.4194 58.5209 43.0215 58.5331 42.6092C59.0988 42.7758 59.5135 43.299 59.5135 43.9179V74.532C59.5135 74.7904 59.7229 74.9998 59.9814 74.9998C60.2398 74.9998 60.4492 74.7904 60.4492 74.532V43.9181C60.4496 42.7449 59.5665 41.7759 58.4305 41.6365ZM48.1335 16.5644L46.8845 16.1458L45.949 17.9266L48.0315 18.8494L48.1335 16.5644ZM44.5639 19.5572L45.2157 18.6254L45.1993 18.6181H43.1295L43.113 18.6254L43.7648 19.5572H44.5639ZM44.1644 21.5813C44.3639 21.5789 44.5501 21.5633 44.7245 21.537L44.4477 20.4929H43.8812L43.6043 21.537C43.7787 21.5632 43.9649 21.5787 44.1644 21.5813ZM43.308 17.6822H45.0207L45.9362 15.9394V14.8175C45.3922 15.0063 44.7971 15.1079 44.1642 15.1079C43.5315 15.1079 42.9365 15.0065 42.3925 14.8176V15.9394L43.308 17.6822ZM42.7077 21.2682L43.0135 20.1152L42.2413 19.0113L41.2147 19.4664C41.3576 19.9429 41.7418 20.8049 42.7077 21.2682ZM47.1143 19.4666L46.0874 19.0115L45.3153 20.1154L45.6211 21.2684C46.5871 20.805 46.9711 19.9431 47.1143 19.4666ZM48.2586 9.06998V8.60045H48.2588V8.33209H45.3252V9.06998C45.3252 9.58949 45.748 10.0122 46.2675 10.0122H47.3164C47.8359 10.0122 48.2586 9.58949 48.2586 9.06998ZM49.1944 8.48105C49.3626 7.99766 49.4101 7.14729 48.9513 5.66495C48.5987 4.52657 47.8876 3.81712 47.0228 3.66759C47.758 4.54603 48.2031 5.82645 48.2766 7.39619H48.7265C48.9849 7.39619 49.1944 7.6056 49.1944 7.86405V8.48105ZM47.3398 7.39619C47.2273 5.32866 46.3502 3.28246 44.1642 3.28246C41.9784 3.28246 41.1011 5.32866 40.9886 7.39619H43.471C43.7111 7.39619 43.9063 7.57735 43.9334 7.80996H44.3947C44.4219 7.57735 44.6173 7.39619 44.8572 7.39619H47.3398ZM44.6599 10.1943V10.0358C44.4893 9.75305 44.3893 9.42331 44.3893 9.06998V8.74585H43.9391V9.06998C43.9391 9.42312 43.8393 9.75267 43.669 10.0353V10.1943C43.669 10.4676 43.8913 10.6899 44.1644 10.6899C44.4374 10.6899 44.6599 10.4676 44.6599 10.1943ZM39.134 7.86405C39.134 7.6056 39.3434 7.39619 39.6019 7.39619H40.0519C40.1255 5.82645 40.5705 4.54585 41.3058 3.66759C40.441 3.81712 39.7297 4.52657 39.3775 5.66495C38.9186 7.14673 38.9658 7.99692 39.134 8.48049V7.86405ZM40.0697 8.3319V8.60045H40.0699V9.0698C40.0699 9.5893 40.4927 10.0121 41.0122 10.0121H42.0611C42.5806 10.0121 43.0033 9.5893 43.0033 9.0698V8.3319H40.0697ZM41.012 10.9479C40.6916 10.9479 40.3897 10.8669 40.1255 10.7249C40.4247 12.786 41.9992 14.172 44.1638 14.1722C46.3288 14.1722 47.9033 12.7862 48.2025 10.7249C47.9383 10.8667 47.6364 10.9479 47.316 10.9479H46.2671C45.9834 10.9479 45.715 10.8828 45.4736 10.7696C45.2517 11.2728 44.7486 11.6254 44.164 11.6254C43.5798 11.6254 43.0765 11.2728 42.8546 10.7694C42.6132 10.8826 42.3448 10.9479 42.0609 10.9479H41.012ZM42.3798 17.9268L41.4443 16.1458L40.1953 16.5646L40.2973 18.8496L42.3798 17.9268ZM36.808 74.0643H42.2245V72.1358H38.6999C38.1259 72.1358 37.693 72.299 37.3766 72.6347C36.9841 73.0515 36.8515 73.6563 36.808 74.0643ZM44.6304 45.0625L45.5271 71.2001H50.0889V41.5111H38.2395V48.8742L38.2397 50.1538C38.2397 50.1538 38.2394 50.6536 38.2395 50.996C38.2395 51.1871 38.2397 51.5198 38.2397 51.5198V71.2001H42.8016L43.6952 45.0627C43.7038 44.8098 43.9114 44.6107 44.1623 44.6107C44.1677 44.6107 44.1734 44.6107 44.1786 44.6111C44.426 44.6195 44.6197 44.8188 44.6281 45.0625H44.6304ZM46.1045 74.0643H51.5218C51.4788 73.6561 51.3461 73.0505 50.9496 72.6315C50.6331 72.2979 50.2014 72.1358 49.6291 72.1358H46.1045V74.0643ZM55.3854 42.6845C55.4293 43.0136 55.6253 43.2882 55.8963 43.4521C56.0681 42.6201 56.6909 41.9522 57.4967 41.7128L57.4694 41.5109H55.1267L55.3784 42.645C55.3812 42.6581 55.3837 42.6712 55.3854 42.6845ZM56.8327 43.5633C57.0511 43.4953 57.2424 43.3658 57.3823 43.1841C57.4987 43.0329 57.5661 42.8576 57.5888 42.6749C57.2203 42.8417 56.9396 43.1667 56.8327 43.5633ZM54.7946 40.5754H57.4832L57.6049 39.7714H54.2608L54.7946 40.5754ZM32.7731 42.9489L33.1881 41.1681L30.1531 40.2097C30.1531 40.2097 30.0681 40.5427 30.0132 40.9839C29.9464 41.5201 29.9242 42.2162 30.1531 42.6682C30.3986 43.1528 30.4889 43.3835 30.9017 43.6039C31.322 43.8282 31.7207 43.9577 32.1181 43.6975C32.3353 43.5552 32.6302 43.4272 32.7351 43.1121C32.7558 43.05 32.7596 43.0019 32.7731 42.9489ZM53.7713 38.8357L51.0154 25.2833C50.9651 25.0357 50.7261 24.8748 50.4783 24.9152C50.2294 24.9577 50.0589 25.1901 50.0934 25.4403C50.1061 25.533 51.3018 34.3831 50.2532 40.5754H38.0752C37.0272 34.3853 38.2223 25.533 38.235 25.4403C38.2694 25.1901 38.0989 24.9577 37.85 24.9152C37.6019 24.8748 37.3635 25.0357 37.313 25.2833L33.9244 38.2666L33.7088 39.0925L33.3628 40.418L30.3169 39.3932C30.393 39.0141 30.5052 38.6326 30.621 38.0832C30.6648 37.8752 30.6974 37.5629 30.746 37.3347C31.9161 31.8371 34.378 20.8395 34.3791 20.8266C34.3816 20.7996 34.6617 18.1372 38.0495 17.2825C38.061 17.2795 39.2721 16.874 39.2721 16.874L39.3925 19.5759C39.3992 19.7303 39.4821 19.8714 39.6135 19.9528C39.6885 19.9994 39.7739 20.023 39.8598 20.023C39.9241 20.023 39.9887 20.0097 40.0493 19.9827L40.3474 19.8506C40.6463 20.7624 41.4029 21.9009 42.8886 22.3366L42.8889 22.3367C42.9038 22.3415 43.4438 22.5174 44.1638 22.5174C44.8788 22.5174 45.4159 22.3441 45.4385 22.3368L45.4392 22.3366C46.9249 21.9009 47.6815 20.7624 47.9804 19.8506L48.2785 19.9827C48.3389 20.0097 48.4037 20.023 48.4681 20.023C48.5538 20.023 48.6393 19.9994 48.7143 19.9528C48.8457 19.8714 48.9286 19.7305 48.9354 19.5759L49.0559 16.874C49.0559 16.874 50.267 17.2795 50.2785 17.2825C53.6395 18.1304 53.9382 20.719 53.9491 20.8266C53.9505 20.8434 57.5772 38.8357 57.5772 38.8357H53.7713Z" fill="#1C1B1A"/>
<path d="M30.746 37.3347C30.6974 37.5629 30.6648 37.8752 30.621 38.0832L33.7088 39.0925L33.9244 38.2666L30.746 37.3347Z" fill="#1C1B1A"/>
</svg>
