<svg xmlns="http://www.w3.org/2000/svg" viewBox="0 0 192.24 144"><defs><style>.cls-1{fill:#fff;}</style></defs><title>footer-logo</title><g id="Слой_2" data-name="Слой 2"><g id="layout"><path class="cls-1" d="M5.73,133.5H8.45v10.21H5.73v-3.92h-3v3.92H0V133.5H2.73v3.78h3Z"/><path class="cls-1" d="M18.37,133.5v10.21H15.65V136H12.87v7.69H10.14V133.5Z"/><path class="cls-1" d="M29.21,142.39a5.56,5.56,0,0,1-4,1.54,5.56,5.56,0,0,1-4-1.54,5.22,5.22,0,0,1,0-7.57,5.56,5.56,0,0,1,4-1.54,5.56,5.56,0,0,1,4,1.54,5.22,5.22,0,0,1,0,7.57Zm-6-1.79a3.11,3.11,0,0,0,4.12,0,2.82,2.82,0,0,0,0-4,3.11,3.11,0,0,0-4.12,0,2.82,2.82,0,0,0,0,4Z"/><path class="cls-1" d="M39.69,133.28a5.51,5.51,0,0,1,4,1.52,5.38,5.38,0,0,1,0,7.6,5.5,5.5,0,0,1-4,1.52,5.65,5.65,0,0,1-2.7-.66,4.92,4.92,0,0,1-1.92-1.76l2.35-1.31a2.17,2.17,0,0,0,.92.9,2.9,2.9,0,0,0,1.38.33,3,3,0,0,0,1.64-.43,2.55,2.55,0,0,0,1-1.19H38.5v-2.39h3.86a2.55,2.55,0,0,0-1-1.19,3,3,0,0,0-1.64-.43,2.85,2.85,0,0,0-1.37.33,2.3,2.3,0,0,0-.93.88l-2.35-1.3A4.91,4.91,0,0,1,37,133.94,5.68,5.68,0,0,1,39.69,133.28Z"/><path class="cls-1" d="M52.26,133.5H55v10.21H52.26v-3.92h-3v3.92H46.52V133.5h2.73v3.78h3Z"/><path class="cls-1" d="M64,133.5V136H61.35v7.69H58.62V136H56V133.5Z"/><path class="cls-1" d="M64.21,140.47v-2.3h5.95v2.3Z"/><path class="cls-1" d="M78.4,133.5V136H75.76v7.69H73V136H70.39V133.5Z"/><path class="cls-1" d="M82.12,141.26h4.13v2.45H79.39V133.5h6.78v2.44H82.12v1.41h3.67v2.41H82.12Z"/><path class="cls-1" d="M96.25,143.71h-3L91.52,141l-1.68,2.72H86.78l3.21-5.2-3.09-5H90L91.52,136l1.56-2.52h3.06l-3.09,5Z"/><path class="cls-1" d="M102.92,133.5h2.71v10.21h-2.71v-3.92h-3v3.92H97.18V133.5h2.73v3.78h3Z"/><path class="cls-1" d="M116.48,142.39a5.9,5.9,0,0,1-7.94,0,5.22,5.22,0,0,1,0-7.57,5.9,5.9,0,0,1,7.94,0,5.22,5.22,0,0,1,0,7.57Zm-6-1.79a3.11,3.11,0,0,0,4.12,0,2.82,2.82,0,0,0,0-4,3.11,3.11,0,0,0-4.12,0,2.82,2.82,0,0,0,0,4Z"/><path class="cls-1" d="M118.07,143.71v-2.44a1.56,1.56,0,0,0,1.24-.24,1.91,1.91,0,0,0,.39-1.42V133.5h7.59v10.21h-2.73V136h-2.14v3.7a5.34,5.34,0,0,1-.37,2.12,2.71,2.71,0,0,1-1,1.28,3.85,3.85,0,0,1-1.38.54A5.68,5.68,0,0,1,118.07,143.71Z"/><path class="cls-1" d="M138.13,142.39a5.9,5.9,0,0,1-7.94,0,5.22,5.22,0,0,1,0-7.57,5.9,5.9,0,0,1,7.94,0,5.22,5.22,0,0,1,0,7.57Zm-6-1.79a3.11,3.11,0,0,0,4.12,0,2.82,2.82,0,0,0,0-4,3.11,3.11,0,0,0-4.12,0,2.82,2.82,0,0,0,0,4Z"/><path class="cls-1" d="M147.34,133.5V136h-3.58v7.69H141V133.5Z"/><path class="cls-1" d="M154.15,143.71v-5.13l-3.77,5.13h-2.12V133.5H151v5.13l3.77-5.13h2.1v10.21Z"/><path class="cls-1" d="M166.47,133.5v10.21h-2.72v-3.3h-.58l-2.15,3.3h-3l2.44-3.66a3.54,3.54,0,0,1-1.5-1.22,3.07,3.07,0,0,1-.56-1.79,3.27,3.27,0,0,1,1.1-2.53,3.91,3.91,0,0,1,2.73-1Zm-4.24,4.7h1.52v-2.29h-1.52a1.11,1.11,0,0,0-.82.33,1.21,1.21,0,0,0,0,1.66A1.07,1.07,0,0,0,162.23,138.2Z"/><path class="cls-1" d="M177.5,133.5h2.79l-3.09,7.06a5.41,5.41,0,0,1-1.91,2.44,4.82,4.82,0,0,1-2.91.7v-2.44a2.31,2.31,0,0,0,2.13-.74l-3.49-7h2.81l2,4.17Z"/><path class="cls-1" d="M191,135.78a3.81,3.81,0,0,1,0,5.64,6.24,6.24,0,0,1-3.48,1.36V144h-2.62v-1.21a6.28,6.28,0,0,1-3.48-1.36,3.79,3.79,0,0,1,0-5.64,6.28,6.28,0,0,1,3.48-1.36v-1.21h2.62v1.21A6.24,6.24,0,0,1,191,135.78Zm-8.11,2.82q0,1.52,2,1.79v-3.63a2.78,2.78,0,0,0-1.52.6A1.61,1.61,0,0,0,182.88,138.6Zm4.64,1.79a2.82,2.82,0,0,0,1.52-.59,1.55,1.55,0,0,0,.49-1.2,1.6,1.6,0,0,0-.49-1.24,2.78,2.78,0,0,0-1.52-.6Z"/><path class="cls-1" d="M96.31,102.59A5.55,5.55,0,1,0,90.76,97,5.56,5.56,0,0,0,96.31,102.59Zm0-7.93A2.38,2.38,0,1,1,93.93,97,2.38,2.38,0,0,1,96.31,94.66Z"/><circle class="cls-1" cx="64.89" cy="71.93" r="1.59"/><path class="cls-1" d="M136.11,63.44l-8-2.79a33.1,33.1,0,0,0-2.68-6.23l3.51-7.3a6.19,6.19,0,0,0-1.28-7l-1.83-1.83a6.19,6.19,0,0,0-7-1.28L111,40.71q-.94-.46-1.91-.86l9.58-16.6a4.37,4.37,0,0,0-1.59-6l-1-.59,4.16-7.2a5.37,5.37,0,0,0,.7-3.45A4,4,0,0,0,119,3.13L114.48.49c-2-1.16-4.76-.2-6.11,2.14l-4.15,7.2-.52-.3a4.36,4.36,0,0,0-6,1.6L74.1,52.08a4.37,4.37,0,0,0,1,5.54l-1.18,2h0c-1.55,2.69-.92,6,1.41,7.33L81,70.29a4.39,4.39,0,0,0,2.2.58A5,5,0,0,0,85,70.54a6.13,6.13,0,0,0,3.08-2.69l1.15-2a4.33,4.33,0,0,0,2.06.52,4.39,4.39,0,0,0,1.14-.15,4.34,4.34,0,0,0,2.65-2l7.07-12.25A19.56,19.56,0,0,1,104,88.58a9.91,9.91,0,0,0-17.5,4.58l-.93,5.6q-1.35-.52-2.63-1.16a16.05,16.05,0,0,0-1.24-21C79,73.86,75.67,72.75,72.45,72h0l-2.14-.49a1.59,1.59,0,1,0-.71,3.09l2.12.49c3.19.79,5.74,1.74,7.76,3.81A12.88,12.88,0,0,1,80.19,96a30.4,30.4,0,0,1-3.27-2.42l1.51-6a1.59,1.59,0,1,0-3.08-.77l-1.07,4.28a30.53,30.53,0,0,1-2.74-3.42l1.56-5.95A1.59,1.59,0,0,0,70,80.91l-.76,2.89a29.63,29.63,0,0,1-2.09-5.65,1.59,1.59,0,1,0-3.07.79,33.1,33.1,0,0,0,2.62,6.87L63,85.18a1.59,1.59,0,1,0-.53,3.13l6.35,1.08a33.39,33.39,0,0,0,2.57,3.3l-6.93.17a1.59,1.59,0,0,0,0,3.17h0l10-.25a33.47,33.47,0,0,0,3.25,2.49A12.88,12.88,0,0,1,61,96.83c-2-2.08-2.91-4.64-3.62-7.86l-3.65-18L59,72.13A1.59,1.59,0,0,0,59.72,69L52.08,67.3a1.59,1.59,0,0,0-1.91,1.86l4.14,20.46v0c.71,3.24,1.74,6.63,4.45,9.4A15.94,15.94,0,0,0,70,103.89h.21A15.92,15.92,0,0,0,80.71,100a33.17,33.17,0,0,0,4.37,1.94l-.69,4.17H79.5a9.51,9.51,0,0,0-7.85,4.15L63.7,121.89H59.31a1.59,1.59,0,1,0,0,3.17h74a1.59,1.59,0,0,0,0-3.17h-4.39L121,110.26a9.51,9.51,0,0,0-7.85-4.15h-4.88l-.69-4.13q1.5-.54,2.95-1.22l8,3.86a6,6,0,0,0,2.58.59,6.32,6.32,0,0,0,4.46-1.87l1.83-1.83a6.19,6.19,0,0,0,1.28-7l-3.46-7.19a32.89,32.89,0,0,0,3-6.72l8-2.78a6.19,6.19,0,0,0,4.07-5.88V69.32A6.19,6.19,0,0,0,136.11,63.44Zm-25-59.22c.5-.86,1.35-1.23,1.78-1l4.57,2.64a.88.88,0,0,1,.35.64,2.23,2.23,0,0,1-.31,1.4h0l-4.14,7.18L107,11.4Zm7.25,107.83L125,121.8H67.6l6.66-9.75a6.34,6.34,0,0,1,5.24-2.76h33.62A6.34,6.34,0,0,1,118.36,112.05Zm1.84-72.23a3,3,0,0,1,3.42.67l1.83,1.83a3,3,0,0,1,.67,3.42l-2.66,5.52a33.51,33.51,0,0,0-9.06-8.64ZM85.34,66.27a3,3,0,0,1-1.46,1.31,1.49,1.49,0,0,1-1.26,0l-5.72-3.3c-.81-.47-.92-1.84-.25-3h0l1.14-2,8.69,5Zm7-3.66a1.19,1.19,0,0,1-1.63.44L77.28,55.3a1.2,1.2,0,0,1-.43-1.63l23.63-40.94a1.19,1.19,0,0,1,1.63-.44L115.54,20a1.2,1.2,0,0,1,.43,1.63L105.48,39.84l0,0L100,49.25l0,0ZM89.67,93.68A6.74,6.74,0,0,1,102,91.26l.07.12a6.76,6.76,0,0,1,.83,2.31L105,106H87.61Zm16.41-.52a10,10,0,0,0-.48-1.8,22.74,22.74,0,0,0-1.83-42.22l3.76-6.52a30.2,30.2,0,0,1,17.84,36.17,1.56,1.56,0,0,0-.07.24,29.92,29.92,0,0,1-4.8,9.61A30.44,30.44,0,0,1,107,98.81Zm19.72,2.69a3,3,0,0,1-.67,3.42l-1.83,1.83a3,3,0,0,1-3.42.67l-6-2.87a33.6,33.6,0,0,0,9.12-8.36l.12-.16ZM137,71.9a3,3,0,0,1-2,2.89l-6,2.1a33.5,33.5,0,0,0,0-12.56l6,2.1a3,3,0,0,1,2,2.89Z"/></g></g></svg>