<svg xmlns="http://www.w3.org/2000/svg" viewBox="0 0 12.5 24"><defs><style>.cls-1{fill:#b7b9bd;}</style></defs><title>goBack</title><g id="Слой_2" data-name="Слой 2"><g id="layout"><path class="cls-1" d="M12,24a.5.5,0,0,1-.35-.15L.15,12.35a.5.5,0,0,1,0-.71L11.65.15a.5.5,0,1,1,.71.71L1.21,12,12.35,23.15A.5.5,0,0,1,12,24Z"/><path class="cls-1" d="M7,14.25a.5.5,0,0,1-.35-.15L4.9,12.35a.5.5,0,0,1,0-.71L9.81,6.73a.5.5,0,0,1,.71.71L6,12l1.4,1.4a.5.5,0,0,1-.35.85Z"/><path class="cls-1" d="M9.42,16.67a.5.5,0,0,1-.35-.15L8,15.45a.5.5,0,1,1,.71-.71l1.07,1.07a.5.5,0,0,1-.35.85Z"/></g></g></svg>