<svg xmlns="http://www.w3.org/2000/svg" viewBox="0 0 220 38.19"><defs><style>.cls-1{fill:#fff;}</style></defs><title>header-logo</title><g id="Слой_2" data-name="Слой 2"><g id="layout"><path class="cls-1" d="M14.08,31.28a1.76,1.76,0,1,0-1.76-1.76A1.76,1.76,0,0,0,14.08,31.28Zm0-2.41a.64.64,0,1,1-.64.64A.64.64,0,0,1,14.08,28.87Z"/><circle class="cls-1" cx="4.42" cy="21.9" r="0.68"/><path class="cls-1" d="M26.18,19.25l-2.39-.84A10.24,10.24,0,0,0,23,16.59l1.05-2.19a2,2,0,0,0-.4-2.22l-.55-.55a2,2,0,0,0-2.22-.4l-2.33,1.12-.47-.21,2.86-5a1.4,1.4,0,0,0-.51-1.92l-.24-.14L21.41,3a1.71,1.71,0,0,0,.22-1.1A1.29,1.29,0,0,0,21,1L19.63.16A1.29,1.29,0,0,0,18.51.1a1.71,1.71,0,0,0-.84.74L16.45,3l-.09-.05a1.4,1.4,0,0,0-1.92.51L7.28,15.84a1.4,1.4,0,0,0,.27,1.73l-.33.57h0a1.69,1.69,0,0,0,.46,2.33l1.73,1a1.41,1.41,0,0,0,.71.19,1.59,1.59,0,0,0,.56-.11,1.93,1.93,0,0,0,1-.85l.31-.54a1.39,1.39,0,0,0,.59.14,1.42,1.42,0,0,0,.37,0,1.4,1.4,0,0,0,.85-.65l2.11-3.66a5.85,5.85,0,0,1,.56,10.92A3.09,3.09,0,0,0,11,28.32l-.27,1.6c-.21-.08-.42-.18-.62-.27a4.94,4.94,0,0,0-.44-6.38,5.65,5.65,0,0,0-2.86-1.44l-.65-.15A.56.56,0,0,0,6,22.77l.64.15a4.53,4.53,0,0,1,2.32,1.14,3.82,3.82,0,0,1,.26,5,9.14,9.14,0,0,1-.89-.66l.45-1.78a.56.56,0,0,0-1.08-.27l-.29,1.15a9.16,9.16,0,0,1-.71-.89l.46-1.76A.56.56,0,0,0,6,24.6l-.17.66a8.89,8.89,0,0,1-.54-1.5A.56.56,0,0,0,4.24,24,10,10,0,0,0,5,26l-1-.16a.56.56,0,0,0-.19,1.1l1.91.32a10.29,10.29,0,0,0,.66.85l-1.95,0a.56.56,0,0,0,0,1.12h0l3-.08a10.26,10.26,0,0,0,.87.67,3.71,3.71,0,0,1-2.21.67,3.8,3.8,0,0,1-2.69-1.16,4.53,4.53,0,0,1-1.08-2.34L1.28,21.7,2.75,22A.56.56,0,0,0,3,20.94L.68,20.41a.56.56,0,0,0-.67.66l1.26,6.21a5.64,5.64,0,0,0,1.37,2.89,4.91,4.91,0,0,0,3.48,1.49h.06A4.9,4.9,0,0,0,9.36,30.5a10,10,0,0,0,1.23.55l-.19,1.14H9a3,3,0,0,0-2.45,1.29L4.15,37H2.86a.56.56,0,0,0,0,1.12H25.31a.56.56,0,0,0,0-1.12H24l-2.39-3.49a3,3,0,0,0-2.45-1.29H17.77l-.19-1.13q.41-.15.8-.33l2.4,1.16a1.88,1.88,0,0,0,.82.19A2,2,0,0,0,23,31.48l.55-.55A2,2,0,0,0,24,28.7l-1-2.14a10.11,10.11,0,0,0,.87-2l2.38-.83a2,2,0,0,0,1.29-1.86v-.78A2,2,0,0,0,26.18,19.25ZM18.64,1.4a.6.6,0,0,1,.28-.26.2.2,0,0,1,.15,0l1.39.8a.2.2,0,0,1,.07.14.6.6,0,0,1-.08.37h0L19.23,4.55l-1.8-1Zm2.07,32.71,1.94,2.84H5.52l1.94-2.83A1.85,1.85,0,0,1,9,33.31h10.2A1.84,1.84,0,0,1,20.71,34.11Zm.66-21.88a.84.84,0,0,1,.95.19l.55.55a.84.84,0,0,1,.19.95l-.75,1.56A10.18,10.18,0,0,0,19.73,13ZM10.69,20.14a.83.83,0,0,1-.4.36.38.38,0,0,1-.31,0l-1.73-1c-.18-.1-.25-.46,0-.8l.31-.53L11,19.61ZM12.81,19a.28.28,0,0,1-.17.13.28.28,0,0,1-.22,0L8.35,16.78a.29.29,0,0,1-.1-.39L15.41,4a.28.28,0,0,1,.39-.11l4.07,2.35a.28.28,0,0,1,.1.39L16.8,12.12h0Zm-.66,9.48a2,2,0,0,1,3.88,0l.61,3.65H11.54Zm5-.18a3.12,3.12,0,0,0-.13-.49,7,7,0,0,0-.54-12.89l1.06-1.83a9.07,9.07,0,0,1,4.34,13.08.55.55,0,0,0-.07.12,9,9,0,0,1-4.39,3.63Zm5.83.86a.84.84,0,0,1-.19.95l-.55.55a.84.84,0,0,1-.95.19l-1.68-.81a10.1,10.1,0,0,0,2.63-2.42Zm3.39-7.3a.84.84,0,0,1-.54.8l-1.69.59a10.33,10.33,0,0,0,.16-1.79,10.08,10.08,0,0,0-.16-1.79l1.7.59a.84.84,0,0,1,.54.8Z"/><path class="cls-1" d="M37,27.89h2.66v10H37V34.06H34v3.85H31.34v-10H34v3.71H37Z"/><path class="cls-1" d="M49.37,27.89v10H46.69V30.36H44v7.54H41.29v-10Z"/><path class="cls-1" d="M60,36.61a5.79,5.79,0,0,1-7.8,0,5.12,5.12,0,0,1,0-7.43,5.79,5.79,0,0,1,7.8,0,5.12,5.12,0,0,1,0,7.43Zm-5.92-1.76a3,3,0,0,0,4,0,2.76,2.76,0,0,0,0-3.91,3,3,0,0,0-4,0,2.76,2.76,0,0,0,0,3.91Z"/><path class="cls-1" d="M70.29,27.67a5.4,5.4,0,0,1,3.92,1.5,5.28,5.28,0,0,1,0,7.46,5.4,5.4,0,0,1-3.92,1.5,5.55,5.55,0,0,1-2.65-.64,4.82,4.82,0,0,1-1.89-1.73l2.3-1.29a2.13,2.13,0,0,0,.91.88,2.84,2.84,0,0,0,1.35.32,3,3,0,0,0,1.61-.42,2.5,2.5,0,0,0,1-1.17H69.13V31.72h3.79a2.5,2.5,0,0,0-1-1.17,3,3,0,0,0-1.61-.42,2.8,2.8,0,0,0-1.35.32,2.26,2.26,0,0,0-.91.87L65.76,30a4.82,4.82,0,0,1,1.89-1.73A5.58,5.58,0,0,1,70.29,27.67Z"/><path class="cls-1" d="M82.62,27.89h2.66v10H82.62V34.06H79.68v3.85H77v-10h2.68v3.71h2.95Z"/><path class="cls-1" d="M94.13,27.89v2.48H91.54v7.54H88.86V30.36H86.28V27.89Z"/><path class="cls-1" d="M94.36,34.73V32.47h5.84v2.26Z"/><path class="cls-1" d="M108.27,27.89v2.48h-2.59v7.54H103V30.36h-2.59V27.89Z"/><path class="cls-1" d="M111.93,35.5H116v2.4h-6.73v-10h6.66v2.39h-4v1.39h3.61V34h-3.61Z"/><path class="cls-1" d="M125.8,37.91h-3l-1.65-2.67-1.65,2.67h-3l3.15-5.11-3-4.91h3l1.52,2.48,1.53-2.48h3l-3,4.92Z"/><path class="cls-1" d="M132.34,27.89H135v10h-2.66V34.06h-2.95v3.85h-2.68v-10h2.68v3.71h2.95Z"/><path class="cls-1" d="M145.65,36.61a5.79,5.79,0,0,1-7.8,0,5.12,5.12,0,0,1,0-7.43,5.79,5.79,0,0,1,7.8,0,5.12,5.12,0,0,1,0,7.43Zm-5.92-1.76a3,3,0,0,0,4,0,2.76,2.76,0,0,0,0-3.91,3,3,0,0,0-4,0,2.76,2.76,0,0,0,0,3.91Z"/><path class="cls-1" d="M147.21,37.91V35.52a1.53,1.53,0,0,0,1.22-.24,1.87,1.87,0,0,0,.38-1.4v-6h7.45v10h-2.68V30.36h-2.1V34a5.24,5.24,0,0,1-.37,2.08,2.66,2.66,0,0,1-1,1.25,3.78,3.78,0,0,1-1.35.53A5.57,5.57,0,0,1,147.21,37.91Z"/><path class="cls-1" d="M166.9,36.61a5.79,5.79,0,0,1-7.8,0,5.12,5.12,0,0,1,0-7.43,5.79,5.79,0,0,1,7.8,0,5.12,5.12,0,0,1,0,7.43ZM161,34.85a3,3,0,0,0,4,0,2.76,2.76,0,0,0,0-3.91,3,3,0,0,0-4,0,2.76,2.76,0,0,0,0,3.91Z"/><path class="cls-1" d="M175.93,27.89v2.48h-3.52v7.54h-2.68v-10Z"/><path class="cls-1" d="M182.62,37.91v-5l-3.7,5h-2.08v-10h2.68v5l3.7-5h2.07v10Z"/><path class="cls-1" d="M194.71,27.89v10H192V34.67h-.57l-2.11,3.23h-3l2.39-3.59a3.48,3.48,0,0,1-1.47-1.2,3,3,0,0,1-.55-1.76,3.21,3.21,0,0,1,1.08-2.48,3.83,3.83,0,0,1,2.68-1Zm-4.16,4.61H192V30.25h-1.5a1.08,1.08,0,0,0-.8.32,1.19,1.19,0,0,0,0,1.62A1,1,0,0,0,190.55,32.5Z"/><path class="cls-1" d="M205.53,27.89h2.74l-3,6.93a5.31,5.31,0,0,1-1.87,2.4,4.73,4.73,0,0,1-2.86.69V35.52a2.27,2.27,0,0,0,2.09-.73l-3.43-6.9h2.75l1.94,4.1Z"/><path class="cls-1" d="M218.77,30.13a3.74,3.74,0,0,1,0,5.54A6.12,6.12,0,0,1,215.36,37v1.19h-2.57V37a6.16,6.16,0,0,1-3.42-1.34,3.72,3.72,0,0,1,0-5.54,6.16,6.16,0,0,1,3.42-1.34V27.6h2.57v1.19A6.12,6.12,0,0,1,218.77,30.13Zm-8,2.77q0,1.49,2,1.76V31.09a2.72,2.72,0,0,0-1.5.59A1.58,1.58,0,0,0,210.81,32.9Zm4.55,1.76a2.77,2.77,0,0,0,1.5-.58,1.52,1.52,0,0,0,.48-1.18,1.57,1.57,0,0,0-.48-1.22,2.73,2.73,0,0,0-1.5-.59Z"/></g></g></svg>