<svg xmlns="http://www.w3.org/2000/svg" viewBox="0 0 278.67 48.38"><defs><style>.cls-1{fill:#2a2a68;}</style></defs><title>header-logo-blue</title><g id="Слой_2" data-name="Слой 2"><g id="layout"><path class="cls-1" d="M17.84,39.62a2.24,2.24,0,1,0-2.23-2.23A2.23,2.23,0,0,0,17.84,39.62Zm0-3a.82.82,0,1,1-.82.82A.82.82,0,0,1,17.84,36.57Z"/><circle class="cls-1" cx="5.59" cy="27.74" r="0.87"/><path class="cls-1" d="M33.16,24.38l-3-1.06a12.7,12.7,0,0,0-1-2.3l1.34-2.77A2.48,2.48,0,0,0,30,15.43l-.7-.7a2.49,2.49,0,0,0-2.82-.52L23.5,15.64c-.2-.1-.39-.19-.59-.27l3.62-6.29a1.77,1.77,0,0,0-.65-2.42l-.3-.18L27.12,3.8a2.16,2.16,0,0,0,.28-1.39,1.61,1.61,0,0,0-.78-1.19L24.87.2A1.61,1.61,0,0,0,23.45.13a2.15,2.15,0,0,0-1.07.93L20.84,3.74l-.12-.06a1.77,1.77,0,0,0-2.42.65L9.22,20.06a1.78,1.78,0,0,0,.34,2.2L9.15,23h0a2.14,2.14,0,0,0,.58,3l2.2,1.27a1.76,1.76,0,0,0,.9.24,2,2,0,0,0,.71-.13,2.5,2.5,0,0,0,1.24-1.08l.39-.69a1.79,1.79,0,0,0,.75.17,1.76,1.76,0,0,0,.46-.06,1.74,1.74,0,0,0,1.08-.83l2.68-4.63A7.41,7.41,0,0,1,20.84,34,3.91,3.91,0,0,0,14,35.88l-.34,2c-.27-.11-.53-.22-.78-.35a6.25,6.25,0,0,0-.56-8.08,7.11,7.11,0,0,0-3.63-1.83l-.82-.19A.71.71,0,0,0,7,28a.72.72,0,0,0,.54.85l.81.19a5.67,5.67,0,0,1,2.94,1.44,4.85,4.85,0,0,1,.32,6.39A13.08,13.08,0,0,1,10.5,36l.56-2.25a.71.71,0,1,0-1.37-.34l-.37,1.45a9.83,9.83,0,0,1-.89-1.13L9,31.52a.71.71,0,0,0-1.37-.36L7.43,32a10.51,10.51,0,0,1-.69-1.9.71.71,0,0,0-1.37.35,12.61,12.61,0,0,0,.93,2.49l-1.23-.21a.71.71,0,0,0-.23,1.4l2.41.41c.26.37.54.73.83,1.08l-2.46.06a.71.71,0,0,0,0,1.41h0L9.46,37c.35.3.72.58,1.1.85a4.72,4.72,0,0,1-2.8.85,4.85,4.85,0,0,1-3.41-1.47,5.77,5.77,0,0,1-1.36-3L1.62,27.48l1.87.43a.69.69,0,0,0,.84-.53.71.71,0,0,0-.53-.85L.87,25.86A.76.76,0,0,0,.21,26a.74.74,0,0,0-.2.65l1.6,7.87a7,7,0,0,0,1.73,3.66,6.21,6.21,0,0,0,4.41,1.89h.08a6.23,6.23,0,0,0,4-1.47,14.33,14.33,0,0,0,1.55.69l-.24,1.44H11.38a3.74,3.74,0,0,0-3.1,1.64l-3,4.42H3.62a.71.71,0,1,0,0,1.42H32.06a.71.71,0,0,0,0-1.42H30.42l-3-4.42a3.74,3.74,0,0,0-3.1-1.64H22.51l-.24-1.43c.35-.13.68-.26,1-.42l3,1.47a2.31,2.31,0,0,0,1,.23,2.53,2.53,0,0,0,1.78-.74l.71-.71a2.47,2.47,0,0,0,.51-2.81l-1.31-2.72a13.27,13.27,0,0,0,1.1-2.5l3-1.06a2.48,2.48,0,0,0,1.64-2.35v-1A2.48,2.48,0,0,0,33.16,24.38ZM23.61,1.77A.81.81,0,0,1,24,1.44a.3.3,0,0,1,.19,0l1.76,1c.06,0,.08.13.08.17a.69.69,0,0,1-.1.47h0L24.35,5.76,22.07,4.44Zm2.62,41.44,2.45,3.59H7l2.45-3.59a2.34,2.34,0,0,1,1.93-1H24.3A2.34,2.34,0,0,1,26.23,43.21Zm.83-27.72a1.05,1.05,0,0,1,1.2.24l.71.7a1.05,1.05,0,0,1,.23,1.2l-.95,2A12.91,12.91,0,0,0,25,16.49Zm-13.52,10A1,1,0,0,1,13,26a.46.46,0,0,1-.4,0l-2.2-1.27c-.23-.13-.31-.58-.06-1l.39-.67,3.17,1.83Zm2.69-1.4a.36.36,0,0,1-.22.16.36.36,0,0,1-.28,0l-5.15-3a.36.36,0,0,1-.14-.49L19.52,5A.38.38,0,0,1,20,4.9l5.16,3a.37.37,0,0,1,.13.5l-4,7h0Zm-.85,12a2.49,2.49,0,0,1,4.91,0l.78,4.63H14.61Zm6.31-.23a3.23,3.23,0,0,0-.16-.63,8.83,8.83,0,0,0-.68-16.32l1.34-2.32a11.06,11.06,0,0,1,1.43.69,11.49,11.49,0,0,1,4.07,15.87.51.51,0,0,0-.09.16A11.38,11.38,0,0,1,22,37.92ZM29.08,37a1.05,1.05,0,0,1-.24,1.2l-.7.7a1.05,1.05,0,0,1-1.2.24l-2.12-1A12.79,12.79,0,0,0,28.14,35Zm4.3-9.24a1,1,0,0,1-.68,1l-2.15.75a12.92,12.92,0,0,0,.2-2.26A12.29,12.29,0,0,0,30.54,25l2.16.76a1,1,0,0,1,.68,1Z"/><path class="cls-1" d="M46.83,35.33H50.2V48H46.83V43.14H43.09V48H39.7V35.33h3.39V40h3.74Z"/><path class="cls-1" d="M62.54,35.33V48H59.15V38.46H55.7V48H52.3V35.33Z"/><path class="cls-1" d="M76,46.38a7.34,7.34,0,0,1-9.88,0,6.49,6.49,0,0,1,0-9.41A7.32,7.32,0,0,1,76,37a6.49,6.49,0,0,1,0,9.41Zm-7.5-2.23a3.86,3.86,0,0,0,5.12,0,3.29,3.29,0,0,0,1-2.48,3.25,3.25,0,0,0-1-2.47,3.86,3.86,0,0,0-5.12,0,3.25,3.25,0,0,0-1,2.47A3.29,3.29,0,0,0,68.51,44.15Z"/><path class="cls-1" d="M89,35.05A6.86,6.86,0,0,1,94,37a6.69,6.69,0,0,1,0,9.44,6.82,6.82,0,0,1-5,1.9,7,7,0,0,1-3.35-.82,6,6,0,0,1-2.39-2.19l2.92-1.63a2.66,2.66,0,0,0,1.14,1.11,3.67,3.67,0,0,0,1.72.41,3.8,3.8,0,0,0,2-.53,3.21,3.21,0,0,0,1.24-1.48h-4.8v-3h4.8a3.19,3.19,0,0,0-1.24-1.47,3.72,3.72,0,0,0-2-.54,3.6,3.6,0,0,0-1.71.41,2.84,2.84,0,0,0-1.15,1.1L83.3,38.06a6.14,6.14,0,0,1,2.4-2.19A7.06,7.06,0,0,1,89,35.05Z"/><path class="cls-1" d="M104.66,35.33H108V48h-3.37V43.14h-3.73V48h-3.4V35.33h3.4V40h3.73Z"/><path class="cls-1" d="M119.24,35.33v3.13H116V48h-3.4V38.46h-3.27V35.33Z"/><path class="cls-1" d="M119.52,44V41.13h7.4V44Z"/><path class="cls-1" d="M137.15,35.33v3.13h-3.28V48h-3.39V38.46H127.2V35.33Z"/><path class="cls-1" d="M141.78,45h5.13V48h-8.53V35.33h8.44v3h-5v1.76h4.56v3h-4.56Z"/><path class="cls-1" d="M159.35,48h-3.79l-2.09-3.38L151.39,48h-3.81l4-6.47-3.84-6.22h3.81l1.93,3.13,1.94-3.13h3.81l-3.85,6.22Z"/><path class="cls-1" d="M167.63,35.33H171V48h-3.37V43.14H163.9V48h-3.4V35.33h3.4V40h3.73Z"/><path class="cls-1" d="M184.49,46.38a7.33,7.33,0,0,1-9.87,0,6.49,6.49,0,0,1,0-9.41,7.3,7.3,0,0,1,9.87,0,6.49,6.49,0,0,1,0,9.41ZM177,44.15a3.86,3.86,0,0,0,5.12,0,3.26,3.26,0,0,0,1-2.48,3.22,3.22,0,0,0-1-2.47,3.86,3.86,0,0,0-5.12,0,3.25,3.25,0,0,0-1,2.47A3.29,3.29,0,0,0,177,44.15Z"/><path class="cls-1" d="M186.47,48V45a2,2,0,0,0,1.55-.3,2.37,2.37,0,0,0,.48-1.77V35.33h9.44V48h-3.39V38.46H191.9v4.61a6.58,6.58,0,0,1-.47,2.63,3.38,3.38,0,0,1-1.27,1.59,4.81,4.81,0,0,1-1.71.67A7.17,7.17,0,0,1,186.47,48Z"/><path class="cls-1" d="M211.41,46.38a7.34,7.34,0,0,1-9.88,0,6.49,6.49,0,0,1,0-9.41,7.32,7.32,0,0,1,9.88,0,6.49,6.49,0,0,1,0,9.41Zm-7.5-2.23a3.86,3.86,0,0,0,5.12,0,3.3,3.3,0,0,0,1-2.48,3.26,3.26,0,0,0-1-2.47,3.86,3.86,0,0,0-5.12,0,3.25,3.25,0,0,0-1,2.47A3.29,3.29,0,0,0,203.91,44.15Z"/><path class="cls-1" d="M222.85,35.33v3.13H218.4V48H215V35.33Z"/><path class="cls-1" d="M231.32,48V41.63L226.64,48H224V35.33h3.39v6.38l4.68-6.38h2.62V48Z"/><path class="cls-1" d="M246.64,35.33V48h-3.38v-4.1h-.72L239.87,48H236.1l3-4.56a4.36,4.36,0,0,1-1.86-1.52,3.76,3.76,0,0,1-.7-2.23,4.06,4.06,0,0,1,1.37-3.14,4.84,4.84,0,0,1,3.39-1.24Zm-5.27,5.83h1.89V38.32h-1.89a1.33,1.33,0,0,0-1,.41,1.49,1.49,0,0,0,0,2.05A1.27,1.27,0,0,0,241.37,41.16Z"/><path class="cls-1" d="M260.34,35.33h3.47L260,44.11a6.64,6.64,0,0,1-2.37,3A5.94,5.94,0,0,1,254,48V45a2.85,2.85,0,0,0,2.65-.93l-4.34-8.73h3.49l2.45,5.19Z"/><path class="cls-1" d="M277.12,38.16a4.75,4.75,0,0,1,0,7,7.73,7.73,0,0,1-4.32,1.69v1.51h-3.26V46.87a7.74,7.74,0,0,1-4.33-1.69,4.71,4.71,0,0,1,0-7,7.81,7.81,0,0,1,4.33-1.69V35h3.26v1.51A7.81,7.81,0,0,1,277.12,38.16ZM267,41.67c0,1.26.83,2,2.5,2.23V39.39a3.52,3.52,0,0,0-1.9.74A2,2,0,0,0,267,41.67Zm5.76,2.23a3.53,3.53,0,0,0,1.89-.73,1.92,1.92,0,0,0,.61-1.5,2,2,0,0,0-.61-1.54,3.45,3.45,0,0,0-1.89-.74Z"/></g></g></svg>