<svg width="16" height="16" viewBox="0 0 16 16" fill="none" xmlns="http://www.w3.org/2000/svg">
<g clip-path="url(#clip0)">
<path d="M15.9958 6.92149C15.967 6.54686 15.794 6.20599 15.5089 5.96161L14.1249 4.77536V1.40451C14.1249 1.14563 13.915 0.935791 13.6562 0.935791H11.7813C11.5224 0.935791 11.3188 1.14567 11.3188 1.40451V2.36476L8.94656 0.343039C8.41625 -0.111305 7.64647 -0.111243 7.11784 0.341696L0.491483 5.96155C-0.094549 6.46368 -0.17058 7.34977 0.339421 7.94509C0.72814 8.39712 1.3508 8.54124 1.88161 8.35468V15.5292C1.88161 15.7881 2.08524 15.9979 2.34408 15.9979H13.6562C13.915 15.9979 14.1249 15.788 14.1249 15.5292V8.35477C14.6728 8.54852 15.2824 8.38615 15.6614 7.94446C15.9057 7.65921 16.0245 7.2959 15.9958 6.92149ZM12.25 1.87323H13.1937V3.9718L12.25 3.16826V1.87323ZM9.91257 15.0605H6.09396V11.3043H9.91257V15.0605ZM13.1937 15.0605H10.8438V10.8419C10.8438 10.583 10.6339 10.3732 10.3751 10.3732H5.62521C5.36634 10.3732 5.16274 10.583 5.16274 10.8419V15.0605H2.81283V7.68049L8.02981 3.25508L13.1937 7.67612V15.0605H13.1937ZM14.9497 7.33421C14.7835 7.5279 14.488 7.5563 14.2885 7.38518L8.33641 2.28317C8.16156 2.13326 7.90375 2.13264 7.72815 2.28161C7.60131 2.38917 1.73686 7.36387 1.71205 7.38493C1.51574 7.5529 1.21886 7.52999 1.05077 7.33446C0.882484 7.13805 0.905234 6.84152 1.0998 6.67477L7.72619 1.05488C7.90306 0.903384 8.15975 0.903353 8.3365 1.05482L14.8988 6.67343C15.095 6.84155 15.1177 7.13812 14.9497 7.33421Z" fill="#4479BC"/>
<path d="M8.49997 13.1854C8.75884 13.1854 8.96869 12.9755 8.96869 12.7166C8.96869 12.4578 8.75884 12.2479 8.49997 12.2479C8.2411 12.2479 8.03125 12.4578 8.03125 12.7166C8.03125 12.9755 8.2411 13.1854 8.49997 13.1854Z" fill="#4479BC"/>
</g>
<defs>
<clipPath id="clip0">
<rect width="16" height="16" fill="white"/>
</clipPath>
</defs>
</svg>
