<svg width="25" height="25" viewBox="0 0 25 25" fill="none" xmlns="http://www.w3.org/2000/svg">
<g clip-path="url(#clip0)">
<path d="M24.9934 10.8149C24.9484 10.2296 24.6782 9.69694 24.2326 9.3151L22.0702 7.46158V2.19463C22.0702 1.79013 21.7423 1.46225 21.3378 1.46225H18.4082C18.0037 1.46225 17.6856 1.79018 17.6856 2.19463V3.69502L13.979 0.536079C13.1504 -0.173834 11.9476 -0.173737 11.1216 0.53398L0.767943 9.315C-0.147733 10.0996 -0.266532 11.4841 0.530345 12.4143C1.13772 13.1206 2.11062 13.3458 2.94002 13.0543V24.2644C2.94002 24.6689 3.25818 24.9968 3.66263 24.9968H21.3378C21.7423 24.9968 22.0701 24.6689 22.0701 24.2644V13.0544C22.9263 13.3571 23.8787 13.1034 24.4709 12.4133C24.8527 11.9676 25.0383 11.3999 24.9934 10.8149ZM19.1406 2.927H20.6152V6.20601L19.1406 4.95049V2.927ZM15.4884 23.5321H9.52182V17.6631H15.4884V23.5321ZM20.6152 23.5321H16.9434V16.9405C16.9434 16.536 16.6155 16.2081 16.211 16.2081H8.78939C8.3849 16.2081 8.06678 16.5361 8.06678 16.9405V23.5321H4.39505V12.0008L12.5466 5.08614L20.6152 11.994V23.5321H20.6152ZM23.3589 11.4598C23.0992 11.7624 22.6376 11.8068 22.3257 11.5394L13.0256 3.56753C12.7524 3.3333 12.3496 3.33232 12.0752 3.56509C11.877 3.73316 2.71385 11.5061 2.67508 11.539C2.36834 11.8015 1.90447 11.7657 1.64182 11.4602C1.37888 11.1533 1.41443 10.69 1.71843 10.4294L12.0722 1.64834C12.3485 1.41162 12.7496 1.41157 13.0258 1.64824L23.2794 10.4273C23.586 10.69 23.6215 11.1534 23.3589 11.4598Z" fill="#4479BC"/>
<path d="M13.2812 20.6022C13.6857 20.6022 14.0136 20.2743 14.0136 19.8698C14.0136 19.4653 13.6857 19.1375 13.2812 19.1375C12.8767 19.1375 12.5488 19.4653 12.5488 19.8698C12.5488 20.2743 12.8767 20.6022 13.2812 20.6022Z" fill="#4479BC"/>
</g>
<defs>
<clipPath id="clip0">
<rect width="25" height="25" fill="white"/>
</clipPath>
</defs>
</svg>
