<svg width="56" height="67" viewBox="0 0 56 67" fill="none" xmlns="http://www.w3.org/2000/svg">
<path d="M27.5337 39.6359L27.5343 39.6362C27.6682 39.7022 27.8141 39.7365 27.9591 39.7365C28.1027 39.7365 28.2494 39.7044 28.3853 39.6337C28.3856 39.6336 28.386 39.6334 28.3863 39.6332L54.5172 26.5686L54.5175 26.5685C54.8383 26.4071 55.0415 26.0787 55.0415 25.7196C55.0415 25.3604 54.8383 25.032 54.5175 24.8707L54.5172 24.8705L33.9425 14.584L33.9425 14.584L33.9417 14.5836C33.4751 14.3541 32.9057 14.5398 32.6684 15.0088L32.668 15.0095C32.4344 15.4786 32.6244 16.0482 33.0933 16.2836L33.0934 16.2837L51.9685 25.7212L27.9591 37.7251L3.94968 25.7212L23.0836 16.1584L23.0838 16.1583C23.5527 15.9229 23.7426 15.3533 23.509 14.8842L23.509 14.884C23.2735 14.413 22.7036 14.2251 22.2348 14.4586L22.2346 14.4586L1.40089 24.8738L1.40062 24.874C1.07986 25.0353 0.876587 25.3637 0.876587 25.7229C0.876587 26.082 1.07986 26.4104 1.40062 26.5718L1.40089 26.5719L27.5337 39.6359Z" fill="#213A72" stroke="#213A72" stroke-width="0.25"/>
<path d="M27.5331 66.0244L27.5338 66.0247C27.6676 66.0907 27.8135 66.125 27.9585 66.125C28.1019 66.125 28.2483 66.093 28.3807 66.0259C28.3809 66.0258 28.381 66.0258 28.3811 66.0257L54.5133 52.9604L54.5135 52.9603C54.9824 52.725 55.1724 52.1553 54.9388 51.6862L54.9386 51.6859C54.703 51.2166 54.1351 51.0291 53.665 51.2604L53.665 51.2604L53.6643 51.2607L27.9568 64.1137L2.24932 51.2607L2.24932 51.2607L2.24841 51.2603C1.78022 51.0309 1.21257 51.2165 0.975222 51.6855L0.97522 51.6855L0.974859 51.6862C0.741263 52.1553 0.931246 52.725 1.40011 52.9603L1.4003 52.9604L27.5331 66.0244Z" fill="#213A72" stroke="#213A72" stroke-width="0.25"/>
<path d="M53.1397 52.1095C53.1397 52.6337 53.5651 53.0591 54.0893 53.0591C54.6152 53.0591 55.039 52.6354 55.039 52.1095V25.721C55.039 25.1968 54.6136 24.7714 54.0893 24.7714C53.5651 24.7714 53.1397 25.1968 53.1397 25.721V52.1095Z" fill="#213A72" stroke="#213A72" stroke-width="0.25"/>
<path d="M27.009 65.1753C27.009 65.6995 27.4344 66.1249 27.9586 66.1249C28.4827 66.1249 28.9083 65.7013 28.9083 65.1753V38.7868C28.9083 38.2626 28.4828 37.8372 27.9586 37.8372C27.4344 37.8372 27.009 38.2626 27.009 38.7868V65.1753Z" fill="#213A72" stroke="#213A72" stroke-width="0.25"/>
<path d="M0.87561 52.1095C0.87561 52.6337 1.30101 53.0591 1.82525 53.0591C2.34932 53.0591 2.77489 52.6355 2.77489 52.1095V25.721C2.77489 25.1968 2.34949 24.7714 1.82525 24.7714C1.30101 24.7714 0.87561 25.1968 0.87561 25.721V52.1095Z" fill="#213A72" stroke="#213A72" stroke-width="0.25"/>
<path d="M27.0082 22.0085C27.0082 22.5328 27.4336 22.9582 27.9579 22.9582C28.482 22.9582 28.9075 22.5346 28.9075 22.0085V1.82464C28.9075 1.3004 28.4821 0.875 27.9579 0.875C27.4336 0.875 27.0082 1.3004 27.0082 1.82464V22.0085Z" fill="#213A72" stroke="#213A72" stroke-width="0.25"/>
<path d="M35.2831 10.4961L35.2836 10.4966C35.4694 10.6804 35.7124 10.7735 35.9554 10.7735C36.1986 10.7735 36.4415 10.6803 36.6288 10.4949L36.6293 10.4945C36.9997 10.124 36.9997 9.52208 36.6293 9.15166L28.6319 1.15266L28.6314 1.15218C28.4533 0.975929 28.2124 0.875244 27.9597 0.875244C27.7069 0.875244 27.4657 0.975999 27.2874 1.1543L19.2868 9.1533L19.2868 9.15331C18.9164 9.52373 18.9164 10.1257 19.2868 10.4961C19.6572 10.8665 20.2592 10.8665 20.6296 10.4961L27.958 3.16935L35.2831 10.4961Z" fill="#213A72" stroke="#213A72" stroke-width="0.25"/>
</svg>
