<svg xmlns="http://www.w3.org/2000/svg" viewBox="0 0 50 50"><defs><style>.cls-1{fill:#dedfe1;}</style></defs><title>item-default</title><g id="Слой_2" data-name="Слой 2"><g id="layout"><path class="cls-1" d="M36.59,13.29a1.08,1.08,0,0,0-1.5.08L2.93,48.26A1,1,0,0,0,3,49.73a1.08,1.08,0,0,0,1.5-.08l32.15-34.9A1,1,0,0,0,36.59,13.29Z"/><path class="cls-1" d="M39.23,11.46a1.07,1.07,0,0,0,.79-.34l8.64-9.37A1,1,0,0,0,48.59.27a1.08,1.08,0,0,0-1.5.08L38.44,9.72a1,1,0,0,0,.08,1.47A1.07,1.07,0,0,0,39.23,11.46Z"/><path class="cls-1" d="M31.35,15.59a1,1,0,0,0-.49-1.39,14.74,14.74,0,0,0-6.39-1.43A14.49,14.49,0,0,0,9.84,27.08,14,14,0,0,0,12.27,35a1.08,1.08,0,0,0,1.47.29,1,1,0,0,0,.3-1.44A12,12,0,0,1,12,27.08a12.39,12.39,0,0,1,12.5-12.24,12.59,12.59,0,0,1,5.46,1.22A1.07,1.07,0,0,0,31.35,15.59Z"/><path class="cls-1" d="M16.56,37.92a1,1,0,0,0,.36,1.43,14.84,14.84,0,0,0,7.55,2.05A14.49,14.49,0,0,0,39.1,27.08a14,14,0,0,0-3-8.71,1.08,1.08,0,0,0-1.49-.19,1,1,0,0,0-.2,1.46A12,12,0,0,1,37,27.08a12.39,12.39,0,0,1-12.5,12.24A12.68,12.68,0,0,1,18,37.57,1.08,1.08,0,0,0,16.56,37.92Z"/><path class="cls-1" d="M24.47,18.75a8.63,8.63,0,0,1,3.12.58A1.07,1.07,0,0,0,29,18.74a1,1,0,0,0-.6-1.35,10.79,10.79,0,0,0-3.9-.72A10.54,10.54,0,0,0,13.83,27.08,10.26,10.26,0,0,0,15.08,32a1.08,1.08,0,0,0,1.44.43A1,1,0,0,0,17,31a8.21,8.21,0,0,1-1-3.93A8.43,8.43,0,0,1,24.47,18.75Z"/><path class="cls-1" d="M24.47,35.42a8.67,8.67,0,0,1-4-1,1.08,1.08,0,0,0-1.44.43,1,1,0,0,0,.44,1.41,10.84,10.84,0,0,0,5,1.23A10.54,10.54,0,0,0,35.11,27.08a10.21,10.21,0,0,0-1.94-6,1.08,1.08,0,0,0-1.48-.25,1,1,0,0,0-.26,1.45A8.16,8.16,0,0,1,33,27.08,8.43,8.43,0,0,1,24.47,35.42Z"/><path class="cls-1" d="M4.26,44.68a1.05,1.05,0,0,0-1.06-1H2.13V10.53H35a1,1,0,1,0,0-2.08H20.51V6A2.89,2.89,0,0,0,17.6,3.13H9.27A2.89,2.89,0,0,0,6.36,6V8.45H1.06A1.05,1.05,0,0,0,0,9.49V44.68a1.05,1.05,0,0,0,1.06,1H3.19A1.05,1.05,0,0,0,4.26,44.68ZM8.49,6a.78.78,0,0,1,.79-.77H17.6a.78.78,0,0,1,.79.77V8.45H8.49Z"/><path class="cls-1" d="M48.94,8.45H44.88a1,1,0,1,0,0,2.08h3V43.64H12.23a1,1,0,1,0,0,2.08h36.7a1.05,1.05,0,0,0,1.06-1V9.49A1.05,1.05,0,0,0,48.94,8.45Z"/><path class="cls-1" d="M42.85,17.44a2.85,2.85,0,1,0-2.91-2.85A2.89,2.89,0,0,0,42.85,17.44Zm0-3.62a.77.77,0,1,1-.79.77A.78.78,0,0,1,42.85,13.81Z"/></g></g></svg>