<svg width="63" height="65" viewBox="0 0 63 65" fill="none" xmlns="http://www.w3.org/2000/svg">
<path d="M62.3042 42.4409C62.3042 42.0764 62.1097 41.7399 61.7942 41.5576C61.7925 41.5567 57.9691 39.3496 56.5647 38.5388V25.8724C56.5647 25.5081 56.3704 25.1714 56.0549 24.9892C56.0548 24.9892 56.0548 24.9892 56.0548 24.9892L47.9556 20.313V16.0412L52.1629 18.4703C52.3207 18.5614 52.4968 18.607 52.6729 18.607C52.8489 18.607 53.025 18.5614 53.1827 18.4705L53.1829 18.4703L56.0526 16.8134C56.3681 16.6312 56.5626 16.2944 56.5626 15.9301L56.5624 9.30275C56.5624 8.93843 56.368 8.60171 56.0525 8.41948L41.7063 0.136673C41.391 -0.0454217 41.0025 -0.0455577 40.687 0.136265L37.8173 1.79008V1.79021C37.8171 1.79035 37.8169 1.79035 37.8167 1.79049C37.5011 1.97272 37.3066 2.30944 37.3066 2.67376V9.30411C37.3066 9.66844 37.5011 10.0053 37.8166 10.1874L45.9158 14.8635V19.1353L27.355 8.41934C27.0394 8.23711 26.6505 8.23711 26.3348 8.41948L17.7282 13.3915C17.5735 13.4809 17.4449 13.6095 17.3555 13.7643C17.3555 13.7644 17.3553 13.7644 17.3553 13.7646L8.74368 28.6746C8.64114 28.8521 8.59518 29.055 8.60946 29.2565V31.908L3.37984 34.9271C3.06447 35.1092 2.87 35.4457 2.86986 35.81C2.86986 35.8101 2.86986 37.5827 2.86986 38.5356L0.509975 39.898C0.19447 40.0801 0 40.4168 0 40.7812V47.4087C0 47.7731 0.19447 48.1098 0.509839 48.292L29.2073 64.8633C29.3652 64.9544 29.5413 65 29.7174 65C29.8935 65 30.0696 64.9544 30.2273 64.8633L35.4571 61.8437L37.8171 63.2039C38.1328 63.3858 38.5213 63.3856 38.8364 63.2035L62.3041 49.6545C62.1097 49.7667 62.3041 49.43 62.3041 49.0657V42.4409H62.3042ZM53.6935 15.82L53.695 11.5494L54.5227 11.0708L54.5228 15.3413L53.6935 15.82ZM41.1959 2.19738L53.5038 9.30343L52.6748 9.78281L40.3675 2.67471L41.1959 2.19738ZM39.3465 4.44072L51.655 11.5496L51.6536 15.8208L39.3465 8.71526V4.44072ZM39.3465 46.0277L47.6823 31.5873L54.5248 27.6387V41.8496L39.3465 50.6129V46.0277ZM26.8452 10.4805L45.9157 21.4909V25.0891C45.9157 25.6524 46.3722 26.1091 46.9356 26.1091C47.499 26.1091 47.9556 25.6524 47.9556 25.0891V22.6686L53.5045 25.8723L46.9357 29.6628L20.2781 14.2743L26.8452 10.4805ZM18.6116 15.6678L45.5424 31.214L37.953 44.3613L11.0202 28.8114L18.6116 15.6678ZM10.6494 30.9527L37.3067 46.3434V50.6129L10.6494 35.2247V30.9527ZM19.0104 45.7212L15.3413 47.8732L7.77691 43.5051V39.2355L19.0104 45.7212ZM20.0182 50.574L17.3729 49.0464L20.0182 47.4948V50.574ZM5.73687 39.2357V42.3271L3.05985 40.7812L5.73687 39.2357ZM28.6974 62.2134L2.04003 46.8199V42.5479L28.6976 57.9413V62.2134H28.6974ZM29.7175 56.1749L22.0581 51.752V47.4809L33.4168 54.0389L29.7175 56.1749ZM34.4367 60.0775L30.7373 62.2135V57.9415L34.4367 55.8055V60.0775ZM37.3066 60.5552L36.4766 60.0768V55.8054L37.3066 56.2845V60.5552ZM38.3266 54.5179L5.92822 35.8114L8.60946 34.2634V35.8135C8.60946 36.178 8.80393 36.5147 9.11943 36.697L37.8167 53.2627C37.9746 53.3537 38.1506 53.3992 38.3267 53.3992C38.5028 53.3992 38.6789 53.3537 38.8367 53.2626L56.0549 43.3216C56.3704 43.1394 56.5649 42.8028 56.5649 42.4383V40.8943L59.2441 42.441L38.3266 54.5179ZM60.2643 48.4768L39.3465 60.5538V56.2846L60.2643 44.2076V48.4768Z" fill="#213A72"/>
<path d="M43.5643 32.4907C43.8459 32.0029 43.6788 31.3791 43.191 31.0975L19.8883 17.6459C19.4002 17.3642 18.7767 17.5313 18.4952 18.019L12.9993 27.5347C12.864 27.7691 12.8271 28.0474 12.8973 28.3087C12.9673 28.5701 13.1381 28.7928 13.3724 28.9281L36.6764 42.3827C36.8328 42.473 37.0087 42.5194 37.1863 42.5194C37.2747 42.5194 37.3635 42.508 37.4503 42.4847C37.7117 42.4147 37.9344 42.2438 38.0696 42.0094L43.5643 32.4907ZM39.9276 34.7104L32.1224 30.204L33.4822 27.8483L41.2878 32.3542L39.9276 34.7104ZM36.8129 40.1059L15.2758 27.6714L19.7515 19.9221L31.7155 26.8285L29.8457 30.0675C29.5641 30.5553 29.7312 31.1791 30.219 31.4607L38.9076 36.4771L36.8129 40.1059Z" fill="#213A72"/>
<path d="M27.3579 26.422L21.6185 23.1057C21.1308 22.8238 20.5069 22.9908 20.2251 23.4784C19.9433 23.9661 20.1102 24.59 20.598 24.8718L26.3374 28.1881C26.4982 28.281 26.6736 28.3252 26.8467 28.3252C27.1991 28.3252 27.5418 28.1423 27.7308 27.8154C28.0126 27.3277 27.8457 26.7038 27.3579 26.422Z" fill="#213A72"/>
</svg>
