<svg xmlns="http://www.w3.org/2000/svg" viewBox="0 0 48 48"><defs><style>.cls-1{fill:#6e737a;}</style></defs><title>list-icon-2</title><g id="Слой_2" data-name="Слой 2"><g id="layout"><path class="cls-1" d="M44.5,35.62V20.5a1,1,0,0,0-2,0V30.88a12,12,0,0,0-9-6.87V21.7a5.22,5.22,0,0,0,2.79-3.59c.25-1,.26-2.54-.52-3.31a2.06,2.06,0,0,0-2.27-.46V13.6l2.08-1.25a1,1,0,0,0-1-1.71l-1,.63V9.5a4,4,0,0,0-4-4h-11a4,4,0,0,0-4,4v1.77l-1-.63a1,1,0,0,0-1,1.71L14.5,13.6v.73a2.06,2.06,0,0,0-2.27.46c-.78.78-.76,2.27-.52,3.31A5.22,5.22,0,0,0,14.5,21.7V24a12,12,0,0,0-8.07,5A2,2,0,0,0,5,27.57V11.5a1,1,0,0,1,1-1,1,1,0,0,0,0-2,3,3,0,0,0-3,3v10H2v-1a1,1,0,0,0-2,0V25a1,1,0,0,0,2,0V23.5H3v4a2,2,0,0,0-2,2v7.68A4.48,4.48,0,0,0,0,40v4.5C0,46.59,1.61,48,4,48H5c2.39,0,4-1.41,4-3.5V40a4.5,4.5,0,0,0-2.5-4V33.29a1,1,0,0,0,.26-.4A10.27,10.27,0,0,1,8.18,30l4.21,10.16V47a1,1,0,0,0,2,0V40a1,1,0,0,0-.08-.38L9.67,28.37v0A10,10,0,0,1,14.5,26V36a4,4,0,0,0,4,4h11a4,4,0,0,0,4-4V26a10.08,10.08,0,0,1,4.86,2.43l-4.6,11.1a1,1,0,0,0-.08.38v7a1,1,0,0,0,2,0V40.15l4.14-10a10,10,0,0,1,1.41,3.1l.68,2.54A4.5,4.5,0,0,0,39,40v4a4,4,0,0,0,4,4h1a4,4,0,0,0,4-4V40A4.5,4.5,0,0,0,44.5,35.62ZM5,46H4c-.6,0-2-.15-2-1.5V40a2.5,2.5,0,0,1,4.28-1.75H5a1,1,0,0,0,0,2H7v.5H5a1,1,0,0,0,0,2H7v.5H5a1,1,0,0,0,0,2H6.8A2.12,2.12,0,0,1,5,46ZM3,35.76V29.5H4.5v6A4.47,4.47,0,0,0,3,35.76ZM33.56,17a1.17,1.17,0,0,1,.39-.63.66.66,0,0,1,.35-.2h0a2.79,2.79,0,0,1-.11,1.88,3.44,3.44,0,0,1-.72,1.2V17.34A1,1,0,0,0,33.56,17ZM13.78,18.05a3,3,0,0,1-.13-1.85l0,0a.64.64,0,0,1,.36.2,1.17,1.17,0,0,1,.39.63,1,1,0,0,0,.06.34v1.92A3.44,3.44,0,0,1,13.78,18.05ZM31.5,36a2,2,0,0,1-2,2h-11a2,2,0,0,1-2-2V9.5a2,2,0,0,1,2-2h11a2,2,0,0,1,2,2ZM46,44a2,2,0,0,1-2,2H43a2,2,0,0,1-1.55-.75H43a1,1,0,0,0,0-2H41v-.5h2a1,1,0,0,0,0-2H41v-.5h2a1,1,0,0,0,0-2H41.72A2.5,2.5,0,0,1,46,40Z"/><path class="cls-1" d="M13.44,8.2a1,1,0,0,0,1-1C14.44,2.38,20,2,21.68,2H26.2c1.7,0,7.24.38,7.24,5.2a1,1,0,1,0,2,0C35.44,2.76,31.9,0,26.2,0H21.68C16,0,12.44,2.76,12.44,7.2A1,1,0,0,0,13.44,8.2Z"/><path class="cls-1" d="M27,14.5H21a3,3,0,0,0,0,6h6a3,3,0,0,0,0-6Zm0,4H21a1,1,0,0,1,0-2h6a1,1,0,0,1,0,2Z"/><path class="cls-1" d="M28.5,22.5a1,1,0,0,0-1,1v6a1,1,0,0,0,2,0v-6A1,1,0,0,0,28.5,22.5Z"/><path class="cls-1" d="M28.5,31.5a1,1,0,0,0-1,1V34a1,1,0,0,0,2,0V32.5A1,1,0,0,0,28.5,31.5Z"/><path class="cls-1" d="M29.25,42.5h-6a1,1,0,0,0,0,2h6a1,1,0,0,0,0-2Z"/><path class="cls-1" d="M20.25,42.5h-1.5a1,1,0,0,0,0,2h1.5a1,1,0,0,0,0-2Z"/></g></g></svg>