<svg xmlns="http://www.w3.org/2000/svg" viewBox="0 0 16 16"><defs><style>.cls-1{fill:#6e737a;}</style></defs><title>list-close</title><g id="Слой_2" data-name="Слой 2"><g id="layout"><path class="cls-1" d="M8.47,8,15.9.57A.33.33,0,0,0,15.43.1L8,7.53.57.1A.33.33,0,0,0,.1.57L7.53,8,.1,15.43a.33.33,0,0,0,0,.47.3.3,0,0,0,.23.1.33.33,0,0,0,.24-.1L8,8.47l7.43,7.43a.33.33,0,0,0,.24.1.3.3,0,0,0,.23-.1.33.33,0,0,0,0-.47Z"/><path class="cls-1" d="M14.68,4.49a.33.33,0,0,0-.47,0L10.93,7.76a.34.34,0,0,0,0,.48L12.1,9.41a.36.36,0,0,0,.24.09.33.33,0,0,0,.23-.09.34.34,0,0,0,0-.48L11.64,8l3-3A.33.33,0,0,0,14.68,4.49Z"/><path class="cls-1" d="M13,9.83a.33.33,0,0,0,0,.47l.71.71a.3.3,0,0,0,.23.1.33.33,0,0,0,.24-.1.33.33,0,0,0,0-.47l-.71-.71A.33.33,0,0,0,13,9.83Z"/><path class="cls-1" d="M1.32,11.51a.33.33,0,0,0,.24.1.3.3,0,0,0,.23-.1L5.07,8.24a.34.34,0,0,0,0-.48L3.9,6.59a.33.33,0,0,0-.47,0,.34.34,0,0,0,0,.48L4.36,8l-3,3A.33.33,0,0,0,1.32,11.51Z"/><path class="cls-1" d="M2.77,6.27A.3.3,0,0,0,3,6.17.33.33,0,0,0,3,5.7L2.29,5a.33.33,0,1,0-.47.47l.71.71A.33.33,0,0,0,2.77,6.27Z"/><path class="cls-1" d="M15.67,16a.33.33,0,0,1-.24-.1L7.76,8.24a.34.34,0,0,1,0-.48L15.43.1a.33.33,0,0,1,.47.47L8.47,8l7.43,7.43a.33.33,0,0,1,0,.47A.3.3,0,0,1,15.67,16Z"/><path class="cls-1" d="M12.34,9.5a.36.36,0,0,1-.24-.09L10.93,8.24a.34.34,0,0,1,0-.48l3.28-3.27a.33.33,0,1,1,.47.47l-3,3,.93.93a.34.34,0,0,1,0,.48A.33.33,0,0,1,12.34,9.5Z"/><path class="cls-1" d="M13.94,11.11a.3.3,0,0,1-.23-.1L13,10.3a.33.33,0,0,1,.47-.47l.71.71a.33.33,0,0,1,0,.47A.33.33,0,0,1,13.94,11.11Z"/></g></g></svg>