<svg xmlns="http://www.w3.org/2000/svg" viewBox="0 0 47.02 48"><defs><style>.cls-1{fill:#6e737a;}</style></defs><title>list-icon-3</title><g id="Слой_2" data-name="Слой 2"><g id="layout"><path class="cls-1" d="M32.82,17.63a2.94,2.94,0,0,0-2.94-2.94H17.14a2.94,2.94,0,0,0-2.94,2.94V30.37a2.94,2.94,0,0,0,2.94,2.94H29.88a2.94,2.94,0,0,0,2.94-2.94Zm-6.12-1V31.35H20.33V16.65ZM16.16,30.37V17.63a1,1,0,0,1,1-1h1.22V31.35H17.14A1,1,0,0,1,16.16,30.37Zm14.69,0a1,1,0,0,1-1,1H28.65V16.65h1.22a1,1,0,0,1,1,1Z"/><path class="cls-1" d="M44.08,12.07A6.08,6.08,0,0,0,47,6.85V6.6A6.11,6.11,0,0,0,40.91.49H40.4a6.08,6.08,0,0,0-5.22,2.94,13.93,13.93,0,0,1-6.53,5.68V1a1,1,0,0,0-1-1H19.35a1,1,0,0,0-1,1V9.31a13.94,13.94,0,0,1-7-5.89A6.1,6.1,0,0,0,0,6.6v.51a6.08,6.08,0,0,0,2.94,5.22A14,14,0,0,1,9.73,24.26,14,14,0,0,1,2.94,36.19,6.11,6.11,0,0,0,6.11,47.51h.26a6.08,6.08,0,0,0,5.22-2.94,13.94,13.94,0,0,1,6.79-5.79V47a1,1,0,0,0,1,1h8.33a1,1,0,0,0,1-1V38.78a13.94,13.94,0,0,1,6.79,5.79,6.08,6.08,0,0,0,5.22,2.94h.26A6.11,6.11,0,0,0,47,41.4v-.26a6.08,6.08,0,0,0-2.94-5.22,13.87,13.87,0,0,1,0-23.86ZM20.33,2h6.37V9.78a13.74,13.74,0,0,1-3.44.44,13.72,13.72,0,0,1-2.93-.32ZM26.69,46H20.33V38.16a13.45,13.45,0,0,1,6.37,0Zm8.64-22a15.91,15.91,0,0,0,7.75,13.61,4.11,4.11,0,0,1,2,3.53v.26a4.15,4.15,0,0,1-4.15,4.15h-.26a4.12,4.12,0,0,1-3.53-2,15.83,15.83,0,0,0-27.23,0,4.12,4.12,0,0,1-3.53,2H6.11a4.15,4.15,0,0,1-2.17-7.68,15.91,15.91,0,0,0,7.75-13.61A15.91,15.91,0,0,0,3.94,10.64,4.12,4.12,0,0,1,2,7.11V6.6A4.15,4.15,0,0,1,9.64,4.43a15.92,15.92,0,0,0,13.61,7.75,15.69,15.69,0,0,0,4.54-.68,1,1,0,0,0,.32-.1,15.91,15.91,0,0,0,8.76-7,4.11,4.11,0,0,1,3.53-2h.51A4.15,4.15,0,0,1,45.06,6.6v.26a4.11,4.11,0,0,1-2,3.53A15.91,15.91,0,0,0,35.33,24Z"/><path class="cls-1" d="M40.16,3.92A2.94,2.94,0,1,0,43.1,6.86,2.94,2.94,0,0,0,40.16,3.92Zm0,3.92a1,1,0,1,1,1-1A1,1,0,0,1,40.16,7.84Z"/><path class="cls-1" d="M6.37,3.92A2.94,2.94,0,1,0,9.31,6.86,2.94,2.94,0,0,0,6.37,3.92Zm0,3.92a1,1,0,1,1,1-1A1,1,0,0,1,6.37,7.84Z"/><path class="cls-1" d="M40.65,44.57a2.94,2.94,0,1,0-2.94-2.94A2.94,2.94,0,0,0,40.65,44.57Zm0-3.92a1,1,0,1,1-1,1A1,1,0,0,1,40.65,40.65Z"/><path class="cls-1" d="M6.37,38.69a2.94,2.94,0,1,0,2.94,2.94A2.94,2.94,0,0,0,6.37,38.69Zm0,3.92a1,1,0,1,1,1-1A1,1,0,0,1,6.37,42.61Z"/><path class="cls-1" d="M36,10.25,33.19,13a1,1,0,1,0,1.39,1.39l2.77-2.77A1,1,0,1,0,36,10.25Z"/><path class="cls-1" d="M10.57,10.25a1,1,0,1,0-1.39,1.39L12,14.41A1,1,0,0,0,13.34,13Z"/><path class="cls-1" d="M32.94,33.76a1,1,0,0,0,0,1.39l2.77,2.77a1,1,0,1,0,1.39-1.39l-2.77-2.77A1,1,0,0,0,32.94,33.76Z"/><path class="cls-1" d="M11.71,33.76,8.94,36.53a1,1,0,1,0,1.39,1.39l2.77-2.77a1,1,0,1,0-1.39-1.39Z"/><path class="cls-1" d="M23.51,28.9A2.45,2.45,0,0,0,26,26.45V21.93a2.45,2.45,0,1,0-4.9,0v4.52A2.45,2.45,0,0,0,23.51,28.9Zm-.49-7a.49.49,0,0,1,1,0v4.52a.49.49,0,1,1-1,0V21.93Z"/></g></g></svg>