<svg xmlns="http://www.w3.org/2000/svg" viewBox="0 0 8.33 16"><defs><style>.cls-1{fill:#25a6de;}</style></defs><title>list-back</title><g id="Слой_2" data-name="Слой 2"><g id="layout"><path class="cls-1" d="M8,16a.33.33,0,0,1-.24-.1L.1,8.24a.34.34,0,0,1,0-.48L7.76.1a.34.34,0,0,1,.48,0,.33.33,0,0,1,0,.47L.8,8l7.44,7.43a.33.33,0,0,1,0,.47A.33.33,0,0,1,8,16Z"/><path class="cls-1" d="M4.67,9.5a.36.36,0,0,1-.24-.09L3.26,8.24a.34.34,0,0,1,0-.48L6.54,4.49A.33.33,0,1,1,7,5L4,8l.94.93a.34.34,0,0,1,0,.48A.38.38,0,0,1,4.67,9.5Z"/><path class="cls-1" d="M6.28,11.11A.33.33,0,0,1,6,11l-.71-.71a.33.33,0,0,1,.47-.47l.71.71a.33.33,0,0,1,0,.47A.3.3,0,0,1,6.28,11.11Z"/></g></g></svg>