<svg xmlns="http://www.w3.org/2000/svg" viewBox="0 0 48 48"><defs><style>.cls-1{fill:#6e737a;}</style></defs><title>list-icon-4</title><g id="Слой_2" data-name="Слой 2"><g id="layout"><path class="cls-1" d="M47,46h-.25V42a3,3,0,0,0-3-3V15.5a1,1,0,0,0-.65-.94l-5.44-2.06V10a2.82,2.82,0,0,0-2.58-3H31.92a2.82,2.82,0,0,0-2.58,3v2.51l-1.5.57V9.16a1,1,0,0,0-.68-.95L21,6.12A1,1,0,0,0,21,6V3a3,3,0,0,0-3-3H14a3,3,0,0,0-3,3V6a1,1,0,0,0,0,.15L4.93,8.21a1,1,0,0,0-.68.95V39a3,3,0,0,0-3,3v4H1a1,1,0,0,0,0,2H7.5a1,1,0,0,0,0-2H3.25V42a1,1,0,0,1,1-1h39.5a1,1,0,0,1,1,1v4H11.5a1,1,0,0,0,0,2H47a1,1,0,0,0,0-2ZM31.33,10c0-.56.31-1,.58-1h3.17c.27,0,.58.44.58,1v1.75l-1.81-.69a1,1,0,0,0-.71,0l-1.81.69ZM13,3a1,1,0,0,1,1-1h4a1,1,0,0,1,1,1V5.45l-2.64-.89a1,1,0,0,0-.64,0L13,5.48ZM6.25,9.88,16,6.56l9.79,3.32V11H12.33a1,1,0,0,0,0,2h13.5V24.47a1,1,0,0,0,2,0V15.21l5.67-2.14,8.25,3.12V17.5H35.33a1,1,0,0,0,0,2h6.42V39H31.83V22a1,1,0,0,0-2,0V39h-2V30a1,1,0,0,0-2,0v9H12V20a1,1,0,1,0-2,0V39H6.25Z"/></g></g></svg>