<svg xmlns="http://www.w3.org/2000/svg" viewBox="0 0 48 48"><defs><style>.cls-1{fill:#6e737a;}</style></defs><title>list-icon-1</title><g id="Слой_2" data-name="Слой 2"><g id="layout"><path class="cls-1" d="M47,24.5a1,1,0,0,0-1,1v6a1,1,0,0,0-.39.19,11.05,11.05,0,0,1-3.89,2.08,6.31,6.31,0,0,1-4.28-.36,8.75,8.75,0,0,0-4.25-1,9,9,0,0,0-3.42,1.15l-.67.33a6.21,6.21,0,0,1-5.21,0l-2.26-1c-2.73-1.23-5.15,0-6.91.85a6,6,0,0,1-4.21.39,1,1,0,0,0,0-.18V6h17.2v6a1,1,0,0,0,0,.22l.3,1.33a1,1,0,0,0,.12.3,9.8,9.8,0,0,1,1,2.63,8.87,8.87,0,0,1,.28,3.18,1,1,0,0,0,0,.37l.27,1.19a1,1,0,0,0,1,.78H31v2a1,1,0,0,0,2,0V22h.25a1,1,0,0,0,1-.78L34.49,20a1,1,0,0,0,0-.37,8.88,8.88,0,0,1,.28-3.18,9.8,9.8,0,0,1,1-2.63,1,1,0,0,0,.12-.3l.3-1.33a1,1,0,0,0,0-.22V6h4a3,3,0,1,0,0-6H1A1,1,0,0,0,0,1V47a1,1,0,0,0,1,1H47a1,1,0,0,0,1-1V25.5A1,1,0,0,0,47,24.5ZM8.55,12H2V10H8.55ZM2,14H8.55v2H2Zm32.25-2.11L34,13a12.1,12.1,0,0,0-1.17,3,11.16,11.16,0,0,0-.34,3.77l-.05.24h-.9l-.05-.24A11.14,11.14,0,0,0,31.15,16,12.1,12.1,0,0,0,30,13l-.24-1.07V6h4.5Zm6-9.89a1,1,0,1,1,0,2H9.55a1,1,0,0,0-1,1V8H2V2ZM10.5,46V38a1,1,0,0,0-2,0v8H2V18H8.55V34a1,1,0,0,0,.27.67l0,0A1,1,0,0,0,9.46,36a8,8,0,0,0,6.17-.39c2-1,3.47-1.6,5.2-.82l2.26,1A8.2,8.2,0,0,0,30,35.71l.71-.35a7.25,7.25,0,0,1,2.65-.94,6.93,6.93,0,0,1,3.26.83,8.34,8.34,0,0,0,5.66.49A12.76,12.76,0,0,0,46,33.93V46Z"/><path class="cls-1" d="M15.5,27a1,1,0,0,0,0,2h14a1,1,0,0,0,0-2Z"/><path class="cls-1" d="M33.5,28a1,1,0,0,0,1,1h9a1,1,0,0,0,0-2h-9A1,1,0,0,0,33.5,28Z"/><path class="cls-1" d="M32.92,26.62a1.07,1.07,0,0,0-.09-.17,1.24,1.24,0,0,0-.12-.16l-.15-.12a.85.85,0,0,0-.18-.09L32.2,26a1,1,0,0,0-.39,0l-.19.06-.17.09-.15.12-.13.16a1.07,1.07,0,0,0-.09.17,1,1,0,0,0-.06.58.8.8,0,0,0,.06.18,1.14,1.14,0,0,0,.09.18l.13.15.15.13.17.09.19.06L32,28a1,1,0,0,0,.71-.29.91.91,0,0,0,.13-.15,1.14,1.14,0,0,0,.09-.18A1.16,1.16,0,0,0,33,27.2a1,1,0,0,0,0-.39A1.23,1.23,0,0,0,32.92,26.62Z"/></g></g></svg>