<svg xmlns="http://www.w3.org/2000/svg" viewBox="0 0 24 22.5"><defs><style>.cls-1{fill:#2a2a68;}</style></defs><title>mail-link-img</title><g id="Слой_2" data-name="Слой 2"><g id="layout"><path class="cls-1" d="M12.18,1h2.08a.5.5,0,1,0,0-1H12.18a.5.5,0,1,0,0,1Z"/><path class="cls-1" d="M21.59,15.9a3.34,3.34,0,0,0-1.2-1.85,3.5,3.5,0,0,0-.53-.34,3.44,3.44,0,0,0-3.72,5.75,3.47,3.47,0,0,0,2,.73h0a.47.47,0,0,0,0-.95,2.49,2.49,0,0,1-.69-4.86A2.49,2.49,0,0,1,20.65,16a2,2,0,0,1,.05.73,2.85,2.85,0,0,1-.19.71.65.65,0,0,1-.59.45.15.15,0,0,1-.09,0,.3.3,0,0,1-.08-.21v-2.6a.47.47,0,0,0-.94-.1,1.5,1.5,0,0,0-.69-.16,1.81,1.81,0,0,0-1.71,1.93,1.86,1.86,0,0,0,1.68,2,1.46,1.46,0,0,0,.93-.33l.13.16a1.08,1.08,0,0,0,.76.33,1.59,1.59,0,0,0,1.47-1A3.11,3.11,0,0,0,21.59,15.9Zm-2.79.88c0,.55-.33,1-.7,1s-.74-.42-.74-1a.88.88,0,0,1,.77-1c.38,0,.65.38.67.92Z"/><path class="cls-1" d="M21.25,11.85V.5a.5.5,0,0,0-.5-.5H16.34a.5.5,0,1,0,0,1h3.43L10.62,9.68,1.48,1H9.59a.5.5,0,0,0,0-1H.5A.5.5,0,0,0,0,.5V16.34s0,0,0,0a.48.48,0,0,0,0,.05v.09l0,0,0,0,0,0,0,0h0l.05,0,0,0,.07,0h0a.5.5,0,0,0,.2,0h12a5.75,5.75,0,1,0,8.75-5Zm-3-.85a5.71,5.71,0,0,0-2.12.4l0-.05-2.93-2.7,7.09-6.73v9.44A5.72,5.72,0,0,0,18.25,11Zm-7.62-.13a.5.5,0,0,0,.34-.14l1.46-1.39,2.76,2.55a5.76,5.76,0,0,0-2.62,4H1.78l7-6.5,1.46,1.39A.5.5,0,0,0,10.62,10.86ZM1,1.92,8.09,8.65,1,15.19ZM18.25,21.5a4.76,4.76,0,0,1-4.75-4.75c0-.14,0-.28,0-.41h0a4.75,4.75,0,1,1,4.73,5.16Z"/></g></g></svg>