<svg xmlns="http://www.w3.org/2000/svg" viewBox="0 0 24.01 24"><defs><style>.cls-1{fill:#fff;}</style></defs><title>phone-icon</title><g id="Слой_2" data-name="Слой 2"><g id="layout"><path class="cls-1" d="M23.73,19.38l-5-5.26A1,1,0,0,0,17.36,14L14.1,16.66A10.55,10.55,0,0,1,11.75,15a.5.5,0,1,0-.66.75,10.1,10.1,0,0,0,3,1.93.5.5,0,0,0,.44-.1l1.25-1,5,5.42a8.19,8.19,0,0,1-5.82.77,17.74,17.74,0,0,1-8.7-5l0,0A17.76,17.76,0,0,1,1.2,9,8.21,8.21,0,0,1,2,3.16l5.21,5-.6.72a.5.5,0,0,0-.07.53,19.62,19.62,0,0,0,3.07,4.88.5.5,0,1,0,.76-.65A18.51,18.51,0,0,1,7.56,9.28L9.8,6.62a1,1,0,0,0-.07-1.37L4.56.28a1,1,0,0,0-1.39,0l-.93.92C.31,3.15-.41,6,.22,9.18a18.68,18.68,0,0,0,5.22,9.15l0,0a18.81,18.81,0,0,0,9.31,5.41A11.42,11.42,0,0,0,17,24a8,8,0,0,0,5.81-2.28l.92-.95A1,1,0,0,0,23.73,19.38ZM3.87,1,9,6,7.84,7.4,2.57,2.33c.12-.14.24-.28.37-.41ZM22.08,21c-.15.15-.31.29-.47.42L16.55,16,18,14.81l5,5.27Z"/></g></g></svg>