<svg width="25" height="25" viewBox="0 0 25 25" fill="none" xmlns="http://www.w3.org/2000/svg">
<g clip-path="url(#clip0)">
<path d="M23.9134 0H7.60917C7.15898 0 6.79395 0.364988 6.79395 0.81523V17.6629C6.79395 18.1131 7.15893 18.4782 7.60917 18.4782H23.9134C24.3636 18.4782 24.7287 18.1132 24.7287 17.6629V0.815181C24.7287 0.364988 24.3637 0 23.9134 0ZM23.0982 6.52169H20.6526C20.2024 6.52169 19.8374 6.88668 19.8374 7.33692C19.8374 7.78716 20.2024 8.15215 20.6526 8.15215H23.0982V16.8478H12.7722V14.4021C12.7722 13.9519 12.4072 13.5869 11.957 13.5869C11.5067 13.5869 11.1417 13.9519 11.1417 14.4021V16.8478H8.42436V1.63041H11.1417V10.5977C11.1417 11.0479 11.5067 11.413 11.957 11.413C12.4072 11.413 12.7722 11.048 12.7722 10.5977V8.1521H16.8482C17.2984 8.1521 17.6635 7.78711 17.6635 7.33687C17.6635 6.88663 17.2985 6.52164 16.8482 6.52164H12.7722V1.63041H23.0982V6.52169H23.0982Z" fill="#4479BC"/>
<path d="M24.4902 21.9777L22.8599 20.3474C22.5416 20.0291 22.0254 20.0291 21.707 20.3474C21.3887 20.6658 21.3887 21.1819 21.707 21.5003L21.9458 21.7391H6.31685L6.55562 21.5003C6.87398 21.182 6.87398 20.6658 6.55567 20.3475C6.23736 20.0291 5.72115 20.0291 5.4028 20.3475L3.77253 21.9778C3.45198 22.298 3.45749 22.8162 3.77253 23.131L5.4028 24.7613C5.7211 25.0797 6.23731 25.0797 6.55567 24.7613C6.87403 24.4429 6.87403 23.9268 6.55567 23.6084L6.31685 23.3696H21.9458L21.707 23.6084C21.3886 23.9267 21.3886 24.4429 21.707 24.7613C22.0253 25.0796 22.5415 25.0797 22.8599 24.7613L24.4901 23.1309C24.8081 22.8133 24.8073 22.2945 24.4902 21.9777Z" fill="#4479BC"/>
<path d="M3.77114 17.0866L3.53232 17.3253V2.78333L3.77114 3.0221C4.08945 3.34046 4.60566 3.34051 4.92401 3.0221C5.24237 2.70379 5.24242 2.18758 4.92401 1.86923L3.29356 0.238768C2.97525 -0.0795894 2.45904 -0.0795894 2.14068 0.238768L0.510271 1.86918C0.191913 2.18749 0.191864 2.7037 0.510271 3.02205C0.828579 3.34041 1.34479 3.34041 1.66314 3.02205L1.90191 2.78328V17.3252L1.66314 17.0865C1.34484 16.7681 0.828628 16.7681 0.510271 17.0865C0.191913 17.4048 0.191864 17.921 0.510271 18.2393L2.14068 19.8698C2.45899 20.1881 2.9752 20.1882 3.29356 19.8698L4.92397 18.2393C5.24232 17.921 5.24237 17.4048 4.92397 17.0865C4.60571 16.7682 4.0895 16.7682 3.77114 17.0866Z" fill="#4479BC"/>
</g>
<defs>
<clipPath id="clip0">
<rect width="25" height="25" fill="white"/>
</clipPath>
</defs>
</svg>
