<svg xmlns="http://www.w3.org/2000/svg" viewBox="0 0 24 24"><defs><style>.cls-1{fill:#fff;}</style></defs><title>Ресурс 3</title><g id="Слой_2" data-name="Слой 2"><g id="layout"><path class="cls-1" d="M9.08,1.62a7.45,7.45,0,1,0,7.45,7.45A7.46,7.46,0,0,0,9.08,1.62Zm0,13.91a6.46,6.46,0,1,1,6.46-6.46A6.47,6.47,0,0,1,9.08,15.54Z"/><path class="cls-1" d="M9.08,3.48a.5.5,0,1,0,0,1,4.61,4.61,0,0,1,4.6,4.6.5.5,0,1,0,1,0A5.61,5.61,0,0,0,9.08,3.48Z"/><path class="cls-1" d="M23.45,20.78,16.69,14A9.09,9.09,0,1,0,14,16.69l6.76,6.76a1.89,1.89,0,0,0,2.67-2.67ZM1,9.08a8.08,8.08,0,1,1,8.08,8.08A8.09,8.09,0,0,1,1,9.08Zm15.1,5.76,1.43,1.43-1.26,1.26-1.43-1.43A9.16,9.16,0,0,0,16.09,14.83Zm6.65,7.91a.89.89,0,0,1-1.26,0L17,18.23,18.23,17l4.51,4.51a.89.89,0,0,1,0,1.26Z"/></g></g></svg>