<svg xmlns="http://www.w3.org/2000/svg" viewBox="0 0 36 18.75"><defs><style>.cls-1{fill:#b7b9bd;}</style></defs><title>slider-item-arr</title><g id="Слой_2" data-name="Слой 2"><g id="layout"><path class="cls-1" d="M0,18a.75.75,0,0,1,.22-.53L17.47.22a.75.75,0,0,1,1.06,0L35.78,17.47a.75.75,0,1,1-1.06,1.06L18,1.81,1.28,18.53A.75.75,0,0,1,0,18Z"/><path class="cls-1" d="M14.62,10.51a.75.75,0,0,1,.22-.53l2.63-2.63a.75.75,0,0,1,1.06,0l7.37,7.37a.75.75,0,0,1-1.06,1.06L18,8.94,15.9,11a.75.75,0,0,1-1.28-.53Z"/><path class="cls-1" d="M11,14.12a.75.75,0,0,1,.22-.53l1.6-1.6a.75.75,0,1,1,1.06,1.06l-1.6,1.6A.75.75,0,0,1,11,14.12Z"/></g></g></svg>