<svg xmlns="http://www.w3.org/2000/svg" viewBox="0 0 18.75 36"><defs><style>.cls-1{fill:#25a6de;}</style></defs><title>slider-arr</title><g id="Слой_2" data-name="Слой 2"><g id="layout"><path class="cls-1" d="M18,36a.75.75,0,0,1-.53-.22L.22,18.53a.75.75,0,0,1,0-1.06L17.47.22a.75.75,0,0,1,1.06,1.06L1.81,18,18.53,34.72A.75.75,0,0,1,18,36Z"/><path class="cls-1" d="M10.51,21.38a.75.75,0,0,1-.53-.22L7.34,18.53a.75.75,0,0,1,0-1.06l7.37-7.37a.75.75,0,0,1,1.06,1.06L8.94,18,11,20.1a.75.75,0,0,1-.53,1.28Z"/><path class="cls-1" d="M14.12,25a.75.75,0,0,1-.53-.22L12,23.18a.75.75,0,1,1,1.06-1.06l1.6,1.6A.75.75,0,0,1,14.12,25Z"/></g></g></svg>