<svg width="25" height="25" viewBox="0 0 25 25" fill="none" xmlns="http://www.w3.org/2000/svg">
<path d="M22.0218 13.8145H18.3117C17.7723 13.8145 17.3351 14.2517 17.3351 14.791C17.3351 15.3304 17.7723 15.7676 18.3117 15.7676H19.665L14.9804 20.452C14.599 20.8334 14.599 21.4517 14.9804 21.8331C15.3617 22.2144 15.98 22.2145 16.3614 21.8331L21.0461 17.1486V18.5019C21.0461 19.0412 21.4833 19.4785 22.0226 19.4785C22.562 19.4785 22.9992 19.0412 22.9992 18.5019V14.791C22.9992 14.7909 22.9992 14.7907 22.9992 14.7906C22.9989 14.2599 22.5676 13.8141 22.0218 13.8145Z" fill="#4479BC"/>
<path d="M24.0235 2.88086H18.2618C17.7224 2.88086 17.2852 3.31807 17.2852 3.85742V8.64258H12.5C11.9607 8.64258 11.5235 9.07979 11.5235 9.61914V14.4043H6.73833C6.19898 14.4043 5.76177 14.8415 5.76177 15.3809V20.166H0.976562C0.437207 20.166 0 20.6032 0 21.1426C0 21.6819 0.437207 22.1191 0.976562 22.1191H6.73833C6.99731 22.1191 7.24575 22.0163 7.42886 21.8331C7.61201 21.65 7.71489 21.4016 7.71489 21.1426L7.71484 16.3574H12.5C12.759 16.3574 13.0075 16.2545 13.1906 16.0714C13.3737 15.8883 13.4766 15.6398 13.4766 15.3809L13.4766 10.5957H18.2617C18.5208 10.5957 18.7691 10.4928 18.9522 10.3097C19.1354 10.1266 19.2383 9.87813 19.2383 9.61914L19.2382 4.83398H24.0234C24.5628 4.83398 25 4.39678 25 3.85742C25 3.31807 24.5628 2.88086 24.0235 2.88086Z" fill="#4479BC"/>
</svg>
