<svg width="16" height="16" viewBox="0 0 16 16" fill="none" xmlns="http://www.w3.org/2000/svg">
<path d="M14.0939 8.84128H11.7194C11.3742 8.84128 11.0944 9.12109 11.0944 9.46628C11.0944 9.81146 11.3742 10.0913 11.7194 10.0913H12.5855L9.58737 13.0893C9.34327 13.3334 9.34327 13.7291 9.58737 13.9732C9.83143 14.2173 10.2271 14.2173 10.4712 13.9732L13.4694 10.9751V11.8412C13.4694 12.1864 13.7492 12.4662 14.0944 12.4662C14.4396 12.4662 14.7194 12.1864 14.7194 11.8412V9.46628C14.7194 9.46618 14.7194 9.46609 14.7194 9.466C14.7192 9.12637 14.4432 8.84103 14.0939 8.84128Z" fill="#4479BC"/>
<path d="M15.375 1.84375H11.6875C11.3423 1.84375 11.0625 2.12356 11.0625 2.46875V5.53125H8.00003C7.65488 5.53125 7.37503 5.81106 7.37503 6.15625V9.21875H4.31253C3.96734 9.21875 3.68753 9.49856 3.68753 9.84375V12.9062H0.625C0.279813 12.9062 0 13.1861 0 13.5312C0 13.8764 0.279813 14.1562 0.625 14.1562H4.31253C4.47828 14.1562 4.63728 14.0904 4.75447 13.9732C4.87169 13.856 4.93753 13.697 4.93753 13.5312L4.9375 10.4688H8.00003C8.16578 10.4688 8.32478 10.4029 8.44197 10.2857C8.55919 10.1685 8.62503 10.0095 8.62503 9.84375L8.625 6.78125H11.6875C11.8533 6.78125 12.0122 6.71541 12.1294 6.59819C12.2467 6.481 12.3125 6.322 12.3125 6.15625L12.3125 3.09375H15.375C15.7202 3.09375 16 2.81394 16 2.46875C16 2.12356 15.7202 1.84375 15.375 1.84375Z" fill="#4479BC"/>
</svg>
