<svg width="25" height="25" viewBox="0 0 25 25" fill="none" xmlns="http://www.w3.org/2000/svg">
<g clip-path="url(#clip0)">
<path fill-rule="evenodd" clip-rule="evenodd" d="M7.60917 0H23.9134C24.3637 0 24.7287 0.364988 24.7287 0.815181V17.6629C24.7287 18.1132 24.3636 18.4782 23.9134 18.4782H7.60917C7.15893 18.4782 6.79395 18.1131 6.79395 17.6629V0.81523C6.79395 0.364988 7.15898 0 7.60917 0ZM23.0982 16.8478V8.15215V6.52169L23.0982 1.63041H12.7722H11.1417H8.42436V16.8478H11.1417H12.7722H23.0982Z" fill="#4479BC"/>
<path d="M24.4902 21.9777L22.8599 20.3474C22.5416 20.0291 22.0254 20.0291 21.707 20.3474C21.3887 20.6658 21.3887 21.1819 21.707 21.5003L21.9458 21.7391H6.31685L6.55562 21.5003C6.87398 21.182 6.87398 20.6658 6.55567 20.3475C6.23736 20.0291 5.72115 20.0291 5.4028 20.3475L3.77253 21.9778C3.45198 22.298 3.45749 22.8162 3.77253 23.131L5.4028 24.7613C5.7211 25.0797 6.23731 25.0797 6.55567 24.7613C6.87403 24.4429 6.87403 23.9268 6.55567 23.6084L6.31685 23.3696H21.9458L21.707 23.6084C21.3886 23.9267 21.3886 24.4429 21.707 24.7613C22.0253 25.0796 22.5415 25.0797 22.8599 24.7613L24.4901 23.1309C24.8081 22.8133 24.8073 22.2945 24.4902 21.9777Z" fill="#4479BC"/>
<path d="M3.77114 17.0866L3.53232 17.3253V2.78333L3.77114 3.0221C4.08945 3.34046 4.60566 3.34051 4.92401 3.0221C5.24237 2.70379 5.24242 2.18758 4.92401 1.86923L3.29356 0.238768C2.97525 -0.0795894 2.45904 -0.0795894 2.14068 0.238768L0.510271 1.86918C0.191913 2.18749 0.191864 2.7037 0.510271 3.02205C0.828579 3.34041 1.34479 3.34041 1.66314 3.02205L1.90191 2.78328V17.3252L1.66314 17.0865C1.34484 16.7681 0.828628 16.7681 0.510271 17.0865C0.191913 17.4048 0.191864 17.921 0.510271 18.2393L2.14068 19.8698C2.45899 20.1881 2.9752 20.1882 3.29356 19.8698L4.92397 18.2393C5.24232 17.921 5.24237 17.4048 4.92397 17.0865C4.60571 16.7682 4.0895 16.7682 3.77114 17.0866Z" fill="#4479BC"/>
<path d="M12 8.34375L14.6667 11L20 6" stroke="#4479BC" stroke-width="2" stroke-linecap="round"/>
</g>
<defs>
<clipPath id="clip0">
<rect width="25" height="25" fill="white"/>
</clipPath>
</defs>
</svg>
