<svg xmlns="http://www.w3.org/2000/svg" viewBox="0 0 60 60"><defs><style>.cls-1{fill:#25a6de;}</style></defs><title>tangle-3</title><g id="Слой_2" data-name="Слой 2"><g id="layout"><path class="cls-1" d="M51.26,44.86A5.1,5.1,0,0,1,48,43.77a6.39,6.39,0,0,0-7.65,0,5.36,5.36,0,0,1-6.49,0,6.39,6.39,0,0,0-7.65,0,5.36,5.36,0,0,1-6.49,0,6,6,0,0,0-3.83-1.27,6,6,0,0,0-3.82,1.27,5.11,5.11,0,0,1-3.25,1.09,5.09,5.09,0,0,1-3.24-1.09A6,6,0,0,0,1.76,42.5H1.4A1.25,1.25,0,0,1,1.28,40h.48A8.44,8.44,0,0,1,7,41.69a2.69,2.69,0,0,0,1.86.67,2.7,2.7,0,0,0,1.87-.67A8.45,8.45,0,0,1,15.91,40a8.45,8.45,0,0,1,5.21,1.69,2.91,2.91,0,0,0,3.73,0,8.87,8.87,0,0,1,10.41,0,2.91,2.91,0,0,0,3.73,0,8.87,8.87,0,0,1,10.42,0,2.91,2.91,0,0,0,3.73,0A8.45,8.45,0,0,1,58.33,40h.48a1.25,1.25,0,0,1-.11,2.5h-.37a6,6,0,0,0-3.82,1.27A5.11,5.11,0,0,1,51.26,44.86Z"/><path class="cls-1" d="M51.26,52.43A5.09,5.09,0,0,1,48,51.34a6.39,6.39,0,0,0-7.65,0,5.36,5.36,0,0,1-6.49,0,6.39,6.39,0,0,0-7.65,0,5.36,5.36,0,0,1-6.49,0,6,6,0,0,0-3.83-1.27,6,6,0,0,0-3.82,1.27,5.11,5.11,0,0,1-3.25,1.09,5.09,5.09,0,0,1-3.24-1.09,6,6,0,0,0-3.83-1.27H1.4a1.25,1.25,0,0,1-.11-2.5h.48A8.44,8.44,0,0,1,7,49.26a2.69,2.69,0,0,0,1.86.67,2.7,2.7,0,0,0,1.87-.67,8.45,8.45,0,0,1,5.21-1.69,8.45,8.45,0,0,1,5.21,1.69,2.91,2.91,0,0,0,3.73,0,8.87,8.87,0,0,1,10.41,0,2.91,2.91,0,0,0,3.73,0,8.87,8.87,0,0,1,10.42,0,2.91,2.91,0,0,0,3.73,0,8.45,8.45,0,0,1,5.21-1.69h.48a1.25,1.25,0,0,1-.11,2.5h-.37a6,6,0,0,0-3.82,1.27A5.1,5.1,0,0,1,51.26,52.43Z"/><path class="cls-1" d="M51.26,60A5.09,5.09,0,0,1,48,58.91a6.39,6.39,0,0,0-7.65,0,5.36,5.36,0,0,1-6.49,0,6.39,6.39,0,0,0-7.65,0,5.36,5.36,0,0,1-6.49,0,6,6,0,0,0-3.83-1.27,6,6,0,0,0-3.82,1.27A5.11,5.11,0,0,1,8.83,60a5.09,5.09,0,0,1-3.24-1.09,6,6,0,0,0-3.83-1.27H1.4a1.27,1.27,0,0,1-1.3-1.19,1.25,1.25,0,0,1,1.19-1.31h.48A8.44,8.44,0,0,1,7,56.83a2.7,2.7,0,0,0,1.86.67,2.7,2.7,0,0,0,1.87-.67,8.45,8.45,0,0,1,5.21-1.69,8.45,8.45,0,0,1,5.21,1.69,2.91,2.91,0,0,0,3.73,0,8.87,8.87,0,0,1,10.41,0,2.91,2.91,0,0,0,3.73,0,8.87,8.87,0,0,1,10.42,0,2.91,2.91,0,0,0,3.73,0,8.45,8.45,0,0,1,5.21-1.69h.48A1.25,1.25,0,0,1,60,56.45a1.26,1.26,0,0,1-1.3,1.19h-.37a6,6,0,0,0-3.82,1.27A5.1,5.1,0,0,1,51.26,60Z"/><path class="cls-1" d="M26.16,4.41V1.25A1.25,1.25,0,0,0,24.92,0H13.08a1.25,1.25,0,0,0-1.25,1.25V3.32H1.25A1.25,1.25,0,0,0,0,4.57V26.68a1.25,1.25,0,0,0,1.25,1.25H11.84V30a1.25,1.25,0,0,0,1.25,1.25H24.92A1.25,1.25,0,0,0,26.16,30V25a10.52,10.52,0,0,1,6,3,11.34,11.34,0,0,1,3.34,9.75,1.27,1.27,0,0,0,1.2,1.38h.35A5.06,5.06,0,0,0,40.31,38a6.33,6.33,0,0,1,7.57,0,5.06,5.06,0,0,0,3.22,1.09h.38l.19,0,.09,0a5.2,5.2,0,0,0,2.56-1,6,6,0,0,1,3.78-1.26h.49c.77,0,1.18-.58,1.19-1.6,0-.33,0-.94,0-2.06C59.8,19,43.33,5.06,26.16,4.41ZM23.67,28.75H14.33V22.5a1.25,1.25,0,1,0-2.49,0v2.93H2.49V5.82h9.34v9.81a1.25,1.25,0,1,0,2.49,0V2.5h9.34V28.75ZM57.31,34.3a8.4,8.4,0,0,0-4.37,1.65l-.49.32a26.84,26.84,0,0,0-2-5.81,1.25,1.25,0,1,0-2.25,1.08,24.55,24.55,0,0,1,1.73,4.82c-.19-.1-.39-.24-.65-.41a8.8,8.8,0,0,0-10.34,0,5.61,5.61,0,0,1-.81.49,13.8,13.8,0,0,0-4.18-10.26,12.93,12.93,0,0,0-7.76-3.72V15.23a28.41,28.41,0,0,1,17.5,9.53,1.25,1.25,0,1,0,1.86-1.66A30.85,30.85,0,0,0,26.16,12.72V6.9c15.91.64,31.15,13.31,31.15,26.22C57.31,33.61,57.31,34,57.31,34.3Z"/></g></g></svg>