<svg xmlns="http://www.w3.org/2000/svg" viewBox="0 0 60 60"><defs><style>.cls-1{fill:#25a6de;}</style></defs><title>tangle-4</title><g id="Слой_2" data-name="Слой 2"><g id="layout"><path class="cls-1" d="M59.72,53.51A1.24,1.24,0,0,0,58,53.34,14.1,14.1,0,0,1,53,56,8.07,8.07,0,0,1,48.56,56L54.94,34.9a1.27,1.27,0,0,0-.54-1.45l-5-3.1v-9.2a1.26,1.26,0,0,0-1.25-1.26H46.25V16.11A1.26,1.26,0,0,0,45,14.84H40.62V11.05a1.26,1.26,0,0,0-1.25-1.26H33.75V1.26A1.26,1.26,0,0,0,32.5,0h-5a1.26,1.26,0,0,0-1.25,1.26V9.79H20.62a1.26,1.26,0,0,0-1.25,1.26v3.79H15a1.26,1.26,0,0,0-1.25,1.26v3.79H11.87a1.26,1.26,0,0,0-1.25,1.26v9.2l-5,3.1a1.27,1.27,0,0,0-.54,1.45L11.43,56c-.34-.13-.68-.28-1-.45-4.08-1.95-7.46.18-9.95,2.24a1.27,1.27,0,0,0-.17,1.78A1.24,1.24,0,0,0,2,59.71c2.93-2.43,5-3,7.29-1.91,3.87,1.85,7.24,2,10.29.46,2.5-1.26,4.44-2.07,6.67-1.06l2.88,1.31a10.35,10.35,0,0,0,8.77-.08l.9-.45a9.22,9.22,0,0,1,3.4-1.22,8.76,8.76,0,0,1,4.18,1.08,10.52,10.52,0,0,0,7.21.63,16.7,16.7,0,0,0,5.92-3.18A1.27,1.27,0,0,0,59.72,53.51ZM46.87,28.82,36.5,22.42H46.87ZM28.75,2.53h2.5V9.79h-2.5Zm-6.87,9.79H38.12v2.53H21.87Zm-5.62,5.05h27.5v2.53H32.41l-1.76-1.09-.06,0-.09,0-.05,0-.09,0-.09,0h-.55l-.09,0-.09,0-.05,0-.09,0-.06,0L27.59,19.9H16.25Zm-3.12,5.05H23.5L13.12,28.82ZM18.51,56a7.26,7.26,0,0,1-4.23.71L7.73,35.1l21-13V55.55l-1.43-.65C23.84,53.32,20.76,54.87,18.51,56Zm23.57-1.76a11.37,11.37,0,0,0-4.36,1.49l-.85.42a7.86,7.86,0,0,1-5.63.44s0,0,0-.07V22.14l21,13L46.24,55A9.64,9.64,0,0,0,42.08,54.25Z"/></g></g></svg>