<svg xmlns="http://www.w3.org/2000/svg" viewBox="0 0 60 60"><defs><style>.cls-1{fill:#25a6de;}</style></defs><title>tangle-6</title><g id="Слой_2" data-name="Слой 2"><g id="layout"><path class="cls-1" d="M30,16.55A13.45,13.45,0,1,0,43.45,30,13.46,13.46,0,0,0,30,16.55Zm0,24.39A10.95,10.95,0,1,1,40.95,30,11,11,0,0,1,30,40.95Z"/><path class="cls-1" d="M41.17,40.92A15.62,15.62,0,1,1,41,19a1.25,1.25,0,1,0,1.77-1.77A18.12,18.12,0,1,0,43,42.67a1.25,1.25,0,0,0-1.79-1.75Z"/><path class="cls-1" d="M46.63,33.17a1.25,1.25,0,0,0-1.53.88A15.45,15.45,0,0,1,44,37a1.25,1.25,0,1,0,2.24,1.12,18,18,0,0,0,1.29-3.4A1.25,1.25,0,0,0,46.63,33.17Z"/><path class="cls-1" d="M30,24.85A5.15,5.15,0,1,0,35.15,30,5.16,5.16,0,0,0,30,24.85Zm0,7.8A2.65,2.65,0,1,1,32.65,30,2.65,2.65,0,0,1,30,32.65Z"/><path class="cls-1" d="M58.87,23.2l-5.62-.52a24.27,24.27,0,0,0-1.63-3.94l3.6-4.34a1.25,1.25,0,0,0-.08-1.68L47.29,4.86a1.25,1.25,0,0,0-1.68-.08l-4.34,3.6a24.26,24.26,0,0,0-3.94-1.63L36.8,1.13A1.25,1.25,0,0,0,35.56,0H24.44A1.25,1.25,0,0,0,23.2,1.13l-.52,5.62a24.26,24.26,0,0,0-3.94,1.63L14.4,4.78a1.25,1.25,0,0,0-1.68.08L4.86,12.72a1.25,1.25,0,0,0-.08,1.68l3.6,4.34,0,0a24.27,24.27,0,0,0-1.62,3.91l-5.62.52A1.25,1.25,0,0,0,0,24.44V35.56A1.25,1.25,0,0,0,1.13,36.8l5.62.52a24.27,24.27,0,0,0,1.63,3.94L4.78,45.6a1.25,1.25,0,0,0,.08,1.68l7.86,7.86a1.25,1.25,0,0,0,1.68.08l4.34-3.6a24.26,24.26,0,0,0,3.94,1.63l.52,5.62A1.25,1.25,0,0,0,24.44,60H35.56a1.25,1.25,0,0,0,1.24-1.13l.52-5.62a24.26,24.26,0,0,0,3.94-1.63l4.34,3.6a1.25,1.25,0,0,0,1.68-.08l7.86-7.86a1.25,1.25,0,0,0,.08-1.68l-3.6-4.34a24.27,24.27,0,0,0,1.63-3.94l5.62-.52A1.25,1.25,0,0,0,60,35.56V24.44A1.25,1.25,0,0,0,58.87,23.2ZM57.5,34.42l-5.32.49a1.25,1.25,0,0,0-1.09.91,21.78,21.78,0,0,1-2.06,5,1.25,1.25,0,0,0,.13,1.42l3.42,4.12-6.25,6.24-4.12-3.42A1.25,1.25,0,0,0,40.79,49a21.74,21.74,0,0,1-5,2.06,1.25,1.25,0,0,0-.91,1.09l-.49,5.32H25.58l-.49-5.32a1.25,1.25,0,0,0-.91-1.09,21.74,21.74,0,0,1-5-2.06,1.25,1.25,0,0,0-1.42.12l-4.12,3.42L7.43,46.32l3.42-4.12A1.25,1.25,0,0,0,11,40.79a21.78,21.78,0,0,1-2.06-5,1.25,1.25,0,0,0-1.09-.91L2.5,34.42V25.58l5.32-.49a1.25,1.25,0,0,0,1.09-.91,21.79,21.79,0,0,1,1.67-4.26q.19-.36.39-.71a1.25,1.25,0,0,0-.13-1.42L7.43,13.68l6.25-6.24,4.12,3.42a1.25,1.25,0,0,0,1.42.12,21.74,21.74,0,0,1,5-2.06,1.25,1.25,0,0,0,.91-1.09l.49-5.32h8.83l.49,5.32a1.25,1.25,0,0,0,.91,1.09,21.74,21.74,0,0,1,5,2.06,1.25,1.25,0,0,0,1.42-.12l4.12-3.42,6.25,6.24-3.42,4.12A1.25,1.25,0,0,0,49,19.21a21.78,21.78,0,0,1,2.06,5,1.25,1.25,0,0,0,1.09.91l5.32.49Z"/></g></g></svg>