<svg xmlns="http://www.w3.org/2000/svg" viewBox="0 0 60 60"><defs><style>.cls-1{fill:#25a6de;}</style></defs><title>tangle-5</title><g id="Слой_2" data-name="Слой 2"><g id="layout"><path class="cls-1" d="M40.17,36.13c3.05,1.52,6.42,1.37,10.29-.46a8.84,8.84,0,0,1,3.63-.4c1.77,0,3.45.06,4.61-1a1.24,1.24,0,0,0,.19-.21,1.27,1.27,0,0,0,.2-.2,1.25,1.25,0,0,0-.18-1.76L36,13.41a1.25,1.25,0,0,0-.79-.28H34.06V11.48A11.78,11.78,0,0,0,39.63,1.25a1.25,1.25,0,0,0-2.5,0A9.8,9.8,0,0,1,34,8.44a4.05,4.05,0,0,0-8.09,0,9.6,9.6,0,0,1-3.08-7.18,1.25,1.25,0,0,0-2.5,0,11.86,11.86,0,0,0,5.56,10.24v1.64H24.27a1.25,1.25,0,0,0-.78.28L.76,31.68h0l-.11.11-.07.07L.51,32l-.07.12h0a2.36,2.36,0,0,0,.09,2.24c.79,1.44,2.93,2.58,5.33,2.83a6.39,6.39,0,0,0,.67,0c2.18,0,4.57-1,6.84-2.11A8.85,8.85,0,0,1,17.55,34a9.28,9.28,0,0,1,3.4,1.21l.9.44A14.25,14.25,0,0,0,25.94,37l.18,0a8.28,8.28,0,0,0,4.49-.6l2.88-1.3C35.73,34.08,37.67,34.89,40.17,36.13ZM35.74,24.49a1.25,1.25,0,1,0-1.58,1.93l.75.61L30,31l-4.9-4L30,23l.88.72a1.25,1.25,0,1,0,1.58-1.93l-.49-.4,4.93-4,4.9,4-4.93,4Zm-14.05-.25a1.25,1.25,0,1,0-1.58,1.93l1,.86-5.08,4.15-5.18-4.45,5-4,.94.77a1.25,1.25,0,1,0,1.58-1.93l-.53-.44,4.94-4L28,21.41l-4.9,4ZM43.78,23l5,4.06-4.81,4.13L38.85,27Zm10.35,9.78a10.7,10.7,0,0,0-4.74.64,10.5,10.5,0,0,1-5.62,1.2l6.93-6,5,4.1C55.22,32.8,54.66,32.79,54.13,32.78Zm-19.2-17-4.93,4-5.09-4.17h9.85Zm-6.49-3.37a7,7,0,0,0,1.19.11,1.25,1.25,0,0,0,0-2.5,4.49,4.49,0,0,1-1.19-.17v-1a1.57,1.57,0,1,1,3.13,0v4.32H28.44ZM12.3,32.83c-1.62.77-4.32,2-6.18,1.85a5.2,5.2,0,0,1-3.33-1.43l6.12-4.92,4.62,4C13.09,32.47,12.68,32.66,12.3,32.83Zm9.77.17a16.43,16.43,0,0,0-2.81-1.19l3.87-3.16,4.9,4-2.15,1.76a12.35,12.35,0,0,1-3-1Zm10.41-.19L31,33.49l5.91-4.84L42,32.84l-1,.89C38.74,32.64,35.79,31.31,32.47,32.81Z"/><path class="cls-1" d="M31.59,42.83c-.47-1-1.69-1-2.22-1a7.27,7.27,0,0,0-5.8,2.76C20.79,42.28,16,40,12.4,40h0a11,11,0,0,0-7.17,2.65C3.6,44,2.5,45.75,2.5,46.92S4.35,51.83,10,52.57a24.22,24.22,0,0,0,3.06.17,29.66,29.66,0,0,0,10.17-1.61,7.18,7.18,0,0,0,6.13,3.24c.52,0,1.75,0,2.22-1s-.28-1.88-1-2.72-1.48-1.71-1.48-2.54.85-1.82,1.48-2.54S32.06,43.85,31.59,42.83ZM5,46.89a8,8,0,0,1,5.11-4.07,4.66,4.66,0,0,1,1.48,3.82c0,2.24-.84,3.4-1.1,3.46h-.16C6.59,49.61,5.22,47.53,5,46.89Zm8.38,3.36a8.91,8.91,0,0,0,.7-3.62,7.59,7.59,0,0,0-1-4.09,19.07,19.07,0,0,1,9.38,4.39h0a5.43,5.43,0,0,0-.08,1.84A26.37,26.37,0,0,1,13.39,50.25Zm14.87,1.51a4,4,0,0,1-3.4-3.66,4,4,0,0,1,3.4-3.66,5.91,5.91,0,0,0-1.65,3.66A5.91,5.91,0,0,0,28.26,51.76Z"/><path class="cls-1" d="M55.1,55.12a8.31,8.31,0,0,1-2.33-1.19,12.7,12.7,0,0,1,1.8-.89,1.25,1.25,0,0,0-.9-2.33,16.39,16.39,0,0,0-2.3,1.12,14,14,0,0,0-7.6-3.08A6.47,6.47,0,0,0,39,50.45a5.16,5.16,0,0,0-1.55,3.4c0,1.17,1.71,3.12,5.38,3.58a14.64,14.64,0,0,0,1.8.1,16.41,16.41,0,0,0,6.59-1.25,1.24,1.24,0,0,0,.27-.2,10.82,10.82,0,0,0,2.84,1.42,1.25,1.25,0,0,0,.77-2.38Zm-12-.17A5.1,5.1,0,0,1,40,53.63a2.89,2.89,0,0,1,.61-1.22,3.84,3.84,0,0,1,3.16-1.16,11.45,11.45,0,0,1,5.87,2.38.92.92,0,0,0,0,.17,1.07,1.07,0,0,0,.1.42A15.82,15.82,0,0,1,43.13,54.94Z"/><path class="cls-1" d="M51.88,40.63a1.25,1.25,0,0,0-1.25-1.25H35a1.25,1.25,0,0,0,0,2.5H50.63A1.25,1.25,0,0,0,51.88,40.63Z"/><path class="cls-1" d="M58.75,39.38h-2.5a1.25,1.25,0,0,0,0,2.5h2.5a1.25,1.25,0,0,0,0-2.5Z"/><path class="cls-1" d="M25,57.5H9.38a1.25,1.25,0,0,0,0,2.5H25a1.25,1.25,0,0,0,0-2.5Z"/><path class="cls-1" d="M3.75,57.5H1.25a1.25,1.25,0,0,0,0,2.5h2.5a1.25,1.25,0,0,0,0-2.5Z"/></g></g></svg>