<svg width="26" height="26" viewBox="0 0 26 26" fill="none" xmlns="http://www.w3.org/2000/svg">
<path d="M12.945 23.7291C7.19186 23.7291 2.52832 19.0655 2.52832 13.3124C2.52832 7.55929 7.19186 2.89575 12.945 2.89575C18.6981 2.89575 23.3617 7.55929 23.3617 13.3124C23.3617 19.0655 18.6981 23.7291 12.945 23.7291ZM12.945 21.6458C15.1551 21.6458 17.2747 20.7678 18.8375 19.205C20.4003 17.6422 21.2783 15.5226 21.2783 13.3124C21.2783 11.1023 20.4003 8.98267 18.8375 7.41986C17.2747 5.85706 15.1551 4.97909 12.945 4.97909C10.7348 4.97909 8.61523 5.85706 7.05243 7.41986C5.48963 8.98267 4.61165 11.1023 4.61165 13.3124C4.61165 15.5226 5.48963 17.6422 7.05243 19.205C8.61523 20.7678 10.7348 21.6458 12.945 21.6458ZM13.9867 13.3124H18.1533V15.3958H11.9033V8.10409H13.9867V13.3124Z" fill="#333333"/>
</svg>
