<svg width="75" height="67" viewBox="0 0 75 67" fill="none" xmlns="http://www.w3.org/2000/svg">
<mask id="path-1-outside-1" maskUnits="userSpaceOnUse" x="0.170044" y="0" width="75" height="67" fill="black">
<rect fill="white" x="0.170044" width="75" height="67"/>
<path fill-rule="evenodd" clip-rule="evenodd" d="M73.9971 11.532C74.1986 11.6484 74.3227 11.8633 74.3227 12.0959L74.3228 34.3507C74.3228 34.5834 74.1986 34.7984 73.997 34.9146L70.9386 36.6781C71.2976 37.9668 71.0061 39.6616 70.1288 41.1825C69.4659 42.3305 68.5519 43.2525 67.555 43.7788C66.963 44.0913 66.3767 44.2482 65.8277 44.2482C65.3615 44.2482 64.9221 44.135 64.5286 43.9078C64.1652 43.6983 63.8677 43.4039 63.6412 43.0429C63.5076 43.8356 63.2117 44.6601 62.7617 45.4391C62.099 46.5866 61.1853 47.5085 60.1888 48.0343C59.5973 48.3465 59.0115 48.5032 58.4628 48.5032C57.9965 48.5032 57.557 48.3899 57.1635 48.1627C56.9782 48.0558 56.8122 47.9246 56.6618 47.7761L41.1011 56.7601C40.9397 57.3037 40.7072 57.8511 40.4022 58.3791C39.7407 59.5266 38.8273 60.4487 37.8303 60.9749C37.2384 61.2876 36.6521 61.4446 36.1031 61.4446C35.6371 61.4446 35.1977 61.3315 34.8043 61.1043C34.441 60.8947 34.1443 60.6005 33.9181 60.2413C33.7843 61.0317 33.4882 61.8548 33.0373 62.6354C31.9317 64.5491 30.235 65.6989 28.7411 65.6989C28.28 65.699 27.8382 65.5893 27.439 65.3589C26.5475 64.8444 26.0529 63.8284 26.0335 62.5697L20.2352 65.9129C20.1347 65.9709 20.0223 66 19.91 66C19.7977 66 19.6853 65.9709 19.5845 65.9128L8.25203 59.3703L6.6032 60.3128C6.86525 60.9143 6.99661 61.5389 6.9748 62.1159C6.94289 62.9567 6.58188 63.6368 5.9842 63.9817C5.70619 64.1423 5.39091 64.2223 5.05838 64.2223C4.6762 64.2223 4.27091 64.1168 3.87311 63.9068C3.21602 63.56 2.6159 62.9561 2.1831 62.2066C1.2192 60.5369 1.37871 58.7012 2.54624 58.027C3.56109 57.4416 4.9547 57.9546 5.93504 59.195L6.94664 58.6169L1.49558 55.47C1.29407 55.3537 1.17004 55.1387 1.17004 54.9061V32.651C1.17004 32.651 1.2944 32.2033 1.4959 32.0871L55.2557 1.08714C55.457 0.970926 55.7051 0.970926 55.9064 1.0873L73.9971 11.532ZM4.48105 62.7552C4.82074 62.9346 5.13146 62.9709 5.33329 62.8542C5.53496 62.7378 5.65899 62.4507 5.67364 62.0667C5.69236 61.5736 5.52682 60.9856 5.21968 60.4536C4.71559 59.5803 3.97354 59.087 3.47629 59.087C3.37065 59.087 3.27625 59.1093 3.1973 59.1547C2.74693 59.4149 2.69973 60.4969 3.31092 61.5555C3.61806 62.0874 4.04451 62.5249 4.48105 62.7552ZM56.9862 40.1771V43.2198L65.0545 38.5676V35.5248L56.9862 40.1771ZM38.2452 50.983V54.0257L46.3136 49.3735V46.3308L38.2452 50.983ZM28.8731 56.3865V59.4294L36.9431 54.7763V51.7335L28.8731 56.3865ZM20.5611 61.1792V64.2221L27.571 60.1801V57.1373L20.5611 61.1792ZM68.8701 14.1129L59.0481 8.4416C56.6489 7.05661 53.6679 7.05613 51.2684 8.44143L6.22981 34.4444L19.9104 42.3425L68.8701 14.1129ZM55.6841 40.9279L47.6157 45.5799V48.6227L55.6841 43.9707V40.9279ZM59.6992 7.31378L70.1731 13.3615L72.3688 12.0955L56.2319 2.77878V6.16514C57.4367 6.30756 58.6186 6.68974 59.6992 7.31378ZM54.9298 6.10459V2.77813L3.1239 32.6514L4.92768 33.6927L50.6173 7.31378C51.9499 6.54439 53.4361 6.14186 54.9298 6.10459ZM9.69772 57.0442C10.0101 56.8657 10.4079 56.9743 10.5861 57.2863C10.7645 57.5985 10.6561 57.9963 10.3439 58.1748L9.56067 58.6224L19.259 64.2214V61.1792L2.47218 51.4879V54.5302L8.25528 57.8688L9.69772 57.0442ZM28.09 64.2312C29.1148 64.8225 30.8641 63.7939 31.9097 61.9841C32.5484 60.8785 32.8142 59.6695 32.6565 58.7512L27.397 61.7837C27.2077 62.9283 27.4683 63.8725 28.09 64.2312ZM37.2224 59.8233C38.005 59.4101 38.7339 58.666 39.2746 57.728C39.912 56.6251 40.1789 55.4193 40.0244 54.5026L34.7599 57.5382C34.5745 58.6783 34.8361 59.6189 35.4554 59.9765C36.069 60.3307 36.8259 60.0328 37.2224 59.8233ZM55.7602 45.4297L41.2001 53.8249C41.3163 54.2184 41.3697 54.6504 41.3638 55.105L55.9783 46.6674C55.8478 46.2938 55.7728 45.8781 55.7602 45.4297ZM59.5812 46.8825C60.3634 46.4698 61.0925 45.7258 61.6342 44.7877C62.258 43.7081 62.5265 42.5209 62.3884 41.6078L57.1114 44.6505C56.9429 45.765 57.2071 46.6843 57.8145 47.0351C58.4285 47.3891 59.185 47.0917 59.5812 46.8825ZM66.947 42.6272C67.7298 42.2139 68.4593 41.4697 69.001 40.5316C69.6219 39.4548 69.8907 38.271 69.7559 37.3597L64.4756 40.4043C64.3099 41.515 64.5742 42.431 65.1794 42.78C65.7938 43.1344 66.5505 42.8365 66.947 42.6272ZM66.3567 34.7742V37.8169L73.0205 33.9747V30.9319L66.3567 34.7742ZM19.259 45.4505V43.47L2.47218 33.7787V35.7594V37.2629V49.9842L19.259 59.6755V46.9542V45.4505ZM20.5611 45.4513V43.4703L27.571 39.4285V41.4095V42.9125V55.6344L20.5611 59.6762V46.9543V45.4513ZM28.8731 38.6776V40.6587V42.1617V54.8837L36.9431 50.2307V37.5087V36.0057V34.0246L28.8731 38.6776ZM46.3136 28.6216V30.6028V32.1058V44.8278L38.2452 49.48V36.758V35.255V33.2738L46.3136 28.6216ZM55.6841 39.4249V26.7029V25.1997V23.2185L47.6157 27.8707V29.8519V31.3549V44.0769L55.6841 39.4249ZM56.9862 22.468L65.0545 17.8158V19.797V21.2998V34.0219L56.9862 38.6741V25.952V24.4491V22.468ZM66.3567 33.2712L73.0205 29.4289V16.7069V15.2039V13.2227L66.3567 17.065V19.0462V20.5492V33.2712Z"/>
</mask>
<path fill-rule="evenodd" clip-rule="evenodd" d="M73.9971 11.532C74.1986 11.6484 74.3227 11.8633 74.3227 12.0959L74.3228 34.3507C74.3228 34.5834 74.1986 34.7984 73.997 34.9146L70.9386 36.6781C71.2976 37.9668 71.0061 39.6616 70.1288 41.1825C69.4659 42.3305 68.5519 43.2525 67.555 43.7788C66.963 44.0913 66.3767 44.2482 65.8277 44.2482C65.3615 44.2482 64.9221 44.135 64.5286 43.9078C64.1652 43.6983 63.8677 43.4039 63.6412 43.0429C63.5076 43.8356 63.2117 44.6601 62.7617 45.4391C62.099 46.5866 61.1853 47.5085 60.1888 48.0343C59.5973 48.3465 59.0115 48.5032 58.4628 48.5032C57.9965 48.5032 57.557 48.3899 57.1635 48.1627C56.9782 48.0558 56.8122 47.9246 56.6618 47.7761L41.1011 56.7601C40.9397 57.3037 40.7072 57.8511 40.4022 58.3791C39.7407 59.5266 38.8273 60.4487 37.8303 60.9749C37.2384 61.2876 36.6521 61.4446 36.1031 61.4446C35.6371 61.4446 35.1977 61.3315 34.8043 61.1043C34.441 60.8947 34.1443 60.6005 33.9181 60.2413C33.7843 61.0317 33.4882 61.8548 33.0373 62.6354C31.9317 64.5491 30.235 65.6989 28.7411 65.6989C28.28 65.699 27.8382 65.5893 27.439 65.3589C26.5475 64.8444 26.0529 63.8284 26.0335 62.5697L20.2352 65.9129C20.1347 65.9709 20.0223 66 19.91 66C19.7977 66 19.6853 65.9709 19.5845 65.9128L8.25203 59.3703L6.6032 60.3128C6.86525 60.9143 6.99661 61.5389 6.9748 62.1159C6.94289 62.9567 6.58188 63.6368 5.9842 63.9817C5.70619 64.1423 5.39091 64.2223 5.05838 64.2223C4.6762 64.2223 4.27091 64.1168 3.87311 63.9068C3.21602 63.56 2.6159 62.9561 2.1831 62.2066C1.2192 60.5369 1.37871 58.7012 2.54624 58.027C3.56109 57.4416 4.9547 57.9546 5.93504 59.195L6.94664 58.6169L1.49558 55.47C1.29407 55.3537 1.17004 55.1387 1.17004 54.9061V32.651C1.17004 32.651 1.2944 32.2033 1.4959 32.0871L55.2557 1.08714C55.457 0.970926 55.7051 0.970926 55.9064 1.0873L73.9971 11.532ZM4.48105 62.7552C4.82074 62.9346 5.13146 62.9709 5.33329 62.8542C5.53496 62.7378 5.65899 62.4507 5.67364 62.0667C5.69236 61.5736 5.52682 60.9856 5.21968 60.4536C4.71559 59.5803 3.97354 59.087 3.47629 59.087C3.37065 59.087 3.27625 59.1093 3.1973 59.1547C2.74693 59.4149 2.69973 60.4969 3.31092 61.5555C3.61806 62.0874 4.04451 62.5249 4.48105 62.7552ZM56.9862 40.1771V43.2198L65.0545 38.5676V35.5248L56.9862 40.1771ZM38.2452 50.983V54.0257L46.3136 49.3735V46.3308L38.2452 50.983ZM28.8731 56.3865V59.4294L36.9431 54.7763V51.7335L28.8731 56.3865ZM20.5611 61.1792V64.2221L27.571 60.1801V57.1373L20.5611 61.1792ZM68.8701 14.1129L59.0481 8.4416C56.6489 7.05661 53.6679 7.05613 51.2684 8.44143L6.22981 34.4444L19.9104 42.3425L68.8701 14.1129ZM55.6841 40.9279L47.6157 45.5799V48.6227L55.6841 43.9707V40.9279ZM59.6992 7.31378L70.1731 13.3615L72.3688 12.0955L56.2319 2.77878V6.16514C57.4367 6.30756 58.6186 6.68974 59.6992 7.31378ZM54.9298 6.10459V2.77813L3.1239 32.6514L4.92768 33.6927L50.6173 7.31378C51.9499 6.54439 53.4361 6.14186 54.9298 6.10459ZM9.69772 57.0442C10.0101 56.8657 10.4079 56.9743 10.5861 57.2863C10.7645 57.5985 10.6561 57.9963 10.3439 58.1748L9.56067 58.6224L19.259 64.2214V61.1792L2.47218 51.4879V54.5302L8.25528 57.8688L9.69772 57.0442ZM28.09 64.2312C29.1148 64.8225 30.8641 63.7939 31.9097 61.9841C32.5484 60.8785 32.8142 59.6695 32.6565 58.7512L27.397 61.7837C27.2077 62.9283 27.4683 63.8725 28.09 64.2312ZM37.2224 59.8233C38.005 59.4101 38.7339 58.666 39.2746 57.728C39.912 56.6251 40.1789 55.4193 40.0244 54.5026L34.7599 57.5382C34.5745 58.6783 34.8361 59.6189 35.4554 59.9765C36.069 60.3307 36.8259 60.0328 37.2224 59.8233ZM55.7602 45.4297L41.2001 53.8249C41.3163 54.2184 41.3697 54.6504 41.3638 55.105L55.9783 46.6674C55.8478 46.2938 55.7728 45.8781 55.7602 45.4297ZM59.5812 46.8825C60.3634 46.4698 61.0925 45.7258 61.6342 44.7877C62.258 43.7081 62.5265 42.5209 62.3884 41.6078L57.1114 44.6505C56.9429 45.765 57.2071 46.6843 57.8145 47.0351C58.4285 47.3891 59.185 47.0917 59.5812 46.8825ZM66.947 42.6272C67.7298 42.2139 68.4593 41.4697 69.001 40.5316C69.6219 39.4548 69.8907 38.271 69.7559 37.3597L64.4756 40.4043C64.3099 41.515 64.5742 42.431 65.1794 42.78C65.7938 43.1344 66.5505 42.8365 66.947 42.6272ZM66.3567 34.7742V37.8169L73.0205 33.9747V30.9319L66.3567 34.7742ZM19.259 45.4505V43.47L2.47218 33.7787V35.7594V37.2629V49.9842L19.259 59.6755V46.9542V45.4505ZM20.5611 45.4513V43.4703L27.571 39.4285V41.4095V42.9125V55.6344L20.5611 59.6762V46.9543V45.4513ZM28.8731 38.6776V40.6587V42.1617V54.8837L36.9431 50.2307V37.5087V36.0057V34.0246L28.8731 38.6776ZM46.3136 28.6216V30.6028V32.1058V44.8278L38.2452 49.48V36.758V35.255V33.2738L46.3136 28.6216ZM55.6841 39.4249V26.7029V25.1997V23.2185L47.6157 27.8707V29.8519V31.3549V44.0769L55.6841 39.4249ZM56.9862 22.468L65.0545 17.8158V19.797V21.2998V34.0219L56.9862 38.6741V25.952V24.4491V22.468ZM66.3567 33.2712L73.0205 29.4289V16.7069V15.2039V13.2227L66.3567 17.065V19.0462V20.5492V33.2712Z" fill="#213A72"/>
<path fill-rule="evenodd" clip-rule="evenodd" d="M73.9971 11.532C74.1986 11.6484 74.3227 11.8633 74.3227 12.0959L74.3228 34.3507C74.3228 34.5834 74.1986 34.7984 73.997 34.9146L70.9386 36.6781C71.2976 37.9668 71.0061 39.6616 70.1288 41.1825C69.4659 42.3305 68.5519 43.2525 67.555 43.7788C66.963 44.0913 66.3767 44.2482 65.8277 44.2482C65.3615 44.2482 64.9221 44.135 64.5286 43.9078C64.1652 43.6983 63.8677 43.4039 63.6412 43.0429C63.5076 43.8356 63.2117 44.6601 62.7617 45.4391C62.099 46.5866 61.1853 47.5085 60.1888 48.0343C59.5973 48.3465 59.0115 48.5032 58.4628 48.5032C57.9965 48.5032 57.557 48.3899 57.1635 48.1627C56.9782 48.0558 56.8122 47.9246 56.6618 47.7761L41.1011 56.7601C40.9397 57.3037 40.7072 57.8511 40.4022 58.3791C39.7407 59.5266 38.8273 60.4487 37.8303 60.9749C37.2384 61.2876 36.6521 61.4446 36.1031 61.4446C35.6371 61.4446 35.1977 61.3315 34.8043 61.1043C34.441 60.8947 34.1443 60.6005 33.9181 60.2413C33.7843 61.0317 33.4882 61.8548 33.0373 62.6354C31.9317 64.5491 30.235 65.6989 28.7411 65.6989C28.28 65.699 27.8382 65.5893 27.439 65.3589C26.5475 64.8444 26.0529 63.8284 26.0335 62.5697L20.2352 65.9129C20.1347 65.9709 20.0223 66 19.91 66C19.7977 66 19.6853 65.9709 19.5845 65.9128L8.25203 59.3703L6.6032 60.3128C6.86525 60.9143 6.99661 61.5389 6.9748 62.1159C6.94289 62.9567 6.58188 63.6368 5.9842 63.9817C5.70619 64.1423 5.39091 64.2223 5.05838 64.2223C4.6762 64.2223 4.27091 64.1168 3.87311 63.9068C3.21602 63.56 2.6159 62.9561 2.1831 62.2066C1.2192 60.5369 1.37871 58.7012 2.54624 58.027C3.56109 57.4416 4.9547 57.9546 5.93504 59.195L6.94664 58.6169L1.49558 55.47C1.29407 55.3537 1.17004 55.1387 1.17004 54.9061V32.651C1.17004 32.651 1.2944 32.2033 1.4959 32.0871L55.2557 1.08714C55.457 0.970926 55.7051 0.970926 55.9064 1.0873L73.9971 11.532ZM4.48105 62.7552C4.82074 62.9346 5.13146 62.9709 5.33329 62.8542C5.53496 62.7378 5.65899 62.4507 5.67364 62.0667C5.69236 61.5736 5.52682 60.9856 5.21968 60.4536C4.71559 59.5803 3.97354 59.087 3.47629 59.087C3.37065 59.087 3.27625 59.1093 3.1973 59.1547C2.74693 59.4149 2.69973 60.4969 3.31092 61.5555C3.61806 62.0874 4.04451 62.5249 4.48105 62.7552ZM56.9862 40.1771V43.2198L65.0545 38.5676V35.5248L56.9862 40.1771ZM38.2452 50.983V54.0257L46.3136 49.3735V46.3308L38.2452 50.983ZM28.8731 56.3865V59.4294L36.9431 54.7763V51.7335L28.8731 56.3865ZM20.5611 61.1792V64.2221L27.571 60.1801V57.1373L20.5611 61.1792ZM68.8701 14.1129L59.0481 8.4416C56.6489 7.05661 53.6679 7.05613 51.2684 8.44143L6.22981 34.4444L19.9104 42.3425L68.8701 14.1129ZM55.6841 40.9279L47.6157 45.5799V48.6227L55.6841 43.9707V40.9279ZM59.6992 7.31378L70.1731 13.3615L72.3688 12.0955L56.2319 2.77878V6.16514C57.4367 6.30756 58.6186 6.68974 59.6992 7.31378ZM54.9298 6.10459V2.77813L3.1239 32.6514L4.92768 33.6927L50.6173 7.31378C51.9499 6.54439 53.4361 6.14186 54.9298 6.10459ZM9.69772 57.0442C10.0101 56.8657 10.4079 56.9743 10.5861 57.2863C10.7645 57.5985 10.6561 57.9963 10.3439 58.1748L9.56067 58.6224L19.259 64.2214V61.1792L2.47218 51.4879V54.5302L8.25528 57.8688L9.69772 57.0442ZM28.09 64.2312C29.1148 64.8225 30.8641 63.7939 31.9097 61.9841C32.5484 60.8785 32.8142 59.6695 32.6565 58.7512L27.397 61.7837C27.2077 62.9283 27.4683 63.8725 28.09 64.2312ZM37.2224 59.8233C38.005 59.4101 38.7339 58.666 39.2746 57.728C39.912 56.6251 40.1789 55.4193 40.0244 54.5026L34.7599 57.5382C34.5745 58.6783 34.8361 59.6189 35.4554 59.9765C36.069 60.3307 36.8259 60.0328 37.2224 59.8233ZM55.7602 45.4297L41.2001 53.8249C41.3163 54.2184 41.3697 54.6504 41.3638 55.105L55.9783 46.6674C55.8478 46.2938 55.7728 45.8781 55.7602 45.4297ZM59.5812 46.8825C60.3634 46.4698 61.0925 45.7258 61.6342 44.7877C62.258 43.7081 62.5265 42.5209 62.3884 41.6078L57.1114 44.6505C56.9429 45.765 57.2071 46.6843 57.8145 47.0351C58.4285 47.3891 59.185 47.0917 59.5812 46.8825ZM66.947 42.6272C67.7298 42.2139 68.4593 41.4697 69.001 40.5316C69.6219 39.4548 69.8907 38.271 69.7559 37.3597L64.4756 40.4043C64.3099 41.515 64.5742 42.431 65.1794 42.78C65.7938 43.1344 66.5505 42.8365 66.947 42.6272ZM66.3567 34.7742V37.8169L73.0205 33.9747V30.9319L66.3567 34.7742ZM19.259 45.4505V43.47L2.47218 33.7787V35.7594V37.2629V49.9842L19.259 59.6755V46.9542V45.4505ZM20.5611 45.4513V43.4703L27.571 39.4285V41.4095V42.9125V55.6344L20.5611 59.6762V46.9543V45.4513ZM28.8731 38.6776V40.6587V42.1617V54.8837L36.9431 50.2307V37.5087V36.0057V34.0246L28.8731 38.6776ZM46.3136 28.6216V30.6028V32.1058V44.8278L38.2452 49.48V36.758V35.255V33.2738L46.3136 28.6216ZM55.6841 39.4249V26.7029V25.1997V23.2185L47.6157 27.8707V29.8519V31.3549V44.0769L55.6841 39.4249ZM56.9862 22.468L65.0545 17.8158V19.797V21.2998V34.0219L56.9862 38.6741V25.952V24.4491V22.468ZM66.3567 33.2712L73.0205 29.4289V16.7069V15.2039V13.2227L66.3567 17.065V19.0462V20.5492V33.2712Z" stroke="#213A72" stroke-width="0.6" mask="url(#path-1-outside-1)"/>
</svg>
