<svg width="26" height="26" viewBox="0 0 26 26" fill="none" xmlns="http://www.w3.org/2000/svg">
<path d="M12.6799 3.9375C18.2966 3.9375 22.9695 7.97917 23.9497 13.3125C22.9706 18.6458 18.2966 22.6875 12.6799 22.6875C7.06328 22.6875 2.39036 18.6458 1.41016 13.3125C2.38932 7.97917 7.06328 3.9375 12.6799 3.9375ZM12.6799 20.6042C14.8044 20.6037 16.8658 19.8821 18.5267 18.5575C20.1876 17.2328 21.3496 15.3836 21.8227 13.3125C21.3479 11.243 20.1851 9.39584 18.5243 8.07294C16.8636 6.75005 14.8032 6.02972 12.6799 6.02972C10.5567 6.02972 8.49629 6.75005 6.83555 8.07294C5.1748 9.39584 4.012 11.243 3.53724 13.3125C4.01026 15.3836 5.17232 17.2328 6.83322 18.5575C8.49413 19.8821 10.5555 20.6037 12.6799 20.6042ZM12.6799 18C11.4367 18 10.2445 17.5061 9.36539 16.6271C8.48631 15.748 7.99245 14.5557 7.99245 13.3125C7.99245 12.0693 8.48631 10.877 9.36539 9.99794C10.2445 9.11886 11.4367 8.625 12.6799 8.625C13.9232 8.625 15.1154 9.11886 15.9945 9.99794C16.8736 10.877 17.3674 12.0693 17.3674 13.3125C17.3674 14.5557 16.8736 15.748 15.9945 16.6271C15.1154 17.5061 13.9232 18 12.6799 18ZM12.6799 15.9167C13.3706 15.9167 14.033 15.6423 14.5214 15.1539C15.0097 14.6655 15.2841 14.0032 15.2841 13.3125C15.2841 12.6218 15.0097 11.9595 14.5214 11.4711C14.033 10.9827 13.3706 10.7083 12.6799 10.7083C11.9893 10.7083 11.3269 10.9827 10.8385 11.4711C10.3501 11.9595 10.0758 12.6218 10.0758 13.3125C10.0758 14.0032 10.3501 14.6655 10.8385 15.1539C11.3269 15.6423 11.9893 15.9167 12.6799 15.9167Z" fill="#333333"/>
</svg>
