<svg xmlns="http://www.w3.org/2000/svg" xmlns:xlink="http://www.w3.org/1999/xlink" viewBox="0 0 236 219"><defs><style>.cls-1{fill:none;}.cls-2{isolation:isolate;}.cls-3{clip-path:url(#clip-path);}.cls-4{opacity:0.1;mix-blend-mode:overlay;}.cls-5{clip-path:url(#clip-path-3);}.cls-6{clip-path:url(#clip-path-4);}.cls-7{clip-path:url(#clip-path-5);}.cls-8{fill:url(#linear-gradient);}.cls-9{clip-path:url(#clip-path-7);}.cls-10{fill:url(#linear-gradient-2);}.cls-11{clip-path:url(#clip-path-8);}.cls-12{fill:url(#linear-gradient-3);}.cls-13{clip-path:url(#clip-path-9);}.cls-14{fill:url(#linear-gradient-4);}.cls-15{clip-path:url(#clip-path-10);}.cls-16{fill:url(#linear-gradient-5);}.cls-17{clip-path:url(#clip-path-11);}.cls-18{fill:url(#linear-gradient-6);}.cls-19{clip-path:url(#clip-path-12);}.cls-20{fill:url(#linear-gradient-7);}.cls-21{clip-path:url(#clip-path-13);}.cls-22{fill:url(#linear-gradient-8);}.cls-23{clip-path:url(#clip-path-14);}.cls-24{fill:url(#linear-gradient-9);}.cls-25{clip-path:url(#clip-path-15);}.cls-26{fill:url(#linear-gradient-10);}.cls-27{clip-path:url(#clip-path-16);}.cls-28{fill:url(#linear-gradient-11);}.cls-29{clip-path:url(#clip-path-17);}.cls-30{fill:url(#linear-gradient-12);}.cls-31{clip-path:url(#clip-path-18);}.cls-32{fill:url(#linear-gradient-13);}.cls-33{clip-path:url(#clip-path-19);}.cls-34{fill:url(#linear-gradient-14);}.cls-35{clip-path:url(#clip-path-20);}.cls-36{fill:url(#linear-gradient-15);}.cls-37{clip-path:url(#clip-path-21);}.cls-38{fill:url(#linear-gradient-16);}</style><clipPath id="clip-path"><rect class="cls-1" x="34.41" y="-40.43" width="215.42" height="237.94" transform="translate(-18.04 51.81) rotate(-19.45)"/></clipPath><clipPath id="clip-path-3"><rect class="cls-1" x="-78.49" y="-95.28" width="330.05" height="319.64" transform="translate(-16.55 32.5) rotate(-19.45)"/></clipPath><clipPath id="clip-path-4"><polygon class="cls-1" points="0.97 2.31 97.83 220.35 238.19 27.5 237.98 27.35 1.01 2.24 0.97 2.31"/></clipPath><clipPath id="clip-path-5"><rect class="cls-1" x="-6.59" y="146.19" width="369.4" height="7.11" transform="translate(-47.77 205.64) rotate(-53.95)"/></clipPath><linearGradient id="linear-gradient" x1="3107.67" y1="367.58" x2="3108.51" y2="367.58" gradientTransform="matrix(421.15, 0, 0, -421.15, -1308724.11, 154953.67)" gradientUnits="userSpaceOnUse"><stop offset="0" stop-color="#00aced"/><stop offset="0.5" stop-color="#2b2a68"/><stop offset="0.99" stop-color="#aa2e8d"/><stop offset="1" stop-color="#aa2e8d"/></linearGradient><clipPath id="clip-path-7"><rect class="cls-1" x="-18.44" y="137.57" width="369.4" height="7.11" transform="translate(-45.68 192.51) rotate(-53.95)"/></clipPath><linearGradient id="linear-gradient-2" x1="3107.67" y1="367.6" x2="3108.51" y2="367.6" gradientTransform="matrix(421.15, 0, 0, -421.15, -1308725.09, 154954.91)" xlink:href="#linear-gradient"/><clipPath id="clip-path-8"><polygon class="cls-1" points="93.38 210.32 96.71 217.83 235.53 27.09 227.37 26.22 93.38 210.32"/></clipPath><linearGradient id="linear-gradient-3" x1="3107.67" y1="367.65" x2="3108.51" y2="367.65" gradientTransform="matrix(421.15, 0, 0, -421.15, -1308727.22, 154954.91)" xlink:href="#linear-gradient"/><clipPath id="clip-path-9"><polygon class="cls-1" points="86.51 194.86 89.84 202.36 218.71 25.3 210.54 24.44 86.51 194.86"/></clipPath><linearGradient id="linear-gradient-4" x1="3107.67" y1="367.67" x2="3108.51" y2="367.67" gradientTransform="matrix(421.15, 0, 0, -421.15, -1308728.2, 154956.11)" xlink:href="#linear-gradient"/><clipPath id="clip-path-10"><polygon class="cls-1" points="79.64 179.39 82.97 186.9 201.88 23.52 193.71 22.66 79.64 179.39"/></clipPath><linearGradient id="linear-gradient-5" x1="3107.67" y1="367.7" x2="3108.51" y2="367.7" gradientTransform="matrix(421.15, 0, 0, -421.15, -1308729.18, 154957.28)" xlink:href="#linear-gradient"/><clipPath id="clip-path-11"><polygon class="cls-1" points="72.77 163.93 76.1 171.43 185.05 21.74 176.88 20.88 72.77 163.93"/></clipPath><linearGradient id="linear-gradient-6" x1="3107.67" y1="367.72" x2="3108.51" y2="367.72" gradientTransform="matrix(421.15, 0, 0, -421.15, -1308730.15, 154958.53)" xlink:href="#linear-gradient"/><clipPath id="clip-path-12"><polygon class="cls-1" points="65.9 148.46 69.23 155.97 168.22 19.96 160.05 19.09 65.9 148.46"/></clipPath><linearGradient id="linear-gradient-7" x1="3107.67" y1="367.74" x2="3108.51" y2="367.74" gradientTransform="matrix(421.15, 0, 0, -421.15, -1308731.13, 154959.7)" xlink:href="#linear-gradient"/><clipPath id="clip-path-13"><polygon class="cls-1" points="59.03 133 62.36 140.5 151.39 18.17 143.22 17.31 59.03 133"/></clipPath><linearGradient id="linear-gradient-8" x1="3107.67" y1="367.77" x2="3108.51" y2="367.77" gradientTransform="matrix(421.15, 0, 0, -421.15, -1308732.11, 154960.85)" xlink:href="#linear-gradient"/><clipPath id="clip-path-14"><polygon class="cls-1" points="52.16 117.53 55.49 125.04 134.56 16.39 126.4 15.53 52.16 117.53"/></clipPath><linearGradient id="linear-gradient-9" x1="3107.67" y1="367.79" x2="3108.51" y2="367.79" gradientTransform="matrix(421.15, 0, 0, -421.15, -1308733.07, 154962.15)" xlink:href="#linear-gradient"/><clipPath id="clip-path-15"><polygon class="cls-1" points="45.29 102.07 48.62 109.57 117.74 14.61 109.57 13.74 45.29 102.07"/></clipPath><linearGradient id="linear-gradient-10" x1="3107.67" y1="367.81" x2="3108.51" y2="367.81" gradientTransform="matrix(421.15, 0, 0, -421.15, -1308734.05, 154963.36)" xlink:href="#linear-gradient"/><clipPath id="clip-path-16"><polygon class="cls-1" points="38.42 86.6 41.75 94.11 100.91 12.83 92.74 11.96 38.42 86.6"/></clipPath><linearGradient id="linear-gradient-11" x1="3107.67" y1="367.84" x2="3108.51" y2="367.84" gradientTransform="matrix(421.15, 0, 0, -421.15, -1308735.06, 154964.24)" xlink:href="#linear-gradient"/><clipPath id="clip-path-17"><polygon class="cls-1" points="31.55 71.14 34.88 78.64 84.08 11.04 75.91 10.18 31.55 71.14"/></clipPath><linearGradient id="linear-gradient-12" x1="3107.67" y1="367.86" x2="3108.51" y2="367.86" gradientTransform="matrix(421.15, 0, 0, -421.15, -1308735.99, 154965.79)" xlink:href="#linear-gradient"/><clipPath id="clip-path-18"><polygon class="cls-1" points="24.68 55.67 28.01 63.18 67.25 9.26 59.08 8.39 24.68 55.67"/></clipPath><linearGradient id="linear-gradient-13" x1="3107.67" y1="367.88" x2="3108.51" y2="367.88" gradientTransform="matrix(421.15, 0, 0, -421.15, -1308736.95, 154967.12)" xlink:href="#linear-gradient"/><clipPath id="clip-path-19"><polygon class="cls-1" points="17.81 40.21 21.14 47.71 50.42 7.48 42.26 6.61 17.81 40.21"/></clipPath><linearGradient id="linear-gradient-14" x1="3107.67" y1="367.91" x2="3108.51" y2="367.91" gradientTransform="matrix(421.15, 0, 0, -421.15, -1308738.01, 154967.67)" xlink:href="#linear-gradient"/><clipPath id="clip-path-20"><polygon class="cls-1" points="10.94 24.74 14.27 32.25 33.6 5.7 25.43 4.83 10.94 24.74"/></clipPath><linearGradient id="linear-gradient-15" x1="3107.67" y1="367.93" x2="3108.51" y2="367.93" gradientTransform="matrix(421.15, 0, 0, -421.15, -1308738.87, 154969.78)" xlink:href="#linear-gradient"/><clipPath id="clip-path-21"><polygon class="cls-1" points="4.07 9.28 7.4 16.78 16.77 3.91 8.6 3.05 4.07 9.28"/></clipPath><linearGradient id="linear-gradient-16" x1="3107.67" y1="367.95" x2="3108.51" y2="367.95" gradientTransform="matrix(421.15, 0, 0, -421.15, -1308739.88, 154970.75)" xlink:href="#linear-gradient"/></defs><title>Монтажная область 12</title><g class="cls-2"><g id="layout"><g class="cls-3"><g class="cls-3"><g class="cls-4"><g class="cls-5"><g class="cls-6"><g class="cls-7"><rect class="cls-8" x="3.16" y="9.39" width="349.91" height="280.72" transform="translate(-14.8 19.62) rotate(-6.05)"/></g></g><g class="cls-6"><g class="cls-9"><rect class="cls-10" x="-8.69" y="0.76" width="349.91" height="280.72" transform="translate(-13.95 18.32) rotate(-6.05)"/></g></g><g class="cls-11"><rect class="cls-12" x="54.46" y="31.58" width="221.54" height="178.63" transform="translate(-11.83 18.1) rotate(-6.05)"/></g><g class="cls-13"><rect class="cls-14" x="50.51" y="29.24" width="205.75" height="166.07" transform="translate(-10.98 16.8) rotate(-6.05)"/></g><g class="cls-15"><rect class="cls-16" x="46.55" y="26.89" width="189.96" height="153.52" transform="translate(-10.14 15.5) rotate(-6.05)"/></g><g class="cls-17"><rect class="cls-18" x="42.6" y="24.55" width="174.18" height="140.96" transform="translate(-9.3 14.2) rotate(-6.05)"/></g><g class="cls-19"><rect class="cls-20" x="38.64" y="22.2" width="158.39" height="128.4" transform="translate(-8.45 12.91) rotate(-6.05)"/></g><g class="cls-21"><rect class="cls-22" x="34.68" y="19.85" width="142.6" height="115.85" transform="translate(-7.61 11.61) rotate(-6.05)"/></g><g class="cls-23"><rect class="cls-24" x="30.73" y="17.51" width="126.81" height="103.29" transform="translate(-6.77 10.31) rotate(-6.05)"/></g><g class="cls-25"><rect class="cls-26" x="26.77" y="15.16" width="111.02" height="90.74" transform="matrix(0.99, -0.11, 0.11, 0.99, -5.92, 9.01)"/></g><g class="cls-27"><rect class="cls-28" x="22.82" y="12.82" width="95.24" height="78.18" transform="translate(-5.08 7.72) rotate(-6.05)"/></g><g class="cls-29"><rect class="cls-30" x="18.86" y="10.47" width="79.45" height="65.62" transform="translate(-4.24 6.42) rotate(-6.05)"/></g><g class="cls-31"><rect class="cls-32" x="14.91" y="8.13" width="63.66" height="53.07" transform="translate(-3.39 5.12) rotate(-6.05)"/></g><g class="cls-33"><rect class="cls-34" x="10.95" y="5.78" width="47.87" height="40.51" transform="translate(-2.55 3.82) rotate(-6.05)"/></g><g class="cls-35"><rect class="cls-36" x="7" y="3.43" width="32.09" height="27.96" transform="matrix(0.99, -0.11, 0.11, 0.99, -1.71, 2.53)"/></g><g class="cls-37"><rect class="cls-38" x="3.04" y="1.09" width="16.3" height="15.4" transform="translate(-0.86 1.23) rotate(-6.05)"/></g></g></g></g></g></g></g></svg>