<svg xmlns="http://www.w3.org/2000/svg" xmlns:xlink="http://www.w3.org/1999/xlink" viewBox="0 0 233 257"><defs><style>.cls-1{fill:none;}.cls-2{isolation:isolate;}.cls-3{clip-path:url(#clip-path);}.cls-4{mix-blend-mode:overlay;}.cls-5{clip-path:url(#clip-path-3);}.cls-6{clip-path:url(#clip-path-4);}.cls-7{clip-path:url(#clip-path-5);}.cls-8{fill:url(#linear-gradient);}.cls-9{clip-path:url(#clip-path-6);}.cls-10{fill:url(#linear-gradient-2);}.cls-11{clip-path:url(#clip-path-7);}.cls-12{fill:url(#linear-gradient-3);}.cls-13{clip-path:url(#clip-path-8);}.cls-14{fill:url(#linear-gradient-4);}.cls-15{clip-path:url(#clip-path-9);}.cls-16{fill:url(#linear-gradient-5);}.cls-17{clip-path:url(#clip-path-10);}.cls-18{fill:url(#linear-gradient-6);}.cls-19{clip-path:url(#clip-path-11);}.cls-20{fill:url(#linear-gradient-7);}.cls-21{clip-path:url(#clip-path-12);}.cls-22{fill:url(#linear-gradient-8);}.cls-23{clip-path:url(#clip-path-13);}.cls-24{fill:url(#linear-gradient-9);}.cls-25{clip-path:url(#clip-path-14);}.cls-26{fill:url(#linear-gradient-10);}.cls-27{clip-path:url(#clip-path-15);}.cls-28{fill:url(#linear-gradient-11);}.cls-29{clip-path:url(#clip-path-16);}.cls-30{fill:url(#linear-gradient-12);}.cls-31{clip-path:url(#clip-path-17);}.cls-32{fill:url(#linear-gradient-13);}.cls-33{clip-path:url(#clip-path-18);}.cls-34{fill:url(#linear-gradient-14);}.cls-35{clip-path:url(#clip-path-19);}.cls-36{fill:url(#linear-gradient-15);}</style><clipPath id="clip-path"><rect class="cls-1" x="-7.05" y="5.17" width="234.66" height="260.45" transform="translate(-8.23 7.15) rotate(-3.58)"/></clipPath><clipPath id="clip-path-3"><rect class="cls-1" x="-17.86" y="-7.45" width="256.1" height="300.95" transform="translate(-8.71 7.16) rotate(-3.58)"/></clipPath><clipPath id="clip-path-4"><polygon class="cls-1" points="-5.76 158.49 235.5 258.04 201.1 -0.6 200.81 -0.56 -5.78 158.41 -5.76 158.49"/></clipPath><clipPath id="clip-path-5"><rect class="cls-1" x="226" y="-58.38" width="7.78" height="404.09" transform="matrix(0.99, -0.13, 0.13, 0.99, -16.94, 31.57)"/></clipPath><linearGradient id="linear-gradient" x1="3077.77" y1="798.06" x2="3079.1" y2="798.06" gradientTransform="matrix(289.95, 0, 0, -289.95, -892297.75, 231543.13)" gradientUnits="userSpaceOnUse"><stop offset="0" stop-color="#00aced"/><stop offset="0.5" stop-color="#2b2a68"/><stop offset="0.99" stop-color="#aa2e8d"/><stop offset="1" stop-color="#aa2e8d"/></linearGradient><clipPath id="clip-path-6"><polygon class="cls-1" points="224.41 253.46 232.71 256.89 198.68 1.08 191.56 6.56 224.41 253.46"/></clipPath><linearGradient id="linear-gradient-2" x1="3077.77" y1="798.14" x2="3079.1" y2="798.14" gradientTransform="matrix(289.95, 0, 0, -289.95, -892315.1, 231551.65)" xlink:href="#linear-gradient"/><clipPath id="clip-path-7"><polygon class="cls-1" points="207.29 246.4 215.6 249.83 184.01 12.37 176.89 17.85 207.29 246.4"/></clipPath><linearGradient id="linear-gradient-3" x1="3077.77" y1="798.18" x2="3079.1" y2="798.18" gradientTransform="matrix(289.95, 0, 0, -289.95, -892319.09, 231564.53)" xlink:href="#linear-gradient"/><clipPath id="clip-path-8"><polygon class="cls-1" points="190.18 239.34 198.49 242.77 169.34 23.66 162.22 29.14 190.18 239.34"/></clipPath><linearGradient id="linear-gradient-4" x1="3077.77" y1="798.21" x2="3079.1" y2="798.21" gradientTransform="matrix(289.95, 0, 0, -289.95, -892323.09, 231577.38)" xlink:href="#linear-gradient"/><clipPath id="clip-path-9"><polygon class="cls-1" points="173.07 232.28 181.38 235.71 154.67 34.95 147.55 40.43 173.07 232.28"/></clipPath><linearGradient id="linear-gradient-5" x1="3077.77" y1="798.25" x2="3079.1" y2="798.25" gradientTransform="matrix(289.95, 0, 0, -289.95, -892327.11, 231590.14)" xlink:href="#linear-gradient"/><clipPath id="clip-path-10"><polygon class="cls-1" points="155.96 225.22 164.26 228.65 140 46.24 132.88 51.72 155.96 225.22"/></clipPath><linearGradient id="linear-gradient-6" x1="3077.77" y1="798.29" x2="3079.1" y2="798.29" gradientTransform="matrix(289.95, 0, 0, -289.95, -892331.07, 231603.16)" xlink:href="#linear-gradient"/><clipPath id="clip-path-11"><polygon class="cls-1" points="138.84 218.16 147.15 221.59 125.33 57.53 118.2 63.01 138.84 218.16"/></clipPath><linearGradient id="linear-gradient-7" x1="3077.77" y1="798.33" x2="3079.1" y2="798.33" gradientTransform="matrix(289.95, 0, 0, -289.95, -892335.08, 231615.96)" xlink:href="#linear-gradient"/><clipPath id="clip-path-12"><polygon class="cls-1" points="121.73 211.1 130.04 214.53 110.66 68.82 103.53 74.3 121.73 211.1"/></clipPath><linearGradient id="linear-gradient-8" x1="3077.77" y1="798.36" x2="3079.1" y2="798.36" gradientTransform="matrix(289.95, 0, 0, -289.95, -892339.08, 231628.8)" xlink:href="#linear-gradient"/><clipPath id="clip-path-13"><polygon class="cls-1" points="104.62 204.04 112.93 207.47 95.98 80.11 88.86 85.58 104.62 204.04"/></clipPath><linearGradient id="linear-gradient-9" x1="3077.77" y1="798.4" x2="3079.1" y2="798.4" gradientTransform="matrix(289.95, 0, 0, -289.95, -892343.06, 231641.73)" xlink:href="#linear-gradient"/><clipPath id="clip-path-14"><polygon class="cls-1" points="87.51 196.98 95.82 200.4 81.31 91.39 74.19 96.87 87.51 196.98"/></clipPath><linearGradient id="linear-gradient-10" x1="3077.77" y1="798.44" x2="3079.1" y2="798.44" gradientTransform="matrix(289.95, 0, 0, -289.95, -892347.1, 231654.43)" xlink:href="#linear-gradient"/><clipPath id="clip-path-15"><polygon class="cls-1" points="70.4 189.92 78.7 193.34 66.64 102.68 59.52 108.16 70.4 189.92"/></clipPath><linearGradient id="linear-gradient-11" x1="3077.77" y1="798.47" x2="3079.1" y2="798.47" gradientTransform="matrix(289.95, 0, 0, -289.95, -892351.1, 231667.27)" xlink:href="#linear-gradient"/><clipPath id="clip-path-16"><polygon class="cls-1" points="53.29 182.86 61.59 186.28 51.97 113.97 44.85 119.45 53.29 182.86"/></clipPath><linearGradient id="linear-gradient-12" x1="3077.77" y1="798.51" x2="3079.1" y2="798.51" gradientTransform="matrix(289.95, 0, 0, -289.95, -892355.11, 231680.07)" xlink:href="#linear-gradient"/><clipPath id="clip-path-17"><polygon class="cls-1" points="36.17 175.79 44.48 179.22 37.3 125.26 30.18 130.74 36.17 175.79"/></clipPath><linearGradient id="linear-gradient-13" x1="3077.77" y1="798.55" x2="3079.1" y2="798.55" gradientTransform="matrix(289.95, 0, 0, -289.95, -892359.02, 231693.3)" xlink:href="#linear-gradient"/><clipPath id="clip-path-18"><polygon class="cls-1" points="19.06 168.73 27.37 172.16 22.63 136.55 15.51 142.03 19.06 168.73"/></clipPath><linearGradient id="linear-gradient-14" x1="3077.77" y1="798.59" x2="3079.1" y2="798.59" gradientTransform="matrix(289.95, 0, 0, -289.95, -892363.12, 231705.73)" xlink:href="#linear-gradient"/><clipPath id="clip-path-19"><polygon class="cls-1" points="1.95 161.67 10.26 165.1 7.96 147.84 0.84 153.32 1.95 161.67"/></clipPath><linearGradient id="linear-gradient-15" x1="3077.77" y1="798.62" x2="3079.1" y2="798.62" gradientTransform="matrix(289.95, 0, 0, -289.95, -892367.02, 231718.99)" xlink:href="#linear-gradient"/></defs><title>Монтажная область 11</title><g class="cls-2"><g id="layout"><g class="cls-3"><g class="cls-3"><g class="cls-4"><g class="cls-5"><g class="cls-6"><g class="cls-7"><rect class="cls-8" x="72.01" y="-9.24" width="315.78" height="305.79" transform="translate(-28.4 225.98) rotate(-49.68)"/></g></g><g class="cls-9"><rect class="cls-10" x="110.41" y="30.8" width="203.14" height="196.84" transform="translate(-23.71 207.22) rotate(-49.68)"/></g><g class="cls-11"><rect class="cls-12" x="101.62" y="39.78" width="188.94" height="183.11" transform="translate(-30.93 195.85) rotate(-49.68)"/></g><g class="cls-13"><rect class="cls-14" x="92.83" y="48.76" width="174.74" height="169.37" transform="translate(-38.15 184.48) rotate(-49.68)"/></g><g class="cls-15"><rect class="cls-16" x="84.04" y="57.74" width="160.54" height="155.64" transform="translate(-45.37 173.11) rotate(-49.68)"/></g><g class="cls-17"><rect class="cls-18" x="75.25" y="66.72" width="146.34" height="141.9" transform="translate(-52.59 161.74) rotate(-49.68)"/></g><g class="cls-19"><rect class="cls-20" x="66.45" y="75.71" width="132.13" height="128.17" transform="translate(-59.81 150.37) rotate(-49.68)"/></g><g class="cls-21"><rect class="cls-22" x="57.66" y="84.69" width="117.93" height="114.43" transform="translate(-67.03 139) rotate(-49.68)"/></g><g class="cls-23"><rect class="cls-24" x="48.87" y="93.67" width="103.73" height="100.7" transform="translate(-74.25 127.63) rotate(-49.68)"/></g><g class="cls-25"><rect class="cls-26" x="40.08" y="102.65" width="89.53" height="86.96" transform="translate(-81.47 116.26) rotate(-49.68)"/></g><g class="cls-27"><rect class="cls-28" x="31.29" y="111.63" width="75.33" height="73.23" transform="translate(-88.69 104.89) rotate(-49.68)"/></g><g class="cls-29"><rect class="cls-30" x="22.5" y="120.61" width="61.13" height="59.49" transform="translate(-95.91 93.52) rotate(-49.68)"/></g><g class="cls-31"><rect class="cls-32" x="13.71" y="129.59" width="46.93" height="45.76" transform="translate(-103.13 82.15) rotate(-49.68)"/></g><g class="cls-33"><rect class="cls-34" x="4.92" y="138.58" width="32.72" height="32.02" transform="translate(-110.35 70.78) rotate(-49.68)"/></g><g class="cls-35"><rect class="cls-36" x="-3.87" y="147.56" width="18.52" height="18.29" transform="translate(-117.57 59.41) rotate(-49.68)"/></g></g></g></g></g></g></g></svg>