<svg xmlns="http://www.w3.org/2000/svg" xmlns:xlink="http://www.w3.org/1999/xlink" viewBox="0 0 288 305"><defs><path id="a" transform="rotate(-20.633 223.135 -398.39)" d="M-27.4-625.3h501.1v453.6H-27.4z"/></defs><clipPath id="b"><use xlink:href="#a" overflow="visible"/></clipPath><g clip-path="url(#b)"><defs><path id="c" transform="rotate(-20.633 223.135 -398.39)" d="M-27.4-625.3h501.1v453.6H-27.4z"/></defs><clipPath id="d"><use xlink:href="#c" overflow="visible"/></clipPath><g opacity=".1" clip-path="url(#d)"><defs><path id="e" transform="rotate(-20.633 250.216 -516.007)" d="M-86.3-863.6h673.1v695H-86.3z"/></defs><clipPath id="f"><use xlink:href="#e" overflow="visible"/></clipPath><g clip-path="url(#f)"><defs><path id="g" d="M377.6-698.9L-77.3-485.5l412.1 287.1.3-.4 42.6-500z"/></defs><clipPath id="h"><use xlink:href="#g" overflow="visible"/></clipPath><g clip-path="url(#h)"><defs><path id="i" transform="rotate(-55.132 74.8 -319.564)" d="M67.3-708.5h15V69.4h-15z"/></defs><clipPath id="j"><use xlink:href="#i" overflow="visible"/></clipPath><linearGradient id="k" gradientUnits="userSpaceOnUse" x1="3380.863" y1="1177.232" x2="3382.633" y2="1177.232" gradientTransform="scale(421.145 -421.145) rotate(-82.769 1023.24 2507.721)"><stop offset="0" stop-color="#00adee"/><stop offset=".496" stop-color="#2b2a68"/><stop offset=".995" stop-color="#ab2e8e"/><stop offset="1" stop-color="#ab2e8e"/></linearGradient><path clip-path="url(#j)" fill="url(#k)" d="M321.7-722.3l92.7 731-586.5 74.4-92.7-731z"/></g></g><g clip-path="url(#f)"><defs><path id="l" d="M377.6-698.9L-77.3-485.5l412.1 287.1.3-.4 42.6-500z"/></defs><clipPath id="m"><use xlink:href="#l" overflow="visible"/></clipPath><g clip-path="url(#m)"><defs><path id="n" transform="rotate(-55.132 92.443 -344.884)" d="M85-733.9h15V44H85z"/></defs><clipPath id="o"><use xlink:href="#n" overflow="visible"/></clipPath><linearGradient id="p" gradientUnits="userSpaceOnUse" x1="3380.863" y1="1177.281" x2="3382.633" y2="1177.281" gradientTransform="scale(421.145 -421.145) rotate(-82.769 1023.24 2507.721)"><stop offset="0" stop-color="#00adee"/><stop offset=".496" stop-color="#2b2a68"/><stop offset=".995" stop-color="#ab2e8e"/><stop offset="1" stop-color="#ab2e8e"/></linearGradient><path clip-path="url(#o)" fill="url(#p)" d="M339.3-747.6l92.8 731-586.5 74.4-92.8-731z"/></g></g></g></g><defs><path id="q" transform="rotate(-17.679 105.098 125.041)" d="M-49.9-14.6h310v279.3h-310z"/></defs><clipPath id="r"><use xlink:href="#q" overflow="visible"/></clipPath><g clip-path="url(#r)"><defs><path id="s" transform="rotate(-17.679 105.098 125.041)" d="M-49.9-14.6h310v279.3h-310z"/></defs><clipPath id="t"><use xlink:href="#s" overflow="visible"/></clipPath><g clip-path="url(#t)"><defs><path id="u" transform="rotate(-17.679 96.272 127.159)" d="M-82.8-25.2h358.2v304.8H-82.8z"/></defs><clipPath id="v"><use xlink:href="#u" overflow="visible"/></clipPath><g clip-path="url(#v)"><defs><path id="w" d="M44.8-2.2l-45 307.4 288.6-114.7-.1-.3L44.9-2.2z"/></defs><clipPath id="x"><use xlink:href="#w" overflow="visible"/></clipPath><g clip-path="url(#x)"><defs><path id="y" transform="rotate(-21.678 130.247 265.52)" d="M-110.2 260.9h481v9.3h-481z"/></defs><clipPath id="z"><use xlink:href="#y" overflow="visible"/></clipPath><linearGradient id="A" gradientUnits="userSpaceOnUse" x1="3347.003" y1="1168.462" x2="3348.593" y2="1168.462" gradientTransform="scale(289.9518 -289.9518) rotate(-26.223 -836.289 7768.815)"><stop offset="0" stop-color="#00adee"/><stop offset=".496" stop-color="#2b2a68"/><stop offset=".995" stop-color="#ab2e8e"/><stop offset="1" stop-color="#ab2e8e"/></linearGradient><path clip-path="url(#z)" fill="url(#A)" d="M42.1 19.3l337.2 166-160.9 326.5-337.1-166z"/></g></g><g clip-path="url(#v)"><defs><path id="B" d="M1.9 291L.4 301.6l285.4-113.4-8.4-6.7z"/></defs><clipPath id="C"><use xlink:href="#B" overflow="visible"/></clipPath><linearGradient id="D" gradientUnits="userSpaceOnUse" x1="3347.003" y1="1168.556" x2="3348.593" y2="1168.556" gradientTransform="scale(289.9518 -289.9518) rotate(-26.223 -836.289 7768.815)"><stop offset="0" stop-color="#00adee"/><stop offset=".496" stop-color="#2b2a68"/><stop offset=".995" stop-color="#ab2e8e"/><stop offset="1" stop-color="#ab2e8e"/></linearGradient><path clip-path="url(#C)" fill="url(#D)" d="M85 82.2L301.9 189 198.4 399.2-18.5 292.3z"/></g><g clip-path="url(#v)"><defs><path id="E" d="M5.1 269.2l-1.5 10.6 264.9-105.3-8.4-6.6z"/></defs><clipPath id="F"><use xlink:href="#E" overflow="visible"/></clipPath><linearGradient id="G" gradientUnits="userSpaceOnUse" x1="3347.003" y1="1168.6" x2="3348.593" y2="1168.6" gradientTransform="scale(289.9518 -289.9518) rotate(-26.223 -836.289 7768.815)"><stop offset="0" stop-color="#00adee"/><stop offset=".496" stop-color="#2b2a68"/><stop offset=".995" stop-color="#ab2e8e"/><stop offset="1" stop-color="#ab2e8e"/></linearGradient><path clip-path="url(#F)" fill="url(#G)" d="M82 75.5l201.7 99.4-96.3 195.5L-14.3 271z"/></g><g clip-path="url(#v)"><defs><path id="H" d="M8.3 247.4L6.7 258l244.5-97.2-8.4-6.6z"/></defs><clipPath id="I"><use xlink:href="#H" overflow="visible"/></clipPath><linearGradient id="J" gradientUnits="userSpaceOnUse" x1="3347.003" y1="1168.644" x2="3348.593" y2="1168.644" gradientTransform="scale(289.9518 -289.9518) rotate(-26.223 -836.289 7768.815)"><stop offset="0" stop-color="#00adee"/><stop offset=".496" stop-color="#2b2a68"/><stop offset=".995" stop-color="#ab2e8e"/><stop offset="1" stop-color="#ab2e8e"/></linearGradient><path clip-path="url(#I)" fill="url(#J)" d="M78.9 68.8l186.6 91.9-89.1 180.9-186.6-91.9z"/></g><g clip-path="url(#v)"><defs><path id="K" d="M11.5 225.6l-1.6 10.6 224-89-8.3-6.7z"/></defs><clipPath id="L"><use xlink:href="#K" overflow="visible"/></clipPath><linearGradient id="M" gradientUnits="userSpaceOnUse" x1="3347.003" y1="1168.688" x2="3348.593" y2="1168.688" gradientTransform="scale(289.9518 -289.9518) rotate(-26.223 -836.289 7768.815)"><stop offset="0" stop-color="#00adee"/><stop offset=".496" stop-color="#2b2a68"/><stop offset=".995" stop-color="#ab2e8e"/><stop offset="1" stop-color="#ab2e8e"/></linearGradient><path clip-path="url(#L)" fill="url(#M)" d="M75.8 62.2l171.4 84.4-81.8 166.2L-6 228.4z"/></g><g clip-path="url(#v)"><defs><path id="N" d="M14.7 203.8l-1.6 10.6 203.6-80.9-8.4-6.6z"/></defs><clipPath id="O"><use xlink:href="#N" overflow="visible"/></clipPath><linearGradient id="P" gradientUnits="userSpaceOnUse" x1="3347.003" y1="1168.733" x2="3348.593" y2="1168.733" gradientTransform="scale(289.9518 -289.9518) rotate(-26.223 -836.289 7768.815)"><stop offset="0" stop-color="#00adee"/><stop offset=".496" stop-color="#2b2a68"/><stop offset=".995" stop-color="#ab2e8e"/><stop offset="1" stop-color="#ab2e8e"/></linearGradient><path clip-path="url(#O)" fill="url(#P)" d="M72.7 55.5l156.3 77L154.4 284-1.9 207z"/></g><g clip-path="url(#v)"><defs><path id="Q" d="M17.9 182l-1.6 10.6 183.1-72.7-8.4-6.7z"/></defs><clipPath id="R"><use xlink:href="#Q" overflow="visible"/></clipPath><linearGradient id="S" gradientUnits="userSpaceOnUse" x1="3347.003" y1="1168.777" x2="3348.593" y2="1168.777" gradientTransform="scale(289.9518 -289.9518) rotate(-26.223 -836.289 7768.815)"><stop offset="0" stop-color="#00adee"/><stop offset=".496" stop-color="#2b2a68"/><stop offset=".995" stop-color="#ab2e8e"/><stop offset="1" stop-color="#ab2e8e"/></linearGradient><path clip-path="url(#R)" fill="url(#S)" d="M69.7 48.8l141 69.5-67.4 136.9-141-69.5z"/></g><g clip-path="url(#v)"><defs><path id="T" d="M21 160.2l-1.5 10.6 162.6-64.6-8.4-6.6z"/></defs><clipPath id="U"><use xlink:href="#T" overflow="visible"/></clipPath><linearGradient id="V" gradientUnits="userSpaceOnUse" x1="3347.003" y1="1168.821" x2="3348.593" y2="1168.821" gradientTransform="scale(289.9518 -289.9518) rotate(-26.223 -836.289 7768.815)"><stop offset="0" stop-color="#00adee"/><stop offset=".496" stop-color="#2b2a68"/><stop offset=".995" stop-color="#ab2e8e"/><stop offset="1" stop-color="#ab2e8e"/></linearGradient><path clip-path="url(#U)" fill="url(#V)" d="M66.6 42.2l125.9 62-60.2 122.2-125.9-62z"/></g><g clip-path="url(#v)"><defs><path id="W" d="M24.2 138.4L22.7 149l142.1-56.5-8.4-6.6z"/></defs><clipPath id="X"><use xlink:href="#W" overflow="visible"/></clipPath><linearGradient id="Y" gradientUnits="userSpaceOnUse" x1="3347.003" y1="1168.865" x2="3348.593" y2="1168.865" gradientTransform="scale(289.9518 -289.9518) rotate(-26.223 -836.289 7768.815)"><stop offset="0" stop-color="#00adee"/><stop offset=".496" stop-color="#2b2a68"/><stop offset=".995" stop-color="#ab2e8e"/><stop offset="1" stop-color="#ab2e8e"/></linearGradient><path clip-path="url(#X)" fill="url(#Y)" d="M63.5 35.5l110.8 54.6-53 107.5L10.5 143z"/></g><g clip-path="url(#v)"><defs><path id="Z" d="M27.4 116.6l-1.5 10.6 121.6-48.3-8.4-6.7z"/></defs><clipPath id="aa"><use xlink:href="#Z" overflow="visible"/></clipPath><linearGradient id="ab" gradientUnits="userSpaceOnUse" x1="3347.003" y1="1168.909" x2="3348.593" y2="1168.909" gradientTransform="scale(289.9518 -289.9518) rotate(-26.223 -836.289 7768.815)"><stop offset="0" stop-color="#00adee"/><stop offset=".496" stop-color="#2b2a68"/><stop offset=".995" stop-color="#ab2e8e"/><stop offset="1" stop-color="#ab2e8e"/></linearGradient><path clip-path="url(#aa)" fill="url(#ab)" d="M60.4 28.8L156 75.9l-45.7 92.9-95.6-47.1z"/></g><g clip-path="url(#v)"><defs><path id="ac" d="M30.6 94.8l-1.5 10.6 101.1-40.2-8.4-6.6z"/></defs><clipPath id="ad"><use xlink:href="#ac" overflow="visible"/></clipPath><linearGradient id="ae" gradientUnits="userSpaceOnUse" x1="3347.003" y1="1168.953" x2="3348.593" y2="1168.953" gradientTransform="scale(289.9518 -289.9518) rotate(-26.223 -836.289 7768.815)"><stop offset="0" stop-color="#00adee"/><stop offset=".496" stop-color="#2b2a68"/><stop offset=".995" stop-color="#ab2e8e"/><stop offset="1" stop-color="#ab2e8e"/></linearGradient><path clip-path="url(#ad)" fill="url(#ae)" d="M57.3 22.2l80.5 39.6L99.3 140l-80.5-39.6z"/></g><g clip-path="url(#v)"><defs><path id="af" d="M33.8 73l-1.5 10.6 80.6-32.1-8.3-6.6z"/></defs><clipPath id="ag"><use xlink:href="#af" overflow="visible"/></clipPath><linearGradient id="ah" gradientUnits="userSpaceOnUse" x1="3347.003" y1="1168.997" x2="3348.593" y2="1168.997" gradientTransform="scale(289.9518 -289.9518) rotate(-26.223 -836.289 7768.815)"><stop offset="0" stop-color="#00adee"/><stop offset=".496" stop-color="#2b2a68"/><stop offset=".995" stop-color="#ab2e8e"/><stop offset="1" stop-color="#ab2e8e"/></linearGradient><path clip-path="url(#ag)" fill="url(#ah)" d="M54.3 15.5l65.2 32.2-31.3 63.5L23 79z"/></g><g clip-path="url(#v)"><defs><path id="ai" d="M37 51.2l-1.6 10.6 60.3-23.9-8.4-6.7z"/></defs><clipPath id="aj"><use xlink:href="#ai" overflow="visible"/></clipPath><linearGradient id="ak" gradientUnits="userSpaceOnUse" x1="3347.003" y1="1169.041" x2="3348.593" y2="1169.041" gradientTransform="scale(289.9518 -289.9518) rotate(-26.223 -836.289 7768.815)"><stop offset="0" stop-color="#00adee"/><stop offset=".496" stop-color="#2b2a68"/><stop offset=".995" stop-color="#ab2e8e"/><stop offset="1" stop-color="#ab2e8e"/></linearGradient><path clip-path="url(#aj)" fill="url(#ak)" d="M51.2 8.9l50.1 24.6-24.1 48.9-50.1-24.7z"/></g><g clip-path="url(#v)"><defs><path id="al" d="M40.2 29.4L38.6 40l39.8-15.8-8.4-6.6z"/></defs><clipPath id="am"><use xlink:href="#al" overflow="visible"/></clipPath><linearGradient id="an" gradientUnits="userSpaceOnUse" x1="3347.003" y1="1169.086" x2="3348.593" y2="1169.086" gradientTransform="scale(289.9518 -289.9518) rotate(-26.223 -836.289 7768.815)"><stop offset="0" stop-color="#00adee"/><stop offset=".496" stop-color="#2b2a68"/><stop offset=".995" stop-color="#ab2e8e"/><stop offset="1" stop-color="#ab2e8e"/></linearGradient><path clip-path="url(#am)" fill="url(#an)" d="M48.1 2.2l35 17.2-16.9 34.2-34.9-17.2z"/></g><g clip-path="url(#v)"><defs><path id="ao" d="M43.4 7.6l-1.6 10.6 19.3-7.6-8.4-6.7z"/></defs><clipPath id="ap"><use xlink:href="#ao" overflow="visible"/></clipPath><linearGradient id="aq" gradientUnits="userSpaceOnUse" x1="3347.003" y1="1169.13" x2="3348.593" y2="1169.13" gradientTransform="scale(289.9518 -289.9518) rotate(-26.223 -836.289 7768.815)"><stop offset="0" stop-color="#00adee"/><stop offset=".496" stop-color="#2b2a68"/><stop offset=".995" stop-color="#ab2e8e"/><stop offset="1" stop-color="#ab2e8e"/></linearGradient><path clip-path="url(#ap)" fill="url(#aq)" d="M45-4.5l19.8 9.8-9.6 19.5-19.8-9.7z"/></g></g></g></svg>