<svg xmlns="http://www.w3.org/2000/svg" xmlns:xlink="http://www.w3.org/1999/xlink" viewBox="0 0 313 323" class="mdl-js"><defs><path id="a" transform="rotate(-37.392 106.03 104.272)" d="M-61.4-46.6h334.8v301.7H-61.4z"/></defs><clipPath id="b"><use xlink:href="#a" overflow="visible"/></clipPath><g clip-path="url(#b)"><defs><path id="c" transform="rotate(-37.392 106.03 104.272)" d="M-61.4-46.6h334.8v301.7H-61.4z"/></defs><clipPath id="d"><use xlink:href="#c" overflow="visible"/></clipPath><g clip-path="url(#d)"><defs><path id="e" transform="rotate(-37.392 97.827 109.644)" d="M-95.6-55h386.9v329.2H-95.6z"/></defs><clipPath id="f"><use xlink:href="#e" overflow="visible"/></clipPath><g clip-path="url(#f)"><defs><path id="g" d="M-1.7-3.1l66.3 328.9L316.2 104l-.2-.3L-1.6-3.2z"/></defs><clipPath id="h"><use xlink:href="#g" overflow="visible"/></clipPath><g clip-path="url(#h)"><defs><path id="i" transform="rotate(-41.396 182.77 237.931)" d="M-77 232.9h519.5v10H-77z"/></defs><clipPath id="j"><use xlink:href="#i" overflow="visible"/></clipPath><linearGradient id="k" gradientUnits="userSpaceOnUse" x1="4147.898" y1="258.758" x2="4149.616" y2="258.758" gradientTransform="scale(289.9518 -289.9518) rotate(-6.503 -209.911 36632.271)"><stop offset="0" stop-color="#00adee"/><stop offset=".496" stop-color="#2b2a68"/><stop offset=".995" stop-color="#ab2e8e"/><stop offset="1" stop-color="#ab2e8e"/></linearGradient><path clip-path="url(#j)" fill="url(#k)" d="M3.4 19.7l403.3 45.9-44.5 390.6-403.4-46z"/></g></g><g clip-path="url(#f)"><defs><path id="l" d="M61.6 310.6l2.3 11.4 248.8-219.4-10.9-3.7z"/></defs><clipPath id="m"><use xlink:href="#l" overflow="visible"/></clipPath><linearGradient id="n" gradientUnits="userSpaceOnUse" x1="4147.898" y1="258.86" x2="4149.616" y2="258.86" gradientTransform="scale(289.9518 -289.9518) rotate(-6.503 -209.911 36632.271)"><stop offset="0" stop-color="#00adee"/><stop offset=".496" stop-color="#2b2a68"/><stop offset=".995" stop-color="#ab2e8e"/><stop offset="1" stop-color="#ab2e8e"/></linearGradient><path clip-path="url(#m)" fill="url(#n)" d="M70 68l259.4 29.6L300.8 349 41.3 319.4z"/></g><g clip-path="url(#f)"><defs><path id="o" d="M56.9 287.3l2.3 11.3L290.2 95l-11-3.7z"/></defs><clipPath id="p"><use xlink:href="#o" overflow="visible"/></clipPath><linearGradient id="q" gradientUnits="userSpaceOnUse" x1="4147.898" y1="258.907" x2="4149.616" y2="258.907" gradientTransform="scale(289.9518 -289.9518) rotate(-6.503 -209.911 36632.271)"><stop offset="0" stop-color="#00adee"/><stop offset=".496" stop-color="#2b2a68"/><stop offset=".995" stop-color="#ab2e8e"/><stop offset="1" stop-color="#ab2e8e"/></linearGradient><path clip-path="url(#p)" fill="url(#q)" d="M64.4 62.3l241.4 27.5-26.7 233.9-241.3-27.5z"/></g><g clip-path="url(#f)"><defs><path id="r" d="M52.2 264l2.3 11.3L267.6 87.4l-10.9-3.7z"/></defs><clipPath id="s"><use xlink:href="#r" overflow="visible"/></clipPath><linearGradient id="t" gradientUnits="userSpaceOnUse" x1="4147.898" y1="258.955" x2="4149.616" y2="258.955" gradientTransform="scale(289.9518 -289.9518) rotate(-6.503 -209.911 36632.271)"><stop offset="0" stop-color="#00adee"/><stop offset=".496" stop-color="#2b2a68"/><stop offset=".995" stop-color="#ab2e8e"/><stop offset="1" stop-color="#ab2e8e"/></linearGradient><path clip-path="url(#s)" fill="url(#t)" d="M58.9 56.7l223.2 25.4-24.7 216.3L34.2 273z"/></g><g clip-path="url(#f)"><defs><path id="u" d="M47.5 240.7l2.2 11.3L245.1 79.8l-11-3.7z"/></defs><clipPath id="v"><use xlink:href="#u" overflow="visible"/></clipPath><linearGradient id="w" gradientUnits="userSpaceOnUse" x1="4147.898" y1="259.003" x2="4149.616" y2="259.003" gradientTransform="scale(289.9518 -289.9518) rotate(-6.503 -209.911 36632.271)"><stop offset="0" stop-color="#00adee"/><stop offset=".496" stop-color="#2b2a68"/><stop offset=".995" stop-color="#ab2e8e"/><stop offset="1" stop-color="#ab2e8e"/></linearGradient><path clip-path="url(#v)" fill="url(#w)" d="M53.3 51l205.1 23.4-22.7 198.8-205.1-23.4z"/></g><g clip-path="url(#f)"><defs><path id="x" d="M42.8 217.3l2.2 11.4L222.5 72.2l-10.9-3.7z"/></defs><clipPath id="y"><use xlink:href="#x" overflow="visible"/></clipPath><linearGradient id="z" gradientUnits="userSpaceOnUse" x1="4147.898" y1="259.05" x2="4149.616" y2="259.05" gradientTransform="scale(289.9518 -289.9518) rotate(-6.503 -209.911 36632.271)"><stop offset="0" stop-color="#00adee"/><stop offset=".496" stop-color="#2b2a68"/><stop offset=".995" stop-color="#ab2e8e"/><stop offset="1" stop-color="#ab2e8e"/></linearGradient><path clip-path="url(#y)" fill="url(#z)" d="M47.7 45.4l187 21.3L214 247.9 27.1 226.6z"/></g><g clip-path="url(#f)"><defs><path id="A" d="M38.1 194l2.2 11.3L200 64.6l-11-3.7z"/></defs><clipPath id="B"><use xlink:href="#A" overflow="visible"/></clipPath><linearGradient id="C" gradientUnits="userSpaceOnUse" x1="4147.898" y1="259.098" x2="4149.616" y2="259.098" gradientTransform="scale(289.9518 -289.9518) rotate(-6.503 -209.911 36632.271)"><stop offset="0" stop-color="#00adee"/><stop offset=".496" stop-color="#2b2a68"/><stop offset=".995" stop-color="#ab2e8e"/><stop offset="1" stop-color="#ab2e8e"/></linearGradient><path clip-path="url(#B)" fill="url(#C)" d="M42.2 39.7L211 58.9l-18.7 163.7-168.8-19.2z"/></g><g clip-path="url(#f)"><defs><path id="D" d="M33.4 170.7l2.2 11.3L177.4 57l-10.9-3.6z"/></defs><clipPath id="E"><use xlink:href="#D" overflow="visible"/></clipPath><linearGradient id="F" gradientUnits="userSpaceOnUse" x1="4147.898" y1="259.146" x2="4149.616" y2="259.146" gradientTransform="scale(289.9518 -289.9518) rotate(-6.503 -209.911 36632.271)"><stop offset="0" stop-color="#00adee"/><stop offset=".496" stop-color="#2b2a68"/><stop offset=".995" stop-color="#ab2e8e"/><stop offset="1" stop-color="#ab2e8e"/></linearGradient><path clip-path="url(#E)" fill="url(#F)" d="M36.6 34l150.7 17.2-16.7 146.2L20 180.2z"/></g><g clip-path="url(#f)"><defs><path id="G" d="M28.7 147.3l2.2 11.4L154.8 49.4l-10.9-3.6z"/></defs><clipPath id="H"><use xlink:href="#G" overflow="visible"/></clipPath><linearGradient id="I" gradientUnits="userSpaceOnUse" x1="4147.898" y1="259.193" x2="4149.616" y2="259.193" gradientTransform="scale(289.9518 -289.9518) rotate(-6.503 -209.911 36632.271)"><stop offset="0" stop-color="#00adee"/><stop offset=".496" stop-color="#2b2a68"/><stop offset=".995" stop-color="#ab2e8e"/><stop offset="1" stop-color="#ab2e8e"/></linearGradient><path clip-path="url(#H)" fill="url(#I)" d="M31.1 28.4l132.5 15.1-14.7 128.6L16.4 157z"/></g><g clip-path="url(#f)"><defs><path id="J" d="M24 124l2.2 11.3 106.1-93.4-11-3.7z"/></defs><clipPath id="K"><use xlink:href="#J" overflow="visible"/></clipPath><linearGradient id="L" gradientUnits="userSpaceOnUse" x1="4147.898" y1="259.241" x2="4149.616" y2="259.241" gradientTransform="scale(289.9518 -289.9518) rotate(-6.503 -209.911 36632.271)"><stop offset="0" stop-color="#00adee"/><stop offset=".496" stop-color="#2b2a68"/><stop offset=".995" stop-color="#ab2e8e"/><stop offset="1" stop-color="#ab2e8e"/></linearGradient><path clip-path="url(#K)" fill="url(#L)" d="M25.5 22.7l114.4 13.1-12.7 111.1-114.4-13.1z"/></g><g clip-path="url(#f)"><defs><path id="M" d="M19.3 100.7l2.2 11.3 88.2-77.7-10.9-3.7z"/></defs><clipPath id="N"><use xlink:href="#M" overflow="visible"/></clipPath><linearGradient id="O" gradientUnits="userSpaceOnUse" x1="4147.898" y1="259.288" x2="4149.616" y2="259.288" gradientTransform="scale(289.9518 -289.9518) rotate(-6.503 -209.911 36632.271)"><stop offset="0" stop-color="#00adee"/><stop offset=".496" stop-color="#2b2a68"/><stop offset=".995" stop-color="#ab2e8e"/><stop offset="1" stop-color="#ab2e8e"/></linearGradient><path clip-path="url(#N)" fill="url(#O)" d="M19.9 17.1l96.3 11-10.7 93.5-96.2-11z"/></g><g clip-path="url(#f)"><defs><path id="P" d="M14.5 77.4l2.3 11.3 70.4-62-11-3.7z"/></defs><clipPath id="Q"><use xlink:href="#P" overflow="visible"/></clipPath><linearGradient id="R" gradientUnits="userSpaceOnUse" x1="4147.898" y1="259.336" x2="4149.616" y2="259.336" gradientTransform="scale(289.9518 -289.9518) rotate(-6.503 -209.911 36632.271)"><stop offset="0" stop-color="#00adee"/><stop offset=".496" stop-color="#2b2a68"/><stop offset=".995" stop-color="#ab2e8e"/><stop offset="1" stop-color="#ab2e8e"/></linearGradient><path clip-path="url(#Q)" fill="url(#R)" d="M14.4 11.4l78.1 8.9-8.7 76-78.1-8.9z"/></g><g clip-path="url(#f)"><defs><path id="S" d="M9.8 54l2.3 11.4 52.5-46.3-10.9-3.7z"/></defs><clipPath id="T"><use xlink:href="#S" overflow="visible"/></clipPath><linearGradient id="U" gradientUnits="userSpaceOnUse" x1="4147.898" y1="259.384" x2="4149.616" y2="259.384" gradientTransform="scale(289.9518 -289.9518) rotate(-6.503 -209.911 36632.271)"><stop offset="0" stop-color="#00adee"/><stop offset=".496" stop-color="#2b2a68"/><stop offset=".995" stop-color="#ab2e8e"/><stop offset="1" stop-color="#ab2e8e"/></linearGradient><path clip-path="url(#T)" fill="url(#U)" d="M8.8 5.8l60 6.8-6.7 58.5-59.9-6.9z"/></g><g clip-path="url(#f)"><defs><path id="V" d="M5.1 30.7L7.4 42l34.7-30.5-11-3.7z"/></defs><clipPath id="W"><use xlink:href="#V" overflow="visible"/></clipPath><linearGradient id="X" gradientUnits="userSpaceOnUse" x1="4147.898" y1="259.432" x2="4149.616" y2="259.432" gradientTransform="scale(289.9518 -289.9518) rotate(-6.503 -209.911 36632.271)"><stop offset="0" stop-color="#00adee"/><stop offset=".496" stop-color="#2b2a68"/><stop offset=".995" stop-color="#ab2e8e"/><stop offset="1" stop-color="#ab2e8e"/></linearGradient><path clip-path="url(#W)" fill="url(#X)" d="M3.3.1l41.8 4.8-4.7 40.9L-1.4 41z"/></g><g clip-path="url(#f)"><defs><path id="Y" d="M.4 7.4l2.3 11.3L19.5 3.9 8.6.2z"/></defs><clipPath id="Z"><use xlink:href="#Y" overflow="visible"/></clipPath><linearGradient id="aa" gradientUnits="userSpaceOnUse" x1="4147.898" y1="259.479" x2="4149.616" y2="259.479" gradientTransform="scale(289.9518 -289.9518) rotate(-6.503 -209.911 36632.271)"><stop offset="0" stop-color="#00adee"/><stop offset=".496" stop-color="#2b2a68"/><stop offset=".995" stop-color="#ab2e8e"/><stop offset="1" stop-color="#ab2e8e"/></linearGradient><path clip-path="url(#Z)" fill="url(#aa)" d="M-2.3-5.5l23.7 2.7-2.7 23.3-23.6-2.7z"/></g></g></g></svg>