<svg xmlns="http://www.w3.org/2000/svg" xmlns:xlink="http://www.w3.org/1999/xlink" viewBox="0 0 481 429"><defs><path id="a" transform="rotate(-23.94 182.853 294.391)" d="M-40.1 48.2h445.8v492.4H-40.1z"/></defs><clipPath id="b"><use xlink:href="#a" overflow="visible"/></clipPath><g clip-path="url(#b)"><defs><path id="c" transform="rotate(-23.94 182.853 294.391)" d="M-40.1 48.2h445.8v492.4H-40.1z"/></defs><clipPath id="d"><use xlink:href="#c" overflow="visible"/></clipPath><g opacity=".1" clip-path="url(#d)"><defs><path id="e" transform="rotate(-23.94 299.804 314.288)" d="M-41.7-16.5h683.1V645H-41.7z"/></defs><clipPath id="f"><use xlink:href="#e" overflow="visible"/></clipPath><g clip-path="url(#f)"><defs><path id="g" d="M486.4 428.8L251.3-5.4-7.1 415.3l.5.2L486.3 429z"/></defs><clipPath id="h"><use xlink:href="#g" overflow="visible"/></clipPath><g clip-path="url(#h)"><defs><path id="i" transform="rotate(-58.439 97.058 153.308)" d="M-285.2 145.9h764.5v14.7h-764.5z"/></defs><clipPath id="j"><use xlink:href="#i" overflow="visible"/></clipPath><linearGradient id="k" gradientUnits="userSpaceOnUse" x1="3701.319" y1="110.347" x2="3703.059" y2="110.347" gradientTransform="scale(-421.1451 421.1451) rotate(10.541 2446.971 -20010.738)"><stop offset="0" stop-color="#00adee"/><stop offset=".496" stop-color="#2b2a68"/><stop offset=".995" stop-color="#ab2e8e"/><stop offset="1" stop-color="#ab2e8e"/></linearGradient><path clip-path="url(#j)" fill="url(#k)" d="M506.2 372.7l-712 132.4L-312.1-66l712-132.5z"/></g></g><g clip-path="url(#f)"><defs><path id="l" d="M486.4 428.8L251.3-5.4-7.1 415.3l.5.2L486.3 429z"/></defs><clipPath id="m"><use xlink:href="#l" overflow="visible"/></clipPath><g clip-path="url(#m)"><defs><path id="n" transform="rotate(-58.439 122.904 169.182)" d="M-259.4 161.8h764.5v14.7h-764.5z"/></defs><clipPath id="o"><use xlink:href="#n" overflow="visible"/></clipPath><linearGradient id="p" gradientUnits="userSpaceOnUse" x1="3701.319" y1="110.395" x2="3703.059" y2="110.395" gradientTransform="scale(-421.1451 421.1451) rotate(10.541 2446.971 -20010.738)"><stop offset="0" stop-color="#00adee"/><stop offset=".496" stop-color="#2b2a68"/><stop offset=".995" stop-color="#ab2e8e"/><stop offset="1" stop-color="#ab2e8e"/></linearGradient><path clip-path="url(#o)" fill="url(#p)" d="M532 388.5L-179.9 521-286.2-50.2l711.9-132.4z"/></g></g><g clip-path="url(#f)"><defs><path id="q" d="M262.1 14.6L254-.3l-255.6 416 17 .4z"/></defs><clipPath id="r"><use xlink:href="#q" overflow="visible"/></clipPath><linearGradient id="s" gradientUnits="userSpaceOnUse" x1="3701.319" y1="110.495" x2="3703.059" y2="110.495" gradientTransform="scale(-421.1451 421.1451) rotate(10.541 2446.971 -20010.738)"><stop offset="0" stop-color="#00adee"/><stop offset=".496" stop-color="#2b2a68"/><stop offset=".995" stop-color="#ab2e8e"/><stop offset="1" stop-color="#ab2e8e"/></linearGradient><path clip-path="url(#r)" fill="url(#s)" d="M387.5 350.5l-450.8 83.9L-130.9 71l450.8-83.9z"/></g><g clip-path="url(#f)"><defs><path id="t" d="M278.8 45.4l-8.1-14.9L33.5 416.6l16.9.5z"/></defs><clipPath id="u"><use xlink:href="#t" overflow="visible"/></clipPath><linearGradient id="v" gradientUnits="userSpaceOnUse" x1="3701.319" y1="110.543" x2="3703.059" y2="110.543" gradientTransform="scale(-421.1451 421.1451) rotate(10.541 2446.971 -20010.738)"><stop offset="0" stop-color="#00adee"/><stop offset=".496" stop-color="#2b2a68"/><stop offset=".995" stop-color="#ab2e8e"/><stop offset="1" stop-color="#ab2e8e"/></linearGradient><path clip-path="url(#u)" fill="url(#v)" d="M394.9 356.6l-418.6 77.9-62.9-337.9L332 18.7z"/></g><g clip-path="url(#f)"><defs><path id="w" d="M295.4 76.2l-8.1-15L68.5 417.6l17 .5z"/></defs><clipPath id="x"><use xlink:href="#w" overflow="visible"/></clipPath><linearGradient id="y" gradientUnits="userSpaceOnUse" x1="3701.319" y1="110.591" x2="3703.059" y2="110.591" gradientTransform="scale(-421.1451 421.1451) rotate(10.541 2446.971 -20010.738)"><stop offset="0" stop-color="#00adee"/><stop offset=".496" stop-color="#2b2a68"/><stop offset=".995" stop-color="#ab2e8e"/><stop offset="1" stop-color="#ab2e8e"/></linearGradient><path clip-path="url(#x)" fill="url(#y)" d="M402.3 362.7L15.8 434.6l-58.1-312.3 386.5-71.9z"/></g><g clip-path="url(#f)"><defs><path id="z" d="M312.1 107L304 92 103.5 418.5l17 .5z"/></defs><clipPath id="A"><use xlink:href="#z" overflow="visible"/></clipPath><linearGradient id="B" gradientUnits="userSpaceOnUse" x1="3701.319" y1="110.64" x2="3703.059" y2="110.64" gradientTransform="scale(-421.1451 421.1451) rotate(10.541 2446.971 -20010.738)"><stop offset="0" stop-color="#00adee"/><stop offset=".496" stop-color="#2b2a68"/><stop offset=".995" stop-color="#ab2e8e"/><stop offset="1" stop-color="#ab2e8e"/></linearGradient><path clip-path="url(#A)" fill="url(#B)" d="M409.7 368.8L55.3 434.7 2 147.9 356.4 82z"/></g><g clip-path="url(#f)"><defs><path id="C" d="M328.8 137.8l-8.1-15-182.2 296.7 17 .5z"/></defs><clipPath id="D"><use xlink:href="#C" overflow="visible"/></clipPath><linearGradient id="E" gradientUnits="userSpaceOnUse" x1="3701.319" y1="110.688" x2="3703.059" y2="110.688" gradientTransform="scale(-421.1451 421.1451) rotate(10.541 2446.971 -20010.738)"><stop offset="0" stop-color="#00adee"/><stop offset=".496" stop-color="#2b2a68"/><stop offset=".995" stop-color="#ab2e8e"/><stop offset="1" stop-color="#ab2e8e"/></linearGradient><path clip-path="url(#D)" fill="url(#E)" d="M417.1 374.9l-322.2 60-48.7-261.3 322.3-60z"/></g><g clip-path="url(#f)"><defs><path id="F" d="M345.5 168.6l-8.1-15-163.9 266.8 17 .5z"/></defs><clipPath id="G"><use xlink:href="#F" overflow="visible"/></clipPath><linearGradient id="H" gradientUnits="userSpaceOnUse" x1="3701.319" y1="110.736" x2="3703.059" y2="110.736" gradientTransform="scale(-421.1451 421.1451) rotate(10.541 2446.971 -20010.738)"><stop offset="0" stop-color="#00adee"/><stop offset=".496" stop-color="#2b2a68"/><stop offset=".995" stop-color="#ab2e8e"/><stop offset="1" stop-color="#ab2e8e"/></linearGradient><path clip-path="url(#G)" fill="url(#H)" d="M424.5 381l-290.1 54-43.9-235.7 290.2-54z"/></g><g clip-path="url(#f)"><defs><path id="I" d="M362.2 199.4l-8.1-15-145.6 237 17 .5z"/></defs><clipPath id="J"><use xlink:href="#I" overflow="visible"/></clipPath><linearGradient id="K" gradientUnits="userSpaceOnUse" x1="3701.319" y1="110.785" x2="3703.059" y2="110.785" gradientTransform="scale(-421.1451 421.1451) rotate(10.541 2446.971 -20010.738)"><stop offset="0" stop-color="#00adee"/><stop offset=".496" stop-color="#2b2a68"/><stop offset=".995" stop-color="#ab2e8e"/><stop offset="1" stop-color="#ab2e8e"/></linearGradient><path clip-path="url(#J)" fill="url(#K)" d="M431.9 387.1l-258 48-39.1-210.2 258-48z"/></g><g clip-path="url(#f)"><defs><path id="L" d="M378.8 230.2l-8.1-15-127.2 207.2 17 .4z"/></defs><clipPath id="M"><use xlink:href="#L" overflow="visible"/></clipPath><linearGradient id="N" gradientUnits="userSpaceOnUse" x1="3701.319" y1="110.833" x2="3703.059" y2="110.833" gradientTransform="scale(-421.1451 421.1451) rotate(10.541 2446.971 -20010.738)"><stop offset="0" stop-color="#00adee"/><stop offset=".496" stop-color="#2b2a68"/><stop offset=".995" stop-color="#ab2e8e"/><stop offset="1" stop-color="#ab2e8e"/></linearGradient><path clip-path="url(#M)" fill="url(#N)" d="M439.3 393.2l-225.9 42-34.3-184.6L405 208.5z"/></g><g clip-path="url(#f)"><defs><path id="O" d="M395.5 261l-8.1-15-108.9 177.3 17 .5z"/></defs><clipPath id="P"><use xlink:href="#O" overflow="visible"/></clipPath><linearGradient id="Q" gradientUnits="userSpaceOnUse" x1="3701.319" y1="110.881" x2="3703.059" y2="110.881" gradientTransform="scale(-421.1451 421.1451) rotate(10.541 2446.971 -20010.738)"><stop offset="0" stop-color="#00adee"/><stop offset=".496" stop-color="#2b2a68"/><stop offset=".995" stop-color="#ab2e8e"/><stop offset="1" stop-color="#ab2e8e"/></linearGradient><path clip-path="url(#P)" fill="url(#Q)" d="M446.8 399.2L253 435.3l-29.6-159.1 193.8-36z"/></g><g clip-path="url(#f)"><defs><path id="R" d="M412.2 291.8l-8.1-15-90.6 147.5 17 .4z"/></defs><clipPath id="S"><use xlink:href="#R" overflow="visible"/></clipPath><linearGradient id="T" gradientUnits="userSpaceOnUse" x1="3701.319" y1="110.93" x2="3703.059" y2="110.93" gradientTransform="scale(-421.1451 421.1451) rotate(10.541 2446.971 -20010.738)"><stop offset="0" stop-color="#00adee"/><stop offset=".496" stop-color="#2b2a68"/><stop offset=".995" stop-color="#ab2e8e"/><stop offset="1" stop-color="#ab2e8e"/></linearGradient><path clip-path="url(#S)" fill="url(#T)" d="M454.2 405.3l-161.7 30.1-24.8-133.5 161.6-30.1z"/></g><g clip-path="url(#f)"><defs><path id="U" d="M428.9 322.6l-8.1-15-72.3 117.6 17 .5z"/></defs><clipPath id="V"><use xlink:href="#U" overflow="visible"/></clipPath><linearGradient id="W" gradientUnits="userSpaceOnUse" x1="3701.319" y1="110.978" x2="3703.059" y2="110.978" gradientTransform="scale(-421.1451 421.1451) rotate(10.541 2446.971 -20010.738)"><stop offset="0" stop-color="#00adee"/><stop offset=".496" stop-color="#2b2a68"/><stop offset=".995" stop-color="#ab2e8e"/><stop offset="1" stop-color="#ab2e8e"/></linearGradient><path clip-path="url(#V)" fill="url(#W)" d="M461.6 411.4L332 435.5l-20.1-108 129.6-24.1z"/></g><g clip-path="url(#f)"><defs><path id="X" d="M445.6 353.4l-8.1-15-53.9 87.8 16.9.4z"/></defs><clipPath id="Y"><use xlink:href="#X" overflow="visible"/></clipPath><linearGradient id="Z" gradientUnits="userSpaceOnUse" x1="3701.319" y1="111.026" x2="3703.059" y2="111.026" gradientTransform="scale(-421.1451 421.1451) rotate(10.541 2446.971 -20010.738)"><stop offset="0" stop-color="#00adee"/><stop offset=".496" stop-color="#2b2a68"/><stop offset=".995" stop-color="#ab2e8e"/><stop offset="1" stop-color="#ab2e8e"/></linearGradient><path clip-path="url(#Y)" fill="url(#Z)" d="M469 417.5l-97.4 18.1-15.4-82.4 97.4-18.1z"/></g><g clip-path="url(#f)"><defs><path id="aa" d="M462.2 384.2l-8.1-15-35.5 57.9 17 .5z"/></defs><clipPath id="ab"><use xlink:href="#aa" overflow="visible"/></clipPath><linearGradient id="ac" gradientUnits="userSpaceOnUse" x1="3701.319" y1="111.074" x2="3703.059" y2="111.074" gradientTransform="scale(-421.1451 421.1451) rotate(10.541 2446.971 -20010.738)"><stop offset="0" stop-color="#00adee"/><stop offset=".496" stop-color="#2b2a68"/><stop offset=".995" stop-color="#ab2e8e"/><stop offset="1" stop-color="#ab2e8e"/></linearGradient><path clip-path="url(#ab)" fill="url(#ac)" d="M476.4 423.6l-65.3 12.2-10.6-56.9 65.3-12.2z"/></g><g clip-path="url(#f)"><defs><path id="ad" d="M478.9 414.9l-8.1-14.9-17.2 28.1 17 .4z"/></defs><clipPath id="ae"><use xlink:href="#ad" overflow="visible"/></clipPath><linearGradient id="af" gradientUnits="userSpaceOnUse" x1="3701.319" y1="111.123" x2="3703.059" y2="111.123" gradientTransform="scale(-421.1451 421.1451) rotate(10.541 2446.971 -20010.738)"><stop offset="0" stop-color="#00adee"/><stop offset=".496" stop-color="#2b2a68"/><stop offset=".995" stop-color="#ab2e8e"/><stop offset="1" stop-color="#ab2e8e"/></linearGradient><path clip-path="url(#ae)" fill="url(#af)" d="M483.8 429.7l-33.2 6.2-5.8-31.4 33.2-6.1z"/></g></g></g></svg>