<svg xmlns="http://www.w3.org/2000/svg" xmlns:xlink="http://www.w3.org/1999/xlink" viewBox="0 0 369 415"><defs><path id="a" transform="rotate(-22.765 250.028 254.883)" d="M41.6 66.2h416.8v377.4H41.6z"/></defs><clipPath id="b"><use xlink:href="#a" overflow="visible"/></clipPath><g clip-path="url(#b)"><defs><path id="c" transform="rotate(-22.765 250.028 254.883)" d="M41.6 66.2h416.8v377.4H41.6z"/></defs><clipPath id="d"><use xlink:href="#c" overflow="visible"/></clipPath><g opacity=".1" clip-path="url(#d)"><defs><path id="e" transform="rotate(-22.765 268.908 156.254)" d="M-11.1-132.9h560v578.2h-560z"/></defs><clipPath id="f"><use xlink:href="#e" overflow="visible"/></clipPath><g clip-path="url(#f)"><defs><path id="g" d="M369.1.3L-2.5 191.8 349 417.7l.3-.4L369.2.4z"/></defs><clipPath id="h"><use xlink:href="#g" overflow="visible"/></clipPath><g clip-path="url(#h)"><defs><path id="i" transform="rotate(-57.263 129.132 325.001)" d="M122.9 1.5h12.5v647.1h-12.5z"/></defs><clipPath id="j"><use xlink:href="#i" overflow="visible"/></clipPath><linearGradient id="k" gradientUnits="userSpaceOnUse" x1="4443.28" y1="644.706" x2="4444.752" y2="644.706" gradientTransform="scale(421.1451 -421.1451) rotate(-80.637 1841.743 2940.028)"><stop offset="0" stop-color="#00adee"/><stop offset=".496" stop-color="#2b2a68"/><stop offset=".995" stop-color="#ab2e8e"/><stop offset="1" stop-color="#ab2e8e"/></linearGradient><path clip-path="url(#j)" fill="url(#k)" d="M321.9-17.4l99.7 604.8-485.2 80-99.7-604.8z"/></g></g><g clip-path="url(#f)"><defs><path id="l" d="M369.1.3L-2.5 191.8 349 417.7l.3-.4L369.2.4z"/></defs><clipPath id="m"><use xlink:href="#l" overflow="visible"/></clipPath><g clip-path="url(#m)"><defs><path id="n" transform="rotate(-57.263 143.015 303.407)" d="M136.8-20.1h12.5V627h-12.5z"/></defs><clipPath id="o"><use xlink:href="#n" overflow="visible"/></clipPath><linearGradient id="p" gradientUnits="userSpaceOnUse" x1="4443.28" y1="644.746" x2="4444.752" y2="644.746" gradientTransform="scale(421.1451 -421.1451) rotate(-80.637 1841.743 2940.028)"><stop offset="0" stop-color="#00adee"/><stop offset=".496" stop-color="#2b2a68"/><stop offset=".995" stop-color="#ab2e8e"/><stop offset="1" stop-color="#ab2e8e"/></linearGradient><path clip-path="url(#o)" fill="url(#p)" d="M335.8-39l99.7 604.8-485.2 80L-149.5 41z"/></g></g><g clip-path="url(#f)"><defs><path id="q" d="M14.6 182.9l-12.8 6.6L349.5 413l.7-14.3z"/></defs><clipPath id="r"><use xlink:href="#q" overflow="visible"/></clipPath><linearGradient id="s" gradientUnits="userSpaceOnUse" x1="4443.28" y1="644.831" x2="4444.752" y2="644.831" gradientTransform="scale(421.1451 -421.1451) rotate(-80.637 1841.743 2940.028)"><stop offset="0" stop-color="#00adee"/><stop offset=".496" stop-color="#2b2a68"/><stop offset=".995" stop-color="#ab2e8e"/><stop offset="1" stop-color="#ab2e8e"/></linearGradient><path clip-path="url(#r)" fill="url(#s)" d="M301.1 82.6l63.1 383-308.7 50.9-63.2-382.9z"/></g><g clip-path="url(#f)"><defs><path id="t" d="M41 169.4L28.2 176l322.7 207.4.7-14.4z"/></defs><clipPath id="u"><use xlink:href="#t" overflow="visible"/></clipPath><linearGradient id="v" gradientUnits="userSpaceOnUse" x1="4443.28" y1="644.871" x2="4444.752" y2="644.871" gradientTransform="scale(421.1451 -421.1451) rotate(-80.637 1841.743 2940.028)"><stop offset="0" stop-color="#00adee"/><stop offset=".496" stop-color="#2b2a68"/><stop offset=".995" stop-color="#ab2e8e"/><stop offset="1" stop-color="#ab2e8e"/></linearGradient><path clip-path="url(#u)" fill="url(#v)" d="M306.4 76.5L365 432.1 78 479.5 19.3 123.8z"/></g><g clip-path="url(#f)"><defs><path id="w" d="M67.3 155.8l-12.8 6.6 297.8 191.4.7-14.4z"/></defs><clipPath id="x"><use xlink:href="#w" overflow="visible"/></clipPath><linearGradient id="y" gradientUnits="userSpaceOnUse" x1="4443.28" y1="644.912" x2="4444.752" y2="644.912" gradientTransform="scale(421.1451 -421.1451) rotate(-80.637 1841.743 2940.028)"><stop offset="0" stop-color="#00adee"/><stop offset=".496" stop-color="#2b2a68"/><stop offset=".995" stop-color="#ab2e8e"/><stop offset="1" stop-color="#ab2e8e"/></linearGradient><path clip-path="url(#x)" fill="url(#y)" d="M311.7 70.3l54.1 328.4-265.3 43.7-54.2-328.3z"/></g><g clip-path="url(#f)"><defs><path id="z" d="M93.7 142.2l-12.8 6.6 272.8 175.4.7-14.4z"/></defs><clipPath id="A"><use xlink:href="#z" overflow="visible"/></clipPath><linearGradient id="B" gradientUnits="userSpaceOnUse" x1="4443.28" y1="644.953" x2="4444.752" y2="644.953" gradientTransform="scale(421.1451 -421.1451) rotate(-80.637 1841.743 2940.028)"><stop offset="0" stop-color="#00adee"/><stop offset=".496" stop-color="#2b2a68"/><stop offset=".995" stop-color="#ab2e8e"/><stop offset="1" stop-color="#ab2e8e"/></linearGradient><path clip-path="url(#A)" fill="url(#B)" d="M316.9 64.2l49.7 301-243.7 40.2-49.6-301.1z"/></g><g clip-path="url(#f)"><defs><path id="C" d="M120 128.6l-12.8 6.6 247.9 159.4.7-14.4z"/></defs><clipPath id="D"><use xlink:href="#C" overflow="visible"/></clipPath><linearGradient id="E" gradientUnits="userSpaceOnUse" x1="4443.28" y1="644.994" x2="4444.752" y2="644.994" gradientTransform="scale(421.1451 -421.1451) rotate(-80.637 1841.743 2940.028)"><stop offset="0" stop-color="#00adee"/><stop offset=".496" stop-color="#2b2a68"/><stop offset=".995" stop-color="#ab2e8e"/><stop offset="1" stop-color="#ab2e8e"/></linearGradient><path clip-path="url(#D)" fill="url(#E)" d="M322.2 58l45.2 273.8-222 36.6-45.1-273.8z"/></g><g clip-path="url(#f)"><defs><path id="F" d="M146.4 115.1l-12.8 6.5L356.5 265l.7-14.4z"/></defs><clipPath id="G"><use xlink:href="#F" overflow="visible"/></clipPath><linearGradient id="H" gradientUnits="userSpaceOnUse" x1="4443.28" y1="645.035" x2="4444.752" y2="645.035" gradientTransform="scale(421.1451 -421.1451) rotate(-80.637 1841.743 2940.028)"><stop offset="0" stop-color="#00adee"/><stop offset=".496" stop-color="#2b2a68"/><stop offset=".995" stop-color="#ab2e8e"/><stop offset="1" stop-color="#ab2e8e"/></linearGradient><path clip-path="url(#G)" fill="url(#H)" d="M327.5 51.8l40.7 246.5-200.3 33-40.6-246.4z"/></g><g clip-path="url(#f)"><defs><path id="I" d="M172.7 101.5l-12.7 6.6 198 127.3.6-14.4z"/></defs><clipPath id="J"><use xlink:href="#I" overflow="visible"/></clipPath><linearGradient id="K" gradientUnits="userSpaceOnUse" x1="4443.28" y1="645.076" x2="4444.752" y2="645.076" gradientTransform="scale(421.1451 -421.1451) rotate(-80.637 1841.743 2940.028)"><stop offset="0" stop-color="#00adee"/><stop offset=".496" stop-color="#2b2a68"/><stop offset=".995" stop-color="#ab2e8e"/><stop offset="1" stop-color="#ab2e8e"/></linearGradient><path clip-path="url(#J)" fill="url(#K)" d="M332.8 45.7l36.1 219.2-178.5 29.4-36.1-219.2z"/></g><g clip-path="url(#f)"><defs><path id="L" d="M199.1 87.9l-12.8 6.6 173.1 111.3.7-14.4z"/></defs><clipPath id="M"><use xlink:href="#L" overflow="visible"/></clipPath><linearGradient id="N" gradientUnits="userSpaceOnUse" x1="4443.28" y1="645.117" x2="4444.752" y2="645.117" gradientTransform="scale(421.1451 -421.1451) rotate(-80.637 1841.743 2940.028)"><stop offset="0" stop-color="#00adee"/><stop offset=".496" stop-color="#2b2a68"/><stop offset=".995" stop-color="#ab2e8e"/><stop offset="1" stop-color="#ab2e8e"/></linearGradient><path clip-path="url(#M)" fill="url(#N)" d="M338.1 39.5l31.6 191.9-156.8 25.9-31.7-191.9z"/></g><g clip-path="url(#f)"><defs><path id="O" d="M225.4 74.3l-12.7 6.6 148.1 95.2.7-14.3z"/></defs><clipPath id="P"><use xlink:href="#O" overflow="visible"/></clipPath><linearGradient id="Q" gradientUnits="userSpaceOnUse" x1="4443.28" y1="645.158" x2="4444.752" y2="645.158" gradientTransform="scale(421.1451 -421.1451) rotate(-80.637 1841.743 2940.028)"><stop offset="0" stop-color="#00adee"/><stop offset=".496" stop-color="#2b2a68"/><stop offset=".995" stop-color="#ab2e8e"/><stop offset="1" stop-color="#ab2e8e"/></linearGradient><path clip-path="url(#P)" fill="url(#Q)" d="M343.4 33.4L370.5 198l-135.1 22.3-27.2-164.7z"/></g><g clip-path="url(#f)"><defs><path id="R" d="M251.8 60.7L239 67.3l123.2 79.2.7-14.3z"/></defs><clipPath id="S"><use xlink:href="#R" overflow="visible"/></clipPath><linearGradient id="T" gradientUnits="userSpaceOnUse" x1="4443.28" y1="645.198" x2="4444.752" y2="645.198" gradientTransform="scale(421.1451 -421.1451) rotate(-80.637 1841.743 2940.028)"><stop offset="0" stop-color="#00adee"/><stop offset=".496" stop-color="#2b2a68"/><stop offset=".995" stop-color="#ab2e8e"/><stop offset="1" stop-color="#ab2e8e"/></linearGradient><path clip-path="url(#S)" fill="url(#T)" d="M348.6 27.2l22.7 137.3-113.4 18.7-22.7-137.3z"/></g><g clip-path="url(#f)"><defs><path id="U" d="M278.2 47.2l-12.8 6.5 98.2 63.2.7-14.4z"/></defs><clipPath id="V"><use xlink:href="#U" overflow="visible"/></clipPath><linearGradient id="W" gradientUnits="userSpaceOnUse" x1="4443.28" y1="645.239" x2="4444.752" y2="645.239" gradientTransform="scale(421.1451 -421.1451) rotate(-80.637 1841.743 2940.028)"><stop offset="0" stop-color="#00adee"/><stop offset=".496" stop-color="#2b2a68"/><stop offset=".995" stop-color="#ab2e8e"/><stop offset="1" stop-color="#ab2e8e"/></linearGradient><path clip-path="url(#V)" fill="url(#W)" d="M353.9 21l18.2 110.1-91.8 15.1-18.1-110z"/></g><g clip-path="url(#f)"><defs><path id="X" d="M304.5 33.6l-12.8 6.6L365 87.3l.7-14.4z"/></defs><clipPath id="Y"><use xlink:href="#X" overflow="visible"/></clipPath><linearGradient id="Z" gradientUnits="userSpaceOnUse" x1="4443.28" y1="645.28" x2="4444.752" y2="645.28" gradientTransform="scale(421.1451 -421.1451) rotate(-80.637 1841.743 2940.028)"><stop offset="0" stop-color="#00adee"/><stop offset=".496" stop-color="#2b2a68"/><stop offset=".995" stop-color="#ab2e8e"/><stop offset="1" stop-color="#ab2e8e"/></linearGradient><path clip-path="url(#Y)" fill="url(#Z)" d="M359.2 14.9l13.6 82.7-70 11.6-13.6-82.8z"/></g><g clip-path="url(#f)"><defs><path id="aa" d="M330.9 20l-12.8 6.6 48.4 31.1.6-14.4z"/></defs><clipPath id="ab"><use xlink:href="#aa" overflow="visible"/></clipPath><linearGradient id="ac" gradientUnits="userSpaceOnUse" x1="4443.28" y1="645.321" x2="4444.752" y2="645.321" gradientTransform="scale(421.1451 -421.1451) rotate(-80.637 1841.743 2940.028)"><stop offset="0" stop-color="#00adee"/><stop offset=".496" stop-color="#2b2a68"/><stop offset=".995" stop-color="#ab2e8e"/><stop offset="1" stop-color="#ab2e8e"/></linearGradient><path clip-path="url(#ab)" fill="url(#ac)" d="M364.5 8.7l9.1 55.5-48.3 7.9-9.1-55.4z"/></g><g clip-path="url(#f)"><defs><path id="ad" d="M357.2 6.4L344.4 13l23.5 15.1.7-14.4z"/></defs><clipPath id="ae"><use xlink:href="#ad" overflow="visible"/></clipPath><linearGradient id="af" gradientUnits="userSpaceOnUse" x1="4443.28" y1="645.362" x2="4444.752" y2="645.362" gradientTransform="scale(421.1451 -421.1451) rotate(-80.637 1841.743 2940.028)"><stop offset="0" stop-color="#00adee"/><stop offset=".496" stop-color="#2b2a68"/><stop offset=".995" stop-color="#ab2e8e"/><stop offset="1" stop-color="#ab2e8e"/></linearGradient><path clip-path="url(#ae)" fill="url(#af)" d="M369.8 2.5l4.6 28.2-26.6 4.4-4.6-28.2z"/></g></g></g></svg>