<svg xmlns="http://www.w3.org/2000/svg" xmlns:xlink="http://www.w3.org/1999/xlink" viewBox="0 0 455 502"><defs><path id="a" transform="rotate(-20.633 298.114 301.516)" d="M47.6 74.7h501.1v453.6H47.6z"/></defs><clipPath id="b"><use xlink:href="#a" overflow="visible"/></clipPath><g clip-path="url(#b)"><defs><path id="c" transform="rotate(-20.633 298.114 301.516)" d="M47.6 74.7h501.1v453.6H47.6z"/></defs><clipPath id="d"><use xlink:href="#c" overflow="visible"/></clipPath><g opacity=".1" clip-path="url(#d)"><defs><path id="e" transform="rotate(-20.633 325.195 183.9)" d="M-11.3-163.6h673.1v695H-11.3z"/></defs><clipPath id="f"><use xlink:href="#e" overflow="visible"/></clipPath><g clip-path="url(#f)"><defs><path id="g" d="M452.6 1.1L-2.3 214.5l412.1 287.1.3-.4 42.6-500z"/></defs><clipPath id="h"><use xlink:href="#g" overflow="visible"/></clipPath><g clip-path="url(#h)"><defs><path id="i" transform="rotate(-55.132 149.79 380.403)" d="M142.3-8.5h15v777.9h-15z"/></defs><clipPath id="j"><use xlink:href="#i" overflow="visible"/></clipPath><linearGradient id="k" gradientUnits="userSpaceOnUse" x1="3455.863" y1="1877.232" x2="3457.633" y2="1877.232" gradientTransform="scale(421.145 -421.145) rotate(-82.769 662.67 2899.348)"><stop offset="0" stop-color="#00adee"/><stop offset=".496" stop-color="#2b2a68"/><stop offset=".995" stop-color="#ab2e8e"/><stop offset="1" stop-color="#ab2e8e"/></linearGradient><path clip-path="url(#j)" fill="url(#k)" d="M396.7-22.3l92.7 731-586.5 74.4-92.7-731z"/></g></g><g clip-path="url(#f)"><defs><path id="l" d="M452.6 1.1L-2.3 214.5l412.1 287.1.3-.4 42.6-500z"/></defs><clipPath id="m"><use xlink:href="#l" overflow="visible"/></clipPath><g clip-path="url(#m)"><defs><path id="n" transform="rotate(-55.132 167.433 355.083)" d="M160-33.9h15V744h-15z"/></defs><clipPath id="o"><use xlink:href="#n" overflow="visible"/></clipPath><linearGradient id="p" gradientUnits="userSpaceOnUse" x1="3455.863" y1="1877.281" x2="3457.633" y2="1877.281" gradientTransform="scale(421.145 -421.145) rotate(-82.769 662.67 2899.348)"><stop offset="0" stop-color="#00adee"/><stop offset=".496" stop-color="#2b2a68"/><stop offset=".995" stop-color="#ab2e8e"/><stop offset="1" stop-color="#ab2e8e"/></linearGradient><path clip-path="url(#o)" fill="url(#p)" d="M414.3-47.6l92.8 731-586.5 74.4-92.8-731z"/></g></g><g clip-path="url(#f)"><defs><path id="q" d="M18.6 204.6L2.9 212l407.6 284 1.5-17.2z"/></defs><clipPath id="r"><use xlink:href="#q" overflow="visible"/></clipPath><linearGradient id="s" gradientUnits="userSpaceOnUse" x1="3455.863" y1="1877.382" x2="3457.633" y2="1877.382" gradientTransform="scale(421.145 -421.145) rotate(-82.769 662.67 2899.348)"><stop offset="0" stop-color="#00adee"/><stop offset=".496" stop-color="#2b2a68"/><stop offset=".995" stop-color="#ab2e8e"/><stop offset="1" stop-color="#ab2e8e"/></linearGradient><path clip-path="url(#r)" fill="url(#s)" d="M367.2 97l58.7 462.8-373.1 47.3L-6 144.3z"/></g><g clip-path="url(#f)"><defs><path id="t" d="M50.9 189.5l-15.7 7.3 378.4 263.7 1.4-17.2z"/></defs><clipPath id="u"><use xlink:href="#t" overflow="visible"/></clipPath><linearGradient id="v" gradientUnits="userSpaceOnUse" x1="3455.863" y1="1877.431" x2="3457.633" y2="1877.431" gradientTransform="scale(421.145 -421.145) rotate(-82.769 662.67 2899.348)"><stop offset="0" stop-color="#00adee"/><stop offset=".496" stop-color="#2b2a68"/><stop offset=".995" stop-color="#ab2e8e"/><stop offset="1" stop-color="#ab2e8e"/></linearGradient><path clip-path="url(#u)" fill="url(#v)" d="M373.8 89.8l54.6 429.8-347 44.1-54.5-429.9z"/></g><g clip-path="url(#f)"><defs><path id="w" d="M83.1 174.4l-15.6 7.3L416.6 425l1.5-17.3z"/></defs><clipPath id="x"><use xlink:href="#w" overflow="visible"/></clipPath><linearGradient id="y" gradientUnits="userSpaceOnUse" x1="3455.863" y1="1877.48" x2="3457.633" y2="1877.48" gradientTransform="scale(421.145 -421.145) rotate(-82.769 662.67 2899.348)"><stop offset="0" stop-color="#00adee"/><stop offset=".496" stop-color="#2b2a68"/><stop offset=".995" stop-color="#ab2e8e"/><stop offset="1" stop-color="#ab2e8e"/></linearGradient><path clip-path="url(#x)" fill="url(#y)" d="M380.4 82.6l50.4 396.9-320.7 40.7-50.4-396.9z"/></g><g clip-path="url(#f)"><defs><path id="z" d="M115.4 159.2l-15.7 7.4 319.9 222.9 1.5-17.3z"/></defs><clipPath id="A"><use xlink:href="#z" overflow="visible"/></clipPath><linearGradient id="B" gradientUnits="userSpaceOnUse" x1="3455.863" y1="1877.529" x2="3457.633" y2="1877.529" gradientTransform="scale(421.145 -421.145) rotate(-82.769 662.67 2899.348)"><stop offset="0" stop-color="#00adee"/><stop offset=".496" stop-color="#2b2a68"/><stop offset=".995" stop-color="#ab2e8e"/><stop offset="1" stop-color="#ab2e8e"/></linearGradient><path clip-path="url(#A)" fill="url(#B)" d="M387.1 75.5l46.1 363.8-294.4 37.4-46.2-363.9z"/></g><g clip-path="url(#f)"><defs><path id="C" d="M147.6 144.1l-15.6 7.3L422.6 354l1.5-17.3z"/></defs><clipPath id="D"><use xlink:href="#C" overflow="visible"/></clipPath><linearGradient id="E" gradientUnits="userSpaceOnUse" x1="3455.863" y1="1877.579" x2="3457.633" y2="1877.579" gradientTransform="scale(421.145 -421.145) rotate(-82.769 662.67 2899.348)"><stop offset="0" stop-color="#00adee"/><stop offset=".496" stop-color="#2b2a68"/><stop offset=".995" stop-color="#ab2e8e"/><stop offset="1" stop-color="#ab2e8e"/></linearGradient><path clip-path="url(#D)" fill="url(#E)" d="M393.7 68.3l42 330.9-268.3 34-42-330.9z"/></g><g clip-path="url(#f)"><defs><path id="F" d="M179.9 129l-15.7 7.3 261.5 182.2 1.4-17.3z"/></defs><clipPath id="G"><use xlink:href="#F" overflow="visible"/></clipPath><linearGradient id="H" gradientUnits="userSpaceOnUse" x1="3455.863" y1="1877.628" x2="3457.633" y2="1877.628" gradientTransform="scale(421.145 -421.145) rotate(-82.769 662.67 2899.348)"><stop offset="0" stop-color="#00adee"/><stop offset=".496" stop-color="#2b2a68"/><stop offset=".995" stop-color="#ab2e8e"/><stop offset="1" stop-color="#ab2e8e"/></linearGradient><path clip-path="url(#G)" fill="url(#H)" d="M400.3 61.1L438.1 359l-242 30.7-37.8-297.9z"/></g><g clip-path="url(#f)"><defs><path id="I" d="M212.2 113.8l-15.7 7.4L428.7 283l1.5-17.3z"/></defs><clipPath id="J"><use xlink:href="#I" overflow="visible"/></clipPath><linearGradient id="K" gradientUnits="userSpaceOnUse" x1="3455.863" y1="1877.677" x2="3457.633" y2="1877.677" gradientTransform="scale(421.145 -421.145) rotate(-82.769 662.67 2899.348)"><stop offset="0" stop-color="#00adee"/><stop offset=".496" stop-color="#2b2a68"/><stop offset=".995" stop-color="#ab2e8e"/><stop offset="1" stop-color="#ab2e8e"/></linearGradient><path clip-path="url(#J)" fill="url(#K)" d="M406.9 54l33.6 264.9-215.7 27.4-33.7-265z"/></g><g clip-path="url(#f)"><defs><path id="L" d="M244.4 98.7l-15.6 7.3 202.9 141.4 1.5-17.2z"/></defs><clipPath id="M"><use xlink:href="#L" overflow="visible"/></clipPath><linearGradient id="N" gradientUnits="userSpaceOnUse" x1="3455.863" y1="1877.726" x2="3457.633" y2="1877.726" gradientTransform="scale(421.145 -421.145) rotate(-82.769 662.67 2899.348)"><stop offset="0" stop-color="#00adee"/><stop offset=".496" stop-color="#2b2a68"/><stop offset=".995" stop-color="#ab2e8e"/><stop offset="1" stop-color="#ab2e8e"/></linearGradient><path clip-path="url(#M)" fill="url(#N)" d="M413.6 46.8L443 278.7l-189.6 24.1L224 70.9z"/></g><g clip-path="url(#f)"><defs><path id="O" d="M276.7 83.6L261 90.9l173.7 121 1.5-17.2z"/></defs><clipPath id="P"><use xlink:href="#O" overflow="visible"/></clipPath><linearGradient id="Q" gradientUnits="userSpaceOnUse" x1="3455.863" y1="1877.775" x2="3457.633" y2="1877.775" gradientTransform="scale(421.145 -421.145) rotate(-82.769 662.67 2899.348)"><stop offset="0" stop-color="#00adee"/><stop offset=".496" stop-color="#2b2a68"/><stop offset=".995" stop-color="#ab2e8e"/><stop offset="1" stop-color="#ab2e8e"/></linearGradient><path clip-path="url(#P)" fill="url(#Q)" d="M420.2 39.6l25.2 199-163.3 20.7-25.3-198.9z"/></g><g clip-path="url(#f)"><defs><path id="R" d="M309 68.4l-15.7 7.4 144.5 100.6 1.4-17.2z"/></defs><clipPath id="S"><use xlink:href="#R" overflow="visible"/></clipPath><linearGradient id="T" gradientUnits="userSpaceOnUse" x1="3455.863" y1="1877.824" x2="3457.633" y2="1877.824" gradientTransform="scale(421.145 -421.145) rotate(-82.769 662.67 2899.348)"><stop offset="0" stop-color="#00adee"/><stop offset=".496" stop-color="#2b2a68"/><stop offset=".995" stop-color="#ab2e8e"/><stop offset="1" stop-color="#ab2e8e"/></linearGradient><path clip-path="url(#S)" fill="url(#T)" d="M426.8 32.5l21.1 165.9-137.1 17.4-21.1-165.9z"/></g><g clip-path="url(#f)"><defs><path id="U" d="M341.2 53.3l-15.6 7.3 115.2 80.3 1.5-17.2z"/></defs><clipPath id="V"><use xlink:href="#U" overflow="visible"/></clipPath><linearGradient id="W" gradientUnits="userSpaceOnUse" x1="3455.863" y1="1877.873" x2="3457.633" y2="1877.873" gradientTransform="scale(421.145 -421.145) rotate(-82.769 662.67 2899.348)"><stop offset="0" stop-color="#00adee"/><stop offset=".496" stop-color="#2b2a68"/><stop offset=".995" stop-color="#ab2e8e"/><stop offset="1" stop-color="#ab2e8e"/></linearGradient><path clip-path="url(#V)" fill="url(#W)" d="M433.4 25.3l16.9 133-110.9 14.1-16.9-133z"/></g><g clip-path="url(#f)"><defs><path id="X" d="M373.5 38.2l-15.7 7.3 86 59.9 1.5-17.2z"/></defs><clipPath id="Y"><use xlink:href="#X" overflow="visible"/></clipPath><linearGradient id="Z" gradientUnits="userSpaceOnUse" x1="3455.863" y1="1877.922" x2="3457.633" y2="1877.922" gradientTransform="scale(421.145 -421.145) rotate(-82.769 662.67 2899.348)"><stop offset="0" stop-color="#00adee"/><stop offset=".496" stop-color="#2b2a68"/><stop offset=".995" stop-color="#ab2e8e"/><stop offset="1" stop-color="#ab2e8e"/></linearGradient><path clip-path="url(#Y)" fill="url(#Z)" d="M440 18.1l12.7 100.1-84.6 10.7-12.7-100z"/></g><g clip-path="url(#f)"><defs><path id="aa" d="M405.7 23l-15.6 7.4 56.7 39.5 1.5-17.2z"/></defs><clipPath id="ab"><use xlink:href="#aa" overflow="visible"/></clipPath><linearGradient id="ac" gradientUnits="userSpaceOnUse" x1="3455.863" y1="1877.972" x2="3457.633" y2="1877.972" gradientTransform="scale(421.145 -421.145) rotate(-82.769 662.67 2899.348)"><stop offset="0" stop-color="#00adee"/><stop offset=".496" stop-color="#2b2a68"/><stop offset=".995" stop-color="#ab2e8e"/><stop offset="1" stop-color="#ab2e8e"/></linearGradient><path clip-path="url(#ab)" fill="url(#ac)" d="M446.7 11l8.5 67-58.4 7.4-8.5-67z"/></g><g clip-path="url(#f)"><defs><path id="ad" d="M438 7.9l-15.6 7.3 27.5 19.2 1.4-17.2z"/></defs><clipPath id="ae"><use xlink:href="#ad" overflow="visible"/></clipPath><linearGradient id="af" gradientUnits="userSpaceOnUse" x1="3455.863" y1="1878.021" x2="3457.633" y2="1878.021" gradientTransform="scale(421.145 -421.145) rotate(-82.769 662.67 2899.348)"><stop offset="0" stop-color="#00adee"/><stop offset=".496" stop-color="#2b2a68"/><stop offset=".995" stop-color="#ab2e8e"/><stop offset="1" stop-color="#ab2e8e"/></linearGradient><path clip-path="url(#ae)" fill="url(#af)" d="M453.3 3.8l4.3 34.1-32.2 4-4.3-34z"/></g></g></g></svg>