<svg xmlns="http://www.w3.org/2000/svg" xmlns:xlink="http://www.w3.org/1999/xlink" viewBox="0 0 368 407"><defs><path id="a" transform="rotate(-22.765 248.028 246.883)" d="M39.6 58.2h416.8v377.4H39.6z"/></defs><clipPath id="b"><use xlink:href="#a" overflow="visible"/></clipPath><g clip-path="url(#b)"><defs><path id="c" transform="rotate(-22.765 248.028 246.883)" d="M39.6 58.2h416.8v377.4H39.6z"/></defs><clipPath id="d"><use xlink:href="#c" overflow="visible"/></clipPath><g opacity=".1" clip-path="url(#d)"><defs><path id="e" transform="rotate(-22.765 266.908 148.253)" d="M-13.1-140.9h560v578.2h-560z"/></defs><clipPath id="f"><use xlink:href="#e" overflow="visible"/></clipPath><g clip-path="url(#f)"><defs><path id="g" d="M367.1-7.7L-4.5 183.8 347 409.7l.3-.4L367.2-7.6z"/></defs><clipPath id="h"><use xlink:href="#g" overflow="visible"/></clipPath><g clip-path="url(#h)"><defs><path id="i" transform="rotate(-57.263 127.132 317.001)" d="M120.9-6.5h12.5v647.1h-12.5z"/></defs><clipPath id="j"><use xlink:href="#i" overflow="visible"/></clipPath><linearGradient id="k" gradientUnits="userSpaceOnUse" x1="5287.81" y1="695.745" x2="5289.282" y2="695.745" gradientTransform="scale(421.1451 -421.1451) rotate(-80.637 2233.944 3463.149)"><stop offset="0" stop-color="#00adee"/><stop offset=".496" stop-color="#2b2a68"/><stop offset=".995" stop-color="#ab2e8e"/><stop offset="1" stop-color="#ab2e8e"/></linearGradient><path clip-path="url(#j)" fill="url(#k)" d="M319.9-25.4l99.7 604.8-485.2 80-99.7-604.8z"/></g></g><g clip-path="url(#f)"><defs><path id="l" d="M367.1-7.7L-4.5 183.8 347 409.7l.3-.4L367.2-7.6z"/></defs><clipPath id="m"><use xlink:href="#l" overflow="visible"/></clipPath><g clip-path="url(#m)"><defs><path id="n" transform="rotate(-57.263 141.015 295.407)" d="M134.8-28.1h12.5V619h-12.5z"/></defs><clipPath id="o"><use xlink:href="#n" overflow="visible"/></clipPath><linearGradient id="p" gradientUnits="userSpaceOnUse" x1="5287.81" y1="695.786" x2="5289.282" y2="695.786" gradientTransform="scale(421.1451 -421.1451) rotate(-80.637 2233.944 3463.149)"><stop offset="0" stop-color="#00adee"/><stop offset=".496" stop-color="#2b2a68"/><stop offset=".995" stop-color="#ab2e8e"/><stop offset="1" stop-color="#ab2e8e"/></linearGradient><path clip-path="url(#o)" fill="url(#p)" d="M333.8-47l99.7 604.8-485.2 80L-151.5 33z"/></g></g><g clip-path="url(#f)"><defs><path id="q" d="M12.6 174.9l-12.8 6.6L347.5 405l.7-14.3z"/></defs><clipPath id="r"><use xlink:href="#q" overflow="visible"/></clipPath><linearGradient id="s" gradientUnits="userSpaceOnUse" x1="5287.81" y1="695.87" x2="5289.282" y2="695.87" gradientTransform="scale(421.1451 -421.1451) rotate(-80.637 2233.944 3463.149)"><stop offset="0" stop-color="#00adee"/><stop offset=".496" stop-color="#2b2a68"/><stop offset=".995" stop-color="#ab2e8e"/><stop offset="1" stop-color="#ab2e8e"/></linearGradient><path clip-path="url(#r)" fill="url(#s)" d="M299.1 74.6l63.1 383-308.7 50.9-63.2-382.9z"/></g><g clip-path="url(#f)"><defs><path id="t" d="M39 161.4L26.2 168l322.7 207.4.7-14.4z"/></defs><clipPath id="u"><use xlink:href="#t" overflow="visible"/></clipPath><linearGradient id="v" gradientUnits="userSpaceOnUse" x1="5287.81" y1="695.911" x2="5289.282" y2="695.911" gradientTransform="scale(421.1451 -421.1451) rotate(-80.637 2233.944 3463.149)"><stop offset="0" stop-color="#00adee"/><stop offset=".496" stop-color="#2b2a68"/><stop offset=".995" stop-color="#ab2e8e"/><stop offset="1" stop-color="#ab2e8e"/></linearGradient><path clip-path="url(#u)" fill="url(#v)" d="M304.4 68.5L363 424.1 76 471.5 17.3 115.8z"/></g><g clip-path="url(#f)"><defs><path id="w" d="M65.3 147.8l-12.8 6.6 297.8 191.4.7-14.4z"/></defs><clipPath id="x"><use xlink:href="#w" overflow="visible"/></clipPath><linearGradient id="y" gradientUnits="userSpaceOnUse" x1="5287.81" y1="695.951" x2="5289.282" y2="695.951" gradientTransform="scale(421.1451 -421.1451) rotate(-80.637 2233.944 3463.149)"><stop offset="0" stop-color="#00adee"/><stop offset=".496" stop-color="#2b2a68"/><stop offset=".995" stop-color="#ab2e8e"/><stop offset="1" stop-color="#ab2e8e"/></linearGradient><path clip-path="url(#x)" fill="url(#y)" d="M309.7 62.3l54.1 328.4-265.3 43.7-54.2-328.3z"/></g><g clip-path="url(#f)"><defs><path id="z" d="M91.7 134.2l-12.8 6.6 272.8 175.4.7-14.4z"/></defs><clipPath id="A"><use xlink:href="#z" overflow="visible"/></clipPath><linearGradient id="B" gradientUnits="userSpaceOnUse" x1="5287.81" y1="695.992" x2="5289.282" y2="695.992" gradientTransform="scale(421.1451 -421.1451) rotate(-80.637 2233.944 3463.149)"><stop offset="0" stop-color="#00adee"/><stop offset=".496" stop-color="#2b2a68"/><stop offset=".995" stop-color="#ab2e8e"/><stop offset="1" stop-color="#ab2e8e"/></linearGradient><path clip-path="url(#A)" fill="url(#B)" d="M314.9 56.2l49.7 301-243.7 40.2L71.3 96.3z"/></g><g clip-path="url(#f)"><defs><path id="C" d="M118 120.6l-12.8 6.6 247.9 159.4.7-14.4z"/></defs><clipPath id="D"><use xlink:href="#C" overflow="visible"/></clipPath><linearGradient id="E" gradientUnits="userSpaceOnUse" x1="5287.81" y1="696.033" x2="5289.282" y2="696.033" gradientTransform="scale(421.1451 -421.1451) rotate(-80.637 2233.944 3463.149)"><stop offset="0" stop-color="#00adee"/><stop offset=".496" stop-color="#2b2a68"/><stop offset=".995" stop-color="#ab2e8e"/><stop offset="1" stop-color="#ab2e8e"/></linearGradient><path clip-path="url(#D)" fill="url(#E)" d="M320.2 50l45.2 273.8-222 36.6L98.3 86.6z"/></g><g clip-path="url(#f)"><defs><path id="F" d="M144.4 107.1l-12.8 6.5L354.5 257l.7-14.4z"/></defs><clipPath id="G"><use xlink:href="#F" overflow="visible"/></clipPath><linearGradient id="H" gradientUnits="userSpaceOnUse" x1="5287.81" y1="696.074" x2="5289.282" y2="696.074" gradientTransform="scale(421.1451 -421.1451) rotate(-80.637 2233.944 3463.149)"><stop offset="0" stop-color="#00adee"/><stop offset=".496" stop-color="#2b2a68"/><stop offset=".995" stop-color="#ab2e8e"/><stop offset="1" stop-color="#ab2e8e"/></linearGradient><path clip-path="url(#G)" fill="url(#H)" d="M325.5 43.8l40.7 246.5-200.3 33-40.6-246.4z"/></g><g clip-path="url(#f)"><defs><path id="I" d="M170.7 93.5l-12.7 6.6 198 127.3.6-14.4z"/></defs><clipPath id="J"><use xlink:href="#I" overflow="visible"/></clipPath><linearGradient id="K" gradientUnits="userSpaceOnUse" x1="5287.81" y1="696.115" x2="5289.282" y2="696.115" gradientTransform="scale(421.1451 -421.1451) rotate(-80.637 2233.944 3463.149)"><stop offset="0" stop-color="#00adee"/><stop offset=".496" stop-color="#2b2a68"/><stop offset=".995" stop-color="#ab2e8e"/><stop offset="1" stop-color="#ab2e8e"/></linearGradient><path clip-path="url(#J)" fill="url(#K)" d="M330.8 37.7l36.1 219.2-178.5 29.4-36.1-219.2z"/></g><g clip-path="url(#f)"><defs><path id="L" d="M197.1 79.9l-12.8 6.6 173.1 111.3.7-14.4z"/></defs><clipPath id="M"><use xlink:href="#L" overflow="visible"/></clipPath><linearGradient id="N" gradientUnits="userSpaceOnUse" x1="5287.81" y1="696.156" x2="5289.282" y2="696.156" gradientTransform="scale(421.1451 -421.1451) rotate(-80.637 2233.944 3463.149)"><stop offset="0" stop-color="#00adee"/><stop offset=".496" stop-color="#2b2a68"/><stop offset=".995" stop-color="#ab2e8e"/><stop offset="1" stop-color="#ab2e8e"/></linearGradient><path clip-path="url(#M)" fill="url(#N)" d="M336.1 31.5l31.6 191.9-156.8 25.9-31.7-191.9z"/></g><g clip-path="url(#f)"><defs><path id="O" d="M223.4 66.3l-12.7 6.6 148.1 95.2.7-14.3z"/></defs><clipPath id="P"><use xlink:href="#O" overflow="visible"/></clipPath><linearGradient id="Q" gradientUnits="userSpaceOnUse" x1="5287.81" y1="696.197" x2="5289.282" y2="696.197" gradientTransform="scale(421.1451 -421.1451) rotate(-80.637 2233.944 3463.149)"><stop offset="0" stop-color="#00adee"/><stop offset=".496" stop-color="#2b2a68"/><stop offset=".995" stop-color="#ab2e8e"/><stop offset="1" stop-color="#ab2e8e"/></linearGradient><path clip-path="url(#P)" fill="url(#Q)" d="M341.4 25.4L368.5 190l-135.1 22.3-27.2-164.7z"/></g><g clip-path="url(#f)"><defs><path id="R" d="M249.8 52.7L237 59.3l123.2 79.2.7-14.3z"/></defs><clipPath id="S"><use xlink:href="#R" overflow="visible"/></clipPath><linearGradient id="T" gradientUnits="userSpaceOnUse" x1="5287.81" y1="696.237" x2="5289.282" y2="696.237" gradientTransform="scale(421.1451 -421.1451) rotate(-80.637 2233.944 3463.149)"><stop offset="0" stop-color="#00adee"/><stop offset=".496" stop-color="#2b2a68"/><stop offset=".995" stop-color="#ab2e8e"/><stop offset="1" stop-color="#ab2e8e"/></linearGradient><path clip-path="url(#S)" fill="url(#T)" d="M346.6 19.2l22.7 137.3-113.4 18.7-22.7-137.3z"/></g><g clip-path="url(#f)"><defs><path id="U" d="M276.2 39.2l-12.8 6.5 98.2 63.2.7-14.4z"/></defs><clipPath id="V"><use xlink:href="#U" overflow="visible"/></clipPath><linearGradient id="W" gradientUnits="userSpaceOnUse" x1="5287.81" y1="696.278" x2="5289.282" y2="696.278" gradientTransform="scale(421.1451 -421.1451) rotate(-80.637 2233.944 3463.149)"><stop offset="0" stop-color="#00adee"/><stop offset=".496" stop-color="#2b2a68"/><stop offset=".995" stop-color="#ab2e8e"/><stop offset="1" stop-color="#ab2e8e"/></linearGradient><path clip-path="url(#V)" fill="url(#W)" d="M351.9 13l18.2 110.1-91.8 15.1-18.1-110z"/></g><g clip-path="url(#f)"><defs><path id="X" d="M302.5 25.6l-12.8 6.6L363 79.3l.7-14.4z"/></defs><clipPath id="Y"><use xlink:href="#X" overflow="visible"/></clipPath><linearGradient id="Z" gradientUnits="userSpaceOnUse" x1="5287.81" y1="696.319" x2="5289.282" y2="696.319" gradientTransform="scale(421.1451 -421.1451) rotate(-80.637 2233.944 3463.149)"><stop offset="0" stop-color="#00adee"/><stop offset=".496" stop-color="#2b2a68"/><stop offset=".995" stop-color="#ab2e8e"/><stop offset="1" stop-color="#ab2e8e"/></linearGradient><path clip-path="url(#Y)" fill="url(#Z)" d="M357.2 6.9l13.6 82.7-70 11.6-13.6-82.8z"/></g><g clip-path="url(#f)"><defs><path id="aa" d="M328.9 12l-12.8 6.6 48.4 31.1.6-14.4z"/></defs><clipPath id="ab"><use xlink:href="#aa" overflow="visible"/></clipPath><linearGradient id="ac" gradientUnits="userSpaceOnUse" x1="5287.81" y1="696.36" x2="5289.282" y2="696.36" gradientTransform="scale(421.1451 -421.1451) rotate(-80.637 2233.944 3463.149)"><stop offset="0" stop-color="#00adee"/><stop offset=".496" stop-color="#2b2a68"/><stop offset=".995" stop-color="#ab2e8e"/><stop offset="1" stop-color="#ab2e8e"/></linearGradient><path clip-path="url(#ab)" fill="url(#ac)" d="M362.5.7l9.1 55.5-48.3 7.9-9.1-55.4z"/></g><g clip-path="url(#f)"><defs><path id="ad" d="M355.2-1.6L342.4 5l23.5 15.1.7-14.4z"/></defs><clipPath id="ae"><use xlink:href="#ad" overflow="visible"/></clipPath><linearGradient id="af" gradientUnits="userSpaceOnUse" x1="5287.81" y1="696.401" x2="5289.282" y2="696.401" gradientTransform="scale(421.1451 -421.1451) rotate(-80.637 2233.944 3463.149)"><stop offset="0" stop-color="#00adee"/><stop offset=".496" stop-color="#2b2a68"/><stop offset=".995" stop-color="#ab2e8e"/><stop offset="1" stop-color="#ab2e8e"/></linearGradient><path clip-path="url(#ae)" fill="url(#af)" d="M367.8-5.5l4.6 28.2-26.6 4.4-4.6-28.2z"/></g></g></g></svg>