<svg xmlns="http://www.w3.org/2000/svg" xmlns:xlink="http://www.w3.org/1999/xlink" viewBox="0 0 482 458.7"><style>.st127{fill:#2a2a68}.st128{font-family:&apos;Montserrat-ExtraBold&apos;}.st129{font-size:48px}</style><g id="layout"><defs><path id="SVGID_7_" transform="rotate(-50.149 112.264 41.605)" d="M-87.3-178.8h399.1v440.9H-87.3z"/></defs><clipPath id="SVGID_2_"><use xlink:href="#SVGID_7_" overflow="visible"/></clipPath><g clip-path="url(#SVGID_2_)"><defs><path id="SVGID_9_" transform="rotate(-50.149 112.264 41.605)" d="M-87.3-178.8h399.1v440.9H-87.3z"/></defs><clipPath id="SVGID_4_"><use xlink:href="#SVGID_9_" overflow="visible"/></clipPath><g opacity=".1" clip-path="url(#SVGID_4_)"><defs><path id="SVGID_11_" transform="rotate(-50.149 10.457 71.86)" d="M-295.3-224.3h611.5v592.2h-611.5z"/></defs><clipPath id="SVGID_5_"><use xlink:href="#SVGID_11_" overflow="visible"/></clipPath><g clip-path="url(#SVGID_5_)"><defs><path id="SVGID_13_" d="M-184.7 53.6l360.5 255.8 41.3-440h-.5L-184.7 53.5z"/></defs><clipPath id="SVGID_6_"><use xlink:href="#SVGID_13_" overflow="visible"/></clipPath><g clip-path="url(#SVGID_6_)"><defs><path id="SVGID_15_" transform="rotate(-84.648 236.961 121.008) scale(.99996)" d="M-105.3 114.4h684.4v13.2h-684.4z"/></defs><clipPath id="SVGID_8_"><use xlink:href="#SVGID_15_" overflow="visible"/></clipPath><linearGradient id="SVGID_10_" gradientUnits="userSpaceOnUse" x1="2364.099" y1="388.021" x2="2365.656" y2="388.021" gradientTransform="scale(421.145 -421.145) rotate(36.748 1767.132 -3364.835)"><stop offset="0" stop-color="#00aced"/><stop offset=".496" stop-color="#2b2a68"/><stop offset=".995" stop-color="#aa2e8d"/><stop offset="1" stop-color="#aa2e8d"/></linearGradient><path clip-path="url(#SVGID_8_)" fill="url(#SVGID_10_)" d="M-178.4 106.6l519.5-387.9 311.2 416.7-519.5 387.9z"/></g></g><g clip-path="url(#SVGID_5_)"><defs><path id="SVGID_18_" d="M-184.7 53.6l360.5 255.8 41.3-440h-.5L-184.7 53.5z"/></defs><clipPath id="SVGID_12_"><use xlink:href="#SVGID_18_" overflow="visible"/></clipPath><g clip-path="url(#SVGID_12_)"><defs><path id="SVGID_20_" transform="rotate(-84.648 209.926 118.475) scale(.99996)" d="M-132.3 111.9h684.4v13.2h-684.4z"/></defs><clipPath id="SVGID_14_"><use xlink:href="#SVGID_20_" overflow="visible"/></clipPath><linearGradient id="SVGID_16_" gradientUnits="userSpaceOnUse" x1="2364.099" y1="388.064" x2="2365.656" y2="388.064" gradientTransform="scale(421.145 -421.145) rotate(36.748 1767.132 -3364.835)"><stop offset="0" stop-color="#00aced"/><stop offset=".496" stop-color="#2b2a68"/><stop offset=".995" stop-color="#aa2e8d"/><stop offset="1" stop-color="#aa2e8d"/></linearGradient><path clip-path="url(#SVGID_14_)" fill="url(#SVGID_16_)" d="M-205.4 104l519.5-387.9 311.2 416.8-519.5 387.9z"/></g></g><g clip-path="url(#SVGID_5_)"><defs><path id="SVGID_23_" d="M159.2 297.7l12.5 8.8 40.7-435.2-13.8 6.3z"/></defs><clipPath id="SVGID_17_"><use xlink:href="#SVGID_23_" overflow="visible"/></clipPath><linearGradient id="SVGID_19_" gradientUnits="userSpaceOnUse" x1="2364.099" y1="388.153" x2="2365.656" y2="388.153" gradientTransform="scale(421.145 -421.145) rotate(36.748 1767.132 -3364.835)"><stop offset="0" stop-color="#00aced"/><stop offset=".496" stop-color="#2b2a68"/><stop offset=".995" stop-color="#aa2e8d"/><stop offset="1" stop-color="#aa2e8d"/></linearGradient><path clip-path="url(#SVGID_17_)" fill="url(#SVGID_19_)" d="M-74.3 77.4l328.9-245.6L452.6 97 123.7 342.6z"/></g><g clip-path="url(#SVGID_5_)"><defs><path id="SVGID_26_" d="M133.7 279.5l12.4 8.8 37.8-404-13.8 6.4z"/></defs><clipPath id="SVGID_21_"><use xlink:href="#SVGID_26_" overflow="visible"/></clipPath><linearGradient id="SVGID_22_" gradientUnits="userSpaceOnUse" x1="2364.099" y1="388.196" x2="2365.656" y2="388.196" gradientTransform="scale(421.145 -421.145) rotate(36.748 1767.132 -3364.835)"><stop offset="0" stop-color="#00aced"/><stop offset=".496" stop-color="#2b2a68"/><stop offset=".995" stop-color="#aa2e8d"/><stop offset="1" stop-color="#aa2e8d"/></linearGradient><path clip-path="url(#SVGID_21_)" fill="url(#SVGID_22_)" d="M-82.7 75.5l305.5-228.1L406.9 93.9 101.4 322z"/></g><g clip-path="url(#SVGID_5_)"><defs><path id="SVGID_29_" d="M108.1 261.4l12.4 8.8 34.9-372.8-13.8 6.4z"/></defs><clipPath id="SVGID_24_"><use xlink:href="#SVGID_29_" overflow="visible"/></clipPath><linearGradient id="SVGID_25_" gradientUnits="userSpaceOnUse" x1="2364.099" y1="388.24" x2="2365.656" y2="388.24" gradientTransform="scale(421.145 -421.145) rotate(36.748 1767.132 -3364.835)"><stop offset="0" stop-color="#00aced"/><stop offset=".496" stop-color="#2b2a68"/><stop offset=".995" stop-color="#aa2e8d"/><stop offset="1" stop-color="#aa2e8d"/></linearGradient><path clip-path="url(#SVGID_24_)" fill="url(#SVGID_25_)" d="M-91 73.5l282-210.6L361.2 90.8l-282 210.6z"/></g><g clip-path="url(#SVGID_5_)"><defs><path id="SVGID_32_" d="M82.5 243.2l12.4 8.8 32-341.5-13.8 6.3z"/></defs><clipPath id="SVGID_27_"><use xlink:href="#SVGID_32_" overflow="visible"/></clipPath><linearGradient id="SVGID_28_" gradientUnits="userSpaceOnUse" x1="2364.099" y1="388.283" x2="2365.656" y2="388.283" gradientTransform="scale(421.145 -421.145) rotate(36.748 1767.132 -3364.835)"><stop offset="0" stop-color="#00aced"/><stop offset=".496" stop-color="#2b2a68"/><stop offset=".995" stop-color="#aa2e8d"/><stop offset="1" stop-color="#aa2e8d"/></linearGradient><path clip-path="url(#SVGID_27_)" fill="url(#SVGID_28_)" d="M-99.4 71.5l258.6-193L315.5 87.7 56.9 280.8z"/></g><g clip-path="url(#SVGID_5_)"><defs><path id="SVGID_35_" d="M57 225.1l12.4 8.8 29-310.3-13.8 6.3z"/></defs><clipPath id="SVGID_30_"><use xlink:href="#SVGID_35_" overflow="visible"/></clipPath><linearGradient id="SVGID_31_" gradientUnits="userSpaceOnUse" x1="2364.099" y1="388.326" x2="2365.656" y2="388.326" gradientTransform="scale(421.145 -421.145) rotate(36.748 1767.132 -3364.835)"><stop offset="0" stop-color="#00aced"/><stop offset=".496" stop-color="#2b2a68"/><stop offset=".995" stop-color="#aa2e8d"/><stop offset="1" stop-color="#aa2e8d"/></linearGradient><path clip-path="url(#SVGID_30_)" fill="url(#SVGID_31_)" d="M-107.7 69.6L127.4-106 269.8 84.6 34.6 260.2z"/></g><g clip-path="url(#SVGID_5_)"><defs><path id="SVGID_38_" d="M31.4 207l12.4 8.8L69.9-63.3 56.1-57z"/></defs><clipPath id="SVGID_33_"><use xlink:href="#SVGID_38_" overflow="visible"/></clipPath><linearGradient id="SVGID_34_" gradientUnits="userSpaceOnUse" x1="2364.099" y1="388.369" x2="2365.656" y2="388.369" gradientTransform="scale(421.145 -421.145) rotate(36.748 1767.132 -3364.835)"><stop offset="0" stop-color="#00aced"/><stop offset=".496" stop-color="#2b2a68"/><stop offset=".995" stop-color="#aa2e8d"/><stop offset="1" stop-color="#aa2e8d"/></linearGradient><path clip-path="url(#SVGID_33_)" fill="url(#SVGID_34_)" d="M-116.1 67.6L95.6-90.5 224 81.5 12.3 239.6z"/></g><g clip-path="url(#SVGID_5_)"><defs><path id="SVGID_41_" d="M5.8 188.8l12.4 8.8L41.4-50.3l-13.8 6.4z"/></defs><clipPath id="SVGID_36_"><use xlink:href="#SVGID_41_" overflow="visible"/></clipPath><linearGradient id="SVGID_37_" gradientUnits="userSpaceOnUse" x1="2364.099" y1="388.412" x2="2365.656" y2="388.412" gradientTransform="scale(421.145 -421.145) rotate(36.748 1767.132 -3364.835)"><stop offset="0" stop-color="#00aced"/><stop offset=".496" stop-color="#2b2a68"/><stop offset=".995" stop-color="#aa2e8d"/><stop offset="1" stop-color="#aa2e8d"/></linearGradient><path clip-path="url(#SVGID_36_)" fill="url(#SVGID_37_)" d="M-124.5 65.6L63.8-74.9 178.3 78.4-9.9 219z"/></g><g clip-path="url(#SVGID_5_)"><defs><path id="SVGID_44_" d="M-19.8 170.7l12.4 8.8L12.9-37.2-.9-30.8z"/></defs><clipPath id="SVGID_39_"><use xlink:href="#SVGID_44_" overflow="visible"/></clipPath><linearGradient id="SVGID_40_" gradientUnits="userSpaceOnUse" x1="2364.099" y1="388.456" x2="2365.656" y2="388.456" gradientTransform="scale(421.145 -421.145) rotate(36.748 1767.132 -3364.835)"><stop offset="0" stop-color="#00aced"/><stop offset=".496" stop-color="#2b2a68"/><stop offset=".995" stop-color="#aa2e8d"/><stop offset="1" stop-color="#aa2e8d"/></linearGradient><path clip-path="url(#SVGID_39_)" fill="url(#SVGID_40_)" d="M-132.8 63.7L32-59.4 132.6 75.3-32.2 198.4z"/></g><g clip-path="url(#SVGID_5_)"><defs><path id="SVGID_47_" d="M-45.3 152.5l12.4 8.8 17.3-185.4-13.8 6.3z"/></defs><clipPath id="SVGID_42_"><use xlink:href="#SVGID_47_" overflow="visible"/></clipPath><linearGradient id="SVGID_43_" gradientUnits="userSpaceOnUse" x1="2364.099" y1="388.499" x2="2365.656" y2="388.499" gradientTransform="scale(421.145 -421.145) rotate(36.748 1767.132 -3364.835)"><stop offset="0" stop-color="#00aced"/><stop offset=".496" stop-color="#2b2a68"/><stop offset=".995" stop-color="#aa2e8d"/><stop offset="1" stop-color="#aa2e8d"/></linearGradient><path clip-path="url(#SVGID_42_)" fill="url(#SVGID_43_)" d="M-141.2 61.7L.2-43.9 86.9 72.2-54.5 177.8z"/></g><g clip-path="url(#SVGID_5_)"><defs><path id="SVGID_50_" d="M-70.9 134.4l12.4 8.8L-44-11l-13.9 6.3z"/></defs><clipPath id="SVGID_45_"><use xlink:href="#SVGID_50_" overflow="visible"/></clipPath><linearGradient id="SVGID_46_" gradientUnits="userSpaceOnUse" x1="2364.099" y1="388.542" x2="2365.656" y2="388.542" gradientTransform="scale(421.145 -421.145) rotate(36.748 1767.132 -3364.835)"><stop offset="0" stop-color="#00aced"/><stop offset=".496" stop-color="#2b2a68"/><stop offset=".995" stop-color="#aa2e8d"/><stop offset="1" stop-color="#aa2e8d"/></linearGradient><path clip-path="url(#SVGID_45_)" fill="url(#SVGID_46_)" d="M-149.5 59.8l117.9-88.1 72.8 97.4-118 88.1z"/></g></g></g><defs><path id="SVGID_67_" d="M-158.2-822.8h1550v579h-1550z"/></defs><clipPath id="SVGID_48_"><use xlink:href="#SVGID_67_" overflow="visible"/></clipPath><g clip-path="url(#SVGID_48_)"><image width="5319" height="3551" xlink:href="B7785D53.jpg" transform="matrix(-.3148 0 0 .3148 1513.48 -989.77)" overflow="visible"/></g><g clip-path="url(#SVGID_48_)"><image width="5319" height="3551" xlink:href="B7785D51.jpg" transform="matrix(-.3148 0 0 .3148 1662.48 -989.77)" overflow="visible"/></g><g clip-path="url(#SVGID_48_)"><image width="5319" height="3551" xlink:href="B7785D57.jpg" transform="matrix(-.3148 0 0 .3148 1642.48 -989.77)" overflow="visible"/></g><path d="M1056.8 669.2h-864c-4.4 0-8-3.6-8-8v-224c0-4.4 3.6-8 8-8h864c4.4 0 8 3.6 8 8v224c0 4.4-3.5 8-8 8z" fill="#fff"/><linearGradient id="SVGID_49_" gradientUnits="userSpaceOnUse" x1="184.842" y1="549.23" x2="1064.842" y2="549.23"><stop offset="0" stop-color="#a92c8e"/><stop offset=".5" stop-color="#2b2968"/><stop offset=".999" stop-color="#25a7de"/></linearGradient><path d="M1056.8 429.7c4.1 0 7.5 3.4 7.5 7.5v224c0 4.1-3.4 7.5-7.5 7.5h-864c-4.1 0-7.5-3.4-7.5-7.5v-224c0-4.1 3.4-7.5 7.5-7.5h864m0-.5h-864c-4.4 0-8 3.6-8 8v224c0 4.4 3.6 8 8 8h864c4.4 0 8-3.6 8-8v-224c0-4.4-3.5-8-8-8z" fill="url(#SVGID_49_)"/><text transform="translate(202.67 601.118)" font-size="156.72" font-family="GothamPro-Black" fill="#aa2e8e">-10%</text><text transform="translate(330.374 -37.548)"><tspan x="0" y="0" class="st127 st128 st129">Изготовление УФ оборудования </tspan><tspan x="422.4" y="60" class="st127 st128 st129">любой сложности</tspan></text><defs><path id="SVGID_287_" transform="rotate(-57.837 285.272 266.688)" d="M153.2 147.7h264.1v237.9H153.2z"/></defs><clipPath id="SVGID_51_"><use xlink:href="#SVGID_287_" overflow="visible"/></clipPath><g clip-path="url(#SVGID_51_)"><defs><path id="SVGID_289_" transform="rotate(-57.837 285.272 266.688)" d="M153.2 147.7h264.1v237.9H153.2z"/></defs><clipPath id="SVGID_52_"><use xlink:href="#SVGID_289_" overflow="visible"/></clipPath><g clip-path="url(#SVGID_52_)"><defs><path id="SVGID_291_" transform="rotate(-57.837 289.856 260.459)" d="M137.3 130.6h305.2v259.7H137.3z"/></defs><clipPath id="SVGID_54_"><use xlink:href="#SVGID_291_" overflow="visible"/></clipPath><g clip-path="url(#SVGID_54_)"><defs><path id="SVGID_293_" d="M394.5 316.4L254.9 91.6 130 324.8l.2.1 264.2-8.4z"/></defs><clipPath id="SVGID_55_"><use xlink:href="#SVGID_293_" overflow="visible"/></clipPath><g clip-path="url(#SVGID_55_)"><defs><path id="SVGID_295_" transform="rotate(-61.836 191.719 189.026)" d="M-13.1 185.1h409.7v7.9H-13.1z"/></defs><clipPath id="SVGID_57_"><use xlink:href="#SVGID_295_" overflow="visible"/></clipPath><linearGradient id="SVGID_58_" gradientUnits="userSpaceOnUse" x1="2353.927" y1="387.526" x2="2355.281" y2="387.526" gradientTransform="scale(-289.9518 289.9518) rotate(13.936 2759.612 -9440.672)"><stop offset="0" stop-color="#00aced"/><stop offset=".496" stop-color="#2b2a68"/><stop offset=".995" stop-color="#aa2e8d"/><stop offset="1" stop-color="#aa2e8d"/></linearGradient><path clip-path="url(#SVGID_57_)" fill="url(#SVGID_58_)" d="M384.4 300.9L73.7 378.1-1 77.1 309.8 0z"/></g></g><g clip-path="url(#SVGID_54_)"><defs><path id="SVGID_298_" d="M261.3 101.9l-4.8-7.7L133 324.9l9.1-.3z"/></defs><clipPath id="SVGID_60_"><use xlink:href="#SVGID_298_" overflow="visible"/></clipPath><linearGradient id="SVGID_61_" gradientUnits="userSpaceOnUse" x1="2353.927" y1="387.606" x2="2355.281" y2="387.606" gradientTransform="scale(-289.9518 289.9518) rotate(13.936 2759.612 -9440.672)"><stop offset="0" stop-color="#00aced"/><stop offset=".496" stop-color="#2b2a68"/><stop offset=".995" stop-color="#aa2e8d"/><stop offset="1" stop-color="#aa2e8d"/></linearGradient><path clip-path="url(#SVGID_60_)" fill="url(#SVGID_61_)" d="M321.9 283.6L122 333.2 73.9 139.5l199.9-49.6z"/></g><g clip-path="url(#SVGID_54_)"><defs><path id="SVGID_301_" d="M271.2 117.9l-4.8-7.8-114.7 214.2 9.1-.3z"/></defs><clipPath id="SVGID_63_"><use xlink:href="#SVGID_301_" overflow="visible"/></clipPath><linearGradient id="SVGID_64_" gradientUnits="userSpaceOnUse" x1="2353.927" y1="387.644" x2="2355.281" y2="387.644" gradientTransform="scale(-289.9518 289.9518) rotate(13.936 2759.612 -9440.672)"><stop offset="0" stop-color="#00aced"/><stop offset=".496" stop-color="#2b2a68"/><stop offset=".995" stop-color="#aa2e8d"/><stop offset="1" stop-color="#aa2e8d"/></linearGradient><path clip-path="url(#SVGID_63_)" fill="url(#SVGID_64_)" d="M327.6 286.2l-186 46.2-44.7-180.2 186-46.2z"/></g><g clip-path="url(#SVGID_54_)"><defs><path id="SVGID_304_" d="M281.1 133.8l-4.8-7.7-105.8 197.6 9.1-.3z"/></defs><clipPath id="SVGID_65_"><use xlink:href="#SVGID_304_" overflow="visible"/></clipPath><linearGradient id="SVGID_66_" gradientUnits="userSpaceOnUse" x1="2353.927" y1="387.681" x2="2355.281" y2="387.681" gradientTransform="scale(-289.9518 289.9518) rotate(13.936 2759.612 -9440.672)"><stop offset="0" stop-color="#00aced"/><stop offset=".496" stop-color="#2b2a68"/><stop offset=".995" stop-color="#aa2e8d"/><stop offset="1" stop-color="#aa2e8d"/></linearGradient><path clip-path="url(#SVGID_65_)" fill="url(#SVGID_66_)" d="M333.2 288.9l-171.9 42.6-41.4-166.6 172-42.7z"/></g><g clip-path="url(#SVGID_54_)"><defs><path id="SVGID_307_" d="M291 149.7l-4.8-7.7-97 181.1 9.1-.3z"/></defs><clipPath id="SVGID_68_"><use xlink:href="#SVGID_307_" overflow="visible"/></clipPath><linearGradient id="SVGID_70_" gradientUnits="userSpaceOnUse" x1="2353.927" y1="387.719" x2="2355.281" y2="387.719" gradientTransform="scale(-289.9518 289.9518) rotate(13.936 2759.612 -9440.672)"><stop offset="0" stop-color="#00aced"/><stop offset=".496" stop-color="#2b2a68"/><stop offset=".995" stop-color="#aa2e8d"/><stop offset="1" stop-color="#aa2e8d"/></linearGradient><path clip-path="url(#SVGID_68_)" fill="url(#SVGID_70_)" d="M338.9 291.5l-158 39.2-38-153.1 158-39.2z"/></g><g clip-path="url(#SVGID_54_)"><defs><path id="SVGID_310_" d="M300.9 165.7l-4.8-7.7L208 322.5l9.1-.3z"/></defs><clipPath id="SVGID_72_"><use xlink:href="#SVGID_310_" overflow="visible"/></clipPath><linearGradient id="SVGID_74_" gradientUnits="userSpaceOnUse" x1="2353.927" y1="387.757" x2="2355.281" y2="387.757" gradientTransform="scale(-289.9518 289.9518) rotate(13.936 2759.612 -9440.672)"><stop offset="0" stop-color="#00aced"/><stop offset=".496" stop-color="#2b2a68"/><stop offset=".995" stop-color="#aa2e8d"/><stop offset="1" stop-color="#aa2e8d"/></linearGradient><path clip-path="url(#SVGID_72_)" fill="url(#SVGID_74_)" d="M344.6 294.2l-144 35.7-34.7-139.6 144-35.8z"/></g><g clip-path="url(#SVGID_54_)"><defs><path id="SVGID_313_" d="M310.8 181.6l-4.8-7.7-79.2 147.9 9.1-.2z"/></defs><clipPath id="SVGID_76_"><use xlink:href="#SVGID_313_" overflow="visible"/></clipPath><linearGradient id="SVGID_78_" gradientUnits="userSpaceOnUse" x1="2353.927" y1="387.794" x2="2355.281" y2="387.794" gradientTransform="scale(-289.9518 289.9518) rotate(13.936 2759.612 -9440.672)"><stop offset="0" stop-color="#00aced"/><stop offset=".496" stop-color="#2b2a68"/><stop offset=".995" stop-color="#aa2e8d"/><stop offset="1" stop-color="#aa2e8d"/></linearGradient><path clip-path="url(#SVGID_76_)" fill="url(#SVGID_78_)" d="M350.2 296.8l-130 32.3L188.9 203l130-32.3z"/></g><g clip-path="url(#SVGID_54_)"><defs><path id="SVGID_316_" d="M320.7 197.6l-4.8-7.8-70.4 131.4 9.1-.2z"/></defs><clipPath id="SVGID_80_"><use xlink:href="#SVGID_316_" overflow="visible"/></clipPath><linearGradient id="SVGID_82_" gradientUnits="userSpaceOnUse" x1="2353.927" y1="387.832" x2="2355.281" y2="387.832" gradientTransform="scale(-289.9518 289.9518) rotate(13.936 2759.612 -9440.672)"><stop offset="0" stop-color="#00aced"/><stop offset=".496" stop-color="#2b2a68"/><stop offset=".995" stop-color="#aa2e8d"/><stop offset="1" stop-color="#aa2e8d"/></linearGradient><path clip-path="url(#SVGID_80_)" fill="url(#SVGID_82_)" d="M355.9 299.5l-116.1 28.8-27.9-112.7L328 186.9z"/></g><g clip-path="url(#SVGID_54_)"><defs><path id="SVGID_319_" d="M330.6 213.5l-4.8-7.7-61.5 114.8 9.1-.2z"/></defs><clipPath id="SVGID_83_"><use xlink:href="#SVGID_319_" overflow="visible"/></clipPath><linearGradient id="SVGID_85_" gradientUnits="userSpaceOnUse" x1="2353.927" y1="387.869" x2="2355.281" y2="387.869" gradientTransform="scale(-289.9518 289.9518) rotate(13.936 2759.612 -9440.672)"><stop offset="0" stop-color="#00aced"/><stop offset=".496" stop-color="#2b2a68"/><stop offset=".995" stop-color="#aa2e8d"/><stop offset="1" stop-color="#aa2e8d"/></linearGradient><path clip-path="url(#SVGID_83_)" fill="url(#SVGID_85_)" d="M361.6 302.1l-102.1 25.3-24.6-99.1L337 203z"/></g><g clip-path="url(#SVGID_54_)"><defs><path id="SVGID_322_" d="M340.5 229.5l-4.8-7.8L283 320l9.2-.2z"/></defs><clipPath id="SVGID_87_"><use xlink:href="#SVGID_322_" overflow="visible"/></clipPath><linearGradient id="SVGID_88_" gradientUnits="userSpaceOnUse" x1="2353.927" y1="387.907" x2="2355.281" y2="387.907" gradientTransform="scale(-289.9518 289.9518) rotate(13.936 2759.612 -9440.672)"><stop offset="0" stop-color="#00aced"/><stop offset=".496" stop-color="#2b2a68"/><stop offset=".995" stop-color="#aa2e8d"/><stop offset="1" stop-color="#aa2e8d"/></linearGradient><path clip-path="url(#SVGID_87_)" fill="url(#SVGID_88_)" d="M367.2 304.8l-88.1 21.8-21.2-85.6 88.1-21.8z"/></g><g clip-path="url(#SVGID_54_)"><defs><path id="SVGID_325_" d="M350.4 245.4l-4.8-7.7-43.8 81.7 9.1-.2z"/></defs><clipPath id="SVGID_90_"><use xlink:href="#SVGID_325_" overflow="visible"/></clipPath><linearGradient id="SVGID_91_" gradientUnits="userSpaceOnUse" x1="2353.927" y1="387.944" x2="2355.281" y2="387.944" gradientTransform="scale(-289.9518 289.9518) rotate(13.936 2759.612 -9440.672)"><stop offset="0" stop-color="#00aced"/><stop offset=".496" stop-color="#2b2a68"/><stop offset=".995" stop-color="#aa2e8d"/><stop offset="1" stop-color="#aa2e8d"/></linearGradient><path clip-path="url(#SVGID_90_)" fill="url(#SVGID_91_)" d="M372.9 307.4l-74.1 18.4-17.9-72.1 74.1-18.4z"/></g><g clip-path="url(#SVGID_54_)"><defs><path id="SVGID_328_" d="M360.3 261.4l-4.8-7.8-34.9 65.2 9.1-.2z"/></defs><clipPath id="SVGID_93_"><use xlink:href="#SVGID_328_" overflow="visible"/></clipPath><linearGradient id="SVGID_94_" gradientUnits="userSpaceOnUse" x1="2353.927" y1="387.982" x2="2355.281" y2="387.982" gradientTransform="scale(-289.9518 289.9518) rotate(13.936 2759.612 -9440.672)"><stop offset="0" stop-color="#00aced"/><stop offset=".496" stop-color="#2b2a68"/><stop offset=".995" stop-color="#aa2e8d"/><stop offset="1" stop-color="#aa2e8d"/></linearGradient><path clip-path="url(#SVGID_93_)" fill="url(#SVGID_94_)" d="M378.6 310.1L318.4 325l-14.5-58.6 60.1-14.9z"/></g><g clip-path="url(#SVGID_54_)"><defs><path id="SVGID_331_" d="M370.2 277.3l-4.8-7.7-26.1 48.6 9.1-.3z"/></defs><clipPath id="SVGID_96_"><use xlink:href="#SVGID_331_" overflow="visible"/></clipPath><linearGradient id="SVGID_97_" gradientUnits="userSpaceOnUse" x1="2353.927" y1="388.02" x2="2355.281" y2="388.02" gradientTransform="scale(-289.9518 289.9518) rotate(13.936 2759.612 -9440.672)"><stop offset="0" stop-color="#00aced"/><stop offset=".496" stop-color="#2b2a68"/><stop offset=".995" stop-color="#aa2e8d"/><stop offset="1" stop-color="#aa2e8d"/></linearGradient><path clip-path="url(#SVGID_96_)" fill="url(#SVGID_97_)" d="M384.2 312.7L338 324.2l-11.1-45.1 46.2-11.4z"/></g><g clip-path="url(#SVGID_54_)"><defs><path id="SVGID_334_" d="M380.1 293.3l-4.8-7.8-17.2 32.1 9.1-.3z"/></defs><clipPath id="SVGID_99_"><use xlink:href="#SVGID_334_" overflow="visible"/></clipPath><linearGradient id="SVGID_100_" gradientUnits="userSpaceOnUse" x1="2353.927" y1="388.057" x2="2355.281" y2="388.057" gradientTransform="scale(-289.9518 289.9518) rotate(13.936 2759.612 -9440.672)"><stop offset="0" stop-color="#00aced"/><stop offset=".496" stop-color="#2b2a68"/><stop offset=".995" stop-color="#aa2e8d"/><stop offset="1" stop-color="#aa2e8d"/></linearGradient><path clip-path="url(#SVGID_99_)" fill="url(#SVGID_100_)" d="M389.9 315.4l-32.2 7.9-7.8-31.5 32.2-8z"/></g><g clip-path="url(#SVGID_54_)"><defs><path id="SVGID_337_" d="M390 309.2l-4.8-7.7-8.4 15.5 9.2-.3z"/></defs><clipPath id="SVGID_102_"><use xlink:href="#SVGID_337_" overflow="visible"/></clipPath><linearGradient id="SVGID_103_" gradientUnits="userSpaceOnUse" x1="2353.927" y1="388.095" x2="2355.281" y2="388.095" gradientTransform="scale(-289.9518 289.9518) rotate(13.936 2759.612 -9440.672)"><stop offset="0" stop-color="#00aced"/><stop offset=".496" stop-color="#2b2a68"/><stop offset=".995" stop-color="#aa2e8d"/><stop offset="1" stop-color="#aa2e8d"/></linearGradient><path clip-path="url(#SVGID_102_)" fill="url(#SVGID_103_)" d="M395.6 318l-18.3 4.5-4.4-18 18.2-4.5z"/></g></g></g></g><path d="M-83.2-807.8h100v4559h-100zm120 0h100v4559h-100zm120 0h100v4559h-100zm120 0h100v4559h-100zm120 0h100v4559h-100z" opacity=".1" fill="red" id="grid"/></svg>