<svg xmlns="http://www.w3.org/2000/svg" xmlns:xlink="http://www.w3.org/1999/xlink" viewBox="0 0 223 204" class="mdl-js" opacity=".8"><defs><path id="a" transform="rotate(-4.266 118.142 108.463) scale(.99997)" d="M4.8 6.4h226.6v204.2H4.8z"/></defs><clipPath id="b"><use xlink:href="#a" overflow="visible"/></clipPath><g clip-path="url(#b)"><defs><path id="c" transform="rotate(-4.266 118.142 108.463) scale(.99997)" d="M4.8 6.4h226.6v204.2H4.8z"/></defs><clipPath id="d"><use xlink:href="#c" overflow="visible"/></clipPath><g clip-path="url(#d)"><defs><path id="e" transform="rotate(-4.266 124.779 108.453) scale(.99997)" d="M-6.2-3h261.9v222.9H-6.2z"/></defs><clipPath id="f"><use xlink:href="#e" overflow="visible"/></clipPath><g clip-path="url(#f)"><defs><path id="g" d="M139.5 209.2l84.1-211L-1.1 30.9v.2l140.5 178.1z"/></defs><clipPath id="h"><use xlink:href="#g" overflow="visible"/></clipPath><g clip-path="url(#h)"><defs><path id="i" transform="rotate(-8.27 124.052 4.305)" d="M-51.7.9h351.6v6.8H-51.7z"/></defs><clipPath id="j"><use xlink:href="#i" overflow="visible"/></clipPath><linearGradient id="k" gradientUnits="userSpaceOnUse" x1="3868.924" y1="-847.926" x2="3870.086" y2="-847.926" gradientTransform="scale(-289.952 289.952) rotate(-39.635 3110.945 4945.255)"><stop offset="0" stop-color="#00aced"/><stop offset=".496" stop-color="#2b2a68"/><stop offset=".995" stop-color="#aa2e8d"/><stop offset="1" stop-color="#aa2e8d"/></linearGradient><path clip-path="url(#j)" fill="url(#k)" d="M145 194.4L-66.6 19.1l169.7-204.9L314.8-10.5z"/></g></g><g clip-path="url(#f)"><defs><path id="l" d="M219.7 7.9l2.9-7.2L.4 32.9l4.8 6.2z"/></defs><clipPath id="m"><use xlink:href="#l" overflow="visible"/></clipPath><linearGradient id="n" gradientUnits="userSpaceOnUse" x1="3868.924" y1="-847.857" x2="3870.086" y2="-847.857" gradientTransform="scale(-289.952 289.952) rotate(-39.635 3110.945 4945.255)"><stop offset="0" stop-color="#00aced"/><stop offset=".496" stop-color="#2b2a68"/><stop offset=".995" stop-color="#aa2e8d"/><stop offset="1" stop-color="#aa2e8d"/></linearGradient><path clip-path="url(#m)" fill="url(#n)" d="M125.1 142.4L-11 29.6 98.3-102.3 234.4 10.5z"/></g><g clip-path="url(#f)"><defs><path id="o" d="M213.7 22.9l2.9-7.3-206.3 30 4.9 6.1z"/></defs><clipPath id="p"><use xlink:href="#o" overflow="visible"/></clipPath><linearGradient id="q" gradientUnits="userSpaceOnUse" x1="3868.924" y1="-847.825" x2="3870.086" y2="-847.825" gradientTransform="scale(-289.952 289.952) rotate(-39.635 3110.945 4945.255)"><stop offset="0" stop-color="#00aced"/><stop offset=".496" stop-color="#2b2a68"/><stop offset=".995" stop-color="#aa2e8d"/><stop offset="1" stop-color="#aa2e8d"/></linearGradient><path clip-path="url(#p)" fill="url(#q)" d="M126.2 147.6L-.4 42.8 101.2-80 227.8 24.9z"/></g><g clip-path="url(#f)"><defs><path id="r" d="M207.8 37.9l2.9-7.3L20.3 58.2l4.8 6.2z"/></defs><clipPath id="s"><use xlink:href="#r" overflow="visible"/></clipPath><linearGradient id="t" gradientUnits="userSpaceOnUse" x1="3868.924" y1="-847.793" x2="3870.086" y2="-847.793" gradientTransform="scale(-289.952 289.952) rotate(-39.635 3110.945 4945.255)"><stop offset="0" stop-color="#00aced"/><stop offset=".496" stop-color="#2b2a68"/><stop offset=".995" stop-color="#aa2e8d"/><stop offset="1" stop-color="#aa2e8d"/></linearGradient><path clip-path="url(#s)" fill="url(#t)" d="M127.3 152.9l-117.1-97 94-113.5 117.1 97z"/></g><g clip-path="url(#f)"><defs><path id="u" d="M201.8 52.8l2.9-7.2L30.3 70.9l4.8 6.1z"/></defs><clipPath id="v"><use xlink:href="#u" overflow="visible"/></clipPath><linearGradient id="w" gradientUnits="userSpaceOnUse" x1="3868.924" y1="-847.76" x2="3870.086" y2="-847.76" gradientTransform="scale(-289.952 289.952) rotate(-39.635 3110.945 4945.255)"><stop offset="0" stop-color="#00aced"/><stop offset=".496" stop-color="#2b2a68"/><stop offset=".995" stop-color="#aa2e8d"/><stop offset="1" stop-color="#aa2e8d"/></linearGradient><path clip-path="url(#v)" fill="url(#w)" d="M128.3 158.2L20.7 69l86.4-104.3 107.6 89.2z"/></g><g clip-path="url(#f)"><defs><path id="x" d="M195.8 67.8l2.9-7.3-158.4 23 4.8 6.2z"/></defs><clipPath id="y"><use xlink:href="#x" overflow="visible"/></clipPath><linearGradient id="z" gradientUnits="userSpaceOnUse" x1="3868.924" y1="-847.728" x2="3870.086" y2="-847.728" gradientTransform="scale(-289.952 289.952) rotate(-39.635 3110.945 4945.255)"><stop offset="0" stop-color="#00aced"/><stop offset=".496" stop-color="#2b2a68"/><stop offset=".995" stop-color="#aa2e8d"/><stop offset="1" stop-color="#aa2e8d"/></linearGradient><path clip-path="url(#y)" fill="url(#z)" d="M129.4 163.4L31.3 82.2l78.8-95.1 98 81.2z"/></g><g clip-path="url(#f)"><defs><path id="A" d="M189.9 82.7l2.9-7.2L50.2 96.2l4.9 6.1z"/></defs><clipPath id="B"><use xlink:href="#A" overflow="visible"/></clipPath><linearGradient id="C" gradientUnits="userSpaceOnUse" x1="3868.924" y1="-847.696" x2="3870.086" y2="-847.696" gradientTransform="scale(-289.952 289.952) rotate(-39.635 3110.945 4945.255)"><stop offset="0" stop-color="#00aced"/><stop offset=".496" stop-color="#2b2a68"/><stop offset=".995" stop-color="#aa2e8d"/><stop offset="1" stop-color="#aa2e8d"/></linearGradient><path clip-path="url(#B)" fill="url(#C)" d="M130.4 168.7L41.9 95.3 113 9.4l88.6 73.4z"/></g><g clip-path="url(#f)"><defs><path id="D" d="M183.9 97.7l2.9-7.3-126.6 18.4 4.9 6.2z"/></defs><clipPath id="E"><use xlink:href="#D" overflow="visible"/></clipPath><linearGradient id="F" gradientUnits="userSpaceOnUse" x1="3868.924" y1="-847.664" x2="3870.086" y2="-847.664" gradientTransform="scale(-289.952 289.952) rotate(-39.635 3110.945 4945.255)"><stop offset="0" stop-color="#00aced"/><stop offset=".496" stop-color="#2b2a68"/><stop offset=".995" stop-color="#aa2e8d"/><stop offset="1" stop-color="#aa2e8d"/></linearGradient><path clip-path="url(#E)" fill="url(#F)" d="M131.5 173.9l-79-65.4L116 31.8l79 65.5z"/></g><g clip-path="url(#f)"><defs><path id="G" d="M177.9 112.7l2.9-7.3-110.6 16.1 4.8 6.1z"/></defs><clipPath id="H"><use xlink:href="#G" overflow="visible"/></clipPath><linearGradient id="I" gradientUnits="userSpaceOnUse" x1="3868.924" y1="-847.631" x2="3870.086" y2="-847.631" gradientTransform="scale(-289.952 289.952) rotate(-39.635 3110.945 4945.255)"><stop offset="0" stop-color="#00aced"/><stop offset=".496" stop-color="#2b2a68"/><stop offset=".995" stop-color="#aa2e8d"/><stop offset="1" stop-color="#aa2e8d"/></linearGradient><path clip-path="url(#H)" fill="url(#I)" d="M132.6 179.2L63 121.6l55.9-67.5 69.6 57.6z"/></g><g clip-path="url(#f)"><defs><path id="J" d="M172 127.6l2.9-7.2-94.7 13.7 4.8 6.2z"/></defs><clipPath id="K"><use xlink:href="#J" overflow="visible"/></clipPath><linearGradient id="L" gradientUnits="userSpaceOnUse" x1="3868.924" y1="-847.599" x2="3870.086" y2="-847.599" gradientTransform="scale(-289.952 289.952) rotate(-39.635 3110.945 4945.255)"><stop offset="0" stop-color="#00aced"/><stop offset=".496" stop-color="#2b2a68"/><stop offset=".995" stop-color="#aa2e8d"/><stop offset="1" stop-color="#aa2e8d"/></linearGradient><path clip-path="url(#K)" fill="url(#L)" d="M133.6 184.5l-60-49.7 48.3-58.3 60 49.7z"/></g><g clip-path="url(#f)"><defs><path id="M" d="M166 142.6l2.9-7.3-78.8 11.5 4.9 6.1z"/></defs><clipPath id="N"><use xlink:href="#M" overflow="visible"/></clipPath><linearGradient id="O" gradientUnits="userSpaceOnUse" x1="3868.924" y1="-847.567" x2="3870.086" y2="-847.567" gradientTransform="scale(-289.952 289.952) rotate(-39.635 3110.945 4945.255)"><stop offset="0" stop-color="#00aced"/><stop offset=".496" stop-color="#2b2a68"/><stop offset=".995" stop-color="#aa2e8d"/><stop offset="1" stop-color="#aa2e8d"/></linearGradient><path clip-path="url(#N)" fill="url(#O)" d="M134.7 189.7l-50.5-41.8 40.6-49.1 50.5 41.9z"/></g><g clip-path="url(#f)"><defs><path id="P" d="M160 157.6l2.9-7.3-62.8 9.1 4.9 6.2z"/></defs><clipPath id="Q"><use xlink:href="#P" overflow="visible"/></clipPath><linearGradient id="R" gradientUnits="userSpaceOnUse" x1="3868.924" y1="-847.534" x2="3870.086" y2="-847.534" gradientTransform="scale(-289.952 289.952) rotate(-39.635 3110.945 4945.255)"><stop offset="0" stop-color="#00aced"/><stop offset=".496" stop-color="#2b2a68"/><stop offset=".995" stop-color="#aa2e8d"/><stop offset="1" stop-color="#aa2e8d"/></linearGradient><path clip-path="url(#Q)" fill="url(#R)" d="M135.7 195l-40.9-33.9 33-39.9 41 33.9z"/></g><g clip-path="url(#f)"><defs><path id="S" d="M154.1 172.5l2.9-7.2-46.9 6.8 4.8 6.1z"/></defs><clipPath id="T"><use xlink:href="#S" overflow="visible"/></clipPath><linearGradient id="U" gradientUnits="userSpaceOnUse" x1="3868.924" y1="-847.502" x2="3870.086" y2="-847.502" gradientTransform="scale(-289.952 289.952) rotate(-39.635 3110.945 4945.255)"><stop offset="0" stop-color="#00aced"/><stop offset=".496" stop-color="#2b2a68"/><stop offset=".995" stop-color="#aa2e8d"/><stop offset="1" stop-color="#aa2e8d"/></linearGradient><path clip-path="url(#T)" fill="url(#U)" d="M136.8 200.3l-31.5-26.1 25.4-30.7 31.5 26.1z"/></g><g clip-path="url(#f)"><defs><path id="V" d="M148.1 187.5l2.9-7.3-30.9 4.5 4.8 6.2z"/></defs><clipPath id="W"><use xlink:href="#V" overflow="visible"/></clipPath><linearGradient id="X" gradientUnits="userSpaceOnUse" x1="3868.924" y1="-847.47" x2="3870.086" y2="-847.47" gradientTransform="scale(-289.952 289.952) rotate(-39.635 3110.945 4945.255)"><stop offset="0" stop-color="#00aced"/><stop offset=".496" stop-color="#2b2a68"/><stop offset=".995" stop-color="#aa2e8d"/><stop offset="1" stop-color="#aa2e8d"/></linearGradient><path clip-path="url(#W)" fill="url(#X)" d="M137.9 205.5l-22-18.2 17.8-21.4 21.9 18.2z"/></g><g clip-path="url(#f)"><defs><path id="Y" d="M142.1 202.4l2.9-7.2-15 2.2 4.9 6.1z"/></defs><clipPath id="Z"><use xlink:href="#Y" overflow="visible"/></clipPath><linearGradient id="aa" gradientUnits="userSpaceOnUse" x1="3868.924" y1="-847.438" x2="3870.086" y2="-847.438" gradientTransform="scale(-289.952 289.952) rotate(-39.635 3110.945 4945.255)"><stop offset="0" stop-color="#00aced"/><stop offset=".496" stop-color="#2b2a68"/><stop offset=".995" stop-color="#aa2e8d"/><stop offset="1" stop-color="#aa2e8d"/></linearGradient><path clip-path="url(#Z)" fill="url(#aa)" d="M138.9 210.8l-12.4-10.3 10.1-12.3 12.5 10.3z"/></g></g></g></svg>