<svg xmlns="http://www.w3.org/2000/svg" xmlns:xlink="http://www.w3.org/1999/xlink" viewBox="0 0 258 231"><defs><path id="a" transform="rotate(-57.837 152.429 172.454)" d="M20.4 53.5h264.1v237.9H20.4z"/></defs><clipPath id="b"><use xlink:href="#a" overflow="visible"/></clipPath><g clip-path="url(#b)"><defs><path id="c" transform="rotate(-57.837 152.429 172.454)" d="M20.4 53.5h264.1v237.9H20.4z"/></defs><clipPath id="d"><use xlink:href="#c" overflow="visible"/></clipPath><g clip-path="url(#d)"><defs><path id="e" transform="rotate(-57.837 157.012 166.225)" d="M4.4 36.4h305.2v259.7H4.4z"/></defs><clipPath id="f"><use xlink:href="#e" overflow="visible"/></clipPath><g clip-path="url(#f)"><defs><path id="g" d="M261.6 222.2L122-2.7-2.9 230.6l.3.1 264.2-8.5z"/></defs><clipPath id="h"><use xlink:href="#g" overflow="visible"/></clipPath><g clip-path="url(#h)"><defs><path id="i" transform="rotate(-61.836 58.877 94.796)" d="M-146 90.9h409.7v7.9H-146z"/></defs><clipPath id="j"><use xlink:href="#i" overflow="visible"/></clipPath><linearGradient id="k" gradientUnits="userSpaceOnUse" x1="3039.866" y1="232.819" x2="3041.22" y2="232.819" gradientTransform="scale(-289.9518 289.9518) rotate(13.936 2471.21 -12322.6)"><stop offset="0" stop-color="#00aced"/><stop offset=".496" stop-color="#2b2a68"/><stop offset=".995" stop-color="#aa2e8d"/><stop offset="1" stop-color="#aa2e8d"/></linearGradient><path clip-path="url(#j)" fill="url(#k)" d="M251.6 206.7l-310.8 77.1-74.6-300.9 310.7-77.1z"/></g></g><g clip-path="url(#f)"><defs><path id="l" d="M128.4 7.7l-4.8-7.8L.1 230.6l9.1-.3z"/></defs><clipPath id="m"><use xlink:href="#l" overflow="visible"/></clipPath><linearGradient id="n" gradientUnits="userSpaceOnUse" x1="3039.866" y1="232.899" x2="3041.22" y2="232.899" gradientTransform="scale(-289.9518 289.9518) rotate(13.936 2471.21 -12322.6)"><stop offset="0" stop-color="#00aced"/><stop offset=".496" stop-color="#2b2a68"/><stop offset=".995" stop-color="#aa2e8d"/><stop offset="1" stop-color="#aa2e8d"/></linearGradient><path clip-path="url(#m)" fill="url(#n)" d="M189.1 189.3l-200 49.7-48-193.8L141-4.4z"/></g><g clip-path="url(#f)"><defs><path id="o" d="M138.3 23.6l-4.8-7.7L18.9 230l9.1-.3z"/></defs><clipPath id="p"><use xlink:href="#o" overflow="visible"/></clipPath><linearGradient id="q" gradientUnits="userSpaceOnUse" x1="3039.866" y1="232.937" x2="3041.22" y2="232.937" gradientTransform="scale(-289.9518 289.9518) rotate(13.936 2471.21 -12322.6)"><stop offset="0" stop-color="#00aced"/><stop offset=".496" stop-color="#2b2a68"/><stop offset=".995" stop-color="#aa2e8d"/><stop offset="1" stop-color="#aa2e8d"/></linearGradient><path clip-path="url(#p)" fill="url(#q)" d="M194.7 192L8.8 238.1-35.9 57.9 150 11.8z"/></g><g clip-path="url(#f)"><defs><path id="r" d="M148.2 39.6l-4.8-7.8L37.6 229.4l9.1-.3z"/></defs><clipPath id="s"><use xlink:href="#r" overflow="visible"/></clipPath><linearGradient id="t" gradientUnits="userSpaceOnUse" x1="3039.866" y1="232.974" x2="3041.22" y2="232.974" gradientTransform="scale(-289.9518 289.9518) rotate(13.936 2471.21 -12322.6)"><stop offset="0" stop-color="#00aced"/><stop offset=".496" stop-color="#2b2a68"/><stop offset=".995" stop-color="#aa2e8d"/><stop offset="1" stop-color="#aa2e8d"/></linearGradient><path clip-path="url(#s)" fill="url(#t)" d="M200.4 194.6l-172 42.7-41.3-166.7L159 28z"/></g><g clip-path="url(#f)"><defs><path id="u" d="M158.1 55.5l-4.8-7.7-96.9 181 9.1-.3z"/></defs><clipPath id="v"><use xlink:href="#u" overflow="visible"/></clipPath><linearGradient id="w" gradientUnits="userSpaceOnUse" x1="3039.866" y1="233.012" x2="3041.22" y2="233.012" gradientTransform="scale(-289.9518 289.9518) rotate(13.936 2471.21 -12322.6)"><stop offset="0" stop-color="#00aced"/><stop offset=".496" stop-color="#2b2a68"/><stop offset=".995" stop-color="#aa2e8d"/><stop offset="1" stop-color="#aa2e8d"/></linearGradient><path clip-path="url(#v)" fill="url(#w)" d="M206.1 197.3l-158 39.2-38-153.2 158-39.2z"/></g><g clip-path="url(#f)"><defs><path id="x" d="M168 71.5l-4.8-7.8-88 164.5 9.1-.3z"/></defs><clipPath id="y"><use xlink:href="#x" overflow="visible"/></clipPath><linearGradient id="z" gradientUnits="userSpaceOnUse" x1="3039.866" y1="233.049" x2="3041.22" y2="233.049" gradientTransform="scale(-289.9518 289.9518) rotate(13.936 2471.21 -12322.6)"><stop offset="0" stop-color="#00aced"/><stop offset=".496" stop-color="#2b2a68"/><stop offset=".995" stop-color="#aa2e8d"/><stop offset="1" stop-color="#aa2e8d"/></linearGradient><path clip-path="url(#y)" fill="url(#z)" d="M211.7 199.9l-144 35.8L33.1 96l144-35.7z"/></g><g clip-path="url(#f)"><defs><path id="A" d="M177.9 87.4l-4.8-7.7-79.2 147.9 9.1-.3z"/></defs><clipPath id="B"><use xlink:href="#A" overflow="visible"/></clipPath><linearGradient id="C" gradientUnits="userSpaceOnUse" x1="3039.866" y1="233.087" x2="3041.22" y2="233.087" gradientTransform="scale(-289.9518 289.9518) rotate(13.936 2471.21 -12322.6)"><stop offset="0" stop-color="#00aced"/><stop offset=".496" stop-color="#2b2a68"/><stop offset=".995" stop-color="#aa2e8d"/><stop offset="1" stop-color="#aa2e8d"/></linearGradient><path clip-path="url(#B)" fill="url(#C)" d="M217.4 202.6l-130 32.3-31.3-126.2 130-32.2z"/></g><g clip-path="url(#f)"><defs><path id="D" d="M187.8 103.4l-4.8-7.8L112.7 227l9.1-.3z"/></defs><clipPath id="E"><use xlink:href="#D" overflow="visible"/></clipPath><linearGradient id="F" gradientUnits="userSpaceOnUse" x1="3039.866" y1="233.125" x2="3041.22" y2="233.125" gradientTransform="scale(-289.9518 289.9518) rotate(13.936 2471.21 -12322.6)"><stop offset="0" stop-color="#00aced"/><stop offset=".496" stop-color="#2b2a68"/><stop offset=".995" stop-color="#aa2e8d"/><stop offset="1" stop-color="#aa2e8d"/></linearGradient><path clip-path="url(#E)" fill="url(#F)" d="M223.1 205.2L107 234 79.1 121.4l116-28.8z"/></g><g clip-path="url(#f)"><defs><path id="G" d="M197.7 119.3l-4.8-7.7-61.5 114.8 9.1-.3z"/></defs><clipPath id="H"><use xlink:href="#G" overflow="visible"/></clipPath><linearGradient id="I" gradientUnits="userSpaceOnUse" x1="3039.866" y1="233.162" x2="3041.22" y2="233.162" gradientTransform="scale(-289.9518 289.9518) rotate(13.936 2471.21 -12322.6)"><stop offset="0" stop-color="#00aced"/><stop offset=".496" stop-color="#2b2a68"/><stop offset=".995" stop-color="#aa2e8d"/><stop offset="1" stop-color="#aa2e8d"/></linearGradient><path clip-path="url(#H)" fill="url(#I)" d="M228.7 207.9l-102.1 25.3-24.6-99.1 102.1-25.3z"/></g><g clip-path="url(#f)"><defs><path id="J" d="M207.6 135.3l-4.8-7.8-52.6 98.3 9.1-.3z"/></defs><clipPath id="K"><use xlink:href="#J" overflow="visible"/></clipPath><linearGradient id="L" gradientUnits="userSpaceOnUse" x1="3039.866" y1="233.2" x2="3041.22" y2="233.2" gradientTransform="scale(-289.9518 289.9518) rotate(13.936 2471.21 -12322.6)"><stop offset="0" stop-color="#00aced"/><stop offset=".496" stop-color="#2b2a68"/><stop offset=".995" stop-color="#aa2e8d"/><stop offset="1" stop-color="#aa2e8d"/></linearGradient><path clip-path="url(#K)" fill="url(#L)" d="M234.4 210.5l-88.1 21.9-21.3-85.6 88.2-21.8z"/></g><g clip-path="url(#f)"><defs><path id="M" d="M217.5 151.2l-4.8-7.7-43.7 81.7 9.1-.3z"/></defs><clipPath id="N"><use xlink:href="#M" overflow="visible"/></clipPath><linearGradient id="O" gradientUnits="userSpaceOnUse" x1="3039.866" y1="233.238" x2="3041.22" y2="233.238" gradientTransform="scale(-289.9518 289.9518) rotate(13.936 2471.21 -12322.6)"><stop offset="0" stop-color="#00aced"/><stop offset=".496" stop-color="#2b2a68"/><stop offset=".995" stop-color="#aa2e8d"/><stop offset="1" stop-color="#aa2e8d"/></linearGradient><path clip-path="url(#N)" fill="url(#O)" d="M240.1 213.2l-74.2 18.4-17.9-72.1 74.2-18.4z"/></g><g clip-path="url(#f)"><defs><path id="P" d="M227.4 167.1l-4.8-7.7-34.9 65.2 9.1-.3z"/></defs><clipPath id="Q"><use xlink:href="#P" overflow="visible"/></clipPath><linearGradient id="R" gradientUnits="userSpaceOnUse" x1="3039.866" y1="233.275" x2="3041.22" y2="233.275" gradientTransform="scale(-289.9518 289.9518) rotate(13.936 2471.21 -12322.6)"><stop offset="0" stop-color="#00aced"/><stop offset=".496" stop-color="#2b2a68"/><stop offset=".995" stop-color="#aa2e8d"/><stop offset="1" stop-color="#aa2e8d"/></linearGradient><path clip-path="url(#Q)" fill="url(#R)" d="M245.7 215.8l-60.1 15-14.6-58.6 60.2-14.9z"/></g><g clip-path="url(#f)"><defs><path id="S" d="M237.3 183.1l-4.8-7.8-26 48.7 9.1-.3z"/></defs><clipPath id="T"><use xlink:href="#S" overflow="visible"/></clipPath><linearGradient id="U" gradientUnits="userSpaceOnUse" x1="3039.866" y1="233.313" x2="3041.22" y2="233.313" gradientTransform="scale(-289.9518 289.9518) rotate(13.936 2471.21 -12322.6)"><stop offset="0" stop-color="#00aced"/><stop offset=".496" stop-color="#2b2a68"/><stop offset=".995" stop-color="#aa2e8d"/><stop offset="1" stop-color="#aa2e8d"/></linearGradient><path clip-path="url(#T)" fill="url(#U)" d="M251.4 218.5l-46.2 11.4-11.2-45 46.2-11.5z"/></g><g clip-path="url(#f)"><defs><path id="V" d="M247.2 199l-4.8-7.7-17.2 32.1 9.1-.3z"/></defs><clipPath id="W"><use xlink:href="#V" overflow="visible"/></clipPath><linearGradient id="X" gradientUnits="userSpaceOnUse" x1="3039.866" y1="233.35" x2="3041.22" y2="233.35" gradientTransform="scale(-289.9518 289.9518) rotate(13.936 2471.21 -12322.6)"><stop offset="0" stop-color="#00aced"/><stop offset=".496" stop-color="#2b2a68"/><stop offset=".995" stop-color="#aa2e8d"/><stop offset="1" stop-color="#aa2e8d"/></linearGradient><path clip-path="url(#W)" fill="url(#X)" d="M257 221.1l-32.2 8-7.8-31.5 32.2-8z"/></g><g clip-path="url(#f)"><defs><path id="Y" d="M257.1 215l-4.8-7.8-8.3 15.6 9.1-.3z"/></defs><clipPath id="Z"><use xlink:href="#Y" overflow="visible"/></clipPath><linearGradient id="aa" gradientUnits="userSpaceOnUse" x1="3039.866" y1="233.388" x2="3041.22" y2="233.388" gradientTransform="scale(-289.9518 289.9518) rotate(13.936 2471.21 -12322.6)"><stop offset="0" stop-color="#00aced"/><stop offset=".496" stop-color="#2b2a68"/><stop offset=".995" stop-color="#aa2e8d"/><stop offset="1" stop-color="#aa2e8d"/></linearGradient><path clip-path="url(#Z)" fill="url(#aa)" d="M262.7 223.8l-18.2 4.5-4.5-18 18.2-4.5z"/></g></g></g></svg>