<svg xmlns="http://www.w3.org/2000/svg" xmlns:xlink="http://www.w3.org/1999/xlink" viewBox="0 0 512 594" class="mdl-js"><defs><path id="a" d="M0-14h840v648H0z"/></defs><clipPath id="b"><use xlink:href="#a" overflow="visible"/></clipPath><g clip-path="url(#b)"><defs><path id="c" transform="rotate(-10.987 238.163 234.087)" d="M-57.7-92.7h591.8v653.6H-57.7z"/></defs><clipPath id="d"><use xlink:href="#c" overflow="visible"/></clipPath><g clip-path="url(#d)"><defs><path id="e" transform="rotate(-10.987 238.163 234.087)" d="M-57.7-92.7h591.8v653.6H-57.7z"/></defs><clipPath id="f"><use xlink:href="#e" overflow="visible"/></clipPath><g opacity=".1" clip-path="url(#f)"><defs><path id="g" transform="rotate(-10.987 92.837 173.558)" d="M-360.5-265.4h906.6v878h-906.6z"/></defs><clipPath id="h"><use xlink:href="#g" overflow="visible"/></clipPath><g clip-path="url(#h)"><defs><path id="i" d="M-114.5-30.1l175 631.6 459.4-467.2-.5-.5-633.7-164z"/></defs><clipPath id="j"><use xlink:href="#i" overflow="visible"/></clipPath><g clip-path="url(#j)"><defs><path id="k" transform="rotate(-45.486 307.196 442.139)" d="M-200.2 432.4H814.5v19.5H-200.2z"/></defs><clipPath id="l"><use xlink:href="#k" overflow="visible"/></clipPath><linearGradient id="m" gradientUnits="userSpaceOnUse" x1="4325.906" y1="-2273.848" x2="4328.215" y2="-2273.848" gradientTransform="scale(421.1451 -421.1451) rotate(-2.414 56092.336 101508.904)"><stop offset="0" stop-color="#00aced"/><stop offset=".496" stop-color="#2b2a68"/><stop offset=".995" stop-color="#aa2e8d"/><stop offset="1" stop-color="#aa2e8d"/></linearGradient><path clip-path="url(#l)" fill="url(#m)" d="M-156.7 36.7l960.3 40.5-32.5 770.4-960.3-40.5z"/></g></g><g clip-path="url(#h)"><defs><path id="n" d="M-114.5-30.1l175 631.6 459.4-467.2-.5-.5-633.7-164z"/></defs><clipPath id="o"><use xlink:href="#n" overflow="visible"/></clipPath><g clip-path="url(#o)"><defs><path id="p" transform="rotate(-45.486 278.492 413.916)" d="M-228.9 404.2H785.8v19.5H-228.9z"/></defs><clipPath id="q"><use xlink:href="#p" overflow="visible"/></clipPath><linearGradient id="r" gradientUnits="userSpaceOnUse" x1="4325.906" y1="-2273.784" x2="4328.215" y2="-2273.784" gradientTransform="scale(421.1451 -421.1451) rotate(-2.414 56092.336 101508.904)"><stop offset="0" stop-color="#00aced"/><stop offset=".496" stop-color="#2b2a68"/><stop offset=".995" stop-color="#aa2e8d"/><stop offset="1" stop-color="#aa2e8d"/></linearGradient><path clip-path="url(#q)" fill="url(#r)" d="M-185.4 8.5L774.9 49l-32.5 770.4-960.3-40.5z"/></g></g><g clip-path="url(#h)"><defs><path id="s" d="M52.5 572.5l6 21.7 454.3-462.1-21.8-5.6z"/></defs><clipPath id="t"><use xlink:href="#s" overflow="visible"/></clipPath><linearGradient id="u" gradientUnits="userSpaceOnUse" x1="4325.906" y1="-2273.652" x2="4328.215" y2="-2273.652" gradientTransform="scale(421.1451 -421.1451) rotate(-2.414 56092.336 101508.904)"><stop offset="0" stop-color="#00aced"/><stop offset=".496" stop-color="#2b2a68"/><stop offset=".995" stop-color="#aa2e8d"/><stop offset="1" stop-color="#aa2e8d"/></linearGradient><path clip-path="url(#t)" fill="url(#u)" d="M-9.8 100.6l608 25.7-20.7 490.2-608-25.6z"/></g><g clip-path="url(#h)"><defs><path id="v" d="M40.1 527.7l6 21.7 421.7-428.9-21.8-5.7z"/></defs><clipPath id="w"><use xlink:href="#v" overflow="visible"/></clipPath><linearGradient id="x" gradientUnits="userSpaceOnUse" x1="4325.906" y1="-2273.588" x2="4328.215" y2="-2273.588" gradientTransform="scale(421.1451 -421.1451) rotate(-2.414 56092.336 101508.904)"><stop offset="0" stop-color="#00aced"/><stop offset=".496" stop-color="#2b2a68"/><stop offset=".995" stop-color="#aa2e8d"/><stop offset="1" stop-color="#aa2e8d"/></linearGradient><path clip-path="url(#w)" fill="url(#x)" d="M-17.6 90.5l564.7 23.8-19.2 455.8-564.7-23.8z"/></g><g clip-path="url(#h)"><defs><path id="y" d="M27.7 482.9l6 21.7 389.1-395.8-21.8-5.6z"/></defs><clipPath id="z"><use xlink:href="#y" overflow="visible"/></clipPath><linearGradient id="A" gradientUnits="userSpaceOnUse" x1="4325.906" y1="-2273.523" x2="4328.215" y2="-2273.523" gradientTransform="scale(421.1451 -421.1451) rotate(-2.414 56092.336 101508.904)"><stop offset="0" stop-color="#00aced"/><stop offset=".496" stop-color="#2b2a68"/><stop offset=".995" stop-color="#aa2e8d"/><stop offset="1" stop-color="#aa2e8d"/></linearGradient><path clip-path="url(#z)" fill="url(#A)" d="M-25.3 80.5L496 102.4l-17.7 421.4-521.4-22z"/></g><g clip-path="url(#h)"><defs><path id="B" d="M15.2 438.1l6.1 21.7L377.8 97.2 356 91.5z"/></defs><clipPath id="C"><use xlink:href="#B" overflow="visible"/></clipPath><linearGradient id="D" gradientUnits="userSpaceOnUse" x1="4325.906" y1="-2273.459" x2="4328.215" y2="-2273.459" gradientTransform="scale(421.1451 -421.1451) rotate(-2.414 56092.336 101508.904)"><stop offset="0" stop-color="#00aced"/><stop offset=".496" stop-color="#2b2a68"/><stop offset=".995" stop-color="#aa2e8d"/><stop offset="1" stop-color="#aa2e8d"/></linearGradient><path clip-path="url(#C)" fill="url(#D)" d="M-33.1 70.4l478 20.1-16.3 386.9-478-20.2z"/></g><g clip-path="url(#h)"><defs><path id="E" d="M2.8 393.3L8.9 415 332.8 85.5 311 79.9z"/></defs><clipPath id="F"><use xlink:href="#E" overflow="visible"/></clipPath><linearGradient id="G" gradientUnits="userSpaceOnUse" x1="4325.906" y1="-2273.395" x2="4328.215" y2="-2273.395" gradientTransform="scale(421.1451 -421.1451) rotate(-2.414 56092.336 101508.904)"><stop offset="0" stop-color="#00aced"/><stop offset=".496" stop-color="#2b2a68"/><stop offset=".995" stop-color="#aa2e8d"/><stop offset="1" stop-color="#aa2e8d"/></linearGradient><path clip-path="url(#F)" fill="url(#G)" d="M-40.9 60.3l434.7 18.3L379 431l-434.7-18.3z"/></g><g clip-path="url(#h)"><defs><path id="H" d="M-9.6 348.5l6.1 21.7L287.8 73.9 266 68.2z"/></defs><clipPath id="I"><use xlink:href="#H" overflow="visible"/></clipPath><linearGradient id="J" gradientUnits="userSpaceOnUse" x1="4325.906" y1="-2273.331" x2="4328.215" y2="-2273.331" gradientTransform="scale(421.1451 -421.1451) rotate(-2.414 56092.336 101508.904)"><stop offset="0" stop-color="#00aced"/><stop offset=".496" stop-color="#2b2a68"/><stop offset=".995" stop-color="#aa2e8d"/><stop offset="1" stop-color="#aa2e8d"/></linearGradient><path clip-path="url(#I)" fill="url(#J)" d="M-48.6 50.2l391.3 16.5-13.4 318L-62 368.2z"/></g><g clip-path="url(#h)"><defs><path id="K" d="M-22 303.7l6 21.7L242.8 62.2 221 56.6z"/></defs><clipPath id="L"><use xlink:href="#K" overflow="visible"/></clipPath><linearGradient id="M" gradientUnits="userSpaceOnUse" x1="4325.906" y1="-2273.267" x2="4328.215" y2="-2273.267" gradientTransform="scale(421.1451 -421.1451) rotate(-2.414 56092.336 101508.904)"><stop offset="0" stop-color="#00aced"/><stop offset=".496" stop-color="#2b2a68"/><stop offset=".995" stop-color="#aa2e8d"/><stop offset="1" stop-color="#aa2e8d"/></linearGradient><path clip-path="url(#L)" fill="url(#M)" d="M-56.4 40.1l348 14.7-11.9 283.5-348.1-14.7z"/></g><g clip-path="url(#h)"><defs><path id="N" d="M-34.4 258.9l6 21.7 226.2-230-21.8-5.7z"/></defs><clipPath id="O"><use xlink:href="#N" overflow="visible"/></clipPath><linearGradient id="P" gradientUnits="userSpaceOnUse" x1="4325.906" y1="-2273.203" x2="4328.215" y2="-2273.203" gradientTransform="scale(421.1451 -421.1451) rotate(-2.414 56092.336 101508.904)"><stop offset="0" stop-color="#00aced"/><stop offset=".496" stop-color="#2b2a68"/><stop offset=".995" stop-color="#aa2e8d"/><stop offset="1" stop-color="#aa2e8d"/></linearGradient><path clip-path="url(#O)" fill="url(#P)" d="M-64.2 30.1l304.7 12.8-10.5 249-304.7-12.8z"/></g><g clip-path="url(#h)"><defs><path id="Q" d="M-46.8 214.1l6 21.7L152.8 38.9 131 33.3z"/></defs><clipPath id="R"><use xlink:href="#Q" overflow="visible"/></clipPath><linearGradient id="S" gradientUnits="userSpaceOnUse" x1="4325.906" y1="-2273.139" x2="4328.215" y2="-2273.139" gradientTransform="scale(421.1451 -421.1451) rotate(-2.414 56092.336 101508.904)"><stop offset="0" stop-color="#00aced"/><stop offset=".496" stop-color="#2b2a68"/><stop offset=".995" stop-color="#aa2e8d"/><stop offset="1" stop-color="#aa2e8d"/></linearGradient><path clip-path="url(#R)" fill="url(#S)" d="M-71.9 20l261.3 11-9 214.6L-81 234.5z"/></g><g clip-path="url(#h)"><defs><path id="T" d="M-59.2 169.3l6 21.7 161-163.7L86 21.6z"/></defs><clipPath id="U"><use xlink:href="#T" overflow="visible"/></clipPath><linearGradient id="V" gradientUnits="userSpaceOnUse" x1="4325.906" y1="-2273.075" x2="4328.215" y2="-2273.075" gradientTransform="scale(421.1451 -421.1451) rotate(-2.414 56092.336 101508.904)"><stop offset="0" stop-color="#00aced"/><stop offset=".496" stop-color="#2b2a68"/><stop offset=".995" stop-color="#aa2e8d"/><stop offset="1" stop-color="#aa2e8d"/></linearGradient><path clip-path="url(#U)" fill="url(#V)" d="M-79.7 9.9l218 9.2-7.6 180.1-218-9.2z"/></g><g clip-path="url(#h)"><defs><path id="W" d="M-71.6 124.5l6 21.7L62.8 15.6 41 10z"/></defs><clipPath id="X"><use xlink:href="#W" overflow="visible"/></clipPath><linearGradient id="Y" gradientUnits="userSpaceOnUse" x1="4325.906" y1="-2273.011" x2="4328.215" y2="-2273.011" gradientTransform="scale(421.1451 -421.1451) rotate(-2.414 56092.336 101508.904)"><stop offset="0" stop-color="#00aced"/><stop offset=".496" stop-color="#2b2a68"/><stop offset=".995" stop-color="#aa2e8d"/><stop offset="1" stop-color="#aa2e8d"/></linearGradient><path clip-path="url(#X)" fill="url(#Y)" d="M-87.5-.2L87.2 7.2l-6.1 145.6-174.7-7.3z"/></g><g clip-path="url(#h)"><defs><path id="Z" d="M-84 79.7l6 21.7L17.8 4-4-1.7z"/></defs><clipPath id="aa"><use xlink:href="#Z" overflow="visible"/></clipPath><linearGradient id="ab" gradientUnits="userSpaceOnUse" x1="4325.906" y1="-2272.947" x2="4328.215" y2="-2272.947" gradientTransform="scale(421.1451 -421.1451) rotate(-2.414 56092.336 101508.904)"><stop offset="0" stop-color="#00aced"/><stop offset=".496" stop-color="#2b2a68"/><stop offset=".995" stop-color="#aa2e8d"/><stop offset="1" stop-color="#aa2e8d"/></linearGradient><path clip-path="url(#aa)" fill="url(#ab)" d="M-95.2-10.3L36.1-4.7l-4.6 111.2-131.4-5.6z"/></g></g></g></g></svg>