<svg xmlns="http://www.w3.org/2000/svg" xmlns:xlink="http://www.w3.org/1999/xlink" viewBox="0 0 370 364" class="mdl-js"><defs><path id="a" transform="rotate(-14.625 155.328 220.086)" d="M-18.8 26.9h348.2v386.4H-18.8z"/></defs><clipPath id="b"><use xlink:href="#a" overflow="visible"/></clipPath><g clip-path="url(#b)"><defs><path id="c" transform="rotate(-14.625 155.328 220.086)" d="M-18.8 26.9h348.2v386.4H-18.8z"/></defs><clipPath id="d"><use xlink:href="#c" overflow="visible"/></clipPath><g clip-path="url(#d)"><defs><path id="e" transform="rotate(-14.625 157.38 231.216)" d="M-32.6 7.9h380v446.5h-380z"/></defs><clipPath id="f"><use xlink:href="#e" overflow="visible"/></clipPath><g clip-path="url(#f)"><defs><path id="g" d="M-7.1 286.7l379.7 76.4L248.9-3.8l-.4.2L-7.1 286.6z"/></defs><clipPath id="h"><use xlink:href="#g" overflow="visible"/></clipPath><g clip-path="url(#h)"><defs><path id="i" transform="rotate(-18.63 331.832 198.119)" d="M326.1-101.7h11.5v599.6h-11.5z"/></defs><clipPath id="j"><use xlink:href="#i" overflow="visible"/></clipPath><linearGradient id="k" gradientUnits="userSpaceOnUse" x1="3096.017" y1="-1838.678" x2="3097.999" y2="-1838.678" gradientTransform="scale(289.9518 -289.9518) rotate(60.726 -19.82 -3561.68)"><stop offset="0" stop-color="#00aced"/><stop offset=".496" stop-color="#2b2a68"/><stop offset=".995" stop-color="#aa2e8d"/><stop offset="1" stop-color="#aa2e8d"/></linearGradient><path clip-path="url(#j)" fill="url(#k)" d="M19.4 291.5l229.1-408.7 395.8 221.9-229.1 408.7z"/></g></g><g clip-path="url(#f)"><defs><path id="l" d="M355.1 359.6l13.1 2.6L245.9-.6l-8.8 10z"/></defs><clipPath id="m"><use xlink:href="#l" overflow="visible"/></clipPath><linearGradient id="n" gradientUnits="userSpaceOnUse" x1="3096.017" y1="-1838.561" x2="3097.999" y2="-1838.561" gradientTransform="scale(289.9518 -289.9518) rotate(60.726 -19.82 -3561.68)"><stop offset="0" stop-color="#00aced"/><stop offset=".496" stop-color="#2b2a68"/><stop offset=".995" stop-color="#aa2e8d"/><stop offset="1" stop-color="#aa2e8d"/></linearGradient><path clip-path="url(#m)" fill="url(#n)" d="M100.6 242.2L248-20.7l254.7 142.8L355.4 385z"/></g><g clip-path="url(#f)"><defs><path id="o" d="M328.2 354.2l13 2.6L227.7 20l-8.8 10z"/></defs><clipPath id="p"><use xlink:href="#o" overflow="visible"/></clipPath><linearGradient id="q" gradientUnits="userSpaceOnUse" x1="3096.017" y1="-1838.506" x2="3097.999" y2="-1838.506" gradientTransform="scale(289.9518 -289.9518) rotate(60.726 -19.82 -3561.68)"><stop offset="0" stop-color="#00aced"/><stop offset=".496" stop-color="#2b2a68"/><stop offset=".995" stop-color="#aa2e8d"/><stop offset="1" stop-color="#aa2e8d"/></linearGradient><path clip-path="url(#p)" fill="url(#q)" d="M92.1 245.6L229.2 1.1l237 132.8-137.1 244.6z"/></g><g clip-path="url(#f)"><defs><path id="r" d="M301.2 348.7l13.1 2.7L209.6 40.6l-8.9 10z"/></defs><clipPath id="s"><use xlink:href="#r" overflow="visible"/></clipPath><linearGradient id="t" gradientUnits="userSpaceOnUse" x1="3096.017" y1="-1838.451" x2="3097.999" y2="-1838.451" gradientTransform="scale(289.9518 -289.9518) rotate(60.726 -19.82 -3561.68)"><stop offset="0" stop-color="#00aced"/><stop offset=".496" stop-color="#2b2a68"/><stop offset=".995" stop-color="#aa2e8d"/><stop offset="1" stop-color="#aa2e8d"/></linearGradient><path clip-path="url(#s)" fill="url(#t)" d="M83.6 249L210.4 22.8l219.2 122.9-126.8 226.2z"/></g><g clip-path="url(#f)"><defs><path id="u" d="M274.3 343.3l13.1 2.6-96-284.7-8.8 10z"/></defs><clipPath id="v"><use xlink:href="#u" overflow="visible"/></clipPath><linearGradient id="w" gradientUnits="userSpaceOnUse" x1="3096.017" y1="-1838.396" x2="3097.999" y2="-1838.396" gradientTransform="scale(289.9518 -289.9518) rotate(60.726 -19.82 -3561.68)"><stop offset="0" stop-color="#00aced"/><stop offset=".496" stop-color="#2b2a68"/><stop offset=".995" stop-color="#aa2e8d"/><stop offset="1" stop-color="#aa2e8d"/></linearGradient><path clip-path="url(#v)" fill="url(#w)" d="M75.1 252.4L191.6 44.6 393 157.5 276.5 365.3z"/></g><g clip-path="url(#f)"><defs><path id="x" d="M247.4 337.9l13.1 2.6-87.2-258.7-8.9 10z"/></defs><clipPath id="y"><use xlink:href="#x" overflow="visible"/></clipPath><linearGradient id="z" gradientUnits="userSpaceOnUse" x1="3096.017" y1="-1838.341" x2="3097.999" y2="-1838.341" gradientTransform="scale(289.9518 -289.9518) rotate(60.726 -19.82 -3561.68)"><stop offset="0" stop-color="#00aced"/><stop offset=".496" stop-color="#2b2a68"/><stop offset=".995" stop-color="#aa2e8d"/><stop offset="1" stop-color="#aa2e8d"/></linearGradient><path clip-path="url(#y)" fill="url(#z)" d="M66.6 255.8L172.8 66.4l183.6 102.9-106.2 189.4z"/></g><g clip-path="url(#f)"><defs><path id="A" d="M220.5 332.5l13 2.6-78.4-232.7-8.8 10z"/></defs><clipPath id="B"><use xlink:href="#A" overflow="visible"/></clipPath><linearGradient id="C" gradientUnits="userSpaceOnUse" x1="3096.017" y1="-1838.286" x2="3097.999" y2="-1838.286" gradientTransform="scale(289.9518 -289.9518) rotate(60.726 -19.82 -3561.68)"><stop offset="0" stop-color="#00aced"/><stop offset=".496" stop-color="#2b2a68"/><stop offset=".995" stop-color="#aa2e8d"/><stop offset="1" stop-color="#aa2e8d"/></linearGradient><path clip-path="url(#B)" fill="url(#C)" d="M58.1 259.2l95.9-171 165.8 92.9L224 352.2z"/></g><g clip-path="url(#f)"><defs><path id="D" d="M193.5 327.1l13.1 2.6L136.9 123l-8.8 10z"/></defs><clipPath id="E"><use xlink:href="#D" overflow="visible"/></clipPath><linearGradient id="F" gradientUnits="userSpaceOnUse" x1="3096.017" y1="-1838.231" x2="3097.999" y2="-1838.231" gradientTransform="scale(289.9518 -289.9518) rotate(60.726 -19.82 -3561.68)"><stop offset="0" stop-color="#00aced"/><stop offset=".496" stop-color="#2b2a68"/><stop offset=".995" stop-color="#aa2e8d"/><stop offset="1" stop-color="#aa2e8d"/></linearGradient><path clip-path="url(#E)" fill="url(#F)" d="M49.6 262.6l85.6-152.7 148.1 83-85.6 152.7z"/></g><g clip-path="url(#f)"><defs><path id="G" d="M166.6 321.7l13.1 2.6-60.9-180.7-8.8 10z"/></defs><clipPath id="H"><use xlink:href="#G" overflow="visible"/></clipPath><linearGradient id="I" gradientUnits="userSpaceOnUse" x1="3096.017" y1="-1838.176" x2="3097.999" y2="-1838.176" gradientTransform="scale(289.9518 -289.9518) rotate(60.726 -19.82 -3561.68)"><stop offset="0" stop-color="#00aced"/><stop offset=".496" stop-color="#2b2a68"/><stop offset=".995" stop-color="#aa2e8d"/><stop offset="1" stop-color="#aa2e8d"/></linearGradient><path clip-path="url(#H)" fill="url(#I)" d="M41.1 266l75.3-134.3 130.3 73.1L171.4 339z"/></g><g clip-path="url(#f)"><defs><path id="J" d="M139.7 316.2l13 2.7-52.1-154.7-8.8 10z"/></defs><clipPath id="K"><use xlink:href="#J" overflow="visible"/></clipPath><linearGradient id="L" gradientUnits="userSpaceOnUse" x1="3096.017" y1="-1838.121" x2="3097.999" y2="-1838.121" gradientTransform="scale(289.9518 -289.9518) rotate(60.726 -19.82 -3561.68)"><stop offset="0" stop-color="#00aced"/><stop offset=".496" stop-color="#2b2a68"/><stop offset=".995" stop-color="#aa2e8d"/><stop offset="1" stop-color="#aa2e8d"/></linearGradient><path clip-path="url(#K)" fill="url(#L)" d="M32.6 269.3l64.9-115.8 112.6 63.1-65 115.8z"/></g><g clip-path="url(#f)"><defs><path id="M" d="M112.8 310.8l13 2.6-43.3-128.5-8.8 10z"/></defs><clipPath id="N"><use xlink:href="#M" overflow="visible"/></clipPath><linearGradient id="O" gradientUnits="userSpaceOnUse" x1="3096.017" y1="-1838.066" x2="3097.999" y2="-1838.066" gradientTransform="scale(289.9518 -289.9518) rotate(60.726 -19.82 -3561.68)"><stop offset="0" stop-color="#00aced"/><stop offset=".496" stop-color="#2b2a68"/><stop offset=".995" stop-color="#aa2e8d"/><stop offset="1" stop-color="#aa2e8d"/></linearGradient><path clip-path="url(#N)" fill="url(#O)" d="M24.1 272.7l54.6-97.5 94.8 53.2-54.6 97.5z"/></g><g clip-path="url(#f)"><defs><path id="P" d="M85.8 305.4l13.1 2.6-34.6-102.5-8.8 10z"/></defs><clipPath id="Q"><use xlink:href="#P" overflow="visible"/></clipPath><linearGradient id="R" gradientUnits="userSpaceOnUse" x1="3096.017" y1="-1838.011" x2="3097.999" y2="-1838.011" gradientTransform="scale(289.9518 -289.9518) rotate(60.726 -19.82 -3561.68)"><stop offset="0" stop-color="#00aced"/><stop offset=".496" stop-color="#2b2a68"/><stop offset=".995" stop-color="#aa2e8d"/><stop offset="1" stop-color="#aa2e8d"/></linearGradient><path clip-path="url(#Q)" fill="url(#R)" d="M15.6 276.1L59.9 197l77 43.2-44.3 79.1z"/></g><g clip-path="url(#f)"><defs><path id="S" d="M58.9 300l13.1 2.6-25.8-76.5-8.8 10z"/></defs><clipPath id="T"><use xlink:href="#S" overflow="visible"/></clipPath><linearGradient id="U" gradientUnits="userSpaceOnUse" x1="3096.017" y1="-1837.956" x2="3097.999" y2="-1837.956" gradientTransform="scale(289.9518 -289.9518) rotate(60.726 -19.82 -3561.68)"><stop offset="0" stop-color="#00aced"/><stop offset=".496" stop-color="#2b2a68"/><stop offset=".995" stop-color="#aa2e8d"/><stop offset="1" stop-color="#aa2e8d"/></linearGradient><path clip-path="url(#T)" fill="url(#U)" d="M7.1 279.5l34-60.7 59.3 33.2-34.1 60.7z"/></g><g clip-path="url(#f)"><defs><path id="V" d="M32 294.6l13 2.6-17-50.5-8.8 10z"/></defs><clipPath id="W"><use xlink:href="#V" overflow="visible"/></clipPath><linearGradient id="X" gradientUnits="userSpaceOnUse" x1="3096.017" y1="-1837.901" x2="3097.999" y2="-1837.901" gradientTransform="scale(289.9518 -289.9518) rotate(60.726 -19.82 -3561.68)"><stop offset="0" stop-color="#00aced"/><stop offset=".496" stop-color="#2b2a68"/><stop offset=".995" stop-color="#aa2e8d"/><stop offset="1" stop-color="#aa2e8d"/></linearGradient><path clip-path="url(#W)" fill="url(#X)" d="M-1.4 282.9l23.7-42.4 41.5 23.3L40 306.1z"/></g><g clip-path="url(#f)"><defs><path id="Y" d="M5 289.2l13.1 2.6-8.2-24.5-8.8 10z"/></defs><clipPath id="Z"><use xlink:href="#Y" overflow="visible"/></clipPath><linearGradient id="aa" gradientUnits="userSpaceOnUse" x1="3096.017" y1="-1837.846" x2="3097.999" y2="-1837.846" gradientTransform="scale(289.9518 -289.9518) rotate(60.726 -19.82 -3561.68)"><stop offset="0" stop-color="#00aced"/><stop offset=".496" stop-color="#2b2a68"/><stop offset=".995" stop-color="#aa2e8d"/><stop offset="1" stop-color="#aa2e8d"/></linearGradient><path clip-path="url(#Z)" fill="url(#aa)" d="M-9.9 286.3l13.4-24 23.7 13.3-13.4 24z"/></g></g></g></svg>