<svg xmlns="http://www.w3.org/2000/svg" xmlns:xlink="http://www.w3.org/1999/xlink" viewBox="0 0 337 357" class="mdl-js"><defs><path id="a" transform="rotate(-48.609 244.158 133.92)" d="M78.3-50.2h331.8v368.3H78.3z"/></defs><clipPath id="b"><use xlink:href="#a" overflow="visible"/></clipPath><g clip-path="url(#b)"><defs><path id="c" transform="rotate(-48.609 244.158 133.92)" d="M78.3-50.2h331.8v368.3H78.3z"/></defs><clipPath id="d"><use xlink:href="#c" overflow="visible"/></clipPath><g clip-path="url(#d)"><defs><path id="e" transform="rotate(-48.609 236.609 126.219)" d="M55.5-86.5h362.1V339H55.5z"/></defs><clipPath id="f"><use xlink:href="#e" overflow="visible"/></clipPath><g clip-path="url(#f)"><defs><path id="g" d="M337-5.2L-3.7 136.6l293.1 224.1.3-.4L337.1-5.2z"/></defs><clipPath id="h"><use xlink:href="#g" overflow="visible"/></clipPath><g clip-path="url(#h)"><defs><path id="i" transform="rotate(-52.605 116.37 245.321)" d="M110.9-40.4h11V531h-11z"/></defs><clipPath id="j"><use xlink:href="#i" overflow="visible"/></clipPath><linearGradient id="k" gradientUnits="userSpaceOnUse" x1="3854.106" y1="-1519.526" x2="3855.995" y2="-1519.526" gradientTransform="scale(289.9518 -289.9518) rotate(-85.291 2752.016 1332.24)"><stop offset="0" stop-color="#00aced"/><stop offset=".496" stop-color="#2b2a68"/><stop offset=".995" stop-color="#aa2e8d"/><stop offset="1" stop-color="#aa2e8d"/></linearGradient><path clip-path="url(#j)" fill="url(#k)" d="M313.5 5.1l36.6 445-430.9 35.5-36.6-445z"/></g></g><g clip-path="url(#f)"><defs><path id="l" d="M12 130.1L.3 135l289.9 221.6 1.6-12.6z"/></defs><clipPath id="m"><use xlink:href="#l" overflow="visible"/></clipPath><linearGradient id="n" gradientUnits="userSpaceOnUse" x1="3854.106" y1="-1519.414" x2="3855.995" y2="-1519.414" gradientTransform="scale(289.9518 -289.9518) rotate(-85.291 2752.016 1332.24)"><stop offset="0" stop-color="#00aced"/><stop offset=".496" stop-color="#2b2a68"/><stop offset=".995" stop-color="#aa2e8d"/><stop offset="1" stop-color="#aa2e8d"/></linearGradient><path clip-path="url(#m)" fill="url(#n)" d="M275.6 87.3l23.6 286.2-277.4 22.9-23.6-286.3z"/></g><g clip-path="url(#f)"><defs><path id="o" d="M36.2 120l-11.8 4.9 269.1 205.7 1.7-12.6z"/></defs><clipPath id="p"><use xlink:href="#o" overflow="visible"/></clipPath><linearGradient id="q" gradientUnits="userSpaceOnUse" x1="3854.106" y1="-1519.361" x2="3855.995" y2="-1519.361" gradientTransform="scale(289.9518 -289.9518) rotate(-85.291 2752.016 1332.24)"><stop offset="0" stop-color="#00aced"/><stop offset=".496" stop-color="#2b2a68"/><stop offset=".995" stop-color="#aa2e8d"/><stop offset="1" stop-color="#aa2e8d"/></linearGradient><path clip-path="url(#p)" fill="url(#q)" d="M280.5 80.1l22 266.2-258.1 21.3-21.9-266.3z"/></g><g clip-path="url(#f)"><defs><path id="r" d="M60.3 110l-11.7 4.9 248.3 189.8 1.6-12.6z"/></defs><clipPath id="s"><use xlink:href="#r" overflow="visible"/></clipPath><linearGradient id="t" gradientUnits="userSpaceOnUse" x1="3854.106" y1="-1519.309" x2="3855.995" y2="-1519.309" gradientTransform="scale(289.9518 -289.9518) rotate(-85.291 2752.016 1332.24)"><stop offset="0" stop-color="#00aced"/><stop offset=".496" stop-color="#2b2a68"/><stop offset=".995" stop-color="#aa2e8d"/><stop offset="1" stop-color="#aa2e8d"/></linearGradient><path clip-path="url(#s)" fill="url(#t)" d="M285.4 72.9l20.3 246.2L67 338.8 46.8 92.5z"/></g><g clip-path="url(#f)"><defs><path id="u" d="M84.5 99.9l-11.7 4.9 227.5 173.9 1.6-12.6z"/></defs><clipPath id="v"><use xlink:href="#u" overflow="visible"/></clipPath><linearGradient id="w" gradientUnits="userSpaceOnUse" x1="3854.106" y1="-1519.257" x2="3855.995" y2="-1519.257" gradientTransform="scale(289.9518 -289.9518) rotate(-85.291 2752.016 1332.24)"><stop offset="0" stop-color="#00aced"/><stop offset=".496" stop-color="#2b2a68"/><stop offset=".995" stop-color="#aa2e8d"/><stop offset="1" stop-color="#aa2e8d"/></linearGradient><path clip-path="url(#v)" fill="url(#w)" d="M290.3 65.7L309 291.9l-219.3 18L71 83.7z"/></g><g clip-path="url(#f)"><defs><path id="x" d="M108.7 89.9l-11.8 4.8 206.7 158 1.7-12.6z"/></defs><clipPath id="y"><use xlink:href="#x" overflow="visible"/></clipPath><linearGradient id="z" gradientUnits="userSpaceOnUse" x1="3854.106" y1="-1519.204" x2="3855.995" y2="-1519.204" gradientTransform="scale(289.9518 -289.9518) rotate(-85.291 2752.016 1332.24)"><stop offset="0" stop-color="#00aced"/><stop offset=".496" stop-color="#2b2a68"/><stop offset=".995" stop-color="#aa2e8d"/><stop offset="1" stop-color="#aa2e8d"/></linearGradient><path clip-path="url(#y)" fill="url(#z)" d="M295.3 58.4l16.9 206.3-199.9 16.4-17-206.2z"/></g><g clip-path="url(#f)"><defs><path id="A" d="M132.8 79.8l-11.7 4.9L307 226.8l1.6-12.6z"/></defs><clipPath id="B"><use xlink:href="#A" overflow="visible"/></clipPath><linearGradient id="C" gradientUnits="userSpaceOnUse" x1="3854.106" y1="-1519.152" x2="3855.995" y2="-1519.152" gradientTransform="scale(289.9518 -289.9518) rotate(-85.291 2752.016 1332.24)"><stop offset="0" stop-color="#00aced"/><stop offset=".496" stop-color="#2b2a68"/><stop offset=".995" stop-color="#aa2e8d"/><stop offset="1" stop-color="#aa2e8d"/></linearGradient><path clip-path="url(#B)" fill="url(#C)" d="M300.2 51.2l15.3 186.2-180.6 14.9-15.3-186.2z"/></g><g clip-path="url(#f)"><defs><path id="D" d="M157 69.7l-11.8 4.9 165.2 126.2 1.6-12.6z"/></defs><clipPath id="E"><use xlink:href="#D" overflow="visible"/></clipPath><linearGradient id="F" gradientUnits="userSpaceOnUse" x1="3854.106" y1="-1519.099" x2="3855.995" y2="-1519.099" gradientTransform="scale(289.9518 -289.9518) rotate(-85.291 2752.016 1332.24)"><stop offset="0" stop-color="#00aced"/><stop offset=".496" stop-color="#2b2a68"/><stop offset=".995" stop-color="#aa2e8d"/><stop offset="1" stop-color="#aa2e8d"/></linearGradient><path clip-path="url(#E)" fill="url(#F)" d="M305.1 44l13.7 166.2-161.3 13.3-13.7-166.2z"/></g><g clip-path="url(#f)"><defs><path id="G" d="M181.1 59.7l-11.7 4.9 144.3 110.3 1.7-12.6z"/></defs><clipPath id="H"><use xlink:href="#G" overflow="visible"/></clipPath><linearGradient id="I" gradientUnits="userSpaceOnUse" x1="3854.106" y1="-1519.047" x2="3855.995" y2="-1519.047" gradientTransform="scale(289.9518 -289.9518) rotate(-85.291 2752.016 1332.24)"><stop offset="0" stop-color="#00aced"/><stop offset=".496" stop-color="#2b2a68"/><stop offset=".995" stop-color="#aa2e8d"/><stop offset="1" stop-color="#aa2e8d"/></linearGradient><path clip-path="url(#H)" fill="url(#I)" d="M310 36.8L322 183l-141.9 11.7-12-146.2z"/></g><g clip-path="url(#f)"><defs><path id="J" d="M205.3 49.6l-11.7 4.9 123.5 94.4 1.6-12.6z"/></defs><clipPath id="K"><use xlink:href="#J" overflow="visible"/></clipPath><linearGradient id="L" gradientUnits="userSpaceOnUse" x1="3854.106" y1="-1518.995" x2="3855.995" y2="-1518.995" gradientTransform="scale(289.9518 -289.9518) rotate(-85.291 2752.016 1332.24)"><stop offset="0" stop-color="#00aced"/><stop offset=".496" stop-color="#2b2a68"/><stop offset=".995" stop-color="#aa2e8d"/><stop offset="1" stop-color="#aa2e8d"/></linearGradient><path clip-path="url(#K)" fill="url(#L)" d="M314.9 29.6l10.4 126.2-122.6 10.1-10.3-126.2z"/></g><g clip-path="url(#f)"><defs><path id="M" d="M229.5 39.5l-11.8 4.9L320.5 123l1.6-12.6z"/></defs><clipPath id="N"><use xlink:href="#M" overflow="visible"/></clipPath><linearGradient id="O" gradientUnits="userSpaceOnUse" x1="3854.106" y1="-1518.942" x2="3855.995" y2="-1518.942" gradientTransform="scale(289.9518 -289.9518) rotate(-85.291 2752.016 1332.24)"><stop offset="0" stop-color="#00aced"/><stop offset=".496" stop-color="#2b2a68"/><stop offset=".995" stop-color="#aa2e8d"/><stop offset="1" stop-color="#aa2e8d"/></linearGradient><path clip-path="url(#N)" fill="url(#O)" d="M319.8 22.4l8.8 106.2-103.2 8.5-8.8-106.2z"/></g><g clip-path="url(#f)"><defs><path id="P" d="M253.6 29.5l-11.7 4.9L323.8 97l1.7-12.6z"/></defs><clipPath id="Q"><use xlink:href="#P" overflow="visible"/></clipPath><linearGradient id="R" gradientUnits="userSpaceOnUse" x1="3854.106" y1="-1518.89" x2="3855.995" y2="-1518.89" gradientTransform="scale(289.9518 -289.9518) rotate(-85.291 2752.016 1332.24)"><stop offset="0" stop-color="#00aced"/><stop offset=".496" stop-color="#2b2a68"/><stop offset=".995" stop-color="#aa2e8d"/><stop offset="1" stop-color="#aa2e8d"/></linearGradient><path clip-path="url(#Q)" fill="url(#R)" d="M324.7 15.2l7.1 86.2-83.8 6.9-7.1-86.2z"/></g><g clip-path="url(#f)"><defs><path id="S" d="M277.8 19.4l-11.7 4.9L327.2 71l1.6-12.6z"/></defs><clipPath id="T"><use xlink:href="#S" overflow="visible"/></clipPath><linearGradient id="U" gradientUnits="userSpaceOnUse" x1="3854.106" y1="-1518.837" x2="3855.995" y2="-1518.837" gradientTransform="scale(289.9518 -289.9518) rotate(-85.291 2752.016 1332.24)"><stop offset="0" stop-color="#00aced"/><stop offset=".496" stop-color="#2b2a68"/><stop offset=".995" stop-color="#aa2e8d"/><stop offset="1" stop-color="#aa2e8d"/></linearGradient><path clip-path="url(#T)" fill="url(#U)" d="M329.6 8l5.5 66.1-64.5 5.3-5.4-66.1z"/></g><g clip-path="url(#f)"><defs><path id="V" d="M301.9 9.4l-11.7 4.8 40.4 30.9 1.6-12.6z"/></defs><clipPath id="W"><use xlink:href="#V" overflow="visible"/></clipPath><linearGradient id="X" gradientUnits="userSpaceOnUse" x1="3854.106" y1="-1518.785" x2="3855.995" y2="-1518.785" gradientTransform="scale(289.9518 -289.9518) rotate(-85.291 2752.016 1332.24)"><stop offset="0" stop-color="#00aced"/><stop offset=".496" stop-color="#2b2a68"/><stop offset=".995" stop-color="#aa2e8d"/><stop offset="1" stop-color="#aa2e8d"/></linearGradient><path clip-path="url(#W)" fill="url(#X)" d="M334.5.8l3.8 46.1-45.1 3.7-3.8-46.1z"/></g><g clip-path="url(#f)"><defs><path id="Y" d="M326.1-.7l-11.7 4.9 19.5 14.9 1.7-12.6z"/></defs><clipPath id="Z"><use xlink:href="#Y" overflow="visible"/></clipPath><linearGradient id="aa" gradientUnits="userSpaceOnUse" x1="3854.106" y1="-1518.733" x2="3855.995" y2="-1518.733" gradientTransform="scale(289.9518 -289.9518) rotate(-85.291 2752.016 1332.24)"><stop offset="0" stop-color="#00aced"/><stop offset=".496" stop-color="#2b2a68"/><stop offset=".995" stop-color="#aa2e8d"/><stop offset="1" stop-color="#aa2e8d"/></linearGradient><path clip-path="url(#Z)" fill="url(#aa)" d="M339.5-6.4l2.1 26.1-25.8 2.1-2.1-26.1z"/></g></g></g></svg>