<svg xmlns="http://www.w3.org/2000/svg" xmlns:xlink="http://www.w3.org/1999/xlink" id="Layer_1" viewBox="0 0 397 458" class="mdl-js"><style>.st2{clip-path:url(#SVGID_6_)}</style><defs><path id="SVGID_59_" transform="rotate(-85.46 -265.208 154.866) scale(1.00004)" d="M-408.5-3.4H-122v316.5h-286.5z"/></defs><clipPath id="SVGID_2_"><use xlink:href="#SVGID_59_" overflow="visible"/></clipPath><g clip-path="url(#SVGID_2_)"><defs><path id="SVGID_61_" transform="rotate(-85.46 -265.208 154.866) scale(1.00004)" d="M-408.5-3.4H-122v316.5h-286.5z"/></defs><clipPath id="SVGID_4_"><use xlink:href="#SVGID_61_" overflow="visible"/></clipPath><g opacity=".1" clip-path="url(#SVGID_4_)"><defs><path id="SVGID_63_" transform="rotate(-85.46 -302.237 88.219) scale(1.00004)" d="M-521.7-124.4h439v425.2h-439z"/></defs><clipPath id="SVGID_6_"><use xlink:href="#SVGID_63_" overflow="visible"/></clipPath><g class="st2"><defs><path id="SVGID_65_" d="M-411.5-.5l313.4 49.9-199.8 246.4-.3-.2-113.4-296z"/></defs><clipPath id="SVGID_8_"><use xlink:href="#SVGID_65_" overflow="visible"/></clipPath><g clip-path="url(#SVGID_8_)"><defs><path id="SVGID_67_" transform="rotate(-50.957 -161.363 176.766)" d="M-407 172H84.3v9.5H-407z"/></defs><clipPath id="SVGID_10_"><use xlink:href="#SVGID_67_" overflow="visible"/></clipPath><linearGradient id="SVGID_11_" gradientUnits="userSpaceOnUse" x1="-963.792" y1="563.873" x2="-962.674" y2="563.873" gradientTransform="rotate(81.14 -64371.316 355667.796) scale(421.1451)"><stop offset="0" stop-color="#00aced"/><stop offset=".496" stop-color="#2b2a68"/><stop offset=".995" stop-color="#aa2e8d"/><stop offset="1" stop-color="#aa2e8d"/></linearGradient><path d="M-381.7-24.4l71.7 459.8 368.9-57.5-71.6-459.8z" clip-path="url(#SVGID_10_)" fill="url(#SVGID_11_)"/></g></g><g class="st2"><defs><path id="SVGID_70_" d="M-411.5-.5l313.4 49.9-199.8 246.4-.3-.2-113.4-296z"/></defs><clipPath id="SVGID_13_"><use xlink:href="#SVGID_70_" overflow="visible"/></clipPath><g clip-path="url(#SVGID_13_)"><defs><path id="SVGID_72_" transform="rotate(-50.957 -176.504 164.489)" d="M-422.2 159.7H69.1v9.5h-491.3z"/></defs><clipPath id="SVGID_15_"><use xlink:href="#SVGID_72_" overflow="visible"/></clipPath><linearGradient id="SVGID_16_" gradientUnits="userSpaceOnUse" x1="-963.792" y1="563.904" x2="-962.674" y2="563.904" gradientTransform="rotate(81.14 -64371.316 355667.796) scale(421.1451)"><stop offset="0" stop-color="#00aced"/><stop offset=".496" stop-color="#2b2a68"/><stop offset=".995" stop-color="#aa2e8d"/><stop offset="1" stop-color="#aa2e8d"/></linearGradient><path d="M-396.8-36.7l71.7 459.9 368.9-57.5-71.7-459.9z" clip-path="url(#SVGID_15_)" fill="url(#SVGID_16_)"/></g></g></g></g><defs><path id="SVGID_117_" d="M-203 0h600v504h-600z"/></defs><clipPath id="SVGID_18_"><use xlink:href="#SVGID_117_" overflow="visible"/></clipPath><g clip-path="url(#SVGID_18_)"><defs><path id="SVGID_119_" transform="rotate(-72.746 207.523 156.129)" d="M-52.7-78.5h520.5v469.3H-52.7z"/></defs><clipPath id="SVGID_19_"><use xlink:href="#SVGID_119_" overflow="visible"/></clipPath><g clip-path="url(#SVGID_19_)"><defs><path id="SVGID_121_" transform="rotate(-72.746 207.523 156.129)" d="M-52.7-78.5h520.5v469.3H-52.7z"/></defs><clipPath id="SVGID_21_"><use xlink:href="#SVGID_121_" overflow="visible"/></clipPath><g opacity=".1" clip-path="url(#SVGID_21_)"><defs><path id="SVGID_123_" transform="rotate(-72.746 327.44 120.718)" d="M-22.2-238.8h699.3v719H-22.2z"/></defs><clipPath id="SVGID_22_"><use xlink:href="#SVGID_123_" overflow="visible"/></clipPath><g clip-path="url(#SVGID_22_)"><defs><path id="SVGID_125_" d="M508.8-22.7L315.5 462.2-5.8 52.9l.4-.4 514.1-75.3z"/></defs><clipPath id="SVGID_24_"><use xlink:href="#SVGID_125_" overflow="visible"/></clipPath><g clip-path="url(#SVGID_24_)"><defs><path id="SVGID_127_" d="M389.8 627L-107.8-6.9-120 2.7l497.6 633.9z"/></defs><clipPath id="SVGID_25_"><use xlink:href="#SVGID_127_" overflow="visible"/></clipPath><linearGradient id="SVGID_27_" gradientUnits="userSpaceOnUse" x1="-967.727" y1="572.788" x2="-965.9" y2="572.788" gradientTransform="matrix(-421.3708 -27.994 28.9047 -422.9073 -423923.313 215478.266)"><stop offset="0" stop-color="#00aced"/><stop offset=".496" stop-color="#2b2a68"/><stop offset=".995" stop-color="#aa2e8d"/><stop offset="1" stop-color="#aa2e8d"/></linearGradient><path d="M536.2 33.8l-760.8-50.5-41.8 612.6 760.8 50.5z" clip-path="url(#SVGID_25_)" fill="url(#SVGID_27_)"/></g></g><g clip-path="url(#SVGID_22_)"><defs><path id="SVGID_130_" d="M508.8-22.7L315.5 462.2-5.8 52.9l.4-.4 514.1-75.3z"/></defs><clipPath id="SVGID_28_"><use xlink:href="#SVGID_130_" overflow="visible"/></clipPath><g clip-path="url(#SVGID_28_)"><defs><path id="SVGID_132_" d="M414.9 607.1L-82.7-26.8l-12.2 9.7 497.6 633.8z"/></defs><clipPath id="SVGID_30_"><use xlink:href="#SVGID_132_" overflow="visible"/></clipPath><linearGradient id="SVGID_31_" gradientUnits="userSpaceOnUse" x1="-967.727" y1="572.838" x2="-965.9" y2="572.838" gradientTransform="matrix(-421.3708 -27.994 28.9047 -422.9073 -423923.313 215478.266)"><stop offset="0" stop-color="#00aced"/><stop offset=".496" stop-color="#2b2a68"/><stop offset=".995" stop-color="#aa2e8d"/><stop offset="1" stop-color="#aa2e8d"/></linearGradient><path d="M561.3 14l-760.7-50.6-41.9 612.6 760.8 50.5z" clip-path="url(#SVGID_30_)" fill="url(#SVGID_31_)"/></g></g><g clip-path="url(#SVGID_22_)"><defs><path id="SVGID_135_" d="M324.4 439.9l-6.7 16.7L-.1 51.8l17.7-2.6z"/></defs><clipPath id="SVGID_33_"><use xlink:href="#SVGID_135_" overflow="visible"/></clipPath><linearGradient id="SVGID_34_" gradientUnits="userSpaceOnUse" x1="-967.727" y1="572.943" x2="-965.9" y2="572.943" gradientTransform="matrix(-421.3708 -27.994 28.9047 -422.9073 -423923.313 215478.266)"><stop offset="0" stop-color="#00aced"/><stop offset=".496" stop-color="#2b2a68"/><stop offset=".995" stop-color="#aa2e8d"/><stop offset="1" stop-color="#aa2e8d"/></linearGradient><path d="M414.8 71.8l-481.7-32-26.6 389.8 481.6 32z" clip-path="url(#SVGID_33_)" fill="url(#SVGID_34_)"/></g><g clip-path="url(#SVGID_22_)"><defs><path id="SVGID_138_" d="M338.1 405.5l-6.7 16.7-295-375.8 17.7-2.6z"/></defs><clipPath id="SVGID_36_"><use xlink:href="#SVGID_138_" overflow="visible"/></clipPath><linearGradient id="SVGID_37_" gradientUnits="userSpaceOnUse" x1="-967.727" y1="572.993" x2="-965.9" y2="572.993" gradientTransform="matrix(-421.3708 -27.994 28.9047 -422.9073 -423923.313 215478.266)"><stop offset="0" stop-color="#00aced"/><stop offset=".496" stop-color="#2b2a68"/><stop offset=".995" stop-color="#aa2e8d"/><stop offset="1" stop-color="#aa2e8d"/></linearGradient><path d="M421.8 64.5L-25.6 34.8l-24.7 362.4L397 426.9z" clip-path="url(#SVGID_36_)" fill="url(#SVGID_37_)"/></g><g clip-path="url(#SVGID_22_)"><defs><path id="SVGID_141_" d="M351.8 371.1l-6.7 16.7L72.9 41.1l17.8-2.6z"/></defs><clipPath id="SVGID_39_"><use xlink:href="#SVGID_141_" overflow="visible"/></clipPath><linearGradient id="SVGID_40_" gradientUnits="userSpaceOnUse" x1="-967.727" y1="573.044" x2="-965.9" y2="573.044" gradientTransform="matrix(-421.3708 -27.994 28.9047 -422.9073 -423923.313 215478.266)"><stop offset="0" stop-color="#00aced"/><stop offset=".496" stop-color="#2b2a68"/><stop offset=".995" stop-color="#aa2e8d"/><stop offset="1" stop-color="#aa2e8d"/></linearGradient><path d="M428.8 57.2l-413-27.5-22.9 335 413 27.5z" clip-path="url(#SVGID_39_)" fill="url(#SVGID_40_)"/></g><g clip-path="url(#SVGID_22_)"><defs><path id="SVGID_144_" d="M365.5 336.7l-6.7 16.7L109.4 35.7l17.8-2.6z"/></defs><clipPath id="SVGID_42_"><use xlink:href="#SVGID_144_" overflow="visible"/></clipPath><linearGradient id="SVGID_43_" gradientUnits="userSpaceOnUse" x1="-967.727" y1="573.095" x2="-965.9" y2="573.095" gradientTransform="matrix(-421.3708 -27.994 28.9047 -422.9073 -423923.313 215478.266)"><stop offset="0" stop-color="#00aced"/><stop offset=".496" stop-color="#2b2a68"/><stop offset=".995" stop-color="#aa2e8d"/><stop offset="1" stop-color="#aa2e8d"/></linearGradient><path d="M435.8 49.9L57.1 24.7l-21 307.6 378.7 25.2z" clip-path="url(#SVGID_42_)" fill="url(#SVGID_43_)"/></g><g clip-path="url(#SVGID_22_)"><defs><path id="SVGID_147_" d="M379.2 302.3l-6.7 16.7L145.9 30.4l17.8-2.6z"/></defs><clipPath id="SVGID_45_"><use xlink:href="#SVGID_147_" overflow="visible"/></clipPath><linearGradient id="SVGID_46_" gradientUnits="userSpaceOnUse" x1="-967.727" y1="573.145" x2="-965.9" y2="573.145" gradientTransform="matrix(-421.3708 -27.994 28.9047 -422.9073 -423923.313 215478.266)"><stop offset="0" stop-color="#00aced"/><stop offset=".496" stop-color="#2b2a68"/><stop offset=".995" stop-color="#aa2e8d"/><stop offset="1" stop-color="#aa2e8d"/></linearGradient><path d="M442.8 42.5L98.4 19.7 79.3 299.9l344.4 22.8z" clip-path="url(#SVGID_45_)" fill="url(#SVGID_46_)"/></g><g clip-path="url(#SVGID_22_)"><defs><path id="SVGID_150_" d="M392.9 267.9l-6.7 16.7L182.4 25l17.8-2.6z"/></defs><clipPath id="SVGID_48_"><use xlink:href="#SVGID_150_" overflow="visible"/></clipPath><linearGradient id="SVGID_49_" gradientUnits="userSpaceOnUse" x1="-967.727" y1="573.196" x2="-965.9" y2="573.196" gradientTransform="matrix(-421.3708 -27.994 28.9047 -422.9073 -423923.313 215478.266)"><stop offset="0" stop-color="#00aced"/><stop offset=".496" stop-color="#2b2a68"/><stop offset=".995" stop-color="#aa2e8d"/><stop offset="1" stop-color="#aa2e8d"/></linearGradient><path d="M449.8 35.2l-310-20.6-17.3 252.8L432.6 288z" clip-path="url(#SVGID_48_)" fill="url(#SVGID_49_)"/></g><g clip-path="url(#SVGID_22_)"><defs><path id="SVGID_153_" d="M406.6 233.6l-6.6 16.6L219 19.7l17.7-2.6z"/></defs><clipPath id="SVGID_51_"><use xlink:href="#SVGID_153_" overflow="visible"/></clipPath><linearGradient id="SVGID_52_" gradientUnits="userSpaceOnUse" x1="-967.727" y1="573.247" x2="-965.9" y2="573.247" gradientTransform="matrix(-421.3708 -27.994 28.9047 -422.9073 -423923.313 215478.266)"><stop offset="0" stop-color="#00aced"/><stop offset=".496" stop-color="#2b2a68"/><stop offset=".995" stop-color="#aa2e8d"/><stop offset="1" stop-color="#aa2e8d"/></linearGradient><path d="M456.8 27.9L181.1 9.6 165.7 235l275.7 18.3z" clip-path="url(#SVGID_51_)" fill="url(#SVGID_52_)"/></g><g clip-path="url(#SVGID_22_)"><defs><path id="SVGID_156_" d="M420.3 199.2l-6.6 16.7L255.5 14.3l17.7-2.6z"/></defs><clipPath id="SVGID_54_"><use xlink:href="#SVGID_156_" overflow="visible"/></clipPath><linearGradient id="SVGID_55_" gradientUnits="userSpaceOnUse" x1="-967.727" y1="573.298" x2="-965.9" y2="573.298" gradientTransform="matrix(-421.3708 -27.994 28.9047 -422.9073 -423923.313 215478.266)"><stop offset="0" stop-color="#00aced"/><stop offset=".496" stop-color="#2b2a68"/><stop offset=".995" stop-color="#aa2e8d"/><stop offset="1" stop-color="#aa2e8d"/></linearGradient><path d="M463.8 20.6l-241.3-16-13.6 198 241.4 16z" clip-path="url(#SVGID_54_)" fill="url(#SVGID_55_)"/></g><g clip-path="url(#SVGID_22_)"><defs><path id="SVGID_159_" d="M434 164.8l-6.6 16.7L292 9l17.7-2.6z"/></defs><clipPath id="SVGID_57_"><use xlink:href="#SVGID_159_" overflow="visible"/></clipPath><linearGradient id="SVGID_58_" gradientUnits="userSpaceOnUse" x1="-967.727" y1="573.348" x2="-965.9" y2="573.348" gradientTransform="matrix(-421.3708 -27.994 28.9047 -422.9073 -423923.313 215478.266)"><stop offset="0" stop-color="#00aced"/><stop offset=".496" stop-color="#2b2a68"/><stop offset=".995" stop-color="#aa2e8d"/><stop offset="1" stop-color="#aa2e8d"/></linearGradient><path d="M470.9 13.3L263.8-.5l-11.7 170.7 207.1 13.7z" clip-path="url(#SVGID_57_)" fill="url(#SVGID_58_)"/></g><g clip-path="url(#SVGID_22_)"><defs><path id="SVGID_162_" d="M447.7 130.4l-6.6 16.7L328.5 3.6 346.2 1z"/></defs><clipPath id="SVGID_60_"><use xlink:href="#SVGID_162_" overflow="visible"/></clipPath><linearGradient id="SVGID_62_" gradientUnits="userSpaceOnUse" x1="-967.727" y1="573.399" x2="-965.9" y2="573.399" gradientTransform="matrix(-421.3708 -27.994 28.9047 -422.9073 -423923.313 215478.266)"><stop offset="0" stop-color="#00aced"/><stop offset=".496" stop-color="#2b2a68"/><stop offset=".995" stop-color="#aa2e8d"/><stop offset="1" stop-color="#aa2e8d"/></linearGradient><path d="M477.9 6L305.1-5.5l-9.8 143.2 172.8 11.5z" clip-path="url(#SVGID_60_)" fill="url(#SVGID_62_)"/></g><g clip-path="url(#SVGID_22_)"><defs><path id="SVGID_165_" d="M461.5 96l-6.7 16.7L365-1.7l17.7-2.6z"/></defs><clipPath id="SVGID_64_"><use xlink:href="#SVGID_165_" overflow="visible"/></clipPath><linearGradient id="SVGID_66_" gradientUnits="userSpaceOnUse" x1="-967.727" y1="573.45" x2="-965.9" y2="573.45" gradientTransform="matrix(-421.3708 -27.994 28.9047 -422.9073 -423923.313 215478.266)"><stop offset="0" stop-color="#00aced"/><stop offset=".496" stop-color="#2b2a68"/><stop offset=".995" stop-color="#aa2e8d"/><stop offset="1" stop-color="#aa2e8d"/></linearGradient><path d="M484.9-1.3l-138.4-9.2-8 115.8 138.5 9.2z" clip-path="url(#SVGID_64_)" fill="url(#SVGID_66_)"/></g><g clip-path="url(#SVGID_22_)"><defs><path id="SVGID_168_" d="M475.2 61.6l-6.7 16.7-67-85.4 17.7-2.6z"/></defs><clipPath id="SVGID_68_"><use xlink:href="#SVGID_168_" overflow="visible"/></clipPath><linearGradient id="SVGID_69_" gradientUnits="userSpaceOnUse" x1="-967.727" y1="573.5" x2="-965.9" y2="573.5" gradientTransform="matrix(-421.3708 -27.994 28.9047 -422.9073 -423923.313 215478.266)"><stop offset="0" stop-color="#00aced"/><stop offset=".496" stop-color="#2b2a68"/><stop offset=".995" stop-color="#aa2e8d"/><stop offset="1" stop-color="#aa2e8d"/></linearGradient><path d="M491.9-8.6l-104.1-6.9-6.1 88.4 104.1 6.9z" clip-path="url(#SVGID_68_)" fill="url(#SVGID_69_)"/></g></g></g></g><defs><path id="SVGID_177_" transform="rotate(-4.266 566.13 108.463) scale(.99997)" d="M452.8 6.4h226.6v204.2H452.8z"/></defs><clipPath id="SVGID_71_"><use xlink:href="#SVGID_177_" overflow="visible"/></clipPath><g clip-path="url(#SVGID_71_)"><defs><path id="SVGID_179_" transform="rotate(-4.266 566.13 108.463) scale(.99997)" d="M452.8 6.4h226.6v204.2H452.8z"/></defs><clipPath id="SVGID_73_"><use xlink:href="#SVGID_179_" overflow="visible"/></clipPath><g clip-path="url(#SVGID_73_)"><defs><path id="SVGID_181_" transform="rotate(-4.266 572.766 108.454) scale(.99997)" d="M441.8-3h261.9v222.9H441.8z"/></defs><clipPath id="SVGID_74_"><use xlink:href="#SVGID_181_" overflow="visible"/></clipPath><g clip-path="url(#SVGID_74_)"><defs><path id="SVGID_183_" d="M587.5 209.2l84.1-211-224.7 32.7v.2l140.5 178.1z"/></defs><clipPath id="SVGID_76_"><use xlink:href="#SVGID_183_" overflow="visible"/></clipPath><g clip-path="url(#SVGID_76_)"><defs><path id="SVGID_185_" transform="rotate(-8.27 571.918 4.336)" d="M396.3.9h351.6v6.8H396.3z"/></defs><clipPath id="SVGID_77_"><use xlink:href="#SVGID_185_" overflow="visible"/></clipPath><linearGradient id="SVGID_79_" gradientUnits="userSpaceOnUse" x1="-983.996" y1="559.656" x2="-982.833" y2="559.656" gradientTransform="scale(-289.952 289.952) rotate(-39.635 -1269.297 -1082.197)"><stop offset="0" stop-color="#00aced"/><stop offset=".496" stop-color="#2b2a68"/><stop offset=".995" stop-color="#aa2e8d"/><stop offset="1" stop-color="#aa2e8d"/></linearGradient><path d="M593 194.4L381.4 19.1l169.7-204.9L762.8-10.5z" clip-path="url(#SVGID_77_)" fill="url(#SVGID_79_)"/></g></g></g></g></svg>