<svg xmlns="http://www.w3.org/2000/svg" xmlns:xlink="http://www.w3.org/1999/xlink" id="Layer_1" viewBox="0 0 315.9 293.5" class="mdl-js"><style>.st2{clip-path:url(#SVGID_6_)}</style><defs><path id="SVGID_1_" transform="rotate(-50.149 -252.58 109.85)" d="M-452.1-110.6H-53v440.9h-399.1z"/></defs><clipPath id="SVGID_2_"><use xlink:href="#SVGID_1_" overflow="visible"/></clipPath><g clip-path="url(#SVGID_2_)"><defs><path id="SVGID_3_" transform="rotate(-50.149 -252.58 109.85)" d="M-452.1-110.6H-53v440.9h-399.1z"/></defs><clipPath id="SVGID_4_"><use xlink:href="#SVGID_3_" overflow="visible"/></clipPath><g opacity=".1" clip-path="url(#SVGID_4_)"><defs><path id="SVGID_5_" transform="rotate(-50.149 -354.387 140.105)" d="M-660.1-156h611.5v592.2h-611.5z"/></defs><clipPath id="SVGID_6_"><use xlink:href="#SVGID_5_" overflow="visible"/></clipPath><g class="st2"><defs><path id="SVGID_7_" d="M-549.6 121.9L-189 377.7l41.2-440-.5-.1-401.3 184.2z"/></defs><clipPath id="SVGID_8_"><use xlink:href="#SVGID_7_" overflow="visible"/></clipPath><g clip-path="url(#SVGID_8_)"><defs><path id="SVGID_9_" transform="rotate(-84.648 -127.882 189.255) scale(.99996)" d="M-470.1 182.7h684.4v13.2h-684.4z"/></defs><clipPath id="SVGID_10_"><use xlink:href="#SVGID_9_" overflow="visible"/></clipPath><linearGradient id="SVGID_11_" gradientUnits="userSpaceOnUse" x1="-553.706" y1="572.861" x2="-552.149" y2="572.861" gradientTransform="scale(421.145 -421.145) rotate(36.748 586.285 1118.432)"><stop offset="0" stop-color="#00aced"/><stop offset=".496" stop-color="#2b2a68"/><stop offset=".995" stop-color="#aa2e8d"/><stop offset="1" stop-color="#aa2e8d"/></linearGradient><path d="M-543.2 174.8l519.5-387.9 311.2 416.8L-232 591.6z" clip-path="url(#SVGID_10_)" fill="url(#SVGID_11_)"/></g></g><g class="st2"><defs><path id="SVGID_12_" d="M-549.6 121.9L-189 377.7l41.2-440-.5-.1-401.3 184.2z"/></defs><clipPath id="SVGID_13_"><use xlink:href="#SVGID_12_" overflow="visible"/></clipPath><g clip-path="url(#SVGID_13_)"><defs><path id="SVGID_14_" transform="rotate(-84.648 -154.917 186.722) scale(.99996)" d="M-497.1 180.1h684.4v13.2h-684.4z"/></defs><clipPath id="SVGID_15_"><use xlink:href="#SVGID_14_" overflow="visible"/></clipPath><linearGradient id="SVGID_16_" gradientUnits="userSpaceOnUse" x1="-553.706" y1="572.905" x2="-552.149" y2="572.905" gradientTransform="scale(421.145 -421.145) rotate(36.748 586.285 1118.432)"><stop offset="0" stop-color="#00aced"/><stop offset=".496" stop-color="#2b2a68"/><stop offset=".995" stop-color="#aa2e8d"/><stop offset="1" stop-color="#aa2e8d"/></linearGradient><path d="M-570.3 172.3l519.5-387.9 311.2 416.8-519.5 387.9z" clip-path="url(#SVGID_15_)" fill="url(#SVGID_16_)"/></g></g><g class="st2"><defs><path id="SVGID_17_" d="M-205.6 365.9l12.4 8.8 40.8-435.2-13.8 6.4z"/></defs><clipPath id="SVGID_18_"><use xlink:href="#SVGID_17_" overflow="visible"/></clipPath><linearGradient id="SVGID_19_" gradientUnits="userSpaceOnUse" x1="-553.706" y1="572.994" x2="-552.149" y2="572.994" gradientTransform="scale(421.145 -421.145) rotate(36.748 586.285 1118.432)"><stop offset="0" stop-color="#00aced"/><stop offset=".496" stop-color="#2b2a68"/><stop offset=".995" stop-color="#aa2e8d"/><stop offset="1" stop-color="#aa2e8d"/></linearGradient><path d="M-439.2 145.7l328.9-245.6L87.8 165.3l-328.9 245.6z" clip-path="url(#SVGID_18_)" fill="url(#SVGID_19_)"/></g><g class="st2"><defs><path id="SVGID_20_" d="M-231.2 347.8l12.4 8.8 37.9-404-13.8 6.3z"/></defs><clipPath id="SVGID_21_"><use xlink:href="#SVGID_20_" overflow="visible"/></clipPath><linearGradient id="SVGID_22_" gradientUnits="userSpaceOnUse" x1="-553.706" y1="573.037" x2="-552.149" y2="573.037" gradientTransform="scale(421.145 -421.145) rotate(36.748 586.285 1118.432)"><stop offset="0" stop-color="#00aced"/><stop offset=".496" stop-color="#2b2a68"/><stop offset=".995" stop-color="#aa2e8d"/><stop offset="1" stop-color="#aa2e8d"/></linearGradient><path d="M-447.5 143.7L-142-84.4 42.1 162.2l-305.5 228.1z" clip-path="url(#SVGID_21_)" fill="url(#SVGID_22_)"/></g></g></g><defs><path id="SVGID_59_" transform="rotate(-85.46 146.792 155.343) scale(1.00004)" d="M3.5-2.9H290v316.5H3.5z"/></defs><clipPath id="SVGID_24_"><use xlink:href="#SVGID_59_" overflow="visible"/></clipPath><g clip-path="url(#SVGID_24_)"><defs><path id="SVGID_61_" transform="rotate(-85.46 146.792 155.343) scale(1.00004)" d="M3.5-2.9H290v316.5H3.5z"/></defs><clipPath id="SVGID_25_"><use xlink:href="#SVGID_61_" overflow="visible"/></clipPath><g opacity=".1" clip-path="url(#SVGID_25_)"><defs><path id="SVGID_63_" transform="rotate(-85.46 109.763 88.696) scale(1.00004)" d="M-109.7-123.9h439v425.2h-439z"/></defs><clipPath id="SVGID_27_"><use xlink:href="#SVGID_63_" overflow="visible"/></clipPath><g clip-path="url(#SVGID_27_)"><defs><path id="SVGID_65_" d="M.5 0l313.4 49.9-199.8 246.4-.3-.2L.4.1z"/></defs><clipPath id="SVGID_28_"><use xlink:href="#SVGID_65_" overflow="visible"/></clipPath><g clip-path="url(#SVGID_28_)"><defs><path id="SVGID_67_" transform="rotate(-50.957 250.646 177.229)" d="M5 172.5h491.3v9.5H5z"/></defs><clipPath id="SVGID_30_"><use xlink:href="#SVGID_67_" overflow="visible"/></clipPath><linearGradient id="SVGID_31_" gradientUnits="userSpaceOnUse" x1="-551.792" y1="564.35" x2="-550.674" y2="564.35" gradientTransform="rotate(81.14 22707.445 254682.188) scale(421.1451)"><stop offset="0" stop-color="#00aced"/><stop offset=".496" stop-color="#2b2a68"/><stop offset=".995" stop-color="#aa2e8d"/><stop offset="1" stop-color="#aa2e8d"/></linearGradient><path d="M30.3-23.9L102 435.9l368.9-57.5-71.6-459.9z" clip-path="url(#SVGID_30_)" fill="url(#SVGID_31_)"/></g></g><g clip-path="url(#SVGID_27_)"><defs><path id="SVGID_70_" d="M.5 0l313.4 49.9-199.8 246.4-.3-.2L.4.1z"/></defs><clipPath id="SVGID_33_"><use xlink:href="#SVGID_70_" overflow="visible"/></clipPath><g clip-path="url(#SVGID_33_)"><defs><path id="SVGID_72_" transform="rotate(-50.957 235.505 164.951)" d="M-10.2 160.2h491.3v9.5H-10.2z"/></defs><clipPath id="SVGID_34_"><use xlink:href="#SVGID_72_" overflow="visible"/></clipPath><linearGradient id="SVGID_36_" gradientUnits="userSpaceOnUse" x1="-551.792" y1="564.381" x2="-550.674" y2="564.381" gradientTransform="rotate(81.14 22707.445 254682.188) scale(421.1451)"><stop offset="0" stop-color="#00aced"/><stop offset=".496" stop-color="#2b2a68"/><stop offset=".995" stop-color="#aa2e8d"/><stop offset="1" stop-color="#aa2e8d"/></linearGradient><path d="M15.2-36.2l71.7 459.8 368.9-57.5-71.7-459.8z" clip-path="url(#SVGID_34_)" fill="url(#SVGID_36_)"/></g></g><g clip-path="url(#SVGID_27_)"><defs><path id="SVGID_75_" d="M299.5 47.6l10.8 1.7L112.6 293l-3.9-10.2z"/></defs><clipPath id="SVGID_37_"><use xlink:href="#SVGID_75_" overflow="visible"/></clipPath><linearGradient id="SVGID_39_" gradientUnits="userSpaceOnUse" x1="-551.792" y1="564.444" x2="-550.674" y2="564.444" gradientTransform="rotate(81.14 22707.445 254682.188) scale(421.1451)"><stop offset="0" stop-color="#00aced"/><stop offset=".496" stop-color="#2b2a68"/><stop offset=".995" stop-color="#aa2e8d"/><stop offset="1" stop-color="#aa2e8d"/></linearGradient><path d="M69.1 43.3l45.4 291.1 234.7-36.6L303.8 6.7z" clip-path="url(#SVGID_37_)" fill="url(#SVGID_39_)"/></g><g clip-path="url(#SVGID_27_)"><defs><path id="SVGID_78_" d="M277.3 44.1l10.7 1.7L104.6 272l-3.9-10.2z"/></defs><clipPath id="SVGID_40_"><use xlink:href="#SVGID_78_" overflow="visible"/></clipPath><linearGradient id="SVGID_42_" gradientUnits="userSpaceOnUse" x1="-551.792" y1="564.476" x2="-550.674" y2="564.476" gradientTransform="rotate(81.14 22707.445 254682.188) scale(421.1451)"><stop offset="0" stop-color="#00aced"/><stop offset=".496" stop-color="#2b2a68"/><stop offset=".995" stop-color="#aa2e8d"/><stop offset="1" stop-color="#aa2e8d"/></linearGradient><path d="M63.8 40.1L106 310.5l218.2-34L282.1 6.1z" clip-path="url(#SVGID_40_)" fill="url(#SVGID_42_)"/></g><g clip-path="url(#SVGID_27_)"><defs><path id="SVGID_81_" d="M255 40.5l10.8 1.7L96.5 251l-3.9-10.2z"/></defs><clipPath id="SVGID_43_"><use xlink:href="#SVGID_81_" overflow="visible"/></clipPath><linearGradient id="SVGID_45_" gradientUnits="userSpaceOnUse" x1="-551.792" y1="564.506" x2="-550.674" y2="564.506" gradientTransform="rotate(81.14 22707.445 254682.188) scale(421.1451)"><stop offset="0" stop-color="#00aced"/><stop offset=".496" stop-color="#2b2a68"/><stop offset=".995" stop-color="#aa2e8d"/><stop offset="1" stop-color="#aa2e8d"/></linearGradient><path d="M58.5 36.9l38.9 249.6 201.8-31.4L260.3 5.4z" clip-path="url(#SVGID_43_)" fill="url(#SVGID_45_)"/></g><g clip-path="url(#SVGID_27_)"><defs><path id="SVGID_84_" d="M232.8 37l10.8 1.7L88.5 230l-3.9-10.2z"/></defs><clipPath id="SVGID_46_"><use xlink:href="#SVGID_84_" overflow="visible"/></clipPath><linearGradient id="SVGID_48_" gradientUnits="userSpaceOnUse" x1="-551.792" y1="564.538" x2="-550.674" y2="564.538" gradientTransform="rotate(81.14 22707.445 254682.188) scale(421.1451)"><stop offset="0" stop-color="#00aced"/><stop offset=".496" stop-color="#2b2a68"/><stop offset=".995" stop-color="#aa2e8d"/><stop offset="1" stop-color="#aa2e8d"/></linearGradient><path d="M53.3 33.7l35.6 228.9 185.3-28.9L238.5 4.8z" clip-path="url(#SVGID_46_)" fill="url(#SVGID_48_)"/></g><g clip-path="url(#SVGID_27_)"><defs><path id="SVGID_87_" d="M210.6 33.4l10.8 1.8-141 173.7-3.9-10.2z"/></defs><clipPath id="SVGID_49_"><use xlink:href="#SVGID_87_" overflow="visible"/></clipPath><linearGradient id="SVGID_51_" gradientUnits="userSpaceOnUse" x1="-551.792" y1="564.568" x2="-550.674" y2="564.568" gradientTransform="rotate(81.14 22707.445 254682.188) scale(421.1451)"><stop offset="0" stop-color="#00aced"/><stop offset=".496" stop-color="#2b2a68"/><stop offset=".995" stop-color="#aa2e8d"/><stop offset="1" stop-color="#aa2e8d"/></linearGradient><path d="M48 30.5l32.4 208.2 168.8-26.3L216.7 4.2z" clip-path="url(#SVGID_49_)" fill="url(#SVGID_51_)"/></g><g clip-path="url(#SVGID_27_)"><defs><path id="SVGID_90_" d="M188.3 29.9l10.8 1.7L72.4 187.9l-3.9-10.2z"/></defs><clipPath id="SVGID_52_"><use xlink:href="#SVGID_90_" overflow="visible"/></clipPath><linearGradient id="SVGID_54_" gradientUnits="userSpaceOnUse" x1="-551.792" y1="564.6" x2="-550.674" y2="564.6" gradientTransform="rotate(81.14 22707.445 254682.188) scale(421.1451)"><stop offset="0" stop-color="#00aced"/><stop offset=".496" stop-color="#2b2a68"/><stop offset=".995" stop-color="#aa2e8d"/><stop offset="1" stop-color="#aa2e8d"/></linearGradient><path d="M42.7 27.3l29.2 187.4L224.2 191 195 3.6z" clip-path="url(#SVGID_52_)" fill="url(#SVGID_54_)"/></g><g clip-path="url(#SVGID_27_)"><defs><path id="SVGID_93_" d="M166.1 26.4l10.8 1.7L64.3 166.9l-3.9-10.2z"/></defs><clipPath id="SVGID_55_"><use xlink:href="#SVGID_93_" overflow="visible"/></clipPath><linearGradient id="SVGID_57_" gradientUnits="userSpaceOnUse" x1="-551.792" y1="564.631" x2="-550.674" y2="564.631" gradientTransform="rotate(81.14 22707.445 254682.188) scale(421.1451)"><stop offset="0" stop-color="#00aced"/><stop offset=".496" stop-color="#2b2a68"/><stop offset=".995" stop-color="#aa2e8d"/><stop offset="1" stop-color="#aa2e8d"/></linearGradient><path d="M37.4 24.1l26 166.7 135.8-21.2L173.2 3z" clip-path="url(#SVGID_55_)" fill="url(#SVGID_57_)"/></g><g clip-path="url(#SVGID_27_)"><defs><path id="SVGID_96_" d="M143.9 22.8l10.8 1.7-98.4 121.4-3.9-10.2z"/></defs><clipPath id="SVGID_58_"><use xlink:href="#SVGID_96_" overflow="visible"/></clipPath><linearGradient id="SVGID_60_" gradientUnits="userSpaceOnUse" x1="-551.792" y1="564.662" x2="-550.674" y2="564.662" gradientTransform="rotate(81.14 22707.445 254682.188) scale(421.1451)"><stop offset="0" stop-color="#00aced"/><stop offset=".496" stop-color="#2b2a68"/><stop offset=".995" stop-color="#aa2e8d"/><stop offset="1" stop-color="#aa2e8d"/></linearGradient><path d="M32.2 20.9l22.7 146 119.3-18.6L151.4 2.4z" clip-path="url(#SVGID_58_)" fill="url(#SVGID_60_)"/></g><g clip-path="url(#SVGID_27_)"><defs><path id="SVGID_99_" d="M121.7 19.3l10.7 1.7-84.2 103.9-3.9-10.2z"/></defs><clipPath id="SVGID_62_"><use xlink:href="#SVGID_99_" overflow="visible"/></clipPath><linearGradient id="SVGID_64_" gradientUnits="userSpaceOnUse" x1="-551.792" y1="564.693" x2="-550.674" y2="564.693" gradientTransform="rotate(81.14 22707.445 254682.188) scale(421.1451)"><stop offset="0" stop-color="#00aced"/><stop offset=".496" stop-color="#2b2a68"/><stop offset=".995" stop-color="#aa2e8d"/><stop offset="1" stop-color="#aa2e8d"/></linearGradient><path d="M26.9 17.8l19.5 125.1 102.8-16L129.6 1.7z" clip-path="url(#SVGID_62_)" fill="url(#SVGID_64_)"/></g><g clip-path="url(#SVGID_27_)"><defs><path id="SVGID_102_" d="M99.4 15.8l10.8 1.7-70 86.3-3.9-10.2z"/></defs><clipPath id="SVGID_66_"><use xlink:href="#SVGID_102_" overflow="visible"/></clipPath><linearGradient id="SVGID_68_" gradientUnits="userSpaceOnUse" x1="-551.792" y1="564.724" x2="-550.674" y2="564.724" gradientTransform="rotate(81.14 22707.445 254682.188) scale(421.1451)"><stop offset="0" stop-color="#00aced"/><stop offset=".496" stop-color="#2b2a68"/><stop offset=".995" stop-color="#aa2e8d"/><stop offset="1" stop-color="#aa2e8d"/></linearGradient><path d="M21.6 14.6L37.9 119l86.2-13.5L107.9 1.1z" clip-path="url(#SVGID_66_)" fill="url(#SVGID_68_)"/></g><g clip-path="url(#SVGID_27_)"><defs><path id="SVGID_105_" d="M77.2 12.2L88 13.9 32.1 82.8l-3.9-10.2z"/></defs><clipPath id="SVGID_69_"><use xlink:href="#SVGID_105_" overflow="visible"/></clipPath><linearGradient id="SVGID_71_" gradientUnits="userSpaceOnUse" x1="-551.792" y1="564.755" x2="-550.674" y2="564.755" gradientTransform="rotate(81.14 22707.445 254682.188) scale(421.1451)"><stop offset="0" stop-color="#00aced"/><stop offset=".496" stop-color="#2b2a68"/><stop offset=".995" stop-color="#aa2e8d"/><stop offset="1" stop-color="#aa2e8d"/></linearGradient><path d="M16.3 11.4L29.4 95l69.7-10.8L86.1.5z" clip-path="url(#SVGID_69_)" fill="url(#SVGID_71_)"/></g><g clip-path="url(#SVGID_27_)"><defs><path id="SVGID_108_" d="M55 8.7l10.8 1.7-41.7 51.4-3.9-10.2z"/></defs><clipPath id="SVGID_73_"><use xlink:href="#SVGID_108_" overflow="visible"/></clipPath><linearGradient id="SVGID_74_" gradientUnits="userSpaceOnUse" x1="-551.792" y1="564.786" x2="-550.674" y2="564.786" gradientTransform="rotate(81.14 22707.445 254682.188) scale(421.1451)"><stop offset="0" stop-color="#00aced"/><stop offset=".496" stop-color="#2b2a68"/><stop offset=".995" stop-color="#aa2e8d"/><stop offset="1" stop-color="#aa2e8d"/></linearGradient><path d="M11.1 8.2l9.8 62.9 53.2-8.3L64.3-.1z" clip-path="url(#SVGID_73_)" fill="url(#SVGID_74_)"/></g><g clip-path="url(#SVGID_27_)"><defs><path id="SVGID_111_" d="M32.7 5.1l10.8 1.8L16 40.8l-3.9-10.2z"/></defs><clipPath id="SVGID_76_"><use xlink:href="#SVGID_111_" overflow="visible"/></clipPath><linearGradient id="SVGID_77_" gradientUnits="userSpaceOnUse" x1="-551.792" y1="564.817" x2="-550.674" y2="564.817" gradientTransform="rotate(81.14 22707.445 254682.188) scale(421.1451)"><stop offset="0" stop-color="#00aced"/><stop offset=".496" stop-color="#2b2a68"/><stop offset=".995" stop-color="#aa2e8d"/><stop offset="1" stop-color="#aa2e8d"/></linearGradient><path d="M5.8 5l6.6 42.2 36.7-5.8L42.5-.7z" clip-path="url(#SVGID_76_)" fill="url(#SVGID_77_)"/></g><g clip-path="url(#SVGID_27_)"><defs><path id="SVGID_114_" d="M10.5 1.6l10.8 1.7L8 19.8 4.1 9.6z"/></defs><clipPath id="SVGID_79_"><use xlink:href="#SVGID_114_" overflow="visible"/></clipPath><linearGradient id="SVGID_80_" gradientUnits="userSpaceOnUse" x1="-551.792" y1="564.848" x2="-550.674" y2="564.848" gradientTransform="rotate(81.14 22707.445 254682.188) scale(421.1451)"><stop offset="0" stop-color="#00aced"/><stop offset=".496" stop-color="#2b2a68"/><stop offset=".995" stop-color="#aa2e8d"/><stop offset="1" stop-color="#aa2e8d"/></linearGradient><path d="M.5 1.8l3.4 21.4 20.2-3.1-3.3-21.5z" clip-path="url(#SVGID_79_)" fill="url(#SVGID_80_)"/></g></g></g><defs><path id="SVGID_117_" d="M209 .5h600v504H209z"/></defs><clipPath id="SVGID_82_"><use xlink:href="#SVGID_117_" overflow="visible"/></clipPath><g clip-path="url(#SVGID_82_)"><defs><path id="SVGID_119_" transform="rotate(-72.746 619.514 156.612)" d="M359.3-78h520.5v469.3H359.3z"/></defs><clipPath id="SVGID_83_"><use xlink:href="#SVGID_119_" overflow="visible"/></clipPath><g clip-path="url(#SVGID_83_)"><defs><path id="SVGID_121_" transform="rotate(-72.746 619.514 156.612)" d="M359.3-78h520.5v469.3H359.3z"/></defs><clipPath id="SVGID_85_"><use xlink:href="#SVGID_121_" overflow="visible"/></clipPath><g opacity=".1" clip-path="url(#SVGID_85_)"><defs><path id="SVGID_123_" transform="rotate(-72.746 739.43 121.201)" d="M389.8-238.3h699.3v719H389.8z"/></defs><clipPath id="SVGID_86_"><use xlink:href="#SVGID_123_" overflow="visible"/></clipPath><g clip-path="url(#SVGID_86_)"><defs><path id="SVGID_125_" d="M920.8-22.2L727.5 462.7 406.2 53.4l.4-.4 514.1-75.3z"/></defs><clipPath id="SVGID_88_"><use xlink:href="#SVGID_125_" overflow="visible"/></clipPath><g clip-path="url(#SVGID_88_)"><defs><path id="SVGID_127_" d="M801.8 627.4L304.2-6.4 292 3.2l497.6 633.9z"/></defs><clipPath id="SVGID_89_"><use xlink:href="#SVGID_127_" overflow="visible"/></clipPath><linearGradient id="SVGID_91_" gradientUnits="userSpaceOnUse" x1="-555.727" y1="573.264" x2="-553.9" y2="573.264" gradientTransform="matrix(-421.3708 -27.994 28.9047 -422.9073 -249920.328 227213.719)"><stop offset="0" stop-color="#00aced"/><stop offset=".496" stop-color="#2b2a68"/><stop offset=".995" stop-color="#aa2e8d"/><stop offset="1" stop-color="#aa2e8d"/></linearGradient><path d="M948.2 34.3L187.4-16.2l-41.8 612.5 760.8 50.6z" clip-path="url(#SVGID_89_)" fill="url(#SVGID_91_)"/></g></g><g clip-path="url(#SVGID_86_)"><defs><path id="SVGID_130_" d="M920.8-22.2L727.5 462.7 406.2 53.4l.4-.4 514.1-75.3z"/></defs><clipPath id="SVGID_92_"><use xlink:href="#SVGID_130_" overflow="visible"/></clipPath><g clip-path="url(#SVGID_92_)"><defs><path id="SVGID_132_" d="M826.9 607.6L329.3-26.3l-12.2 9.6 497.6 633.9z"/></defs><clipPath id="SVGID_94_"><use xlink:href="#SVGID_132_" overflow="visible"/></clipPath><linearGradient id="SVGID_95_" gradientUnits="userSpaceOnUse" x1="-555.727" y1="573.315" x2="-553.9" y2="573.315" gradientTransform="matrix(-421.3708 -27.994 28.9047 -422.9073 -249920.328 227213.719)"><stop offset="0" stop-color="#00aced"/><stop offset=".496" stop-color="#2b2a68"/><stop offset=".995" stop-color="#aa2e8d"/><stop offset="1" stop-color="#aa2e8d"/></linearGradient><path d="M973.3 14.4L212.6-36.1l-41.9 612.6L931.5 627z" clip-path="url(#SVGID_94_)" fill="url(#SVGID_95_)"/></g></g></g></g></g></svg>