<svg xmlns="http://www.w3.org/2000/svg" xmlns:xlink="http://www.w3.org/1999/xlink" id="Layer_1" viewBox="0 0 398.7 436" class="mdl-js"><style>.st2{clip-path:url(#SVGID_6_)}</style><defs><path id="SVGID_1_" transform="rotate(-50.149 297.11 171.377)" d="M97.5-49.1h399.1v440.9H97.5z"/></defs><clipPath id="SVGID_2_"><use xlink:href="#SVGID_1_" overflow="visible"/></clipPath><g clip-path="url(#SVGID_2_)"><defs><path id="SVGID_3_" transform="rotate(-50.149 297.11 171.377)" d="M97.5-49.1h399.1v440.9H97.5z"/></defs><clipPath id="SVGID_4_"><use xlink:href="#SVGID_3_" overflow="visible"/></clipPath><g opacity=".1" clip-path="url(#SVGID_4_)"><defs><path id="SVGID_5_" transform="rotate(-50.149 195.304 201.632)" d="M-110.5-94.5H501v592.2h-611.5z"/></defs><clipPath id="SVGID_6_"><use xlink:href="#SVGID_5_" overflow="visible"/></clipPath><g class="st2"><defs><path id="SVGID_7_" d="M.1 183.4l360.6 255.8 41.2-440-.5-.1L.1 183.3z"/></defs><clipPath id="SVGID_8_"><use xlink:href="#SVGID_7_" overflow="visible"/></clipPath><g clip-path="url(#SVGID_8_)"><defs><path id="SVGID_9_" transform="rotate(-84.648 421.808 250.778) scale(.99996)" d="M79.6 244.2H764v13.2H79.6z"/></defs><clipPath id="SVGID_10_"><use xlink:href="#SVGID_9_" overflow="visible"/></clipPath><linearGradient id="SVGID_11_" gradientUnits="userSpaceOnUse" x1="-4.018" y1="634.385" x2="-2.46" y2="634.385" gradientTransform="scale(421.145 -421.145) rotate(36.748 954.615 323.628)"><stop offset="0" stop-color="#00aced"/><stop offset=".496" stop-color="#2b2a68"/><stop offset=".995" stop-color="#aa2e8d"/><stop offset="1" stop-color="#aa2e8d"/></linearGradient><path d="M6.5 236.3L526-151.6l311.2 416.8-519.5 387.9z" clip-path="url(#SVGID_10_)" fill="url(#SVGID_11_)"/></g></g><g class="st2"><defs><path id="SVGID_12_" d="M.1 183.4l360.6 255.8 41.2-440-.5-.1L.1 183.3z"/></defs><clipPath id="SVGID_13_"><use xlink:href="#SVGID_12_" overflow="visible"/></clipPath><g clip-path="url(#SVGID_13_)"><defs><path id="SVGID_14_" transform="rotate(-84.648 394.773 248.245) scale(.99996)" d="M52.6 241.7H737v13.2H52.6z"/></defs><clipPath id="SVGID_15_"><use xlink:href="#SVGID_14_" overflow="visible"/></clipPath><linearGradient id="SVGID_16_" gradientUnits="userSpaceOnUse" x1="-4.018" y1="634.428" x2="-2.46" y2="634.428" gradientTransform="scale(421.145 -421.145) rotate(36.748 954.615 323.628)"><stop offset="0" stop-color="#00aced"/><stop offset=".496" stop-color="#2b2a68"/><stop offset=".995" stop-color="#aa2e8d"/><stop offset="1" stop-color="#aa2e8d"/></linearGradient><path d="M-20.6 233.8l519.5-387.9 311.2 416.8-519.5 387.9z" clip-path="url(#SVGID_15_)" fill="url(#SVGID_16_)"/></g></g><g class="st2"><defs><path id="SVGID_17_" d="M344.1 427.4l12.4 8.8L397.3 1l-13.9 6.4z"/></defs><clipPath id="SVGID_18_"><use xlink:href="#SVGID_17_" overflow="visible"/></clipPath><linearGradient id="SVGID_19_" gradientUnits="userSpaceOnUse" x1="-4.018" y1="634.517" x2="-2.46" y2="634.517" gradientTransform="scale(421.145 -421.145) rotate(36.748 954.615 323.628)"><stop offset="0" stop-color="#00aced"/><stop offset=".496" stop-color="#2b2a68"/><stop offset=".995" stop-color="#aa2e8d"/><stop offset="1" stop-color="#aa2e8d"/></linearGradient><path d="M110.5 207.2L439.4-38.4l198.1 265.2-328.9 245.6z" clip-path="url(#SVGID_18_)" fill="url(#SVGID_19_)"/></g><g class="st2"><defs><path id="SVGID_20_" d="M318.5 409.3l12.4 8.8 37.9-404-13.9 6.4z"/></defs><clipPath id="SVGID_21_"><use xlink:href="#SVGID_20_" overflow="visible"/></clipPath><linearGradient id="SVGID_22_" gradientUnits="userSpaceOnUse" x1="-4.018" y1="634.561" x2="-2.46" y2="634.561" gradientTransform="scale(421.145 -421.145) rotate(36.748 954.615 323.628)"><stop offset="0" stop-color="#00aced"/><stop offset=".496" stop-color="#2b2a68"/><stop offset=".995" stop-color="#aa2e8d"/><stop offset="1" stop-color="#aa2e8d"/></linearGradient><path d="M102.2 205.2L407.6-22.9l184.1 246.6-305.4 228.1z" clip-path="url(#SVGID_21_)" fill="url(#SVGID_22_)"/></g><g class="st2"><defs><path id="SVGID_23_" d="M292.9 391.1l12.5 8.9 34.9-372.8-13.9 6.3z"/></defs><clipPath id="SVGID_24_"><use xlink:href="#SVGID_23_" overflow="visible"/></clipPath><linearGradient id="SVGID_25_" gradientUnits="userSpaceOnUse" x1="-4.018" y1="634.604" x2="-2.46" y2="634.604" gradientTransform="scale(421.145 -421.145) rotate(36.748 954.615 323.628)"><stop offset="0" stop-color="#00aced"/><stop offset=".496" stop-color="#2b2a68"/><stop offset=".995" stop-color="#aa2e8d"/><stop offset="1" stop-color="#aa2e8d"/></linearGradient><path d="M93.8 203.3l282-210.6L546 220.6 264 431.2z" clip-path="url(#SVGID_24_)" fill="url(#SVGID_25_)"/></g><g class="st2"><defs><path id="SVGID_26_" d="M267.4 373l12.4 8.8 32-341.5-13.8 6.3z"/></defs><clipPath id="SVGID_27_"><use xlink:href="#SVGID_26_" overflow="visible"/></clipPath><linearGradient id="SVGID_28_" gradientUnits="userSpaceOnUse" x1="-4.018" y1="634.647" x2="-2.46" y2="634.647" gradientTransform="scale(421.145 -421.145) rotate(36.748 954.615 323.628)"><stop offset="0" stop-color="#00aced"/><stop offset=".496" stop-color="#2b2a68"/><stop offset=".995" stop-color="#aa2e8d"/><stop offset="1" stop-color="#aa2e8d"/></linearGradient><path d="M85.5 201.3L344 8.2l156.3 209.3-258.6 193.1z" clip-path="url(#SVGID_27_)" fill="url(#SVGID_28_)"/></g><g class="st2"><defs><path id="SVGID_29_" d="M241.8 354.9l12.4 8.8 29.1-310.4-13.8 6.4z"/></defs><clipPath id="SVGID_30_"><use xlink:href="#SVGID_29_" overflow="visible"/></clipPath><linearGradient id="SVGID_31_" gradientUnits="userSpaceOnUse" x1="-4.018" y1="634.69" x2="-2.46" y2="634.69" gradientTransform="scale(421.145 -421.145) rotate(36.748 954.615 323.628)"><stop offset="0" stop-color="#00aced"/><stop offset=".496" stop-color="#2b2a68"/><stop offset=".995" stop-color="#aa2e8d"/><stop offset="1" stop-color="#aa2e8d"/></linearGradient><path d="M77.1 199.3L312.3 23.8l142.3 190.6L219.5 390z" clip-path="url(#SVGID_30_)" fill="url(#SVGID_31_)"/></g><g class="st2"><defs><path id="SVGID_32_" d="M216.2 336.7l12.4 8.8 26.2-279.1-13.8 6.4z"/></defs><clipPath id="SVGID_33_"><use xlink:href="#SVGID_32_" overflow="visible"/></clipPath><linearGradient id="SVGID_34_" gradientUnits="userSpaceOnUse" x1="-4.018" y1="634.734" x2="-2.46" y2="634.734" gradientTransform="scale(421.145 -421.145) rotate(36.748 954.615 323.628)"><stop offset="0" stop-color="#00aced"/><stop offset=".496" stop-color="#2b2a68"/><stop offset=".995" stop-color="#aa2e8d"/><stop offset="1" stop-color="#aa2e8d"/></linearGradient><path d="M68.8 197.4L280.5 39.3l128.4 172-211.7 158.1z" clip-path="url(#SVGID_33_)" fill="url(#SVGID_34_)"/></g><g class="st2"><defs><path id="SVGID_35_" d="M190.7 318.6l12.4 8.8 23.2-247.9-13.8 6.3z"/></defs><clipPath id="SVGID_36_"><use xlink:href="#SVGID_35_" overflow="visible"/></clipPath><linearGradient id="SVGID_37_" gradientUnits="userSpaceOnUse" x1="-4.018" y1="634.777" x2="-2.46" y2="634.777" gradientTransform="scale(421.145 -421.145) rotate(36.748 954.615 323.628)"><stop offset="0" stop-color="#00aced"/><stop offset=".496" stop-color="#2b2a68"/><stop offset=".995" stop-color="#aa2e8d"/><stop offset="1" stop-color="#aa2e8d"/></linearGradient><path d="M60.4 195.4L248.7 54.8l114.5 153.4-188.3 140.6z" clip-path="url(#SVGID_36_)" fill="url(#SVGID_37_)"/></g><g class="st2"><defs><path id="SVGID_38_" d="M165.1 300.4l12.4 8.8 20.3-216.6-13.8 6.3z"/></defs><clipPath id="SVGID_39_"><use xlink:href="#SVGID_38_" overflow="visible"/></clipPath><linearGradient id="SVGID_40_" gradientUnits="userSpaceOnUse" x1="-4.018" y1="634.82" x2="-2.46" y2="634.82" gradientTransform="scale(421.145 -421.145) rotate(36.748 954.615 323.628)"><stop offset="0" stop-color="#00aced"/><stop offset=".496" stop-color="#2b2a68"/><stop offset=".995" stop-color="#aa2e8d"/><stop offset="1" stop-color="#aa2e8d"/></linearGradient><path d="M52 193.5L216.9 70.4l100.6 134.7-164.9 123.1z" clip-path="url(#SVGID_39_)" fill="url(#SVGID_40_)"/></g><g class="st2"><defs><path id="SVGID_41_" d="M139.5 282.3l12.4 8.8 17.4-185.4-13.8 6.3z"/></defs><clipPath id="SVGID_42_"><use xlink:href="#SVGID_41_" overflow="visible"/></clipPath><linearGradient id="SVGID_43_" gradientUnits="userSpaceOnUse" x1="-4.018" y1="634.863" x2="-2.46" y2="634.863" gradientTransform="scale(421.145 -421.145) rotate(36.748 954.615 323.628)"><stop offset="0" stop-color="#00aced"/><stop offset=".496" stop-color="#2b2a68"/><stop offset=".995" stop-color="#aa2e8d"/><stop offset="1" stop-color="#aa2e8d"/></linearGradient><path d="M43.7 191.5L185.1 85.9 271.7 202 130.3 307.6z" clip-path="url(#SVGID_42_)" fill="url(#SVGID_43_)"/></g><g class="st2"><defs><path id="SVGID_44_" d="M113.9 264.2l12.4 8.8 14.5-154.3-13.8 6.4z"/></defs><clipPath id="SVGID_45_"><use xlink:href="#SVGID_44_" overflow="visible"/></clipPath><linearGradient id="SVGID_46_" gradientUnits="userSpaceOnUse" x1="-4.018" y1="634.906" x2="-2.46" y2="634.906" gradientTransform="scale(421.145 -421.145) rotate(36.748 954.615 323.628)"><stop offset="0" stop-color="#00aced"/><stop offset=".496" stop-color="#2b2a68"/><stop offset=".995" stop-color="#aa2e8d"/><stop offset="1" stop-color="#aa2e8d"/></linearGradient><path d="M35.3 189.5l118-88 72.7 97.4L108.1 287z" clip-path="url(#SVGID_45_)" fill="url(#SVGID_46_)"/></g><g class="st2"><defs><path id="SVGID_47_" d="M88.4 246l12.4 8.8 11.5-123-13.8 6.4z"/></defs><clipPath id="SVGID_48_"><use xlink:href="#SVGID_47_" overflow="visible"/></clipPath><linearGradient id="SVGID_49_" gradientUnits="userSpaceOnUse" x1="-4.018" y1="634.95" x2="-2.46" y2="634.95" gradientTransform="scale(421.145 -421.145) rotate(36.748 954.615 323.628)"><stop offset="0" stop-color="#00aced"/><stop offset=".496" stop-color="#2b2a68"/><stop offset=".995" stop-color="#aa2e8d"/><stop offset="1" stop-color="#aa2e8d"/></linearGradient><path d="M27 187.6l94.5-70.6 58.8 78.8-94.5 70.6z" clip-path="url(#SVGID_48_)" fill="url(#SVGID_49_)"/></g><g class="st2"><defs><path id="SVGID_50_" d="M62.8 227.9l12.4 8.8 8.6-91.8-13.8 6.3z"/></defs><clipPath id="SVGID_51_"><use xlink:href="#SVGID_50_" overflow="visible"/></clipPath><linearGradient id="SVGID_52_" gradientUnits="userSpaceOnUse" x1="-4.018" y1="634.993" x2="-2.46" y2="634.993" gradientTransform="scale(421.145 -421.145) rotate(36.748 954.615 323.628)"><stop offset="0" stop-color="#00aced"/><stop offset=".496" stop-color="#2b2a68"/><stop offset=".995" stop-color="#aa2e8d"/><stop offset="1" stop-color="#aa2e8d"/></linearGradient><path d="M18.6 185.6l71.1-53.1 44.9 60.2-71.1 53z" clip-path="url(#SVGID_51_)" fill="url(#SVGID_52_)"/></g><g class="st2"><defs><path id="SVGID_53_" d="M37.2 209.7l12.4 8.8 5.7-60.5-13.8 6.3z"/></defs><clipPath id="SVGID_54_"><use xlink:href="#SVGID_53_" overflow="visible"/></clipPath><linearGradient id="SVGID_55_" gradientUnits="userSpaceOnUse" x1="-4.018" y1="635.036" x2="-2.46" y2="635.036" gradientTransform="scale(421.145 -421.145) rotate(36.748 954.615 323.628)"><stop offset="0" stop-color="#00aced"/><stop offset=".496" stop-color="#2b2a68"/><stop offset=".995" stop-color="#aa2e8d"/><stop offset="1" stop-color="#aa2e8d"/></linearGradient><path d="M10.3 183.6l47.6-35.5 31 41.5-47.7 35.5z" clip-path="url(#SVGID_54_)" fill="url(#SVGID_55_)"/></g><g class="st2"><defs><path id="SVGID_56_" d="M11.6 191.6l12.5 8.8 2.7-29.4-13.8 6.4z"/></defs><clipPath id="SVGID_57_"><use xlink:href="#SVGID_56_" overflow="visible"/></clipPath><linearGradient id="SVGID_58_" gradientUnits="userSpaceOnUse" x1="-4.018" y1="635.079" x2="-2.46" y2="635.079" gradientTransform="scale(421.145 -421.145) rotate(36.748 954.615 323.628)"><stop offset="0" stop-color="#00aced"/><stop offset=".496" stop-color="#2b2a68"/><stop offset=".995" stop-color="#aa2e8d"/><stop offset="1" stop-color="#aa2e8d"/></linearGradient><path d="M1.9 181.7l24.2-18.1 17.1 22.9-24.2 18z" clip-path="url(#SVGID_57_)" fill="url(#SVGID_58_)"/></g></g></g></svg>